<?xml version="1.0" standalone="no"?>
<!DOCTYPE svg PUBLIC "-//W3C//DTD SVG 20010904//EN"
 "http://www.w3.org/TR/2001/REC-SVG-20010904/DTD/svg10.dtd">
<svg version="1.0" xmlns="http://www.w3.org/2000/svg"
 width="2704.000000pt" height="1896.000000pt" viewBox="0 0 2704.000000 1896.000000"
 preserveAspectRatio="xMidYMid meet">
<metadata>
Created by potrace 1.16, written by Peter Selinger 2001-2019
</metadata>
<g transform="translate(0.000000,1896.000000) scale(0.100000,-0.100000)"
fill="#000000" stroke="none">
<path d="M10975 18927 c-22 -18 -50 -42 -62 -54 -12 -13 -27 -23 -33 -23 -5 0
-10 -3 -10 -7 0 -5 -34 -44 -75 -87 l-75 -79 -310 2 c-215 2 -310 -1 -310 -8
0 -8 -69 -11 -215 -11 -184 0 -215 -2 -215 -15 0 -10 -10 -15 -30 -15 -20 0
-30 -5 -30 -15 0 -12 -14 -15 -65 -15 -51 0 -65 -3 -65 -15 0 -12 -14 -15 -65
-15 -37 0 -65 -4 -65 -10 0 -5 -16 -10 -35 -10 -28 0 -35 -4 -35 -20 0 -11 -7
-20 -15 -20 -8 0 -15 -4 -15 -10 0 -5 -16 -10 -35 -10 -24 0 -35 -5 -35 -15 0
-8 -7 -15 -15 -15 -8 0 -15 -4 -15 -10 0 -5 -13 -10 -30 -10 -23 0 -30 -4 -30
-20 0 -13 -7 -20 -20 -20 -11 0 -20 -6 -20 -14 0 -9 -22 -15 -77 -20 -43 -4
-81 -13 -85 -19 -5 -8 -73 -13 -233 -16 -213 -3 -225 -4 -225 -22 0 -15 -7
-19 -35 -19 -24 0 -35 -5 -35 -15 0 -20 -23 -19 -68 4 -78 40 -153 71 -171 71
-11 0 -32 6 -48 14 -25 12 -53 21 -140 43 -17 4 -31 -4 -57 -33 -20 -22 -36
-45 -36 -53 0 -7 -16 -35 -35 -61 -19 -26 -35 -52 -35 -58 0 -6 -12 -33 -26
-59 -14 -26 -32 -66 -39 -88 -7 -22 -22 -62 -33 -90 -11 -27 -30 -83 -43 -123
-13 -41 -27 -76 -31 -79 -5 -2 -8 -17 -8 -33 0 -45 -52 -200 -67 -200 -7 0
-13 -7 -13 -15 0 -8 -9 -15 -20 -15 -13 0 -20 -7 -20 -19 0 -13 6 -18 18 -16
9 1 11 0 5 -2 -7 -3 -13 -11 -13 -19 0 -8 -7 -14 -15 -14 -8 0 -15 8 -15 17 0
13 -3 14 -12 5 -7 -7 -22 -12 -35 -12 -16 0 -23 -6 -23 -20 0 -11 -7 -20 -15
-20 -8 0 -15 -7 -15 -15 0 -10 -11 -15 -35 -15 -19 0 -35 -4 -35 -10 0 -5 -7
-10 -15 -10 -8 0 -15 -9 -15 -20 0 -11 -7 -20 -15 -20 -8 0 -15 -7 -15 -15 0
-10 -11 -15 -35 -15 -32 0 -35 -2 -35 -30 0 -20 -5 -30 -15 -30 -8 0 -15 -7
-15 -15 0 -8 -7 -15 -15 -15 -8 0 -15 -7 -15 -15 0 -8 -7 -15 -15 -15 -10 0
-15 -10 -15 -30 0 -20 -5 -30 -15 -30 -8 0 -15 -9 -15 -20 0 -13 -7 -20 -20
-20 -11 0 -20 -4 -20 -10 0 -5 -7 -10 -15 -10 -11 0 -15 -12 -15 -50 0 -38 -4
-50 -15 -50 -11 0 -15 -12 -15 -50 0 -38 4 -50 15 -50 8 0 15 -7 15 -16 0 -13
-7 -15 -32 -11 -18 3 -27 3 -20 0 6 -2 12 -18 12 -34 0 -22 5 -29 20 -29 11 0
20 7 20 15 0 8 7 15 15 15 8 0 15 7 15 15 0 8 7 15 15 15 8 0 15 -7 15 -15 0
-8 9 -15 20 -15 11 0 20 -7 20 -15 0 -8 -9 -15 -20 -15 -17 0 -20 -7 -20 -40
0 -29 -4 -40 -15 -40 -12 0 -15 -14 -15 -70 0 -56 -3 -70 -15 -70 -8 0 -15 -7
-15 -15 0 -8 7 -15 15 -15 8 0 15 7 15 15 0 8 7 15 15 15 10 0 15 10 15 30 0
28 3 30 35 30 19 0 35 5 35 10 0 6 7 10 15 10 8 0 15 -4 15 -10 0 -5 7 -10 15
-10 9 0 15 9 15 25 0 18 5 25 20 25 11 0 20 7 20 15 0 8 7 15 15 15 11 0 15
11 15 40 0 29 -4 40 -15 40 -8 0 -15 7 -15 15 0 11 12 15 45 15 l45 0 0 45 c0
38 3 45 20 45 15 0 20 7 20 25 0 21 5 25 30 25 20 0 30 5 30 15 0 10 -10 15
-30 15 -20 0 -30 -5 -30 -15 0 -8 -9 -15 -20 -15 -16 0 -20 7 -20 30 0 23 4
30 20 30 11 0 20 7 20 15 0 8 7 15 15 15 8 0 15 5 15 10 0 6 7 10 15 10 9 0
15 -9 15 -25 0 -18 5 -25 20 -25 15 0 20 7 20 25 0 21 5 25 30 25 27 0 30 3
30 30 0 27 -3 30 -30 30 -20 0 -30 5 -30 15 0 11 12 15 45 15 25 0 45 5 45 10
0 6 9 10 20 10 13 0 20 7 20 20 0 11 7 20 15 20 8 0 15 5 15 10 0 6 -16 10
-35 10 -32 0 -35 -2 -35 -30 0 -27 -3 -30 -30 -30 -23 0 -30 4 -30 20 0 11 7
20 15 20 8 0 15 5 15 10 0 6 7 10 15 10 8 0 15 7 15 15 0 10 -10 15 -30 15
-16 0 -30 5 -30 10 0 6 14 10 30 10 17 0 30 -4 30 -10 0 -5 16 -10 35 -10 19
0 35 5 35 10 0 6 7 10 15 10 8 0 15 9 15 20 0 11 7 20 15 20 8 0 15 -9 15 -20
0 -11 -7 -20 -15 -20 -8 0 -15 -4 -15 -10 0 -5 -7 -10 -15 -10 -8 0 -15 -7
-15 -15 0 -8 7 -15 15 -15 8 0 15 -4 15 -10 0 -5 -7 -10 -15 -10 -8 0 -15 -9
-15 -20 0 -11 -7 -20 -15 -20 -8 0 -15 -4 -15 -10 0 -5 -9 -10 -20 -10 -16 0
-20 -7 -20 -30 0 -23 4 -30 20 -30 11 0 20 7 20 15 0 8 7 15 15 15 8 0 15 7
15 15 0 8 7 15 15 15 8 0 15 5 15 10 0 6 7 10 15 10 8 0 15 -4 15 -10 0 -5 -7
-10 -15 -10 -8 0 -15 -7 -15 -15 0 -8 -7 -15 -15 -15 -8 0 -15 -7 -15 -15 0
-8 -7 -15 -15 -15 -8 0 -15 -7 -15 -15 0 -8 -9 -15 -20 -15 -11 0 -20 -4 -20
-10 0 -5 -13 -10 -30 -10 -20 0 -30 -5 -30 -15 0 -8 7 -15 15 -15 8 0 15 -7
15 -15 0 -8 -7 -15 -15 -15 -8 0 -15 -7 -15 -15 0 -8 7 -15 15 -15 11 0 15
-11 15 -40 0 -29 -4 -40 -15 -40 -8 0 -15 -7 -15 -15 0 -8 7 -15 15 -15 8 0
15 7 15 15 0 10 11 15 35 15 24 0 35 5 35 15 0 10 10 15 30 15 20 0 30 -5 30
-15 0 -8 -7 -15 -15 -15 -8 0 -15 -7 -15 -15 0 -8 -7 -15 -15 -15 -8 0 -15 -7
-15 -15 0 -8 -9 -15 -20 -15 -11 0 -20 -7 -20 -15 0 -8 9 -15 20 -15 11 0 20
7 20 15 0 8 7 15 15 15 8 0 15 -7 15 -15 0 -10 10 -15 30 -15 20 0 30 5 30 15
0 8 9 15 20 15 11 0 20 -7 20 -15 0 -8 -9 -15 -20 -15 -15 0 -20 -7 -20 -25 0
-21 -5 -25 -30 -25 -20 0 -30 -5 -30 -15 0 -8 -7 -15 -15 -15 -10 0 -15 -10
-15 -30 0 -27 3 -30 30 -30 20 0 30 5 30 15 0 8 7 15 15 15 10 0 15 10 15 30
0 23 4 30 20 30 11 0 20 7 20 15 0 8 7 15 15 15 10 0 15 -10 15 -30 0 -20 -5
-30 -15 -30 -8 0 -15 -7 -15 -15 0 -8 -9 -15 -20 -15 -11 0 -20 -7 -20 -15 0
-8 -7 -15 -15 -15 -8 0 -15 -4 -15 -10 0 -5 -13 -10 -30 -10 -20 0 -30 -5 -30
-15 0 -10 -11 -15 -35 -15 -24 0 -35 -5 -35 -15 0 -8 -7 -15 -15 -15 -8 0 -15
-7 -15 -15 0 -8 7 -15 15 -15 8 0 15 -4 15 -10 0 -5 -7 -10 -15 -10 -10 0 -15
-10 -15 -30 0 -20 5 -30 15 -30 10 0 15 10 15 30 0 20 5 30 15 30 8 0 15 5 15
10 0 6 9 10 20 10 11 0 20 7 20 15 0 8 7 15 15 15 8 0 15 7 15 15 0 8 7 15 15
15 8 0 15 -7 15 -15 0 -8 -7 -15 -15 -15 -9 0 -15 -9 -15 -25 0 -16 -6 -25
-15 -25 -8 0 -15 -9 -15 -20 0 -13 -7 -20 -20 -20 -11 0 -20 -4 -20 -10 0 -5
9 -10 20 -10 11 0 20 -7 20 -15 0 -8 7 -15 15 -15 8 0 15 7 15 15 0 8 7 15 15
15 10 0 15 10 15 30 0 29 1 30 50 30 49 0 50 -1 50 -30 0 -20 5 -30 15 -30 8
0 15 -7 15 -15 0 -8 -7 -15 -15 -15 -8 0 -15 7 -15 15 0 10 -11 15 -35 15 -24
0 -35 -5 -35 -15 0 -8 -7 -15 -15 -15 -12 0 -15 -18 -15 -100 0 -82 -3 -100
-15 -100 -8 0 -15 -7 -15 -15 0 -8 -14 -17 -35 -21 -32 -6 -35 -9 -35 -40 0
-24 -5 -34 -15 -34 -9 0 -15 -9 -15 -25 0 -16 6 -25 15 -25 8 0 15 -7 15 -15
0 -8 -7 -15 -15 -15 -8 0 -15 -7 -15 -15 0 -8 -7 -15 -15 -15 -11 0 -15 -11
-15 -40 0 -29 -4 -40 -15 -40 -11 0 -15 -11 -15 -40 0 -29 4 -40 15 -40 8 0
15 -7 15 -15 0 -8 -7 -15 -15 -15 -11 0 -15 -11 -15 -40 0 -29 4 -40 15 -40 8
0 15 5 15 10 0 6 7 10 15 10 8 0 15 5 15 10 0 6 7 10 15 10 8 0 15 9 15 20 0
13 7 20 20 20 13 0 20 -7 20 -20 0 -13 -7 -20 -20 -20 -18 0 -20 -7 -20 -55 0
-48 2 -55 20 -55 13 0 20 7 20 20 0 16 7 20 30 20 25 0 30 4 30 25 0 16 6 25
15 25 10 0 15 10 15 30 0 23 4 30 20 30 13 0 20 -7 20 -20 0 -11 7 -20 15 -20
12 0 15 13 15 60 0 47 3 60 15 60 10 0 15 10 15 30 0 23 4 30 20 30 15 0 20 7
20 25 0 16 6 25 15 25 10 0 15 10 15 30 0 20 5 30 15 30 9 0 15 9 15 25 0 22
4 25 35 25 31 0 35 -3 35 -25 0 -18 -5 -25 -20 -25 -11 0 -20 -7 -20 -15 0 -8
-7 -15 -15 -15 -11 0 -15 -11 -15 -40 0 -29 -4 -40 -15 -40 -10 0 -15 -10 -15
-30 0 -20 -5 -30 -15 -30 -9 0 -15 -9 -15 -25 0 -18 -5 -25 -20 -25 -17 0 -20
-7 -20 -45 0 -38 3 -45 20 -45 11 0 20 5 20 10 0 6 7 10 15 10 10 0 15 11 15
35 0 24 5 35 15 35 8 0 15 5 15 10 0 6 7 10 15 10 10 0 15 10 15 30 0 23 4 30
20 30 11 0 20 7 20 15 0 8 7 15 15 15 9 0 15 9 15 25 0 16 6 25 15 25 11 0 15
11 15 40 0 29 4 40 15 40 10 0 15 10 15 30 0 20 -5 30 -15 30 -26 0 -17 37 10
44 38 10 75 -3 75 -25 0 -10 7 -19 15 -19 8 0 15 -7 15 -15 0 -8 -7 -15 -15
-15 -11 0 -15 -11 -15 -40 0 -29 -4 -40 -15 -40 -8 0 -15 -7 -15 -15 0 -8 -9
-15 -20 -15 -11 0 -20 -7 -20 -15 0 -8 -7 -15 -15 -15 -8 0 -15 -4 -15 -10 0
-5 -7 -10 -15 -10 -10 0 -15 -10 -15 -30 0 -20 -5 -30 -15 -30 -8 0 -15 -7
-15 -15 0 -8 -9 -15 -20 -15 -15 0 -20 -7 -20 -25 0 -16 -6 -25 -15 -25 -8 0
-15 -9 -15 -20 0 -11 -7 -20 -15 -20 -8 0 -15 -4 -15 -10 0 -5 -7 -10 -15 -10
-8 0 -15 -4 -15 -10 0 -5 -9 -10 -20 -10 -16 0 -20 -7 -20 -35 0 -24 -5 -35
-15 -35 -10 0 -15 -11 -15 -35 0 -24 -5 -35 -15 -35 -8 0 -15 -9 -15 -20 0
-11 7 -20 15 -20 11 0 15 -11 15 -40 0 -29 4 -40 15 -40 8 0 15 -7 15 -15 0
-8 9 -15 20 -15 11 0 20 7 20 15 0 8 7 15 15 15 9 0 15 -9 15 -25 0 -16 6 -25
15 -25 8 0 15 5 15 10 0 6 7 10 15 10 8 0 15 -4 15 -10 0 -5 9 -10 20 -10 11
0 20 5 20 10 0 6 7 10 15 10 8 0 15 -4 15 -10 0 -5 7 -10 15 -10 8 0 15 5 15
10 0 6 7 10 15 10 8 0 15 7 15 15 0 8 9 15 20 15 11 0 20 -7 20 -15 0 -8 -9
-15 -20 -15 -11 0 -20 -4 -20 -10 0 -5 -7 -10 -15 -10 -10 0 -15 -10 -15 -30
0 -20 5 -30 15 -30 8 0 15 7 15 15 0 8 9 15 20 15 11 0 20 7 20 15 0 8 7 15
15 15 8 0 15 5 15 10 0 6 7 10 15 10 8 0 15 7 15 15 0 8 9 15 20 15 11 0 20 7
20 15 0 8 7 15 15 15 8 0 15 7 15 15 0 11 12 15 50 15 28 0 50 5 50 10 0 6 7
10 15 10 8 0 15 9 15 20 0 11 7 20 15 20 8 0 15 5 15 10 0 6 16 10 35 10 24 0
35 5 35 15 0 10 10 15 30 15 17 0 30 5 30 10 0 6 9 10 20 10 13 0 20 7 20 20
0 11 7 20 15 20 8 0 15 7 15 15 0 8 7 15 15 15 8 0 15 -7 15 -15 0 -8 -7 -15
-15 -15 -8 0 -15 -9 -15 -20 0 -11 -7 -20 -15 -20 -9 0 -15 -9 -15 -25 0 -16
6 -25 15 -25 8 0 15 7 15 15 0 8 7 15 15 15 8 0 15 5 15 10 0 6 28 10 65 10
l65 0 0 -35 c0 -33 2 -35 35 -35 28 0 35 -4 35 -20 0 -11 -7 -20 -15 -20 -8 0
-15 -4 -15 -10 0 -5 -9 -10 -20 -10 -11 0 -20 -7 -20 -15 0 -11 12 -15 50 -15
49 0 50 -1 50 -30 0 -20 -5 -30 -15 -30 -8 0 -15 -4 -15 -10 0 -5 14 -10 30
-10 17 0 30 5 30 10 0 6 23 10 50 10 38 0 50 4 50 15 0 11 12 15 50 15 38 0
50 4 50 15 0 12 14 15 65 15 51 0 65 3 65 15 0 13 22 15 136 15 l137 0 -26
-20 c-14 -11 -29 -20 -34 -20 -5 0 -18 -8 -29 -17 -10 -10 -37 -31 -59 -48
-60 -44 -112 -94 -156 -151 -38 -49 -39 -53 -39 -130 1 -167 40 -324 81 -324
20 0 159 72 219 114 25 17 61 47 81 67 39 38 104 163 113 214 3 17 13 59 22
95 10 37 18 103 18 153 l1 87 28 0 c20 0 27 5 27 20 0 20 7 20 360 20 233 0
360 4 360 10 0 6 18 10 40 10 42 0 50 -9 26 -29 -8 -7 -18 -26 -21 -42 -4 -16
-10 -31 -15 -34 -12 -7 -43 -74 -79 -170 l-29 -80 -101 -5 c-55 -3 -104 -9
-109 -15 -5 -6 -5 -144 0 -334 5 -178 7 -326 4 -328 -3 -3 -435 -2 -961 2
l-956 8 7 362 c4 211 3 364 -2 367 -5 3 -130 0 -279 -7 -148 -6 -272 -8 -275
-4 -3 4 -18 11 -33 14 -17 5 -27 14 -27 26 0 10 -7 19 -15 19 -8 0 -15 7 -15
15 0 8 -9 15 -20 15 -11 0 -20 7 -20 15 0 8 -7 15 -15 15 -8 0 -15 5 -15 10 0
19 -28 10 -44 -15 -9 -14 -22 -49 -30 -77 -7 -30 -19 -54 -27 -55 -8 -1 -55
-3 -106 -5 l-91 -4 9 25 c14 39 23 60 58 134 30 65 30 68 11 65 -21 -3 -46
-52 -90 -173 l-19 -50 -91 -3 -92 -3 7 33 c4 18 18 66 31 106 13 40 24 83 24
95 0 12 6 33 13 47 19 35 26 80 17 110 -6 23 -7 22 -18 -15 -6 -22 -16 -62
-23 -90 -7 -27 -16 -54 -20 -60 -4 -5 -15 -46 -24 -90 -9 -44 -21 -94 -27
-111 l-11 -32 -206 -6 c-220 -8 -307 -20 -320 -45 -5 -9 -12 -343 -16 -743 -6
-604 -10 -728 -21 -732 -21 -8 -17 -54 5 -66 11 -5 58 -10 104 -10 95 0 95 0
122 -77 11 -29 23 -53 27 -53 4 0 8 -7 8 -15 0 -8 4 -15 9 -15 5 0 11 -12 14
-27 3 -16 14 -37 25 -49 11 -11 28 -38 38 -60 10 -21 26 -48 36 -58 10 -11 18
-25 18 -30 0 -6 12 -24 26 -41 15 -16 36 -46 49 -65 12 -19 30 -41 39 -49 9
-7 16 -18 16 -23 0 -5 26 -40 57 -77 32 -37 81 -98 108 -134 28 -36 56 -66 63
-66 6 -1 12 -5 12 -11 0 -5 29 -39 65 -76 36 -37 65 -71 65 -75 0 -5 4 -9 10
-9 10 0 50 -36 50 -45 0 -7 39 -45 45 -45 3 0 32 -27 65 -60 33 -33 64 -60 69
-60 5 0 11 -7 15 -15 3 -8 17 -20 31 -27 14 -6 25 -17 25 -25 0 -7 4 -13 10
-13 5 0 25 -15 44 -32 50 -49 82 -75 105 -88 20 -10 21 -17 21 -263 0 -139 5
-297 10 -352 11 -96 15 -128 41 -310 6 -44 15 -116 20 -160 9 -90 18 -145 42
-255 8 -41 23 -111 32 -155 26 -134 62 -287 80 -345 9 -30 20 -73 25 -95 4
-22 19 -76 34 -120 14 -44 33 -102 42 -130 9 -27 22 -63 29 -80 8 -16 25 -61
38 -100 13 -38 30 -86 37 -105 19 -52 54 -125 63 -128 4 -2 7 -12 7 -21 0 -10
14 -44 31 -76 22 -42 29 -64 24 -86 -4 -16 -10 -29 -15 -29 -4 0 -10 -10 -13
-23 -3 -12 -10 -35 -16 -52 -5 -16 -17 -57 -26 -90 -9 -33 -20 -68 -26 -77 -5
-10 -9 -26 -9 -37 0 -18 6 -19 100 -14 109 6 110 6 87 -50 -8 -18 -20 -62 -27
-100 -10 -53 -10 -70 0 -82 13 -16 60 -20 75 -7 6 5 26 15 45 22 19 8 51 26
70 40 19 15 43 30 53 33 9 4 17 11 17 17 0 5 5 10 11 10 6 0 26 12 44 26 l34
26 46 -18 c25 -9 48 -21 51 -25 3 -5 16 -9 28 -9 13 0 29 -6 36 -14 6 -8 21
-16 33 -18 30 -4 33 -32 7 -65 -12 -15 -17 -30 -12 -35 9 -9 107 2 207 22 28
6 82 13 120 17 39 3 79 12 90 18 11 7 36 16 55 20 39 8 153 71 215 119 68 53
177 168 214 226 8 14 18 27 22 30 11 9 97 157 105 182 4 13 18 40 30 60 13 21
24 44 24 51 0 15 30 79 40 87 4 3 13 23 20 45 15 50 53 129 63 133 4 2 7 13 7
25 0 12 14 49 30 81 17 32 30 65 30 72 0 12 22 62 51 116 5 10 9 26 9 36 0 10
11 40 24 68 13 27 31 76 40 109 10 33 22 72 29 87 11 26 12 26 47 11 19 -8 49
-19 65 -23 57 -15 163 -56 178 -69 9 -7 19 -26 22 -42 4 -16 11 -31 16 -34 5
-4 9 -17 9 -31 0 -13 4 -32 10 -42 17 -31 60 -132 60 -142 0 -5 9 -25 19 -43
23 -41 33 -60 55 -107 38 -77 70 -131 94 -156 6 -7 12 -19 12 -27 0 -9 3 -17
8 -19 4 -1 20 -23 36 -48 17 -25 38 -54 48 -66 18 -20 18 -22 -7 -71 -14 -28
-25 -58 -25 -67 0 -13 -20 -61 -51 -118 -5 -10 -9 -25 -9 -33 0 -27 116 -17
275 24 32 8 45 7 63 -5 l24 -16 -8 -156 c-5 -121 -11 -163 -24 -186 -10 -17
-21 -46 -25 -63 -4 -18 -11 -33 -16 -33 -5 0 -9 -8 -9 -17 0 -10 -7 -31 -15
-47 -8 -15 -15 -38 -15 -51 0 -12 -7 -39 -15 -58 -25 -61 -21 -77 21 -77 55 0
166 22 189 37 11 7 27 13 36 13 9 0 22 7 29 15 16 19 87 19 120 0 14 -8 38
-14 53 -15 15 0 41 -7 56 -15 23 -11 29 -23 35 -61 12 -93 48 -195 78 -226 16
-16 20 -16 65 0 35 12 69 38 124 94 l75 77 40 -9 c21 -5 58 -10 81 -10 44 0
62 -17 64 -57 0 -10 10 -37 22 -59 12 -23 30 -58 41 -78 21 -42 26 -43 51 -16
10 11 23 20 29 20 19 0 99 82 120 122 11 20 27 39 35 43 44 16 78 44 168 135
54 55 109 114 123 131 14 18 37 46 52 63 27 32 71 90 147 196 24 33 46 60 50
60 3 0 14 18 24 39 11 21 29 49 40 63 12 13 27 31 32 41 6 9 34 50 63 91 28
42 52 78 52 82 0 3 14 23 30 44 17 21 30 41 30 45 0 5 11 22 24 40 14 18 37
54 52 81 15 27 33 53 40 57 8 4 14 15 14 24 0 9 11 31 25 49 22 29 29 32 53
24 15 -4 98 -16 184 -26 l158 -18 6 -35 c7 -44 43 -153 55 -165 5 -6 9 -17 9
-26 0 -21 77 -176 107 -216 13 -17 23 -38 23 -46 0 -9 7 -18 15 -22 8 -3 15
-12 15 -20 0 -7 7 -16 15 -20 8 -3 15 -10 15 -16 0 -5 21 -37 46 -70 43 -57
45 -62 30 -79 -9 -10 -16 -23 -16 -29 0 -7 -4 -12 -10 -12 -5 0 -10 -7 -10
-15 0 -8 -4 -15 -9 -15 -5 0 -14 -15 -21 -32 -7 -18 -26 -61 -42 -96 -29 -65
-37 -127 -16 -134 21 -7 194 26 243 47 17 7 64 29 105 49 79 37 82 38 158 5
36 -15 38 -19 18 -57 -21 -41 -30 -116 -17 -141 14 -26 64 -28 118 -5 78 34
163 78 163 85 0 4 14 12 30 18 16 5 30 15 30 20 0 15 39 14 107 -4 31 -8 71
-15 89 -15 l31 0 -9 -56 c-5 -30 -6 -60 -2 -66 12 -19 83 -1 164 44 8 4 39 19
68 34 28 14 52 29 52 34 0 4 8 10 18 14 9 3 31 15 47 26 17 11 46 27 65 36
102 47 128 62 165 89 22 16 42 33 43 37 2 5 10 8 18 8 8 0 14 9 14 20 0 11 4
20 10 20 5 0 12 11 16 25 3 14 10 25 14 25 4 0 11 16 15 36 3 20 19 61 34 92
16 32 32 70 35 86 4 17 21 56 37 89 16 32 29 66 29 76 0 9 6 27 13 41 14 26
33 82 63 185 10 33 22 65 26 70 4 6 14 47 23 90 9 44 21 87 25 96 5 8 18 58
29 110 11 52 27 126 37 164 9 39 20 99 24 135 4 36 15 106 25 155 31 170 36
211 46 410 10 205 0 562 -19 655 -6 25 -18 81 -27 125 -10 44 -20 100 -22 125
-2 25 -8 54 -13 65 -4 11 -14 40 -20 65 -6 25 -18 70 -26 100 -12 48 -48 154
-109 325 -10 28 -28 73 -41 100 -34 77 -113 247 -129 278 -13 25 -13 28 5 40
11 6 20 17 20 24 0 7 6 13 13 13 7 0 20 8 28 18 9 9 45 44 80 78 35 33 80 80
99 104 19 24 46 55 60 69 85 89 220 253 220 269 1 4 14 23 30 42 17 19 30 40
30 47 0 7 5 13 10 13 6 0 10 7 10 15 0 8 4 15 9 15 5 0 17 17 26 38 10 20 30
53 45 72 15 19 31 46 35 60 4 14 18 41 30 60 12 19 25 46 30 60 4 14 18 45 31
69 13 24 24 52 24 63 0 10 11 40 24 67 31 60 77 239 106 406 28 164 29 735 1
856 -6 24 -11 67 -11 94 -1 76 -65 433 -95 535 -9 30 -20 73 -25 95 -7 39 -73
249 -90 290 -5 11 -18 45 -28 75 -37 103 -83 215 -108 263 -13 27 -24 55 -24
62 0 8 -13 42 -29 77 -16 35 -35 82 -42 106 -7 23 -15 42 -19 42 -4 0 -12 19
-19 43 -7 23 -26 70 -42 105 -16 35 -29 69 -29 75 0 7 -16 45 -35 84 -19 40
-35 77 -35 83 0 6 -14 40 -30 77 -17 36 -30 71 -30 77 0 6 -14 38 -30 71 -16
33 -30 66 -30 73 0 7 -12 36 -27 65 -14 29 -29 66 -34 82 -4 17 -17 55 -28 85
-12 30 -28 80 -35 110 -8 30 -24 88 -36 129 -44 154 -89 445 -90 583 0 90 17
235 30 253 6 9 17 51 36 143 4 22 4 22 -121 22 -80 0 -125 -4 -125 -10 0 -10
-8 -22 -38 -55 -7 -8 -20 -31 -28 -52 -9 -20 -27 -51 -40 -68 -13 -18 -24 -39
-24 -49 0 -9 -10 -33 -23 -54 -13 -20 -31 -59 -42 -87 -10 -27 -24 -59 -31
-70 -7 -11 -18 -40 -24 -65 -7 -24 -20 -62 -31 -85 -10 -22 -27 -78 -38 -125
-11 -47 -27 -112 -35 -145 -8 -33 -15 -76 -16 -96 0 -20 -7 -74 -14 -120 -21
-119 -44 -469 -51 -774 -3 -143 -12 -316 -20 -385 -21 -175 -60 -414 -80 -485
-9 -33 -19 -73 -22 -90 -2 -16 -14 -50 -25 -75 -11 -25 -27 -63 -35 -85 -7
-22 -25 -57 -38 -77 -14 -21 -25 -42 -25 -47 0 -6 -16 -27 -35 -48 -19 -21
-35 -42 -35 -47 0 -12 -127 -136 -139 -136 -5 0 -11 -6 -14 -13 -2 -7 -25 -23
-51 -35 -25 -13 -48 -27 -51 -33 -4 -5 -15 -9 -27 -9 -11 0 -32 -6 -46 -14
-85 -44 -319 -63 -382 -31 -16 8 -38 15 -48 15 -11 0 -25 7 -32 15 -7 8 -20
15 -30 15 -9 0 -30 11 -46 25 -16 14 -34 25 -40 25 -6 0 -19 9 -29 20 -10 11
-23 20 -29 20 -7 0 -19 8 -27 18 -9 9 -26 24 -37 32 -12 8 -22 20 -22 27 0 7
-4 13 -10 13 -12 0 -50 37 -50 48 0 4 -16 22 -35 41 -19 18 -35 37 -35 42 0 5
-27 37 -60 71 -33 35 -60 68 -60 73 -1 6 -14 21 -30 35 -17 13 -30 30 -30 36
0 7 -8 19 -18 26 -9 7 -29 29 -43 48 -15 19 -42 49 -60 67 -19 17 -49 45 -67
62 -18 17 -39 31 -47 31 -8 0 -15 6 -15 13 -1 6 -17 20 -38 31 -20 10 -63 31
-95 47 -31 16 -63 29 -71 29 -11 0 -72 26 -85 36 -2 2 -7 40 -11 86 -5 46 -16
119 -25 163 -9 44 -27 139 -40 210 -13 72 -31 164 -40 205 -9 41 -20 102 -25
135 -5 33 -17 87 -26 120 -9 33 -20 83 -26 110 -6 28 -23 93 -39 145 -16 53
-29 100 -29 106 0 6 -6 24 -14 40 -8 16 -31 64 -51 107 -20 43 -43 81 -51 84
-8 3 -14 11 -14 18 0 14 -22 25 -51 25 -24 0 -146 -37 -182 -56 -16 -8 -35
-14 -44 -14 -8 0 -29 -7 -46 -16 -52 -27 -61 -30 -79 -26 -10 2 -18 10 -18 18
0 8 -6 14 -14 14 -19 0 -27 37 -10 44 8 3 14 11 14 18 0 7 14 28 30 47 17 18
30 36 30 40 0 11 155 181 165 181 3 0 25 20 51 45 25 25 48 45 51 45 3 0 22
14 43 30 21 17 43 30 49 30 6 0 11 4 11 9 0 5 12 14 28 20 15 6 47 22 72 35
25 14 63 32 85 41 22 10 54 23 70 30 17 8 57 21 90 30 33 9 91 28 129 41 38
13 82 24 98 24 16 0 39 5 50 11 30 16 201 39 368 49 195 11 426 37 449 50 11
5 38 10 60 10 22 0 52 5 68 11 15 6 57 16 93 24 144 30 209 55 351 135 l44 25
-35 3 c-19 2 -36 -1 -38 -7 -2 -6 -8 -11 -14 -11 -5 0 -39 -13 -75 -30 -35
-16 -68 -30 -73 -30 -4 0 -21 -7 -36 -15 -16 -8 -41 -15 -56 -15 -15 0 -45 -6
-65 -14 -50 -18 -122 -34 -205 -45 -37 -5 -72 -12 -78 -16 -6 -3 -61 -10 -123
-15 -375 -29 -514 -41 -527 -46 -8 -3 -35 -10 -60 -14 -112 -22 -256 -58 -282
-71 -10 -5 -46 -18 -80 -29 -35 -12 -71 -25 -80 -31 -10 -5 -24 -9 -33 -9 -18
0 -209 -99 -213 -111 -2 -5 -8 -9 -14 -9 -14 0 -127 -87 -176 -137 -23 -24
-44 -43 -47 -43 -6 0 -54 -51 -85 -91 -14 -18 -40 -49 -57 -69 -18 -21 -33
-41 -33 -46 0 -15 -50 -64 -65 -64 -10 0 -15 10 -15 30 0 23 -4 30 -20 30 -16
0 -20 7 -20 30 0 20 -5 30 -15 30 -10 0 -15 11 -15 35 0 32 -2 35 -30 35 -16
0 -30 5 -30 10 0 6 -7 10 -15 10 -8 0 -15 9 -15 20 0 13 -7 20 -20 20 -11 0
-20 7 -20 15 0 10 -10 15 -30 15 -16 0 -30 5 -30 10 0 6 -7 10 -15 10 -8 0
-15 9 -15 20 0 18 -7 20 -65 20 -51 0 -65 3 -65 15 0 11 -12 15 -50 15 -38 0
-50 4 -50 15 0 12 -13 15 -60 15 -53 0 -60 2 -60 20 0 13 -7 20 -20 20 -11 0
-20 5 -20 10 0 6 -27 10 -60 10 -47 0 -60 3 -60 15 0 10 -11 15 -35 15 -28 0
-35 4 -35 20 0 17 -7 20 -45 20 -25 0 -45 5 -45 10 0 6 -9 10 -20 10 -13 0
-20 7 -20 20 0 16 -7 20 -30 20 -16 0 -30 5 -30 10 0 6 -13 10 -30 10 -20 0
-30 5 -30 15 0 12 -19 15 -115 15 -97 0 -115 2 -115 15 0 9 -9 19 -21 23 -18
7 -11 18 73 102 52 52 121 113 154 135 82 55 82 55 44 54 -24 0 -48 -10 -75
-32z m-2985 -568 c115 -30 327 -120 298 -127 -10 -2 -18 -8 -18 -13 0 -5 -7
-9 -15 -9 -9 0 -18 -7 -21 -15 -4 -8 -12 -15 -20 -15 -9 0 -14 -11 -14 -30 0
-16 -4 -30 -10 -30 -15 0 -50 -33 -50 -46 0 -7 -13 -15 -30 -19 -16 -4 -30
-13 -30 -21 0 -8 -9 -14 -19 -14 -11 0 -26 -7 -35 -15 -8 -8 -19 -15 -25 -15
-6 0 -11 -7 -11 -15 0 -9 -9 -15 -24 -15 -14 0 -38 -13 -54 -30 -17 -16 -35
-30 -41 -30 -6 0 -11 -7 -11 -15 0 -8 -7 -15 -15 -15 -8 0 -15 -9 -15 -20 0
-13 -7 -20 -20 -20 -11 0 -20 -4 -20 -10 0 -5 -7 -10 -15 -10 -8 0 -15 -7 -15
-15 0 -8 -7 -15 -15 -15 -8 0 -15 -9 -15 -20 0 -11 -7 -20 -15 -20 -8 0 -15
-4 -15 -10 0 -15 -38 -50 -55 -50 -8 0 -15 -9 -15 -20 0 -10 -6 -23 -14 -27
-8 -4 -16 -17 -19 -28 -4 -17 -5 -16 -6 4 0 14 10 56 23 95 13 39 32 98 41
131 9 33 20 65 25 70 4 6 13 28 19 50 11 38 61 157 84 200 6 11 17 32 24 47 8
15 18 30 24 33 5 4 9 12 9 19 0 26 75 127 90 122 8 -3 35 -10 60 -17z m4672
-427 c10 -18 15 -38 12 -44 -4 -6 -3 -8 3 -5 12 8 34 -37 68 -140 15 -43 29
-85 32 -93 6 -15 31 -105 58 -211 8 -31 16 -76 18 -100 3 -24 9 -55 16 -69 15
-34 30 -140 19 -140 -4 0 -8 14 -8 30 0 20 -5 30 -15 30 -8 0 -15 7 -15 15 0
8 -7 15 -15 15 -10 0 -15 10 -15 30 0 20 -5 30 -15 30 -10 0 -15 11 -15 35 0
25 -4 35 -16 35 -21 0 -53 40 -54 68 0 13 -6 22 -15 22 -10 0 -15 10 -15 30 0
20 -5 30 -15 30 -9 0 -15 9 -15 25 0 16 -6 25 -15 25 -11 0 -15 11 -15 40 0
38 -2 40 -30 40 -22 0 -39 10 -66 40 -20 22 -43 40 -50 40 -8 0 -14 7 -14 15
0 10 -11 15 -35 15 -26 0 -35 4 -35 17 0 20 -28 53 -47 53 -7 0 -13 5 -13 10
0 6 -6 10 -14 10 -7 0 -16 11 -18 25 -4 21 -1 25 18 25 12 0 25 4 28 9 4 5 43
21 89 36 45 14 89 30 97 36 8 5 35 8 59 7 39 -3 47 -7 63 -36z m-72 -1167 c0
-8 7 -15 15 -15 12 0 15 -13 15 -55 0 -42 3 -55 15 -55 9 0 15 -9 15 -25 0
-18 5 -25 20 -25 17 0 20 -7 20 -45 0 -33 4 -45 15 -45 8 0 15 -4 15 -10 0 -5
7 -10 15 -10 10 0 15 -10 15 -30 0 -20 5 -30 15 -30 8 0 15 -7 15 -15 0 -8 9
-15 20 -15 16 0 20 -7 20 -30 0 -20 5 -30 15 -30 12 0 15 -13 15 -55 0 -42 3
-55 15 -55 12 0 15 -13 15 -55 0 -48 2 -55 20 -55 11 0 20 -7 20 -15 0 -8 7
-15 15 -15 9 0 15 -9 15 -25 0 -16 6 -25 15 -25 10 0 15 -10 15 -30 0 -20 5
-30 15 -30 11 0 15 -11 15 -40 0 -33 3 -40 20 -40 17 0 20 -7 20 -40 0 -29 4
-40 15 -40 10 0 15 -11 15 -35 0 -24 5 -35 15 -35 12 0 15 -14 15 -65 0 -51 3
-65 15 -65 13 0 15 -28 15 -195 0 -182 1 -195 18 -195 19 0 25 -39 53 -385 25
-318 28 -327 23 -85 -3 129 -7 254 -11 278 -3 27 -1 42 6 42 6 0 11 -17 11
-40 0 -33 3 -40 20 -40 11 0 20 -7 20 -15 0 -8 5 -15 10 -15 6 0 10 16 10 35
0 24 5 35 15 35 13 0 15 31 15 220 0 189 -2 220 -15 220 -12 0 -15 13 -15 60
0 47 -3 60 -15 60 -11 0 -15 12 -15 45 0 38 -3 45 -20 45 -13 0 -20 7 -20 20
0 11 2 20 4 20 3 0 31 -26 64 -57 32 -32 71 -67 85 -78 15 -11 27 -25 27 -32
0 -7 6 -13 13 -13 7 0 30 -18 51 -40 21 -22 42 -40 47 -40 5 0 9 -6 9 -14 0
-8 14 -23 30 -33 17 -9 30 -21 30 -25 0 -11 38 -48 50 -48 6 0 10 -7 10 -15 0
-8 4 -15 8 -15 5 0 35 -27 68 -61 32 -33 67 -68 77 -77 88 -81 287 -283 287
-291 0 -6 4 -11 9 -11 8 0 111 -96 111 -103 0 -2 -99 -7 -219 -11 -201 -6
-226 -9 -293 -33 -70 -25 -108 -50 -108 -73 0 -5 -4 -10 -8 -10 -5 0 -14 -19
-21 -42 -10 -33 -10 -51 0 -87 6 -25 16 -50 20 -55 5 -6 9 -20 9 -33 0 -13 14
-53 30 -90 17 -36 30 -70 30 -76 0 -5 15 -42 34 -81 18 -39 37 -82 41 -96 4
-14 13 -34 20 -45 6 -11 18 -38 25 -60 7 -22 26 -64 42 -93 15 -29 28 -61 28
-72 0 -11 4 -20 9 -20 5 0 12 -13 16 -30 4 -16 10 -30 15 -30 4 0 11 -12 15
-27 10 -40 49 -123 57 -123 5 0 8 -8 8 -19 0 -10 13 -43 29 -72 16 -30 35 -74
42 -97 6 -23 16 -42 20 -42 4 0 10 -13 14 -30 4 -16 11 -30 16 -30 5 0 9 -8 9
-19 0 -20 69 -101 87 -101 6 0 31 -11 54 -25 24 -14 56 -25 70 -25 15 0 46 -7
70 -16 35 -12 98 -15 300 -17 232 -2 259 0 276 16 11 9 23 17 28 17 10 0 31
27 51 67 13 27 15 59 10 195 -8 251 -29 394 -82 560 -7 22 49 -31 88 -82 14
-19 42 -52 62 -72 20 -20 36 -40 36 -43 0 -4 14 -20 30 -37 17 -16 30 -34 30
-39 0 -5 30 -44 68 -88 37 -44 78 -96 92 -117 14 -20 37 -50 52 -66 15 -15 29
-36 33 -47 3 -10 19 -33 35 -51 16 -18 32 -42 36 -52 3 -10 10 -18 15 -18 5 0
9 -6 9 -14 0 -8 7 -16 15 -20 8 -3 15 -12 15 -19 0 -8 10 -25 23 -39 12 -14
31 -42 41 -62 11 -20 30 -48 43 -62 13 -14 23 -27 23 -30 0 -5 110 -193 131
-224 5 -8 12 -23 15 -32 4 -10 10 -18 15 -18 5 0 9 -6 9 -12 0 -7 18 -49 40
-92 22 -43 40 -85 40 -92 0 -8 5 -14 10 -14 6 0 10 -6 10 -13 0 -7 9 -29 20
-50 11 -20 20 -43 20 -49 0 -7 14 -40 30 -73 16 -33 30 -69 30 -80 0 -12 4
-25 8 -30 15 -17 94 -261 117 -361 7 -32 21 -88 30 -124 9 -36 21 -94 25 -130
5 -36 17 -114 26 -175 31 -214 34 -555 4 -730 -16 -98 -18 -108 -29 -220 -6
-55 -17 -131 -26 -170 -8 -38 -20 -99 -26 -135 -10 -61 -19 -99 -55 -240 -7
-30 -16 -72 -19 -92 -3 -21 -12 -50 -20 -65 -8 -15 -15 -38 -15 -50 0 -12 -4
-25 -10 -28 -5 -3 -10 -19 -10 -35 0 -16 -6 -44 -14 -62 -8 -18 -20 -47 -27
-65 -7 -17 -16 -30 -19 -28 -3 2 -5 -12 -6 -30 0 -31 -18 -78 -50 -137 -7 -14
-14 -33 -14 -42 0 -8 -13 -45 -30 -81 -16 -36 -30 -72 -30 -80 0 -7 -5 -17
-10 -20 -6 -4 -8 -11 -5 -16 4 -5 1 -9 -4 -9 -6 0 -11 -7 -11 -15 0 -8 -4 -15
-10 -15 -5 0 -6 -7 -3 -17 4 -9 2 -14 -3 -11 -5 4 -10 -7 -11 -23 -1 -19 -15
-42 -36 -62 -39 -38 -109 -87 -124 -87 -6 0 -16 -7 -23 -15 -7 -8 -22 -15 -33
-15 -11 0 -29 -7 -39 -17 -11 -9 -18 -11 -18 -5 0 7 -9 21 -21 33 -11 11 -18
27 -15 35 3 8 -1 14 -8 14 -8 0 -17 7 -20 16 -3 8 -10 13 -15 9 -6 -3 -14 2
-19 11 -6 10 -28 17 -68 21 -54 5 -61 3 -90 -24 -28 -25 -86 -123 -98 -164 -4
-15 -12 -15 -88 -2 -45 8 -85 16 -87 19 -3 2 3 10 13 17 19 14 18 48 -2 84 -7
12 -12 31 -12 42 0 12 -4 21 -9 21 -5 0 -14 14 -20 30 -5 17 -14 30 -20 30 -5
0 -12 8 -15 18 -6 18 -58 46 -91 48 -26 2 -75 -16 -75 -27 0 -5 -7 -9 -15 -9
-9 0 -12 -6 -9 -15 4 -8 1 -15 -4 -15 -6 0 -22 -18 -35 -40 -13 -22 -27 -37
-31 -33 -4 5 -7 4 -6 -2 5 -23 -1 -36 -12 -29 -7 4 -10 4 -6 -1 4 -4 1 -20 -8
-36 l-14 -29 -38 20 c-20 11 -41 20 -46 20 -18 0 -46 33 -46 55 0 13 -7 28
-15 35 -8 7 -15 19 -15 26 0 8 -5 14 -11 14 -6 0 -8 7 -5 16 3 8 2 12 -4 9 -6
-3 -10 0 -10 7 0 7 -17 24 -37 38 -29 20 -49 25 -97 25 -54 -1 -64 2 -88 27
-16 16 -28 33 -28 38 0 6 -13 24 -30 41 -16 18 -27 35 -24 40 3 5 0 9 -5 9 -6
0 -11 4 -11 9 0 6 -11 22 -25 37 -14 15 -23 29 -20 32 2 3 -5 16 -15 30 -11
13 -20 31 -20 38 0 8 -4 14 -9 14 -5 0 -15 17 -22 37 -7 21 -20 51 -30 67 -10
16 -16 33 -14 37 3 4 -2 12 -10 19 -8 7 -15 27 -15 44 0 18 -5 37 -12 44 -7 7
-8 12 -4 12 5 0 2 10 -7 23 -29 45 -41 165 -41 432 -1 246 11 395 34 450 10
24 20 67 27 120 3 22 9 45 13 50 4 6 11 26 15 45 4 19 11 40 15 45 4 6 15 33
23 60 8 28 27 77 42 110 15 33 31 71 37 85 17 42 26 55 35 53 4 -1 9 9 9 22 1
12 9 35 18 51 8 16 25 49 37 74 12 25 26 46 30 48 5 2 9 10 9 18 0 8 4 14 9
14 5 0 13 10 17 23 3 12 21 42 38 67 45 65 56 83 62 103 4 9 10 17 15 17 6 0
13 8 16 18 4 9 29 50 57 90 28 40 58 83 66 96 24 37 52 75 88 116 17 20 32 40
32 44 0 3 16 22 35 40 19 19 35 37 35 40 0 10 160 166 170 166 6 0 10 7 10 15
0 8 6 15 14 15 18 0 29 16 21 30 -7 11 -55 -8 -55 -22 0 -4 -4 -8 -10 -8 -11
0 -128 -116 -204 -203 -27 -31 -54 -53 -59 -50 -6 3 -7 1 -4 -4 8 -12 -48 -93
-63 -93 -6 0 -10 -7 -10 -15 0 -8 -12 -29 -28 -47 -15 -18 -34 -45 -41 -60 -8
-15 -19 -25 -24 -21 -6 3 -7 1 -4 -4 4 -6 0 -16 -8 -23 -8 -7 -15 -18 -15 -26
0 -7 -13 -29 -30 -47 -16 -19 -30 -41 -30 -50 0 -8 -7 -17 -15 -21 -8 -3 -15
-12 -15 -21 0 -8 -4 -15 -9 -15 -5 0 -14 -13 -21 -30 -7 -16 -17 -30 -22 -30
-5 0 -6 -5 -3 -11 4 -6 0 -16 -8 -22 -15 -11 -41 -55 -91 -152 -12 -23 -30
-54 -42 -70 -12 -17 -24 -43 -28 -58 -4 -17 -11 -25 -18 -21 -7 4 -8 3 -4 -4
4 -7 -2 -29 -12 -50 -11 -20 -25 -53 -31 -72 l-11 -35 5 40 c25 212 29 535 9
860 -6 108 -39 291 -54 310 -5 6 -10 32 -12 58 -2 26 -5 47 -8 47 -7 0 -41 72
-44 93 -1 10 -10 27 -19 38 -9 10 -17 23 -17 29 0 5 -4 11 -10 15 -9 6 2 -40
21 -80 5 -11 15 -52 23 -91 8 -39 24 -95 35 -125 17 -49 29 -121 37 -239 2
-25 10 -112 18 -195 17 -172 20 -433 7 -514 -11 -63 -29 -177 -42 -266 -12
-90 -21 -125 -28 -121 -3 2 -7 -8 -8 -23 -1 -15 -7 -40 -14 -56 -7 -17 -11
-38 -10 -48 1 -10 -3 -25 -9 -33 -7 -8 -10 -14 -6 -14 3 0 -5 -25 -19 -56 -14
-31 -25 -66 -25 -78 0 -12 -9 -32 -19 -43 -11 -12 -17 -23 -14 -26 3 -3 -4
-19 -16 -35 -11 -16 -18 -32 -15 -35 8 -7 -37 -87 -48 -87 -5 0 -6 -4 -3 -10
8 -13 -44 -122 -56 -114 -5 3 -8 2 -7 -3 3 -12 -23 -83 -31 -83 -3 0 -14 -16
-24 -35 -9 -19 -25 -51 -34 -70 -10 -19 -21 -35 -24 -35 -4 0 -10 -12 -14 -27
-3 -16 -17 -41 -29 -58 -12 -16 -28 -45 -35 -62 -8 -18 -20 -33 -29 -33 -8 0
-13 -3 -9 -6 10 -10 -34 -85 -46 -77 -5 3 -8 2 -4 -3 5 -8 -53 -107 -83 -141
-5 -7 -10 -15 -10 -19 0 -4 -11 -21 -24 -38 -12 -17 -31 -46 -41 -65 -16 -33
-25 -45 -52 -76 -7 -7 -13 -18 -13 -23 0 -5 -9 -17 -19 -26 -11 -10 -34 -42
-52 -72 -18 -30 -37 -54 -41 -54 -4 0 -8 -7 -8 -15 0 -9 -7 -18 -15 -21 -8 -4
-15 -12 -15 -20 0 -8 -4 -14 -9 -14 -4 0 -21 -20 -37 -45 -15 -25 -32 -45 -36
-45 -5 0 -13 -11 -18 -25 -5 -14 -14 -25 -20 -25 -5 0 -10 -4 -10 -10 0 -5 -8
-19 -17 -29 -10 -11 -28 -32 -40 -48 -79 -100 -129 -154 -136 -146 -4 3 -7 1
-7 -6 0 -7 -5 -9 -12 -5 -7 4 -8 3 -4 -4 4 -7 -8 -27 -29 -47 -19 -20 -35 -33
-35 -31 0 3 -12 -6 -26 -19 -35 -32 -39 -31 -42 6 -2 31 -37 94 -65 118 -23
19 -118 16 -133 -3 -6 -9 -16 -16 -22 -16 -6 0 -16 -9 -22 -21 -7 -11 -19 -28
-28 -37 -9 -10 -24 -28 -32 -41 -16 -24 -16 -24 -102 -11 l-85 12 -5 62 c-6
67 -37 139 -67 156 -24 13 -107 2 -122 -16 -6 -8 -16 -14 -21 -14 -5 0 -33
-18 -62 -40 -53 -40 -79 -49 -91 -30 -3 5 -18 10 -33 10 -27 1 -115 28 -139
43 -8 5 -13 30 -13 65 0 98 -51 173 -133 194 l-50 13 7 170 c8 173 13 235 36
406 l14 96 33 -66 c18 -36 33 -72 33 -80 0 -7 14 -33 30 -58 17 -24 30 -47 30
-52 0 -4 28 -21 61 -37 59 -28 68 -29 188 -28 98 0 135 4 160 17 19 9 39 17
46 17 13 0 70 25 95 41 8 5 23 12 33 15 9 4 17 13 17 20 0 8 5 14 10 14 6 0
10 11 10 24 0 14 3 27 8 29 9 6 45 117 73 227 12 47 25 95 30 108 5 13 9 37 9
55 0 32 22 145 40 203 19 59 42 348 37 454 -7 135 -20 180 -52 180 -33 0 -137
-28 -144 -39 -3 -4 -17 -12 -29 -16 -13 -4 -44 -21 -69 -38 -25 -18 -53 -37
-62 -42 -10 -6 -24 -17 -33 -25 -8 -8 -32 -28 -51 -45 -20 -16 -65 -56 -99
-87 -35 -32 -66 -58 -70 -58 -3 0 -19 -12 -35 -27 -54 -52 -154 -138 -163
-141 -17 -6 -7 52 21 113 5 11 17 52 28 90 25 92 77 243 95 275 7 14 17 41 21
60 4 19 22 67 40 105 18 39 39 87 46 108 7 20 16 37 20 37 4 0 10 12 13 28 8
33 58 136 69 140 4 2 7 10 7 18 0 7 13 35 29 61 16 27 33 60 36 76 4 15 11 27
16 27 5 0 9 6 9 14 0 7 7 19 15 26 8 7 15 19 15 27 0 8 14 35 30 60 17 24 30
51 30 59 0 7 5 14 10 14 6 0 10 7 10 15 0 8 3 15 8 15 4 0 16 17 27 38 17 33
67 106 95 139 15 18 12 43 -5 43 -9 0 -19 -8 -22 -17 -4 -10 -17 -27 -30 -39
-13 -12 -23 -29 -23 -38 0 -11 -5 -15 -12 -10 -7 4 -10 4 -6 -1 4 -4 -6 -26
-22 -48 -17 -23 -30 -47 -30 -54 0 -8 -11 -25 -25 -39 -13 -13 -26 -28 -27
-32 -2 -4 -6 -6 -9 -5 -3 1 -4 -9 -1 -22 2 -15 0 -25 -7 -25 -6 0 -11 -6 -11
-13 0 -8 -9 -24 -20 -37 -11 -13 -20 -29 -20 -37 0 -8 -4 -12 -9 -9 -5 3 -8 0
-8 -7 1 -18 -26 -77 -35 -77 -4 0 -8 -9 -8 -21 0 -13 -4 -18 -12 -13 -6 4 -8
3 -5 -3 4 -6 -20 -63 -53 -127 -32 -64 -56 -116 -53 -116 3 0 0 -7 -7 -15 -7
-8 -9 -15 -6 -15 4 0 0 -7 -8 -16 -9 -8 -16 -24 -16 -34 0 -10 -4 -22 -10 -25
-5 -3 -17 -31 -26 -61 -8 -29 -20 -54 -26 -54 -6 0 -9 -3 -5 -6 3 -4 -2 -28
-12 -55 -10 -26 -16 -50 -13 -53 3 -4 0 -6 -6 -6 -7 0 -12 -9 -12 -20 0 -11
-5 -20 -11 -20 -5 0 -8 -4 -5 -9 3 -5 -1 -22 -9 -37 -8 -16 -15 -38 -15 -49 0
-11 -13 -60 -29 -110 -17 -49 -41 -126 -54 -170 l-24 -80 -54 3 c-30 2 -76 10
-103 18 -27 8 -64 14 -81 14 -17 0 -54 6 -81 14 -27 7 -87 21 -134 31 -47 10
-97 24 -112 32 -15 7 -38 13 -53 13 -14 0 -25 5 -25 11 0 5 -4 8 -9 4 -5 -3
-20 -1 -33 4 -13 5 -63 21 -113 36 -121 37 -145 46 -145 57 0 5 -4 7 -8 4 -13
-8 -132 35 -126 45 3 5 -2 6 -10 3 -9 -3 -35 3 -58 14 -24 10 -74 33 -111 51
-37 17 -76 31 -86 31 -10 0 -24 7 -31 15 -7 8 -21 15 -31 15 -9 0 -24 7 -33
15 -8 8 -21 15 -29 15 -8 0 -26 9 -41 21 -14 11 -26 17 -26 14 0 -4 -11 0 -25
9 -13 9 -31 16 -40 16 -9 0 -18 7 -21 15 -4 8 -16 15 -29 15 -12 0 -32 9 -45
20 -13 11 -27 20 -32 20 -5 0 -6 5 -2 12 4 7 3 8 -4 4 -6 -3 -26 2 -44 12 -72
40 -98 57 -98 65 0 4 -9 7 -21 7 -16 0 -19 4 -15 17 4 10 4 14 0 11 -4 -4 -15
-3 -26 3 -25 13 -49 4 -42 -15 3 -9 21 -25 40 -37 20 -12 31 -26 27 -32 -3 -7
-3 -9 2 -5 10 9 105 -39 105 -54 0 -6 3 -9 6 -5 4 3 27 -6 53 -20 25 -14 60
-33 76 -41 17 -8 42 -23 56 -33 14 -10 29 -16 33 -12 3 3 6 1 6 -6 0 -7 6 -11
13 -8 6 2 19 -1 27 -8 8 -6 40 -22 70 -34 30 -12 78 -33 105 -46 108 -50 143
-65 154 -65 6 0 11 -4 11 -9 0 -5 12 -11 28 -13 25 -3 27 -6 26 -48 -1 -26
-11 -61 -24 -83 -12 -20 -19 -37 -15 -37 4 0 3 -6 -3 -13 -6 -7 -13 -24 -16
-37 -7 -38 -28 -93 -43 -115 -7 -11 -13 -29 -13 -40 0 -11 -14 -44 -30 -74
-17 -30 -30 -61 -30 -70 0 -9 -16 -47 -35 -85 -19 -39 -35 -76 -35 -83 0 -7
-13 -39 -30 -70 -16 -31 -30 -64 -30 -74 0 -11 -4 -19 -10 -19 -5 0 -10 -6
-10 -12 0 -7 -9 -31 -20 -53 -10 -22 -25 -55 -32 -72 -7 -18 -15 -33 -18 -33
-3 0 -14 -20 -24 -45 -11 -25 -23 -45 -28 -45 -4 0 -8 -7 -8 -15 0 -8 -4 -15
-9 -15 -5 0 -14 -13 -21 -29 -6 -16 -25 -41 -41 -57 -16 -15 -29 -34 -29 -41
0 -8 -4 -11 -10 -8 -5 3 -10 1 -10 -5 0 -28 -213 -210 -245 -210 -8 0 -20 -7
-28 -15 -8 -8 -29 -16 -45 -17 -17 -1 -28 -6 -26 -10 3 -4 -8 -10 -23 -13 -15
-4 -36 -10 -45 -16 -34 -18 -46 -10 -53 34 -9 52 -42 127 -56 127 -6 0 -9 7
-6 14 4 10 -7 23 -29 36 -18 12 -34 26 -34 31 0 5 -6 9 -13 9 -17 0 -63 -61
-59 -77 2 -7 -4 -13 -11 -13 -8 0 -18 -8 -21 -17 -14 -39 -56 -107 -57 -93 0
10 -2 11 -6 3 -6 -17 -25 -16 -60 2 -27 14 -66 31 -129 55 -26 9 -38 26 -68
91 -20 44 -43 82 -51 85 -8 3 -17 13 -20 22 -6 21 -77 62 -105 62 -13 0 -28
-12 -38 -30 -21 -38 -27 -37 -42 1 -7 17 -19 36 -25 43 -12 11 -27 38 -85 146
-41 79 -80 160 -80 169 0 5 -13 38 -29 73 -16 35 -34 81 -41 103 -7 22 -19 49
-26 60 -7 11 -16 38 -19 60 -4 22 -13 54 -21 70 -23 54 -44 107 -44 114 1 8
35 -35 66 -82 13 -20 47 -61 75 -89 46 -47 57 -53 108 -59 80 -10 181 -11 181
-1 0 5 13 22 30 38 16 16 30 32 30 37 0 4 16 24 36 45 20 20 46 48 59 62 36
39 149 211 165 250 8 19 17 37 20 40 34 28 43 216 16 327 -39 153 -60 219
-102 310 -8 17 -14 36 -14 42 0 15 -67 139 -84 157 -8 8 -19 14 -25 14 -6 0
-11 5 -11 10 0 6 -9 10 -20 10 -11 0 -20 -4 -20 -8 0 -5 -18 -18 -40 -31 -22
-12 -40 -26 -40 -32 0 -5 -6 -9 -14 -9 -8 0 -21 -6 -28 -13 -7 -7 -40 -34 -74
-59 -66 -51 -181 -162 -229 -223 -16 -20 -42 -52 -57 -69 -15 -17 -33 -46 -39
-63 -6 -18 -14 -33 -18 -33 -11 0 -41 -67 -41 -90 0 -11 -4 -28 -9 -38 -5 -9
-12 -26 -16 -37 -10 -32 -20 -3 -40 115 -9 58 -20 112 -25 120 -4 8 -13 53
-20 100 -7 47 -16 108 -21 135 -5 28 -17 88 -25 135 -9 47 -19 132 -23 190 -8
106 -23 274 -41 476 -12 127 -12 310 -1 338 7 19 8 19 29 -2 12 -12 26 -22 31
-22 5 0 11 -4 13 -8 11 -27 440 -323 548 -379 14 -7 43 -24 65 -38 22 -14 54
-32 72 -40 17 -8 34 -19 38 -25 3 -5 15 -10 26 -10 10 0 19 -4 19 -8 0 -4 23
-16 51 -27 28 -11 55 -26 61 -32 6 -7 17 -13 26 -13 8 0 37 -13 64 -30 26 -16
57 -30 67 -30 11 0 26 -7 35 -15 8 -8 24 -15 36 -15 11 0 34 -7 49 -15 16 -8
47 -17 70 -21 23 -4 41 -10 41 -14 0 -4 15 -10 33 -13 33 -5 82 -18 173 -43
28 -8 66 -14 85 -14 19 0 49 -4 68 -10 18 -5 88 -16 154 -25 157 -20 599 -21
717 -1 14 3 72 12 130 21 58 8 132 21 165 27 33 6 80 15 105 19 25 4 72 15
105 24 33 9 85 22 115 29 30 7 65 18 77 24 12 7 34 12 50 12 16 0 38 7 50 15
12 8 37 16 57 17 20 2 36 6 36 11 0 4 6 7 13 7 6 1 30 9 52 20 22 11 50 19 62
20 12 0 28 7 37 15 8 8 21 15 29 15 8 0 36 10 63 22 27 13 54 23 59 23 6 0 33
11 60 24 98 45 109 50 119 44 5 -3 6 -1 2 5 -4 7 -1 12 7 12 8 0 26 9 40 20
14 11 30 20 36 20 6 0 29 11 50 25 22 13 51 27 65 31 14 3 26 12 26 20 0 8 10
14 25 14 14 0 28 7 31 15 3 8 16 17 27 21 12 4 36 17 53 30 17 13 36 24 43 24
6 0 14 7 17 15 4 8 15 15 25 15 11 0 22 6 25 14 3 8 21 22 40 31 19 9 34 20
34 25 0 6 5 10 11 10 6 0 26 12 45 28 34 28 61 49 102 80 13 9 45 36 70 59 26
23 50 43 55 43 4 0 7 7 7 15 0 20 -26 19 -49 -2 -31 -31 -83 -73 -88 -73 -2 0
-18 -13 -36 -30 -18 -16 -36 -30 -41 -30 -5 0 -16 -7 -25 -15 -43 -39 -90 -75
-99 -75 -6 0 -15 -6 -19 -12 -9 -14 -51 -40 -95 -60 -16 -7 -28 -16 -28 -20 0
-4 -17 -16 -37 -26 -83 -42 -101 -53 -113 -67 -7 -8 -18 -15 -26 -15 -7 0 -35
-13 -61 -28 -26 -16 -55 -31 -63 -35 -8 -4 -22 -11 -30 -16 -15 -10 -105 -51
-170 -78 -19 -8 -52 -23 -72 -34 -20 -10 -44 -19 -53 -19 -8 0 -34 -9 -58 -19
-23 -11 -53 -23 -67 -26 -14 -4 -38 -13 -55 -20 -16 -7 -77 -27 -135 -45 -58
-18 -122 -39 -143 -46 -20 -8 -49 -14 -63 -14 -14 0 -34 -5 -44 -10 -18 -10
-101 -29 -217 -50 -29 -6 -64 -15 -78 -20 -15 -6 -46 -10 -70 -10 -24 0 -77
-7 -117 -16 -108 -24 -749 -24 -858 0 -41 9 -89 16 -106 16 -18 0 -54 7 -80
15 -57 17 -235 63 -279 72 -16 3 -34 9 -40 13 -5 4 -41 17 -80 29 -38 13 -80
29 -92 37 -12 8 -31 14 -41 14 -11 0 -25 7 -32 15 -7 8 -17 15 -22 15 -20 0
-227 107 -348 180 -8 5 -58 35 -110 66 -52 32 -97 60 -100 63 -8 10 -44 31
-62 37 -10 4 -18 10 -18 15 0 5 -13 15 -29 23 -35 18 -229 161 -254 187 -10
11 -23 19 -28 19 -6 0 -20 11 -31 25 -11 14 -25 25 -32 25 -6 0 -19 8 -27 18
-15 16 -107 98 -172 153 -107 91 -327 306 -327 321 0 4 -7 8 -15 8 -8 0 -15 4
-15 8 0 4 -34 44 -75 87 -41 44 -75 83 -75 86 0 4 -15 23 -32 42 -18 19 -44
49 -58 67 -14 18 -37 47 -51 64 -14 17 -36 47 -49 66 -14 19 -30 41 -37 48 -7
7 -13 17 -13 21 0 4 -12 21 -26 37 -14 16 -32 43 -40 61 -7 17 -19 37 -26 45
-7 7 -22 31 -33 53 -11 22 -23 42 -26 45 -3 3 -27 47 -52 98 l-46 92 120 0
120 0 -29 -29 c-72 -69 -65 -152 17 -213 25 -19 66 -44 91 -57 25 -12 52 -26
60 -31 8 -5 36 -17 62 -27 27 -10 48 -21 48 -26 0 -4 13 -22 29 -40 17 -17 62
-70 102 -117 40 -47 82 -95 95 -107 13 -12 24 -25 24 -28 0 -4 15 -21 33 -39
17 -18 56 -58 85 -89 29 -32 57 -57 62 -57 6 0 10 -7 10 -15 0 -8 4 -15 10
-15 5 0 37 -27 69 -60 33 -33 62 -60 64 -60 3 0 20 -15 38 -33 19 -18 49 -43
67 -57 44 -33 90 -70 117 -95 23 -21 38 -31 93 -66 17 -12 32 -25 32 -30 0 -5
6 -9 13 -9 6 -1 28 -14 47 -30 19 -17 40 -30 47 -30 7 0 13 -5 13 -10 0 -6 8
-14 18 -17 20 -8 102 -62 120 -80 7 -7 20 -13 28 -13 8 0 17 -7 20 -15 4 -8
12 -15 19 -15 7 0 44 -20 82 -45 37 -25 74 -45 81 -45 6 0 12 -4 12 -10 0 -5
12 -13 28 -16 15 -4 41 -16 57 -26 17 -10 37 -21 45 -24 8 -3 20 -8 25 -10 6
-2 17 -8 25 -14 27 -17 151 -70 164 -70 8 0 19 -6 25 -14 6 -8 24 -16 39 -19
30 -6 117 -35 144 -48 10 -5 24 -9 32 -9 7 0 27 -7 42 -15 16 -8 38 -15 50
-15 11 0 40 -7 65 -15 24 -8 71 -19 104 -24 33 -5 101 -17 150 -26 50 -9 155
-17 235 -18 148 -2 151 -2 345 50 50 14 105 27 123 30 17 3 32 9 32 14 0 5 5
9 10 9 48 0 477 204 488 231 2 5 15 9 28 9 13 0 24 5 24 10 0 6 8 14 18 18 21
9 102 62 120 79 7 7 18 13 24 13 6 0 18 7 27 15 37 34 89 75 96 75 10 0 97 69
173 137 13 12 32 25 42 28 10 3 21 12 24 20 3 8 12 15 21 15 8 0 15 4 15 10 0
5 16 20 35 32 19 13 35 29 35 36 0 6 6 12 13 12 12 0 100 75 191 163 27 26 52
47 56 47 3 0 22 18 40 40 18 22 40 40 47 40 7 0 13 4 13 8 0 5 21 30 46 58 26
27 63 69 83 94 20 25 42 49 49 53 6 4 12 14 12 22 0 7 14 19 30 27 17 7 30 15
30 18 0 3 20 16 45 30 42 23 55 42 37 54 -5 3 -42 -16 -83 -42 -41 -27 -94
-56 -119 -67 -25 -10 -52 -25 -61 -32 -8 -7 -22 -13 -30 -13 -7 0 -36 -9 -64
-19 -27 -10 -67 -24 -88 -31 -43 -13 -282 -27 -697 -40 -157 -5 -343 -13 -415
-19 -71 -6 -211 -16 -310 -22 -99 -6 -214 -14 -255 -19 -41 -5 -147 -15 -236
-24 -88 -8 -172 -20 -188 -25 -15 -6 -40 -11 -57 -11 -33 0 -107 -17 -162 -36
-20 -8 -50 -14 -65 -14 -15 0 -40 -7 -56 -15 -15 -8 -43 -15 -60 -15 -18 0
-36 -4 -41 -9 -12 -10 -130 -51 -149 -51 -7 0 -27 -7 -42 -15 -16 -8 -40 -15
-54 -15 -14 0 -43 -7 -65 -15 -55 -20 -179 -20 -195 0 -7 8 -21 15 -31 15 -11
0 -19 4 -19 9 0 6 -27 22 -60 37 -33 15 -60 31 -60 35 0 5 -6 9 -14 9 -7 0
-35 12 -62 27 -27 14 -85 45 -129 68 -44 24 -93 50 -110 59 -16 9 -35 16 -41
16 -6 0 -17 7 -24 15 -7 8 -23 15 -36 15 -13 0 -24 4 -24 9 0 4 -27 20 -60 35
-32 15 -62 31 -65 36 -4 6 -17 10 -31 10 -13 0 -24 4 -24 9 0 5 -10 13 -22 17
-21 6 -62 24 -176 75 -23 10 -47 19 -52 19 -6 0 -33 11 -62 25 -28 14 -59 25
-67 25 -9 0 -25 7 -35 15 -11 8 -34 15 -52 15 -18 0 -34 4 -36 9 -3 9 -120 51
-142 51 -8 0 -27 6 -43 14 -15 7 -59 24 -98 36 -38 13 -83 32 -100 42 -16 10
-39 22 -50 27 -11 5 -41 28 -67 51 -63 55 -63 79 0 147 l47 51 457 -9 c251 -5
534 -8 629 -7 l173 3 9 35 c6 19 14 212 20 429 l10 393 961 -7 c529 -4 963 -9
965 -11 2 -1 8 -220 15 -486 6 -266 15 -489 19 -495 10 -15 40 -17 65 -4 9 6
623 22 1396 37 892 19 1383 32 1391 39 10 8 7 178 -14 850 -14 462 -30 846
-34 853 -10 14 -53 16 -62 2 -4 -6 -153 -10 -415 -10 l-408 0 -18 48 c-10 26
-20 49 -23 52 -4 3 -17 28 -30 55 -28 56 -111 188 -123 193 -5 2 -8 8 -8 14 0
12 -38 55 -108 124 -58 56 -59 52 21 98 26 15 47 31 47 36 0 15 -34 12 -56 -5
-10 -8 -25 -15 -31 -15 -7 0 -42 -20 -79 -45 -36 -25 -69 -45 -75 -45 -9 0
-21 -9 -72 -55 -14 -13 -30 -25 -36 -26 -19 -7 -148 -126 -249 -229 -153 -156
-168 -173 -181 -197 l-12 -23 -339 0 c-187 0 -340 4 -340 8 0 34 123 302 142
310 4 2 8 12 8 23 0 14 7 19 30 19 20 0 30 5 30 15 0 8 7 15 15 15 8 0 15 5
15 10 0 6 16 10 35 10 28 0 35 4 35 20 0 11 7 20 15 20 8 0 15 7 15 15 0 10
10 15 30 15 17 0 30 5 30 10 0 6 35 10 85 10 50 0 85 4 85 10 0 6 50 10 130
10 123 0 130 1 130 20 0 16 7 20 35 20 24 0 35 5 35 15 0 13 21 15 130 15 80
0 130 4 130 10 0 6 23 10 50 10 38 0 50 4 50 15 0 10 10 15 30 15 20 0 30 5
30 15 0 8 7 15 15 15 8 0 15 7 15 15 0 10 11 15 35 15 19 0 35 5 35 10 0 6 14
10 30 10 20 0 30 5 30 15 0 11 12 15 50 15 38 0 50 4 50 15 0 8 9 15 20 15 11
0 20 7 20 15 0 10 10 15 30 15 17 0 30 5 30 10 0 6 16 10 35 10 24 0 35 5 35
14 0 9 12 16 28 18 21 2 28 9 30 31 4 30 50 87 71 87 6 0 11 15 11 35 0 24 5
35 15 35 10 0 15 10 15 30 0 23 4 30 20 30 16 0 20 7 20 30 0 20 5 30 15 30 8
0 15 7 15 15 0 8 7 15 15 15 12 0 15 14 15 65 0 51 3 65 15 65 9 0 15 9 15 25
0 16 6 25 15 25 8 0 15 -7 15 -15 0 -8 7 -15 15 -15 8 0 15 5 15 10 0 6 7 10
15 10 8 0 15 5 15 10 0 6 7 10 15 10 12 0 15 13 15 60 0 53 2 60 20 60 15 0
20 7 20 25 0 16 6 25 15 25 8 0 15 -7 15 -15z m-4160 -670 c0 -8 7 -15 15 -15
8 0 15 -7 15 -15 0 -11 -12 -15 -50 -15 -27 0 -50 -4 -50 -10 0 -5 -7 -10 -15
-10 -10 0 -15 -10 -15 -30 0 -27 -3 -30 -30 -30 -20 0 -30 -5 -30 -15 0 -11
-12 -15 -50 -15 -27 0 -50 -4 -50 -10 0 -5 -7 -10 -15 -10 -8 0 -15 -7 -15
-15 0 -8 -9 -15 -20 -15 -15 0 -20 7 -20 25 0 18 5 25 20 25 11 0 20 7 20 15
0 11 12 15 45 15 33 0 45 4 45 15 0 8 9 15 20 15 11 0 20 7 20 15 0 8 7 15 15
15 8 0 15 5 15 10 0 6 7 10 15 10 8 0 15 7 15 15 0 10 11 15 35 15 24 0 35 5
35 15 0 8 7 15 15 15 8 0 15 -7 15 -15z m-305 -885 c0 -14 -4 -161 -9 -327 -7
-268 -6 -304 8 -324 14 -21 14 -25 -3 -53 -17 -28 -20 -65 -26 -423 l-8 -393
-141 0 c-77 0 -419 5 -759 11 l-618 12 -23 -22 c-15 -14 -33 -21 -48 -19 -22
3 -23 6 -28 123 -3 66 -2 253 2 415 3 162 7 437 7 611 l1 316 211 7 c116 4
213 5 217 2 6 -7 -12 -97 -34 -166 -8 -25 -20 -79 -28 -120 -7 -41 -21 -100
-30 -130 -9 -30 -26 -91 -37 -135 -11 -44 -27 -95 -35 -113 -9 -18 -18 -50
-21 -70 -4 -20 -19 -62 -35 -94 -15 -31 -28 -63 -28 -70 0 -8 -11 -37 -25 -65
-14 -28 -30 -66 -35 -85 l-9 -33 34 39 c19 22 35 49 35 60 0 12 13 48 29 81
27 58 63 164 110 325 13 41 27 83 32 92 5 10 14 50 20 90 6 40 18 92 26 116 8
24 20 76 28 115 19 101 36 161 49 169 14 10 156 10 156 1 0 -15 -49 -172 -66
-210 -8 -17 -14 -40 -14 -51 0 -11 -11 -57 -24 -103 -23 -79 -41 -166 -71
-337 -12 -70 -11 -72 6 -56 10 9 21 37 24 63 14 107 51 274 96 431 47 163 50
172 72 222 23 53 36 58 153 58 58 0 74 -3 74 -14 0 -8 -4 -18 -10 -21 -5 -3
-10 -20 -10 -36 0 -17 -7 -54 -16 -82 -32 -106 -36 -124 -48 -217 -8 -52 -13
-96 -11 -97 1 -2 68 59 149 134 146 135 176 172 176 213 0 22 60 122 80 135
16 10 38 -12 42 -41 3 -23 6 -21 65 31 63 56 101 69 109 38 7 -27 145 -20 170
8 26 29 69 22 69 -11z m4310 -40 c4 -6 90 -10 226 -10 l219 0 0 -67 c0 -38 9
-342 20 -678 11 -335 20 -653 20 -706 l0 -96 -347 -7 c-192 -3 -454 -8 -583
-11 -175 -3 -226 -2 -200 6 19 6 69 22 110 36 41 13 87 27 102 30 15 3 33 11
39 19 6 8 24 14 40 14 16 0 29 4 29 8 0 8 92 52 109 52 5 0 11 7 15 15 3 8 12
15 21 15 16 0 74 36 87 55 9 12 8 428 -1 467 -6 26 -30 -1 -340 -368 -298
-353 -336 -395 -360 -392 -19 2 -27 9 -29 28 -2 20 62 101 319 405 177 209
336 398 355 420 l32 40 -15 85 c-8 47 -28 126 -44 175 -16 50 -29 100 -29 112
0 12 -4 24 -9 27 -13 9 -437 -506 -449 -545 -6 -19 -18 -68 -27 -109 -11 -53
-27 -91 -54 -130 -46 -66 -70 -73 -109 -31 l-27 30 -167 -201 -166 -200 15
-35 c8 -19 12 -38 9 -40 -3 -3 -61 -5 -128 -5 -208 1 -507 34 -580 65 l-38 16
0 73 c0 40 4 91 9 113 5 22 12 69 16 104 6 56 5 63 -8 52 -8 -6 -17 -33 -20
-59 -2 -26 -10 -102 -18 -170 -11 -105 -11 -124 2 -137 22 -21 128 -55 179
-56 41 -1 42 -2 15 -9 -16 -4 -128 -8 -247 -9 l-218 -1 0 69 c0 52 -4 70 -15
75 -19 7 -19 45 -1 65 13 14 13 89 1 566 -8 303 -15 607 -15 678 l0 127 55 0
54 0 -14 -39 c-14 -40 -11 -51 12 -51 7 0 15 17 19 41 4 22 12 43 18 45 6 2
152 3 324 2 l312 -3 -50 -74 c-27 -41 -50 -80 -50 -87 0 -8 -4 -14 -8 -14 -5
0 -17 -19 -28 -42 -10 -24 -31 -62 -46 -84 -16 -23 -28 -51 -28 -63 0 -12 -4
-21 -9 -21 -5 0 -11 -8 -15 -17 -3 -10 -14 -31 -25 -48 -11 -16 -20 -37 -20
-45 -1 -8 -12 -37 -25 -65 -40 -83 -136 -419 -123 -431 14 -14 32 37 77 215
18 69 37 120 60 163 6 10 10 24 10 32 0 17 37 95 132 275 22 42 44 80 49 85 5
6 9 16 9 23 0 8 8 23 19 34 10 11 29 40 41 64 13 25 26 45 29 45 4 0 14 13 24
29 15 25 26 31 73 37 30 3 57 4 60 1 6 -6 -22 -323 -32 -377 -4 -16 -4 -30 -1
-30 2 0 94 97 203 215 170 186 201 216 223 213 19 -2 27 -10 29 -29 2 -21 -36
-67 -223 -270 -125 -134 -231 -254 -236 -267 -11 -29 -11 -333 1 -427 17 -136
50 -291 78 -362 l28 -73 169 205 c119 143 170 211 169 227 -1 13 -7 50 -13 83
-13 72 -14 424 -1 515 24 172 43 270 62 323 l20 57 89 0 c75 0 88 -3 93 -17
22 -74 29 -176 30 -398 l1 -250 188 225 c213 255 204 233 146 358 -16 35 -29
70 -29 78 0 11 24 14 129 14 76 0 132 4 136 10 3 6 17 10 30 10 13 0 27 -4 30
-10z m-4970 -2040 c3 -5 19 -10 36 -10 16 0 29 -4 29 -9 0 -5 10 -12 23 -16
32 -9 100 -37 114 -48 16 -11 -7 -73 -51 -139 -42 -62 -63 -76 -75 -46 -5 13
-23 59 -40 103 -41 106 -61 175 -51 175 5 0 12 -4 15 -10z m3855 -259 c0 -11
-4 -23 -10 -26 -5 -3 -10 -13 -10 -22 0 -8 -13 -42 -30 -75 -16 -32 -30 -63
-30 -68 0 -5 -13 -29 -30 -53 -16 -25 -30 -50 -30 -56 0 -6 -4 -11 -10 -11 -5
0 -10 -5 -10 -10 0 -6 -12 -22 -27 -36 l-27 -25 -28 57 c-15 32 -28 65 -28 74
0 9 -9 34 -19 56 -10 21 -27 66 -36 99 -10 33 -21 64 -26 69 -28 30 -8 35 144
39 83 1 164 4 180 5 21 2 27 -2 27 -17z m-2132 -506 c128 -8 237 -17 242 -20
5 -3 103 -10 217 -15 223 -11 521 -55 548 -81 5 -5 22 -9 37 -9 16 0 45 -7 65
-15 19 -8 42 -15 50 -15 19 0 194 -69 207 -81 6 -5 20 -9 32 -9 12 0 27 -7 34
-15 7 -8 18 -15 24 -15 6 0 33 -14 60 -31 45 -28 47 -31 30 -44 -11 -8 -26
-15 -36 -15 -9 0 -18 -3 -20 -8 -1 -4 -61 -36 -133 -70 -71 -35 -143 -70 -158
-78 -16 -8 -36 -14 -46 -14 -9 0 -21 -4 -26 -9 -13 -12 -220 -81 -244 -81 -10
0 -37 -6 -59 -14 -79 -28 -180 -35 -350 -26 -90 6 -187 17 -215 25 -28 8 -64
15 -80 15 -30 0 -127 25 -157 40 -9 4 -36 11 -60 15 -25 4 -55 13 -67 21 -12
8 -33 14 -47 14 -14 0 -27 4 -30 8 -3 5 -51 26 -108 47 -57 21 -112 44 -123
52 -11 7 -27 13 -35 13 -9 0 -22 6 -28 12 -7 7 -29 19 -50 28 -51 21 -210 109
-217 121 -4 5 -15 9 -26 9 -11 0 -22 7 -25 15 -3 8 -15 17 -26 21 -23 7 -111
65 -116 77 -2 4 -12 7 -22 7 -10 0 -20 7 -24 15 -3 8 -12 15 -21 15 -8 0 -15
5 -15 10 0 6 7 10 15 10 9 0 41 9 72 20 32 11 70 20 86 20 16 0 52 7 80 15
117 34 421 42 765 20z m-830 -1423 c11 -47 20 -151 43 -457 11 -149 9 -281 -7
-477 l-7 -78 -29 0 c-33 0 -60 12 -101 46 -30 26 -87 97 -111 141 -23 40 -40
67 -47 73 -3 3 -22 40 -42 82 -34 72 -37 84 -37 170 0 85 19 172 41 188 3 3
10 16 14 30 13 45 98 162 180 247 44 45 83 83 86 83 3 0 11 -21 17 -48z m3502
-447 c-8 -63 -21 -135 -45 -246 -8 -37 -15 -75 -15 -86 0 -25 -69 -220 -110
-308 -57 -125 -114 -240 -127 -253 -6 -7 -17 -28 -24 -47 -7 -19 -17 -35 -21
-35 -4 0 -8 -8 -8 -17 0 -10 -14 9 -31 42 -16 33 -34 64 -40 70 -5 5 -9 17 -9
26 0 10 -13 46 -29 81 -32 68 -32 54 4 213 9 39 20 93 25 120 22 132 33 149
174 270 127 109 229 199 246 216 8 9 15 15 16 15 0 -1 -2 -28 -6 -61z m2019
-26 c-15 -49 -17 -67 -24 -244 -4 -95 -3 -214 4 -294 6 -74 9 -136 7 -138 -4
-4 -155 13 -259 28 l-67 11 17 31 c10 18 21 34 26 35 4 2 7 12 7 22 0 9 7 23
15 30 8 7 15 18 15 25 0 8 4 15 8 17 4 2 21 29 37 62 16 32 37 63 46 69 10 6
15 15 13 21 -2 6 12 42 31 80 19 39 35 76 35 83 0 8 7 16 15 19 8 4 12 10 9
15 -3 5 2 19 10 31 9 12 16 28 16 35 0 16 41 105 46 100 2 -2 -1 -19 -7 -38z
m-3134 -120 c75 -26 186 -57 245 -69 25 -4 88 -18 140 -30 52 -11 141 -29 198
-38 120 -19 112 3 63 -182 -17 -63 -33 -143 -36 -176 -3 -34 -9 -73 -14 -86
-5 -13 -12 -54 -16 -91 -4 -37 -11 -67 -14 -67 -4 0 -8 -8 -8 -17 1 -86 -4
-153 -11 -149 -5 3 -6 -9 -4 -26 4 -28 3 -29 -17 -19 -11 7 -21 15 -21 20 0 4
-45 55 -100 112 -90 94 -106 116 -101 142 1 5 -3 6 -8 3 -13 -8 -53 44 -46 61
2 8 1 12 -4 9 -8 -5 -54 60 -53 74 0 3 -6 12 -14 21 -11 12 -11 18 -1 29 6 7
7 10 1 7 -18 -10 -52 21 -59 53 -3 16 -14 39 -24 52 -10 13 -24 41 -32 63 -8
22 -20 46 -27 54 -7 7 -11 20 -8 27 3 8 1 14 -4 14 -5 0 -12 12 -16 28 -7 34
-15 53 -48 120 -22 47 -33 82 -23 82 1 0 30 -9 62 -21z m376 -840 c33 -33 59
-63 59 -65 0 -3 7 -12 16 -21 14 -14 11 -17 -27 -35 -23 -10 -76 -21 -117 -25
l-74 -6 7 34 c4 19 20 61 36 94 16 33 29 65 29 72 0 22 11 15 71 -48z m-2741
-144 c8 -16 30 -52 48 -80 28 -41 33 -57 29 -88 -3 -21 -7 -41 -10 -43 -3 -3
-45 -8 -94 -11 l-89 -6 4 44 c2 24 8 48 13 54 5 5 9 15 9 23 0 8 6 28 14 45 8
18 20 51 26 75 12 47 22 44 50 -13z m218 -105 c23 -17 42 -36 42 -44 0 -8 4
-16 8 -18 13 -5 48 -61 60 -96 11 -31 10 -33 -31 -60 -23 -15 -46 -32 -50 -39
-4 -7 -17 -13 -27 -13 -11 0 -20 -4 -20 -9 0 -18 -117 -81 -150 -81 -32 0 -32
1 -25 38 10 55 63 210 91 265 13 27 24 57 24 68 0 28 30 24 78 -11z m564 -138
c27 -27 60 -100 73 -159 6 -28 4 -33 -12 -33 -10 0 -43 -6 -73 -14 -30 -7 -85
-16 -122 -19 l-67 -5 24 37 c14 19 25 41 25 47 0 6 13 28 30 50 16 21 30 43
30 47 0 11 51 77 59 77 3 0 18 -13 33 -28z m5248 -105 c20 -17 50 -60 68 -95
l33 -62 -23 -10 c-13 -6 -30 -14 -38 -18 -42 -24 -66 -34 -127 -53 -38 -11
-86 -27 -108 -35 -41 -14 -95 -19 -95 -9 0 17 53 165 58 165 4 0 15 18 24 40
10 22 35 55 55 74 52 49 103 50 153 3z m490 -12 c7 -8 18 -15 24 -15 7 0 19
-15 28 -32 9 -18 28 -57 43 -87 l28 -55 -24 -18 c-13 -10 -36 -30 -52 -43 -15
-14 -34 -25 -41 -25 -8 0 -16 -7 -20 -15 -3 -8 -14 -15 -25 -15 -11 0 -24 -6
-28 -13 -9 -15 -73 -47 -95 -47 -7 0 -22 -7 -32 -15 -25 -19 -62 -19 -69 -1
-11 29 6 93 48 181 24 50 53 100 64 112 12 12 21 26 21 30 0 4 15 22 33 39 35
35 77 43 97 19z m-3497 -31 c53 -40 77 -184 37 -224 -11 -11 -28 -20 -38 -20
-10 0 -26 -6 -37 -14 -11 -7 -57 -16 -102 -20 -69 -5 -83 -4 -83 8 0 8 4 17 9
20 5 3 12 21 15 40 4 20 13 48 21 63 8 15 15 36 15 46 0 18 34 91 53 116 15
18 78 9 110 -15z m4059 -116 c57 -55 64 -80 29 -105 -14 -11 -33 -22 -41 -26
-8 -4 -28 -16 -45 -27 -37 -24 -111 -60 -123 -60 -5 0 -15 -7 -22 -15 -7 -8
-23 -15 -36 -15 -21 0 -24 5 -24 34 0 43 69 192 105 229 22 21 37 27 70 27 36
0 49 -6 87 -42z m-3486 -85 c3 -10 10 -26 15 -35 5 -10 12 -48 15 -85 5 -56 4
-71 -10 -82 -9 -7 -16 -18 -16 -24 0 -15 -103 -107 -121 -107 -8 0 -20 -5 -26
-11 -34 -34 -78 49 -94 173 l-10 81 28 23 c15 13 33 23 40 24 6 0 13 4 15 9 7
18 84 51 121 51 27 0 39 -5 43 -17z m473 -90 c22 -22 51 -80 51 -103 0 -52
-58 -133 -128 -181 -51 -34 -64 -30 -83 29 -6 20 -22 58 -34 84 l-22 46 28 32
c16 17 29 34 29 38 0 3 15 20 33 38 38 37 96 45 126 17z"/>
<path d="M15095 11807 c-27 -12 -61 -32 -75 -44 -14 -13 -28 -23 -32 -23 -17
0 -288 -265 -288 -281 0 -5 -6 -9 -12 -9 -7 0 -26 -20 -43 -45 -16 -24 -33
-45 -36 -45 -8 0 -69 -98 -69 -111 0 -5 -4 -9 -9 -9 -5 0 -11 -10 -14 -22 -3
-13 -14 -48 -26 -78 -29 -75 -27 -138 5 -208 14 -31 36 -79 49 -107 13 -27 26
-61 30 -75 8 -28 41 -106 55 -132 6 -10 10 -25 10 -33 0 -9 15 -48 34 -88 18
-40 37 -83 41 -97 4 -14 11 -27 14 -30 3 -3 19 -31 34 -63 58 -121 125 -200
168 -199 32 1 89 28 89 42 0 6 6 10 13 10 12 0 107 91 107 103 0 4 15 23 34
43 47 50 58 65 80 105 11 19 29 44 41 56 11 13 29 40 40 60 11 21 22 40 25 43
20 18 61 150 71 225 12 89 4 257 -21 435 -5 36 -12 94 -15 130 -10 104 -25
179 -52 259 -29 88 -37 102 -86 163 -34 42 -44 48 -75 48 -21 -1 -59 -10 -87
-23z"/>
<path d="M12708 11274 c-27 -8 -48 -19 -48 -24 0 -6 -6 -10 -12 -10 -15 0 -47
-26 -140 -112 -62 -58 -82 -88 -59 -88 5 0 12 -12 15 -26 10 -39 49 -124 57
-124 4 0 9 -11 13 -23 7 -27 80 -139 118 -179 14 -16 32 -28 41 -28 9 0 19 -4
22 -10 3 -5 19 -10 34 -10 99 0 155 113 131 265 -38 246 -75 379 -107 382 -10
1 -39 -5 -65 -13z"/>
<path d="M15603 10657 c-18 -35 -33 -70 -33 -78 0 -15 -18 -59 -41 -101 -13
-26 -11 -39 9 -54 42 -32 162 2 162 47 0 6 13 35 29 63 16 28 32 68 35 88 4
20 11 38 16 40 31 10 -79 58 -133 58 -7 0 -27 -28 -44 -63z"/>
<path d="M7793 14865 l-71 -65 -7 -97 c-7 -100 -22 -191 -49 -298 -8 -33 -15
-71 -16 -83 0 -13 -13 -53 -30 -89 -16 -35 -30 -69 -30 -74 0 -5 -10 -19 -22
-31 -27 -27 -47 -16 -68 38 -11 29 -15 84 -14 221 0 137 -3 180 -11 175 -7 -4
-65 -57 -130 -119 l-117 -112 4 -165 c2 -92 3 -166 1 -166 -3 0 -46 18 -90 36
-17 8 -34 14 -38 14 -3 0 -13 7 -21 15 -9 8 -24 15 -35 15 -10 0 -19 4 -19 9
0 15 -32 22 -47 10 -11 -10 -10 -14 9 -25 56 -31 169 -84 180 -84 7 0 22 -7
32 -15 11 -8 31 -15 45 -15 14 0 35 -7 45 -15 41 -31 63 -19 219 121 119 106
153 143 158 168 5 24 7 26 8 8 1 -22 6 -20 62 30 33 29 73 64 89 78 l29 25 9
210 c5 116 6 241 3 278 l-6 68 -72 -66z"/>
<path d="M7382 14698 c-96 -88 -142 -138 -142 -152 0 -12 -3 -39 -7 -61 l-6
-40 34 29 c19 16 84 76 145 135 108 104 111 107 118 160 4 29 5 55 3 57 -2 2
-67 -55 -145 -128z"/>
<path d="M7650 14082 c-102 -91 -186 -169 -188 -172 -6 -15 92 -30 197 -30
l111 0 0 33 c0 18 4 37 8 43 19 21 65 229 60 268 -3 22 -22 7 -188 -142z"/>
<path d="M8430 15510 c0 -5 -22 -10 -50 -10 -27 0 -50 -4 -50 -10 0 -23 50
-97 79 -117 31 -21 33 -21 61 -5 29 17 43 40 54 94 3 14 9 33 12 42 5 13 -3
16 -50 16 -31 0 -56 -4 -56 -10z"/>
</g>
</svg>
