<?xml version="1.0" standalone="no"?>
<!DOCTYPE svg PUBLIC "-//W3C//DTD SVG 20010904//EN"
 "http://www.w3.org/TR/2001/REC-SVG-20010904/DTD/svg10.dtd">
<svg version="1.0" xmlns="http://www.w3.org/2000/svg"
 width="691.000000pt" height="691.000000pt" viewBox="0 0 691.000000 691.000000"
 preserveAspectRatio="xMidYMid meet">
<metadata>
Created by potrace 1.16, written by Peter Selinger 2001-2019
</metadata>
<g transform="translate(0.000000,691.000000) scale(0.100000,-0.100000)"
fill="#000000" stroke="none">
<path d="M3040 6895 c-567 -69 -1144 -293 -1603 -623 -366 -263 -709 -633
-944 -1020 -143 -235 -300 -585 -289 -645 3 -18 8 -95 11 -172 4 -77 8 -167
10 -200 2 -33 -1 -101 -6 -152 -8 -66 -8 -111 0 -155 5 -35 11 -175 12 -313 1
-196 -2 -265 -15 -320 -20 -88 -20 -135 -1 -171 12 -22 14 -49 10 -114 -3 -47
-7 -125 -10 -175 -2 -49 -9 -105 -16 -123 -13 -38 -60 -66 -94 -58 l-24 6 25
-92 c104 -393 292 -793 527 -1123 144 -202 379 -459 577 -629 378 -328 893
-593 1398 -720 94 -24 105 -25 125 -11 12 8 33 15 48 15 23 0 27 5 33 40 8 49
-5 108 -39 183 -35 75 -43 153 -21 196 21 39 71 71 113 71 42 0 135 -20 148
-31 11 -11 34 -156 26 -164 -2 -3 -26 -2 -53 1 l-48 7 0 -44 c0 -24 9 -78 20
-119 12 -41 23 -107 27 -147 7 -86 -9 -79 234 -89 l166 -7 6 65 c7 77 54 210
95 270 44 65 124 138 200 185 59 35 81 43 158 52 133 16 221 14 310 -10 43
-11 135 -24 204 -29 69 -5 141 -14 160 -20 19 -6 89 -18 155 -26 150 -19 197
-39 238 -106 16 -26 32 -48 34 -48 11 0 199 99 291 154 384 228 772 587 1039
961 334 469 551 1033 618 1605 20 169 20 641 0 810 -103 882 -547 1696 -1236
2267 -509 422 -1140 691 -1799 768 -157 19 -668 19 -820 0z m1306 -1217 c3 -4
18 -5 34 -1 22 4 31 1 36 -11 4 -11 13 -14 25 -11 12 4 25 -3 41 -25 14 -19
29 -29 39 -27 20 5 25 2 62 -40 24 -26 27 -34 18 -52 -9 -16 -9 -21 2 -21 15
0 37 -73 32 -112 -9 -80 -7 -229 5 -278 19 -79 -1 -168 -32 -143 -7 6 -23 14
-35 17 -17 6 -23 3 -23 -9 0 -9 -6 -15 -12 -14 -7 1 -30 -1 -51 -6 -26 -5 -37
-12 -33 -21 6 -16 -15 -19 -29 -5 -6 5 -39 5 -80 0 -73 -10 -98 -13 -205 -24
-39 -5 -73 -15 -85 -25 -11 -10 -38 -26 -60 -36 -47 -21 -115 -81 -115 -101 0
-7 -4 -13 -9 -13 -5 0 -12 -16 -16 -36 -5 -30 -2 -41 14 -58 21 -20 21 -20 36
-1 16 20 16 20 11 0 -10 -36 23 -115 48 -115 10 0 6 40 -6 59 -9 15 -8 24 6
46 11 16 23 24 32 21 9 -3 24 -1 35 5 20 10 20 10 4 -14 -23 -35 -6 -42 66
-27 74 16 178 7 228 -19 11 -7 22 -7 25 -2 7 11 75 -8 94 -26 6 -6 21 -14 32
-18 25 -8 94 11 110 30 20 24 46 18 59 -12 9 -25 9 -123 0 -178 -2 -11 -15
-37 -28 -58 -16 -27 -22 -46 -17 -67 3 -16 1 -32 -4 -35 -4 -3 -11 -19 -15
-35 -4 -17 -10 -30 -15 -30 -4 0 -10 -19 -13 -42 -2 -24 -7 -52 -11 -63 -33
-111 -38 -195 -15 -294 11 -50 3 -126 -17 -158 -8 -12 -14 -29 -14 -37 0 -35
-80 -157 -144 -220 -72 -71 -142 -124 -105 -80 9 10 21 28 27 40 23 45 -25 17
-88 -51 -35 -39 -68 -71 -72 -73 -4 -2 -8 -12 -8 -23 0 -10 -4 -19 -10 -19 -5
0 -10 -6 -10 -13 0 -7 -11 -24 -25 -39 -14 -15 -25 -32 -25 -38 0 -5 -3 -10
-8 -10 -4 0 -39 -29 -77 -65 -39 -36 -73 -65 -77 -65 -4 0 -13 -7 -22 -15 -34
-35 -136 -75 -196 -79 -67 -4 -75 -8 -67 -31 4 -9 19 -15 39 -15 18 0 56 -6
85 -12 50 -12 66 -29 42 -43 -6 -5 -4 -11 7 -19 11 -9 15 -21 11 -34 -3 -12
-1 -25 4 -28 5 -3 7 -10 3 -15 -3 -5 -10 -7 -15 -4 -5 4 -9 1 -9 -4 0 -6 5
-11 10 -11 15 0 12 -16 -5 -34 -8 -8 -15 -18 -15 -22 0 -16 -44 -100 -67 -127
-13 -16 -23 -35 -23 -43 0 -8 -7 -14 -16 -14 -14 0 -14 -3 -4 -15 14 -17 66
-20 76 -4 5 8 9 8 14 -1 6 -9 11 -6 20 10 10 18 14 20 21 9 5 -8 6 -21 3 -30
-3 -12 3 -18 26 -21 17 -3 33 -1 36 4 3 5 13 7 22 6 9 -2 21 7 27 19 7 13 15
20 18 16 4 -3 7 7 7 24 0 22 6 33 24 41 14 6 35 25 47 41 26 36 43 41 34 10
-7 -22 -7 -22 26 1 31 23 32 23 27 3 -8 -31 6 -50 26 -34 9 8 16 12 16 10 1
-2 3 -21 6 -42 4 -28 1 -44 -11 -57 -14 -16 -15 -21 -4 -25 15 -6 19 -52 6
-72 -5 -7 -4 -13 2 -13 7 0 6 -10 -1 -30 -5 -17 -7 -43 -3 -58 5 -15 7 -40 6
-55 -2 -15 2 -34 8 -41 8 -10 5 -20 -14 -40 -14 -15 -33 -38 -41 -51 -10 -15
-36 -30 -70 -40 -55 -16 -62 -23 -44 -41 48 -48 -132 -134 -309 -148 -125 -10
-392 26 -527 70 -165 54 -611 278 -788 396 -89 60 -316 271 -316 295 0 7 42
36 93 66 130 77 200 132 319 251 119 119 156 169 169 223 25 114 38 486 20
588 -6 33 -11 119 -11 190 0 122 -14 302 -23 312 -3 2 -18 -9 -34 -26 -34 -33
-92 -53 -133 -44 -16 3 -40 18 -55 33 -36 37 -49 139 -42 331 3 81 1 180 -4
220 -23 184 -2 359 48 399 35 27 68 25 90 -5 10 -14 30 -39 45 -57 15 -17 30
-40 34 -50 3 -10 9 -18 14 -18 11 0 20 49 30 173 5 59 12 117 16 130 4 12 8
29 9 37 1 8 9 32 18 54 10 21 17 45 17 52 0 7 10 35 21 61 12 27 25 57 29 68
5 11 13 34 19 50 13 35 46 59 64 48 12 -7 17 -9 36 -12 5 0 17 -8 26 -17 14
-14 27 -15 120 -3 93 10 107 10 123 -4 15 -13 19 -14 36 -1 29 21 45 17 52
-11 4 -15 11 -22 17 -18 6 4 23 7 37 8 14 1 32 4 40 8 8 4 24 5 35 3 11 -3 26
-5 33 -5 8 -1 10 -6 6 -13 -4 -7 4 -3 18 10 28 26 40 28 32 7 -8 -19 1 -19 31
1 15 10 25 12 25 5 0 -6 6 -11 13 -11 9 0 12 -10 9 -32 l-5 -32 28 22 c29 23
51 29 40 12 -10 -16 5 -12 37 11 16 12 42 22 57 23 15 1 40 10 57 20 16 11 38
19 49 18 11 0 27 6 37 15 12 11 18 12 18 4 0 -7 5 -9 11 -5 8 4 9 -1 4 -15 -6
-20 -5 -21 14 -9 12 7 21 16 21 20 0 5 9 8 19 8 11 0 21 5 23 12 2 6 10 8 16
4 8 -5 10 -21 6 -47 -4 -26 -3 -39 5 -39 6 0 14 -1 18 -2 3 -2 7 5 9 14 3 22
44 75 44 58 0 -9 6 -7 20 5 11 10 20 14 20 9 0 -5 7 2 16 14 9 13 22 21 29 18
7 -2 16 2 19 10 11 27 24 14 21 -22 l-2 -37 28 30 c15 17 48 36 73 44 25 7 46
17 46 21 0 14 107 20 116 6z m57 -925 c23 -15 44 -29 46 -30 3 -2 -1 -9 -7
-15 -9 -9 -29 -8 -84 2 -55 11 -73 11 -76 2 -2 -7 -23 -12 -55 -11 l-52 1 40
12 40 13 -49 6 c-40 6 -59 2 -107 -19 -61 -28 -95 -25 -62 5 29 26 87 42 181
50 137 13 140 12 185 -16z m618 -194 c-6 -35 -13 -116 -17 -179 -7 -133 -65
-418 -94 -465 -25 -41 -61 -59 -97 -51 -15 4 -40 10 -54 13 -36 7 -61 66 -60
146 0 73 10 148 21 162 5 6 11 37 15 70 9 81 14 95 29 89 7 -3 19 -17 26 -32
l13 -27 9 40 c5 22 9 46 10 53 1 6 6 12 12 12 6 1 25 29 42 63 17 34 37 62 45
62 23 0 41 -74 37 -158 -2 -42 0 -77 5 -77 4 0 7 8 7 18 1 54 13 185 21 232
18 102 21 112 31 102 5 -5 5 -34 -1 -73z m-1584 -3989 c187 0 192 -4 105 -87
-33 -32 -64 -66 -69 -76 -9 -17 -24 -19 -174 -17 -102 0 -166 5 -170 11 -12
19 -30 152 -22 160 9 9 106 17 147 12 16 -1 98 -3 183 -3z"/>
<path d="M3143 4948 c-2 -5 -13 -8 -24 -8 -21 0 -26 -16 -6 -23 6 -3 -4 -6
-23 -6 -37 -1 -82 -21 -47 -21 9 0 17 -5 17 -11 0 -8 13 -10 38 -6 47 8 255
-16 328 -38 15 -5 23 -1 28 10 11 29 -47 73 -115 87 -32 7 -59 15 -59 18 0 9
-131 7 -137 -2z"/>
<path d="M3155 4795 c-167 -38 -276 -96 -150 -80 32 4 65 14 74 23 15 14 16
14 19 -6 2 -12 5 -22 7 -22 2 0 39 -5 82 -11 43 -6 89 -12 103 -14 14 -2 45
-8 69 -15 86 -21 92 -9 22 43 -41 30 -57 47 -44 47 10 0 29 -7 42 -17 18 -12
23 -13 19 -2 -6 22 -108 69 -147 68 -20 0 -63 -7 -96 -14z"/>
<path d="M4060 4031 c0 -21 -7 -35 -24 -46 -22 -15 -29 -15 -71 -1 -25 9 -54
16 -63 16 -10 0 -23 5 -29 11 -8 8 -17 8 -31 0 -21 -11 -102 -108 -102 -122 0
-9 70 -43 83 -40 4 1 15 -5 23 -14 17 -16 69 -21 59 -5 -3 5 0 7 8 4 8 -3 17
2 20 10 9 22 24 20 30 -4 3 -11 10 -20 15 -20 5 0 12 9 15 20 3 13 14 20 31
20 20 0 29 8 41 37 20 47 25 154 8 160 -9 3 -13 -6 -13 -26z"/>
<path d="M4363 3828 c-4 -7 -9 -40 -10 -73 -2 -33 -5 -96 -7 -140 -3 -74 -13
-142 -31 -205 -7 -22 -6 -23 8 -10 14 14 44 110 83 260 16 65 18 116 4 125 -5
3 -10 17 -10 31 0 26 -23 33 -37 12z"/>
<path d="M4092 3784 c-10 -11 -17 -12 -27 -4 -20 17 -28 -4 -29 -74 -1 -34 -5
-61 -11 -61 -5 1 -42 4 -81 9 -55 6 -83 4 -130 -10 -51 -15 -56 -18 -34 -24
14 -4 41 -5 60 -2 25 3 40 -1 49 -12 8 -10 22 -13 40 -10 33 7 43 -9 30 -44
-6 -17 -16 -23 -31 -21 -13 2 -35 -5 -49 -14 -21 -14 -32 -15 -54 -7 -32 12
-49 2 -39 -23 4 -12 13 -15 29 -11 24 6 45 -13 27 -25 -15 -9 -2 -61 15 -61 8
0 27 15 44 33 29 31 30 31 35 10 l6 -22 39 26 c21 14 39 32 39 39 0 8 15 21
33 29 17 9 52 27 77 40 25 13 53 24 63 24 18 1 22 11 8 27 -13 14 -30 94 -20
94 4 0 2 12 -6 28 -7 15 -19 39 -26 55 -14 30 -37 34 -57 11z"/>
<path d="M3220 2855 c0 -8 9 -15 20 -15 30 0 33 -1 60 -20 44 -31 208 -49 239
-25 10 7 15 6 18 -3 3 -6 9 -10 14 -6 13 8 -16 47 -38 51 -48 9 -93 11 -97 4
-9 -14 -94 -4 -111 13 -12 12 -21 13 -36 6 -13 -7 -25 -7 -38 0 -26 13 -31 13
-31 -5z"/>
<path d="M13 3868 c-17 -29 -15 -843 2 -826 6 5 16 838 11 838 -3 0 -8 -6 -13
-12z"/>
<path d="M3920 403 c-95 -13 -110 -18 -156 -53 -95 -71 -170 -194 -189 -309
l-7 -44 138 6 c208 10 512 59 522 85 6 16 -42 119 -90 195 -40 63 -32 72 58
58 81 -12 93 -24 152 -141 20 -41 38 -77 39 -79 6 -10 377 119 396 138 4 4 3
19 -3 33 -10 22 -23 27 -108 43 -54 9 -158 21 -232 25 -74 4 -148 13 -165 19
-36 13 -199 41 -229 40 -11 -1 -68 -8 -126 -16z"/>
</g>
</svg>
