<?xml version="1.0" standalone="no"?>
<!DOCTYPE svg PUBLIC "-//W3C//DTD SVG 20010904//EN"
 "http://www.w3.org/TR/2001/REC-SVG-20010904/DTD/svg10.dtd">
<svg version="1.0" xmlns="http://www.w3.org/2000/svg"
 width="1108.000000pt" height="1052.000000pt" viewBox="0 0 1108.000000 1052.000000"
 preserveAspectRatio="xMidYMid meet">
<metadata>
Created by potrace 1.16, written by Peter Selinger 2001-2019
</metadata>
<g transform="translate(0.000000,1052.000000) scale(0.100000,-0.100000)"
fill="#000000" stroke="none">
<path d="M5460 10205 c0 -8 9 -23 21 -33 28 -23 52 -70 45 -89 -5 -13 -9 -13
-32 2 -21 13 -32 15 -49 7 -13 -6 -32 -8 -44 -5 -28 7 -37 -20 -17 -49 17 -24
21 -54 9 -61 -5 -3 -36 -8 -70 -12 l-63 -7 0 26 c0 17 -7 29 -17 32 -10 3 -26
10 -35 15 -10 5 -39 10 -65 10 -27 1 -38 4 -25 6 30 6 28 15 -10 38 -59 36
-68 37 -68 10 0 -20 -5 -25 -25 -25 -30 0 -32 -18 -5 -53 39 -49 16 -74 -40
-42 -14 8 -43 14 -65 14 l-40 -1 39 -12 c44 -14 90 -51 81 -66 -10 -15 -47
-11 -80 11 -16 10 -37 21 -45 25 -8 3 -27 12 -42 20 -25 14 -28 13 -48 -16
-28 -39 -49 -38 -96 5 -45 42 -56 43 -74 10 -24 -45 -59 -25 -86 48 -3 9 -9
17 -13 17 -37 -2 -64 -99 -36 -130 15 -17 15 -19 -5 -25 -16 -5 -31 -1 -49 14
-57 45 -107 78 -128 83 -29 8 -49 -15 -28 -32 8 -7 15 -22 15 -34 0 -11 14
-35 32 -51 39 -38 23 -44 -57 -20 -58 16 -69 29 -35 40 50 16 0 55 -70 55 -21
0 -42 -5 -45 -10 -4 -6 -18 -10 -33 -9 -15 0 -60 -3 -100 -7 -67 -6 -75 -10
-106 -45 -19 -20 -44 -40 -55 -44 -13 -4 -21 -15 -21 -30 0 -35 -104 -121
-201 -166 -28 -13 -39 -25 -44 -49 -5 -22 -18 -38 -42 -53 l-36 -21 27 -21
c17 -14 26 -30 26 -49 0 -39 -56 -153 -84 -171 -12 -8 -29 -26 -36 -40 -8 -15
-22 -25 -36 -25 -18 0 -24 -7 -30 -35 -5 -28 -17 -42 -61 -71 -35 -23 -65 -53
-81 -82 -15 -25 -46 -67 -69 -92 -23 -26 -51 -66 -62 -90 -19 -43 -19 -45 -1
-79 28 -56 27 -82 -4 -135 -27 -47 -28 -51 -30 -219 -3 -157 -5 -178 -29 -242
-41 -111 -44 -146 -14 -207 32 -67 73 -180 88 -238 6 -25 19 -54 30 -66 19
-20 38 -77 64 -187 7 -33 29 -89 48 -125 37 -73 71 -179 82 -255 8 -59 30
-113 49 -120 7 -3 41 -26 74 -51 33 -25 64 -46 69 -46 16 0 51 -43 58 -70 3
-14 12 -32 18 -41 16 -20 53 -40 61 -32 3 3 6 43 6 87 0 86 9 117 26 94 16
-21 30 -55 85 -198 86 -227 116 -269 233 -324 76 -36 151 -51 304 -60 103 -6
114 -11 169 -61 21 -19 54 -40 73 -46 19 -6 49 -25 65 -43 17 -17 50 -48 74
-68 44 -37 44 -38 33 -75 -6 -21 -14 -63 -17 -93 -2 -30 -11 -86 -20 -124 -15
-71 -13 -98 11 -153 11 -25 23 -34 52 -39 20 -4 45 -14 55 -22 26 -23 102 -22
163 1 l51 20 66 -33 c69 -34 65 -33 208 -14 42 5 47 9 57 40 5 19 8 42 6 51
-2 10 0 24 5 32 11 17 32 5 24 -14 -3 -8 0 -15 7 -15 7 0 9 -8 5 -20 -4 -13
-2 -20 6 -20 7 0 31 -21 54 -46 l41 -45 97 -6 c53 -3 97 -9 97 -14 0 -20 -74
-29 -195 -24 -116 4 -130 3 -155 -15 -16 -11 -38 -20 -49 -20 -12 0 -21 -4
-21 -10 0 -5 10 -10 23 -10 12 0 42 -7 67 -14 l45 -14 -85 1 c-47 0 -88 5 -91
10 -7 11 -98 -8 -139 -28 -14 -7 -54 -16 -90 -19 -75 -9 -117 -25 -144 -55
-17 -19 -18 -26 -7 -61 11 -38 14 -40 50 -40 21 0 44 6 50 14 6 8 32 17 56 20
48 8 70 0 119 -41 l30 -25 295 7 c163 4 323 8 356 8 43 1 59 -2 58 -11 -4 -18
34 -15 41 4 4 10 14 14 26 11 11 -3 23 -1 26 4 7 13 44 11 44 -2 0 -5 4 -8 9
-5 12 8 31 -48 31 -88 0 -18 5 -37 12 -44 7 -7 9 -12 4 -12 -4 0 0 -10 8 -22
23 -32 20 -50 -13 -84 -15 -16 -31 -39 -36 -52 -5 -17 -11 -21 -23 -16 -10 4
-46 8 -82 9 -36 2 -103 13 -150 25 -58 16 -85 19 -88 11 -2 -6 -16 -11 -31
-11 -15 0 -35 -6 -45 -13 -17 -12 -17 -14 1 -45 10 -17 21 -32 26 -32 6 0 68
-26 123 -52 38 -18 95 -80 101 -110 3 -16 19 -39 34 -50 16 -12 40 -38 53 -58
18 -28 31 -37 55 -38 53 -3 61 -5 61 -14 0 -5 4 -7 10 -3 5 3 25 -3 45 -14
l37 -20 -22 -18 c-12 -10 -28 -24 -36 -31 -7 -7 -17 -11 -21 -10 -4 2 -30 -8
-56 -21 -76 -37 -83 -91 -12 -85 19 1 35 -1 35 -6 0 -5 3 -15 6 -23 3 -10 -2
-18 -14 -21 -28 -9 -128 -108 -147 -147 l-17 -32 38 6 c22 3 33 3 26 0 -10 -4
-8 -9 7 -19 10 -8 22 -28 26 -44 4 -19 13 -30 23 -30 15 0 15 2 2 11 -12 9
-12 10 3 5 10 -3 23 -6 29 -6 6 0 8 -12 4 -31 l-6 -30 32 22 c28 20 36 21 80
12 40 -8 56 -7 86 7 20 9 49 22 65 28 16 7 27 19 27 31 0 23 43 53 64 45 9 -3
28 -3 42 0 19 5 24 11 19 26 -6 18 -1 20 49 20 33 0 58 5 62 12 6 9 10 5 15
-12 l7 -25 1 27 c1 15 6 30 11 33 6 4 8 10 5 15 -8 13 13 22 35 15 15 -5 19
-14 17 -38 -2 -29 1 -32 31 -35 21 -2 32 -9 32 -19 0 -11 -4 -13 -12 -5 -8 6
-22 6 -36 1 -32 -12 -26 -51 8 -60 16 -4 19 -7 8 -8 -10 -1 -18 -4 -18 -7 0
-14 31 -34 51 -34 21 0 22 -1 7 -16 -12 -13 -14 -23 -6 -52 18 -67 22 -220 5
-245 -12 -19 -12 -24 2 -38 9 -9 27 -20 41 -24 53 -16 62 -42 34 -97 -9 -18
-18 -60 -20 -96 -1 -35 -9 -73 -17 -85 -25 -40 -40 -98 -28 -110 19 -19 13
-81 -9 -95 -17 -10 -18 -15 -8 -32 7 -11 26 -22 42 -26 51 -11 69 -40 41 -64
-8 -7 -12 -16 -9 -21 2 -5 -2 -22 -11 -39 -8 -16 -13 -30 -10 -30 3 0 -2 -14
-10 -31 -10 -19 -22 -29 -30 -25 -8 3 -18 0 -22 -7 -12 -18 -72 -44 -118 -52
-22 -4 -44 -10 -50 -13 -5 -4 -17 -7 -25 -8 -86 -10 -113 -16 -133 -28 -31
-19 -75 -28 -82 -16 -9 15 -33 1 -39 -23 -3 -12 -22 -31 -43 -41 -21 -11 -50
-31 -66 -45 l-28 -25 -35 19 c-23 12 -38 15 -45 8 -16 -16 1 -44 32 -50 35 -7
36 -14 7 -47 -18 -20 -36 -27 -83 -32 -33 -3 -70 -10 -82 -16 -32 -16 -400 2
-626 31 -99 12 -219 52 -283 95 -47 30 -81 50 -219 126 -101 56 -221 133 -281
181 -95 75 -151 145 -201 249 -25 52 -62 129 -83 170 -101 199 -97 188 -114
297 -13 82 -46 173 -63 173 -16 0 -71 -42 -82 -64 -17 -31 -58 -42 -80 -22
-26 24 -81 4 -191 -69 -52 -34 -129 -79 -170 -101 -41 -21 -88 -48 -105 -60
-33 -24 -595 -298 -635 -309 -14 -4 -34 -14 -45 -22 -18 -14 -13 -15 49 -9 38
3 76 11 85 18 23 19 100 54 146 68 22 7 47 18 55 25 41 33 102 24 182 -28 50
-33 66 -56 47 -68 -8 -4 3 -16 30 -33 41 -26 54 -57 29 -72 -19 -12 -93 -8
-129 6 -46 18 -136 77 -142 92 -4 10 -7 11 -18 1 -7 -7 -21 -13 -31 -13 -24 0
-23 -8 5 -30 21 -18 21 -19 3 -26 -10 -4 -33 -2 -50 5 -60 25 -117 34 -129 21
-9 -9 -7 -15 8 -25 74 -51 84 -62 85 -82 0 -21 11 -35 55 -72 24 -19 5 -33
-45 -35 -27 0 -46 5 -53 14 -7 9 -31 24 -54 34 -23 10 -56 33 -73 51 -27 28
-38 33 -65 28 -34 -5 -55 11 -37 29 6 6 12 6 16 -1 4 -6 14 -11 23 -11 13 0
13 3 3 15 -17 20 -45 19 -70 -2 -20 -18 -27 -43 -11 -43 4 0 26 -14 47 -31 28
-22 43 -44 52 -77 14 -45 13 -47 -12 -68 -28 -24 -112 -40 -168 -31 -192 29
-200 30 -318 10 -107 -17 -116 -20 -128 -45 -10 -21 -10 -33 -2 -48 10 -19 8
-20 -49 -20 -33 0 -62 -4 -66 -9 -3 -5 -25 -9 -49 -8 -29 1 -50 -4 -62 -15
-13 -11 -24 -14 -34 -8 -9 5 -36 3 -65 -4 -49 -12 -139 -8 -245 11 l-45 8 24
22 c15 14 44 25 72 29 37 5 52 13 65 32 15 24 15 25 -1 19 -9 -4 -29 -10 -43
-14 -14 -3 -37 -12 -51 -19 -14 -8 -29 -14 -33 -14 -20 0 -176 -84 -248 -132
-22 -16 -57 -39 -78 -53 -21 -14 -47 -33 -58 -43 -44 -39 -118 -92 -129 -92
-19 0 -25 49 -25 197 0 191 -43 533 -89 704 -36 136 -110 333 -130 349 -10 8
-29 38 -41 65 -12 28 -28 64 -36 82 -16 36 -18 53 -4 53 13 0 30 -34 30 -59 0
-12 5 -21 11 -21 7 0 8 7 4 18 -4 9 -14 47 -24 83 -9 37 -24 77 -34 90 l-16
24 -21 -24 c-11 -13 -20 -32 -20 -42 0 -26 -27 -24 -41 4 -7 12 -55 66 -108
120 -99 102 -236 206 -354 271 l-67 38 0 -1141 c0 -941 2 -1141 13 -1141 38 0
88 -120 132 -316 9 -38 26 -112 39 -164 35 -138 39 -222 21 -413 -17 -191 -19
-384 -4 -537 22 -233 26 -322 21 -467 l-5 -153 -108 0 c-66 0 -109 -4 -109
-10 0 -7 1853 -10 5540 -10 4981 0 5756 3 5498 22 l-42 3 -13 65 c-7 36 -20
114 -28 175 -7 60 -23 178 -34 260 -22 158 -33 245 -51 385 -53 423 -116 733
-190 933 -95 259 -133 344 -172 390 -20 22 -30 27 -51 22 -22 -6 -28 -2 -42
24 -8 17 -19 31 -24 31 -4 0 -20 10 -34 23 -14 12 -41 33 -60 47 -20 14 -41
38 -49 54 -14 31 -43 51 -119 79 -25 10 -64 33 -87 52 -27 24 -50 35 -71 35
-17 0 -53 11 -80 24 -27 13 -61 26 -75 30 -14 3 -36 20 -48 36 -12 17 -30 30
-39 30 -25 0 -69 20 -102 47 -16 13 -37 23 -48 23 -11 0 -48 5 -83 12 -51 10
-64 16 -63 30 1 10 8 20 15 23 23 9 -6 35 -38 35 -16 0 -50 9 -76 21 -27 11
-58 18 -70 15 -12 -3 -24 -1 -26 4 -2 6 -21 13 -43 17 -51 7 -68 21 -61 48 5
19 -1 22 -55 34 -34 7 -69 16 -78 21 -9 4 -43 14 -76 20 -95 19 -116 40 -80
77 13 13 18 13 33 2 13 -11 13 -9 -2 9 -11 12 -15 22 -10 22 29 1 -39 23 -135
44 -70 15 -128 34 -158 52 -79 48 -223 98 -223 79 0 -4 16 -23 35 -42 19 -19
35 -39 35 -44 0 -5 8 -9 18 -9 17 -1 52 -22 52 -32 0 -14 -51 -14 -62 0 -7 8
-31 23 -54 33 -30 14 -47 30 -64 64 -13 25 -27 45 -31 45 -17 0 -15 -27 4 -65
38 -73 30 -84 -24 -34 -29 27 -31 33 -20 51 7 11 11 21 9 23 -2 1 -30 5 -63 9
-57 6 -135 45 -135 67 0 13 6 11 23 -5 13 -14 72 -21 132 -17 29 2 29 2 11 16
-11 8 -28 15 -38 15 -10 0 -26 4 -36 9 -67 34 -117 51 -120 43 -2 -6 -14 1
-27 14 -13 13 -33 24 -43 24 -10 0 -22 3 -26 8 -4 4 -11 7 -14 8 -4 0 -15 4
-24 8 -28 13 -21 29 10 23 56 -10 300 -94 339 -116 10 -6 52 -22 93 -35 67
-22 178 -65 267 -103 18 -8 88 -29 155 -48 68 -18 145 -43 171 -54 27 -12 53
-21 59 -21 6 0 51 -18 101 -41 88 -40 164 -69 277 -110 30 -10 64 -23 75 -28
36 -15 118 -42 205 -68 121 -36 348 -148 432 -214 20 -16 42 -29 47 -29 6 0
11 -4 11 -10 0 -5 5 -10 10 -10 27 0 -32 57 -114 111 -107 71 -243 138 -341
167 -285 85 -358 109 -430 142 -11 5 -58 26 -105 46 -47 19 -128 54 -180 76
-52 22 -138 55 -190 74 -52 18 -160 59 -240 92 -80 32 -187 73 -238 91 -51 17
-150 59 -220 92 -156 75 -262 119 -284 119 -9 0 -23 -6 -30 -13 -8 -8 -38 -13
-78 -12 -55 0 -72 5 -111 30 -25 17 -47 34 -50 40 -2 5 -10 10 -18 12 -8 1
-33 15 -57 32 -23 17 -46 31 -52 31 -5 0 -33 28 -63 62 -30 35 -65 76 -79 91
-29 34 -70 57 -100 57 -31 0 -24 -15 28 -56 178 -142 200 -199 147 -395 -26
-99 -114 -296 -152 -342 -13 -16 -23 -34 -23 -42 0 -7 -18 -31 -39 -53 -22
-22 -44 -50 -51 -61 -11 -22 -50 -29 -50 -9 0 6 -10 22 -22 35 -19 20 -20 26
-9 47 13 23 9 174 -5 246 -2 14 -9 79 -14 145 -5 66 -14 154 -19 195 -6 41
-12 93 -14 115 -2 22 -8 48 -12 57 -4 10 -5 23 -2 30 2 7 0 21 -4 30 -9 17
-36 283 -38 373 -1 29 -7 54 -14 60 -23 17 -50 139 -44 195 3 27 1 63 -4 79
-8 23 -6 39 11 78 16 39 21 73 23 159 2 104 1 109 -18 106 -11 -2 -33 -20 -50
-40 -16 -20 -43 -48 -58 -62 -76 -68 -127 -120 -127 -130 0 -5 -5 -10 -10 -10
-12 0 -61 -33 -97 -64 -13 -11 -23 -14 -23 -8 0 7 6 12 13 12 7 1 5 6 -6 14
-27 21 -19 79 15 117 15 16 28 38 29 47 0 9 2 31 5 47 12 93 -8 179 -45 193
-9 3 -20 10 -26 14 -5 4 -25 20 -43 34 l-34 27 6 101 c10 168 10 168 -24 197
-29 24 -37 26 -118 24 -48 -2 -100 -8 -115 -14 -39 -15 -96 -14 -177 5 -51 11
-74 13 -89 5 -22 -12 -161 -15 -162 -3 0 4 -2 19 -4 34 -5 40 18 55 58 36 17
-9 54 -23 82 -31 41 -14 53 -14 70 -3 11 7 49 14 84 15 52 1 67 6 79 22 7 11
19 19 25 17 7 -1 35 3 62 9 75 17 265 15 265 -3 0 -8 7 -14 15 -14 14 0 36
-34 70 -110 8 -19 20 -42 25 -50 12 -18 21 -37 52 -112 18 -46 28 -58 46 -58
12 0 22 6 22 14 0 8 6 21 13 28 6 7 13 40 15 73 2 33 10 72 17 87 7 15 9 28 4
30 -5 2 -12 33 -16 71 -5 58 -4 67 11 67 11 0 16 -9 16 -26 0 -28 21 -54 43
-54 9 0 21 -13 28 -29 7 -16 18 -27 25 -24 7 3 14 -5 16 -19 4 -29 41 -32 46
-3 3 11 10 23 17 27 8 5 11 17 8 29 -3 12 0 25 7 29 17 11 32 100 31 184 -1
38 4 84 11 102 9 26 9 39 0 56 -7 13 -11 32 -11 43 2 44 -10 162 -19 190 -9
30 -9 371 0 380 3 3 12 -3 21 -12 10 -12 19 -53 25 -120 6 -56 15 -110 21
-122 6 -11 14 -73 17 -138 7 -115 8 -119 32 -131 14 -7 34 -12 45 -12 18 0 18
1 -1 28 l-20 27 32 37 c30 35 34 36 49 20 16 -15 18 -15 34 0 14 14 17 46 19
212 1 108 5 200 9 206 3 5 21 10 40 10 19 0 37 5 41 12 8 13 9 22 12 131 1 49
6 67 16 67 22 0 26 79 16 270 -16 267 -22 307 -59 366 -43 69 -41 118 5 122
l31 3 -14 49 c-12 40 -12 67 -2 157 19 181 14 477 -10 521 -11 20 -10 27 5 43
14 15 15 24 6 43 -8 19 -8 27 2 35 7 6 13 33 14 60 l1 50 -52 17 c-29 9 -57
20 -62 25 -6 4 -32 13 -58 19 -75 19 -65 30 23 23 44 -3 80 -4 80 -1 0 12 -30
77 -38 82 -5 3 -40 10 -78 16 -38 6 -73 15 -78 20 -17 17 37 28 94 19 30 -4
77 -8 103 -8 45 -1 48 1 45 21 -2 14 -11 24 -23 26 -11 2 -27 6 -35 9 -8 4
-49 5 -91 4 -87 -3 -98 4 -75 51 18 36 7 53 -29 42 -11 -3 -33 -8 -50 -11 -16
-3 -36 -10 -43 -16 -8 -6 -21 -12 -30 -13 -10 -1 -34 -6 -54 -9 -44 -9 -53 9
-13 27 31 14 31 22 4 42 -26 18 -17 36 19 36 15 0 38 7 51 17 23 15 23 17 6
29 -15 11 -22 10 -43 -6 -32 -26 -50 -25 -54 3 -2 15 -9 21 -23 20 -36 -5 -85
8 -85 21 0 8 14 19 30 25 17 5 30 14 30 20 0 5 14 12 30 16 29 6 42 25 18 25
-9 0 -9 3 0 12 17 17 15 28 -4 28 -24 0 0 26 31 34 14 4 25 13 25 21 0 21 -64
34 -141 30 -36 -2 -71 0 -79 5 -24 15 25 30 119 37 88 6 109 14 75 27 -15 6
-15 9 3 29 38 42 39 51 5 44 -39 -8 -44 12 -9 40 41 32 70 79 62 102 -6 21
-25 29 -25 11 0 -5 -14 -17 -31 -26 -29 -15 -31 -15 -25 0 22 55 21 53 3 34
-11 -10 -17 -29 -15 -44 2 -22 -2 -29 -26 -35 -27 -7 -27 -7 -11 11 12 13 13
19 3 22 -8 3 -11 20 -9 51 4 67 -7 111 -24 97 -10 -8 -21 -4 -44 19 -18 17
-41 31 -51 31 -11 0 -20 4 -20 8 0 4 -34 25 -75 47 -41 21 -82 46 -91 57 -10
10 -24 18 -33 18 -9 0 -30 8 -46 19 -17 10 -48 24 -70 31 -40 13 -99 43 -122
62 -7 6 -32 8 -55 4 -32 -5 -62 0 -116 19 -41 14 -85 25 -99 25 -18 0 -39 14
-66 43 l-39 42 4 -50 c3 -49 2 -50 -27 -53 -22 -2 -39 6 -62 28 -18 17 -33 37
-33 45 0 25 -51 75 -76 75 -17 0 -31 12 -50 42 -15 24 -33 49 -41 56 -7 7 -13
19 -13 26 0 6 -13 20 -30 29 -26 16 -30 16 -30 2z m65 -1175 c6 -27 35 -44 35
-21 0 5 19 19 43 31 37 19 49 20 83 11 21 -6 42 -7 47 -2 5 5 23 5 41 1 18 -4
67 -5 108 -2 67 4 81 1 127 -22 29 -14 61 -26 70 -26 10 0 45 -14 79 -31 34
-17 76 -32 94 -35 18 -2 38 -10 44 -18 5 -8 23 -18 39 -22 16 -4 40 -13 54
-20 27 -14 121 -102 121 -114 0 -4 22 -19 49 -34 43 -23 50 -31 56 -66 4 -22
12 -40 19 -40 14 0 63 -59 85 -102 12 -23 12 -29 -2 -42 -10 -10 -18 -12 -22
-6 -4 6 -11 8 -16 5 -16 -10 -10 -44 11 -62 13 -12 20 -30 20 -55 0 -21 4 -38
8 -38 5 0 18 -9 31 -21 20 -19 21 -23 8 -43 -11 -16 -12 -27 -5 -40 6 -10 8
-34 5 -52 -5 -27 -2 -37 14 -47 25 -16 24 -26 -7 -92 -20 -42 -24 -59 -15 -68
6 -6 11 -19 11 -29 0 -10 9 -27 20 -38 22 -22 19 -40 -6 -40 -30 0 -9 -34 26
-43 46 -11 62 -27 30 -28 -14 0 -47 -2 -75 -3 -27 -2 -117 -6 -200 -10 -289
-14 -513 45 -441 116 17 18 3 48 -22 48 -9 0 -32 9 -50 20 -24 15 -32 27 -30
43 2 15 9 21 21 19 14 -2 16 2 11 22 -5 23 -3 26 22 26 22 0 25 3 16 12 -10
10 -18 9 -41 -5 -52 -30 -151 -21 -151 14 0 5 9 17 20 26 29 25 25 41 -15 57
-19 8 -35 19 -35 23 0 15 57 62 84 69 17 4 28 15 32 33 3 14 16 35 29 46 14
12 25 34 27 54 3 32 0 35 -37 48 -22 7 -44 18 -49 23 -16 16 -39 12 -32 -5 4
-11 -1 -15 -18 -15 -14 0 -26 5 -28 10 -2 6 -21 17 -43 24 -37 13 -41 12 -57
-7 -10 -11 -18 -15 -18 -9 0 7 -11 12 -25 12 -14 0 -25 -5 -25 -10 0 -7 -7 -7
-21 0 -17 9 -23 8 -35 -7 -7 -10 -14 -21 -14 -25 0 -9 -67 -30 -105 -34 -38
-3 -125 -20 -147 -29 -19 -7 -25 -45 -8 -45 6 0 12 1 14 3 10 5 56 -76 56 -98
0 -13 8 -29 18 -34 11 -7 13 -10 3 -11 -11 0 -11 -3 -1 -15 10 -12 10 -18 0
-30 -6 -8 -15 -14 -18 -13 -27 3 -42 -5 -42 -22 0 -11 -5 -20 -11 -20 -5 0 -7
5 -3 11 5 8 2 9 -12 1 -32 -18 -126 -2 -152 25 l-23 25 21 33 c16 26 17 35 7
43 -16 14 -135 6 -178 -12 -39 -15 -138 -14 -224 4 -55 11 -95 7 -95 -11 0 -5
-15 -9 -33 -9 -18 0 -59 -7 -90 -15 -32 -8 -66 -15 -77 -15 -10 0 -30 -4 -45
-10 -22 -8 -24 -13 -15 -29 6 -11 25 -24 44 -29 38 -11 76 -44 76 -67 0 -8 4
-15 10 -15 5 0 18 -18 28 -40 10 -22 21 -37 25 -34 4 4 7 0 7 -9 0 -13 6 -15
32 -10 23 5 34 2 44 -12 9 -12 26 -18 46 -18 18 1 52 -5 76 -13 34 -11 46 -11
63 -1 15 9 21 9 27 0 11 -17 59 -27 67 -13 4 7 1 16 -6 21 -9 6 1 9 30 9 32 0
53 -7 78 -26 18 -14 53 -32 78 -40 24 -9 55 -26 69 -39 l25 -24 -20 -50 c-33
-79 -41 -82 -140 -70 -46 6 -91 11 -99 11 -8 0 -59 7 -113 15 -81 13 -105 14
-136 3 -27 -9 -44 -9 -57 -2 -33 17 -180 33 -279 30 -84 -3 -96 -1 -117 19
-56 52 -228 54 -318 4 -123 -69 -150 -88 -161 -113 -6 -16 -14 -28 -18 -28
-10 0 -85 -74 -97 -95 -18 -34 -178 -106 -202 -91 -4 2 -4 64 -1 138 10 216
60 399 143 527 64 98 83 133 90 172 9 46 37 109 48 109 5 0 12 8 16 19 10 26
119 113 146 116 11 1 24 3 29 4 4 0 12 12 17 26 12 31 39 42 108 44 35 0 59
-4 69 -14 21 -21 70 -19 100 5 29 23 81 26 146 8 38 -10 50 -8 105 13 59 23
82 49 45 49 -11 0 3 14 32 32 28 18 54 38 58 45 4 7 24 13 42 13 19 0 35 5 35
10 0 6 13 10 28 10 15 0 34 6 40 12 10 10 17 10 32 1 14 -10 20 -10 24 0 3 9
7 8 14 -2 6 -8 28 -15 49 -16 49 -3 83 -13 83 -26 0 -6 7 -4 15 5 8 8 15 21
15 30 0 9 16 20 40 27 39 12 54 29 25 29 -8 0 -15 7 -15 15 0 8 -6 15 -14 15
-8 0 -16 6 -19 14 -7 19 73 79 88 66 17 -14 41 9 55 55 21 66 32 70 149 68 78
-2 85 0 103 23 26 32 45 30 53 -6z m42 -1158 c12 -7 34 -12 49 -12 15 0 36 -7
46 -16 17 -16 15 -19 -36 -70 -35 -34 -73 -61 -107 -74 -30 -11 -64 -26 -77
-32 -21 -11 -27 -8 -57 27 -19 22 -34 48 -35 58 0 9 -7 17 -15 17 -19 0 -19 0
9 63 l23 53 89 -1 c50 0 99 -6 111 -13z m982 -1311 c22 -14 -2 -37 -44 -45
-20 -4 -51 -23 -75 -46 -23 -22 -46 -40 -51 -40 -5 0 -9 -7 -9 -16 0 -10 -16
-37 -36 -60 -26 -32 -43 -44 -62 -44 -22 0 -126 38 -192 70 -15 7 -60 67 -60
79 0 3 16 23 36 44 l35 38 175 8 c96 5 178 11 181 15 10 9 86 7 102 -3z
m-1236 -225 c34 -13 94 -27 132 -30 39 -3 77 -7 85 -8 16 -2 23 -7 81 -60 42
-40 49 -41 123 -17 52 16 153 11 196 -11 42 -21 55 -47 45 -82 -8 -25 -44 -68
-56 -68 -5 0 -19 -11 -33 -25 -18 -18 -36 -25 -63 -25 l-38 1 40 24 c73 45 82
75 33 105 -63 38 -203 20 -256 -34 -29 -28 -36 -46 -51 -125 -10 -50 -20 -93
-23 -96 -2 -3 -41 0 -86 6 -72 10 -84 9 -98 -5 -17 -18 -47 -14 -75 10 -8 8
-20 14 -26 14 -6 0 -16 7 -23 15 -10 12 -27 14 -81 9 -53 -5 -79 -3 -113 10
-81 31 -131 115 -109 183 7 20 26 37 66 58 33 18 80 57 117 97 58 64 71 71
133 77 10 0 46 -10 80 -23z m275 -492 c12 -8 22 -21 22 -28 0 -7 18 -29 39
-48 27 -24 42 -47 46 -72 4 -20 11 -39 16 -42 5 -3 9 -9 9 -14 0 -13 -30 -40
-43 -40 -8 0 -8 3 1 9 10 6 4 13 -22 25 -41 19 -51 35 -61 91 -4 22 -13 49
-19 60 -6 11 -17 32 -24 48 -14 32 0 37 36 11z m-2393 -3715 c21 -6 54 -26 73
-45 32 -32 34 -38 30 -84 -5 -53 -23 -81 -71 -110 l-27 -17 39 -18 c111 -50
140 -176 58 -251 -49 -45 -110 -55 -312 -52 l-170 3 -3 280 c-1 154 0 285 3
292 6 17 322 18 380 2z m2120 0 c58 -16 105 -67 105 -116 0 -46 -29 -97 -70
-122 l-31 -18 33 -14 c113 -47 149 -170 72 -250 -47 -49 -106 -60 -310 -57
l-179 3 -3 293 -2 292 172 0 c95 0 191 -5 213 -11z m2658 -151 l72 -3 3 -34
c4 -43 -8 -51 -85 -51 l-63 0 0 -99 c0 -136 22 -160 128 -137 l32 8 0 -45 c0
-42 -1 -44 -39 -55 -61 -19 -151 -15 -188 8 -50 30 -57 53 -63 195 -5 120 -6
130 -24 127 -10 -2 -25 -1 -34 3 -12 4 8 30 84 106 l99 100 3 -60 3 -60 72 -3z
m-4165 -19 c60 -30 95 -84 100 -160 l4 -59 -156 0 c-146 0 -156 -1 -156 -19 0
-25 35 -68 70 -86 37 -19 113 -19 176 0 27 8 50 15 52 15 1 0 2 -15 2 -33 0
-32 -3 -35 -51 -50 -67 -22 -206 -23 -257 -1 -76 31 -132 117 -132 203 0 79
53 159 125 192 58 27 166 25 223 -2z m346 15 c10 -4 16 -18 16 -41 l0 -35 36
32 c46 40 73 50 135 50 62 0 103 -21 126 -63 15 -27 18 -58 18 -197 l0 -165
-60 0 -60 0 -5 140 c-3 86 -10 149 -18 162 -26 46 -96 42 -143 -8 -28 -30 -28
-33 -31 -162 l-3 -132 -62 -3 -63 -3 0 216 0 215 49 0 c27 0 56 -3 65 -6z
m1576 -84 l5 -85 18 52 c26 73 82 123 140 123 68 0 74 -9 54 -74 -10 -30 -21
-58 -26 -60 -4 -3 -23 -1 -42 4 -49 14 -98 -13 -126 -70 -19 -36 -23 -61 -23
-132 l0 -88 -65 0 -65 0 0 204 c0 154 3 206 13 210 6 3 35 4 62 3 l50 -2 5
-85z m443 68 c8 -13 32 -67 52 -120 21 -54 41 -98 44 -98 3 0 26 44 50 98 66
146 62 142 126 142 30 0 55 -4 55 -8 0 -5 -58 -132 -128 -283 -71 -151 -134
-289 -141 -306 -13 -32 -14 -33 -78 -33 -48 0 -64 3 -60 13 3 6 28 62 57 124
l52 111 -81 179 c-45 98 -81 184 -81 191 0 8 19 12 60 12 51 0 62 -3 73 -22z
m754 -4 c46 -34 53 -59 53 -189 0 -125 6 -145 42 -145 13 0 18 -8 18 -25 0
-32 -31 -45 -105 -45 -47 0 -57 3 -71 25 l-16 25 -31 -22 c-42 -30 -155 -38
-191 -14 -36 23 -51 76 -32 119 17 41 44 57 166 102 95 34 107 51 70 98 -29
36 -93 37 -168 2 -30 -14 -56 -25 -58 -25 -2 0 -4 16 -4 35 0 29 5 37 32 51
56 29 80 33 175 31 75 -2 97 -6 120 -23z m353 -18 l5 -38 20 22 c53 59 168 79
231 41 53 -32 65 -82 62 -256 l-3 -150 -60 0 -60 0 -5 140 c-3 86 -10 149 -18
162 -26 47 -96 42 -143 -9 -28 -31 -28 -34 -31 -162 l-3 -131 -60 0 -60 0 -3
200 c-1 110 0 205 3 213 3 9 21 12 62 10 l58 -3 5 -39z m-3102 -734 c9 -7 12
-49 10 -178 l-3 -169 -45 0 -45 0 -3 165 c-1 90 0 170 2 177 6 14 64 17 84 5z
m762 -61 c0 -28 3 -30 43 -33 37 -3 42 -6 42 -28 0 -22 -5 -25 -42 -28 l-43
-3 0 -58 c0 -70 14 -86 65 -78 32 5 35 4 35 -19 0 -48 -112 -63 -155 -19 -22
21 -25 33 -25 98 0 69 -2 75 -22 81 -21 5 -19 9 32 61 30 30 58 55 62 55 4 0
8 -13 8 -29z m1070 -1 c0 -29 2 -30 46 -30 44 0 45 -1 42 -27 -3 -25 -7 -28
-45 -31 l-43 -3 0 -53 c0 -70 16 -91 64 -83 33 5 36 4 36 -19 0 -17 -8 -27
-26 -34 -29 -11 -84 -13 -109 -4 -28 11 -45 60 -45 127 0 59 -2 65 -22 71 -21
5 -19 9 32 61 30 30 58 55 62 55 4 0 8 -13 8 -30z m-1497 -61 c14 -17 17 -41
17 -125 l0 -104 -34 0 c-42 0 -46 10 -46 104 0 43 -5 77 -12 84 -19 19 -47 14
-73 -13 -22 -21 -25 -33 -25 -100 l0 -76 -37 3 -38 3 -3 123 -3 122 41 0 c34
0 40 -3 40 -21 0 -20 0 -20 28 -1 15 10 34 22 42 25 27 11 85 -2 103 -24z
m236 20 c19 -7 31 -18 31 -29 0 -15 -8 -18 -52 -16 -68 1 -77 -22 -19 -49 83
-37 103 -84 56 -130 -42 -43 -175 -31 -175 16 0 22 -1 22 65 4 11 -3 29 1 40
10 l20 15 -20 16 c-11 8 -35 25 -54 37 -44 28 -55 48 -47 80 12 48 85 70 155
46z m412 -34 c3 -22 7 -35 8 -28 0 6 13 25 27 42 18 22 35 31 55 31 35 0 45
-18 32 -57 -8 -24 -14 -27 -44 -25 -52 5 -73 -24 -79 -107 l-5 -66 -35 0 -35
0 -3 128 -3 128 38 -3 c36 -3 38 -5 44 -43z m677 39 c16 -5 22 -14 22 -35 0
-28 -1 -28 -43 -23 -55 8 -90 -18 -90 -66 0 -48 33 -72 92 -68 39 2 46 0 49
-16 6 -29 -25 -46 -80 -46 -60 0 -103 21 -128 63 -55 89 11 196 120 196 19 1
45 -2 58 -5z m517 -8 c80 -34 99 -146 37 -209 -26 -26 -40 -31 -90 -35 -75 -5
-124 16 -146 63 -59 124 65 237 199 181z m205 -21 c0 -19 5 -35 10 -35 6 0 10
5 10 10 0 23 50 60 79 60 39 0 45 -12 27 -54 -11 -26 -19 -34 -30 -30 -26 10
-65 -5 -77 -29 -7 -12 -15 -49 -18 -82 l-6 -60 -35 0 -35 0 -3 114 c-1 63 0
121 2 128 3 7 21 13 41 13 33 0 35 -2 35 -35z m-1160 -54 c0 -99 5 -111 41
-111 50 0 69 33 69 117 l0 73 40 0 41 0 -3 -122 -3 -123 -37 -3 c-33 -3 -38 0
-38 17 0 26 -5 26 -37 1 -39 -31 -106 -27 -132 6 -18 23 -21 41 -21 125 l0 99
40 0 40 0 0 -79z m-77 -457 c20 -3 37 -9 37 -13 0 -7 -107 -41 -131 -41 -8 0
-21 6 -27 12 -9 9 -66 13 -200 15 -156 1 -264 8 -304 19 -5 1 -11 2 -14 3 -3
0 -2 6 1 11 7 11 563 5 638 -6z m-217 -136 c4 -6 2 -14 -4 -16 -17 -5 -15 -22
2 -22 8 0 22 10 30 22 19 27 20 19 5 -33 -7 -21 -18 -40 -24 -43 -7 -2 -71 -1
-142 3 -70 4 -150 8 -178 8 -103 1 -125 3 -125 14 0 8 33 10 118 5 71 -4 147
-2 192 5 104 16 103 15 91 38 -16 28 18 47 35 19z m-908 -139 l42 1 0 -53 c0
-68 -16 -91 -66 -93 -22 0 -43 -2 -49 -4 -54 -15 -85 18 -85 89 0 32 5 40 33
54 18 9 43 14 57 11 14 -4 44 -6 68 -5z"/>
<path d="M5464 8810 c-5 -5 -25 -10 -44 -12 -36 -3 -44 -17 -28 -50 5 -10 4
-19 -2 -23 -5 -3 -10 -2 -10 4 0 6 -6 8 -14 5 -8 -3 -12 -12 -9 -20 3 -8 1
-14 -5 -14 -5 0 -12 -9 -15 -21 -4 -15 0 -23 14 -26 10 -3 19 -9 19 -14 0 -5
7 -9 15 -9 8 0 15 -4 15 -9 0 -5 11 -12 25 -15 14 -4 25 -11 25 -16 0 -17 48
-11 58 6 8 15 11 15 29 -2 11 -11 39 -30 63 -43 38 -21 45 -22 69 -10 63 33
62 59 -5 89 -23 11 -47 20 -51 20 -13 1 -63 48 -63 60 0 5 -4 10 -10 10 -5 0
-14 17 -21 38 -12 40 -40 67 -55 52z"/>
<path d="M5100 6073 c-68 -8 -75 -62 -10 -83 21 -7 42 -10 48 -6 5 3 36 1 67
-5 68 -12 100 -6 116 22 9 18 7 25 -14 47 -22 21 -36 25 -99 27 -40 2 -89 1
-108 -2z"/>
<path d="M2970 1981 l0 -91 54 0 c99 0 144 37 132 105 -9 46 -36 62 -118 70
l-68 7 0 -91z"/>
<path d="M2970 1726 l0 -96 73 0 c39 0 83 6 97 13 35 18 54 62 44 100 -14 47
-49 66 -136 73 l-78 7 0 -97z"/>
<path d="M5090 1981 l0 -91 58 0 c31 0 68 6 82 13 53 27 63 112 17 142 -12 7
-52 16 -89 20 l-68 7 0 -91z"/>
<path d="M5090 1726 l0 -96 73 0 c113 0 166 48 138 123 -16 41 -52 58 -135 64
l-76 6 0 -97z"/>
<path d="M3637 1899 c-19 -11 -47 -67 -47 -94 0 -12 17 -15 100 -15 l100 0 0
34 c0 51 -38 86 -92 86 -24 0 -51 -5 -61 -11z"/>
<path d="M6777 1744 c-26 -14 -53 -36 -59 -49 -15 -33 -2 -74 28 -87 22 -10
32 -9 62 7 36 20 37 21 40 88 3 77 1 79 -71 41z"/>
<path d="M8438 7153 c-9 -2 -20 -13 -24 -25 -13 -43 6 -46 281 -53 328 -9 471
-19 492 -36 14 -12 15 -39 11 -217 -6 -236 -12 -222 100 -222 50 0 73 -4 82
-15 17 -21 14 -175 -4 -193 -7 -7 -42 -20 -77 -28 -112 -26 -104 -9 -115 -271
-12 -306 -12 -580 1 -591 15 -14 832 -32 1403 -32 l492 0 0 505 0 504 -86 3
c-71 2 -89 6 -98 21 -9 15 -7 21 9 33 16 12 36 14 98 9 l77 -6 0 274 0 274
-87 6 c-49 4 -239 9 -423 12 -184 3 -468 10 -630 15 -162 5 -538 14 -835 20
-297 5 -565 12 -595 14 -30 2 -63 2 -72 -1z m1420 -577 c71 -4 92 -17 92 -56
0 -22 -7 -31 -34 -44 -19 -9 -38 -16 -44 -16 -5 0 -40 -20 -78 -45 -62 -41
-74 -45 -129 -45 -90 0 -98 9 -101 114 -2 70 1 88 14 95 14 8 106 7 280 -3z
m761 -25 c42 -8 60 -33 42 -55 -12 -14 -44 -16 -225 -16 -217 0 -257 7 -264
42 -2 8 4 23 13 32 15 15 39 16 208 10 106 -3 207 -9 226 -13z"/>
<path d="M3294 6845 c-3 -8 -1 -28 5 -45 5 -17 8 -37 4 -45 -8 -23 14 -101 52
-180 18 -38 47 -115 65 -170 17 -55 33 -104 35 -110 9 -27 4 201 -6 247 -10
48 -54 132 -86 166 -8 8 -13 39 -13 77 0 48 -4 64 -16 69 -24 9 -34 7 -40 -9z"/>
<path d="M3588 6431 c-32 -38 -68 -142 -68 -199 0 -37 79 -138 115 -144 59
-12 61 53 5 114 -23 23 -43 54 -46 68 -3 14 -7 34 -9 44 -2 11 3 34 11 52 9
18 14 44 12 59 -3 25 -3 26 -20 6z"/>
<path d="M10690 5269 c-102 -4 -250 -13 -330 -19 -211 -17 -389 -28 -610 -40
-183 -9 -348 -29 -322 -38 23 -7 12 -21 -20 -26 -18 -3 -67 -8 -108 -11 -41
-2 -104 -9 -140 -15 -36 -5 -108 -10 -160 -10 -52 0 -121 -4 -152 -9 -31 -6
-69 -6 -85 -2 l-28 8 35 11 c32 9 30 10 -35 11 -76 1 -165 -18 -164 -34 0 -14
-60 -26 -101 -19 -33 5 -34 7 -15 20 17 12 4 14 -106 14 -68 0 -176 -7 -239
-16 -63 -8 -158 -19 -210 -24 -52 -4 -129 -13 -170 -19 -41 -6 -154 -15 -250
-21 -96 -5 -218 -15 -270 -21 -52 -7 -102 -11 -110 -11 -8 1 -36 -1 -62 -4
-39 -5 -47 -10 -53 -31 -12 -49 1 -63 58 -63 29 0 81 5 116 11 75 12 213 25
396 38 134 10 259 22 475 46 349 39 510 52 865 70 160 8 331 19 380 25 50 5
171 14 270 20 275 16 452 29 540 40 44 5 186 14 315 20 129 6 314 15 410 20
96 5 196 10 223 10 l47 0 0 40 0 40 -102 -2 c-57 0 -186 -5 -288 -9z"/>
<path d="M5273 4723 c-21 -4 -30 -20 -34 -63 -6 -64 24 -77 94 -42 l50 24 53
-18 c38 -13 54 -24 58 -40 10 -37 56 -85 79 -82 27 4 41 29 34 60 -7 25 -43
48 -78 48 -27 0 -93 46 -109 75 -19 35 -80 51 -147 38z"/>
<path d="M4037 4634 c-3 -3 -1 -14 5 -24 21 -34 3 -50 -55 -50 -58 0 -86 17
-65 38 8 8 7 13 -6 18 -26 10 -174 -3 -232 -21 -27 -8 -78 -15 -114 -15 -36 0
-83 -5 -105 -10 -145 -36 -239 -53 -375 -71 -85 -10 -181 -26 -213 -34 -32 -8
-82 -15 -110 -15 -29 0 -72 -5 -97 -11 -25 -6 -92 -16 -150 -24 -186 -24 -509
-75 -573 -90 -172 -40 -253 -55 -367 -70 -69 -8 -139 -20 -156 -25 -17 -6 -80
-17 -140 -25 -121 -17 -204 -34 -219 -45 -5 -4 -49 -13 -97 -20 -76 -10 -87
-15 -90 -33 -2 -16 -13 -23 -42 -29 -25 -5 -43 -5 -50 2 -21 21 -166 0 -166
-24 0 -7 11 -27 25 -46 14 -19 25 -42 25 -52 0 -26 55 -24 143 6 40 13 119 34
177 46 58 12 141 30 185 41 81 19 99 21 375 59 85 12 182 28 215 37 33 8 87
19 120 23 59 8 101 18 160 39 17 5 77 15 135 21 58 6 130 16 160 21 68 11 159
19 223 18 27 0 54 4 60 9 7 6 37 12 67 15 80 8 165 23 250 45 107 28 564 106
947 162 111 17 208 33 216 36 24 9 -11 104 -39 104 -11 0 -23 -3 -27 -6z"/>
<path d="M3048 4255 c-4 -30 -73 -46 -91 -21 -12 17 -24 17 -157 8 -97 -7
-148 -15 -155 -24 -7 -9 -43 -13 -123 -14 -110 -2 -133 -6 -118 -21 19 -20
734 12 769 34 7 4 92 12 189 18 98 6 180 14 184 17 23 24 -21 28 -251 26 -237
-2 -244 -3 -247 -23z"/>
</g>
</svg>
