<?xml version="1.0" standalone="no"?>
<!DOCTYPE svg PUBLIC "-//W3C//DTD SVG 20010904//EN"
 "http://www.w3.org/TR/2001/REC-SVG-20010904/DTD/svg10.dtd">
<svg version="1.0" xmlns="http://www.w3.org/2000/svg"
 width="1200.000000pt" height="1200.000000pt" viewBox="0 0 1200.000000 1200.000000"
 preserveAspectRatio="xMidYMid meet">
<metadata>
Created by potrace 1.16, written by Peter Selinger 2001-2019
</metadata>
<g transform="translate(0.000000,1200.000000) scale(0.100000,-0.100000)"
fill="#000000" stroke="none">
<path d="M6930 10762 c0 -17 -13 -99 -29 -184 -36 -187 -61 -418 -61 -562 0
-76 -3 -105 -11 -100 -7 4 -9 0 -6 -12 4 -11 11 -40 18 -66 6 -27 15 -48 19
-48 4 0 15 9 26 21 39 44 227 149 414 232 81 36 238 78 246 66 12 -19 20 -7
17 24 -3 23 2 18 16 -23 10 -30 26 -72 35 -92 18 -42 21 -72 6 -63 -6 4 -8 11
-5 16 4 5 2 9 -3 9 -5 0 -15 20 -22 45 -14 50 -30 68 -30 35 0 -12 -4 -19 -8
-16 -23 14 -208 -222 -266 -338 -63 -126 -66 -257 -10 -426 41 -121 78 -189
158 -289 58 -71 76 -101 76 -124 0 -80 -119 -237 -256 -338 -148 -109 -362
-177 -426 -135 -13 9 -27 14 -30 10 -16 -15 -99 162 -151 321 -34 106 -48 186
-56 325 -5 79 -10 109 -16 95 -5 -11 -18 -36 -30 -55 -11 -19 -30 -55 -40 -80
-11 -25 -22 -47 -25 -50 -3 -3 -18 -25 -35 -49 -30 -44 -100 -97 -122 -93 -6
1 -14 -7 -18 -18 -7 -21 -7 -21 -22 -3 -8 10 -11 12 -8 5 8 -15 -22 -41 -47
-42 -9 0 -21 -8 -27 -17 -8 -14 -12 -15 -25 -4 -9 8 -16 9 -16 3 0 -12 -54
-31 -107 -38 -21 -2 -51 -7 -68 -10 -16 -3 -49 -6 -72 -7 -24 0 -43 -4 -43 -8
0 -3 -76 -5 -170 -4 -93 2 -170 2 -170 0 0 -1 26 -19 58 -40 84 -56 172 -144
194 -193 11 -24 26 -46 33 -49 8 -3 21 -19 30 -36 16 -32 21 -92 6 -83 -5 3
-11 -8 -15 -25 -8 -41 -8 -74 1 -66 8 9 53 -63 52 -83 0 -10 -2 -11 -6 -2 -2
6 -8 12 -13 12 -11 0 -12 -108 0 -115 18 -11 11 -21 -15 -21 -18 0 -25 5 -26
21 0 19 -1 19 -11 -2 -12 -25 -4 -58 12 -48 6 3 10 -4 11 -17 0 -13 3 -18 5
-12 8 18 44 4 44 -17 0 -10 8 -24 18 -31 31 -22 52 -61 52 -95 0 -34 -19 -47
-21 -15 -1 9 -3 24 -4 32 -1 8 -3 21 -4 28 0 7 -5 11 -10 8 -5 -3 -12 1 -15
10 -3 8 -10 13 -15 10 -5 -4 -12 0 -14 6 -3 8 -6 6 -6 -4 -1 -10 3 -18 8 -18
5 0 11 -9 14 -21 4 -16 3 -18 -9 -8 -12 10 -14 2 -15 -47 -1 -70 -7 -88 -33
-91 -17 -1 -18 4 -12 60 7 59 6 61 -10 45 -13 -13 -17 -30 -15 -61 2 -43 2
-44 -27 -39 -22 3 -33 -2 -45 -18 -11 -15 -16 -18 -20 -8 -4 9 -6 7 -6 -4 -1
-10 8 -22 19 -28 15 -8 21 -6 30 11 9 15 15 18 25 9 19 -16 4 -62 -26 -77 -13
-7 -18 -13 -11 -13 7 0 12 -13 12 -31 0 -16 -4 -28 -9 -24 -5 3 -13 -4 -16
-16 -5 -14 -1 -25 12 -34 14 -11 16 -16 6 -26 -10 -10 -16 -10 -25 -1 -20 20
-26 14 -33 -33 -5 -31 -14 -49 -31 -60 -27 -18 -28 -17 -14 22 10 27 9 27 -6
8 -16 -19 -16 -19 -9 10 l7 30 -26 -28 c-28 -30 -38 -34 -30 -12 4 8 10 15 15
15 5 0 15 11 21 25 6 14 15 25 20 25 5 0 6 -6 2 -12 -5 -10 -4 -10 7 0 19 17
40 102 23 95 -9 -3 -9 5 1 34 17 45 19 103 5 103 -5 0 -10 -7 -10 -15 0 -8 -4
-15 -9 -15 -24 0 -41 14 -41 33 0 11 -3 17 -7 13 -12 -12 -14 -54 -3 -61 18
-11 11 -22 -14 -22 -23 0 -23 0 -10 51 17 61 16 59 4 51 -5 -3 -10 -15 -10
-26 0 -21 -16 -26 -23 -6 -3 6 -8 -7 -12 -30 -9 -53 -28 -57 -23 -5 2 31 0 38
-14 39 -10 1 -18 -5 -18 -13 0 -8 -7 -17 -15 -20 -9 -4 -14 -14 -13 -23 2 -10
-5 -17 -20 -19 -13 -2 -26 -10 -28 -17 -7 -18 -44 12 -44 37 0 9 -4 19 -9 22
-5 3 -7 15 -4 26 4 14 0 20 -11 20 -20 0 -21 14 -1 30 12 10 15 10 15 -3 0
-10 6 -14 15 -11 23 9 18 23 -10 30 -14 3 -25 12 -25 20 0 8 -4 14 -10 14 -5
0 -10 -9 -10 -20 0 -11 -4 -20 -10 -20 -5 0 -7 7 -4 15 4 8 1 15 -5 15 -6 0
-11 7 -11 15 0 8 -9 20 -20 27 -11 7 -20 17 -20 21 0 5 -14 23 -32 40 -26 26
-28 33 -15 35 16 3 16 5 0 33 -10 16 -21 29 -24 29 -4 0 -23 30 -42 68 -81
158 -176 327 -230 407 -65 96 -182 204 -267 248 -65 33 -78 45 -112 100 -26
43 -44 61 -56 59 -14 -2 -14 -1 -3 7 12 8 3 27 -50 105 -35 53 -66 96 -69 96
-3 0 -10 -11 -16 -24 -10 -21 -8 -28 12 -48 13 -12 37 -36 54 -53 16 -16 30
-36 30 -43 0 -23 30 -72 44 -72 17 0 27 -37 21 -73 -4 -22 -2 -25 12 -20 16 6
16 5 5 -10 -8 -8 -12 -26 -10 -39 3 -23 2 -23 -87 -20 -77 2 -130 8 -251 27
-11 2 -54 17 -95 35 -73 31 -76 31 -204 28 -87 -3 -145 -10 -175 -21 -24 -9
-45 -15 -45 -14 -1 1 1 31 4 66 l6 65 96 65 c199 137 444 261 644 326 248 81
473 85 935 16 276 -42 426 -52 536 -36 44 7 55 14 104 68 61 68 149 129 222
155 26 9 48 20 48 24 0 22 -115 99 -183 122 -15 5 -16 9 -7 27 15 26 -1 124
-36 222 -24 69 -44 102 -103 165 -37 40 -56 105 -72 247 -12 119 -32 226 -45
247 -5 7 -16 42 -25 78 l-17 65 -2 -155 c-1 -85 -1 -188 0 -228 2 -89 -7 -135
-25 -128 -7 2 -16 -2 -19 -10 -4 -11 -10 -12 -25 -4 -11 5 -62 14 -113 20 -51
5 -136 19 -188 30 -52 11 -160 28 -240 37 l-146 15 -76 -36 c-56 -27 -90 -51
-132 -97 -69 -74 -126 -161 -126 -193 0 -19 -8 -26 -44 -36 -40 -11 -48 -10
-73 8 -31 22 -98 46 -156 57 -32 6 -55 27 -163 147 -69 76 -128 137 -131 135
-2 -3 3 -20 12 -37 12 -24 14 -35 5 -40 -14 -9 41 -83 148 -199 42 -47 77 -90
78 -95 3 -49 -121 -148 -281 -226 -123 -60 -138 -65 -285 -99 -67 -16 -111
-20 -204 -17 -166 5 -169 7 -179 157 -4 63 -9 124 -12 137 l-6 23 -42 -30
c-57 -39 -160 -150 -177 -190 -12 -29 -10 -42 20 -139 18 -59 37 -116 43 -127
10 -19 10 -19 18 3 6 14 17 22 33 22 13 0 27 6 30 13 3 6 4 3 3 -8 -2 -14 -9
-19 -24 -17 -26 4 -43 -23 -43 -67 0 -25 3 -29 18 -24 14 6 15 4 4 -9 -10 -13
-10 -33 3 -109 31 -183 35 -198 57 -205 12 -3 24 -1 28 6 4 7 13 9 19 6 6 -4
11 -2 11 3 0 6 8 12 18 12 9 1 4 4 -13 8 -23 5 2 12 105 30 74 12 148 25 164
28 27 6 28 5 16 -18 -8 -13 -20 -29 -29 -35 -11 -8 -15 -31 -15 -83 -1 -40 -6
-75 -11 -79 -6 -4 -10 -11 -11 -17 0 -5 -7 -29 -14 -52 -14 -46 -33 -55 -50
-23 -6 11 -17 20 -26 20 -24 0 -28 -29 -8 -53 l19 -22 -26 23 c-14 12 -30 22
-37 22 -6 0 -15 6 -19 13 -4 7 -21 21 -36 30 -15 10 -31 26 -34 35 -4 9 -11
20 -17 24 -5 3 -11 14 -12 23 -4 28 -14 48 -21 41 -7 -7 -53 57 -53 76 0 7 -6
25 -14 40 -8 14 -17 46 -21 70 -4 24 -13 54 -20 68 -32 63 -63 168 -56 194 1
6 -2 19 -8 30 -5 12 -14 41 -20 66 -12 55 -35 124 -72 212 -31 74 -46 160 -34
205 l7 28 24 -40 c33 -55 30 -40 -10 52 -51 115 -76 229 -76 342 0 116 -20
206 -61 278 -52 91 -207 230 -294 263 -29 11 -35 -3 -7 -19 9 -6 13 -11 8 -11
-5 0 -3 -7 4 -15 17 -21 12 -24 -49 -34 -28 -4 -54 -10 -57 -13 -10 -11 20
-59 41 -64 12 -3 29 -18 38 -34 l17 -28 -33 7 c-33 7 -61 6 -132 -4 -22 -3
-60 -8 -84 -12 -59 -8 -177 -78 -208 -123 -8 -11 -18 -18 -23 -15 -9 6 -55
-56 -83 -112 -31 -60 -43 -322 -16 -339 5 -3 9 -13 9 -22 0 -13 -2 -14 -9 -4
-4 8 -12 13 -17 12 -4 -1 -12 7 -16 17 -5 11 -6 2 -3 -22 4 -30 3 -36 -5 -23
-5 9 -15 62 -21 119 -5 56 -14 110 -19 120 -10 18 -103 99 -114 99 -4 0 -2 -9
4 -21 7 -11 10 -23 7 -25 -7 -7 -47 46 -47 62 0 13 -37 44 -52 44 -14 0 6 -35
49 -86 41 -48 54 -72 34 -59 -6 3 -5 -10 0 -31 8 -25 7 -39 -2 -50 -17 -20
-76 -47 -88 -40 -6 4 -24 -6 -41 -21 -17 -15 -43 -27 -58 -28 -27 0 -27 0 -24
-66 3 -63 3 -66 -20 -65 -24 1 -25 -3 -28 -141 0 -13 -5 -23 -10 -23 -6 0 -10
-16 -8 -36 1 -19 -2 -38 -7 -42 -20 -14 -16 -46 6 -63 13 -10 20 -21 16 -25
-4 -4 -60 -11 -125 -16 -270 -19 -417 -83 -462 -203 -13 -35 -15 -32 30 -55
l40 -20 -3 50 c-4 60 6 77 70 118 80 51 167 75 243 68 150 -15 169 -20 200
-57 16 -19 29 -41 30 -49 0 -8 7 -28 15 -44 8 -15 15 -34 15 -40 0 -6 13 -26
30 -44 16 -18 32 -47 35 -65 19 -97 26 -291 17 -456 -8 -162 -4 -157 -87 -136
-35 9 -52 10 -57 3 -10 -18 -171 96 -239 170 -76 82 -167 218 -199 298 l-24
59 -8 -43 c-8 -46 -31 -77 -52 -69 -7 3 -26 -1 -41 -9 -19 -10 -32 -11 -40 -4
-12 10 -35 -5 -35 -24 0 -17 -75 -45 -91 -35 -34 21 -48 10 -69 -57 -11 -36
-20 -81 -20 -98 0 -62 53 -187 105 -252 25 -30 25 -33 8 -49 -9 -10 -18 -26
-18 -37 -1 -11 -6 -23 -12 -26 -6 -4 -16 -24 -22 -44 -7 -21 -22 -44 -33 -52
-14 -10 -18 -20 -13 -36 6 -20 5 -21 -24 -15 -23 5 -31 3 -31 -7 0 -8 -34 -29
-77 -48 -43 -19 -107 -51 -143 -71 -36 -21 -78 -45 -95 -53 -16 -9 -39 -30
-50 -48 -11 -17 -27 -42 -35 -54 -9 -15 -26 -24 -49 -26 l-33 -3 27 -27 c15
-15 43 -30 62 -34 23 -4 37 -14 40 -25 7 -24 23 -25 24 -1 4 52 9 76 20 82 6
4 8 13 5 19 -4 6 -3 11 2 11 5 0 14 10 21 23 12 23 98 73 141 81 3 1 10 4 15
7 33 21 202 32 258 18 22 -6 57 -29 84 -54 26 -25 50 -45 54 -45 27 0 80 -234
94 -420 4 -47 13 -103 21 -125 8 -22 14 -43 14 -47 0 -5 -42 -9 -92 -9 -65 -1
-84 -4 -63 -9 31 -8 175 -13 175 -6 0 7 -79 479 -86 516 -7 33 -5 32 50 -35
129 -160 285 -261 440 -288 l80 -13 40 -80 c23 -44 56 -101 75 -127 19 -26 32
-48 30 -50 -2 -2 -25 -15 -51 -30 -25 -15 -62 -45 -81 -67 -18 -22 -38 -40
-44 -40 -23 0 -56 -120 -104 -372 -29 -154 -34 -197 -43 -361 -2 -37 -6 -70
-10 -74 -3 -3 -27 8 -53 25 -50 32 -197 122 -348 214 -50 30 -122 70 -160 88
-39 18 -74 35 -80 38 -5 3 -7 2 -3 -2 3 -4 158 -99 344 -210 324 -193 339
-204 369 -253 35 -59 117 -133 206 -186 50 -29 73 -37 104 -35 l39 3 12 -55
c13 -60 33 -120 44 -133 3 -4 12 37 19 90 7 54 24 158 37 232 23 126 25 185 5
152 -6 -9 -11 -10 -15 -2 -4 6 -12 9 -17 6 -5 -4 -9 -1 -9 4 0 6 5 11 11 11 6
0 9 6 6 13 -2 6 -9 11 -15 10 -6 -1 -8 11 -6 30 3 18 6 63 8 100 1 37 8 73 14
79 14 14 16 38 3 38 -15 0 -23 63 -9 71 19 12 39 -11 33 -35 -5 -17 -4 -18 4
-6 6 8 11 11 12 5 4 -48 18 -83 20 -49 1 10 6 -1 13 -25 15 -57 32 -62 45 -14
17 63 23 113 13 113 -5 0 -14 43 -21 97 -7 56 -17 101 -25 107 -8 6 -17 32
-21 59 -5 38 -3 47 9 47 19 0 33 -23 18 -28 -15 -5 -16 -32 -2 -32 6 0 10 7
10 15 0 8 5 15 10 15 6 0 10 6 10 14 0 18 31 26 100 26 47 0 67 -7 140 -48 47
-26 110 -58 140 -71 30 -12 62 -30 70 -40 8 -9 23 -20 32 -23 19 -8 14 -44 -8
-52 -17 -6 -17 -1 -4 25 9 15 7 19 -5 19 -8 0 -20 -12 -25 -26 -14 -35 -14
-34 20 -30 25 3 28 1 20 -14 -13 -25 -40 -101 -46 -130 -2 -14 -16 -59 -29
-100 -30 -90 -49 -162 -47 -172 1 -5 -2 -8 -8 -8 -5 0 -9 -15 -9 -32 1 -18 -8
-71 -20 -118 -11 -47 -21 -97 -21 -111 0 -15 -7 -33 -16 -40 -11 -9 -14 -23
-11 -46 3 -18 2 -33 -1 -33 -4 0 -8 -8 -9 -17 -1 -10 -6 -43 -12 -73 -6 -30
-15 -80 -20 -110 -6 -30 -12 -64 -15 -75 -2 -11 -12 -58 -21 -105 -9 -47 -23
-117 -31 -157 -8 -39 -16 -82 -18 -95 -1 -13 -5 -30 -8 -38 -3 -8 -11 -51 -17
-94 -6 -44 -16 -85 -21 -91 -6 -7 -8 -20 -4 -29 3 -9 1 -23 -6 -31 -6 -8 -9
-19 -5 -25 4 -6 1 -17 -5 -25 -6 -8 -9 -19 -6 -24 4 -5 2 -12 -3 -16 -6 -3 -8
-12 -4 -20 3 -10 -1 -15 -12 -15 -17 0 -17 -1 0 -20 10 -11 14 -20 9 -20 -13
0 -10 -100 3 -125 6 -11 18 -45 28 -75 10 -30 23 -60 29 -66 6 -6 24 -33 39
-59 16 -26 32 -44 36 -39 4 5 25 52 46 104 77 192 173 376 277 530 58 85 112
169 122 187 9 18 37 44 64 59 26 15 60 43 75 61 16 18 34 33 40 33 36 0 90
120 55 120 -7 0 -3 8 10 18 19 14 22 24 16 45 -4 18 -1 34 8 45 21 24 58 100
58 117 0 8 -4 15 -10 15 -18 0 -11 25 20 73 17 26 30 56 30 67 0 10 5 22 11
26 7 4 7 9 2 13 -6 3 -13 18 -16 32 -6 22 -2 30 21 45 15 11 34 19 42 19 8 0
16 8 18 18 3 13 -3 17 -27 17 -17 0 -31 3 -31 6 0 9 43 44 70 56 25 12 25 12
3 15 -32 6 -29 19 7 32 17 5 30 13 30 16 0 3 -4 4 -8 1 -4 -2 -14 -1 -22 4
-12 8 -13 13 -3 27 7 10 23 35 35 55 12 20 38 44 58 54 32 16 33 18 13 22 -31
5 -28 14 10 33 17 8 40 31 49 50 10 19 25 40 34 46 16 12 16 13 1 19 -21 8
-22 33 -2 41 30 11 110 -29 170 -87 60 -57 164 -130 185 -130 7 0 9 -8 5 -20
-5 -16 -2 -20 17 -20 17 0 29 -11 43 -37 11 -20 19 -38 17 -40 -1 -2 4 -10 12
-18 8 -8 40 -56 72 -105 l57 -91 33 31 c31 31 32 32 58 15 18 -12 25 -23 21
-35 -3 -10 -1 -21 5 -25 14 -9 13 -25 -3 -25 -19 0 -59 -39 -52 -51 3 -5 19 1
35 12 16 12 39 23 52 24 13 1 27 3 32 4 5 0 4 7 -2 14 -11 13 -11 42 1 53 13
14 7 24 -15 24 -13 0 -18 4 -12 9 5 5 26 6 47 3 l38 -7 -22 -24 -23 -24 28
-24 c16 -13 35 -22 42 -19 22 8 26 -12 5 -23 -22 -12 -36 -60 -22 -74 8 -8 11
-7 11 1 0 7 4 12 9 12 5 0 4 -13 -2 -30 -13 -34 -9 -41 21 -33 20 5 21 9 16
59 -7 54 -7 54 21 54 22 0 26 -4 22 -19 -3 -14 6 -31 30 -55 19 -19 32 -39 29
-44 -9 -14 20 -34 49 -34 13 0 31 -8 40 -18 16 -18 55 -16 55 2 0 5 6 8 12 6
18 -6 20 -58 3 -64 -7 -3 -14 -20 -14 -37 0 -18 -1 -43 -1 -57 -2 -43 5 -98
12 -105 4 -4 10 4 14 19 3 14 10 26 14 26 17 0 41 50 32 67 -6 9 -5 27 2 45 9
25 8 31 -7 39 -9 6 -17 14 -17 20 0 5 15 -2 34 -17 31 -25 33 -28 20 -53 -22
-42 -18 -54 16 -49 33 5 51 -9 29 -22 -7 -5 -22 -4 -32 2 -17 9 -19 8 -13 -8
4 -10 2 -21 -5 -25 -8 -4 -4 -9 10 -14 27 -8 28 -45 2 -52 -11 -3 -21 -13 -24
-23 -6 -23 41 -45 75 -35 22 7 22 7 6 -12 -20 -22 -25 -44 -6 -25 13 13 48 16
48 5 -1 -19 -20 -35 -43 -36 -16 -1 -22 -6 -16 -12 17 -17 10 -33 -13 -27 -16
4 -27 -2 -45 -24 -18 -23 -23 -25 -23 -11 0 11 -6 17 -17 15 -10 -2 -17 3 -16
9 2 7 0 12 -5 12 -20 -3 -21 3 -2 24 12 12 26 30 31 40 8 14 5 17 -19 17 -16
0 -34 -6 -39 -12 -16 -21 -22 -58 -10 -58 16 0 -14 -20 -30 -20 -7 0 -13 7
-13 16 0 11 -6 13 -19 9 -19 -6 -49 6 -84 34 -31 25 -29 4 3 -22 16 -14 26
-29 20 -32 -18 -11 -10 -25 15 -25 14 0 25 5 25 10 0 19 39 10 45 -11 6 -18
13 -20 41 -16 24 4 34 2 34 -7 0 -8 10 -17 23 -21 16 -5 18 -8 7 -12 -8 -3
-25 -15 -37 -26 -22 -19 -23 -19 -30 -1 -5 14 -50 64 -58 64 0 0 -16 -11 -35
-25 -41 -30 -53 -32 -45 -5 5 16 2 20 -15 20 -11 0 -23 -7 -26 -15 -4 -8 -17
-15 -30 -15 -13 0 -24 -4 -24 -10 0 -5 7 -10 15 -10 8 0 15 -9 15 -20 0 -15
-7 -20 -25 -20 -22 0 -25 3 -19 25 9 37 -18 74 -50 68 -29 -6 -34 8 -11 31 8
8 15 21 15 29 0 10 7 13 20 10 14 -4 20 0 20 11 0 9 -4 16 -10 16 -5 0 -10 7
-10 15 0 24 -34 17 -59 -11 -16 -18 -20 -29 -12 -37 15 -15 -13 -63 -41 -71
l-23 -7 23 -16 c12 -8 22 -22 22 -29 0 -8 7 -14 15 -14 10 0 15 -7 13 -17 -2
-10 4 -19 12 -19 8 -1 19 -2 24 -3 5 0 1 -11 -10 -22 l-19 -22 33 5 c32 4 42
-4 21 -18 -7 -4 -7 -9 -1 -13 18 -12 23 -48 7 -55 -19 -7 -20 -26 -1 -26 8 0
17 8 21 18 6 15 8 15 26 -7 22 -27 25 -45 5 -38 -10 4 -14 -5 -14 -34 -1 -37
5 -44 33 -40 6 1 0 -7 -12 -18 -19 -16 -20 -20 -7 -25 11 -4 12 -11 6 -23 -13
-24 2 -60 26 -67 12 -4 22 -19 26 -37 3 -18 14 -33 24 -36 14 -3 18 -11 15
-28 -3 -12 1 -28 9 -35 8 -8 12 -27 10 -48 -3 -24 -1 -33 7 -28 17 11 35 -45
22 -66 -6 -10 -11 -37 -11 -60 l0 -43 20 25 c11 14 20 19 20 12 0 -7 4 -11 9
-7 6 3 15 -5 22 -17 7 -13 18 -26 25 -31 7 -4 11 -14 7 -22 -3 -9 1 -22 8 -31
11 -14 9 -20 -15 -40 -22 -20 -25 -28 -16 -39 6 -7 16 -42 21 -77 5 -35 12
-83 16 -107 4 -30 3 -42 -5 -37 -7 4 -10 -27 -9 -102 2 -91 -1 -111 -15 -126
-10 -10 -18 -24 -18 -32 0 -22 -25 -17 -51 11 -33 34 -44 31 -22 -5 9 -16 23
-30 29 -30 22 0 25 -33 5 -53 -19 -19 -19 -19 -26 2 -9 28 -23 27 -37 -4 -6
-14 -15 -25 -20 -25 -5 0 -8 -6 -6 -12 5 -24 -17 -19 -23 4 l-5 23 -9 -25 c-5
-14 -8 -28 -7 -32 1 -5 -5 -8 -14 -8 -8 0 -13 -4 -10 -8 2 -4 1 -14 -4 -22 -8
-13 -13 -13 -31 -2 -21 13 -43 7 -24 -6 22 -16 35 -40 29 -56 -8 -21 -50 -20
-66 2 -7 10 -18 17 -25 17 -16 0 -48 -36 -72 -81 -24 -45 -26 -55 -8 -52 7 2
12 -7 12 -22 0 -18 -5 -25 -20 -25 -30 0 -45 -13 -45 -39 0 -17 -7 -25 -25
-28 -14 -3 -28 -2 -31 3 -8 14 20 49 43 55 25 7 42 64 26 87 -17 24 -4 130 22
172 6 11 15 33 19 49 6 25 -9 13 -97 -75 -111 -110 -136 -146 -41 -60 31 29
62 50 68 48 15 -6 8 -59 -15 -112 -23 -53 -43 -60 -37 -13 5 32 5 32 -10 10
-8 -12 -19 -22 -25 -22 -5 0 -34 -21 -62 -47 -73 -66 -82 -73 -98 -73 -10 0
-13 8 -9 28 4 22 2 25 -9 15 -7 -7 -21 -13 -31 -13 -15 0 -16 -3 -6 -19 9 -15
9 -23 0 -34 -10 -12 -9 -16 8 -20 14 -4 18 -10 14 -22 -4 -10 -1 -21 7 -26 15
-10 14 -11 -38 -47 -13 -9 -14 -14 -5 -18 18 -9 14 -24 -7 -24 -21 0 -35 -15
-45 -47 -6 -18 -4 -22 8 -17 12 5 15 2 10 -10 -5 -12 -14 -15 -33 -12 -14 3
-33 1 -41 -5 -12 -8 -9 -9 13 -5 16 4 27 2 27 -4 0 -6 8 -10 18 -8 11 2 21 -1
23 -7 2 -5 -15 -11 -37 -13 -26 -2 -49 -11 -59 -23 -11 -11 -13 -19 -7 -19 20
0 13 -27 -7 -33 -11 -2 -29 -23 -41 -46 -23 -47 -60 -88 -60 -68 0 6 12 37 26
67 14 30 32 73 39 95 l14 40 -22 -27 c-56 -70 -73 -93 -87 -121 -8 -17 -21
-33 -29 -35 -10 -3 -7 5 7 23 12 15 22 36 22 46 0 11 11 29 25 41 29 25 33 51
8 46 -10 -2 -17 -12 -17 -21 1 -10 -10 -24 -27 -33 -16 -8 -29 -12 -29 -8 0 4
-7 1 -15 -6 -9 -8 -29 -10 -50 -7 -19 3 -35 5 -35 4 0 -1 -4 -17 -9 -34 -9
-31 -7 -34 42 -70 65 -47 68 -51 49 -74 -21 -25 -35 -24 -47 3 -12 27 -64 43
-72 22 -3 -8 -11 -14 -18 -14 -7 0 -15 -9 -18 -21 -3 -12 -10 -18 -16 -14 -6
3 -22 -6 -35 -21 -23 -27 -24 -28 -50 -11 -14 10 -26 14 -26 10 0 -5 -5 0 -11
9 -8 14 2 35 45 99 30 46 53 86 50 91 -10 16 -24 7 -48 -30 -14 -23 -32 -38
-46 -39 -29 -2 -38 -12 -21 -23 9 -5 11 -15 7 -26 -7 -18 -8 -18 -23 1 -11 14
-17 16 -20 8 -3 -7 -18 -13 -34 -13 -37 0 -36 -6 3 -47 27 -28 30 -35 18 -43
-8 -5 -19 -10 -25 -10 -5 0 -4 4 4 9 12 8 12 12 2 25 -24 29 -41 20 -30 -16 5
-21 5 -36 -1 -42 -7 -7 -10 -2 -10 14 l0 24 -29 -28 -30 -29 -38 22 -38 21 40
-34 40 -35 -43 -7 c-41 -6 -55 -25 -30 -40 7 -5 8 -3 3 6 -6 9 -4 11 4 6 7 -5
10 -11 7 -14 -3 -3 2 -15 11 -26 l18 -20 -29 18 c-20 13 -31 15 -34 8 -3 -9
-9 -9 -24 -1 -27 15 -35 3 -13 -21 18 -20 17 -20 -6 -20 -14 0 -30 5 -37 12
-9 9 -12 9 -12 0 0 -13 68 -62 87 -62 7 0 13 -7 13 -15 0 -17 -34 -13 -83 11
-15 7 -34 11 -42 8 -7 -3 -16 -1 -20 5 -3 6 -11 11 -17 11 -6 0 -3 -8 6 -19
16 -18 15 -18 -41 -5 -53 12 -59 12 -78 -5 -31 -28 -43 -32 -51 -20 -4 7 -3 9
3 6 6 -4 13 2 16 12 3 14 -2 21 -17 25 -20 6 -20 7 5 21 27 14 46 45 29 45 -5
0 -15 -6 -22 -12 -7 -7 -26 -14 -43 -16 -16 -2 -35 -8 -41 -13 -7 -5 -21 3
-40 24 -16 18 -19 23 -6 13 28 -24 29 -7 1 28 -11 15 -18 33 -15 41 3 9 0 15
-9 15 -7 0 -17 4 -20 10 -3 6 1 7 9 4 9 -3 16 -1 16 5 0 6 -11 10 -24 9 -20
-2 -23 -5 -14 -16 9 -10 8 -16 -3 -23 -20 -12 -31 -11 -26 4 2 6 0 20 -5 30
-6 12 -5 17 7 17 17 0 21 25 5 35 -6 4 -8 10 -5 15 3 5 1 11 -4 14 -14 9 -6
41 11 41 20 0 48 24 48 41 0 15 45 20 54 6 13 -21 76 5 76 31 0 6 7 19 17 29
9 10 11 18 5 18 -6 0 -16 -8 -21 -19 -14 -26 -40 -34 -57 -17 -20 20 -18 32
12 71 31 42 18 52 -26 20 l-34 -25 -23 22 c-26 25 -31 14 -6 -14 9 -10 13 -21
9 -26 -4 -4 -14 1 -21 12 -10 13 -21 17 -39 12 -15 -4 -26 -1 -29 7 -2 6 -10
-5 -18 -26 -10 -29 -18 -37 -31 -34 -17 5 -23 -4 -19 -27 1 -5 -8 -5 -21 -2
-41 13 -50 11 -62 -9 -6 -11 -11 -21 -11 -21 0 -1 -17 1 -38 5 l-38 6 36 43
37 42 -24 19 c-21 18 -25 18 -40 4 -10 -9 -18 -13 -18 -8 0 4 -8 1 -17 -6 -9
-8 -14 -9 -11 -4 4 6 -2 16 -13 23 -15 10 -19 10 -19 -2 0 -7 -10 -16 -22 -19
-28 -8 -37 1 -18 14 12 9 11 10 -4 5 -10 -4 -24 -2 -31 4 -28 23 -26 -12 1
-42 20 -21 23 -29 12 -25 -12 4 -18 1 -18 -8 0 -8 -6 -18 -13 -22 -8 -4 -17
-20 -20 -35 -6 -22 -4 -25 12 -21 10 3 22 0 25 -6 4 -7 -1 -11 -14 -11 -12 0
-19 -4 -15 -10 3 -5 12 -7 20 -3 11 4 14 -1 13 -17 -3 -23 24 -38 102 -55 31
-7 33 -6 21 9 -18 22 -9 20 35 -6 35 -20 36 -23 16 -28 -20 -5 -21 -7 -7 -33
10 -20 11 -27 2 -26 -23 3 -37 -1 -37 -10 0 -5 12 -11 27 -13 23 -3 28 -10 39
-58 9 -39 20 -61 41 -77 33 -27 45 -29 37 -8 -17 44 62 -20 83 -67 9 -20 20
-27 45 -30 28 -2 33 -7 33 -28 0 -21 -4 -24 -24 -22 -15 2 -21 0 -16 -7 3 -6
-1 -14 -9 -17 -9 -3 -13 -11 -10 -16 4 -6 -1 -8 -12 -5 -106 31 -106 31 -127
18 -13 -9 -52 -13 -110 -13 -77 1 -87 -1 -77 -13 9 -10 32 -15 76 -15 67 0
195 -23 223 -41 13 -8 12 -9 -6 -4 -47 13 -141 25 -183 23 -31 -1 -35 -2 -15
-5 58 -7 154 -35 166 -49 6 -8 21 -14 33 -14 28 -1 70 -36 63 -54 -3 -7 0 -19
6 -25 6 -6 11 -19 12 -29 1 -15 -4 -18 -24 -14 -23 5 -24 3 -13 -11 25 -30 52
-91 44 -99 -5 -5 -21 3 -37 18 -18 16 -35 24 -48 20 -11 -2 -30 2 -43 11 -23
14 -24 14 -34 -12 -8 -20 -15 -25 -28 -20 -9 4 -42 12 -73 17 -52 8 -61 7
-105 -18 -27 -15 -57 -34 -67 -43 -27 -23 -50 -82 -37 -95 5 -5 13 -6 17 -2 4
4 1 11 -7 16 -12 8 -11 10 6 10 11 0 33 14 50 31 16 17 45 39 64 49 42 22 132
25 169 5 47 -25 106 -90 129 -146 13 -30 30 -65 38 -79 62 -111 76 -152 70
-196 -7 -55 -31 -102 -65 -128 -14 -11 -49 -42 -78 -69 l-51 -48 -39 19 c-21
11 -56 25 -78 32 -71 23 -189 87 -222 122 -22 23 -37 52 -47 93 -8 35 -15 49
-15 34 -2 -53 13 -92 46 -125 35 -35 32 -42 -11 -23 -34 16 -106 126 -111 170
-1 8 -11 44 -22 80 -12 35 -26 89 -33 119 -7 30 -21 82 -32 115 -25 74 -33
160 -20 220 8 37 7 48 -4 52 -19 7 -18 35 4 54 9 9 27 29 40 45 19 24 24 26
32 14 5 -8 7 -23 4 -32 -3 -10 -1 -18 4 -18 17 0 43 37 46 66 2 16 4 32 5 36
0 4 23 21 51 39 54 35 58 43 36 65 -21 21 -36 17 -33 -8 1 -17 -7 -26 -33 -39
-19 -9 -44 -26 -54 -38 -11 -12 -25 -21 -32 -21 -7 0 -36 20 -65 45 -59 50
-93 62 -41 15 39 -36 39 -64 -1 -68 -30 -4 -36 -28 -12 -46 13 -9 13 -14 3
-28 -12 -15 -15 -15 -48 2 -19 11 -46 24 -60 30 -14 7 -42 21 -63 32 -21 11
-41 18 -43 15 -5 -5 62 -47 75 -47 5 0 14 -7 22 -16 7 -8 29 -24 48 -35 20
-11 27 -17 16 -13 -11 4 -36 9 -55 11 -28 3 -32 2 -17 -7 9 -6 17 -20 17 -31
0 -11 9 -30 21 -42 20 -22 20 -22 0 -25 -19 -3 -19 -4 5 -47 29 -53 33 -98 7
-88 -14 6 -13 1 5 -24 12 -17 20 -42 19 -59 -3 -39 -28 -40 -138 -3 -70 24
-104 29 -178 29 -54 0 -91 -4 -91 -10 0 -5 17 -10 38 -11 93 -3 119 -6 143
-20 15 -8 45 -24 67 -36 44 -25 112 -101 112 -126 0 -9 4 -18 8 -21 16 -10 33
-115 27 -168 -12 -109 -45 -169 -118 -215 -23 -14 -58 -41 -78 -60 l-36 -34
-63 40 c-35 23 -69 41 -77 41 -8 0 -42 14 -76 31 -34 18 -79 40 -100 51 -57
29 -144 86 -186 122 -54 48 -72 60 -70 50 3 -19 -2 -28 -9 -16 -6 9 -15 10
-33 3 -13 -5 -19 -10 -13 -10 7 -1 15 -8 18 -16 3 -10 1 -15 -7 -14 -6 1 -20
-1 -30 -6 -9 -4 -26 -5 -37 -2 -11 3 -20 1 -20 -4 0 -5 6 -9 13 -10 16 -1 -53
-20 -75 -20 -10 0 -20 -5 -24 -10 -3 -5 -2 -9 3 -8 20 3 23 -2 9 -17 -9 -8
-21 -12 -27 -8 -8 4 -9 3 -5 -5 4 -6 17 -9 29 -6 12 2 17 2 10 -1 -7 -3 -9
-13 -6 -22 3 -12 2 -13 -4 -4 -7 9 -16 10 -34 2 -22 -10 -23 -10 -1 -6 12 2
22 0 22 -5 0 -5 11 -8 25 -7 20 2 24 6 19 21 -4 13 -2 17 5 13 6 -4 11 -13 11
-21 0 -8 8 -19 18 -24 9 -6 12 -11 5 -11 -6 0 -15 5 -19 12 -13 20 -34 -21
-24 -46 7 -20 6 -22 -16 -18 -22 4 -23 6 -8 17 16 11 16 13 -2 24 -17 11 -17
12 -1 7 11 -3 15 -2 12 4 -8 13 -42 13 -50 0 -3 -6 1 -13 9 -16 11 -4 13 -12
6 -29 -9 -25 -5 -35 17 -35 9 0 11 5 7 13 -5 7 -1 6 10 -3 17 -13 17 -14 0
-20 -16 -6 -15 -7 5 -13 13 -3 20 -10 16 -17 -3 -6 -1 -9 6 -8 7 2 17 -6 23
-17 6 -11 18 -19 28 -17 10 2 19 -5 23 -19 6 -17 9 -19 16 -8 7 11 9 11 9 1 0
-7 5 -10 12 -6 6 4 8 3 4 -4 -3 -6 -2 -13 4 -17 5 -3 10 2 10 12 0 15 2 16 10
3 5 -8 15 -15 22 -15 7 0 14 -10 16 -23 2 -13 14 -28 28 -34 13 -6 24 -14 24
-17 0 -3 11 -7 25 -7 15 -1 22 2 19 8 -4 6 -1 8 7 6 8 -3 13 -9 12 -14 -1 -5
13 -9 30 -9 23 0 31 -4 30 -15 -2 -11 5 -15 25 -14 15 0 35 -4 44 -9 12 -8 21
-7 32 2 13 11 15 10 11 -8 -3 -18 -1 -20 15 -11 24 13 43 13 35 0 -4 -7 2 -7
19 0 20 7 24 6 19 -5 -6 -18 8 -19 26 -2 11 10 13 9 8 -6 -6 -15 -1 -17 38
-13 25 2 45 0 45 -4 0 -4 18 -7 41 -6 22 1 43 -2 46 -7 3 -4 11 -6 19 -3 7 3
16 1 18 -3 3 -5 30 -9 61 -10 89 -3 103 -6 98 -15 -3 -4 4 -5 16 -1 13 4 21 2
21 -6 0 -8 4 -8 13 -1 6 5 21 6 32 2 11 -4 26 -5 32 -3 7 3 26 0 43 -6 22 -7
29 -7 24 1 -5 7 -2 8 6 3 21 -13 73 -14 89 -1 11 8 13 8 8 0 -6 -11 27 -15
121 -15 17 0 32 -3 32 -7 0 -4 39 -8 88 -8 48 -1 119 -4 157 -8 89 -10 323
-21 622 -30 24 0 43 -3 43 -6 0 -3 62 -5 138 -4 75 0 141 -1 145 -4 17 -8 582
-23 827 -22 497 3 1703 2 1767 -2 39 -2 70 -1 67 4 -3 4 4 8 15 8 10 0 21 4
23 9 4 12 147 25 398 36 80 3 172 8 205 11 184 16 507 21 650 10 55 -4 110 -9
123 -9 12 -1 22 -4 22 -7 0 -7 53 -12 152 -13 42 -1 75 -4 73 -7 -1 -3 40 -6
93 -7 71 -2 133 4 232 23 112 22 152 26 235 21 55 -3 125 -13 155 -22 57 -16
125 -19 270 -10 47 3 97 6 113 7 15 1 27 4 27 7 0 3 21 6 47 6 25 0 57 5 70
12 13 7 21 8 18 3 -6 -10 97 -2 130 10 11 4 28 6 38 5 9 -2 17 1 17 6 0 5 3 8
8 7 16 -4 92 14 92 22 0 5 16 8 35 6 19 -1 35 1 35 4 0 4 10 6 23 6 12 -1 28
3 36 8 8 6 17 10 20 10 3 -1 5 3 3 9 -2 6 3 6 11 -2 9 -7 16 -8 19 -2 1 5 16
13 32 17 19 4 27 3 23 -3 -4 -6 3 -8 18 -5 14 2 23 8 20 12 -10 17 104 33 319
45 123 7 263 35 276 54 6 10 78 26 103 23 9 -1 17 3 17 8 0 5 17 9 38 8 20 0
46 4 57 9 11 6 45 18 75 28 30 9 62 19 70 22 8 3 28 7 43 7 16 1 32 8 36 15 7
10 9 11 13 1 3 -10 9 -10 28 1 14 7 28 14 33 15 4 1 8 2 10 3 1 2 15 4 30 6
16 2 35 9 43 16 8 6 14 7 14 2 0 -6 13 -6 34 1 19 6 32 15 28 21 -3 5 2 4 11
-4 12 -9 17 -10 17 -2 0 7 4 10 9 6 5 -3 13 -1 16 5 4 6 22 9 41 6 21 -4 34
-2 34 5 0 7 10 9 25 7 18 -4 26 0 31 15 4 12 9 15 13 9 3 -6 19 -13 34 -16
l28 -5 -30 41 c-30 41 -32 64 -5 54 8 -3 14 0 14 5 0 6 8 9 19 6 11 -2 24 3
32 14 7 10 17 15 22 12 5 -3 15 4 23 16 9 12 19 19 24 16 4 -2 20 5 35 17 15
12 58 36 96 54 38 18 69 36 69 39 0 3 -5 3 -10 0 -7 -4 -9 3 -6 20 4 22 3 25
-10 15 -17 -15 -19 -24 -2 -14 7 4 8 3 4 -4 -10 -17 -29 -15 -23 2 10 26 -49
61 -123 72 -112 16 -143 25 -164 43 -11 9 -16 10 -12 3 12 -20 -8 -14 -27 9
-10 11 -25 18 -33 15 -8 -3 -14 -1 -14 5 0 6 -4 8 -8 5 -5 -3 -35 17 -67 44
-32 27 -63 46 -68 43 -6 -3 -7 -1 -3 5 4 6 -6 18 -24 27 -17 9 -28 20 -25 25
3 6 -1 7 -9 4 -9 -3 -16 -1 -16 5 0 6 -8 8 -17 4 -16 -6 -16 -5 -4 10 12 15
12 17 -1 12 -9 -4 -23 1 -32 10 -12 12 -16 13 -16 3 0 -8 -4 -7 -11 4 -5 10
-17 18 -24 18 -8 0 -15 4 -15 9 0 4 -11 7 -25 6 -17 -2 -25 2 -25 12 0 9 -6
13 -15 9 -8 -3 -19 2 -24 12 -8 14 -11 14 -11 2 0 -12 -3 -11 -11 2 -5 10 -20
18 -32 18 -12 0 -31 7 -41 15 -10 8 -23 12 -27 9 -5 -3 -19 1 -31 9 -13 7 -30
13 -38 12 -8 0 -18 3 -21 8 -4 5 -19 10 -35 12 -16 1 -40 5 -54 8 -14 4 -47 9
-75 11 -27 3 -59 7 -70 10 -11 2 -49 7 -85 11 -36 4 -74 10 -85 13 -11 3 -87
6 -170 8 -82 1 -172 7 -200 13 -27 6 -59 13 -70 16 -32 7 -151 25 -203 31 -26
3 -54 7 -62 9 -8 2 -40 7 -70 10 -30 4 -63 11 -72 16 -9 5 -28 9 -42 9 -14 0
-27 4 -30 9 -3 4 -20 12 -38 16 -37 9 -47 12 -50 15 -2 1 -10 3 -18 5 -28 6
-89 35 -95 45 -3 5 -13 10 -20 10 -8 0 -38 15 -67 33 -49 31 -172 78 -201 77
-6 -1 5 -10 26 -21 23 -12 37 -27 37 -39 0 -17 3 -18 23 -9 20 9 38 5 98 -20
92 -39 156 -86 209 -152 38 -48 52 -89 30 -89 -6 0 -15 -11 -22 -25 -8 -19 -8
-28 2 -40 19 -23 27 -18 22 14 -2 16 1 32 7 36 22 13 100 -46 187 -140 107
-115 167 -200 194 -273 21 -56 20 -73 -2 -55 -7 6 -28 14 -45 18 -39 8 -43 -7
-17 -56 8 -17 14 -33 11 -35 -2 -2 -28 0 -57 6 -29 5 -70 10 -91 10 -24 0 -52
9 -75 25 -25 17 -51 25 -83 26 -74 1 -90 5 -112 25 l-20 18 20 -52 c12 -29 30
-71 41 -92 11 -22 20 -42 20 -46 0 -8 -140 4 -200 17 -25 6 -98 12 -162 14
-64 2 -125 8 -136 14 -16 8 -21 26 -27 81 -7 69 -25 88 -25 27 0 -18 -7 -41
-15 -51 -8 -11 -15 -30 -15 -43 0 -14 -6 -23 -15 -23 -8 0 -15 6 -15 14 0 15
-58 56 -79 56 -8 0 -4 -12 9 -30 15 -20 17 -30 8 -29 -15 0 -107 38 -95 38 5
1 1 8 -7 17 -9 8 -14 20 -11 25 4 5 -22 9 -59 9 -50 0 -66 -3 -66 -14 0 -10
-14 -13 -57 -12 -32 0 -105 -3 -163 -9 -190 -17 -794 -11 -910 10 -28 5 -344
31 -485 40 -49 3 -92 10 -93 16 -2 5 -25 20 -51 34 -69 34 -79 50 -50 74 l24
19 -25 7 c-21 5 -25 12 -26 48 0 23 3 45 8 48 5 3 10 15 13 27 2 11 8 30 14
41 6 11 11 31 11 44 0 23 26 56 39 49 13 -8 11 17 -3 31 -21 21 -12 25 42 20
41 -4 45 -3 30 10 -20 16 -6 37 24 37 11 0 15 5 12 14 -4 10 9 15 48 21 40 5
48 9 33 15 -19 7 -19 7 3 14 12 4 20 11 17 16 -3 4 1 10 9 13 29 11 135 98
141 115 5 17 39 39 127 83 20 11 39 23 43 29 3 5 31 17 63 26 90 26 90 26 62
33 -23 7 -22 8 19 22 47 15 73 46 30 35 -24 -6 -24 -6 -1 4 12 5 32 15 45 20
40 18 -133 0 -197 -21 -69 -22 -69 -22 -61 -9 3 5 -10 3 -29 -5 -20 -8 -48
-15 -63 -14 -15 0 -21 3 -13 6 52 18 103 51 110 69 5 13 26 28 52 37 33 12 37
16 18 16 -14 0 -56 -12 -95 -28 -78 -32 -128 -32 -75 0 16 10 29 24 28 31 -5
20 127 76 196 82 34 3 112 46 84 46 -9 0 -20 -4 -23 -10 -3 -5 -14 -10 -24
-10 -10 0 -65 -13 -122 -29 -57 -16 -121 -32 -142 -36 -36 -6 -38 -5 -27 15 6
11 8 25 5 30 -3 5 -1 11 5 15 5 3 10 -2 10 -12 1 -16 3 -16 19 4 10 12 21 20
25 18 3 -3 4 -2 1 2 -3 3 1 13 8 21 8 11 4 10 -16 -3 -15 -10 -30 -15 -34 -12
-3 4 8 14 26 24 17 10 31 22 31 26 0 5 6 14 13 21 6 7 22 27 35 43 13 17 36
33 51 36 17 4 37 20 52 41 13 20 30 36 37 36 7 0 11 4 8 9 -3 5 -21 5 -41 1
-47 -11 -47 11 0 33 48 23 52 22 53 -14 1 -40 8 -46 30 -26 10 10 24 17 30 17
6 0 9 6 6 13 -3 9 9 18 36 27 26 9 40 19 40 30 0 33 40 69 92 85 61 18 58 18
58 5 0 -6 -3 -9 -7 -8 -17 3 -83 -15 -83 -23 0 -14 50 -23 63 -10 17 17 34 13
39 -7 3 -12 -2 -24 -13 -31 -19 -11 -26 -41 -10 -41 14 0 63 28 71 40 4 7 -3
33 -16 58 -13 26 -24 50 -24 53 0 3 22 21 50 40 27 19 50 37 50 41 0 14 -48
20 -68 9 -19 -10 -32 -6 -32 11 0 4 7 8 16 8 9 0 41 14 70 31 30 17 68 32 86
34 36 5 69 32 53 43 -12 8 -16 74 -4 67 4 -3 9 0 11 7 3 7 12 9 23 4 14 -5 16
-9 7 -18 -15 -15 -16 -58 -2 -58 6 0 11 9 11 20 2 32 4 38 11 45 4 4 4 13 2
20 -3 7 3 15 13 18 12 3 9 5 -9 6 -15 0 -30 6 -34 13 -4 7 -3 8 4 4 13 -8 31
23 25 42 -3 6 0 12 6 12 15 0 10 20 -16 57 l-23 31 36 21 c19 12 45 21 57 21
13 0 31 6 42 14 21 14 49 22 106 31 19 3 48 10 64 15 26 7 24 8 -17 6 -56 -4
-61 7 -15 31 25 13 28 18 14 21 -16 3 -16 6 5 27 17 17 26 21 35 13 9 -7 13
-7 13 2 0 8 9 11 25 8 14 -3 25 -1 25 3 0 5 15 9 34 9 19 0 36 6 39 13 2 6 12
-5 22 -25 19 -39 35 -49 35 -22 0 8 -4 13 -9 10 -5 -3 -14 8 -20 25 -9 27 -9
30 4 19 10 -9 15 -9 15 -1 0 6 4 11 9 11 5 0 7 -9 4 -20 -3 -12 0 -20 7 -20 7
0 10 -7 6 -16 -4 -12 -2 -15 9 -11 8 4 17 2 21 -4 4 -7 10 -7 18 0 7 6 25 8
40 5 16 -3 25 -1 22 5 -7 10 43 -1 64 -14 7 -4 14 2 17 14 3 12 9 21 14 21 5
0 6 -7 3 -15 -3 -8 1 -28 10 -46 9 -17 13 -36 10 -41 -3 -5 -3 -20 0 -34 5
-19 13 -24 39 -24 18 0 42 -7 53 -15 16 -13 17 -16 4 -25 -11 -7 -20 -4 -33
13 l-18 22 3 -30 c2 -16 8 -34 14 -40 16 -15 44 -91 44 -122 l0 -27 -30 29
c-27 26 -45 24 -19 -2 13 -13 22 -213 10 -213 -4 0 -16 9 -26 20 -21 24 -35
18 -35 -16 0 -14 -6 -24 -15 -24 -17 0 -30 -41 -22 -70 3 -13 0 -20 -10 -20
-8 0 -13 -6 -11 -12 3 -7 -1 -19 -9 -26 -7 -7 -13 -28 -13 -46 0 -41 -7 -48
-33 -33 -34 19 -56 50 -47 67 4 8 2 28 -5 44 -17 40 -30 17 -30 -54 l0 -55
-31 2 c-21 2 -31 -2 -31 -12 0 -8 4 -12 9 -9 4 3 8 0 8 -5 0 -6 -4 -11 -10
-11 -5 0 -10 -9 -10 -21 0 -11 -4 -18 -9 -14 -5 3 -16 -2 -24 -10 -9 -8 -20
-15 -25 -15 -5 0 -12 -14 -14 -30 -5 -31 13 -57 31 -46 10 6 27 -12 19 -20
-14 -13 -66 21 -86 57 -26 44 -63 65 -91 49 -10 -5 -21 -6 -25 -3 -3 3 -6 -1
-6 -10 0 -8 15 -28 33 -42 l32 -27 -40 6 c-22 3 -49 6 -60 6 -19 1 -19 1 -2
14 37 28 12 62 -53 70 -30 3 -41 -7 -17 -18 6 -3 3 -4 -9 -3 -11 1 -20 -2 -20
-8 1 -5 7 -8 15 -7 7 2 10 -1 7 -7 -4 -5 2 -14 11 -20 15 -9 13 -10 -14 -11
-20 0 -41 8 -53 20 -16 16 -20 17 -20 4 0 -8 -5 -12 -10 -9 -6 4 -17 1 -25 -5
-11 -9 -15 -9 -15 -1 0 6 5 11 12 11 9 0 9 3 0 12 -10 10 -15 10 -22 -2 -5 -8
-10 -10 -10 -4 0 9 -11 9 -41 1 -36 -9 -40 -12 -25 -22 17 -13 22 -65 6 -65
-6 0 -20 -11 -32 -25 -12 -14 -28 -25 -36 -25 -12 0 -12 -3 -2 -15 10 -12 9
-15 -4 -15 -13 0 -16 -5 -11 -20 5 -16 2 -20 -18 -20 -13 0 -32 9 -42 20 -22
24 -60 28 -51 5 4 -12 -3 -15 -32 -15 -60 0 -142 -12 -142 -21 0 -4 41 -7 90
-5 74 3 90 1 90 -11 0 -12 7 -13 28 -8 15 4 34 8 42 9 8 1 28 8 43 14 36 15
37 15 37 -2 0 -12 22 -24 55 -31 6 -1 23 -7 40 -14 27 -11 32 -10 52 13 26 31
37 33 28 7 -6 -21 26 -36 42 -20 11 11 43 1 43 -12 0 -5 6 -9 14 -9 8 0 16 -7
19 -14 4 -10 1 -13 -9 -9 -7 3 -14 0 -14 -6 0 -6 7 -11 16 -11 8 0 12 -4 9
-10 -3 -5 -17 -10 -31 -10 -17 0 -24 -5 -24 -19 0 -35 17 -32 70 12 103 83
126 107 110 117 -8 6 -20 8 -25 6 -6 -2 -20 3 -30 11 -14 11 -16 17 -7 20 7 3
18 11 26 18 16 16 26 10 26 -16 0 -36 48 -30 73 9 4 6 13 12 19 12 6 0 16 8
23 17 10 14 12 10 10 -25 -1 -23 2 -42 6 -42 5 0 9 -10 9 -22 0 -21 0 -21 27
3 l27 24 -15 -25 c-9 -14 -26 -29 -38 -35 -11 -5 -23 -17 -26 -26 -3 -8 -22
-31 -42 -50 -38 -36 -36 -27 6 31 l25 35 -30 -28 c-17 -15 -33 -24 -37 -20 -4
3 -7 1 -7 -6 0 -7 -8 -11 -17 -10 -10 1 -27 1 -38 0 -17 -1 -18 -3 -5 -11 12
-8 10 -10 -10 -10 -14 0 -30 -4 -36 -8 -14 -8 -16 -62 -3 -62 5 0 9 -4 9 -10
0 -5 -7 -10 -15 -10 -8 0 -19 -9 -25 -21 -6 -11 -21 -24 -33 -30 -18 -7 -13
-9 23 -7 56 3 105 -9 121 -28 6 -8 19 -14 28 -14 14 0 14 2 1 10 -13 9 -13 10
0 10 17 0 40 -19 40 -33 0 -4 -10 -6 -22 -2 -21 5 -21 5 2 -9 14 -9 35 -15 48
-16 25 0 55 -23 45 -34 -4 -3 -1 -6 5 -6 23 0 12 -18 -15 -25 -26 -7 -23 -9
32 -25 36 -10 54 -19 45 -23 -12 -4 -9 -11 15 -32 17 -14 40 -28 52 -31 12 -3
24 -12 27 -19 2 -7 27 -18 55 -24 28 -6 76 -19 106 -30 61 -22 75 -18 20 5
-19 8 -35 18 -35 23 0 5 -11 12 -24 15 -14 3 -27 15 -31 25 -3 10 -15 21 -26
24 -12 3 -18 10 -14 16 3 6 2 11 -4 11 -5 0 -13 9 -16 20 -3 11 -14 20 -24 20
-26 0 -111 98 -104 118 4 10 3 14 -2 10 -4 -4 -14 -3 -22 3 -10 9 -10 15 -2
25 9 11 7 14 -10 14 -30 0 -27 32 4 47 14 6 23 7 19 2 -3 -5 1 -9 9 -9 18 0
29 24 20 47 -5 12 -3 14 7 8 9 -5 11 -4 6 3 -8 13 10 53 22 50 4 -1 18 4 32
12 l25 14 -35 6 -35 5 38 22 c21 13 45 36 55 52 11 20 27 32 49 36 39 7 43 20
8 29 -30 8 -32 21 -5 36 10 6 38 50 62 98 24 48 51 96 61 107 12 13 16 28 12
47 -5 21 -1 30 19 43 22 15 52 72 42 83 -3 2 2 22 10 44 8 23 14 78 15 124 0
46 5 84 10 84 5 0 9 7 9 15 0 8 -4 15 -9 15 -12 0 -21 39 -11 45 5 3 10 -1 13
-7 2 -7 5 -2 5 12 0 14 3 48 7 75 5 37 4 46 -4 35 -9 -13 -11 -12 -11 5 0 23
13 46 26 48 5 1 8 9 7 17 -13 108 -26 179 -38 203 -18 35 -20 56 -5 41 6 -6
21 -52 33 -102 25 -96 37 -123 37 -80 0 43 -20 133 -30 136 -6 2 -10 15 -10
28 0 28 -31 93 -69 144 -102 138 -197 218 -384 321 -64 35 -117 68 -117 73 0
4 8 5 18 1 70 -29 68 -29 123 -2 l53 26 66 -63 c72 -69 144 -118 260 -176 84
-43 216 -90 252 -90 23 0 87 -30 180 -84 100 -58 276 -45 413 29 44 24 123 60
175 80 114 45 258 116 320 158 74 50 232 178 277 224 38 39 47 43 90 43 34 0
53 6 69 21 23 21 24 21 88 5 36 -9 69 -16 75 -16 5 0 11 29 13 65 2 50 0 62
-8 50 -14 -18 -22 -19 -38 -2 -13 13 -16 20 -16 38 0 5 -5 7 -11 4 -5 -4 -21
5 -35 20 -25 28 -25 59 2 99 7 10 10 24 7 31 -6 16 63 29 123 23 36 -4 39 -7
42 -36 4 -39 11 -40 46 -6 14 15 26 22 26 15 0 -6 9 -11 20 -11 11 0 19 3 18
8 -4 15 33 72 59 89 51 33 65 111 40 210 -13 49 -12 53 7 74 12 12 15 19 9 15
-7 -4 -13 -2 -13 3 0 6 5 11 11 11 6 0 8 8 4 19 -6 20 18 46 35 36 5 -3 10 -1
10 4 0 6 7 11 15 11 8 0 19 10 26 22 10 18 9 20 -4 15 -11 -4 -14 -2 -10 9 3
7 9 14 15 14 5 0 16 7 24 15 8 8 22 12 32 9 10 -4 13 -3 6 3 -6 4 -13 16 -17
26 -5 14 -1 17 26 17 27 1 29 2 14 11 -9 6 -15 15 -12 20 4 5 11 7 16 4 5 -4
9 -1 9 5 0 6 4 9 9 5 5 -3 12 4 16 15 5 17 10 18 26 9 22 -11 54 -5 45 9 -3 5
-1 22 4 38 4 16 9 21 9 12 1 -20 16 -24 26 -8 3 6 1 10 -6 10 -7 0 -5 6 6 13
13 10 15 16 6 21 -6 4 -9 12 -5 17 8 14 34 -9 34 -30 0 -10 5 -7 13 9 14 25
12 54 -3 45 -5 -3 -3 6 3 19 10 22 13 22 25 7 12 -14 13 -14 9 0 -6 19 29 53
38 38 4 -5 16 -7 28 -3 21 6 21 5 4 -8 -18 -13 -17 -14 7 -14 28 0 116 80 102
93 -4 4 -10 2 -14 -4 -12 -20 -62 -4 -62 20 0 6 7 2 15 -9 11 -15 14 -16 15
-3 0 8 -4 19 -9 25 -6 5 -5 16 4 27 9 13 15 15 20 6 4 -6 1 -15 -6 -20 -7 -4
-10 -11 -7 -15 4 -3 14 1 24 10 12 13 13 20 4 31 -6 8 -8 19 -4 26 5 8 11 4
21 -12 9 -16 12 -17 8 -5 -4 15 -3 17 9 7 18 -15 28 8 19 51 -6 30 -5 31 23
24 16 -4 34 -7 41 -8 8 -1 9 -7 3 -19 -9 -15 -6 -16 28 -8 20 5 81 9 136 9
194 0 290 44 451 205 110 110 277 301 347 398 48 66 65 116 49 146 -7 12 -9
26 -6 32 4 5 9 29 11 52 3 23 7 47 9 54 7 20 -19 22 -40 3 -36 -31 -72 -33
-100 -6 -14 14 -25 31 -25 38 0 14 -64 63 -115 88 -43 22 -56 58 -61 170 -4
119 -14 148 -55 163 -23 9 -39 27 -60 70 -16 31 -31 57 -33 57 -3 0 6 -27 19
-59 13 -33 21 -62 18 -64 -2 -3 4 -8 15 -11 10 -4 27 -24 37 -46 36 -81 -7
-330 -55 -315 -9 3 -24 3 -33 -1 -15 -5 -15 -8 -2 -21 8 -8 19 -11 25 -8 6 4
10 -6 10 -24 0 -35 -17 -51 -22 -19 -2 12 -9 23 -17 26 -8 3 -11 0 -7 -6 4 -6
4 -23 0 -37 -5 -21 -12 -26 -33 -23 -23 3 -26 -1 -29 -30 -3 -27 -7 -32 -20
-26 -9 3 -25 6 -35 6 -11 -1 -17 5 -15 15 2 9 -3 18 -9 20 -7 3 -13 0 -13 -6
0 -6 -3 -11 -7 -11 -13 0 -13 58 0 63 7 3 14 18 15 34 2 27 0 30 -29 28 -17
-1 -33 3 -35 10 -3 7 -15 10 -28 8 -13 -3 -27 0 -31 7 -9 15 -7 16 33 25 28 6
34 4 39 -13 5 -21 33 -39 33 -22 0 21 -45 60 -69 60 -21 0 -23 2 -11 10 12 8
10 10 -8 10 -13 0 -20 4 -17 10 3 6 -2 10 -12 11 -12 0 -9 4 10 11 36 13 34
25 -5 42 -18 8 -27 15 -20 15 20 2 14 17 -12 29 -23 10 -25 9 -24 -20 1 -22 7
-32 21 -36 15 -4 11 -8 -19 -19 -61 -21 -97 -24 -90 -7 4 10 -3 14 -24 14 -35
0 -38 10 -10 28 17 10 18 15 8 26 -8 9 -15 10 -19 4 -4 -6 -12 -9 -17 -7 -13
5 54 109 71 110 7 1 1 4 -13 8 -15 4 -43 2 -68 -7 -53 -17 -64 -10 -23 14 36
22 40 36 9 32 -32 -5 -48 -16 -57 -41 -7 -18 -9 -17 -30 16 -31 50 -84 94
-128 106 -44 13 -103 14 -103 4 0 -5 -27 -21 -61 -38 -33 -16 -77 -43 -97 -60
-20 -18 -55 -40 -77 -50 -22 -10 -51 -27 -64 -37 -13 -10 -30 -18 -38 -18 -24
0 -74 60 -108 130 -17 36 -41 80 -52 99 -12 18 -19 40 -16 47 3 8 0 14 -6 14
-24 0 -9 -70 35 -161 25 -52 61 -131 80 -176 29 -71 32 -85 23 -113 -16 -45
-4 -122 27 -180 15 -28 30 -50 33 -50 3 0 12 -4 20 -9 11 -7 7 -20 -23 -65
-20 -31 -41 -56 -46 -56 -21 0 -158 29 -185 40 -16 6 -33 17 -37 23 -19 30 -8
201 22 334 17 73 30 145 30 159 0 33 -28 80 -55 92 -17 8 -28 38 -59 153 -21
79 -49 161 -63 182 -20 32 -28 37 -61 37 -25 0 -54 -10 -85 -30 -26 -16 -51
-30 -54 -30 -14 0 -133 -151 -157 -198 -10 -18 -30 -45 -47 -60 -29 -27 -38
-58 -54 -185 -4 -26 -10 -45 -15 -42 -9 5 -7 -71 2 -80 3 -3 38 -15 79 -26 91
-25 245 -104 322 -164 32 -25 78 -74 103 -107 41 -56 43 -63 27 -69 -28 -10
-70 -102 -98 -213 -34 -134 -41 -201 -24 -222 12 -14 14 -14 26 2 7 10 13 25
13 34 0 10 11 37 23 61 13 24 27 65 30 92 4 26 16 66 27 89 11 23 20 52 20 64
0 44 18 33 24 -14 17 -133 18 -239 2 -312 -18 -85 -63 -185 -100 -219 -21 -20
-27 -21 -47 -9 -13 7 -27 17 -30 22 -4 5 -14 6 -24 3 -9 -4 -14 -3 -10 3 3 6
-2 10 -11 10 -10 0 -14 -3 -11 -7 4 -3 -1 -12 -11 -20 -11 -9 -11 -12 -2 -7
12 5 12 4 3 -6 -6 -6 -28 -13 -50 -14 -26 -1 -44 -8 -56 -23 -10 -12 -24 -20
-31 -17 -8 3 -22 -5 -32 -18 -25 -32 -46 -39 -129 -44 -92 -5 -135 -13 -135
-24 0 -4 -19 -11 -42 -15 -24 -4 -49 -12 -55 -17 -7 -6 -22 -8 -33 -5 -10 3
-24 -1 -31 -9 -6 -8 -8 -14 -3 -14 5 -1 -7 -8 -26 -16 -33 -14 -36 -14 -52 7
-10 11 -18 30 -18 40 0 10 -6 19 -14 19 -8 0 -16 6 -19 13 -3 8 -12 5 -30 -11
-13 -13 -32 -22 -40 -20 -9 2 -23 -6 -31 -17 -14 -18 -15 -18 -16 -2 0 21 -7
22 -26 2 -17 -16 -34 -20 -34 -7 0 5 -22 6 -50 2 -27 -3 -53 -3 -57 1 -5 4
-28 4 -53 -1 -32 -6 -52 -4 -72 6 -15 8 -43 14 -63 14 -19 0 -35 5 -35 10 0 6
-7 10 -15 10 -8 0 -15 -4 -15 -10 0 -16 -27 -12 -34 5 -3 9 -18 15 -37 15 -17
0 -43 8 -57 19 -15 10 -43 18 -64 18 -20 0 -43 7 -52 16 -14 13 -21 14 -41 5
-20 -9 -33 -8 -65 7 -22 10 -37 21 -35 25 6 10 -19 20 -48 20 -12 0 -34 11
-49 25 -15 14 -29 25 -32 25 -8 0 -79 49 -101 70 -11 10 -31 29 -45 42 -14 13
-43 46 -65 73 -38 47 -125 141 -222 239 -24 24 -43 48 -43 55 0 6 -4 11 -10
11 -5 0 -10 7 -10 15 0 8 -6 15 -14 15 -8 0 -28 16 -45 35 -17 20 -31 33 -31
30 0 -2 -9 3 -21 13 -30 26 -55 84 -58 140 -1 6 -8 12 -16 12 -8 0 -15 5 -15
10 0 15 -85 50 -120 50 -16 0 -32 5 -36 11 -3 6 -17 9 -31 6 -15 -3 -27 1 -30
10 -3 7 -13 13 -22 12 -9 -1 -24 2 -35 6 -11 5 -21 4 -25 -3 -5 -8 -17 -9 -45
-1 -44 12 -96 3 -96 -17 0 -7 -11 -16 -25 -20 -14 -3 -22 -10 -19 -15 3 -5 10
-7 15 -4 5 4 9 2 9 -2 0 -5 -16 -15 -35 -22 -45 -16 -47 -36 -2 -27 28 5 30 4
15 -8 -10 -7 -19 -24 -20 -37 -2 -19 1 -23 17 -21 15 3 17 1 8 -8 -8 -9 -9
-19 0 -37 7 -17 13 -20 18 -11 5 7 8 -14 7 -47 -1 -81 0 -87 13 -79 7 4 7 -1
-1 -16 -10 -18 -9 -26 7 -43 25 -29 28 -70 8 -91 -15 -15 -15 -17 0 -32 9 -10
13 -24 10 -33 -14 -35 -15 -65 -3 -73 9 -7 9 -11 2 -14 -6 -3 -9 -16 -6 -30 4
-20 0 -26 -17 -31 -13 -3 -20 -11 -17 -19 3 -8 0 -11 -10 -7 -7 3 -20 3 -28 0
-20 -8 -9 -44 15 -50 22 -6 26 -27 4 -27 -8 0 -15 -4 -15 -10 0 -5 12 -10 26
-10 32 0 55 -21 43 -41 -5 -11 -2 -20 11 -29 14 -10 16 -18 9 -32 -8 -14 -6
-18 8 -18 15 0 16 -2 3 -10 -13 -9 -13 -12 3 -24 16 -13 16 -14 -8 -20 -31 -8
-34 -41 -5 -56 15 -8 20 -8 20 2 0 6 9 2 20 -10 12 -12 31 -22 44 -22 12 0 26
-3 30 -7 10 -11 97 -13 115 -3 16 9 54 -13 100 -57 14 -13 62 -46 107 -73 87
-53 139 -67 234 -64 34 1 64 -3 77 -12 26 -17 159 -37 197 -30 24 4 45 -7 29
-17 -10 -5 12 1 32 9 9 4 15 1 15 -8 0 -8 6 -15 13 -16 36 -3 53 -8 59 -16 3
-5 17 -10 30 -12 12 -1 25 -3 28 -3 3 -1 -2 -6 -10 -11 -12 -8 -11 -10 7 -10
12 0 25 -4 28 -10 3 -5 14 -10 25 -10 10 0 20 -7 24 -15 3 -8 13 -15 23 -15
10 0 31 -9 47 -19 22 -15 29 -27 30 -57 2 -42 26 -104 40 -104 4 0 6 6 3 14
-3 8 1 17 10 20 13 5 15 0 10 -34 -3 -22 -1 -43 5 -46 6 -4 5 -10 -3 -15 -7
-4 -10 -11 -6 -15 18 -18 29 35 30 138 1 63 10 65 55 14 12 -15 28 -24 34 -20
6 4 8 3 5 -3 -4 -6 9 -21 28 -34 42 -29 61 -69 46 -95 -5 -11 -13 -36 -16 -56
-6 -40 -13 -46 -33 -26 -7 7 -12 10 -13 8 0 -3 -2 -13 -4 -22 -2 -12 2 -15 13
-10 15 5 15 3 4 -11 -12 -14 -11 -17 11 -22 14 -4 28 -13 31 -22 3 -8 9 -12
14 -9 17 10 29 -10 25 -41 -4 -25 -15 -38 -48 -57 -40 -24 -115 -34 -115 -15
0 4 -3 15 -6 24 -4 9 -3 15 2 13 5 -2 20 5 34 15 21 14 22 17 6 17 -18 0 -17
1 2 19 12 10 22 27 21 37 0 17 -2 17 -16 -4 -18 -26 -36 -28 -58 -6 -18 18
-50 11 -39 -8 5 -10 4 -10 -6 -1 -10 9 -9 16 4 34 9 13 16 19 16 14 0 -6 5 -2
11 8 6 10 8 22 4 25 -4 4 -10 2 -12 -5 -2 -7 -11 -9 -19 -6 -8 3 -14 -1 -14
-8 0 -7 -3 -9 -7 -6 -3 4 -12 2 -19 -4 -10 -8 -18 -7 -30 5 -9 10 -19 14 -22
11 -4 -3 0 -10 8 -15 12 -8 12 -10 -3 -10 -11 0 -21 -9 -24 -20 -6 -23 -19
-26 -27 -7 -4 8 -10 5 -22 -11 -19 -26 -31 -28 -31 -7 0 8 4 15 9 15 4 0 8 8
7 18 0 10 -3 12 -6 5 -2 -7 -22 -23 -44 -35 -21 -12 -39 -26 -39 -31 0 -5 -7
-7 -15 -3 -8 3 -15 0 -15 -6 0 -7 -6 -4 -13 6 -13 17 -15 16 -27 -14 -13 -32
-14 -32 -22 -10 l-9 24 -22 -32 c-12 -17 -28 -32 -34 -32 -7 0 -13 -8 -13 -19
0 -10 -12 -27 -27 -37 -23 -16 -46 -19 -133 -18 -148 1 -332 48 -303 78 4 3 1
7 -5 7 -7 1 -16 3 -22 4 -5 1 -16 3 -24 4 -8 0 -13 9 -12 18 1 13 -7 18 -29
18 -16 0 -38 7 -47 15 -10 8 -27 23 -38 33 -11 9 -26 17 -34 17 -7 0 -19 7
-27 16 -7 8 -26 22 -43 31 -46 24 -117 84 -110 94 3 5 -1 9 -8 9 -11 0 -98 82
-98 93 0 2 -31 37 -70 78 -38 41 -70 80 -70 87 0 6 -5 12 -12 12 -6 0 -9 3 -6
6 4 3 -5 30 -19 60 -13 29 -22 58 -19 63 4 5 2 11 -4 13 -5 1 -13 26 -16 53
-4 28 -12 53 -17 57 -6 3 -11 29 -11 57 -1 28 -5 51 -9 51 -5 0 -5 9 -2 20 4
12 3 26 -3 33 -5 7 -21 44 -37 82 -15 39 -38 93 -51 120 -12 28 -26 68 -29 90
-4 22 -14 48 -23 59 -11 12 -16 33 -15 62 1 24 -3 44 -8 44 -5 0 -9 6 -9 14 0
8 -6 16 -12 18 -10 4 -14 51 -18 175 l-5 170 -33 54 c-19 29 -36 68 -39 86 -3
18 -11 38 -19 44 -7 6 -10 17 -8 24 3 8 -1 24 -10 37 -9 12 -16 30 -16 40 0
10 -4 18 -8 18 -5 0 -9 6 -9 13 0 6 -4 30 -8 52 -4 22 -8 49 -10 60 -1 12 -10
42 -19 68 -25 75 -8 275 33 381 30 79 76 156 92 156 5 0 9 9 9 19 0 34 130
142 236 196 99 50 99 50 211 54 215 6 412 -69 611 -234 95 -78 318 -328 351
-393 38 -75 101 -110 253 -143 170 -36 269 -78 408 -173 87 -59 184 -95 255
-96 32 0 84 12 147 35 147 52 299 79 447 78 101 0 121 2 108 12 -25 18 -59
103 -59 147 1 60 10 78 81 154 36 39 84 103 105 142 48 88 69 111 107 119 26
5 43 33 19 33 -5 0 -10 4 -10 9 0 5 -5 22 -11 38 -10 24 -16 51 -20 88 -3 32
11 108 22 121 11 14 10 18 -6 30 -11 8 -25 12 -32 10 -7 -3 -13 -1 -13 4 0 6
5 10 10 10 6 0 10 5 10 10 0 6 -8 10 -17 8 -10 -2 -18 2 -18 7 -1 25 -61 164
-86 201 -30 44 -99 104 -119 104 -7 0 -10 7 -6 16 3 9 6 19 6 22 0 4 4 0 10
-8 6 -10 9 -6 8 16 -1 16 4 45 10 64 31 100 33 127 17 283 -5 45 -13 77 -19
77 -6 0 -12 12 -13 28 -8 105 -24 235 -34 281 -9 41 -9 58 -1 72 7 10 12 29
12 41 0 18 -2 20 -9 9 -5 -8 -7 -20 -4 -28 3 -7 0 -13 -6 -13 -6 0 -11 10 -12
23 -1 15 -4 11 -10 -13 -10 -40 -1 -123 12 -115 10 7 0 -124 -12 -145 -5 -9
-9 9 -10 50 l-1 65 -9 -49 c-4 -28 -6 -53 -3 -57 2 -4 0 -10 -6 -14 -13 -8
-13 36 0 107 8 42 7 79 -5 156 -16 111 -18 138 -6 107 7 -17 9 -15 16 14 l7
34 14 -31 c7 -18 18 -32 25 -32 8 0 9 32 3 128 -9 143 -8 202 6 283 6 31 8 64
4 72 -5 15 -8 15 -30 0 -27 -18 -32 -8 -8 18 9 10 14 23 12 29 -3 11 -62 -68
-88 -118 -6 -13 -14 -21 -17 -18 -3 3 11 35 31 72 44 79 41 98 -4 25 -18 -28
-41 -56 -52 -62 -19 -10 -20 -8 -16 30 5 53 -12 48 -34 -10 l-17 -44 1 45 c0
25 9 81 19 125 10 44 20 110 22 146 2 37 7 72 12 78 12 20 17 71 6 71 -5 0
-29 -26 -53 -57 -24 -32 -75 -82 -113 -111 -103 -79 -212 -179 -255 -233 -37
-47 -37 -47 -48 -23 -7 14 -17 21 -25 18 -9 -3 -28 13 -50 43 -19 26 -64 75
-99 108 -47 46 -74 82 -106 148 -24 48 -48 89 -53 93 -5 3 -9 18 -9 35 0 16
-4 29 -8 29 -5 0 -15 11 -22 25 -15 29 -30 33 -30 8 0 -15 -2 -15 -12 -2 -7 8
-22 22 -33 29 -19 15 -19 14 -2 -12 31 -50 18 -48 -30 4 -27 28 -47 55 -46 59
2 5 -2 9 -7 9 -19 0 -90 88 -90 111 0 6 -7 9 -15 5 -10 -4 -15 1 -16 17 -2 22
-12 -39 -25 -146 -5 -43 -10 -57 -20 -53 -11 4 -14 -17 -15 -112 -1 -64 -4
-130 -8 -147 -7 -29 -9 -26 -56 65 -27 52 -65 130 -83 173 -19 42 -38 77 -43
77 -5 0 -10 -55 -11 -122 0 -68 -2 -127 -3 -133 -2 -5 -3 -14 -4 -20 -1 -13
-55 47 -98 109 -45 67 -48 69 -29 21 10 -22 18 -52 20 -68 2 -17 21 -45 50
-73 52 -52 63 -73 14 -28 -18 16 -44 38 -57 49 l-24 20 7 -25 c6 -19 5 -21 -3
-10 -14 20 -14 70 1 70 7 0 6 6 -4 18 -26 32 -74 162 -58 162 4 0 -3 21 -16
48 -13 26 -24 55 -24 65 0 9 -4 17 -8 17 -4 0 -8 9 -9 19 -3 32 -63 196 -73
199 -6 2 -8 8 -4 13 6 11 -26 12 -42 1 -9 -6 -78 -133 -200 -369 -23 -45 -45
-79 -47 -76 -3 3 -3 -4 0 -16 6 -25 -12 -28 -26 -3 -16 27 -13 4 4 -28 8 -16
11 -31 6 -34 -13 -9 -107 188 -124 259 -8 33 -18 74 -23 90 l-7 30 -7 -30 c-8
-30 -8 -29 -9 8 -1 26 -6 37 -16 37 -10 0 -15 11 -15 35 0 19 -4 35 -9 35 -5
0 -11 21 -15 48 -3 26 -12 74 -19 106 -14 65 -37 88 -37 38z m-4403 -371 c54
-27 72 -55 80 -122 4 -37 16 -70 38 -104 86 -133 111 -219 96 -330 -12 -82
-30 -124 -97 -226 -45 -69 -177 -202 -232 -235 -42 -25 -45 -51 -3 -29 19 9
32 11 36 5 3 -6 17 -10 31 -10 14 0 23 -4 19 -9 -9 -16 13 -22 26 -8 18 19 68
8 86 -19 8 -13 22 -24 31 -24 24 0 62 -41 62 -67 0 -13 -5 -23 -10 -23 -6 0
-8 -12 -6 -26 4 -19 1 -24 -9 -20 -8 3 -14 2 -13 -2 4 -17 -26 -61 -46 -67
-13 -4 -16 -8 -8 -12 6 -2 10 -9 6 -14 -3 -5 0 -9 7 -9 7 0 9 -3 6 -6 -4 -4
-13 -1 -21 5 -12 10 -16 8 -21 -8 -3 -12 -11 -21 -17 -21 -5 0 -7 -7 -4 -16 5
-13 2 -15 -14 -11 -11 3 -20 1 -20 -5 0 -5 -9 -6 -20 -3 -13 4 -22 1 -26 -8
-3 -9 -20 -21 -37 -28 -18 -7 -36 -19 -40 -26 -5 -7 -12 -11 -17 -8 -5 3 -19
-4 -30 -15 -14 -14 -28 -18 -45 -14 -19 5 -25 2 -25 -10 0 -9 7 -19 16 -23 8
-3 13 -12 10 -19 -3 -8 0 -11 10 -7 7 3 14 17 14 32 0 16 3 21 8 14 9 -15 52
-5 52 11 0 8 11 11 30 8 17 -2 36 0 43 6 13 10 48 19 107 26 37 5 100 33 111
49 4 6 15 6 25 2 11 -4 27 -7 37 -6 25 3 21 -26 -5 -32 -12 -4 -19 -9 -16 -12
10 -10 48 14 48 30 0 8 7 15 15 15 8 0 24 6 35 12 22 14 52 3 56 -20 1 -7 0
-8 -3 -2 -6 13 -33 13 -33 0 0 -5 6 -10 13 -11 34 -2 61 -11 84 -29 13 -10 31
-16 39 -13 10 4 12 0 8 -12 -5 -11 -10 -13 -17 -6 -17 17 -55 13 -65 -6 -11
-22 -5 -43 13 -43 7 0 25 -7 41 -15 25 -13 29 -13 37 0 4 8 15 15 22 15 8 0
15 4 15 9 0 5 11 4 24 -2 l25 -12 -22 -8 -22 -8 25 -19 c20 -16 22 -20 7 -20
-16 0 -16 -2 -1 -24 19 -30 45 -37 62 -16 11 13 12 12 4 -5 -13 -29 0 -71 21
-67 10 2 17 -4 17 -13 0 -17 11 -20 25 -7 6 5 18 0 29 -11 19 -20 19 -20 -2
-15 -12 4 -22 4 -22 2 0 -5 29 -16 70 -29 20 -6 23 -5 13 6 -31 31 -4 32 45 1
27 -17 14 -31 -28 -32 l-25 -1 25 -11 c14 -6 28 -11 32 -10 3 1 12 -5 18 -13
9 -11 9 -15 1 -15 -17 0 -13 -56 5 -71 9 -7 32 -12 51 -11 45 3 99 -14 126
-41 19 -19 19 -20 1 -13 -10 5 -48 10 -84 12 -51 2 -56 1 -25 -5 22 -4 57 -15
78 -25 41 -20 61 -42 31 -33 -11 3 -37 9 -59 12 l-40 6 52 -23 c95 -43 152
-103 136 -143 -8 -23 -26 -13 -45 26 -21 44 -56 76 -93 85 l-30 7 35 -39 c44
-48 80 -100 80 -114 0 -14 -17 -13 -23 3 -10 22 -7 -57 2 -91 6 -20 6 -32 0
-32 -5 0 -9 7 -9 15 0 8 -9 15 -21 15 -11 0 -18 4 -15 8 3 5 -6 19 -19 30 -14
12 -25 29 -25 37 0 16 -99 119 -107 111 -3 -3 9 -18 27 -33 42 -35 92 -137 81
-166 -13 -34 -29 -31 -39 6 -15 53 -81 135 -128 158 -53 25 -121 38 -110 20 5
-7 15 -10 22 -7 21 8 112 -42 131 -71 9 -14 18 -44 19 -66 2 -23 6 -60 9 -82
5 -34 1 -29 -24 33 -17 40 -31 80 -31 88 0 8 -9 14 -19 14 -11 0 -42 14 -70
31 -38 24 -65 32 -117 37 -81 6 -79 -6 6 -37 73 -27 116 -75 106 -118 -4 -16
-7 -36 -7 -45 0 -22 -24 -14 -64 22 -69 62 -174 111 -234 109 l-26 -1 25 -8
c14 -5 41 -11 61 -14 60 -10 151 -85 192 -158 19 -34 39 -79 44 -98 13 -51 1
-125 -25 -157 -13 -16 -25 -36 -29 -46 -3 -10 -12 -16 -19 -13 -8 3 -14 -1
-14 -8 0 -16 -77 -76 -97 -76 -7 0 -13 -4 -13 -9 0 -5 -13 -12 -30 -16 -16 -4
-32 -11 -35 -16 -4 -5 -20 -9 -36 -9 -17 0 -28 -4 -25 -9 13 -21 -167 -28
-269 -11 -61 10 -269 80 -273 92 -2 4 -10 8 -17 8 -19 0 -135 82 -135 95 0 19
56 99 96 136 22 20 70 61 107 92 40 34 61 57 51 57 -14 0 -13 3 6 20 13 11 29
20 36 20 7 0 15 4 18 9 7 11 -52 -2 -82 -18 -18 -10 -27 -10 -38 -1 -11 10
-15 9 -20 -3 -3 -9 -11 -14 -18 -11 -7 3 -25 0 -39 -5 -15 -6 -27 -7 -27 -2 0
5 -14 11 -31 13 l-31 5 23 -18 24 -19 -32 0 c-27 0 -31 3 -26 18 7 16 6 16
-11 -1 -10 -9 -21 -15 -26 -12 -11 7 -21 -22 -13 -42 5 -15 3 -14 -10 2 l-16
20 -1 -20 c-1 -20 -1 -20 -11 0 -6 12 -28 28 -50 38 -21 9 -39 21 -39 27 0 5
-9 10 -19 10 -11 0 -22 6 -24 13 -4 8 -6 6 -6 -4 -1 -9 8 -28 19 -42 14 -17
17 -28 10 -32 -11 -7 -41 25 -35 35 2 3 -6 7 -17 7 -23 2 -58 31 -58 47 0 6 6
4 13 -5 13 -16 47 -33 47 -22 0 3 -11 16 -25 29 -32 30 -32 41 0 20 27 -18 32
-11 12 15 -12 15 -39 29 -65 35 -24 5 -26 14 -4 14 12 0 22 5 22 12 0 6 -3 9
-6 5 -3 -3 -16 4 -29 15 -17 15 -22 28 -19 51 3 18 5 40 6 49 1 9 6 14 10 12
4 -3 8 2 8 11 0 12 5 15 16 11 22 -8 40 4 23 15 -9 6 -10 12 -4 17 6 4 11 18
13 32 1 14 7 27 12 28 6 2 10 14 10 27 0 14 9 29 19 35 11 5 22 24 26 41 4 17
14 39 24 49 33 38 41 50 41 64 0 8 9 18 20 21 11 4 18 10 16 14 -3 4 4 14 15
21 10 8 19 20 19 28 0 17 49 62 67 62 8 0 12 3 10 8 -2 4 2 21 10 37 9 18 12
22 10 9 -4 -17 -1 -20 15 -16 13 3 18 11 15 23 -3 11 -1 19 4 19 5 0 8 3 7 8
0 4 2 15 7 25 5 13 2 24 -11 35 -17 16 -17 16 -5 0 8 -10 11 -18 7 -19 -23 -4
-54 0 -75 8 -20 8 -21 11 -8 16 10 4 17 2 17 -3 0 -6 5 -10 10 -10 6 0 10 7
10 15 0 8 -4 15 -10 15 -5 0 -10 12 -10 26 0 14 4 23 9 19 6 -3 14 3 20 12 9
16 11 15 20 -9 11 -30 35 -40 24 -10 -10 28 -34 51 -48 46 -7 -3 -16 -1 -20 5
-3 6 2 11 12 12 10 0 13 3 6 6 -7 2 -13 11 -13 19 0 8 -5 14 -11 14 -5 0 -7 5
-4 10 4 6 11 7 17 4 6 -4 4 3 -5 16 -11 17 -13 27 -6 36 7 8 7 14 -1 19 -5 3
-10 11 -10 16 0 6 5 7 10 4 6 -3 10 4 11 17 0 22 1 22 9 3 l9 -20 1 20 c2 11
2 23 1 28 0 4 4 7 9 7 6 0 10 5 10 10 0 6 -6 10 -12 9 -54 -7 -65 16 -15 30
17 5 26 10 19 10 -7 1 -11 5 -7 11 3 5 12 7 19 4 26 -10 28 28 2 55 -13 14
-34 46 -47 71 -13 25 -33 59 -46 76 -13 17 -23 38 -23 47 0 9 -5 19 -10 22 -6
4 -8 10 -5 15 8 13 -20 64 -67 123 -21 28 -46 63 -54 80 -16 29 -12 63 5 53
13 -9 21 54 20 164 -1 84 3 107 34 197 46 133 70 164 164 212 62 31 109 41
188 37 47 -2 84 -10 112 -25z m1741 -901 c10 -17 10 -20 -4 -20 -8 0 -13 -4
-10 -8 2 -4 1 -14 -4 -22 -7 -12 -11 -12 -27 1 -17 13 -17 13 -4 -4 12 -16 11
-20 -7 -37 -13 -12 -28 -17 -38 -13 -11 4 -15 2 -11 -4 4 -6 0 -13 -8 -17 -8
-3 -15 -1 -15 5 0 6 -4 8 -10 4 -5 -3 -6 -13 -3 -22 5 -12 2 -15 -10 -10 -9 4
-24 10 -34 14 -13 5 -15 2 -11 -15 3 -12 3 -20 -1 -19 -3 1 -32 -7 -63 -18
-49 -16 -60 -17 -70 -6 -10 11 -10 12 0 7 11 -7 17 12 13 37 -1 5 3 6 9 2 5
-3 24 3 40 15 19 14 37 19 50 15 15 -5 23 0 30 17 11 23 11 23 6 1 -2 -13 -1
-23 3 -23 11 0 32 40 26 50 -4 6 -2 10 3 10 15 0 52 37 44 44 -4 4 0 6 8 4 8
-1 19 -7 23 -13 5 -6 6 0 4 13 -5 20 -2 23 14 19 10 -3 19 -1 19 4 0 17 25 9
38 -11z m1358 -96 c27 -4 61 -7 77 -6 15 1 27 -3 27 -8 0 -5 13 -5 31 0 24 7
34 5 50 -11 11 -11 17 -25 12 -32 -4 -7 -6 -22 -5 -34 4 -24 -30 -36 -108 -38
-25 0 -52 -5 -60 -10 -8 -5 -26 -10 -40 -11 -22 -2 -92 -14 -167 -28 -21 -4
-28 4 -24 27 0 4 -6 7 -15 7 -8 0 -13 4 -10 9 4 5 2 11 -2 13 -13 5 -23 68
-12 68 6 0 10 7 10 15 0 8 7 15 16 15 8 0 12 5 9 10 -3 6 0 10 8 10 8 0 18 7
21 16 3 8 10 12 16 9 5 -3 17 -2 27 3 11 7 29 5 53 -3 20 -7 59 -16 86 -21z
m-2096 -836 c0 32 90 -94 191 -268 51 -87 114 -257 138 -372 11 -51 29 -120
40 -152 12 -33 21 -65 21 -72 0 -10 -96 -74 -113 -74 -2 0 5 27 16 60 19 54
19 61 5 72 -8 7 -21 45 -27 86 -7 39 -21 90 -32 112 -10 21 -19 46 -19 55 0
25 -49 162 -76 214 -14 25 -37 57 -52 69 -24 21 -24 22 -4 12 39 -19 24 20
-18 48 -25 17 -28 22 -12 17 22 -6 22 -5 10 14 -7 12 -16 21 -20 21 -5 0 -8 7
-8 15 0 8 -4 15 -9 15 -4 0 -6 11 -3 25 2 15 0 25 -7 25 -6 0 -11 11 -11 24 0
14 -11 33 -25 44 -14 11 -25 23 -25 27 0 5 9 0 20 -10 11 -10 20 -13 20 -7z
m-1928 -118 c48 -27 92 -50 98 -50 5 0 10 14 10 31 0 18 4 28 10 24 6 -4 8
-11 5 -16 -4 -5 -2 -9 4 -9 11 0 31 -56 36 -103 2 -17 6 -44 8 -59 2 -15 1
-25 -4 -23 -4 3 -7 -22 -6 -55 1 -37 -2 -59 -8 -56 -6 2 -10 -17 -11 -46 0
-34 3 -47 11 -44 8 3 13 -5 13 -22 0 -23 -2 -24 -13 -9 -16 23 -22 21 -29 -7
-5 -20 -12 -24 -36 -23 -16 1 -29 -2 -30 -8 0 -10 4 -11 35 -14 27 -2 17 -29
-10 -27 -14 0 -25 6 -25 11 0 6 -4 4 -9 -4 -12 -19 -44 -21 -59 -4 -7 7 -9 13
-4 13 5 0 9 12 8 28 -1 16 -6 26 -13 25 -16 -4 -17 9 -1 25 8 8 9 12 1 12 -6
0 -9 9 -6 20 6 24 -12 49 -44 61 -21 8 -28 24 -23 58 1 9 -5 12 -19 8 -23 -6
-24 -5 -15 18 5 13 8 14 15 3 6 -9 9 -4 9 15 0 15 -5 26 -12 25 -7 -2 -11 12
-11 40 1 23 -3 42 -8 42 -13 0 -1 59 21 102 14 27 16 36 5 32 -10 -4 -12 0 -8
15 3 12 10 21 16 21 6 0 51 -22 99 -50z m2233 26 c33 -9 64 -21 70 -27 5 -5
16 -9 24 -9 22 0 50 -30 44 -46 -3 -8 1 -14 11 -14 16 0 42 -38 38 -54 -5 -15
22 -26 30 -13 4 7 6 -7 4 -31 -2 -23 -6 -45 -9 -48 -3 -3 -3 -12 -1 -19 3 -7
-4 -20 -16 -28 -15 -10 -20 -22 -16 -41 3 -14 1 -24 -4 -21 -4 3 -10 -1 -13
-7 -3 -10 -7 -10 -18 -2 -8 6 -23 9 -34 7 -75 -17 -65 -24 -142 102 -7 11 -24
51 -39 90 -15 38 -40 91 -56 118 -15 26 -28 53 -28 58 0 14 78 7 155 -15z
m2328 -228 c9 -5 17 -13 17 -18 0 -5 6 -15 13 -22 6 -7 25 -37 41 -67 l29 -54
-24 -18 c-13 -10 -27 -19 -31 -19 -12 0 -28 37 -20 45 4 5 2 5 -4 2 -6 -3 -21
5 -34 20 -47 55 -90 115 -90 128 0 24 58 26 103 3z m1473 -103 c-19 -15 -19
-15 6 -13 15 1 25 5 22 9 -4 8 20 19 42 19 21 0 17 -30 -3 -30 -10 -1 -31 -12
-48 -25 l-30 -25 29 0 c23 0 27 -4 23 -19 -3 -12 4 -28 19 -42 18 -17 21 -26
13 -40 -7 -15 -4 -22 18 -36 16 -9 43 -31 61 -49 29 -28 32 -35 22 -54 -19
-36 -100 -51 -100 -19 0 6 -4 8 -10 4 -14 -8 10 -55 28 -55 9 0 12 -3 9 -7 -4
-3 1 -12 11 -19 14 -11 14 -13 2 -14 -8 0 -25 -3 -37 -6 -16 -5 -23 -2 -23 8
0 19 -44 42 -65 34 -12 -4 -33 9 -70 46 -69 70 -138 128 -181 152 -37 22 -42
37 -19 56 12 10 15 10 16 -1 0 -10 2 -11 6 -1 2 6 9 10 14 6 5 -3 9 0 9 5 0 6
6 11 14 11 8 0 16 5 18 12 4 10 13 10 41 1 39 -12 37 -14 41 37 1 8 10 14 20
13 11 -1 21 9 28 28 9 26 15 29 51 29 39 -1 41 -2 23 -15z m-2787 -57 c20 -7
60 -28 90 -48 30 -19 75 -48 102 -64 26 -16 46 -33 43 -37 -2 -5 -11 -6 -18
-3 -18 7 -32 -16 -16 -26 8 -5 9 -19 3 -51 -8 -40 -13 -45 -48 -57 -31 -10
-40 -10 -47 0 -5 9 -8 9 -8 1 0 -7 -16 -11 -45 -10 -25 1 -45 5 -45 10 0 4
-12 7 -27 7 -22 0 -25 2 -13 10 13 8 13 10 -2 10 -9 0 -18 6 -21 13 -3 9 -8 9
-21 -3 -22 -17 -46 -22 -46 -8 0 5 -12 8 -27 6 -16 -2 -27 -8 -25 -15 3 -16
-5 -16 -22 -1 -7 7 -11 22 -8 33 4 20 4 20 -13 0 -14 -17 -16 -17 -11 -2 3 9
1 17 -4 17 -15 0 -12 97 3 112 8 7 12 19 9 26 -2 6 1 12 7 12 6 0 11 7 11 15
0 8 7 15 15 15 8 0 14 3 14 8 -4 22 3 30 21 27 11 -2 22 0 25 6 9 13 82 11
124 -3z m3305 -349 l80 -51 -39 -21 c-54 -31 -78 -67 -77 -118 1 -50 24 -87
73 -112 56 -29 134 -5 163 51 l14 26 14 -30 c8 -16 20 -55 27 -87 11 -52 11
-60 -8 -90 -11 -17 -36 -45 -56 -60 l-36 -29 -82 33 c-261 103 -310 164 -261
330 30 102 82 209 102 209 4 0 43 -23 86 -51z m2602 -374 c18 -14 37 -25 43
-25 6 0 11 -5 11 -11 0 -6 21 -31 46 -55 l47 -44 -16 -32 c-15 -31 -15 -32 13
-58 46 -43 59 -88 53 -174 -3 -42 -10 -76 -15 -76 -5 0 -4 -9 2 -19 13 -25 13
-101 0 -101 -5 0 -12 -16 -16 -36 -4 -19 -12 -38 -19 -40 -7 -3 -11 -14 -8
-25 3 -10 1 -19 -5 -19 -6 0 -13 -13 -17 -30 -4 -16 -11 -33 -17 -36 -7 -4 -8
-2 -4 4 4 7 5 12 2 12 -3 0 -14 -20 -25 -44 -20 -44 -95 -119 -144 -145 -23
-12 -29 -12 -53 5 -40 28 -43 30 -124 67 -41 19 -81 45 -88 57 -17 28 -12 32
18 15 45 -25 71 -35 95 -35 13 0 27 -4 30 -10 10 -16 35 -12 29 5 -4 8 -14 15
-23 15 -18 0 -41 18 -41 33 0 4 9 5 20 2 12 -4 20 -2 20 5 0 6 5 8 10 5 6 -3
10 1 10 9 0 9 -5 16 -11 16 -29 0 -52 53 -26 63 9 4 9 6 0 6 -7 1 -17 -8 -23
-20 -9 -15 -15 -18 -24 -10 -7 6 -16 8 -19 4 -4 -3 -7 1 -7 10 0 18 26 47 43
47 18 0 -27 29 -45 30 -10 0 -18 -7 -18 -15 0 -8 -4 -15 -10 -15 -16 0 -11 26
8 42 23 20 36 17 64 -13 23 -25 60 -32 75 -14 5 4 0 5 -9 2 -11 -4 -28 3 -44
18 -26 24 -26 25 -5 25 24 0 26 5 9 24 -11 11 -17 11 -35 -1 -15 -10 -23 -11
-23 -4 0 6 4 11 9 11 15 0 22 30 11 48 -9 16 -9 15 -10 -1 0 -10 -5 -15 -10
-12 -10 6 -4 45 9 55 9 7 10 40 1 40 -4 0 -5 11 -2 25 3 18 0 25 -12 25 -9 0
-16 5 -16 11 0 6 9 8 20 4 18 -6 18 -3 -5 21 -24 26 -26 27 -45 9 -11 -10 -22
-16 -25 -13 -10 9 13 52 59 113 25 33 46 67 46 76 0 8 6 21 12 27 10 10 10 15
-1 21 -8 5 -11 16 -8 25 9 22 -5 20 -39 -5 -16 -11 -11 -3 12 18 54 50 161
111 198 112 17 1 43 -10 62 -24z m-5958 -534 c3 -17 0 -21 -10 -15 -7 4 -2 -5
12 -20 23 -25 25 -36 27 -129 1 -56 4 -118 7 -137 16 -116 18 -170 8 -170 -16
0 -82 101 -82 125 0 11 9 31 20 45 23 29 26 52 7 44 -7 -2 -27 2 -43 11 -16 8
-25 15 -20 15 5 0 -1 9 -14 20 -14 12 -21 27 -17 39 3 14 -1 21 -17 25 -21 5
-21 5 -1 21 16 13 16 15 3 11 -12 -3 -16 1 -15 15 1 10 7 19 14 19 7 0 10 7 7
15 -4 8 -3 27 1 43 l8 27 7 -25 c5 -16 8 -19 9 -7 1 9 8 17 16 17 8 0 15 8 15
18 0 14 -2 15 -10 2 -5 -8 -10 -10 -10 -4 0 18 10 22 43 21 25 -2 33 -7 35
-26z m1587 -245 c18 -13 19 -19 8 -81 -14 -84 -34 -115 -72 -115 -29 0 -29 1
-27 53 1 28 9 68 18 87 9 19 18 43 22 53 7 21 25 22 51 3z m-384 -225 c-23
-59 -8 -127 39 -173 10 -9 20 -23 23 -30 3 -10 9 -11 25 -1 12 7 24 9 26 4 3
-5 -2 -12 -12 -16 -16 -6 -16 -7 1 -16 9 -6 22 -7 27 -4 6 3 10 -4 10 -15 0
-16 -5 -20 -15 -16 -8 3 -15 1 -15 -4 0 -16 20 -22 34 -10 11 8 15 8 19 -2 3
-7 6 -5 6 7 1 14 7 8 22 -20 11 -22 30 -49 42 -60 12 -11 23 -29 25 -40 2 -11
14 -40 26 -65 13 -25 21 -50 19 -57 -2 -6 1 -14 6 -18 6 -3 11 -16 11 -29 0
-12 6 -31 14 -42 8 -10 13 -29 10 -40 -4 -13 0 -23 9 -27 10 -4 13 -13 10 -26
-5 -19 10 -63 37 -113 5 -9 12 -39 16 -67 4 -33 11 -51 20 -51 10 0 14 -13 14
-39 0 -22 6 -44 15 -51 9 -7 13 -21 10 -31 -5 -13 -1 -19 10 -19 11 0 15 -7
13 -22 -3 -20 -11 -24 -56 -28 -44 -5 -63 -1 -110 21 -66 31 -117 45 -107 30
10 -17 -46 -6 -94 18 -44 23 -181 157 -181 177 0 14 -118 174 -128 174 -4 0
-16 16 -27 36 -10 19 -31 42 -46 50 -15 7 -37 29 -49 49 -12 19 -26 35 -32 35
-15 0 -1 66 27 125 13 28 47 100 74 162 36 79 68 133 110 183 32 39 74 93 92
119 l34 49 3 -40 c2 -23 -1 -53 -7 -67z m1469 -191 c0 -27 -86 -189 -159 -299
-8 -12 -16 -10 -49 13 -47 32 -75 88 -70 142 l3 39 125 62 c69 34 131 62 138
63 6 0 12 -9 12 -20z m600 -257 c28 -21 50 -40 50 -43 0 -11 -138 -140 -149
-140 -14 0 -14 2 5 80 23 101 34 140 40 140 2 0 27 -17 54 -37z m-260 -20 c0
-7 -35 -170 -47 -220 -3 -12 -10 -24 -17 -26 -25 -10 -178 12 -204 29 l-26 17
35 29 c39 34 172 136 209 160 27 18 50 23 50 11z m1694 -42 c16 -18 15 -20
-21 -42 -34 -21 -52 -24 -163 -27 -114 -2 -123 -1 -106 13 11 8 26 15 33 15 7
0 33 7 59 16 25 9 56 18 68 20 32 7 100 22 107 23 3 1 14 -7 23 -18z m-3846
-44 c8 -7 9 -12 3 -17 -18 -11 5 -69 51 -125 24 -30 54 -73 68 -95 14 -23 61
-74 104 -114 43 -39 93 -86 109 -103 17 -18 37 -33 46 -33 9 0 33 -11 53 -25
20 -14 40 -25 44 -25 3 0 15 -11 26 -25 11 -14 27 -25 35 -25 9 0 24 -7 33
-15 9 -8 30 -16 46 -18 16 -2 36 -7 44 -12 62 -38 120 -64 121 -53 0 7 5 3 11
-9 7 -14 20 -23 35 -23 15 0 27 -9 34 -24 6 -13 21 -27 33 -31 18 -6 19 -8 4
-12 -10 -2 -18 -9 -18 -14 0 -6 4 -7 10 -4 6 4 7 -6 3 -26 l-6 -31 37 36 c35
36 36 36 36 12 0 -17 -4 -24 -13 -20 -8 3 -20 -2 -27 -10 -11 -14 -8 -15 19
-12 17 2 34 0 37 -5 3 -5 0 -9 -6 -9 -6 0 -10 -10 -9 -22 2 -13 -1 -30 -6 -38
-8 -13 -7 -13 8 -1 9 7 15 17 12 21 -3 4 1 10 9 13 10 4 13 -1 11 -19 -2 -19
0 -22 11 -13 10 9 14 9 14 0 0 -6 -18 -18 -40 -27 -22 -9 -45 -25 -51 -35 -5
-11 -18 -19 -29 -19 -10 0 -31 -11 -46 -25 -43 -40 -19 -42 151 -9 29 5 29 5
10 -11 -50 -43 -107 -59 -202 -57 -105 2 -258 40 -353 89 -14 7 -31 13 -38 13
-16 0 -177 68 -212 89 -14 9 -41 25 -59 36 -19 11 -72 45 -120 76 -80 52 -107
74 -186 148 -64 61 -133 151 -128 167 4 13 -65 69 -74 60 -24 -24 105 -189
225 -289 88 -73 345 -224 477 -280 33 -14 96 -41 140 -60 165 -71 295 -93 418
-71 85 14 123 31 185 81 30 25 42 30 42 19 0 -9 5 -16 10 -16 6 0 10 -47 10
-120 l0 -121 -35 -36 c-35 -36 -52 -73 -41 -91 3 -5 -8 -30 -25 -56 -29 -43
-88 -97 -171 -154 l-33 -23 55 3 c49 3 55 1 52 -15 -3 -15 0 -16 15 -9 16 9
18 6 14 -36 -1 -26 -9 -54 -16 -62 -6 -8 -23 -36 -35 -62 -13 -26 -34 -58 -47
-70 -13 -12 -23 -27 -23 -35 0 -7 -13 -26 -30 -41 -16 -16 -30 -33 -30 -38 0
-5 -17 -20 -38 -34 -20 -13 -51 -36 -69 -50 -23 -17 -42 -24 -67 -22 -27 3
-37 -1 -46 -18 -6 -11 -8 -25 -5 -30 8 -12 -11 -13 -51 -1 -17 5 -37 5 -45 0
-16 -9 -8 -13 56 -28 34 -8 27 -9 -53 -10 -77 -1 -122 6 -260 39 -168 41 -302
80 -357 105 -16 8 -32 12 -36 9 -4 -2 -10 3 -13 12 -4 11 -14 14 -33 10 -16
-3 -35 -1 -43 5 -12 8 -8 9 15 5 24 -5 27 -4 12 4 -9 6 -26 8 -37 5 -39 -12
-243 85 -417 199 -226 149 -228 150 -212 125 9 -13 49 -52 90 -86 52 -45 82
-63 102 -63 15 0 54 -17 85 -37 84 -54 193 -113 209 -113 7 0 16 -7 19 -15 4
-8 12 -15 20 -15 17 0 18 -17 2 -23 -10 -4 -10 -6 0 -6 7 -1 15 6 18 14 4 8
10 12 15 9 5 -3 7 -9 4 -14 -3 -4 2 -13 10 -20 8 -7 15 -9 15 -5 0 5 8 -2 19
-13 10 -12 25 -22 33 -22 20 0 36 -21 33 -42 -2 -10 0 -17 3 -16 10 2 96 -25
102 -32 10 -11 107 -29 195 -35 51 -4 93 -12 97 -18 6 -9 12 -9 25 -1 21 13
85 6 95 -10 4 -6 16 -11 26 -12 11 -1 32 -4 48 -8 22 -6 25 -9 13 -17 -10 -8
-5 -9 19 -6 43 5 58 -13 31 -41 -11 -12 -24 -22 -30 -22 -6 0 -7 -4 -4 -10 3
-5 -15 -23 -41 -40 -27 -16 -44 -31 -38 -31 8 -2 -15 -6 -123 -24 -39 -7 -48
-15 -44 -38 2 -10 -147 2 -169 13 -8 4 -34 10 -57 14 -69 10 -584 185 -653
222 -36 19 -56 27 -45 19 66 -52 217 -118 413 -179 128 -40 223 -79 232 -96 8
-15 5 -17 -16 -17 -33 0 -43 -12 -22 -27 15 -11 14 -14 -13 -30 -37 -22 -28
-40 17 -31 32 6 109 -3 101 -11 -11 -12 -169 -34 -236 -34 -109 0 -245 11
-331 26 -19 3 -46 6 -59 7 -44 3 -33 23 11 22 57 -1 78 4 78 21 0 8 -6 11 -15
8 -8 -4 -15 -2 -15 3 0 14 -90 37 -145 36 -27 0 -72 -5 -99 -12 -34 -7 -53 -8
-60 -1 -5 5 -20 10 -31 10 -12 0 -29 8 -37 18 -21 24 -47 80 -40 87 3 3 7 25
8 49 1 36 -2 45 -17 49 -23 6 -25 27 -4 27 8 0 15 5 15 12 0 6 -3 9 -6 5 -4
-3 -12 0 -20 7 -23 23 -11 119 20 166 14 22 31 40 36 40 6 0 9 3 8 8 0 4 2 14
6 24 4 9 -1 32 -12 55 -11 21 -30 72 -43 113 -31 100 -34 275 -5 364 16 51 17
67 7 121 -29 160 -1 316 78 430 35 50 54 70 69 69 12 0 19 3 16 7 -2 5 0 16 5
26 6 10 22 50 37 88 70 185 150 281 296 353 47 23 97 42 111 42 25 0 43 27 62
90 26 85 150 214 264 272 70 36 80 38 109 15z m-897 -477 c5 0 9 -7 9 -15 0
-9 6 -12 15 -9 8 4 15 12 15 20 0 15 12 19 23 7 4 -3 -8 -17 -25 -30 -36 -26
-42 -28 -32 -12 4 7 1 10 -6 7 -24 -8 -22 -25 4 -32 19 -5 24 -11 19 -24 -12
-33 -24 -43 -40 -31 -15 13 -63 -2 -63 -20 0 -19 21 -23 33 -6 10 12 18 14 37
7 22 -9 23 -11 8 -17 -10 -4 -18 -18 -18 -31 0 -13 -8 -32 -19 -43 -10 -10
-21 -25 -24 -32 -3 -8 -8 -3 -12 14 -5 18 -12 26 -21 23 -8 -3 -20 -8 -26 -11
-7 -3 -19 -1 -27 4 -22 14 2 64 27 57 9 -3 24 -1 32 4 13 9 13 11 0 19 -10 7
-17 6 -22 -2 -6 -9 -12 -9 -28 1 -26 16 -35 15 -55 -4 -15 -16 -18 -15 -38 5
l-21 21 37 0 c42 0 67 19 85 65 9 21 20 30 37 31 39 3 55 12 55 32 0 10 6 24
13 31 10 10 13 8 15 -8 2 -12 8 -21 13 -21z m-185 -282 c-8 -28 -17 -67 -19
-90 -1 -9 -5 -14 -9 -12 -4 3 -8 0 -8 -5 0 -6 -7 -11 -16 -11 -8 0 -13 -4 -9
-9 3 -6 -3 -14 -12 -20 -16 -9 -16 -12 -3 -21 13 -9 13 -10 0 -10 -8 1 -24 7
-34 15 -17 13 -17 15 -3 21 10 3 17 17 17 29 0 21 -3 22 -27 16 -20 -5 -27
-13 -25 -27 2 -14 -4 -19 -23 -20 -27 -2 -31 10 -16 50 7 16 19 26 36 28 14 2
25 7 24 12 -1 9 20 26 34 26 4 0 7 -7 7 -16 0 -8 4 -13 10 -9 5 3 7 11 5 18
-5 11 50 57 69 57 4 0 5 -10 2 -22z m2441 -88 c28 -10 29 -14 40 -101 13 -102
29 -132 78 -156 30 -14 64 -67 51 -80 -2 -2 -48 15 -102 38 -55 23 -121 49
-149 59 l-50 17 -3 69 -2 69 46 48 c51 52 49 51 91 37z m-1634 -1861 c73 -37
173 -73 250 -89 l54 -11 -29 -101 c-19 -68 -28 -125 -28 -173 0 -71 0 -71 -27
-73 -16 -1 -57 -4 -93 -6 -36 -3 -103 -8 -150 -11 -47 -3 -116 -8 -155 -11
-38 -3 -105 -6 -147 -7 -43 0 -78 -4 -78 -8 0 -4 -8 -6 -17 -4 -10 1 -26 -2
-35 -7 -12 -6 -18 -5 -18 3 0 7 -9 9 -23 5 -27 -6 -137 -18 -189 -20 -21 0
-38 -4 -38 -7 0 -3 -29 -5 -65 -3 -39 2 -63 -1 -60 -7 4 -5 -3 -5 -18 0 -14 6
-28 7 -31 3 -4 -3 -26 -7 -49 -9 -23 -1 -73 -5 -112 -8 -38 -3 -77 -6 -85 -6
-8 -1 -51 -5 -95 -9 -44 -5 -123 -12 -175 -15 -52 -4 -103 -9 -112 -11 -10 -3
-18 -1 -18 4 0 23 115 158 175 206 l67 53 117 7 c129 8 270 31 436 71 61 15
148 35 195 46 157 34 258 85 331 168 53 59 55 61 107 61 39 0 68 -8 115 -31z
m-2273 -524 c1 -5 -3 -11 -9 -13 -6 -2 -9 3 -5 11 3 9 -3 16 -17 20 -27 7 -39
-1 -20 -12 19 -12 3 -33 -20 -26 -11 4 -19 2 -19 -6 0 -8 -11 -10 -35 -6 -40
7 -45 -4 -12 -26 12 -8 20 -17 17 -20 -6 -5 -107 7 -115 14 -11 12 21 59 40
59 12 0 32 17 48 40 38 53 71 57 113 10 18 -19 33 -39 34 -45z m-474 -515
c-70 -28 -75 -38 -12 -27 56 10 92 5 81 -13 -3 -6 4 -10 17 -10 27 0 53 -15
53 -29 0 -6 9 -17 20 -25 18 -14 18 -15 2 -16 -9 0 -25 -9 -35 -20 -9 -12 -46
-37 -82 -57 -87 -48 -100 -68 -52 -75 16 -2 49 7 82 24 55 27 63 36 16 18 -17
-6 -26 -6 -26 0 0 6 5 10 10 10 6 0 15 11 19 24 6 15 20 25 41 30 41 8 53 0
40 -25 -9 -15 -7 -21 7 -26 96 -33 140 -64 193 -135 30 -40 62 -79 71 -86 28
-20 41 -75 34 -139 -9 -77 -35 -129 -90 -183 l-45 -45 -53 19 c-96 33 -242
107 -274 138 -72 69 -102 225 -60 306 17 31 14 40 -9 24 -13 -9 -35 -72 -29
-82 3 -5 1 -18 -3 -31 l-9 -22 -22 22 c-21 21 -22 30 -18 86 5 55 2 73 -25
137 -16 40 -34 77 -39 83 -5 5 -9 23 -9 40 0 29 5 34 63 60 60 27 115 42 167
43 17 1 10 -5 -24 -18z"/>
<path d="M9301 6690 l-34 -22 59 -34 c32 -18 62 -34 66 -34 3 0 38 -18 77 -41
72 -42 113 -87 143 -159 32 -77 72 -68 70 15 -1 84 -98 217 -192 265 -64 33
-146 37 -189 10z"/>
<path d="M1496 5175 c17 -9 -2 -127 -37 -223 -63 -178 -70 -197 -68 -217 2
-35 -1 -45 -13 -43 -6 2 -14 -8 -17 -21 -4 -13 -24 -41 -46 -63 -39 -38 -39
-40 -21 -54 23 -17 46 -18 46 -3 0 6 8 8 18 5 9 -2 72 -7 140 -11 130 -7 161
4 72 25 -40 9 -50 16 -46 29 21 67 39 237 40 368 1 139 -1 154 -20 180 -12 15
-30 29 -40 30 -10 2 -14 0 -8 -2z"/>
<path d="M973 4062 c10 -10 17 -26 17 -34 0 -9 14 -21 30 -27 33 -11 35 -14
20 -42 -8 -14 -8 -19 1 -17 7 2 14 -6 16 -17 2 -15 1 -16 -5 -5 -9 18 -42 23
-42 5 0 -26 164 -198 296 -312 30 -25 56 -44 57 -42 2 2 14 20 27 39 32 46
143 184 153 188 17 8 5 20 -15 15 -21 -4 -21 -3 -5 7 17 11 15 30 -4 30 -6 0
-7 -4 -4 -10 8 -13 4 -13 -40 6 -22 9 -35 20 -32 28 6 15 -57 46 -95 46 -14 0
-28 -6 -31 -13 -4 -11 -24 -13 -75 -8 -8 1 -10 9 -6 26 5 22 2 27 -25 36 -17
6 -31 15 -31 20 0 5 -7 9 -15 9 -8 0 -15 5 -15 11 0 7 -9 9 -24 5 -13 -3 -26
-2 -28 3 -2 5 -18 12 -37 16 -26 5 -32 4 -26 -5 6 -9 4 -11 -4 -6 -7 5 -10 11
-7 14 3 3 1 11 -5 19 -9 9 -8 13 0 13 6 0 11 5 11 10 0 6 -16 10 -37 10 -34 0
-35 -1 -20 -18z"/>
</g>
</svg>
