<?xml version="1.0" standalone="no"?>
<!DOCTYPE svg PUBLIC "-//W3C//DTD SVG 20010904//EN"
 "http://www.w3.org/TR/2001/REC-SVG-20010904/DTD/svg10.dtd">
<svg version="1.0" xmlns="http://www.w3.org/2000/svg"
 width="904.000000pt" height="575.000000pt" viewBox="0 0 904.000000 575.000000"
 preserveAspectRatio="xMidYMid meet">
<metadata>
Created by potrace 1.16, written by Peter Selinger 2001-2019
</metadata>
<g transform="translate(0.000000,575.000000) scale(0.100000,-0.100000)"
fill="#000000" stroke="none">
<path d="M6620 4675 c0 -16 -7 -38 -15 -49 -10 -13 -12 -37 -9 -85 9 -142 11
-269 5 -280 -4 -6 -23 -11 -41 -12 -46 -3 -311 10 -319 15 -3 2 -23 -4 -44
-14 -33 -17 -42 -17 -70 -5 -41 17 -413 29 -423 14 -3 -6 -13 -8 -21 -5 -9 4
-22 1 -30 -6 -12 -10 -18 -9 -28 5 -16 22 -44 22 -61 0 -13 -17 -15 -17 -28 0
-17 22 -26 22 -26 0 0 -12 -3 -14 -11 -6 -7 7 -21 8 -42 2 -18 -5 -49 -9 -69
-9 l-38 0 0 63 c-1 51 -3 58 -12 43 -6 -11 -10 -42 -9 -69 1 -42 -1 -48 -16
-45 -15 3 -17 12 -15 55 4 62 -12 77 -26 23 -7 -27 -6 -40 1 -43 6 -2 8 -11 4
-21 -6 -15 -10 -16 -23 -6 -8 7 -13 19 -10 27 7 18 -9 16 -29 -3 -8 -9 -22
-14 -30 -11 -7 3 -16 1 -18 -6 -3 -9 -9 -9 -24 0 -16 9 -23 9 -32 0 -7 -7 -38
-10 -81 -8 -46 2 -70 -1 -70 -8 0 -13 -36 -15 -44 -2 -10 15 -56 20 -56 5 0
-17 -26 -23 -115 -26 l-70 -3 2 28 c2 31 -12 35 -40 10 -11 -10 -17 -13 -14
-6 13 21 -4 43 -28 37 -17 -4 -26 0 -35 15 -6 12 -9 25 -6 29 3 5 -5 8 -17 8
-13 -1 -30 -13 -41 -30 -17 -28 -17 -32 -1 -58 13 -23 14 -28 2 -28 -8 0 -20
6 -26 14 -6 7 -22 11 -36 8 -22 -4 -25 -1 -25 22 0 14 -5 26 -11 26 -7 0 -9
-10 -5 -25 4 -14 2 -25 -4 -25 -5 0 -10 -9 -10 -21 0 -12 -4 -17 -11 -13 -6 3
-9 15 -6 25 3 10 2 20 -2 22 -3 2 0 2 7 1 6 -2 12 3 12 10 0 10 -10 12 -35 9
-30 -4 -34 -2 -29 12 5 13 9 14 15 4 5 -9 10 -4 15 15 4 17 11 25 20 22 8 -3
14 -1 14 4 0 6 9 10 20 10 11 0 20 -4 20 -10 0 -5 7 -10 15 -10 23 0 18 18
-11 37 -25 16 -25 17 -8 30 14 10 15 13 3 13 -8 0 -34 9 -58 21 -32 15 -52 19
-87 13 -37 -5 -44 -4 -44 10 0 9 5 16 11 16 5 0 7 5 4 10 -12 19 -26 10 -41
-25 -8 -19 -21 -35 -29 -35 -8 0 -14 3 -14 8 3 20 -2 32 -15 32 -8 0 -16 7
-19 15 -4 8 -19 14 -37 15 -16 0 -44 0 -61 0 -19 0 -44 11 -61 25 -16 14 -36
25 -44 25 -8 0 -42 9 -76 21 -94 31 -138 13 -138 -60 0 -48 -9 -62 -30 -49
-14 9 -21 8 -34 -4 -22 -23 -129 -22 -149 1 -19 21 -5 61 23 68 19 5 18 6 -5
25 -21 16 -28 18 -40 8 -12 -10 -15 -9 -15 4 0 9 -4 16 -10 16 -5 0 -10 -7
-10 -15 0 -8 -9 -15 -19 -15 -11 0 -32 -16 -47 -36 -22 -29 -25 -37 -14 -44 8
-5 11 -12 7 -16 -4 -4 -21 2 -37 14 -29 22 -29 22 -40 3 -8 -16 -19 -19 -53
-17 -23 2 -50 -1 -60 -6 -12 -6 -23 -5 -32 2 -9 7 -20 8 -32 2 -42 -22 -87
-32 -97 -22 -6 6 -23 10 -38 10 -21 0 -28 5 -28 19 0 10 -7 24 -15 31 -8 7
-15 9 -15 5 0 -4 -6 -2 -14 4 -14 11 -31 9 -74 -12 -18 -8 -26 -7 -38 5 -12
12 -25 13 -61 7 -33 -7 -58 -5 -90 6 -49 17 -85 12 -122 -17 -34 -26 -67 -77
-75 -114 -6 -26 -13 -33 -39 -37 -39 -6 -46 -1 -23 16 23 16 7 62 -25 72 -32
11 -99 -15 -112 -42 -5 -13 -16 -23 -24 -23 -7 0 -18 -9 -25 -19 -6 -10 -18
-17 -26 -14 -16 7 -32 -13 -32 -40 0 -35 -27 -50 -78 -42 -26 4 -52 11 -59 17
-15 12 -55 0 -50 -15 2 -7 19 -11 37 -9 l33 2 -24 -19 c-29 -23 -94 -18 -126
12 -20 18 -27 19 -59 9 -33 -10 -38 -9 -54 11 -14 17 -29 22 -65 22 -41 0 -51
-4 -75 -33 -16 -19 -31 -29 -34 -23 -9 14 -71 5 -102 -16 -17 -11 -24 -22 -21
-35 5 -18 4 -18 -17 -4 -26 16 -54 16 -65 -2 -10 -17 -67 -26 -75 -13 -4 6
-16 11 -28 11 -16 0 -19 5 -16 25 4 16 1 22 -6 17 -6 -3 -19 -5 -29 -4 -9 2
-24 -4 -33 -12 -9 -9 -19 -14 -24 -11 -9 6 -22 -23 -15 -35 7 -12 -25 -21 -42
-12 -9 5 -35 2 -66 -8 -44 -15 -56 -15 -78 -4 -22 11 -30 10 -54 -2 -15 -8
-33 -14 -40 -14 -7 0 -15 -5 -17 -10 -2 -7 -15 -7 -38 0 -51 15 -126 -7 -152
-44 -7 -10 -36 8 -51 32 -4 6 -15 12 -23 12 -22 0 -57 -37 -51 -53 3 -7 -4
-19 -15 -26 -13 -8 -17 -18 -13 -32 6 -17 3 -19 -19 -13 -30 7 -60 -12 -51
-34 3 -8 0 -21 -7 -29 -10 -12 -9 -18 7 -29 19 -14 19 -15 1 -45 -14 -25 -16
-35 -7 -61 10 -29 9 -34 -15 -53 -15 -12 -26 -32 -27 -48 -2 -29 -12 -35 -73
-42 -22 -3 -72 -10 -112 -15 -41 -6 -77 -8 -81 -5 -4 2 -23 0 -42 -5 -19 -5
-46 -12 -61 -15 l-28 -5 0 -1775 0 -1775 1290 0 c983 0 1290 3 1290 12 0 9 3
9 12 0 17 -17 28 -15 28 5 0 15 1 15 18 0 16 -15 52 -17 301 -17 171 0 280 4
276 9 -3 5 3 12 14 16 11 3 22 13 25 21 4 12 1 14 -14 9 -14 -5 -20 -2 -20 9
0 9 4 16 9 16 22 0 41 -13 41 -29 0 -13 9 -15 48 -12 l47 3 -19 -21 -19 -21
2857 0 2856 0 0 1324 c0 873 -3 1327 -10 1331 -5 3 -10 11 -10 16 0 6 5 7 10
4 7 -4 10 128 10 410 -1 399 -2 417 -20 422 -21 6 -16 33 6 33 12 0 14 50 14
296 0 271 -2 298 -17 310 -17 13 -17 13 1 14 17 0 18 7 14 74 -3 45 -11 82
-21 97 -18 25 -22 40 -9 38 18 -3 32 2 32 11 0 6 -9 10 -20 10 -17 0 -20 7
-21 48 -2 51 -5 126 -8 155 0 9 -5 17 -10 17 -4 0 -8 -48 -7 -107 1 -106 1
-107 -24 -114 -14 -4 -20 -8 -15 -9 56 -10 60 -12 51 -35 -4 -11 -13 -14 -25
-10 -13 4 -23 0 -29 -12 -10 -17 -11 -17 -29 0 -25 22 -33 22 -33 -2 0 -25
-16 -36 -24 -15 -6 16 -29 14 -73 -8 -17 -8 -36 -8 -70 -1 -34 8 -52 8 -61 1
-9 -8 -29 -7 -70 2 -31 7 -69 12 -84 11 -28 -2 -28 -2 -28 54 0 54 -1 56 -22
49 -40 -12 -46 -22 -38 -60 6 -24 5 -37 -3 -40 -16 -6 -150 0 -162 7 -43 25
-109 15 -168 -24 -24 -17 -32 -17 -58 -6 -33 13 -145 15 -250 4 -35 -4 -107
-7 -159 -7 -52 0 -97 -4 -101 -9 -3 -5 -20 -5 -38 1 -19 5 -38 7 -44 3 -5 -3
-57 -7 -116 -9 -58 -2 -115 -5 -126 -7 -18 -5 -20 -1 -17 44 2 27 0 49 -5 49
-20 0 -43 -38 -43 -68 0 -21 -5 -32 -14 -32 -31 0 -46 13 -46 41 l0 28 -35
-15 c-19 -7 -37 -14 -40 -14 -3 0 -5 30 -5 67 0 55 -4 71 -22 91 -18 18 -23
34 -21 73 1 42 -2 49 -18 50 -10 1 -23 3 -29 4 -5 1 -19 3 -31 4 -11 0 -17 6
-14 11 3 6 2 10 -4 10 -5 0 -18 3 -28 6 -10 4 -3 -7 16 -25 19 -17 31 -31 27
-31 -5 0 -3 -7 4 -15 6 -8 8 -20 4 -26 -12 -20 -12 -83 0 -91 7 -5 6 -8 -3 -8
-11 0 -11 -3 -1 -15 6 -8 10 -20 7 -27 -2 -7 0 -25 4 -40 8 -29 7 -30 -36 -30
-41 0 -46 2 -40 12 4 6 10 8 15 5 14 -9 19 9 21 79 2 62 -8 98 -18 69 -3 -7
-13 -13 -24 -13 -27 0 -24 -30 4 -31 12 -1 0 -7 -28 -14 -47 -12 -53 -20 -12
-16 14 2 17 -6 17 -38 0 -29 -5 -41 -17 -44 -17 -4 -17 -5 0 -6 9 0 17 -8 17
-17 0 -13 3 -14 14 -5 11 10 16 9 24 -5 6 -11 11 -13 16 -5 8 13 116 15 116 2
0 -5 -19 -12 -42 -16 -24 -4 -45 -11 -48 -16 -3 -5 -19 -5 -35 0 -17 4 -48 4
-69 -1 -24 -5 -43 -5 -49 1 -5 5 -15 8 -21 5 -7 -3 -12 20 -13 71 -2 60 0 73
11 69 8 -3 17 -1 21 5 3 7 -2 11 -14 11 -22 0 -30 33 -11 45 8 5 7 11 0 20
-18 21 -8 78 15 90 28 15 32 45 6 45 -16 0 -21 6 -21 25 0 13 -6 28 -14 32 -7
4 -16 15 -19 23 -3 8 -6 2 -7 -15z m-3330 -1106 c105 -22 163 -109 163 -239 0
-87 -22 -142 -75 -183 l-32 -25 67 -159 c36 -87 69 -166 73 -175 6 -16 -3 -18
-94 -18 l-100 0 -52 155 c-28 85 -55 157 -60 160 -4 3 -22 2 -39 -1 l-31 -6 0
-154 0 -154 -95 0 -95 0 0 405 0 405 160 0 c87 0 182 -5 210 -11z m-880 -334
c3 -208 9 -306 17 -321 31 -54 127 -55 167 -1 20 27 21 42 24 328 l3 299 74 0
c49 0 74 -4 77 -12 7 -19 0 -566 -7 -618 -9 -56 -24 -86 -67 -127 -45 -44
-108 -64 -200 -65 -101 0 -166 22 -212 72 -56 62 -59 83 -63 433 l-4 318 93
-3 93 -3 5 -300z m1450 -5 l0 -310 134 0 133 0 -3 130 c-1 72 2 130 7 130 5 0
9 -45 9 -100 l0 -100 56 0 c50 0 55 2 49 18 -4 9 -11 32 -17 50 -5 17 -14 32
-19 32 -6 0 -9 6 -6 13 2 6 -4 35 -14 62 -11 28 -19 56 -19 63 0 7 -8 31 -18
55 -10 23 -24 58 -31 77 -6 19 -23 68 -37 108 -14 41 -23 76 -21 79 3 3 49 1
102 -4 l97 -8 15 -45 c8 -25 21 -50 29 -56 10 -8 11 -13 4 -16 -8 -2 -5 -19 9
-50 18 -42 22 -46 52 -44 27 1 34 7 45 36 21 57 19 60 -38 60 -28 0 -48 3 -45
6 3 4 28 6 55 6 l49 -2 19 55 18 55 98 0 c109 0 108 1 83 -71 -10 -28 -12 -45
-5 -47 18 -6 11 -22 -11 -22 -20 0 -20 -4 -18 -97 l3 -98 -31 -3 c-26 -3 -33
-10 -47 -45 -22 -57 -22 -57 23 -57 l39 0 -4 40 c-2 23 0 40 6 40 10 0 12 -46
12 -230 -1 -121 -1 -134 -6 -129 -2 2 -6 13 -8 24 -2 16 -13 21 -58 26 l-55 6
58 1 57 2 0 50 c0 48 -1 50 -27 51 l-28 2 28 4 c25 4 27 8 27 54 l0 49 -44 0
c-44 0 -44 -1 -60 -47 -11 -32 -16 -82 -16 -160 l0 -113 60 0 c55 0 60 2 60
22 0 42 8 12 14 -54 5 -42 3 -69 -4 -73 -6 -4 -10 12 -10 44 l0 51 -59 0 c-43
0 -60 -4 -65 -15 -4 -12 -24 -15 -93 -15 -98 0 -133 7 -133 24 0 9 -36 12
-137 10 -117 -2 -148 1 -200 19 -59 19 -64 19 -81 4 -14 -13 -38 -17 -98 -17
l-80 0 -3 390 -2 390 100 0 101 0 0 -310z m-1833 276 c60 -26 95 -82 101 -167
6 -84 -9 -129 -56 -170 -23 -20 -32 -34 -24 -37 27 -9 75 -57 88 -89 21 -50
18 -166 -6 -212 -18 -37 -72 -91 -90 -91 -5 0 -7 -7 -4 -15 6 -15 -16 -22 -29
-9 -3 4 -98 6 -211 5 l-206 -2 0 406 0 407 198 -4 c160 -3 205 -7 239 -22z
m2898 -91 c6 -52 8 -55 34 -55 25 0 29 5 37 43 4 23 7 48 7 55 -1 8 15 12 46
12 50 0 64 -7 69 -30 4 -19 40 -135 54 -172 6 -16 16 -28 24 -28 15 0 21 18
29 85 3 28 9 67 14 88 6 26 6 37 -3 38 -36 2 39 18 89 18 90 1 91 -2 71 -101
-11 -49 -20 -151 -23 -250 l-6 -168 25 0 c30 0 71 -41 63 -63 -10 -26 -30 -26
-52 -1 -19 21 -19 24 -5 25 14 0 13 2 -3 8 -26 11 -31 -3 -11 -31 20 -28 20
-42 1 -34 -16 6 -18 -5 -15 -126 1 -43 -3 -68 -9 -68 -6 0 -11 7 -11 15 0 12
-11 14 -62 10 -63 -6 -92 -15 -47 -15 37 0 56 -16 29 -23 -15 -4 -21 -11 -17
-21 5 -13 -2 -16 -34 -16 -37 0 -40 2 -34 21 5 13 3 19 -3 15 -5 -3 -21 26
-35 67 -80 233 -85 244 -95 217 -28 -73 -72 -206 -72 -217 0 -8 13 -13 35 -13
35 0 35 0 35 45 0 25 5 45 10 45 6 0 10 -20 10 -44 0 -34 4 -46 18 -49 9 -3
-13 -5 -50 -6 -56 -1 -66 -4 -62 -16 4 -8 1 -15 -6 -15 -6 0 -8 -4 -5 -10 3
-5 -1 -10 -10 -10 -9 0 -19 9 -22 20 -3 11 -13 20 -23 20 -9 0 -28 10 -42 23
-24 21 -29 36 -43 127 -3 19 -12 76 -21 125 -9 50 -22 128 -29 175 -8 47 -23
139 -34 205 -11 66 -21 123 -21 128 0 4 44 7 99 7 l99 0 7 -55z m2568 32 c21
-14 25 -14 21 -2 -4 10 0 15 11 15 12 0 15 -5 10 -20 -5 -16 4 -25 49 -51 l56
-31 1 -201 c1 -111 3 -237 5 -279 l4 -77 -60 -37 c-60 -37 -60 -37 -60 -85 0
-27 -4 -49 -10 -49 -5 0 -10 12 -10 28 l0 27 -219 -3 -218 -4 -5 69 c-2 37 -6
213 -7 390 l-3 322 74 3 c40 2 132 3 203 3 108 0 136 -3 158 -18z m-1522 -1
c-24 -13 -24 -14 -3 -25 24 -13 43 -14 41 -3 -3 18 2 32 11 32 6 0 10 -15 10
-34 0 -28 6 -38 34 -55 34 -21 34 -22 41 -114 3 -50 4 -174 2 -275 -4 -173 -6
-184 -27 -207 -12 -13 -19 -28 -15 -34 3 -6 2 -11 -4 -11 -5 0 -11 6 -14 13
-4 10 -7 10 -18 0 -7 -7 -9 -13 -3 -13 11 0 11 -114 0 -148 -7 -22 -8 -22 -21
-5 -8 10 -12 28 -9 41 2 12 6 32 9 45 l4 22 -163 0 c-138 0 -165 2 -179 17 -9
9 -43 33 -76 52 -48 30 -60 42 -64 69 -3 17 -5 144 -4 281 l2 250 38 20 c26
14 37 26 37 43 0 13 5 23 10 23 6 0 10 -7 10 -15 0 -13 3 -13 26 1 19 13 22
19 12 25 -7 5 61 10 152 11 91 2 170 4 175 5 6 1 -1 -4 -14 -11z m759 -18 c0
-5 7 -8 15 -8 8 0 14 -3 14 -7 -3 -19 2 -46 7 -41 3 3 21 -8 40 -26 l34 -32 3
-274 2 -274 -102 -62 c-56 -34 -104 -60 -106 -58 -2 3 -51 6 -109 7 -89 3
-107 6 -124 23 -11 11 -47 37 -80 57 l-60 36 -3 275 -2 275 42 26 c23 15 44
35 46 46 4 13 11 18 23 14 10 -3 24 1 32 9 8 7 23 16 34 19 31 7 294 3 294 -5z
m-858 -792 c40 -1 57 -15 76 -58 14 -33 4 -36 -27 -7 -12 12 -25 18 -28 15 -4
-3 -18 1 -32 10 -17 12 -26 14 -29 6 -2 -7 -10 -12 -18 -12 -8 0 -14 -7 -14
-15 0 -8 6 -12 13 -9 10 3 13 -5 13 -31 -1 -19 -4 -35 -7 -35 -9 0 -44 29 -35
30 22 0 -30 40 -60 46 -19 3 -31 10 -28 15 3 5 9 7 14 4 5 -3 17 9 27 26 17
29 21 30 58 24 22 -4 57 -8 77 -9z"/>
<path d="M3110 3335 l0 -105 33 -1 c85 -3 108 10 128 68 9 27 9 45 0 74 -14
47 -51 69 -116 69 l-45 0 0 -105z"/>
<path d="M1770 3295 l0 -98 38 7 c20 3 47 6 60 6 37 0 72 43 72 88 0 64 -25
85 -104 90 l-66 4 0 -97z"/>
<path d="M1770 2969 l0 -105 68 4 c81 4 108 20 122 71 21 78 -17 118 -124 128
l-66 6 0 -104z"/>
<path d="M7262 3077 l3 -232 67 1 c44 1 77 7 93 18 23 15 24 21 23 92 -2 52
-7 78 -15 81 -11 4 -10 8 1 17 10 7 14 22 12 41 -2 17 -4 65 -5 107 -1 74 -2
78 -28 91 -16 7 -56 14 -91 15 l-62 2 2 -233z"/>
<path d="M5743 3278 c-18 -9 -22 -19 -21 -59 0 -26 -3 -53 -7 -58 -3 -6 4 -15
17 -20 17 -7 19 -10 5 -10 -16 -1 -17 -14 -16 -136 l1 -135 28 -15 c66 -34
160 -6 160 47 0 16 -6 28 -12 28 -10 0 -10 2 -1 8 8 5 12 39 12 100 0 86 -2
94 -22 102 -17 7 -18 9 -4 9 13 1 17 10 17 40 0 29 -5 41 -17 44 -17 4 -17 5
0 6 25 2 21 26 -8 45 -27 18 -98 20 -132 4z"/>
<path d="M6500 3267 c-40 -14 -54 -52 -23 -60 16 -4 16 -5 1 -6 -15 -1 -17
-14 -17 -90 l0 -90 32 -4 32 -4 -32 -1 c-32 -2 -33 -3 -33 -46 0 -38 3 -45 23
-49 l22 -4 -22 -2 c-24 -1 -27 -10 -17 -48 7 -24 21 -32 77 -43 30 -6 44 -3
70 14 36 24 48 63 22 72 -9 4 -12 10 -7 13 5 3 13 25 17 49 7 41 6 42 -21 42
-29 0 -28 10 1 14 12 2 18 14 21 39 2 20 -1 39 -5 42 -5 2 -6 25 -4 49 5 40 3
45 -18 49 -24 4 -24 4 -1 6 32 2 28 33 -9 54 -35 20 -60 21 -109 4z"/>
</g>
</svg>
