<?xml version="1.0" standalone="no"?>
<!DOCTYPE svg PUBLIC "-//W3C//DTD SVG 20010904//EN"
 "http://www.w3.org/TR/2001/REC-SVG-20010904/DTD/svg10.dtd">
<svg version="1.0" xmlns="http://www.w3.org/2000/svg"
 width="316.000000pt" height="315.000000pt" viewBox="0 0 316.000000 315.000000"
 preserveAspectRatio="xMidYMid meet">
<metadata>
Created by potrace 1.16, written by Peter Selinger 2001-2019
</metadata>
<g transform="translate(0.000000,315.000000) scale(0.100000,-0.100000)"
fill="#000000" stroke="none">
<path d="M645 3020 c-3 -5 -3 -49 1 -96 5 -65 4 -85 -5 -80 -6 4 -11 12 -11
17 0 5 -9 20 -21 32 -15 16 -18 17 -14 5 5 -13 0 -21 -18 -29 -25 -11 -25 -13
-10 -36 16 -23 15 -23 -12 -13 -38 14 -40 8 -10 -28 34 -40 32 -53 -5 -42 -26
7 -30 6 -30 -10 0 -11 15 -26 41 -38 38 -19 39 -21 20 -31 -18 -10 -19 -15 -9
-36 6 -14 15 -25 19 -25 4 0 22 -13 40 -30 33 -29 33 -29 13 -52 -10 -13 -15
-20 -10 -16 4 4 19 -5 33 -20 l25 -27 -21 29 c-23 32 -21 42 5 32 9 -4 14 -9
10 -13 -3 -3 38 -50 91 -104 86 -87 104 -101 160 -120 56 -18 83 -39 51 -39
-6 0 -9 -3 -6 -6 9 -8 60 21 84 48 48 52 68 130 44 168 -8 12 -10 9 -10 -11 0
-31 -24 -57 -35 -38 -6 8 -10 8 -16 -2 -6 -11 -9 -10 -15 4 -3 9 -12 17 -18
17 -7 0 -21 8 -32 18 -10 10 -41 33 -69 52 -96 65 -136 102 -129 119 4 9 8 25
9 37 1 11 13 42 28 69 32 56 34 66 8 34 -19 -23 -20 -23 -27 -4 -4 11 -16 26
-26 33 -24 18 -69 96 -70 124 -1 13 -5 28 -9 33 -4 6 -10 25 -14 42 -7 35 -20
49 -30 33z"/>
<path d="M1880 2977 c0 -34 -36 -84 -85 -119 -47 -33 -56 -48 -29 -48 8 0 12
-5 9 -10 -4 -6 -11 -8 -16 -5 -5 4 -12 0 -15 -8 -2 -7 -11 -14 -19 -14 -8 0
-11 5 -8 10 4 6 0 8 -9 4 -11 -4 -14 -1 -11 12 3 14 -4 21 -28 30 -17 6 -33
11 -34 11 -7 0 10 -90 21 -112 18 -36 18 -57 -1 -32 -11 14 -14 15 -15 4 0
-14 51 -79 113 -143 27 -29 29 -29 115 -25 75 4 97 9 159 41 39 20 75 41 78
48 12 18 -45 69 -77 69 -24 0 -28 4 -28 30 0 17 -5 30 -11 30 -7 0 -9 24 -7
70 2 39 0 70 -4 70 -5 0 -8 17 -8 39 0 43 -11 55 -57 64 -29 6 -33 4 -33 -16z"/>
<path d="M1242 2678 c-9 -9 -7 -19 7 -42 10 -17 26 -56 34 -86 9 -30 32 -82
52 -115 34 -58 34 -59 5 -25 -17 19 -49 73 -72 120 -23 47 -48 93 -56 103 -21
24 -57 21 -75 -6 -17 -27 -37 -93 -30 -100 2 -3 21 1 41 10 33 14 37 14 49 -3
7 -10 13 -21 13 -26 0 -15 -50 -40 -70 -35 -23 6 -23 5 -10 -45 14 -48 -2
-109 -41 -162 -33 -46 -36 -61 -13 -70 13 -5 14 -3 6 6 -11 13 -14 13 208 8
52 -1 69 -4 55 -10 -19 -8 -19 -9 -1 -9 10 -1 25 -9 33 -18 13 -16 13 -16 4 4
-22 43 -10 36 27 -19 20 -30 60 -89 88 -131 42 -60 53 -86 57 -129 3 -29 4
-44 1 -33 -11 37 -23 39 -18 3 4 -23 2 -38 -6 -43 -9 -5 -11 -4 -6 3 5 8 -1
12 -14 12 -14 0 -19 -4 -13 -12 4 -7 -12 2 -35 20 -52 42 -56 53 -4 15 20 -15
31 -21 24 -12 -7 9 -30 29 -51 44 -37 25 -40 26 -69 11 -32 -16 -44 -30 -50
-56 -13 -54 -13 -72 -1 -88 13 -16 12 -16 -5 -2 -14 11 -17 23 -13 54 4 26 2
35 -4 25 -16 -25 -10 -65 14 -87 25 -24 47 -29 47 -10 0 6 3 8 6 5 4 -4 1 -13
-6 -22 -25 -30 -3 -25 36 9 37 32 110 76 126 76 4 0 2 -11 -4 -25 -8 -17 -20
-25 -37 -26 -14 0 -20 -3 -14 -6 10 -3 10 -10 2 -24 -8 -16 -17 -19 -41 -14
-21 5 -28 4 -24 -4 4 -6 14 -11 23 -11 13 0 13 -3 3 -15 -7 -8 -17 -15 -22
-15 -6 0 -48 -38 -93 -84 -65 -66 -80 -87 -71 -97 6 -8 2 -6 -9 2 -19 15 -86
42 -90 37 -1 -2 -6 -19 -11 -38 -13 -42 -8 -60 14 -60 10 0 34 -5 54 -11 37
-10 38 -10 22 -34 -9 -14 -12 -25 -8 -26 5 -1 16 -2 24 -3 8 -2 25 -3 36 -4
60 -5 11 -131 -77 -198 -67 -52 -70 -70 -11 -67 46 2 47 1 32 -27 -9 -16 -5
-22 21 -35 24 -13 28 -19 19 -30 -8 -10 -6 -21 10 -47 19 -28 21 -29 16 -8
l-6 25 12 -25 c22 -43 31 -48 49 -31 9 9 18 25 20 35 2 11 11 22 19 24 13 5
13 3 0 -14 -8 -10 17 10 56 46 43 39 90 72 120 84 57 22 117 56 110 63 -2 3
-17 -4 -33 -15 -15 -11 -39 -23 -53 -27 -21 -6 -20 -3 8 14 18 12 36 21 41 21
5 0 14 7 21 15 7 9 21 13 30 10 18 -6 111 70 130 105 5 9 -18 -9 -51 -41 -33
-33 -65 -59 -72 -59 -6 0 2 10 18 22 17 12 51 44 78 72 26 28 48 47 48 43 1
-4 2 -13 3 -19 0 -7 9 -14 20 -16 12 -3 16 0 11 8 -4 7 25 -12 66 -42 88 -64
123 -81 247 -112 92 -23 141 -43 61 -25 -23 5 -47 8 -53 6 -6 -2 9 -7 34 -12
25 -4 51 -12 58 -17 9 -8 12 -6 12 6 0 9 5 16 10 16 14 0 12 -54 -2 -68 -9 -9
-9 -12 2 -12 8 0 26 -9 40 -19 21 -17 23 -22 12 -46 -10 -21 -10 -25 0 -18 7
4 21 9 31 10 15 3 14 -3 -9 -33 -21 -28 -25 -40 -17 -52 10 -18 6 -45 -6 -38
-4 3 -13 0 -21 -6 -12 -8 -12 -9 3 -4 20 6 21 3 5 -41 -7 -18 -17 -33 -24 -33
-6 0 -15 -7 -18 -16 -10 -25 -7 -82 4 -89 12 -7 3 -74 -12 -90 -6 -6 -7 -4 -3
5 8 22 -44 19 -56 -3 -15 -25 -18 -96 -5 -106 6 -5 35 -13 63 -17 31 -4 59
-14 69 -25 16 -18 16 -21 -7 -45 -29 -31 -63 -26 -96 14 l-23 27 15 -29 c7
-16 27 -35 42 -42 25 -11 26 -12 6 -13 -12 -1 -25 -6 -29 -13 -5 -8 0 -9 14
-6 15 4 22 2 22 -9 0 -12 -8 -13 -42 -8 -24 4 -51 11 -60 16 -10 6 -19 5 -23
-1 -3 -5 7 -12 22 -16 15 -3 62 -15 103 -26 181 -49 216 -55 205 -38 -3 6 3
10 14 10 10 0 22 -6 25 -12 3 -7 4 -4 3 7 -2 11 4 25 13 32 13 10 12 11 -6 7
-12 -3 -33 2 -47 11 -21 13 -30 14 -48 5 -12 -7 -19 -8 -15 -2 3 5 -15 15 -39
22 -43 12 -61 30 -31 30 8 0 22 7 31 16 14 14 14 18 1 33 -13 14 -13 19 0 35
20 28 17 38 -7 31 -19 -6 -21 -4 -17 19 4 19 1 26 -11 27 -9 1 -27 3 -39 4
-14 1 -33 -7 -44 -19 -18 -18 -20 -18 -14 -3 3 10 6 25 6 33 0 7 6 11 14 8 16
-6 22 8 31 82 4 33 3 54 -4 59 -6 3 -11 11 -11 17 0 6 9 3 20 -7 12 -11 18
-25 15 -36 -3 -9 -1 -20 4 -23 10 -7 51 14 51 24 0 4 -20 20 -44 37 -46 32
-56 65 -23 71 20 4 23 -24 5 -31 -9 -3 -7 -7 5 -12 22 -9 67 2 67 16 0 6 -9 9
-19 6 -22 -5 -31 10 -31 55 0 28 2 29 18 17 15 -12 16 -12 4 2 -9 12 -10 24
-3 41 5 15 5 31 0 41 -7 11 -5 24 7 42 20 31 49 34 41 4 -4 -16 -3 -18 9 -8
12 10 14 5 14 -29 0 -23 4 -43 9 -46 5 -4 7 11 4 33 -6 43 1 49 70 50 27 0 37
-4 37 -15 0 -12 5 -10 19 7 11 13 17 26 14 29 -3 3 -8 0 -10 -6 -2 -6 -14 -9
-26 -7 -26 5 -54 42 -39 52 5 3 11 15 13 25 2 11 20 28 39 39 44 24 63 43 35
33 l-20 -6 20 15 c47 34 49 38 29 45 -12 5 -26 30 -38 66 -33 101 -60 147
-121 212 -74 78 -163 141 -233 165 -57 20 -100 52 -79 61 7 2 2 5 -11 5 -15 1
-21 -3 -16 -11 4 -6 3 -8 -4 -4 -6 3 -18 20 -26 37 -15 29 -14 31 4 36 11 3
20 9 20 14 0 5 7 9 15 9 8 0 25 11 37 25 12 14 26 25 31 25 9 0 35 11 159 69
31 14 62 36 69 48 6 12 25 27 42 32 25 9 28 13 17 26 -7 8 -19 15 -26 15 -8 0
-13 3 -13 8 5 29 -3 62 -15 62 -7 0 -21 10 -29 23 l-16 22 -1 -25 -1 -25 -19
24 c-11 13 -20 20 -20 15 0 -4 7 -15 15 -24 14 -16 13 -18 -15 -23 -16 -4 -30
-11 -30 -17 0 -6 4 -8 10 -5 6 3 7 -1 4 -9 -3 -9 -13 -16 -20 -16 -16 0 -84
27 -84 33 0 2 7 18 16 36 12 24 14 46 9 87 -5 40 -2 66 10 98 22 57 17 122 -9
118 -11 -2 -15 1 -11 7 3 6 -16 -3 -44 -20 -32 -20 -48 -36 -44 -45 3 -8 1
-14 -5 -14 -6 0 -12 5 -14 11 -3 9 -10 9 -26 0 -12 -6 -47 -16 -77 -22 -69
-13 -140 5 -213 55 -33 22 -55 30 -64 25 -7 -5 -23 -9 -35 -9 -28 0 -28 -10
-7 -121 24 -123 9 -393 -19 -358 -2 2 0 69 6 149 9 140 8 148 -15 221 -15 44
-23 89 -20 108 4 30 6 31 50 31 l45 0 -20 23 c-20 22 -43 60 -43 72 0 3 10 3
22 0 63 -21 196 -41 219 -35 15 5 58 3 97 -4 68 -12 71 -11 78 8 6 17 8 13 11
-17 4 -37 5 -38 36 -32 52 10 88 27 84 39 -2 6 -18 20 -35 31 -34 22 -44 42
-12 25 11 -6 20 -8 20 -5 0 10 -74 38 -77 29 -10 -28 -21 -33 -57 -27 l-38 6
28 13 29 12 -32 1 c-18 1 -33 -3 -33 -9 0 -5 -8 -10 -17 -10 -23 0 -8 -13 30
-26 28 -10 22 -11 -53 -12 -97 -1 -156 10 -217 39 -44 21 -62 47 -41 61 10 6
7 10 -9 14 -13 4 -23 10 -23 15 0 5 -5 9 -12 9 -7 0 -29 16 -49 36 l-36 35
-17 -25 c-16 -25 -15 -28 4 -66 23 -46 25 -97 6 -160 -25 -80 -36 -98 -59 -92
-14 3 -18 1 -13 -6 4 -7 1 -12 -9 -12 -8 0 -18 7 -21 15 -4 8 -12 15 -18 15
-7 0 -25 13 -41 30 -15 16 -32 28 -38 27 -16 -3 -56 86 -51 113 4 17 3 21 -4
12 -6 -9 -14 13 -25 69 -9 45 -24 93 -32 106 -17 25 -44 30 -63 11z"/>
<path d="M2643 2595 c-60 -16 -249 -103 -241 -110 3 -3 29 6 59 20 36 16 72
25 106 25 83 0 199 29 224 56 l22 24 -59 -1 c-32 0 -82 -7 -111 -14z"/>
<path d="M2828 2504 c-3 -3 -68 -7 -144 -9 -79 -2 -167 -10 -203 -18 -69 -17
-95 -31 -40 -21 33 5 33 5 -11 -17 -33 -16 -40 -23 -27 -26 10 -3 31 0 45 6
36 14 62 16 94 7 15 -4 35 -3 46 3 11 6 22 7 24 3 3 -7 257 -53 296 -52 32 0
27 19 -7 26 -20 4 -34 17 -47 42 -10 21 -18 43 -17 50 1 13 -1 15 -9 6z"/>
<path d="M884 488 c-39 -44 -88 -113 -71 -99 16 13 17 7 17 -81 0 -74 -4 -103
-20 -136 -20 -40 -36 -59 -24 -27 12 30 -14 14 -41 -25 -34 -50 -63 -58 -169
-48 -44 4 -110 8 -145 10 -54 2 -65 5 -73 24 -9 18 -5 32 16 68 15 25 31 46
36 46 5 0 15 11 22 24 67 124 82 146 89 134 6 -9 9 -9 9 -1 0 19 -17 24 -30 8
-7 -8 -22 -15 -34 -15 -25 0 -138 -42 -158 -59 -7 -6 -40 -31 -74 -55 -33 -25
-65 -56 -72 -70 -14 -31 -5 -91 17 -109 23 -20 103 -44 186 -55 89 -13 1901
-6 2265 7 323 12 383 25 420 88 37 63 27 87 -82 195 -72 72 -108 95 -159 102
-19 2 -47 7 -64 10 -50 9 -235 16 -235 9 0 -16 95 -92 104 -83 17 17 116 -49
116 -77 0 -7 5 -13 10 -13 6 0 10 -6 10 -14 0 -8 6 -17 13 -20 23 -9 -32 -44
-90 -57 -86 -17 -150 -8 -433 66 -63 16 -104 20 -80 6 8 -5 39 -14 68 -21 51
-12 74 -40 32 -40 -11 0 -20 5 -20 11 0 5 -5 7 -11 4 -6 -4 -30 -4 -54 0 -42
6 -45 9 -55 46 -6 21 -8 54 -5 72 3 17 7 48 9 68 1 20 5 40 9 45 6 10 -285 9
-593 -1 -219 -8 -494 -10 -602 -5 -55 3 -82 0 -95 -10 -17 -14 -17 -13 1 7 10
13 22 20 27 18 4 -3 11 0 15 6 4 8 3 9 -4 5 -19 -11 -14 9 9 38 25 32 20 35
-7 4z"/>
</g>
</svg>
