<?xml version="1.0" standalone="no"?>
<!DOCTYPE svg PUBLIC "-//W3C//DTD SVG 20010904//EN"
 "http://www.w3.org/TR/2001/REC-SVG-20010904/DTD/svg10.dtd">
<svg version="1.0" xmlns="http://www.w3.org/2000/svg"
 width="1032.000000pt" height="1050.000000pt" viewBox="0 0 1032.000000 1050.000000"
 preserveAspectRatio="xMidYMid meet">
<metadata>
Created by potrace 1.16, written by Peter Selinger 2001-2019
</metadata>
<g transform="translate(0.000000,1050.000000) scale(0.100000,-0.100000)"
fill="#000000" stroke="none">
<path d="M4910 9983 c-25 -9 -53 -19 -62 -24 -9 -5 -63 -8 -120 -7 -62 1 -112
-3 -125 -10 -12 -7 -34 -12 -50 -12 -32 0 -127 -32 -149 -51 -8 -6 -14 -8 -15
-3 0 5 -4 -1 -9 -13 -5 -13 -21 -24 -42 -28 -62 -13 -97 -28 -101 -47 -8 -30
-37 -34 -57 -8 -21 28 -47 22 -52 -12 -2 -17 -10 -23 -30 -23 -15 -1 -30 -4
-34 -7 -3 -4 -12 -4 -20 -1 -13 5 -12 8 2 24 9 10 13 23 9 28 -8 14 -56 14
-92 0 -15 -6 -55 -13 -88 -16 -32 -2 -71 -10 -85 -18 -44 -25 -63 -33 -137
-60 -40 -15 -73 -30 -73 -35 0 -4 -19 -15 -42 -25 -38 -15 -43 -15 -54 -1 -22
31 -64 12 -64 -30 0 -12 -7 -24 -15 -28 -8 -3 -15 -13 -15 -22 0 -35 -83 -186
-107 -195 -16 -6 -23 -16 -23 -37 0 -15 -13 -53 -29 -84 -47 -90 -114 -383
-145 -628 -19 -156 -29 -713 -15 -819 l10 -74 -30 -31 c-36 -37 -31 -49 13
-41 26 5 41 -2 99 -47 134 -105 167 -128 181 -128 35 0 86 -118 86 -202 0 -45
-8 -68 -25 -68 -16 0 -65 -57 -65 -75 0 -8 -18 -42 -40 -76 -48 -74 -50 -108
-15 -183 23 -49 30 -55 70 -65 62 -16 94 -64 111 -173 14 -91 7 -124 -37 -169
-14 -13 -34 -37 -46 -54 -27 -38 -37 -29 -58 55 -15 59 -45 134 -112 277 -25
54 -113 317 -113 338 0 7 -6 18 -14 25 -12 9 -17 4 -26 -32 -5 -24 -15 -59
-20 -78 -5 -19 -11 -67 -13 -106 -3 -45 -11 -83 -23 -102 -18 -31 -18 -32 3
-54 11 -13 23 -31 26 -40 17 -47 -61 -306 -120 -401 -28 -45 -105 -251 -107
-287 -1 -19 5 -26 22 -28 18 -3 36 10 73 50 27 29 49 58 49 64 0 16 61 74 77
74 22 0 15 -54 -12 -90 -14 -19 -25 -39 -25 -44 0 -6 -32 -45 -70 -86 -38 -41
-70 -80 -70 -85 0 -6 -13 -16 -30 -22 -16 -6 -34 -22 -39 -36 -6 -16 -23 -29
-45 -37 -20 -6 -36 -18 -36 -25 0 -8 -13 -24 -30 -37 -50 -36 -28 -77 23 -43
20 12 27 13 33 4 4 -7 2 -15 -4 -17 -6 -2 -27 -14 -47 -28 -27 -18 -53 -25
-108 -28 -39 -3 -92 -9 -116 -13 -40 -7 -43 -9 -27 -22 31 -26 130 -63 201
-75 91 -16 118 -31 112 -62 -3 -16 4 -30 21 -46 13 -13 35 -39 47 -58 13 -19
61 -75 109 -125 47 -49 96 -109 108 -133 25 -46 38 -53 38 -22 0 29 27 25 66
-9 30 -27 90 -50 167 -66 22 -4 27 -10 25 -28 -2 -16 3 -23 20 -25 12 -2 22
-9 22 -15 0 -8 13 -11 38 -9 22 2 56 -5 85 -17 27 -12 57 -21 67 -21 10 0 28
-8 41 -19 l23 -18 -90 -43 c-49 -23 -111 -50 -139 -60 -51 -18 -129 -58 -177
-91 -14 -11 -28 -19 -31 -19 -9 0 -170 -100 -207 -129 -38 -29 -139 -89 -240
-141 -91 -47 -129 -72 -175 -115 -22 -20 -80 -56 -130 -80 -93 -45 -356 -182
-363 -189 -2 -3 16 -2 40 1 43 6 129 43 158 69 9 7 36 16 60 19 l45 6 -28 -23
c-16 -13 -50 -44 -76 -69 -42 -39 -47 -49 -43 -77 4 -31 3 -32 -30 -32 -22 0
-42 -7 -53 -20 -10 -11 -32 -25 -49 -31 -29 -10 -31 -15 -28 -48 1 -20 5 -47
8 -61 l6 -25 13 25 c8 14 14 32 15 41 1 39 103 89 116 56 3 -8 15 -15 27 -14
32 0 87 -52 87 -82 0 -26 -25 -50 -52 -51 -10 0 -25 -11 -33 -24 l-16 -24 -65
24 c-35 13 -69 26 -74 29 -6 4 -13 -1 -16 -9 -9 -22 -36 -20 -57 5 -20 23 -56
22 -67 -1 -4 -8 -12 -25 -18 -37 -19 -36 -14 -114 7 -140 11 -13 27 -23 36
-23 11 0 15 -6 11 -17 -3 -11 9 -41 29 -73 30 -48 32 -57 19 -71 -8 -8 -14
-20 -14 -25 -1 -25 -18 -36 -38 -25 -17 9 -23 7 -36 -10 -8 -12 -12 -28 -9
-35 4 -10 -5 -14 -33 -14 -39 -1 -74 -18 -74 -38 0 -5 27 -13 61 -17 61 -7 83
-25 60 -48 -6 -6 -11 -22 -11 -35 0 -36 -31 -24 -45 18 l-12 35 -6 -30 c-4
-16 -6 -39 -4 -50 1 -12 -5 -21 -18 -23 -11 -2 -28 -11 -37 -19 -24 -22 -98
-9 -134 22 -23 20 -25 25 -11 25 23 0 22 37 -2 50 -28 14 -54 2 -49 -24 3 -12
0 -27 -6 -34 -29 -30 -36 -43 -36 -62 0 -21 -16 -26 -39 -11 -11 7 -10 12 8
22 51 33 4 44 -91 23 -23 -5 -29 -2 -38 20 -14 39 -29 32 -24 -12 10 -72 14
-82 29 -76 8 4 27 -2 42 -11 l26 -18 -25 -13 c-22 -12 -26 -21 -30 -76 -4 -54
-2 -65 16 -80 12 -10 27 -17 34 -18 24 0 12 -20 -13 -20 -19 0 -25 -5 -25 -22
-1 -20 -6 -17 -43 25 -27 30 -50 47 -64 47 -13 0 -23 4 -23 10 0 5 10 9 23 7
33 -3 28 25 -8 42 -16 8 -32 18 -33 23 -2 5 -15 22 -28 37 -13 16 -22 36 -18
44 4 11 -6 16 -40 21 -25 4 -46 12 -46 18 0 5 -12 23 -27 38 -22 23 -30 27
-46 19 -14 -8 -23 -7 -36 5 -10 9 -21 16 -26 16 -5 0 -19 10 -31 21 -25 23
-54 20 -54 -6 0 -9 7 -18 15 -21 41 -16 -5 -51 -97 -75 -27 -6 -48 -17 -48
-24 0 -8 -16 -10 -54 -7 -45 4 -58 1 -77 -17 -13 -11 -27 -21 -32 -21 -5 0 -7
-10 -3 -23 5 -20 0 -24 -37 -34 -27 -8 -44 -8 -48 -2 -4 7 -19 7 -40 2 -45
-12 -53 -48 -14 -63 21 -8 25 -14 19 -33 -4 -12 -10 -24 -14 -27 -4 -3 -10
-26 -14 -52 -4 -25 -14 -52 -21 -58 -22 -18 -18 -35 11 -49 21 -9 24 -14 14
-26 -9 -11 -17 -12 -31 -4 -10 5 -19 14 -19 19 0 6 -11 10 -25 10 -14 0 -36
11 -48 24 -77 81 -104 113 -117 137 -8 14 -25 44 -37 66 -29 53 -51 72 -64 52
-5 -8 -9 -27 -9 -44 0 -39 -39 -89 -62 -80 -16 6 -15 12 7 71 13 36 31 75 40
87 8 12 15 28 15 37 1 21 42 65 79 84 17 9 31 23 31 31 0 20 40 45 72 45 16 0
28 4 28 9 0 5 8 12 18 14 16 4 16 5 0 6 -10 0 -18 5 -18 10 0 13 70 52 81 45
14 -9 39 15 32 32 -3 8 -1 14 3 14 5 0 26 16 47 35 21 19 40 35 42 35 7 1 36
10 68 22 19 7 27 17 27 34 0 17 6 24 20 24 10 0 24 9 30 19 14 28 75 62 94 55
27 -10 95 27 93 51 -2 15 21 31 108 77 127 66 235 118 245 118 4 0 13 6 19 14
7 8 26 18 43 21 33 8 81 30 173 79 33 18 107 57 165 88 58 30 143 75 190 100
47 25 168 89 270 143 102 53 205 109 230 124 25 14 57 31 73 38 25 11 27 15
22 55 -10 77 -64 278 -103 388 -16 47 -42 135 -57 195 -32 133 -104 365 -152
495 -19 52 -39 112 -44 133 -5 21 -13 45 -18 55 -5 9 -20 44 -32 77 -12 33
-35 86 -51 117 -15 32 -28 63 -28 70 0 15 -50 90 -67 101 -7 4 -13 14 -13 21
0 20 -164 186 -184 186 -13 0 -9 -13 20 -67 19 -36 48 -82 65 -101 24 -27 28
-37 18 -48 -17 -21 -36 -17 -56 12 -10 14 -30 40 -44 57 -14 18 -38 57 -53 87
-48 98 -81 150 -103 165 l-23 16 6 -58 c3 -32 2 -76 -3 -98 l-9 -39 -17 49
c-26 72 -76 166 -106 198 -14 15 -47 42 -74 59 -44 28 -50 30 -74 17 -23 -12
-27 -11 -47 12 -11 15 -28 40 -37 57 -11 19 -28 32 -48 37 -17 3 -35 13 -39
22 -5 9 -29 17 -55 20 -42 5 -46 3 -61 -24 -8 -17 -13 -39 -10 -49 2 -10 0
-25 -5 -33 -7 -11 -12 -11 -32 2 -46 29 -74 29 -105 1 l-28 -26 30 -13 29 -12
-26 -6 c-15 -4 -29 -16 -32 -27 -6 -22 -43 -28 -50 -7 -10 28 -21 -9 -22 -76
-2 -87 -14 -165 -27 -173 -23 -15 -142 91 -153 136 -4 14 -14 34 -24 45 -10
11 -24 36 -31 55 -7 19 -19 42 -26 51 -8 8 -17 33 -22 55 -6 29 -13 39 -27 39
-23 0 -33 -34 -14 -46 10 -6 10 -10 0 -23 -15 -18 -7 -52 15 -60 12 -4 12 -9
2 -25 -15 -25 4 -51 38 -51 16 0 28 -8 36 -25 6 -13 19 -27 29 -30 14 -5 16
-13 13 -38 -5 -27 -1 -35 23 -51 22 -14 29 -27 30 -52 1 -39 -21 -47 -32 -12
-4 11 -25 38 -46 59 -25 25 -39 47 -39 64 0 20 -5 25 -26 25 -22 0 -79 30 -94
51 -3 3 -15 9 -27 13 -13 4 -23 12 -23 17 0 6 -16 17 -36 25 -19 8 -59 34 -88
57 -43 34 -53 46 -49 65 7 30 -13 52 -49 52 -26 0 -29 3 -22 23 3 12 11 24 15
25 5 2 9 12 9 23 0 14 -7 19 -30 19 l-30 0 0 -240 c0 -221 2 -244 20 -280 25
-50 25 -75 0 -100 -37 -37 -18 -102 34 -117 39 -11 59 -50 51 -97 -6 -29 -12
-35 -39 -40 -17 -3 -39 -15 -49 -26 -21 -25 -22 -87 -1 -128 14 -29 14 -35 0
-64 -13 -25 -16 -69 -16 -226 l0 -195 23 19 c68 61 192 59 229 -4 17 -29 39
-128 30 -137 -3 -3 -54 -5 -114 -5 -107 0 -109 0 -106 -22 6 -42 72 -57 144
-33 20 6 54 -15 54 -35 0 -17 -87 -50 -131 -50 -24 0 -63 9 -87 20 l-42 19 0
-1192 c1 -989 3 -1188 14 -1168 11 20 14 21 19 7 4 -10 -1 -24 -13 -36 -20
-20 -20 -38 -20 -1215 l0 -1195 5160 0 5160 0 -2 1752 -3 1753 -58 -3 c-46 -3
-63 1 -87 18 -17 12 -30 17 -30 11 0 -6 -10 -11 -21 -11 -18 0 -20 5 -16 26 3
15 0 28 -8 30 -7 3 -15 15 -18 26 -3 11 -10 17 -16 14 -6 -4 -36 1 -67 10 -42
12 -65 14 -94 6 -30 -7 -41 -6 -53 5 -22 23 -117 27 -132 6 -7 -10 -19 -14
-29 -10 -24 9 -20 26 10 37 38 15 27 41 -26 56 -57 17 -172 18 -189 1 -10 -10
-14 -9 -22 6 -12 21 -69 24 -69 2 0 -7 8 -18 17 -24 24 -13 12 -23 -39 -32
-24 -4 -53 -10 -64 -14 -18 -5 -23 -1 -29 22 -5 15 -7 32 -6 36 1 5 -3 6 -9 2
-5 -3 -10 -18 -10 -33 -1 -20 -10 -33 -37 -50 l-36 -23 -29 21 c-16 12 -32 19
-35 17 -8 -9 7 -27 23 -27 17 0 17 -7 3 -51 -15 -44 -14 -43 -39 -29 -20 11
-21 13 -5 30 15 17 15 20 0 44 -13 20 -23 24 -40 20 -20 -5 -23 -3 -18 14 2
11 0 23 -6 26 -6 4 -11 3 -11 -2 0 -6 -13 -15 -30 -21 -16 -5 -30 -16 -30 -24
0 -12 -20 -27 -36 -27 -14 0 -1 33 15 37 16 4 17 8 6 41 -9 26 -20 38 -36 40
-37 6 -86 50 -93 82 -4 24 -11 30 -31 30 -14 0 -25 -4 -25 -10 0 -22 24 -59
46 -69 27 -12 33 -48 9 -57 -8 -4 -15 -15 -15 -26 0 -23 -17 -58 -29 -58 -5 0
-9 10 -9 23 -1 36 -14 91 -24 104 -16 20 -28 16 -38 -12 -5 -14 -15 -25 -21
-25 -6 0 -8 7 -5 16 10 25 -12 56 -35 49 -11 -4 -19 -2 -19 4 0 6 7 11 15 11
20 0 19 29 -1 37 -10 4 -22 -1 -30 -12 -13 -17 -24 -16 -56 7 -23 17 -49 -5
-30 -24 19 -19 14 -37 -8 -31 -11 3 -20 14 -20 25 0 35 -39 58 -87 52 -38 -6
-43 -4 -43 14 0 11 7 26 16 33 14 11 18 10 29 -5 17 -23 35 -13 35 20 0 19 5
24 26 24 24 0 26 -3 21 -30 -6 -26 -3 -30 14 -30 12 0 23 8 26 19 3 12 11 17
22 14 21 -5 45 21 37 42 -3 8 -17 15 -31 15 -22 0 -25 3 -19 25 6 23 4 25 -31
25 -41 0 -45 -21 -6 -30 20 -4 17 -7 -17 -16 -39 -10 -42 -10 -72 21 -25 26
-31 40 -32 78 0 31 -5 47 -13 47 -7 0 -24 15 -38 33 -26 35 -23 58 8 63 25 4
31 14 15 24 -20 13 -40 12 -40 0 0 -5 -14 -10 -31 -10 -22 0 -32 5 -36 20 -8
32 -23 23 -16 -10 4 -23 2 -30 -10 -30 -19 0 -36 29 -29 48 2 8 -5 27 -17 43
-11 15 -21 37 -21 48 0 11 -8 26 -18 33 -23 17 -52 63 -52 83 0 8 -30 44 -66
80 -42 41 -64 71 -62 82 6 30 32 20 51 -20 18 -39 38 -54 58 -42 7 5 5 14 -10
29 -51 52 -79 96 -107 163 -25 64 -34 75 -66 87 -62 26 -66 56 -4 37 20 -6 53
-16 74 -22 20 -6 60 -22 87 -34 111 -51 160 -69 254 -94 40 -11 78 -24 85 -29
6 -5 40 -19 76 -31 64 -21 83 -27 170 -51 25 -6 53 -16 62 -21 10 -5 28 -9 41
-9 30 0 117 -29 137 -45 26 -22 153 -73 280 -113 36 -12 85 -28 110 -38 25 -9
59 -20 75 -25 64 -17 142 -47 175 -68 19 -11 41 -21 47 -21 7 0 41 -13 75 -29
126 -57 195 -74 184 -45 -5 14 -1 15 31 9 40 -7 115 -35 173 -65 19 -10 46
-21 60 -25 14 -4 63 -24 110 -45 47 -21 97 -42 113 -45 l27 -7 0 954 0 954
-47 12 c-27 6 -77 11 -112 12 -35 0 -69 5 -76 10 -7 5 -15 7 -18 3 -4 -3 -7
-1 -7 5 0 7 -10 12 -22 12 -17 0 -19 -3 -9 -9 11 -7 10 -11 -6 -19 -11 -6 -29
-9 -40 -6 -21 6 -40 -20 -22 -31 11 -7 2 -25 -12 -25 -6 0 -8 4 -4 9 3 5 1 12
-4 15 -5 3 -7 15 -4 27 6 22 -11 39 -37 38 -8 0 -4 -5 10 -10 24 -10 24 -11 6
-25 -12 -8 -15 -14 -7 -14 11 0 11 -3 1 -15 -7 -9 -8 -15 -2 -15 5 0 8 -9 5
-20 -5 -19 -12 -20 -87 -17 -44 2 -93 0 -108 -6 -22 -7 -34 -4 -59 13 l-31 23
-21 -22 c-12 -11 -22 -33 -23 -48 l-1 -28 -144 3 c-79 2 -164 -1 -189 -7 -40
-9 -50 -8 -99 16 -52 27 -53 27 -67 8 -40 -60 -76 -69 -125 -35 -15 12 -59 30
-96 41 -37 10 -117 34 -178 53 -60 18 -150 45 -200 59 -49 14 -155 45 -235 67
-80 23 -174 50 -210 61 -36 10 -86 18 -112 18 l-48 1 -6 41 c-4 22 -13 43 -20
46 -20 7 -63 -29 -64 -55 0 -12 -9 -30 -20 -39 -11 -10 -20 -22 -20 -29 0 -6
-9 -19 -20 -29 -18 -16 -28 -45 -15 -45 3 0 24 13 47 30 52 38 78 38 204 1 54
-16 169 -47 254 -70 85 -23 189 -51 230 -63 41 -11 104 -29 140 -39 42 -12
101 -19 165 -19 116 -1 154 -12 223 -66 52 -41 75 -74 66 -97 -3 -8 -61 -70
-129 -140 -105 -107 -130 -127 -162 -132 -21 -3 -65 -10 -98 -16 -76 -12 -193
-21 -880 -69 -88 -7 -177 -14 -198 -17 -34 -5 -38 -3 -35 13 2 10 17 23 33 28
17 5 39 12 50 17 11 5 33 13 48 19 40 14 137 82 173 121 55 61 106 169 78 169
-18 0 -136 -64 -141 -76 -3 -8 -10 -14 -16 -14 -6 0 -41 -16 -78 -35 -57 -29
-69 -32 -79 -20 -10 13 -16 13 -47 0 -51 -21 -126 -20 -146 3 -23 25 -21 39 4
53 27 14 89 3 89 -16 0 -18 20 -19 54 -4 18 9 29 9 38 1 24 -20 75 -11 87 14
6 14 19 24 30 24 25 0 36 17 22 33 -7 9 -38 13 -96 12 -47 -1 -88 2 -91 6 -2
4 9 17 25 28 34 24 59 81 36 81 -8 0 -19 -9 -25 -20 -6 -11 -20 -20 -31 -20
-11 0 -22 -6 -25 -14 -6 -14 -71 -53 -77 -46 -2 3 -1 34 2 70 6 60 8 66 36 79
17 7 39 21 50 30 11 10 33 23 48 29 15 7 25 17 22 22 -9 15 -31 12 -45 -6 -15
-18 -61 -15 -68 4 -2 7 5 16 17 19 25 6 26 11 5 34 -15 17 -15 23 0 83 30 120
26 116 103 116 38 1 82 7 98 14 l30 14 -30 12 c-16 6 -51 16 -77 22 -53 13
-61 25 -60 96 2 61 10 82 33 82 18 0 41 -10 214 -99 44 -22 100 -43 125 -47
25 -3 75 -14 111 -25 118 -34 182 -22 217 40 41 73 24 109 -28 61 -31 -29 -36
-30 -107 -27 -73 4 -75 5 -100 41 -19 25 -34 36 -52 36 -14 0 -46 10 -71 21
-25 11 -65 27 -90 36 -25 8 -73 33 -108 55 -73 45 -119 49 -115 11 3 -27 -9
-30 -28 -6 -11 13 -11 17 -1 20 6 3 12 19 12 36 0 18 5 52 11 77 9 38 8 46 -9
60 -18 14 -24 72 -9 86 4 4 30 -13 59 -38 74 -63 87 -68 175 -68 60 0 85 5
111 20 41 25 41 36 -2 44 -19 4 -39 13 -46 21 -7 8 -21 15 -31 15 -10 0 -20 4
-23 9 -3 5 -21 12 -39 15 -21 4 -54 27 -95 66 -60 57 -82 71 -82 52 0 -5 -18
-21 -40 -38 -22 -16 -40 -37 -40 -46 0 -10 -9 -27 -19 -37 -20 -20 -37 -19
-93 4 -24 10 -41 -29 -39 -91 1 -29 -3 -55 -9 -59 -6 -3 -8 -10 -5 -14 2 -5
-4 -16 -15 -26 -19 -17 -21 -17 -38 -2 -10 10 -26 17 -34 17 -9 0 -18 6 -21
13 -2 6 -7 9 -11 6 -4 -4 0 -14 10 -23 12 -13 15 -27 10 -60 -4 -26 -1 -65 8
-101 16 -59 13 -99 -9 -125 -7 -8 -15 -26 -17 -40 -5 -37 -53 -41 -69 -6 -13
28 -51 46 -57 27 -2 -6 -20 -11 -39 -11 -32 0 -34 2 -22 17 9 10 9 14 2 10 -7
-5 -17 1 -23 13 -16 30 -28 16 -23 -27 3 -31 0 -42 -21 -58 l-26 -20 29 -43
c30 -46 31 -82 4 -114 -9 -9 -18 -37 -20 -62 -5 -37 -10 -47 -33 -56 -23 -9
-34 -8 -59 4 -42 22 -51 43 -41 96 5 25 9 48 10 51 0 4 11 17 24 31 19 18 25
35 25 69 1 83 -10 184 -25 216 -8 17 -14 36 -14 41 0 6 -7 18 -16 26 -14 15
-14 16 1 16 12 0 15 5 10 18 -4 9 -10 40 -12 69 -5 43 -9 52 -26 55 -22 3 -39
49 -58 157 -6 30 -17 60 -27 67 -14 10 -15 15 -4 25 6 7 12 10 12 6 0 -3 11
-2 25 3 31 12 55 3 55 -20 0 -27 27 -32 44 -8 10 14 28 23 52 24 20 2 42 8 50
15 8 6 20 9 27 6 7 -3 24 1 38 9 13 7 50 13 82 14 43 0 66 5 84 20 14 11 22
20 18 20 -4 0 -3 6 4 13 7 10 7 17 0 24 -8 8 -6 18 6 37 20 30 14 89 -11 114
-21 20 -13 46 14 50 17 3 21 8 17 21 -4 14 2 22 25 31 16 7 30 18 30 24 0 6
17 28 39 49 26 25 42 53 51 85 26 101 41 139 69 172 28 34 28 34 54 17 37 -24
54 -21 69 11 10 20 22 28 47 30 32 3 33 3 26 -27 -6 -30 -6 -31 32 -31 21 1
85 5 143 10 109 10 235 20 605 46 121 8 299 23 395 32 l175 17 5 150 c4 118 2
158 -9 185 -12 27 -15 94 -16 308 -1 150 -6 277 -11 282 -5 5 -31 10 -59 12
-45 3 -50 6 -53 28 -2 14 -8 30 -12 35 -9 11 -208 10 -317 -2 -45 -4 -53 -2
-65 16 -15 25 -31 27 -48 6 -7 -8 -23 -15 -36 -15 -36 0 -43 50 -19 128 7 21
5 22 -43 22 -60 0 -73 -13 -36 -37 30 -19 54 -67 47 -94 -8 -27 -55 -33 -273
-34 -188 0 -195 1 -195 20 0 11 -4 37 -9 58 -10 44 4 67 41 67 16 0 27 -7 30
-19 10 -39 265 -17 272 24 1 6 -29 12 -65 15 -76 6 -102 26 -72 56 14 14 68
18 440 25 232 5 433 11 446 14 13 3 22 11 19 18 -5 15 -634 11 -1115 -7 -291
-11 -315 -13 -328 -31 -9 -13 -11 -22 -4 -29 5 -5 10 -52 10 -104 0 -100 6
-120 52 -168 28 -30 31 -31 56 -18 35 18 113 18 138 -1 18 -13 16 -14 -26 -16
-25 -1 -65 -1 -89 -1 -42 0 -43 0 -37 -29 3 -16 9 -42 12 -59 9 -45 -10 -38
-81 28 -79 72 -205 180 -314 269 -46 37 -103 84 -126 103 -139 115 -500 347
-597 384 -27 10 -48 22 -48 27 0 16 29 10 82 -17 56 -28 168 -45 168 -26 0 25
-206 107 -288 115 -41 4 -56 -5 -27 -17 8 -3 15 -12 15 -21 0 -11 -7 -14 -25
-10 -14 3 -36 7 -50 10 -25 5 -56 45 -35 45 5 0 10 5 10 10 0 6 -9 10 -19 10
-11 0 -47 7 -80 16 -34 8 -65 13 -70 10 -5 -3 -28 1 -52 8 -122 39 -507 56
-644 29 -33 -7 -94 -19 -135 -26 -151 -29 -302 -79 -410 -136 -137 -73 -230
-127 -260 -150 -19 -15 -45 -33 -57 -40 -89 -47 -451 -409 -593 -592 -14 -18
-65 -83 -115 -145 -49 -62 -117 -149 -150 -195 -78 -107 -183 -214 -218 -223
-31 -7 -74 10 -91 36 -8 13 -6 22 11 40 11 13 30 43 41 68 11 25 56 94 100
153 45 60 84 117 87 128 4 10 10 19 15 19 5 0 27 26 48 58 21 31 57 84 80 117
22 33 52 71 66 84 14 14 26 28 26 33 0 15 161 166 248 234 191 148 300 213
557 331 88 40 161 77 163 83 7 21 -30 21 -86 0 -31 -12 -82 -31 -112 -42 -30
-12 -129 -58 -220 -103 -171 -85 -215 -102 -224 -86 -12 18 350 202 424 217
19 3 42 12 50 19 32 28 279 115 325 115 56 0 173 36 205 64 17 14 36 26 42 26
5 0 24 6 41 14 53 24 161 26 236 6 46 -12 120 -19 246 -23 103 -3 236 -15 310
-26 119 -19 167 -30 338 -75 79 -22 88 -21 78 6 -6 16 -22 26 -54 34 -26 7
-47 10 -47 7 0 -3 -6 -1 -12 4 -7 6 -39 13 -72 17 -51 6 -174 39 -201 54 -5 4
-16 7 -25 7 -24 2 -114 37 -131 52 -8 7 -29 17 -45 23 -17 6 -38 26 -52 50
-17 31 -32 42 -65 51 -23 7 -47 19 -54 26 -9 11 -19 12 -46 5 -38 -11 -77 6
-77 32 0 26 -53 38 -116 27 -100 -19 -125 -15 -160 23 -18 19 -34 40 -36 47
-3 9 -9 9 -25 1 -25 -14 -78 1 -87 24 -6 16 -42 19 -51 4 -12 -19 -35 -10 -45
16 -8 21 -13 24 -25 14 -18 -15 -51 2 -60 30 -5 16 -15 20 -53 19 -26 0 -67
-7 -92 -16z m753 -1613 c10 0 15 -5 12 -11 -4 -6 1 -16 11 -24 15 -11 17 -16
7 -26 -7 -7 -13 -22 -13 -34 0 -32 -64 -57 -123 -49 -40 6 -50 12 -74 48 -15
22 -31 43 -35 44 -43 19 114 68 177 56 11 -2 28 -4 38 -4z m2042 -237 c148 -6
175 -12 175 -42 0 -28 -19 -38 -88 -46 -42 -5 -65 -12 -71 -23 -8 -14 -12 -15
-22 -4 -8 7 -43 12 -96 12 -80 0 -112 14 -58 25 14 3 36 7 50 10 14 3 25 12
25 20 0 15 -21 22 -75 27 -20 2 -31 9 -33 22 -3 16 0 18 25 12 15 -4 91 -9
168 -13z m700 -7 c23 -17 14 -43 -20 -56 -43 -16 -210 -13 -225 5 -18 21 -8
48 20 56 47 13 205 10 225 -5z m-4572 -273 c2 -21 4 -63 3 -93 -1 -52 -2 -55
-28 -58 -15 -2 -38 4 -50 12 -12 9 -32 16 -44 16 -13 0 -31 11 -41 24 -10 13
-36 29 -57 37 -61 22 -59 57 4 60 14 0 48 9 75 19 28 9 69 18 91 19 41 1 42 0
47 -36z m-185 -192 c32 -16 64 -36 71 -45 9 -11 30 -16 67 -16 60 0 57 4 75
-105 28 -167 107 -320 229 -446 87 -89 150 -129 255 -162 56 -18 192 -43 215
-40 8 2 58 9 110 16 52 8 111 14 130 14 19 0 36 5 38 12 2 6 21 14 43 17 21 4
39 10 39 15 0 5 9 9 19 9 10 0 38 9 62 19 33 15 45 17 51 8 4 -7 8 -8 8 -4 0
5 5 5 10 2 8 -5 8 -11 1 -19 -6 -7 -9 -22 -7 -33 6 -27 -13 -113 -25 -113 -5
0 -9 -7 -9 -15 0 -8 -13 -28 -29 -44 -29 -30 -46 -82 -58 -185 -4 -34 -3 -47
4 -43 7 5 9 0 6 -13 -4 -15 0 -20 16 -20 11 0 21 -3 22 -7 0 -5 2 -16 4 -26 3
-18 -8 -47 -50 -127 -13 -25 -34 -65 -47 -90 -13 -25 -26 -47 -29 -50 -3 -3
-14 -20 -24 -39 -14 -27 -18 -64 -20 -164 -3 -129 -3 -130 24 -153 14 -13 30
-24 34 -24 4 0 21 16 38 35 21 24 40 35 58 35 30 0 51 16 51 40 0 52 117 72
268 46 105 -18 434 -40 469 -31 13 3 119 10 236 15 128 6 238 16 277 26 127
31 146 30 179 -7 17 -18 28 -36 25 -40 -2 -4 9 -16 26 -26 17 -9 29 -22 27
-28 -19 -49 -18 -53 13 -60 16 -4 30 -11 30 -16 0 -6 13 -1 29 10 16 12 34 21
40 21 6 0 11 7 11 15 0 8 -5 15 -11 15 -7 0 -8 7 -4 18 7 15 10 33 14 70 0 6
7 12 15 12 7 0 16 10 19 21 5 19 10 21 44 14 36 -6 65 -33 70 -64 1 -7 13 -26
27 -40 30 -31 33 -57 11 -81 -16 -18 -11 -50 9 -51 6 0 2 -4 -9 -9 -17 -7 -17
-9 -2 -9 9 -1 17 -5 17 -10 0 -6 -12 -6 -31 -1 -18 5 -36 7 -41 4 -11 -7 -38
21 -38 40 0 10 -9 16 -21 16 -19 0 -20 -4 -14 -49 11 -82 4 -91 -68 -91 -74 0
-107 8 -107 25 0 7 -17 12 -45 13 -25 1 -45 -2 -45 -8 0 -13 -47 -13 -55 0 -4
7 -13 7 -26 0 -11 -6 -23 -8 -28 -5 -5 3 -16 -1 -24 -9 -20 -20 -85 -12 -111
13 -15 15 -21 37 -24 86 l-4 65 -37 9 c-104 25 -186 34 -271 28 -50 -4 -99
-11 -108 -16 -9 -5 -33 -12 -53 -15 -52 -8 -68 -16 -74 -36 -6 -20 0 -66 15
-104 5 -15 5 -37 0 -55 -5 -17 -6 -31 -2 -31 4 -1 -7 -13 -25 -28 -37 -32 -55
-82 -29 -82 8 0 18 -11 22 -25 6 -24 28 -30 30 -9 2 25 17 44 28 36 6 -5 25
-10 43 -10 50 -1 100 -29 106 -60 7 -37 -1 -52 -32 -54 -52 -3 -56 -4 -69 -12
-7 -4 -9 -12 -6 -18 4 -6 0 -14 -7 -19 -11 -7 -10 -9 4 -9 9 0 17 -7 17 -16 0
-9 6 -14 13 -11 39 15 56 17 62 7 3 -5 22 -10 41 -10 34 0 84 -35 84 -60 0
-12 -47 -14 -54 -1 -3 5 -14 11 -25 14 -16 4 -25 -7 -50 -60 l-31 -64 -23 23
c-52 54 -65 52 -115 -20 -26 -35 -49 -41 -59 -14 -4 9 -15 28 -25 41 -24 32
-23 61 5 91 34 38 25 67 -23 75 -28 5 -44 3 -53 -7 -22 -21 -38 -58 -32 -68
10 -16 -15 -11 -43 8 -50 35 -58 34 -71 -8 -15 -52 -53 -115 -68 -115 -7 0
-24 15 -38 34 -42 58 -64 61 -90 12 -12 -24 -21 -28 -63 -30 -51 -2 -127 24
-150 52 -14 17 -43 13 -80 -11 -32 -21 -69 -3 -74 35 -5 48 -56 40 -86 -14
-19 -33 -92 19 -92 65 0 20 -11 34 -39 55 -22 15 -44 27 -50 27 -14 0 -31 -33
-31 -62 0 -47 -14 -52 -59 -24 -40 26 -48 45 -35 80 3 9 15 16 25 16 10 0 19
5 19 11 0 18 32 38 60 39 47 1 71 11 65 29 -3 10 -2 37 3 62 9 53 5 79 -13 79
-24 0 -73 -56 -84 -97 -10 -35 -17 -44 -46 -53 -27 -9 -35 -17 -35 -36 0 -16
-10 -28 -32 -40 -18 -9 -39 -25 -46 -35 -9 -13 -26 -19 -53 -19 -22 0 -38 4
-34 9 3 5 -4 12 -15 16 -11 3 -20 10 -20 14 0 5 -14 11 -32 15 -37 7 -98 51
-98 71 0 8 -16 26 -35 41 -19 14 -35 35 -35 46 0 25 -26 74 -42 81 -7 2 -19
22 -27 43 -36 104 -119 248 -178 312 -22 24 -23 33 -23 162 0 108 -4 144 -17
170 -9 19 -22 61 -29 94 -8 34 -21 93 -29 131 -9 39 -25 121 -35 183 -11 62
-25 122 -30 133 -6 10 -15 38 -19 61 -5 24 -19 88 -31 143 -13 63 -19 120 -16
155 2 30 9 111 15 180 9 115 36 308 46 338 7 19 30 15 93 -17z m2159 -528 c70
-28 146 -70 151 -84 5 -12 154 -11 185 0 35 14 98 -4 125 -34 40 -46 23 -100
-34 -111 -27 -5 -32 -3 -37 18 -10 36 -44 68 -76 68 -16 0 -71 -16 -122 -35
-85 -31 -100 -40 -154 -98 -68 -73 -101 -86 -145 -60 -17 9 -30 21 -30 25 0 4
-19 27 -43 52 -43 44 -44 44 -131 51 -100 9 -132 -1 -142 -41 -4 -14 -1 -44 6
-65 17 -51 6 -63 -49 -54 -29 5 -50 17 -76 46 -30 33 -35 46 -35 88 0 42 5 53
32 80 40 39 90 64 184 91 39 11 83 29 97 40 18 15 47 21 111 26 47 4 86 11 86
15 0 15 27 10 97 -18z m-2308 -742 c6 -11 14 -51 17 -90 l7 -71 -29 0 c-16 1
-39 6 -50 13 -26 14 -74 71 -74 85 0 6 16 27 37 47 40 39 77 45 92 16z m2184
-27 c10 -3 15 -17 14 -37 -2 -25 -9 -35 -31 -47 l-30 -14 25 -7 24 -7 -25 -1
c-44 -2 -68 -12 -73 -32 -3 -12 -14 -19 -29 -19 -12 0 -66 -11 -118 -24 -70
-17 -115 -36 -170 -70 -41 -25 -84 -46 -95 -46 -25 0 -101 -34 -121 -55 -22
-21 -39 -19 -58 10 -20 31 -20 51 -1 59 9 3 22 21 30 40 12 28 25 38 72 56 32
12 67 30 78 39 11 10 45 26 75 36 30 10 57 21 60 24 5 6 20 13 120 56 65 28
92 39 120 49 17 6 110 -1 133 -10z m-5543 -71 c71 -38 114 -67 125 -85 17 -30
13 -48 -11 -48 -10 0 -13 -7 -8 -24 4 -16 1 -25 -11 -30 -11 -4 -33 10 -71 46
-30 29 -54 56 -54 60 0 5 11 8 25 8 29 0 33 20 7 42 -9 8 -43 27 -74 42 -53
25 -74 46 -47 46 6 0 59 -26 119 -57z m3013 -183 c-3 -72 -109 -254 -177 -306
-25 -19 -46 -43 -46 -52 0 -23 -19 -42 -41 -42 -12 0 -16 6 -12 19 3 10 0 22
-6 25 -24 15 -9 47 43 91 58 49 172 200 189 250 21 63 53 73 50 15z m723 -923
c8 -25 54 -77 68 -77 6 0 20 -14 30 -31 10 -17 39 -53 65 -79 25 -26 64 -70
86 -98 22 -29 44 -52 48 -52 4 0 25 -11 45 -25 20 -14 43 -25 51 -25 15 0 63
-47 80 -79 6 -11 28 -25 49 -31 20 -5 53 -20 72 -32 39 -25 110 -47 153 -48
32 0 107 -41 152 -82 16 -15 42 -33 57 -39 16 -6 28 -15 28 -19 0 -4 22 -10
48 -14 26 -3 57 -12 67 -19 11 -7 36 -14 55 -16 19 -2 44 -8 54 -13 11 -6 33
-11 50 -12 21 -1 32 -8 36 -22 9 -35 45 -71 78 -79 39 -8 72 1 72 21 0 15 25
17 160 15 62 -1 67 1 108 39 24 22 50 40 58 40 33 0 8 33 -35 46 -24 7 -56 25
-72 40 -23 22 -33 25 -56 19 -15 -5 -31 -9 -35 -9 -3 -1 -10 -4 -13 -8 -10 -9
-45 9 -45 24 0 6 -7 16 -15 22 -8 6 -16 22 -17 36 -3 24 -1 25 55 23 39 -1 65
-7 77 -18 14 -13 23 -14 39 -6 11 6 30 11 43 11 14 0 35 13 50 30 43 49 118
39 118 -17 0 -28 14 -29 42 -3 17 15 30 18 64 13 40 -5 44 -4 44 16 0 11 6 21
13 22 127 5 163 -1 172 -31 11 -34 33 -45 53 -26 25 22 54 21 50 -1 -2 -11
-14 -19 -31 -21 -16 -2 -37 -12 -48 -23 -29 -29 -109 -24 -109 7 0 21 -13 17
-56 -19 -50 -41 -120 -87 -135 -87 -6 0 -22 9 -36 19 l-24 20 -29 -26 c-38
-33 -49 -82 -24 -97 26 -14 43 -16 50 -5 9 15 27 10 21 -6 -8 -20 9 -28 71
-31 56 -3 82 -16 82 -42 0 -18 46 -62 64 -62 8 0 17 15 20 34 11 57 21 60 151
53 69 -3 83 -10 95 -43 12 -29 20 -30 49 -3 14 13 30 19 43 16 14 -4 27 1 39
18 13 16 26 21 40 18 20 -5 19 -7 -7 -34 -16 -17 -24 -34 -21 -43 9 -23 63
-20 79 3 7 10 24 22 37 26 13 4 53 27 88 51 35 24 69 44 74 44 5 0 18 15 29
33 11 17 20 29 20 25 0 -4 11 4 25 17 13 14 33 25 45 25 11 0 23 7 26 15 4 8
14 15 23 15 9 0 25 9 34 21 15 17 25 19 58 14 42 -7 54 7 21 24 -15 8 -19 23
-20 68 -1 53 1 60 29 82 l31 24 35 -38 c36 -39 38 -67 10 -123 -16 -32 5 -44
65 -37 56 7 83 -13 73 -52 -4 -19 -1 -26 15 -30 11 -3 20 -10 21 -17 6 -136 2
-266 -8 -266 -7 0 -13 -7 -13 -15 0 -8 4 -15 9 -15 13 0 7 -110 -6 -118 -6 -4
-13 -17 -17 -29 -7 -21 -104 -113 -120 -113 -8 0 -63 -48 -95 -84 -14 -16 -37
-39 -50 -50 -13 -12 -60 -57 -105 -101 -44 -44 -106 -100 -136 -125 -30 -25
-77 -66 -105 -93 -27 -26 -68 -60 -90 -75 -22 -15 -44 -32 -50 -38 -16 -18
-166 -92 -212 -103 -60 -16 -119 -21 -388 -32 -162 -7 -255 -15 -287 -25 -31
-10 -80 -15 -147 -13 -122 2 -192 16 -241 49 -8 5 -69 36 -135 68 -201 98
-527 273 -576 308 -26 19 -51 34 -55 34 -13 0 -150 113 -219 181 -64 63 -73
73 -163 189 -117 151 -222 369 -222 461 0 49 19 99 37 99 11 0 13 7 8 28 -4
20 0 36 13 53 16 21 19 45 21 169 1 80 -5 212 -14 293 -8 81 -13 152 -10 157
8 13 44 -10 51 -33z m3859 -112 c39 -19 79 -37 90 -40 l20 -7 -20 -8 c-11 -4
-30 -3 -43 1 -13 5 -33 9 -45 9 -21 -1 -21 -2 5 -23 15 -12 58 -33 95 -46 37
-12 100 -38 138 -56 39 -17 142 -55 230 -84 162 -53 188 -61 260 -88 22 -8 72
-23 110 -33 39 -10 102 -28 140 -40 39 -12 84 -25 101 -29 17 -5 71 -28 120
-53 49 -25 123 -57 164 -73 41 -15 107 -40 145 -55 39 -16 111 -43 160 -61 50
-18 101 -40 115 -49 14 -9 48 -25 75 -35 28 -10 73 -28 100 -40 28 -12 59 -26
70 -30 18 -7 18 -9 2 -12 -22 -6 -119 28 -226 78 -46 21 -91 39 -100 39 -10 0
-21 4 -27 8 -8 7 -40 21 -184 78 -19 7 -73 25 -120 40 -47 15 -111 40 -142 55
-69 35 -112 51 -243 90 -334 100 -670 215 -770 265 -60 30 -119 54 -130 54
-11 0 -52 15 -90 34 -39 19 -89 38 -110 41 -22 4 -55 19 -73 32 l-33 25 43 28
c51 34 73 32 173 -15z m-7308 -27 c21 -20 24 -20 41 -5 10 10 28 17 40 17 19
0 22 -5 22 -44 0 -45 0 -45 -42 -53 -38 -8 -43 -12 -46 -38 -2 -17 -9 -36 -15
-44 -7 -8 -11 -38 -9 -72 l4 -59 -29 0 c-43 0 -67 21 -58 51 13 39 12 93 -2
114 -19 29 -16 62 8 78 11 8 16 16 10 18 -5 2 -13 16 -16 32 -7 26 -6 27 31
27 25 0 45 -7 61 -22z m301 -22 c15 -8 38 -26 52 -40 19 -22 22 -30 13 -44
-13 -20 -38 -17 -74 9 -17 12 -44 19 -74 19 -63 0 -55 -18 21 -47 35 -14 72
-37 93 -59 31 -34 33 -40 28 -86 -8 -63 -20 -78 -66 -78 -46 0 -161 57 -161
79 0 4 6 15 13 25 13 17 16 17 65 -8 60 -31 85 -33 80 -8 -2 9 -28 31 -60 47
-31 17 -65 39 -77 49 -21 20 -30 76 -11 76 6 0 8 11 4 27 -5 19 -2 30 11 40
24 17 109 17 143 -1z m6674 -266 c4 0 15 -17 23 -37 17 -39 13 -102 -7 -114
-12 -8 -27 -139 -16 -139 4 0 8 -5 8 -11 0 -5 -5 -7 -11 -3 -8 4 -9 0 -4 -15
5 -15 2 -21 -10 -21 -14 0 -15 9 -9 60 5 50 3 66 -16 102 -21 40 -21 46 -10
122 16 107 20 118 33 84 6 -16 14 -28 19 -28z m-6012 -2657 l55 -18 3 -57 c2
-32 -1 -58 -5 -58 -4 0 -32 9 -61 20 -67 26 -163 26 -217 1 -129 -60 -155
-208 -52 -298 76 -67 178 -70 320 -8 15 6 17 1 17 -53 0 -56 -2 -60 -27 -70
-91 -35 -242 -43 -330 -17 -114 34 -192 133 -201 255 -11 162 67 270 228 317
59 17 199 10 270 -14z m2383 2 l47 -17 0 -53 0 -53 -57 24 c-101 41 -183 26
-183 -35 0 -35 17 -50 108 -95 93 -47 149 -97 158 -142 15 -78 -25 -151 -101
-185 -52 -24 -179 -24 -255 -1 l-55 18 -3 57 c-2 31 -1 57 2 57 2 0 28 -11 58
-25 97 -45 198 -28 198 34 0 35 -28 61 -105 95 -115 52 -155 99 -155 181 0 78
41 130 120 154 46 14 163 6 223 -14z m1959 -107 c1 -65 4 -118 8 -118 3 0 17
12 31 26 37 40 73 54 134 54 68 0 109 -19 132 -63 15 -27 18 -59 18 -197 l0
-165 -60 0 -60 0 -6 140 c-3 77 -9 148 -13 158 -21 47 -91 50 -141 6 l-35 -31
0 -120 c0 -65 -5 -128 -10 -139 -8 -14 -21 -19 -55 -19 -80 0 -75 -21 -75 294
0 156 3 286 7 290 4 4 34 6 66 4 l58 -3 1 -117z m-263 -53 c10 -5 17 -95 8
-95 -2 0 -28 5 -59 10 -107 20 -176 -33 -165 -127 9 -79 71 -119 158 -102 77
14 79 14 79 -32 0 -36 -3 -41 -35 -55 -53 -22 -170 -18 -222 7 -113 55 -154
198 -90 312 41 73 146 111 264 96 28 -4 57 -10 62 -14z m-3749 -65 l5 -75 21
45 c32 68 84 110 138 110 64 0 74 -17 48 -83 -15 -39 -24 -51 -38 -49 -125 18
-173 -39 -174 -200 l0 -88 -65 0 -65 0 0 203 c0 112 3 207 7 211 4 4 32 6 63
4 l55 -3 5 -75z m1300 75 c0 -3 -46 -74 -102 -158 -57 -83 -104 -155 -106
-159 -2 -4 45 -9 105 -10 l108 -3 3 -42 3 -43 -211 0 c-181 0 -211 2 -207 15
3 8 47 75 97 150 50 75 94 142 97 150 4 13 -12 15 -96 15 l-101 0 0 38 c0 21
3 42 7 45 7 8 403 10 403 2z m1275 -9 c60 -26 75 -64 75 -198 0 -64 3 -123 6
-132 3 -9 17 -16 30 -16 19 0 24 -5 24 -24 0 -30 -40 -46 -115 -46 -44 0 -53
3 -64 24 l-13 24 -42 -24 c-59 -34 -157 -34 -191 0 -32 32 -40 69 -25 107 17
40 44 57 159 99 93 35 96 37 94 65 -1 17 -12 38 -25 49 -30 24 -109 18 -167
-12 -23 -12 -44 -22 -46 -22 -11 0 -4 68 8 78 48 39 225 56 292 28z m373 -29
l3 -38 36 31 c45 40 72 50 134 50 62 0 103 -21 126 -63 15 -27 18 -59 18 -197
l0 -165 -60 0 -60 0 -5 140 c-3 84 -11 149 -18 162 -26 46 -96 42 -143 -8 -28
-30 -28 -33 -31 -162 l-3 -132 -60 0 -60 0 -3 200 c-1 110 0 205 3 213 3 9 21
12 62 10 l58 -3 3 -38z m1839 28 c71 -30 111 -90 116 -172 l2 -48 -159 -3
-158 -3 7 -27 c20 -80 122 -113 241 -77 55 16 70 9 60 -28 -10 -40 -84 -60
-206 -55 -91 3 -102 5 -142 33 -61 44 -89 98 -89 178 -1 100 45 173 128 202
51 19 155 19 200 0z m633 9 c0 -3 -47 -75 -105 -161 -58 -85 -105 -157 -105
-159 0 -2 48 -5 108 -6 l107 -3 0 -40 0 -40 -213 -3 -213 -2 101 150 c56 83
104 158 107 166 4 12 -12 14 -96 14 l-101 0 0 38 c0 21 3 42 7 45 8 8 403 9
403 1z m-4980 -128 c0 -171 15 -206 91 -206 23 0 40 9 65 36 l34 35 0 130 0
129 65 0 65 0 0 -210 0 -211 -62 3 -63 3 -5 40 c-3 27 -8 36 -13 27 -5 -7 -27
-27 -49 -43 -36 -25 -50 -29 -107 -29 -125 0 -144 33 -149 258 l-4 162 66 0
66 0 0 -124z m5955 -580 c34 8 48 -10 41 -50 -4 -21 -13 -36 -21 -36 -8 0 -17
-5 -20 -10 -9 -14 22 -61 38 -59 29 4 37 -3 37 -30 0 -17 -4 -33 -10 -36 -5
-3 -10 -15 -10 -26 0 -16 7 -19 50 -19 46 0 50 -2 41 -18 -6 -11 -30 -23 -58
-29 -52 -12 -63 -7 -63 35 0 13 -8 35 -19 50 -10 15 -27 42 -37 61 -19 34 -20
35 -94 36 -83 1 -137 20 -119 41 6 8 23 10 45 7 41 -7 101 29 110 65 8 31 35
44 54 27 9 -8 25 -12 35 -9z m-6431 -79 c31 -21 47 -49 48 -88 2 -69 -51 -109
-146 -109 l-55 0 -3 -67 -3 -68 -45 0 -45 0 -3 164 c-2 119 1 167 10 178 18
22 205 14 242 -10z m2866 -6 c0 -25 -4 -30 -27 -33 -22 -2 -29 -9 -31 -30 -3
-21 1 -27 20 -30 31 -4 32 -42 1 -46 -21 -3 -22 -9 -25 -95 l-3 -92 -37 -3
-38 -3 0 95 c0 89 -1 96 -20 96 -15 0 -20 7 -20 25 0 18 5 25 20 25 14 0 20 7
20 23 1 53 48 96 108 97 29 0 32 -3 32 -29z m1753 10 c23 -9 27 -17 27 -47 0
-27 -4 -35 -14 -31 -8 3 -32 11 -55 18 -110 33 -207 -69 -151 -159 11 -18 32
-37 48 -43 27 -11 106 -7 150 6 20 7 22 4 22 -24 0 -27 -5 -34 -35 -47 -49
-20 -151 -18 -201 5 -94 43 -129 161 -75 254 17 30 63 63 109 78 32 10 137 4
175 -10z m-6018 -88 c21 -54 41 -102 45 -106 4 -5 26 39 50 97 l42 106 49 0
c42 0 47 -2 41 -18 -4 -9 -38 -88 -77 -175 l-70 -158 -33 3 c-33 3 -34 5 -108
172 -41 93 -74 171 -74 173 0 1 22 3 48 3 l49 0 38 -97z m2695 -78 l0 -175
-35 0 c-23 0 -38 6 -42 15 -5 14 -8 14 -29 0 -44 -28 -119 -14 -148 29 -36 56
-27 143 20 187 20 18 36 24 72 24 26 0 55 -4 65 -9 15 -7 17 -2 17 48 l0 56
40 0 40 0 0 -175z m2104 150 c10 -39 0 -45 -70 -45 l-64 0 0 -140 0 -140 -45
0 -44 0 -3 138 -3 137 -65 5 c-52 4 -65 9 -68 23 -9 45 -2 47 182 47 l174 0 6
-25z m1904 -147 l-3 -173 -33 -3 c-22 -2 -34 2 -38 13 -6 14 -9 14 -30 0 -32
-21 -83 -19 -121 5 -62 37 -69 141 -13 203 24 28 35 32 77 32 26 0 56 -4 66
-9 15 -7 17 -2 17 48 l0 56 40 0 40 0 -2 -172z m-3208 113 c0 -28 3 -30 43
-33 37 -3 42 -6 42 -28 0 -22 -5 -25 -42 -28 l-43 -3 0 -58 c0 -68 13 -84 62
-79 28 2 34 -1 36 -19 7 -47 -111 -61 -153 -18 -22 21 -25 33 -25 98 0 69 -2
75 -22 81 -21 5 -19 9 32 61 30 30 58 55 62 55 4 0 8 -13 8 -29z m-3145 -161
l0 -125 -37 -3 -38 -3 0 124 c0 68 3 127 7 131 4 4 21 6 38 4 l30 -3 0 -125z
m269 117 c10 -7 16 -22 14 -33 -3 -16 -10 -18 -50 -16 -37 3 -51 -1 -67 -17
-27 -27 -27 -75 0 -102 18 -18 29 -21 70 -16 48 6 49 6 49 -22 0 -21 -6 -30
-22 -35 -39 -10 -97 -7 -133 8 -88 37 -90 186 -3 229 40 20 117 22 142 4z
m251 -1 c38 -16 65 -60 65 -106 l0 -30 -90 0 c-49 0 -90 -3 -90 -6 0 -3 4 -14
10 -24 15 -29 65 -41 117 -29 50 11 59 8 49 -16 -15 -39 -148 -49 -204 -15
-37 23 -52 54 -52 110 0 57 18 87 64 110 48 24 84 25 131 6z m705 -33 l1 -48
20 37 c21 41 45 58 83 58 33 0 40 -13 25 -54 -11 -32 -14 -33 -50 -29 -32 5
-39 2 -55 -23 -11 -16 -21 -54 -24 -89 l-5 -60 -35 0 -35 0 -3 114 c-1 63 0
121 2 128 3 7 21 13 41 13 l35 0 0 -47z m351 24 c34 -23 65 -87 55 -114 -4 -9
-30 -13 -96 -13 -49 0 -90 -3 -90 -6 0 -40 65 -68 125 -54 54 13 55 13 55 -9
0 -39 -131 -56 -195 -25 -64 30 -86 143 -39 196 45 50 130 62 185 25z m263 13
c16 -6 26 -17 26 -29 0 -16 -7 -19 -52 -17 -63 1 -72 -19 -21 -45 70 -35 83
-48 83 -84 0 -46 -37 -75 -96 -75 -59 0 -94 15 -94 40 0 11 1 20 3 20 1 0 17
-4 36 -10 37 -10 71 1 71 24 0 7 -18 21 -41 31 -42 19 -79 57 -79 82 0 8 13
28 29 44 32 31 84 39 135 19z m171 -120 l0 -125 -37 -3 -38 -3 0 131 0 131 38
-3 37 -3 0 -125z m585 117 c33 -17 70 -74 70 -108 l0 -28 -97 -3 -96 -3 24
-29 c27 -31 56 -36 122 -23 33 7 37 6 37 -13 0 -27 -36 -40 -108 -40 -90 0
-139 38 -148 116 -13 100 103 178 196 131z m357 -11 c27 -24 28 -27 28 -128
l0 -103 -37 -3 -38 -3 0 81 c0 92 -10 120 -44 120 -43 0 -65 -37 -68 -120 l-3
-75 -37 -3 -38 -3 0 125 0 126 40 0 c33 0 40 -3 40 -20 0 -18 2 -18 36 5 46
31 85 32 121 1z m676 10 c50 -21 70 -50 75 -110 4 -50 2 -56 -31 -92 -32 -35
-39 -38 -98 -41 -75 -4 -104 8 -136 56 -77 114 55 244 190 187z m937 -21 c0
-19 5 -35 10 -35 6 0 10 5 10 10 0 23 50 60 79 60 39 0 45 -12 30 -55 -11 -29
-17 -33 -35 -29 -57 14 -84 -18 -93 -111 l-6 -60 -35 0 -35 0 -3 114 c-1 63 0
121 2 128 3 7 21 13 41 13 33 0 35 -2 35 -35z m684 20 c38 -18 66 -62 66 -104
l0 -31 -90 0 c-97 0 -110 -9 -69 -46 20 -18 61 -22 134 -12 29 4 25 -24 -5
-39 -14 -7 -52 -13 -86 -13 -78 0 -123 27 -143 87 -13 37 -13 45 3 88 15 38
26 51 60 66 50 23 88 24 130 4z m733 -10 c28 -19 53 -71 53 -113 0 -35 -37
-92 -70 -109 -36 -18 -127 -16 -160 3 -84 50 -77 189 13 230 40 18 128 12 164
-11z m634 2 c35 -23 66 -85 56 -112 -5 -12 -25 -15 -97 -15 -49 0 -90 -3 -90
-7 1 -17 28 -43 54 -53 18 -6 41 -7 69 0 57 13 57 13 57 -10 0 -29 -43 -42
-123 -38 -60 3 -71 7 -99 35 -62 62 -43 174 35 208 48 21 99 18 138 -8z m190
-24 c0 -42 1 -45 10 -23 23 58 78 86 117 61 11 -7 11 -14 -1 -43 -13 -31 -18
-34 -48 -30 -51 6 -73 -24 -79 -107 l-5 -66 -35 0 -35 0 -3 128 -3 127 41 0
40 0 1 -47z m330 25 c18 -28 9 -36 -43 -34 -73 2 -76 -22 -8 -54 75 -35 91
-80 45 -125 -19 -20 -34 -25 -72 -24 -69 1 -98 11 -98 34 0 21 12 23 58 11 14
-3 32 0 43 9 19 15 19 16 -1 31 -11 8 -35 25 -54 37 -44 28 -55 48 -47 80 10
40 51 58 115 53 30 -3 58 -11 62 -18z m-2331 -64 c0 -89 10 -114 47 -114 49 0
63 24 63 112 l0 78 40 0 40 0 0 -125 0 -125 -36 0 c-27 0 -37 5 -41 20 -5 20
-5 20 -34 -1 -21 -15 -41 -19 -76 -17 -44 3 -50 6 -65 38 -13 25 -18 59 -18
123 l0 87 40 0 40 0 0 -76z m2897 -181 c5 -10 8 -40 8 -68 0 -48 -1 -50 -30
-53 -16 -2 -39 -12 -50 -22 -11 -10 -31 -20 -44 -22 -19 -2 -26 3 -32 25 -7
27 9 57 32 57 6 0 8 8 5 18 -7 23 4 39 45 62 43 24 56 24 66 3z"/>
<path d="M4167 1724 c-26 -14 -53 -36 -59 -49 -15 -33 -2 -74 28 -87 22 -10
32 -9 62 7 36 20 37 21 40 88 3 77 1 79 -71 41z"/>
<path d="M6336 1864 c-18 -18 -26 -37 -26 -60 l0 -34 100 0 c55 0 100 3 100 8
0 29 -24 84 -43 97 -36 25 -100 19 -131 -11z"/>
<path d="M7010 9771 c0 -5 6 -22 14 -38 24 -46 56 -134 56 -152 0 -9 11 -32
24 -52 64 -95 87 -236 31 -189 -28 23 -128 80 -140 80 -8 0 -26 11 -42 23 -38
32 -77 41 -93 22 -7 -8 -19 -15 -26 -15 -8 0 -14 -9 -14 -20 0 -27 -37 -26
-123 4 -38 14 -69 20 -73 15 -3 -5 -3 -23 1 -39 5 -25 13 -30 56 -39 28 -6 57
-11 65 -11 18 0 85 -45 128 -85 25 -23 32 -25 53 -16 32 15 63 -2 63 -33 0
-17 9 -27 33 -36 79 -30 139 -65 159 -94 12 -17 31 -39 43 -49 20 -19 20 -18
23 11 3 28 36 71 47 60 3 -2 9 -26 14 -52 8 -45 34 -86 54 -86 13 0 0 93 -18
137 -9 21 -21 33 -33 33 -12 0 -22 11 -29 33 -24 69 -63 170 -72 181 -5 6 -12
22 -16 36 -9 28 -53 126 -121 267 -24 50 -44 97 -44 102 0 6 -4 11 -10 11 -5
0 -10 -4 -10 -9z"/>
<path d="M6770 9202 c0 -11 29 -37 79 -70 43 -29 82 -52 86 -52 15 0 181 -114
283 -194 88 -69 220 -153 245 -155 15 -2 6 18 -30 60 -21 24 -47 62 -58 83
-21 41 -66 76 -99 76 -10 0 -95 48 -188 106 -132 82 -289 164 -315 164 -2 0
-3 -8 -3 -18z"/>
<path d="M1975 6644 c-38 -8 -90 -13 -115 -11 -25 2 -115 -4 -200 -14 -85 -10
-170 -19 -189 -21 -19 -2 -36 -9 -39 -15 -7 -24 45 -33 131 -23 45 6 123 15
172 20 113 13 308 41 316 46 4 2 37 6 75 9 37 3 73 10 78 15 15 15 -146 11
-229 -6z"/>
</g>
</svg>
