<?xml version="1.0" standalone="no"?>
<!DOCTYPE svg PUBLIC "-//W3C//DTD SVG 20010904//EN"
 "http://www.w3.org/TR/2001/REC-SVG-20010904/DTD/svg10.dtd">
<svg version="1.0" xmlns="http://www.w3.org/2000/svg"
 width="450.000000pt" height="450.000000pt" viewBox="0 0 450.000000 450.000000"
 preserveAspectRatio="xMidYMid meet">
<metadata>
Created by potrace 1.16, written by Peter Selinger 2001-2019
</metadata>
<g transform="translate(0.000000,450.000000) scale(0.100000,-0.100000)"
fill="#000000" stroke="none">
<path d="M2147 4413 c-11 -3 -16 -11 -13 -19 3 -9 -1 -14 -13 -14 -10 0 -32
-7 -49 -15 -20 -11 -59 -16 -113 -16 -46 0 -90 -4 -100 -9 -9 -6 -41 -12 -71
-15 -111 -12 -118 -14 -118 -39 0 -17 -7 -26 -25 -30 -14 -4 -25 -11 -25 -16
0 -6 -11 -10 -25 -10 -17 0 -29 -9 -39 -29 -9 -16 -13 -31 -10 -34 3 -3 -3
-12 -15 -19 -12 -7 -21 -18 -21 -24 0 -17 -35 -44 -57 -44 -26 0 -45 -23 -37
-43 4 -11 -8 -30 -35 -56 -23 -22 -41 -47 -41 -56 0 -9 -8 -19 -17 -22 -35
-13 -42 -42 -17 -67 17 -17 11 -36 -12 -36 -8 0 -14 -10 -14 -22 0 -29 -34
-75 -44 -60 -3 6 -2 13 4 17 5 3 10 18 10 33 l0 26 -16 -22 c-9 -13 -14 -34
-11 -48 2 -13 1 -24 -2 -24 -3 0 -11 -8 -18 -19 -10 -16 -8 -18 24 -15 20 1
40 9 45 16 6 8 7 4 3 -12 -4 -14 -8 -29 -9 -35 0 -5 -21 -20 -46 -32 -25 -13
-42 -23 -38 -23 4 0 1 -15 -6 -32 -13 -32 -11 -63 3 -54 4 3 7 -4 7 -15 0 -10
-4 -19 -8 -19 -4 0 -7 -3 -6 -7 4 -19 -17 -70 -39 -96 -12 -16 -23 -37 -23
-48 0 -23 18 -61 34 -71 8 -5 8 -8 0 -8 -6 0 -21 -22 -34 -50 -19 -41 -21 -52
-10 -65 7 -8 19 -15 26 -15 8 0 14 -3 14 -7 -1 -10 -30 -49 -30 -40 0 19 -38
-31 -41 -53 -4 -43 13 -170 25 -183 25 -27 36 -72 36 -157 0 -50 4 -92 10 -95
13 -8 9 -35 -9 -57 -14 -16 -16 -16 -39 3 -54 42 -101 10 -109 -74 -7 -84 -3
-268 6 -285 7 -11 11 -12 11 -4 0 7 4 11 9 8 12 -8 20 -66 9 -72 -7 -5 -12 10
-9 29 0 4 -4 7 -9 7 -12 0 -4 -108 9 -125 5 -5 12 -25 16 -43 5 -27 9 -31 21
-21 8 6 18 28 24 49 12 45 35 69 52 52 12 -12 -7 -72 -22 -72 -4 0 -10 -14
-12 -30 -3 -16 0 -30 5 -30 6 0 7 -18 4 -42 -3 -23 -2 -36 2 -29 7 11 9 11 13
0 4 -10 16 -2 41 25 24 25 35 32 33 21 -5 -32 -55 -74 -82 -69 -31 6 -30 -3 3
-38 21 -22 36 -28 69 -28 39 0 42 2 48 33 9 54 1 137 -15 148 -9 7 -10 12 -3
15 8 3 9 17 4 42 -37 169 -37 185 -10 230 11 18 20 42 20 55 0 26 13 50 26 47
16 -4 62 93 69 144 3 28 11 56 17 63 16 20 47 15 74 -12 26 -26 40 -33 28 -14
-4 7 1 10 12 7 10 -2 20 -12 22 -22 3 -11 0 -16 -7 -12 -6 4 -11 3 -11 -1 0
-5 9 -14 20 -21 11 -7 20 -17 20 -23 0 -5 -4 -7 -10 -4 -5 3 -11 1 -11 -4 -1
-6 -2 -14 -4 -18 -1 -5 -5 -21 -10 -38 -4 -16 -12 -36 -18 -43 -7 -9 -5 -11 9
-6 17 6 16 4 -3 -18 -28 -30 -29 -42 -4 -28 16 8 21 6 26 -9 6 -21 -3 -51 -17
-51 -5 0 -6 4 -3 10 3 6 -1 7 -9 4 -9 -3 -16 -9 -16 -13 0 -3 -4 -23 -9 -43
-8 -33 -7 -36 8 -29 9 5 37 33 64 61 26 29 47 46 47 39 0 -8 -11 -23 -25 -33
-13 -10 -22 -22 -20 -27 3 -4 -6 -19 -20 -33 -14 -15 -23 -31 -20 -36 3 -6 2
-10 -3 -10 -5 0 -14 -11 -20 -25 -7 -15 -8 -25 -2 -25 6 0 10 5 10 10 0 6 9
10 19 10 11 0 22 8 26 18 6 19 51 72 60 72 3 0 3 -5 -1 -12 -5 -8 -2 -9 10 -5
14 6 17 3 12 -9 -4 -11 1 -24 14 -36 15 -14 18 -23 11 -32 -5 -6 -6 -18 -2
-25 11 -18 -16 -84 -45 -112 -22 -21 -62 -20 -49 1 13 22 -7 29 -27 10 -21
-20 -21 -20 -35 0 -19 27 -62 23 -69 -7 -4 -13 -10 -20 -15 -17 -5 3 -6 17 -3
31 4 15 2 28 -5 32 -7 5 -13 40 -15 87 -2 43 -4 83 -5 88 -1 5 -10 -1 -20 -13
-11 -13 -17 -29 -15 -36 4 -8 -3 -15 -17 -17 -21 -3 -22 -4 -6 -20 10 -9 13
-19 8 -22 -11 -7 -19 -86 -9 -86 5 0 8 -6 8 -14 0 -8 6 -17 13 -19 9 -4 9 -6
0 -6 -7 -1 -13 -9 -12 -18 0 -11 3 -13 6 -6 7 20 34 -12 27 -31 -3 -9 -9 -16
-13 -16 -3 0 -6 -25 -7 -56 0 -34 -6 -59 -13 -64 -11 -6 -11 -9 0 -13 10 -4 8
-6 -4 -6 -14 -1 -17 -7 -14 -30 3 -17 7 -33 10 -38 3 -4 1 -36 -4 -71 -6 -41
-5 -70 1 -83 9 -15 7 -19 -5 -19 -9 0 -13 -5 -9 -11 3 -6 0 -15 -7 -20 -10 -6
-14 -28 -13 -76 1 -44 -1 -61 -6 -48 -8 19 -9 19 -9 -2 -1 -12 6 -28 14 -36 8
-8 11 -17 8 -21 -13 -13 32 -165 73 -246 24 -47 70 -123 104 -170 104 -147
140 -201 140 -211 0 -5 5 -9 11 -9 5 0 7 -4 4 -10 -3 -5 -2 -10 4 -10 5 0 16
-11 23 -24 51 -95 278 -408 342 -471 27 -26 89 -33 313 -34 200 -1 404 19 454
45 15 7 29 11 32 7 3 -3 18 -2 32 1 23 6 26 10 20 36 -5 22 -3 30 7 30 7 0 14
11 14 25 2 22 0 23 -13 9 -22 -22 -27 -10 -12 33 7 21 13 58 14 83 0 25 4 50
7 56 4 6 10 31 14 55 4 24 12 47 17 51 6 3 10 21 10 40 0 18 2 27 4 21 9 -26
35 16 31 47 -3 17 -1 30 3 30 12 0 3 49 -13 68 -7 9 -21 34 -31 55 -16 35 -16
39 0 64 l17 25 23 -28 c59 -73 178 -302 239 -461 21 -57 42 -103 47 -103 11 0
143 67 219 112 l66 39 -30 30 c-19 17 -42 29 -58 29 -15 0 -35 9 -45 20 -10
11 -24 20 -31 20 -14 0 -96 40 -104 51 -3 3 -24 16 -46 27 -45 23 -94 74 -94
99 0 8 -18 33 -40 55 -22 22 -40 49 -40 59 0 11 -4 19 -10 19 -5 0 -18 10 -30
22 -23 25 -27 68 -5 68 8 0 19 8 24 18 5 10 26 27 45 37 20 11 36 25 36 32 0
7 5 13 10 13 6 0 10 6 10 13 0 8 9 22 20 32 11 10 20 25 20 32 0 8 9 22 20 31
21 17 60 85 100 172 12 25 27 56 34 70 7 14 21 59 30 100 10 41 23 93 28 115
6 22 12 48 13 58 1 10 13 32 28 48 28 33 34 54 17 64 -6 4 -8 11 -4 16 3 6 12
5 22 -3 13 -11 15 -10 9 5 -3 9 -2 17 3 17 16 0 12 84 -5 106 -16 21 -20 84
-5 84 5 0 18 -16 28 -36 11 -21 22 -32 25 -27 4 6 7 64 8 131 1 102 -2 127
-20 167 -21 48 -28 95 -13 95 4 0 17 -32 27 -71 11 -39 23 -73 27 -75 14 -9
21 113 9 181 -12 75 -33 104 -58 83 -8 -7 -13 -22 -10 -36 4 -22 3 -22 -11 -8
-14 14 -14 18 7 40 20 21 22 32 19 95 -1 39 0 71 5 71 4 0 7 8 7 19 0 10 7 24
15 31 8 7 20 30 26 53 10 37 9 42 -17 65 -26 24 -27 25 -40 7 -13 -17 -14 -14
-14 26 0 26 -8 57 -20 77 -11 18 -20 42 -20 53 0 11 -4 18 -9 15 -4 -3 -6 6
-3 20 4 21 1 25 -14 22 -24 -4 -37 -81 -20 -117 8 -19 8 -25 -2 -29 -7 -2 -10
-8 -6 -13 3 -5 -1 -11 -8 -14 -17 -7 -12 -72 6 -95 7 -8 13 -35 14 -58 l1 -44
-62 7 c-54 6 -111 24 -82 25 6 0 4 4 -4 9 -9 6 -10 11 -2 15 6 4 11 2 11 -3 0
-6 5 -11 10 -11 23 0 8 29 -22 43 -31 15 -56 43 -54 59 2 13 -48 58 -65 58
-10 0 -25 7 -34 17 -14 14 -18 14 -26 2 -5 -8 -9 -19 -9 -25 0 -7 -7 -15 -16
-18 -14 -5 -15 -4 -4 9 12 14 9 16 -23 13 -28 -1 -37 -6 -37 -20 0 -22 -18
-24 -26 -3 -9 23 -26 18 -19 -5 4 -11 2 -20 -4 -20 -6 0 -8 -7 -4 -15 4 -13 0
-15 -21 -11 -14 3 -39 1 -56 -4 -17 -5 -28 -5 -25 0 3 5 1 11 -5 15 -5 3 -10
1 -10 -5 0 -7 -7 -5 -16 4 -10 10 -24 14 -40 10 -19 -5 -24 -2 -24 12 0 16 -2
16 -9 4 -6 -8 -7 -18 -5 -22 3 -4 -2 -5 -10 -2 -9 3 -13 10 -10 15 3 5 1 9 -5
9 -6 0 -15 10 -22 22 -10 18 -9 20 5 15 10 -4 16 -1 16 8 0 8 6 12 13 9 7 -2
20 9 30 25 18 32 23 91 7 91 -5 0 -10 5 -10 11 0 5 5 7 10 4 12 -8 13 5 1 24
-5 8 -14 10 -22 6 -8 -5 -11 -5 -7 0 9 9 -9 35 -24 35 -6 0 -5 -7 3 -16 10
-13 10 -17 -1 -24 -16 -10 -40 -2 -40 14 0 6 -5 4 -10 -4 -9 -13 -11 -13 -20
0 -5 8 -7 25 -3 37 3 14 1 23 -6 23 -6 0 -11 -6 -11 -14 0 -8 -8 -17 -17 -21
-17 -6 -17 -7 -1 -19 10 -7 15 -16 11 -19 -10 -11 -41 -8 -45 3 -2 6 -13 12
-26 13 -23 1 -24 3 -26 82 -1 28 -8 60 -14 73 -11 19 -10 22 3 22 20 0 16 31
-4 38 -10 3 -12 0 -8 -12 5 -13 0 -16 -23 -16 -17 0 -30 5 -30 10 0 6 5 10 10
10 6 0 10 7 10 15 0 8 -9 15 -20 15 -11 0 -20 4 -20 10 0 5 6 7 13 4 7 -2 18
7 25 23 6 16 9 19 6 6 -5 -23 10 -40 21 -23 8 13 45 13 45 1 0 -6 -4 -13 -10
-16 -5 -3 -10 -1 -10 5 0 6 -4 8 -10 5 -19 -11 -10 -25 15 -25 27 0 48 31 27
38 -22 7 -14 35 8 29 13 -3 20 0 20 9 0 8 -7 14 -15 14 -13 0 -14 2 -3 14 7 8
17 11 22 8 5 -3 6 0 3 5 -4 6 -1 22 6 35 10 20 17 23 35 17 12 -5 22 -13 22
-19 0 -8 11 -9 33 -5 36 8 59 23 52 35 -3 4 2 11 11 14 22 8 26 8 19 -3 -3 -5
-1 -12 5 -16 5 -3 10 -2 10 4 0 5 13 16 29 24 25 12 31 13 35 1 3 -7 12 -11
21 -8 8 3 15 1 15 -5 0 -6 5 -11 11 -11 5 0 8 4 4 9 -3 5 0 13 6 17 9 5 7 11
-6 21 -13 9 -16 16 -9 23 8 8 15 6 24 -5 21 -25 52 -17 87 23 18 20 33 43 33
50 0 17 11 15 26 -5 7 -10 16 -15 20 -11 4 4 1 14 -6 23 -8 9 -8 15 -2 15 6 0
13 -4 17 -9 3 -6 14 -8 25 -6 11 2 42 -7 69 -21 27 -13 54 -24 60 -24 6 0 11
-7 11 -15 0 -7 7 -18 16 -23 8 -5 17 -19 18 -33 2 -13 15 -42 30 -63 15 -22
24 -46 22 -53 -3 -7 -1 -13 4 -13 6 0 10 -11 10 -24 0 -14 5 -28 10 -31 6 -4
8 -16 4 -27 -4 -14 -2 -18 5 -14 6 4 12 0 12 -8 1 -9 2 -24 3 -33 1 -10 5 -24
9 -30 5 -7 5 -13 1 -13 -4 0 -1 -8 7 -17 8 -10 16 -31 18 -48 2 -16 10 -35 19
-42 15 -12 15 -12 -2 -6 -13 4 -17 3 -12 -5 3 -6 15 -10 25 -9 16 1 19 7 15
34 -2 19 1 33 6 33 6 0 -1 20 -14 44 -15 28 -21 46 -14 48 8 3 7 10 -1 26 -6
12 -8 22 -4 22 14 -1 43 -27 43 -39 0 -6 4 -11 9 -11 14 0 33 -67 26 -89 -3
-11 -1 -30 5 -42 7 -12 8 -19 2 -16 -10 7 13 -76 30 -107 6 -11 12 -33 15 -50
6 -41 23 -58 23 -23 0 15 -6 27 -12 27 -9 0 -10 3 -2 8 20 13 21 37 2 54 -19
16 -35 63 -18 53 18 -11 19 14 3 44 -17 29 -17 31 2 45 20 14 20 15 1 70 -11
31 -22 52 -26 47 -3 -6 -27 12 -53 39 -28 30 -43 52 -36 56 6 3 24 -10 41 -30
39 -48 49 -38 14 14 -14 22 -26 43 -26 48 0 5 -10 14 -22 21 -43 23 -71 81
-39 81 4 0 32 -25 63 -55 31 -30 51 -55 46 -55 -6 0 -5 -6 2 -15 20 -24 38
-18 34 12 -1 15 1 33 5 41 15 26 -7 112 -35 138 -24 23 -26 30 -21 86 5 61
-10 105 -50 146 -17 18 -16 53 2 88 12 24 15 26 16 9 1 -11 5 2 10 29 6 41 5
52 -9 64 -9 7 -11 10 -3 6 11 -6 13 -3 6 12 -4 10 -10 30 -13 44 -9 45 -54
100 -82 100 -32 0 -50 17 -50 45 0 24 -18 45 -39 45 -8 0 -11 -3 -8 -7 4 -3 2
-12 -4 -20 -9 -9 -8 -13 0 -13 6 0 11 -7 11 -15 0 -16 -27 -20 -49 -6 -7 5
-11 13 -7 19 3 6 0 13 -6 15 -10 4 -10 6 0 6 18 1 15 17 -10 55 -17 27 -31 35
-62 39 -29 4 -52 18 -90 55 -70 67 -105 92 -121 86 -7 -3 -16 -1 -20 5 -3 6
-28 11 -56 11 -37 0 -49 4 -49 15 0 8 -17 22 -37 31 -32 13 -51 14 -123 4 -47
-6 -92 -11 -100 -12 -8 0 -36 -5 -63 -10 -41 -8 -53 -7 -88 11 -42 22 -110 34
-142 24z m-502 -955 c11 -2 28 -12 38 -23 15 -18 16 -18 11 -1 -5 14 -3 17 12
14 11 -2 19 -12 20 -24 1 -11 6 -29 12 -41 6 -11 9 -23 7 -27 -3 -3 0 -2 7 4
13 11 21 43 8 35 -4 -3 -13 2 -20 10 -11 13 -8 15 14 15 19 0 26 -5 26 -20 0
-11 5 -20 10 -20 7 0 7 -7 -1 -21 -9 -17 -8 -23 2 -30 8 -5 15 -4 17 1 9 26
19 -5 14 -45 -4 -43 -4 -45 22 -45 17 0 25 -4 20 -11 -4 -8 1 -9 17 -4 21 7
22 6 7 -8 -8 -9 -19 -32 -22 -52 -7 -35 -23 -44 -42 -25 -16 16 -46 0 -41 -21
5 -18 -7 -27 -16 -11 -2 4 -2 1 0 -7 5 -19 -16 -82 -35 -103 -16 -19 -37 -25
-27 -8 10 16 -12 12 -29 -5 -8 -8 -20 -15 -27 -15 -10 0 -9 -5 3 -16 18 -18
42 -10 34 12 -6 16 -4 17 18 8 18 -7 22 -24 5 -24 -16 0 -39 -26 -31 -35 4 -5
-1 -5 -10 -2 -9 3 -18 1 -21 -6 -6 -19 5 -57 15 -51 5 3 6 -6 2 -21 -4 -18 -2
-30 7 -36 11 -6 11 -16 3 -49 -7 -24 -8 -43 -2 -46 20 -12 -16 -35 -56 -34
-73 0 -156 -12 -156 -22 0 -7 -40 -9 -112 -7 l-113 4 -3 -27 c-4 -33 -18 -36
-27 -7 -12 37 16 53 90 50 64 -2 67 -2 64 21 -3 29 35 111 46 100 4 -4 5 1 2
11 -5 12 1 30 13 47 11 15 20 33 20 39 0 6 7 11 15 11 18 0 21 50 4 67 -12 12
-17 144 -7 181 10 32 18 43 29 37 5 -3 6 1 3 9 -3 9 -2 16 4 16 10 0 12 22 11
127 0 51 4 64 20 75 12 8 18 17 15 21 -3 3 -3 14 0 25 7 20 26 22 111 10z
m497 -2007 c6 -14 11 -29 10 -32 0 -3 6 -6 14 -6 9 0 14 11 14 30 0 26 3 29
23 23 12 -3 28 -6 35 -6 6 0 12 -9 12 -20 0 -24 13 -26 30 -5 13 16 78 18 98
2 9 -7 20 -6 35 2 13 7 43 12 67 12 25 -1 68 0 95 1 69 2 90 -10 75 -44 -7
-15 -21 -26 -34 -27 -75 -5 -105 -9 -116 -16 -16 -10 -166 -11 -202 -2 -16 4
-28 14 -28 23 0 13 -4 11 -18 -6 -16 -19 -21 -20 -45 -9 -15 7 -27 17 -27 22
0 9 -17 7 -51 -7 -24 -10 -49 20 -49 58 0 18 3 35 6 38 12 13 46 -6 56 -31z"/>
<path d="M1136 1346 c-26 -44 -119 -136 -138 -136 -6 0 -45 -35 -88 -78 -44
-45 -92 -83 -111 -89 -60 -20 -122 -44 -163 -62 -23 -10 -65 -26 -93 -37 -29
-10 -53 -21 -53 -24 0 -3 35 -46 78 -95 199 -228 430 -408 691 -539 82 -42
243 -107 249 -102 5 6 -40 142 -114 342 -34 93 -66 183 -70 200 -4 16 -10 34
-14 39 -4 6 -11 21 -15 35 -4 14 -16 43 -26 65 -27 60 -47 111 -80 199 -33 92
-39 193 -14 253 33 79 4 102 -39 29z"/>
<path d="M2930 435 c7 -8 4 -17 -10 -30 -11 -10 -20 -25 -20 -33 0 -8 -7 -20
-15 -26 -8 -6 -17 -22 -20 -36 -3 -14 -9 -26 -15 -28 -5 -2 -10 -12 -10 -22 0
-10 -4 -22 -10 -25 -5 -3 -10 -17 -10 -30 0 -13 -4 -26 -9 -29 -5 -3 -11 -16
-13 -29 -4 -23 -3 -24 34 -14 30 7 38 14 38 33 0 12 5 26 10 29 6 3 10 17 10
31 0 13 5 24 11 24 5 0 8 4 5 9 -4 5 -3 11 1 13 17 7 62 117 52 124 -8 4 -7
10 0 17 17 17 13 24 -14 29 -19 4 -23 2 -15 -7z"/>
</g>
</svg>
