<?xml version="1.0" standalone="no"?>
<!DOCTYPE svg PUBLIC "-//W3C//DTD SVG 20010904//EN"
 "http://www.w3.org/TR/2001/REC-SVG-20010904/DTD/svg10.dtd">
<svg version="1.0" xmlns="http://www.w3.org/2000/svg"
 width="1186.000000pt" height="1052.000000pt" viewBox="0 0 1186.000000 1052.000000"
 preserveAspectRatio="xMidYMid meet">
<metadata>
Created by potrace 1.16, written by Peter Selinger 2001-2019
</metadata>
<g transform="translate(0.000000,1052.000000) scale(0.100000,-0.100000)"
fill="#000000" stroke="none">
<path d="M5698 10510 c-1 -5 -30 -19 -63 -30 -55 -19 -111 -46 -190 -91 -16
-9 -68 -38 -115 -65 -47 -26 -138 -90 -203 -141 -180 -143 -230 -166 -401
-187 -21 -3 -49 -15 -62 -27 -49 -46 -98 -188 -122 -359 -11 -76 -17 -165 -52
-786 -21 -386 -25 -349 59 -594 46 -135 89 -295 126 -470 38 -181 34 -172 57
-164 14 4 18 2 14 -5 -4 -6 -13 -11 -21 -11 -7 0 -15 -6 -18 -14 -3 -8 -124
-74 -269 -148 -274 -139 -610 -335 -713 -416 -33 -26 -99 -85 -147 -132 -103
-101 -153 -191 -153 -275 0 -77 46 -137 139 -181 143 -68 203 -78 466 -78 192
0 260 4 370 21 176 28 411 72 473 88 60 16 65 12 122 -98 22 -42 43 -77 46
-77 3 0 7 36 7 79 1 68 6 92 30 130 1 3 10 -3 20 -13 78 -76 227 -135 392
-156 85 -11 238 -11 307 0 29 5 60 7 68 4 21 -9 28 -93 15 -200 -9 -77 -19
-113 -46 -166 -26 -52 -34 -80 -34 -122 0 -30 3 -61 6 -70 10 -27 34 -18 50
19 11 27 20 35 39 35 14 0 25 6 25 14 0 7 12 35 27 62 56 104 63 119 63 144 0
14 11 43 23 65 l23 40 87 -4 c68 -2 93 1 112 13 13 9 41 16 62 16 21 0 51 7
67 15 32 17 45 18 64 7 10 -7 10 -15 2 -37 -8 -22 -8 -35 2 -53 11 -21 17 -23
58 -18 84 12 103 10 118 -13 11 -16 24 -21 56 -20 22 0 50 4 61 9 20 8 20 9
-1 9 -32 1 -52 31 -55 81 -3 57 4 70 42 70 17 0 56 12 87 26 54 25 161 45 257
48 37 1 41 -2 59 -39 11 -22 67 -87 127 -145 135 -131 175 -210 136 -264 -13
-17 -17 -17 -87 8 -68 25 -82 27 -164 20 l-89 -7 7 27 c9 38 -33 60 -145 76
-86 13 -95 12 -158 -9 -36 -12 -117 -29 -180 -36 -82 -10 -131 -22 -170 -41
-31 -15 -71 -34 -89 -43 -42 -19 -183 -167 -206 -215 -18 -38 -49 -61 -67 -50
-12 7 -131 36 -133 32 -1 -2 -10 -15 -19 -30 -10 -15 -20 -54 -23 -85 -6 -52
-3 -65 25 -119 17 -34 31 -69 31 -79 0 -26 32 -75 50 -75 18 1 43 33 58 77 6
18 24 52 40 76 17 23 37 59 45 80 9 20 18 37 20 37 3 0 39 -16 80 -36 137 -65
359 -86 625 -59 74 8 87 -10 15 -20 -27 -3 -79 -13 -118 -22 -38 -8 -86 -16
-105 -18 -26 -2 -43 -13 -71 -45 l-37 -43 29 -25 c17 -13 62 -37 100 -53 66
-27 72 -28 105 -14 19 8 47 23 62 33 15 10 69 37 119 60 103 46 153 84 153
117 0 11 6 27 13 34 10 11 2 12 -43 10 -118 -5 -129 11 -56 79 l44 41 -31 6
c-43 9 -104 50 -112 75 -3 11 -12 20 -20 20 -7 0 -16 7 -19 16 -5 13 -9 14
-21 4 -11 -9 -11 -17 -3 -35 6 -13 8 -31 5 -39 -11 -29 -37 -16 -58 29 -21 45
-21 46 -3 60 11 8 26 14 34 13 8 0 36 9 63 21 26 12 80 26 120 31 39 5 92 14
117 19 25 5 97 11 160 13 l115 3 35 -68 c19 -38 49 -79 65 -91 37 -29 136 -72
188 -81 49 -9 63 3 83 73 15 49 15 69 4 155 l-12 98 25 27 c16 17 27 44 31 72
3 25 9 59 12 75 8 45 -25 112 -86 173 -55 54 -88 65 -131 41 -17 -9 -20 -8
-18 8 4 22 -20 93 -31 93 -4 0 -32 -11 -61 -24 -70 -30 -97 -21 -139 44 -28
44 -31 54 -28 121 l3 74 45 7 c95 16 220 56 262 83 24 16 68 52 99 80 30 27
90 76 131 107 117 88 141 151 156 409 5 80 12 152 17 159 12 20 68 39 136 46
100 9 110 2 137 -102 13 -49 36 -129 51 -179 23 -75 32 -91 52 -96 13 -3 23
-10 22 -16 -1 -5 4 -34 12 -64 8 -30 15 -82 15 -116 0 -60 1 -63 25 -63 67 0
107 108 59 161 -11 12 -14 32 -11 69 l5 52 -27 -26 c-15 -14 -32 -26 -39 -26
-17 0 -15 30 3 50 14 16 14 21 -6 55 -65 110 -51 341 24 397 44 33 119 68 146
68 58 0 115 -56 162 -159 33 -73 41 -81 86 -81 51 0 73 -37 73 -125 0 -66 -2
-73 -22 -78 -12 -4 -34 1 -49 10 -16 10 -31 14 -34 11 -3 -3 -10 -33 -16 -67
-5 -34 -25 -99 -43 -144 -70 -170 -92 -259 -69 -278 22 -19 466 -2 577 22 76
17 133 20 395 21 267 2 312 0 351 -15 l45 -17 35 40 c19 22 42 40 51 40 25 0
28 9 13 38 -29 55 -12 105 42 128 23 10 35 22 39 42 14 67 25 76 105 85 41 4
192 3 335 -3 143 -5 315 -10 382 -10 116 0 123 1 137 23 12 18 15 70 15 277
-1 312 -7 363 -48 420 -34 48 -39 89 -16 134 20 38 19 69 -4 90 -16 15 -39 17
-146 17 -214 -1 -241 -19 -230 -149 7 -78 7 -80 -18 -96 -47 -31 -328 -47
-1452 -81 -450 -14 -770 -27 -777 -32 -5 -2 -27 -2 -48 2 -30 5 -40 11 -40 25
0 11 7 23 15 27 13 8 13 20 3 93 -23 167 -29 153 97 236 216 142 400 270 455
314 30 25 66 53 80 62 50 32 308 266 440 398 106 107 190 228 190 276 0 43
-26 69 -77 77 -22 4 -46 14 -53 22 -13 16 -65 22 -56 6 7 -11 -17 -21 -53 -21
-15 0 -36 -7 -47 -15 -21 -16 -68 -18 -99 -5 -11 5 -15 9 -9 9 5 1 19 7 30 15
17 13 15 14 -26 13 -43 -2 -45 -3 -42 -29 4 -34 -12 -42 -129 -59 -46 -6 -89
-15 -95 -20 -16 -13 -152 -34 -161 -25 -4 4 1 14 11 22 20 14 20 14 0 14 -30
0 -64 -11 -64 -21 0 -5 10 -9 22 -9 32 0 13 -15 -51 -40 -58 -22 -101 -19 -80
6 17 21 -2 19 -152 -22 -74 -19 -150 -39 -169 -44 -19 -5 -69 -19 -110 -31
-81 -23 -173 -44 -259 -60 -29 -5 -62 -14 -72 -19 -10 -6 -26 -10 -36 -10 -10
0 -35 -8 -55 -19 -20 -10 -56 -21 -79 -25 l-42 -7 6 30 c8 37 -16 49 -38 18
-20 -29 -19 -37 6 -37 36 0 -110 -70 -159 -77 -33 -4 -44 -2 -37 5 6 6 23 12
40 14 24 2 30 9 36 35 6 31 0 38 -46 47 -5 1 -18 6 -28 10 -25 12 -51 -15 -43
-42 4 -12 15 -23 24 -25 16 -4 16 -5 -1 -12 -21 -9 -48 21 -39 43 4 11 0 13
-16 7 -13 -3 -22 -2 -22 4 0 5 -11 22 -25 37 -20 22 -27 24 -39 14 -9 -6 -20
-9 -26 -5 -16 10 -41 -15 -35 -36 9 -26 -15 -34 -31 -10 -19 26 -41 27 -49 1
-5 -17 -10 -18 -27 -9 -20 11 -20 13 -5 24 10 7 14 19 10 33 -4 18 -10 21 -32
16 -36 -9 -41 -13 -41 -30 0 -23 -14 -16 -27 13 -18 37 -16 56 6 84 10 14 21
36 23 49 4 35 22 31 26 -6 2 -19 -3 -36 -12 -44 -9 -7 -16 -22 -16 -33 0 -19
1 -19 19 -3 14 13 28 16 49 11 24 -5 31 -2 36 13 6 19 74 57 84 47 4 -3 -3 -8
-14 -11 -11 -3 -25 -19 -31 -35 -13 -33 -7 -36 24 -14 14 10 24 12 28 5 11
-18 26 0 16 18 -6 11 -4 25 7 44 20 34 9 47 -19 22 -20 -18 -21 -18 -31 0 -7
12 -17 16 -31 12 -32 -7 -52 13 -65 66 -16 62 -15 86 3 105 9 8 13 18 10 21
-10 10 -64 -53 -65 -75 0 -16 -6 -23 -19 -23 -23 0 -47 25 -31 35 5 3 10 10
10 16 0 16 -26 10 -54 -12 -14 -11 -30 -17 -36 -14 -5 3 -10 31 -10 61 0 54 0
54 -27 48 l-27 -7 18 27 c19 29 14 41 -19 49 -19 5 -19 5 3 12 19 6 23 14 21
39 -2 38 9 67 33 84 24 17 23 38 -2 45 -16 4 -18 11 -13 40 4 29 2 37 -17 47
-12 6 -33 9 -46 6 l-24 -6 20 -22 c11 -12 20 -29 20 -39 0 -9 7 -22 15 -29 22
-19 15 -30 -29 -45 -53 -18 -83 -6 -54 23 8 8 -1 23 -40 60 -50 46 -65 83 -42
97 7 4 6 13 -1 27 -20 38 11 85 54 79 4 -1 7 10 7 24 0 14 7 28 15 31 8 4 15
11 15 18 0 6 14 20 30 29 33 20 35 25 19 60 -9 20 -7 36 10 83 12 33 27 69 33
81 8 17 8 26 -1 37 -6 8 -11 30 -9 51 1 20 -2 39 -8 43 -5 4 -18 20 -27 35
-27 42 -45 62 -119 137 -38 37 -68 72 -68 79 0 6 -7 14 -15 17 -8 4 -15 12
-15 20 0 8 -8 15 -17 15 -10 1 -2 5 17 9 19 4 -218 8 -527 9 -362 1 -563 -3
-565 -9z m4985 -3111 c21 -5 44 -21 54 -36 15 -22 15 -28 2 -51 -20 -36 -63
-45 -129 -26 -102 28 -110 33 -110 70 0 21 6 37 18 43 22 14 117 14 165 0z
m-915 -25 c27 -19 28 -38 2 -64 -17 -17 -33 -20 -117 -20 -76 0 -100 4 -115
17 -21 18 -24 53 -6 71 19 19 208 16 236 -4z m-440 -24 c12 -12 22 -27 22 -35
0 -18 -34 -50 -70 -65 -22 -9 -29 -20 -33 -52 -7 -49 -35 -80 -71 -80 -31 0
-66 28 -66 52 0 43 35 165 51 181 28 28 137 27 167 -1z m-2547 -542 c30 -15
92 -34 139 -43 175 -35 269 -113 286 -238 8 -53 -11 -123 -40 -152 -39 -39
-160 -42 -129 -3 20 26 23 77 6 112 -30 64 -73 56 -216 -37 -45 -29 -90 -56
-99 -60 -9 -3 -25 -19 -35 -34 -21 -34 -37 -47 -80 -68 -31 -15 -34 -15 -61 5
-16 12 -35 22 -43 23 -8 2 -19 6 -25 9 -33 21 -280 46 -329 34 -14 -4 -32 -18
-41 -32 -16 -23 -16 -28 -1 -59 13 -26 24 -35 52 -41 71 -13 4 -61 -70 -50
-41 7 -44 9 -70 68 -32 70 -31 128 3 176 21 29 151 92 191 92 24 0 81 46 81
66 0 24 39 54 70 54 68 0 98 38 69 91 -17 33 -2 54 64 88 58 31 67 32 143 29
61 -3 95 -11 135 -30z"/>
<path d="M511 8041 c-29 -9 -58 -25 -63 -35 -15 -28 -49 -35 -92 -20 -33 12
-43 12 -73 -3 -19 -9 -42 -28 -51 -42 -38 -59 -69 -65 -107 -19 -23 27 -34 32
-73 32 l-47 1 -3 -282 -2 -282 35 -7 c20 -3 56 -4 81 0 24 3 64 9 89 12 l44 7
61 -66 c85 -91 150 -107 220 -55 14 10 42 21 61 24 38 6 40 5 80 -48 18 -24
27 -28 72 -28 29 1 66 7 82 14 25 11 36 10 65 -2 30 -12 61 -12 225 -1 104 7
249 13 322 13 78 1 136 5 142 11 16 16 -10 99 -33 103 -11 2 -34 -14 -61 -43
-38 -42 -47 -47 -85 -47 -31 1 -48 7 -67 26 -31 31 -62 33 -86 6 -13 -15 -29
-20 -68 -20 -70 0 -118 29 -119 72 0 27 -49 78 -76 78 -17 0 -24 6 -24 20 0
11 5 20 10 20 17 0 12 110 -5 116 -16 6 -55 68 -55 87 0 7 7 23 16 35 l16 23
23 -25 c27 -29 72 -43 87 -28 19 19 -6 58 -62 98 -35 25 -53 46 -61 72 -6 20
-21 50 -35 65 -22 25 -25 27 -46 13 -32 -20 -65 -14 -94 17 -13 15 -36 30 -49
33 -14 3 -40 21 -59 40 -39 39 -57 41 -135 15z"/>
<path d="M11610 8009 c-75 -6 -110 -15 -110 -28 0 -4 7 -17 16 -29 19 -28 12
-78 -20 -137 -16 -30 -31 -43 -61 -53 -72 -24 -68 -1 -61 -362 9 -377 2 -355
106 -346 36 3 76 8 90 11 30 7 212 24 258 25 l32 0 0 463 0 464 -87 -1 c-49
-1 -122 -4 -163 -7z"/>
<path d="M1287 7928 c-13 -45 -7 -64 32 -102 30 -30 45 -37 63 -33 80 21 36
134 -61 153 -23 5 -29 2 -34 -18z"/>
<path d="M8605 7432 c-38 -24 -48 -37 -69 -91 l-17 -43 28 6 c82 21 91 20 112
-15 21 -34 46 -135 57 -229 10 -81 17 -89 43 -47 42 68 43 266 2 358 -20 43
-67 79 -104 79 -12 0 -35 -8 -52 -18z"/>
<path d="M13 7053 c-10 -3 -13 -57 -13 -219 l0 -214 60 0 c52 0 64 4 93 30
l35 30 165 0 c156 0 267 13 267 32 0 4 -15 8 -32 8 -18 0 -55 12 -83 25 -27
14 -56 25 -63 25 -7 0 -20 4 -30 8 -82 40 -77 35 -77 88 0 58 -19 90 -60 100
-16 4 -40 13 -54 20 -14 8 -40 14 -58 14 -22 0 -44 10 -66 30 -33 28 -56 35
-84 23z"/>
<path d="M0 6285 l0 -215 28 0 c54 0 196 20 204 28 5 5 5 19 0 33 -5 13 -12
42 -15 64 -21 146 -35 188 -69 206 -32 17 -61 42 -90 78 -10 11 -27 21 -38 21
-19 0 -20 -6 -20 -215z"/>
<path d="M11370 6266 c-6 -8 -35 -22 -63 -32 -29 -9 -62 -23 -75 -31 -12 -7
-35 -14 -50 -14 -74 0 -267 12 -347 20 -49 6 -126 13 -170 16 -44 3 -107 12
-140 20 -81 20 -121 19 -190 -5 -33 -11 -83 -23 -112 -27 -51 -6 -72 -16 -55
-27 7 -4 56 -11 412 -52 134 -15 196 -33 206 -59 14 -36 203 -76 241 -52 7 4
29 7 50 6 21 -1 47 1 59 5 23 7 47 -13 36 -30 -20 -32 -71 -43 -218 -48 -82
-2 -180 -10 -219 -18 -82 -15 -170 -16 -435 -4 -131 6 -227 5 -292 -3 -113
-13 -125 -17 -133 -42 -8 -25 -45 -25 -52 1 -7 25 -20 26 -26 3 -4 -15 -5 -16
-6 -2 -1 22 -32 29 -181 38 -129 8 -165 19 -230 71 -28 22 -60 18 -60 -7 0 -8
11 -29 25 -47 34 -45 34 -93 -1 -106 -14 -6 -42 -10 -62 -10 -20 0 -69 -7
-107 -15 -39 -8 -92 -15 -120 -15 -48 0 -49 0 -26 -16 17 -12 22 -23 18 -41
-3 -16 2 -32 13 -43 14 -14 15 -21 6 -30 -6 -6 -6 -10 -1 -9 24 6 95 -39 95
-60 0 -6 12 -13 28 -17 56 -12 62 -16 68 -39 3 -13 15 -27 27 -31 11 -3 30
-16 41 -28 17 -18 29 -22 64 -18 35 3 42 1 42 -13 0 -9 10 -28 23 -41 27 -29
77 -33 77 -6 0 12 3 13 8 4 5 -7 37 -13 83 -15 41 -1 79 -5 84 -9 6 -3 36 -9
68 -12 31 -4 57 -11 57 -16 0 -4 20 -11 45 -14 25 -4 45 -12 45 -17 0 -6 5 -7
10 -4 6 3 13 -1 16 -9 3 -9 15 -16 25 -16 11 0 19 -7 19 -18 0 -22 40 -39 110
-46 90 -9 140 -18 146 -27 3 -5 16 -9 29 -9 30 0 75 -20 75 -33 0 -5 7 -6 16
-3 29 11 64 -4 64 -29 0 -26 29 -35 116 -35 29 0 56 -4 59 -10 3 -5 18 -10 33
-11 15 0 21 -3 15 -6 -10 -3 -9 -8 2 -20 8 -8 15 -18 15 -21 0 -13 -95 -41
-118 -35 -13 3 -22 1 -22 -6 0 -15 -27 -14 -32 1 -3 9 -11 10 -27 3 -19 -9
-20 -13 -9 -28 12 -16 38 -18 253 -23 284 -6 275 -6 275 -19 0 -5 4 -4 9 3 6
11 17 11 50 2 22 -6 41 -15 41 -20 0 -4 19 -15 43 -23 40 -15 41 -15 12 -16
-17 -1 -36 -9 -43 -19 -11 -15 -25 -17 -81 -14 -41 2 -78 -1 -91 -8 -12 -6
-65 -13 -118 -16 -54 -2 -146 -6 -207 -9 -65 -4 -145 -2 -195 5 -53 7 -86 8
-88 2 -2 -6 -66 -8 -165 -5 -125 3 -166 1 -180 -10 -18 -12 -18 -14 1 -37 l20
-25 219 3 c120 2 245 7 278 12 65 10 299 12 493 3 77 -3 140 -1 168 6 33 9 68
9 127 1 134 -17 147 -20 147 -35 0 -18 -36 -20 -43 -2 -3 6 -6 2 -6 -10 -1
-18 -7 -23 -28 -24 -16 -1 -41 -2 -58 -3 -16 -1 -131 -4 -255 -6 -152 -2 -244
-8 -284 -17 -44 -11 -61 -12 -66 -3 -5 8 -18 6 -46 -7 -21 -10 -42 -22 -45
-27 -4 -5 -20 -5 -35 -1 -55 13 -204 11 -213 -4 -7 -11 -9 -11 -14 0 -3 8 -6
4 -6 -9 -1 -13 3 -20 9 -17 5 3 12 -4 15 -17 13 -50 105 -86 274 -107 47 -6
88 -16 93 -23 6 -10 11 -9 19 5 7 12 17 16 30 12 13 -4 19 -2 19 9 0 19 24 20
275 16 94 -1 173 -6 176 -11 7 -11 39 -1 39 12 0 5 18 9 39 9 31 0 41 -4 46
-20 3 -11 13 -20 21 -20 11 0 12 -4 3 -17 -12 -20 -21 -21 -186 -23 -94 -1
-115 -4 -123 -18 -6 -12 -12 -13 -17 -6 -5 6 -55 14 -112 18 -57 3 -110 11
-118 17 -16 14 -46 4 -41 -13 5 -13 39 -24 118 -37 44 -7 153 -50 194 -76 12
-7 39 -18 61 -25 22 -6 56 -19 75 -28 45 -20 253 -39 330 -29 19 2 92 5 163 6
l127 1 0 904 0 903 -57 26 c-32 14 -96 31 -143 37 -96 13 -119 28 -149 96 -29
64 -111 105 -141 70z"/>
<path d="M8414 5655 c-8 -21 3 -238 17 -320 5 -33 13 -135 18 -228 4 -103 12
-172 19 -179 17 -17 21 -8 33 63 14 84 14 126 -1 143 -9 11 -7 17 6 24 16 9
18 36 22 249 l4 240 -30 6 c-16 3 -41 9 -56 13 -19 4 -27 2 -32 -11z"/>
<path d="M8576 5598 c-3 -13 -6 -91 -6 -175 0 -92 -6 -182 -15 -230 -20 -103
-19 -110 7 -109 18 1 46 -34 145 -179 67 -99 126 -187 130 -195 3 -8 26 -37
51 -65 24 -27 58 -71 75 -97 18 -27 35 -48 39 -48 3 0 21 -21 38 -47 18 -27
38 -52 46 -56 18 -10 84 -110 85 -128 0 -8 16 -41 34 -74 19 -33 43 -77 55
-97 11 -21 24 -38 29 -38 5 0 18 -15 30 -32 11 -18 26 -42 33 -53 7 -11 29
-40 48 -65 35 -43 79 -112 110 -170 8 -16 39 -51 68 -78 28 -27 52 -54 52 -59
0 -6 16 -30 35 -54 19 -24 35 -52 35 -61 0 -9 12 -23 27 -30 15 -7 30 -24 33
-38 4 -16 12 -24 23 -22 11 2 21 -7 26 -22 6 -13 15 -27 21 -31 6 -4 8 -14 6
-23 -7 -21 2 -33 36 -51 15 -8 30 -24 34 -35 13 -47 46 -104 74 -131 16 -16
30 -34 30 -40 0 -7 9 -22 20 -35 11 -13 20 -27 20 -33 0 -5 7 -4 15 3 12 10
16 9 21 -6 3 -11 10 -29 15 -42 5 -13 9 -33 9 -45 1 -21 1 -21 11 -3 10 17 13
16 26 -13 9 -17 22 -31 29 -31 8 0 19 -10 25 -22 5 -13 21 -28 34 -35 23 -10
26 -9 33 20 7 25 13 31 30 29 17 -2 22 2 22 17 0 12 4 21 9 21 14 0 33 -28 28
-42 -2 -7 3 -21 11 -31 9 -10 18 -39 20 -65 2 -26 10 -57 18 -70 14 -21 14
-26 -2 -49 -16 -25 -16 -27 2 -40 58 -40 90 -89 100 -154 10 -61 -10 -47 -52
36 -21 41 -40 73 -42 70 -11 -10 -42 29 -42 52 0 12 -4 23 -9 23 -5 0 -14 15
-21 33 -11 31 -12 31 -25 13 -16 -22 -16 -22 -33 17 -6 15 -19 27 -28 27 -9 0
-25 11 -36 25 -11 14 -26 25 -34 25 -8 0 -22 9 -31 20 -10 11 -25 20 -34 20
-9 0 -19 7 -23 15 -3 8 -12 15 -21 15 -8 0 -15 7 -15 15 0 8 -7 15 -15 15 -8
0 -21 13 -30 29 -8 17 -32 37 -55 47 -22 10 -40 23 -40 30 0 7 -8 19 -18 26
-10 7 -24 29 -32 48 -8 19 -29 51 -46 70 -17 19 -44 55 -59 80 -15 25 -41 60
-56 78 -16 18 -29 37 -29 43 0 8 -74 114 -90 129 -7 6 -51 67 -65 91 -19 32
-49 74 -72 102 -12 15 -30 43 -38 61 -9 19 -32 52 -51 74 -19 22 -34 44 -34
49 -1 4 -25 42 -55 83 -29 41 -93 136 -141 210 -48 74 -99 151 -114 170 -26
34 -140 228 -140 238 0 3 -11 18 -25 32 -13 14 -35 46 -48 70 -32 62 -94 168
-156 270 -28 47 -61 106 -74 132 -12 26 -25 47 -29 48 -5 0 -8 -19 -8 -42 0
-23 -6 -68 -12 -101 -12 -59 -12 -59 15 -81 42 -33 37 -81 -13 -142 -22 -27
-40 -52 -40 -56 0 -4 12 -15 28 -25 78 -48 84 -120 15 -194 l-24 -26 21 -64
c11 -35 25 -72 30 -81 13 -23 13 -71 -1 -100 -6 -13 -30 -38 -55 -56 -39 -29
-43 -36 -37 -60 4 -15 7 -43 6 -62 -2 -19 -2 -64 -2 -99 0 -92 -11 -103 -153
-160 -26 -10 -28 -15 -28 -64 0 -31 -6 -61 -16 -75 -8 -12 -22 -44 -29 -70
-19 -64 -31 -73 -170 -138 -22 -10 -51 -26 -65 -35 -37 -24 -80 -32 -96 -18
-12 10 -18 9 -31 -3 -14 -14 -12 -17 15 -23 18 -4 32 -14 35 -26 4 -16 11 -18
31 -13 65 16 11 -81 -110 -196 -38 -36 -90 -91 -116 -122 -78 -93 -102 -96
-128 -18 -14 43 -34 49 -54 18 -8 -13 -6 -22 12 -41 12 -13 22 -32 22 -44 0
-27 27 -49 71 -57 38 -7 66 -26 126 -86 33 -33 35 -38 30 -89 -7 -68 -37 -113
-139 -214 -77 -75 -166 -137 -199 -137 -37 0 -199 142 -220 193 -7 17 -27 44
-43 60 -25 23 -31 37 -31 70 0 23 4 51 9 62 7 15 12 3 20 -54 9 -59 16 -77 34
-89 l24 -15 -4 68 -3 68 65 33 c36 19 73 34 83 34 9 0 17 6 17 14 0 28 -22 28
-50 1 -16 -15 -33 -24 -40 -20 -6 4 -17 1 -25 -5 -13 -10 -15 -8 -15 17 0 29
34 73 56 73 6 0 23 13 38 29 26 27 27 33 22 91 -3 38 -1 69 6 80 9 14 8 24 -5
44 -20 29 -61 35 -71 10 -4 -12 -15 -15 -36 -12 -17 3 -30 0 -30 -5 0 -19 51
-77 81 -93 43 -22 37 -58 -9 -62 -42 -4 -110 40 -117 74 -17 81 -16 80 -26 61
-12 -20 -65 -23 -103 -5 -22 9 -29 8 -45 -6 -27 -25 -41 -17 -60 34 -9 24 -21
45 -27 47 -18 6 -26 -40 -9 -50 22 -12 18 -45 -5 -52 -11 -4 -34 -3 -51 0 -21
5 -36 2 -47 -8 -9 -8 -31 -18 -49 -22 -19 -4 -35 -14 -38 -26 -9 -26 -40 -20
-40 7 -1 12 -13 35 -28 53 -15 18 -27 41 -27 51 0 14 -9 20 -32 22 -33 3 -33
4 -36 62 -3 57 -3 58 -23 41 -18 -17 -22 -17 -61 -2 -36 15 -44 15 -57 3 -9
-8 -36 -17 -61 -21 -43 -6 -48 -4 -87 31 -36 33 -40 40 -32 63 11 31 49 60 49
37 0 -7 7 -19 15 -26 13 -11 15 -8 17 16 3 61 -5 90 -33 122 -54 61 -26 90 40
39 33 -25 42 -39 47 -74 8 -53 0 -87 -28 -115 -20 -20 -20 -21 -2 -35 25 -18
37 -12 50 28 9 25 18 34 35 35 13 1 37 5 53 9 22 6 31 4 38 -9 8 -14 11 -14
32 0 15 9 33 13 50 8 16 -4 26 -2 26 5 0 6 -10 11 -23 11 -25 0 -62 50 -48 66
18 20 43 145 37 180 -7 34 -6 35 20 32 31 -3 61 -50 85 -133 16 -53 22 -60 66
-68 21 -4 35 -1 43 8 7 8 17 15 22 15 5 0 21 9 36 19 21 15 57 22 162 31 74 6
151 15 170 20 42 12 71 49 75 96 1 19 5 37 8 41 4 3 -5 19 -18 35 -39 47 -85
152 -85 196 0 29 7 48 27 71 15 17 32 31 39 31 6 0 36 18 66 39 30 22 67 43
81 46 15 4 45 25 67 46 22 21 45 39 50 39 13 0 13 36 -1 61 -13 26 12 83 44
101 36 19 76 68 99 119 16 38 26 49 43 49 42 0 269 102 375 168 66 42 65 41
58 47 -3 3 -30 -5 -59 -18 -78 -34 -144 -50 -175 -43 -21 6 -25 11 -19 29 4
12 9 36 12 52 5 30 5 30 -47 -20 -29 -27 -59 -65 -66 -82 -13 -29 -19 -33 -52
-33 -31 0 -43 6 -60 30 -26 35 -39 37 -86 10 -19 -10 -48 -20 -63 -22 -25 -3
-28 0 -28 26 -1 19 -7 31 -20 36 -11 4 -32 22 -48 39 -30 35 -35 36 -72 19
-21 -10 -29 -8 -48 9 -12 11 -39 24 -61 27 -21 4 -50 16 -65 26 -14 10 -48 21
-74 24 -67 8 -121 34 -196 94 -45 36 -73 52 -94 52 -21 0 -28 4 -24 15 10 24
-10 27 -49 8 -30 -15 -40 -28 -57 -73 -11 -30 -28 -62 -39 -71 -10 -9 -18 -27
-18 -41 0 -27 -28 -57 -76 -81 -17 -9 -36 -23 -43 -31 -8 -9 -24 -16 -37 -16
-12 0 -26 -5 -29 -11 -10 -15 -121 -3 -148 16 -12 8 -28 15 -36 15 -7 0 -39
17 -70 39 -32 21 -72 42 -91 46 -42 9 -96 43 -110 71 -6 11 -23 25 -38 32 -15
6 -35 17 -44 24 -14 10 -24 10 -50 0 -21 -8 -36 -8 -42 -2 -6 6 -18 10 -28 10
-10 0 -21 7 -24 15 -5 11 -10 13 -19 5 -7 -6 -19 -8 -26 -5 -8 3 -27 -6 -44
-19 -26 -22 -29 -27 -17 -45 6 -11 12 -43 12 -71 0 -44 -3 -52 -25 -62 -14 -6
-25 -15 -25 -20 0 -4 -5 -8 -11 -8 -5 0 -8 4 -5 9 4 5 1 11 -4 13 -6 2 -17 30
-24 63 -21 93 -63 226 -76 239 -9 8 -16 5 -31 -14 -11 -14 -28 -36 -39 -48
-11 -13 -20 -26 -20 -28 0 -3 -32 -44 -71 -92 -39 -48 -82 -106 -97 -129 -15
-23 -30 -42 -34 -43 -4 0 -11 18 -14 40 -6 34 -10 40 -31 40 -32 0 -39 -23
-20 -71 l16 -40 -57 -27 c-31 -16 -88 -47 -125 -71 -86 -53 -285 -153 -476
-238 -80 -36 -191 -85 -245 -110 -83 -37 -123 -48 -250 -69 -308 -49 -493
-116 -760 -272 -37 -22 -126 -59 -196 -81 -69 -23 -151 -56 -182 -74 -117 -71
-292 -233 -412 -384 -104 -130 -139 -195 -160 -298 -4 -17 -17 -42 -29 -55
-259 -286 -422 -543 -501 -792 -26 -81 -32 -90 -77 -123 -75 -53 -93 -98 -95
-225 -1 -96 -4 -112 -36 -190 -20 -47 -57 -146 -83 -220 -27 -74 -52 -136 -56
-138 -5 -2 -9 -16 -9 -31 0 -14 -7 -37 -16 -49 -15 -21 -17 -22 -28 -7 -18 24
-98 32 -115 11 -17 -20 -31 -21 -31 0 0 12 -10 14 -53 12 l-52 -3 0 -140 0
-140 58 -3 57 -3 0 60 c0 69 11 106 36 115 25 9 64 -20 64 -49 0 -13 4 -35 10
-49 6 -16 6 -35 1 -49 -5 -12 -19 -56 -32 -97 -12 -41 -39 -111 -59 -155 -21
-44 -43 -95 -49 -114 -15 -46 -44 -229 -38 -244 6 -17 -8 -113 -28 -180 l-16
-57 -580 0 c-379 0 -579 -3 -579 -10 0 -7 1983 -10 5930 -10 3947 0 5930 3
5930 10 0 6 -4 10 -8 10 -4 0 -8 15 -8 33 0 17 -10 52 -21 77 -12 25 -24 72
-28 105 -4 33 -11 65 -16 70 -4 6 -12 33 -17 60 -6 28 -10 39 -11 24 -1 -30
17 -278 24 -331 5 -37 4 -38 -25 -38 -29 0 -30 2 -30 43 0 55 -21 85 -56 81
-46 -5 -57 -42 -24 -84 11 -14 20 -28 20 -32 0 -5 -73 -8 -163 -8 l-163 0 -19
39 c-80 158 -116 225 -124 235 -5 6 -50 92 -101 191 -50 99 -95 185 -100 190
-14 19 -217 400 -252 475 -14 30 -51 107 -81 170 -66 139 -107 229 -107 235 0
3 -11 23 -24 44 -13 21 -31 61 -40 90 -8 28 -24 63 -35 77 -11 13 -22 44 -26
67 -4 23 -13 49 -20 57 -12 14 -26 52 -55 145 -7 22 -21 49 -31 60 -10 11 -25
46 -33 78 -8 31 -22 67 -30 79 -9 12 -16 30 -16 39 0 9 -15 47 -34 85 -30 60
-33 75 -27 114 4 25 12 53 18 64 5 10 8 38 5 62 -2 24 -1 51 2 61 7 16 9 16
19 2 7 -8 20 -18 30 -22 9 -3 17 -15 17 -26 0 -28 11 -52 21 -45 5 3 9 -10 9
-28 0 -37 63 -138 86 -138 8 0 14 -4 14 -9 0 -5 9 -20 20 -33 10 -12 37 -45
60 -71 22 -27 40 -52 40 -56 0 -10 79 -148 110 -191 30 -43 47 -68 62 -97 6
-13 17 -23 24 -23 17 0 36 -35 32 -58 -1 -9 5 -28 15 -42 9 -13 17 -32 17 -42
0 -9 5 -20 10 -23 6 -3 10 -13 10 -21 0 -8 11 -27 25 -42 14 -15 25 -37 25
-49 0 -24 37 -93 50 -93 11 0 48 -78 56 -119 6 -30 9 -32 19 -17 19 25 25 19
25 -25 0 -30 4 -40 13 -36 9 3 20 -9 31 -33 10 -24 25 -40 40 -44 17 -4 25
-15 30 -38 7 -37 69 -120 103 -139 27 -15 67 -74 77 -112 3 -15 11 -25 17 -22
5 4 16 2 23 -4 8 -7 18 -11 22 -9 5 1 19 -1 31 -6 19 -6 21 -11 13 -32 -13
-33 -13 -34 5 -34 8 0 15 9 15 20 0 19 1 19 18 3 22 -21 19 -33 -9 -33 -10 0
-19 -1 -19 -3 0 -1 -4 -17 -9 -35 -8 -28 -7 -36 10 -50 21 -18 25 -62 9 -92
-13 -24 -4 -47 21 -53 13 -4 19 -14 19 -35 0 -17 5 -34 10 -37 6 -3 10 -21 10
-38 0 -18 7 -41 15 -51 8 -11 15 -29 15 -39 0 -11 9 -34 19 -51 11 -17 25 -52
31 -77 9 -35 21 -53 51 -75 21 -16 41 -36 44 -45 5 -14 10 -15 30 -5 28 13 30
28 14 146 -14 109 -29 273 -34 370 -4 77 -7 87 -30 103 -31 23 -32 45 -2 49
20 3 22 8 19 58 -4 78 -19 126 -45 147 -13 10 -32 32 -42 48 -10 17 -20 31
-21 33 -1 2 -11 -1 -22 -7 -15 -8 -23 -7 -32 4 -7 8 -30 18 -50 21 -32 5 -39
11 -44 36 -5 23 -10 29 -23 24 -9 -4 -20 -1 -24 5 -10 16 11 48 28 42 7 -3 13
0 13 7 0 6 8 9 18 5 15 -4 21 2 29 27 l10 33 9 -54 c5 -30 15 -56 22 -59 6 -2
12 3 12 12 0 25 13 19 40 -20 39 -55 110 -85 110 -46 -1 9 -7 28 -15 42 -7 14
-11 37 -8 53 8 37 -50 123 -119 177 -129 101 -253 229 -353 365 -16 22 -32 42
-36 45 -3 3 -24 33 -46 67 -23 34 -58 84 -80 110 -22 26 -52 67 -67 90 -15 25
-43 51 -66 63 -22 11 -40 25 -40 30 0 5 -20 31 -45 57 -25 25 -45 54 -45 62
-1 9 -23 40 -50 70 -72 78 -63 119 14 71 18 -10 41 -18 51 -18 18 1 69 -17
117 -43 25 -13 48 -11 54 4 2 7 -25 75 -61 150 -68 141 -76 180 -43 201 25 16
45 -8 116 -144 96 -182 111 -213 117 -242 4 -22 12 -27 46 -33 22 -4 43 -4 47
-1 3 4 -17 86 -45 184 -28 97 -59 214 -68 259 -16 75 -16 84 -2 106 9 14 28
28 44 32 15 3 35 13 44 21 14 12 18 5 41 -69 27 -83 35 -115 64 -262 38 -192
44 -219 59 -241 17 -27 20 -54 5 -54 -48 0 63 -49 195 -86 86 -24 155 -56 166
-76 6 -10 10 -61 9 -111 -1 -51 4 -171 10 -267 6 -96 13 -245 15 -330 7 -237
30 -589 49 -740 1 -8 9 -26 18 -40 9 -14 21 -45 27 -70 6 -25 19 -72 30 -105
11 -33 29 -96 40 -139 12 -44 23 -81 26 -84 10 -10 5 2522 -5 2588 -15 97 -61
273 -75 290 -7 8 -17 29 -22 45 -5 17 -17 31 -26 33 -15 3 -17 -8 -17 -80 0
-88 -12 -154 -29 -171 -7 -7 -12 -5 -16 9 -10 31 -21 48 -33 52 -22 7 -17 -48
29 -311 7 -38 7 -63 0 -70 -6 -8 -3 -32 11 -72 27 -80 75 -304 83 -385 l6 -65
-21 55 c-41 110 -98 286 -110 340 -14 62 -31 100 -66 147 -27 36 -30 53 -10
53 11 0 5 22 -23 83 -21 45 -43 109 -50 142 -8 33 -17 76 -22 95 -5 19 -9 48
-9 64 0 16 -5 44 -12 63 -10 27 -9 38 5 68 20 42 10 44 -43 10 -22 -14 -44
-25 -49 -25 -5 0 -20 -13 -33 -29 -29 -36 -114 -101 -132 -101 -17 0 -26 79
-13 113 8 22 9 22 31 -6 21 -26 25 -27 49 -16 27 12 32 24 28 66 -2 27 15 39
35 22 12 -10 18 -8 34 9 11 11 28 23 40 27 11 3 20 11 20 17 0 21 -23 88 -31
88 -4 0 -25 16 -45 36 -27 25 -45 34 -61 31 -19 -3 -24 1 -29 22 -11 58 -20
76 -39 79 -19 3 -61 59 -51 69 2 2 23 -9 47 -26 53 -36 57 -32 63 70 3 41 6
76 6 79 1 3 6 -8 13 -23 12 -28 13 -26 45 69 19 54 43 111 54 127 18 25 19 32
7 60 -6 18 -28 49 -48 70 -19 20 -31 37 -27 37 23 0 -57 48 -128 78 -186 76
-321 116 -486 141 -328 51 -324 51 -337 34 -14 -18 -9 -22 -113 68 -85 72
-142 122 -210 185 -121 111 -222 193 -263 212 -24 11 -49 27 -56 36 -8 9 -19
16 -25 16 -6 0 -17 9 -24 20 -8 14 -23 20 -46 20 -37 0 -61 17 -71 50 -4 12
-18 23 -35 27 -16 3 -40 18 -54 34 -15 16 -33 29 -41 29 -8 0 -15 8 -15 18 0
23 -22 43 -76 70 -27 14 -44 18 -51 11 -18 -18 -61 2 -87 42 -15 21 -32 39
-40 39 -7 0 -19 7 -27 16 -9 11 -26 14 -58 12 l-45 -3 -8 49 c-11 81 -40 102
-291 220 -129 61 -143 64 -151 34z m1951 -1660 c7 -6 15 -18 18 -29 9 -26 35
-24 35 2 0 18 2 19 15 9 8 -7 12 -17 9 -22 -12 -19 29 -129 53 -145 13 -9 23
-25 23 -38 0 -12 7 -28 15 -35 8 -7 15 -9 15 -5 0 22 40 -32 46 -61 3 -19 10
-34 14 -34 5 0 12 -9 15 -20 5 -14 12 -19 25 -15 16 5 17 1 13 -39 -4 -35 -1
-51 16 -75 22 -30 22 -71 0 -71 -14 0 -11 -34 6 -56 8 -10 15 -29 15 -40 0
-12 7 -27 15 -34 12 -10 15 -9 15 4 0 10 5 26 11 37 9 18 12 16 35 -28 24 -49
24 -83 -2 -83 -8 0 -14 -4 -14 -8 0 -5 -6 -17 -14 -27 -13 -18 -15 -18 -39 11
-15 16 -27 36 -27 44 -1 8 -8 0 -16 -17 -15 -36 -28 -42 -38 -18 -4 11 -13 14
-30 9 -17 -4 -27 -1 -33 11 -9 15 -11 15 -22 1 -12 -14 -16 -11 -37 20 -13 19
-24 38 -24 42 0 4 -9 39 -21 79 -16 51 -27 73 -41 76 -16 5 -18 11 -12 42 5
31 4 37 -14 42 -22 5 -30 40 -36 143 -1 30 -12 78 -24 105 -34 81 -55 219 -36
238 8 8 54 -2 71 -15z m-4545 -175 c38 -41 48 -66 48 -122 0 -54 -12 -70 -37
-50 -13 11 -17 10 -29 -6 -18 -24 -18 -36 0 -60 9 -13 20 -16 37 -12 16 4 30
0 45 -14 34 -32 47 -16 41 50 -3 31 -8 66 -12 78 -10 31 22 44 41 18 18 -24
17 -113 -1 -145 -20 -34 -19 -39 10 -50 21 -8 23 -13 16 -32 -11 -28 -43 -27
-83 2 -16 12 -29 16 -33 10 -12 -19 -42 -10 -78 25 -28 28 -37 44 -37 70 0 37
32 100 55 109 23 8 18 41 -10 74 -24 29 -32 62 -18 75 11 12 18 8 45 -20z
m4761 -753 c10 0 17 -8 17 -20 0 -10 6 -23 14 -27 8 -4 16 -21 18 -38 2 -20
11 -33 26 -40 33 -14 27 -32 -18 -55 -41 -21 -60 -20 -60 4 0 8 -6 19 -14 25
-8 7 -17 27 -20 46 -4 19 -16 52 -28 74 -15 28 -19 47 -13 68 l7 28 27 -32
c15 -18 35 -33 44 -33z m-5683 -577 c0 -25 -61 -235 -73 -250 -5 -7 -17 -13
-27 -13 -15 0 -18 -13 -22 -84 -4 -64 -15 -111 -44 -190 -21 -59 -41 -106 -44
-106 -3 0 -18 18 -34 40 -16 22 -37 42 -46 45 -27 9 -63 53 -57 69 4 9 13 13
21 10 8 -3 17 -1 21 5 4 8 15 6 35 -4 16 -8 31 -15 35 -15 3 0 5 40 5 90 0 88
-1 90 -30 112 -33 24 -36 37 -18 103 15 55 38 78 149 149 88 57 129 69 129 39z
m-306 -311 c46 -21 46 -21 46 -71 0 -28 -2 -51 -5 -51 -3 0 -24 9 -47 21 -23
12 -67 24 -99 26 -48 5 -59 3 -78 -16 -44 -44 -21 -77 96 -135 40 -20 88 -50
107 -66 88 -78 64 -210 -49 -261 -52 -24 -179 -24 -255 -1 l-55 18 -3 56 -3
57 60 -25 c77 -31 153 -32 181 -4 44 44 21 79 -89 134 -50 26 -101 60 -119 80
-76 86 -40 207 73 251 55 21 177 14 239 -13z m346 -104 l0 -121 23 20 c50 46
90 63 154 63 51 0 66 -4 92 -26 44 -37 53 -79 49 -249 l-3 -150 -39 -3 c-22
-2 -50 -1 -63 2 -23 6 -23 8 -23 147 0 135 -1 141 -25 164 -36 37 -76 33 -125
-11 l-40 -36 0 -129 c0 -127 0 -129 -23 -135 -13 -3 -41 -4 -63 -2 l-39 3 -3
293 -2 292 65 0 65 0 0 -122z m-3113 -49 c67 -25 122 -109 123 -186 l0 -43
-159 0 -160 0 10 -29 c5 -15 23 -41 39 -56 38 -37 124 -46 199 -21 64 21 61
21 61 -14 0 -45 -43 -63 -163 -68 -74 -3 -108 0 -140 12 -84 32 -127 93 -134
191 -4 52 -1 68 24 115 38 75 104 110 203 110 38 0 81 -5 97 -11z m373 -37 l5
-44 30 32 c40 43 83 60 150 60 49 0 60 -4 90 -32 45 -42 57 -101 53 -269 l-3
-124 -65 0 -65 0 -5 148 c-5 141 -6 150 -29 168 -38 31 -78 25 -122 -20 l-39
-39 0 -131 0 -132 -62 3 -63 3 -3 204 c-2 157 1 206 10 213 7 4 36 7 63 6 l50
-3 5 -43z m598 -164 l-3 -213 -60 0 -60 0 -3 200 c-1 110 0 205 2 212 4 9 26
13 66 13 l60 0 -2 -212z m421 201 c27 -9 31 -16 31 -46 0 -32 -2 -35 -22 -28
-13 3 -44 9 -70 12 -55 6 -78 -7 -78 -44 0 -20 11 -29 73 -57 39 -19 82 -45
95 -58 50 -54 31 -146 -38 -180 -59 -30 -230 -19 -252 16 -11 16 -10 54 1 60
5 3 25 -1 45 -9 48 -20 99 -19 126 3 37 30 19 55 -67 99 -88 44 -113 72 -113
122 0 77 60 121 166 121 39 0 85 -5 103 -11z m498 -4 c71 -30 111 -90 116
-172 l2 -48 -157 -3 c-173 -3 -173 -3 -138 -60 36 -59 125 -78 226 -47 53 16
67 10 62 -26 -5 -40 -82 -61 -205 -57 -94 3 -105 5 -145 33 -58 41 -88 101
-88 180 1 101 48 173 135 203 46 16 151 14 192 -3z m1818 -200 l0 -210 -60 0
-60 0 -3 213 -2 213 62 -3 63 -3 0 -210z m283 173 l3 -37 45 35 c55 41 78 48
151 42 47 -4 61 -10 84 -36 35 -39 41 -80 37 -252 l-3 -135 -60 0 -60 0 -5
148 c-5 141 -6 150 -29 168 -41 33 -96 21 -136 -30 -17 -22 -21 -45 -25 -156
l-5 -130 -60 0 -60 0 -3 200 c-1 110 0 205 3 213 3 9 21 12 62 10 l58 -3 3
-37z m805 12 c47 -31 87 -109 87 -167 l0 -43 -159 0 -160 0 10 -29 c17 -49 62
-83 117 -89 45 -4 121 7 165 23 14 6 17 2 17 -24 0 -46 -42 -64 -163 -69 -118
-5 -169 10 -221 68 -63 69 -73 165 -28 251 23 43 38 59 82 82 50 26 63 28 136
25 66 -2 87 -8 117 -28z m476 19 c20 -7 33 -20 37 -36 9 -36 -8 -48 -47 -34
-42 14 -102 14 -117 -1 -7 -7 -12 -23 -12 -36 0 -19 12 -29 73 -56 86 -40 117
-71 123 -123 6 -49 -23 -99 -71 -119 -62 -25 -227 -13 -247 20 -11 16 -10 54
1 60 5 3 25 -1 45 -9 48 -20 99 -19 126 3 36 29 19 58 -57 94 -87 42 -123 79
-123 127 0 77 60 121 166 121 39 0 85 -5 103 -11z m1857 -225 c72 -24 145 -82
173 -138 19 -40 23 -64 24 -144 1 -54 -3 -127 -7 -164 -8 -63 -7 -72 22 -130
47 -98 60 -108 142 -108 64 0 71 -2 87 -26 20 -31 63 -187 63 -229 0 -52 -12
-60 -102 -65 l-83 -5 -3 -33 c-7 -72 26 -179 85 -280 54 -89 58 -101 58 -157
-1 -100 -38 -171 -117 -221 -36 -23 -45 -24 -217 -24 l-178 0 -12 48 c-7 26
-16 63 -22 83 -22 87 -3 109 108 118 73 6 78 7 87 34 13 37 -3 95 -60 221 -25
54 -53 131 -61 172 -15 67 -15 77 0 130 16 57 16 58 -8 98 -65 108 -67 119
-72 306 -3 149 -7 182 -25 221 -33 75 -68 83 -201 47 -66 -17 -112 -22 -232
-23 -148 -1 -207 -10 -269 -42 -15 -8 -85 -21 -155 -29 -167 -19 -271 -39
-356 -69 -103 -35 -123 -37 -216 -21 -71 12 -110 14 -140 7 -9 -2 -195 -145
-240 -185 -23 -20 -45 -36 -49 -36 -5 0 -17 -15 -29 -32 -20 -33 -21 -33 -21
-7 0 46 -22 62 -86 66 -43 3 -68 -1 -94 -14 -76 -40 -103 -135 -57 -204 20
-30 38 -42 117 -79 9 -5 13 -16 10 -31 -5 -31 -5 -65 5 -169 11 -123 64 -224
153 -292 33 -26 42 -39 40 -58 -5 -38 -39 -47 -203 -53 l-150 -5 -42 44 c-127
137 -184 463 -110 639 l12 30 5 -45 5 -45 58 -3 58 -3 -2 153 c-1 85 2 161 7
170 11 19 88 84 118 100 12 6 32 20 46 32 55 49 267 166 300 166 9 0 37 13 62
29 51 33 162 69 236 78 28 3 80 -1 126 -11 106 -22 140 -20 198 9 69 35 226
65 330 64 82 -2 89 0 145 34 80 48 183 68 316 61 84 -4 113 -2 167 15 81 24
190 27 256 5z m-2974 -171 l3 -48 60 -5 60 -5 -1 -55 c-1 -30 -9 -70 -18 -88
-19 -37 -46 -41 -119 -16 -69 23 -88 17 -109 -36 -14 -35 -17 -62 -13 -117 l6
-73 -38 0 c-51 0 -103 -28 -131 -70 -19 -28 -23 -44 -19 -83 5 -57 30 -94 80
-122 23 -12 36 -26 34 -35 -2 -8 5 -36 15 -63 24 -63 12 -152 -37 -272 -48
-119 -49 -221 -4 -245 55 -30 818 -72 1154 -64 394 9 601 23 652 45 195 83
344 287 374 509 22 165 -44 355 -162 464 -63 58 -69 74 -41 98 33 29 243 68
295 54 27 -6 127 -122 159 -183 54 -103 80 -197 85 -303 15 -306 -143 -608
-412 -782 l-89 -58 -1128 0 c-834 0 -1134 3 -1153 12 -14 6 -43 35 -65 64 -36
48 -40 59 -40 111 0 75 18 141 63 229 47 92 52 127 32 189 -25 73 -36 82 -115
89 -81 8 -79 3 -55 131 24 123 32 142 68 154 59 21 177 -44 120 -66 -14 -6
-52 5 -115 32 -16 6 -18 1 -18 -44 0 -49 2 -53 33 -66 60 -25 124 -29 172 -11
94 36 106 131 25 199 -35 30 -41 67 -11 67 11 0 23 -4 26 -10 14 -22 25 -8 25
33 0 49 -8 64 -41 81 -22 11 -24 18 -25 98 -2 72 2 94 21 135 29 59 66 103 72
86 3 -9 33 -13 99 -13 l94 0 0 38 c0 51 14 62 76 62 l53 0 3 -47z m390 -39
c49 -26 161 -29 273 -9 102 18 125 17 218 -9 32 -9 66 -16 77 -16 24 0 31 -11
23 -39 -3 -14 -38 -43 -92 -78 -47 -31 -100 -69 -118 -86 -36 -33 -32 -33
-268 -3 -66 9 -157 16 -203 16 -67 0 -84 3 -89 16 -3 9 -1 56 5 103 10 73 16
90 38 109 30 26 80 25 136 -4z m-1802 -28 c0 -8 -14 -47 -31 -87 -17 -41 -49
-119 -71 -174 -40 -100 -82 -160 -96 -139 -4 6 -17 16 -30 23 -27 14 -24 34
20 129 15 34 28 69 28 78 0 17 34 87 63 128 31 43 117 75 117 42z m-1228 -57
c-2 -13 -10 -31 -17 -39 -7 -8 -16 -36 -19 -62 -6 -39 -4 -48 8 -48 8 0 16 5
18 11 7 22 49 -2 65 -37 23 -48 9 -80 -44 -104 l-42 -19 -7 22 c-4 12 -17 32
-30 44 -20 19 -22 26 -14 49 6 15 8 29 5 32 -3 3 -11 -9 -17 -26 -13 -34 -44
-44 -54 -17 -4 8 -14 15 -24 15 -15 0 -17 10 -16 77 l1 78 45 22 c25 12 59 21
77 20 18 0 36 2 40 6 13 14 28 0 25 -24z m273 1 c14 0 25 -5 25 -10 0 -6 -11
-8 -26 -4 -25 6 -26 5 -22 -20 3 -14 2 -26 -3 -26 -4 0 -20 -20 -35 -45 -29
-50 -65 -80 -107 -87 -38 -7 -56 28 -39 75 6 18 9 42 6 55 -6 21 9 31 20 13 3
-5 17 -11 31 -13 18 -4 25 -1 25 11 0 9 9 31 20 49 20 32 21 32 50 17 16 -8
40 -15 55 -15z m-355 -264 c0 -19 -6 -25 -27 -28 -19 -2 -29 -10 -34 -30 -6
-25 -5 -28 17 -28 33 0 35 -47 2 -52 -22 -3 -23 -8 -24 -93 l-2 -90 -35 -3
-36 -3 -3 93 c-3 89 -4 93 -26 96 -31 5 -27 46 6 50 17 3 22 10 22 31 0 16 11
40 25 55 19 21 33 26 70 26 41 0 45 -2 45 -24z m473 13 c34 -9 37 -13 37 -46
0 -32 -2 -35 -22 -28 -50 17 -125 17 -157 1 -65 -34 -77 -117 -23 -168 43 -42
104 -46 185 -13 14 6 17 2 17 -28 0 -30 -5 -36 -32 -48 -46 -19 -165 -17 -203
3 -65 35 -97 89 -96 164 1 81 30 127 101 158 41 18 139 20 193 5z m1846 0 c25
-9 31 -16 31 -41 0 -27 -3 -30 -22 -23 -49 16 -104 17 -116 2 -19 -23 -5 -42
51 -72 81 -43 97 -62 97 -111 0 -76 -78 -116 -185 -94 -45 9 -54 15 -60 37 -8
35 5 46 39 33 62 -23 127 -3 113 34 -4 9 -33 29 -66 46 -60 30 -91 67 -91 107
1 28 25 64 51 79 29 16 115 18 158 3z m-3632 -87 c26 -2 43 -9 47 -18 10 -26
-3 -34 -50 -34 l-44 0 0 -55 c0 -69 23 -98 70 -89 27 6 30 4 30 -19 0 -26 -4
-28 -62 -41 -39 -9 -96 17 -108 49 -6 15 -10 55 -10 91 0 59 -2 64 -22 64 -19
0 -13 9 37 60 l60 61 5 -33 c5 -31 8 -33 47 -36z m-735 -4 c14 -11 14 -17 2
-45 -12 -28 -18 -32 -42 -27 -19 4 -35 -1 -52 -14 -21 -17 -26 -31 -30 -89
l-5 -68 -37 -3 -38 -3 0 125 0 126 40 0 c40 0 40 0 40 -37 l0 -38 19 32 c31
50 71 66 103 41z m531 -5 c4 -2 7 -15 7 -29 0 -22 -4 -24 -47 -24 -56 0 -83
-21 -83 -63 0 -47 25 -67 82 -67 35 0 50 -4 55 -16 11 -28 -20 -45 -82 -45
-68 0 -101 18 -129 75 -47 95 39 196 154 179 19 -3 38 -8 43 -10z m836 8 c11
-7 11 -15 1 -46 -11 -32 -15 -36 -36 -31 -54 14 -94 -40 -94 -124 l0 -51 -37
3 -38 3 -3 123 -3 122 41 0 c39 0 40 -1 40 -35 l0 -36 38 41 c38 39 64 48 91
31z m1459 -25 c13 -12 18 -39 21 -101 2 -67 6 -85 18 -85 31 0 7 -35 -29 -44
-30 -8 -41 -6 -56 7 -17 16 -21 16 -52 1 -46 -24 -101 -10 -114 29 -16 45 9
70 116 111 30 12 36 18 31 35 -3 12 -17 24 -31 28 -23 5 -36 2 -94 -22 -14 -5
-18 -2 -18 13 0 26 18 40 66 50 50 10 121 0 142 -22z m310 19 c2 -2 -1 -20 -8
-40 -11 -32 -15 -36 -36 -31 -54 14 -94 -40 -94 -124 l0 -51 -37 3 -38 3 -3
123 -3 122 41 0 40 0 0 -42 0 -43 19 31 c27 44 61 66 91 59 14 -4 27 -8 28
-10z m831 6 c11 -7 12 -17 5 -43 -9 -30 -13 -33 -48 -33 -56 0 -76 -30 -76
-111 l0 -64 -40 0 -40 0 0 125 0 125 40 0 c40 0 40 0 40 -37 l0 -38 19 32 c30
48 68 64 100 44z m1021 -6 c10 -12 10 -21 0 -45 -11 -27 -17 -30 -40 -25 -18
4 -34 0 -51 -14 -20 -16 -25 -31 -29 -88 l-5 -68 -37 -3 -38 -3 0 125 0 126
40 0 c40 0 40 0 40 -37 l0 -38 19 32 c31 51 76 68 101 38z m702 -9 c19 -27 3
-41 -49 -44 -41 -2 -56 -8 -68 -25 -19 -28 -19 -57 1 -85 12 -18 25 -22 70
-22 54 0 55 0 52 -27 -3 -27 -5 -28 -72 -31 -78 -3 -106 9 -132 60 -23 45 -14
122 18 155 14 14 41 29 59 33 41 10 111 2 121 -14z m536 1 c29 -23 13 -36 -40
-34 -42 2 -53 -1 -56 -15 -2 -12 10 -24 40 -39 24 -12 51 -28 61 -37 23 -21
21 -61 -5 -89 -37 -40 -178 -29 -178 13 0 13 8 14 40 9 88 -15 107 21 30 60
-92 47 -94 118 -4 145 32 9 92 3 112 -13z m-5988 -14 c23 -20 33 -40 37 -70
l6 -43 -92 0 c-72 0 -91 -3 -91 -14 0 -41 61 -64 126 -49 46 11 58 6 48 -21
-8 -20 -102 -39 -149 -30 -77 14 -126 91 -105 163 19 66 55 89 137 90 44 1 58
-4 83 -26z m810 12 c78 -41 80 -169 3 -221 -36 -24 -126 -24 -170 -1 -75 40
-84 145 -19 204 32 30 42 33 96 33 35 0 74 -7 90 -15z m746 -18 c46 -42 56
-103 26 -157 -43 -78 -172 -92 -239 -25 -28 28 -33 40 -33 79 0 94 44 135 148
136 57 0 65 -3 98 -33z m1548 21 c32 -14 53 -45 61 -92 l7 -36 -90 0 c-50 0
-94 -4 -97 -10 -3 -5 6 -22 20 -36 23 -23 33 -26 73 -21 26 2 55 8 65 12 13 6
17 2 17 -18 0 -23 -6 -27 -55 -37 -90 -19 -167 8 -191 65 -27 65 -10 135 40
166 35 22 111 25 150 7z m332 -22 c26 -26 34 -42 34 -70 l0 -36 -90 0 c-99 0
-113 -11 -64 -49 29 -23 77 -27 119 -11 21 8 27 7 32 -7 9 -22 -19 -40 -76
-48 -101 -14 -169 28 -178 109 -11 93 39 146 136 146 47 0 57 -4 87 -34z
m1020 0 c26 -26 34 -42 34 -70 l0 -36 -90 0 c-99 0 -113 -11 -64 -49 29 -23
77 -27 119 -11 21 8 27 7 32 -7 9 -22 -19 -40 -76 -48 -108 -15 -181 36 -181
126 0 28 5 59 11 70 18 35 70 59 128 59 47 0 57 -4 87 -34z m429 -45 l30 -74
34 77 c33 73 36 76 68 76 18 0 33 -3 33 -7 0 -5 -23 -61 -52 -126 l-53 -118
-33 3 c-31 3 -35 8 -83 112 -27 61 -47 116 -44 124 3 8 17 12 37 10 31 -3 35
-8 63 -77z m295 -46 l0 -125 -40 0 -40 0 0 125 0 125 40 0 40 0 0 -125z m546
91 c26 -26 34 -42 34 -70 l0 -36 -90 0 c-99 0 -113 -11 -64 -49 29 -23 77 -27
119 -11 21 8 27 7 32 -7 9 -22 -19 -40 -76 -48 -126 -17 -213 67 -179 171 18
54 66 84 135 84 49 0 59 -4 89 -34z m-2848 -106 c2 -26 -18 -81 -84 -225 -47
-104 -111 -251 -141 -325 -30 -74 -67 -162 -82 -195 -16 -33 -43 -93 -62 -133
-23 -49 -39 -72 -51 -72 -10 0 -18 1 -18 3 0 1 14 40 31 87 17 47 37 105 45
129 8 25 20 52 28 60 12 15 38 88 67 191 7 25 18 54 25 65 7 11 21 47 32 80
36 108 78 192 101 198 16 4 21 13 21 39 0 18 5 50 10 70 21 73 73 92 78 28z
m-952 -15 c3 -8 12 -15 19 -15 45 0 14 -54 -36 -64 -24 -5 -29 -10 -29 -36 0
-31 -39 -68 -59 -56 -5 4 -21 1 -35 -5 -13 -6 -33 -8 -43 -5 -17 7 -17 8 1 22
19 14 19 14 -5 15 -22 1 -21 2 9 15 17 8 32 21 32 29 0 9 8 14 22 12 30 -3 56
47 39 75 -6 10 -11 19 -11 20 0 2 20 4 45 6 34 2 47 -1 51 -13z m117 -191 c6
-6 0 -23 -34 -101 -11 -24 -19 -49 -19 -56 0 -8 -9 -22 -20 -32 -11 -10 -20
-27 -20 -37 0 -21 -96 -256 -111 -272 -5 -6 -9 -21 -9 -35 0 -31 -17 -80 -48
-139 -23 -43 -49 -58 -37 -21 8 25 -26 62 -49 53 -21 -8 -21 18 -1 56 9 18 11
31 5 35 -6 3 -10 22 -10 41 0 32 2 34 33 34 17 0 38 4 46 9 16 10 6 31 -15 31
-17 0 -56 21 -66 35 -18 24 -6 47 42 76 28 17 50 34 50 39 0 4 17 15 38 24 48
20 102 68 84 74 -18 6 25 52 48 52 21 0 46 50 30 60 -17 10 16 80 38 80 10 0
21 -3 25 -6z m5234 -579 c6 -38 13 -90 15 -115 l3 -45 -392 -3 c-237 -1 -393
1 -393 7 0 5 19 24 43 42 23 18 69 59 103 90 34 32 72 60 85 63 13 2 83 9 154
16 72 6 146 12 165 14 19 2 73 3 120 2 l85 -1 12 -70z"/>
<path d="M1837 1899 c-21 -12 -47 -61 -47 -89 0 -19 6 -20 100 -20 l100 0 0
26 c0 29 -16 64 -39 81 -19 15 -89 16 -114 2z"/>
<path d="M3706 1879 c-15 -18 -26 -43 -26 -60 l0 -29 100 0 c111 0 112 1 86
65 -17 41 -42 55 -94 55 -33 0 -45 -6 -66 -31z"/>
<path d="M6597 1899 c-21 -12 -47 -61 -47 -89 0 -19 6 -20 100 -20 l100 0 0
25 c0 33 -25 81 -45 89 -25 9 -88 7 -108 -5z"/>
<path d="M9743 4992 c-93 -7 -22 -76 90 -89 29 -3 57 -9 62 -13 6 -4 19 -10
30 -13 20 -7 20 -7 1 8 -18 14 -14 15 55 16 41 0 99 5 129 10 30 6 75 12 100
15 73 8 90 13 90 30 0 34 -27 46 -88 39 -108 -12 -362 -17 -362 -6 0 6 -15 9
-32 8 -18 -1 -52 -3 -75 -5z"/>
<path d="M7445 3130 c-8 -12 27 -91 48 -108 33 -28 137 24 137 68 0 18 -7 20
-64 20 -44 0 -67 5 -76 15 -14 17 -36 20 -45 5z"/>
<path d="M11030 2281 c0 -5 19 -25 43 -46 23 -20 58 -51 77 -69 40 -37 97 -66
132 -66 12 0 34 -9 48 -20 14 -11 33 -20 42 -20 9 0 31 -20 48 -45 17 -25 35
-45 39 -45 4 0 28 -20 52 -45 56 -57 89 -61 89 -10 0 19 -9 52 -20 72 -22 42
-26 83 -9 100 21 21 -24 77 -73 91 -24 7 -49 15 -55 18 -8 3 -13 -1 -13 -10 0
-21 -7 -20 -104 6 -68 18 -87 28 -117 61 -33 34 -39 38 -59 27 -12 -6 -29 -9
-38 -5 -29 11 -82 15 -82 6z"/>
<path d="M920 1851 l0 -321 24 -6 c14 -3 114 -4 223 -2 229 4 258 12 331 92
64 69 76 105 76 216 0 121 -23 179 -100 249 -82 75 -115 83 -351 89 l-203 4 0
-321z m442 265 c66 -25 131 -85 159 -148 33 -75 33 -194 0 -260 -28 -58 -96
-120 -149 -136 -24 -7 -113 -12 -231 -12 l-191 0 0 291 0 291 183 -4 c140 -4
193 -9 229 -22z"/>
<path d="M1104 2037 c-2 -7 -3 -96 -2 -197 l3 -185 77 2 c144 3 196 46 206
170 9 116 -39 191 -138 212 -70 15 -139 14 -146 -2z m175 -45 c53 -26 72 -61
78 -133 8 -112 -42 -168 -154 -172 l-58 -2 -3 163 -2 162 52 0 c31 0 67 -7 87
-18z"/>
<path d="M11430 1809 c0 -34 9 -57 40 -104 87 -133 106 -155 132 -155 15 0 18
8 18 53 0 60 -34 135 -70 154 -13 6 -37 24 -54 40 -66 60 -66 60 -66 12z"/>
<path d="M598 1224 c-5 -4 -8 -92 -8 -196 l0 -188 129 0 c136 0 171 7 209 43
38 35 52 73 53 135 2 93 -37 154 -116 188 -43 18 -254 32 -267 18z m275 -38
c58 -28 81 -69 85 -149 4 -59 1 -72 -21 -106 -40 -60 -76 -72 -214 -69 l-118
3 -3 160 c-1 87 0 165 3 173 8 22 218 12 268 -12z"/>
<path d="M700 1035 l0 -115 45 0 c65 0 102 22 116 69 27 91 -22 161 -112 161
l-49 0 0 -115z m125 70 c20 -19 25 -34 25 -73 0 -26 -6 -56 -13 -66 -13 -18
-92 -41 -108 -31 -5 4 -9 49 -9 101 l0 94 40 0 c30 0 47 -7 65 -25z"/>
<path d="M1024 1205 c-15 -23 -15 -27 0 -50 14 -22 15 -25 1 -25 -13 0 -15
-22 -15 -145 l0 -145 55 0 55 0 0 139 c0 79 -4 142 -10 146 -5 3 -7 19 -3 36
11 59 -51 92 -83 44z m76 -220 l0 -125 -40 0 -40 0 0 125 0 125 40 0 40 0 0
-125z"/>
</g>
</svg>
