<?xml version="1.0" standalone="no"?>
<!DOCTYPE svg PUBLIC "-//W3C//DTD SVG 20010904//EN"
 "http://www.w3.org/TR/2001/REC-SVG-20010904/DTD/svg10.dtd">
<svg version="1.0" xmlns="http://www.w3.org/2000/svg"
 width="500.000000pt" height="500.000000pt" viewBox="0 0 500.000000 500.000000"
 preserveAspectRatio="xMidYMid meet">
<metadata>
Created by potrace 1.16, written by Peter Selinger 2001-2019
</metadata>
<g transform="translate(0.000000,500.000000) scale(0.100000,-0.100000)"
fill="#000000" stroke="none">
<path d="M2610 4079 c0 -4 -9 -5 -20 -2 -27 7 -72 -5 -65 -17 4 -6 -12 -11
-37 -12 l-43 -1 45 -7 45 -7 -55 -3 c-30 -2 -66 -2 -78 -1 -13 1 -21 -2 -18
-7 3 -5 -7 -7 -22 -5 -19 3 -23 2 -14 -5 10 -6 2 -11 -27 -15 -22 -3 -54 -12
-72 -21 -43 -21 -45 -20 -13 9 15 14 24 25 21 25 -14 0 -57 -24 -57 -32 0 -4
-8 -8 -17 -8 -15 0 -14 -2 3 -15 19 -14 18 -14 -3 -15 -12 0 -33 -10 -45 -23
-13 -13 -29 -22 -35 -20 -7 3 -24 -3 -38 -13 -14 -9 -39 -17 -56 -16 -16 0
-29 -4 -29 -9 0 -5 5 -9 12 -9 6 0 -8 -17 -32 -37 -24 -21 -49 -37 -54 -35 -5
2 -3 -5 4 -15 8 -10 10 -15 6 -11 -12 10 -37 -12 -29 -25 3 -6 1 -7 -5 -3 -15
9 -49 -9 -62 -35 -6 -11 -13 -43 -15 -71 -2 -33 -9 -56 -19 -64 -9 -6 -16 -20
-16 -31 0 -11 -8 -44 -19 -74 -10 -30 -21 -70 -25 -89 -3 -19 -8 -46 -11 -60
-3 -14 -10 -72 -15 -130 -6 -58 -15 -125 -20 -150 -15 -72 -20 -150 -10 -150
6 0 6 -9 0 -24 -7 -19 -5 -26 6 -30 11 -4 14 -14 10 -33 -28 -137 -9 -115 31
37 17 63 37 148 43 189 8 49 15 69 21 60 6 -10 9 -8 9 9 0 12 9 40 20 61 23
46 32 87 34 161 1 48 8 64 46 118 35 51 55 68 99 89 31 14 65 30 76 36 28 14
88 20 80 7 -4 -6 6 -8 27 -4 18 4 38 7 43 8 6 0 12 3 15 7 9 9 130 28 148 23
13 -5 14 -4 4 4 -11 7 -10 10 3 16 29 11 83 7 97 -8 10 -9 20 -11 30 -5 9 5
27 8 40 8 12 -1 44 3 71 9 27 5 50 6 53 1 3 -5 21 -9 41 -9 34 0 102 -25 114
-43 3 -5 10 -9 15 -8 5 0 8 -7 8 -15 -2 -16 12 -19 21 -4 8 13 105 10 105 -2
0 -5 4 -7 9 -3 5 3 12 1 16 -5 4 -6 11 -8 16 -5 5 4 9 0 9 -8 0 -10 7 -13 20
-10 11 3 20 0 20 -6 0 -6 7 -11 15 -11 9 0 15 -10 16 -27 2 -63 4 -68 27 -71
15 -2 22 2 22 14 0 13 3 14 15 4 8 -6 19 -9 24 -5 6 3 13 -6 17 -20 3 -14 11
-25 16 -25 7 0 6 -5 -1 -14 -8 -9 -8 -21 -1 -40 5 -14 7 -44 4 -65 -3 -23 0
-49 7 -62 6 -13 13 -38 14 -56 1 -18 14 -48 31 -68 51 -64 64 -88 83 -155 18
-62 36 -231 34 -312 -1 -29 2 -38 15 -38 15 0 15 -2 2 -10 -13 -8 -12 -10 3
-10 26 0 27 -87 2 -127 -20 -30 -27 -75 -12 -70 7 2 17 14 24 27 6 13 23 30
37 37 17 9 26 22 26 38 0 13 10 31 22 39 16 12 22 28 26 71 5 57 22 77 22 25
0 -31 20 -43 20 -12 1 9 7 31 15 47 l14 30 0 -30 c-2 -49 2 -52 16 -15 23 58
19 105 -10 124 -13 9 -30 16 -38 16 -18 0 -66 -54 -106 -117 -35 -56 -47 -66
-36 -32 7 22 13 47 14 63 1 5 3 7 7 4 3 -3 25 15 49 41 40 42 43 48 30 67 -12
18 -12 27 0 60 18 51 18 110 0 214 -8 47 -15 99 -15 117 0 25 -4 31 -15 27
-11 -5 -15 2 -15 27 0 26 -3 30 -10 19 -6 -9 -10 -10 -10 -3 0 6 5 15 10 18 6
3 10 11 10 17 0 7 -5 7 -14 -1 -11 -9 -15 -8 -20 4 -3 9 -2 13 4 10 6 -3 15
-3 22 1 8 5 6 10 -5 19 -9 6 -18 24 -21 41 -5 22 -4 24 2 9 8 -17 10 -14 13
16 6 44 1 61 -13 53 -6 -4 -8 -2 -4 4 3 6 8 37 10 69 2 36 1 50 -4 38 -8 -18
-9 -18 -9 -2 -1 20 -24 47 -40 47 -6 0 -11 5 -11 11 0 5 -5 7 -12 3 -6 -4 -8
-3 -5 3 4 6 -2 21 -13 33 -22 25 -26 35 -10 25 6 -3 10 -2 10 4 0 5 -5 13 -11
17 -6 4 -9 20 -6 38 4 26 1 35 -16 46 -20 12 -21 12 -9 -3 10 -12 10 -17 1
-23 -8 -4 -9 -3 -5 4 4 7 2 12 -3 12 -6 0 -11 6 -11 14 0 8 -10 14 -25 14 -18
0 -25 -6 -25 -19 0 -13 5 -17 17 -12 13 5 15 2 10 -18 -4 -13 -7 -30 -7 -37 0
-7 -5 -10 -10 -7 -7 4 -7 13 0 25 8 16 8 18 -5 14 -23 -9 -24 53 -1 71 14 11
6 48 -9 44 -6 -1 -14 8 -20 20 -5 11 -15 22 -22 22 -7 1 -17 3 -23 4 -5 1 -24
3 -42 4 -24 1 -29 4 -21 12 6 6 10 17 9 23 -2 6 -1 8 1 4 3 -5 14 -8 26 -9 21
0 21 -1 2 -9 -16 -7 -14 -9 15 -9 26 -1 31 2 20 9 -9 6 -11 10 -3 10 7 0 10 6
7 14 -3 8 -12 12 -19 10 -7 -3 -16 0 -21 7 -4 8 -3 10 4 5 7 -4 12 -3 12 2 0
12 -27 24 -56 26 -20 1 -26 -15 -11 -30 4 -4 7 -12 7 -18 0 -6 -11 1 -25 16
-16 17 -23 33 -19 45 5 13 2 12 -10 -4 -11 -15 -22 -20 -34 -16 -14 6 -15 4
-4 -9 10 -13 10 -17 -4 -22 -25 -10 -41 -7 -24 5 12 8 12 12 2 16 -10 4 -9 9
4 24 19 21 6 26 -15 7 -11 -11 -12 -10 -6 1 6 10 2 11 -16 6 -21 -7 -22 -6
-10 9 15 18 15 18 -17 21 -13 1 -26 -4 -29 -11 -3 -8 -13 -14 -22 -14 -14 0
-14 2 -1 10 12 8 11 10 -7 11 -13 1 -27 3 -33 4 -5 1 -16 3 -24 4 -8 0 -18 10
-21 21 -4 13 -15 20 -30 20 -13 0 -25 5 -27 11 -2 5 -20 11 -40 12 -20 1 -34
5 -32 9 2 3 -12 6 -31 5 -19 -1 -35 -4 -35 -8z"/>
<path d="M1971 3084 c-15 -13 -32 -20 -36 -16 -5 4 -5 1 -1 -5 4 -8 1 -13 -9
-13 -9 0 -14 -3 -11 -8 2 -4 29 -7 60 -6 31 1 56 -3 56 -7 0 -5 9 -9 21 -9 34
0 118 -31 116 -43 -1 -6 3 -11 10 -12 13 0 53 -48 53 -64 0 -14 -13 -14 -28 1
-7 7 -12 8 -12 3 0 -6 -35 -9 -83 -7 -45 1 -90 2 -99 3 -31 1 -89 -33 -135
-78 -30 -30 -50 -42 -61 -38 -13 5 -12 2 3 -15 13 -14 26 -19 41 -16 26 7 67
-25 59 -46 -6 -16 44 -35 162 -61 45 -11 63 -11 66 -3 3 8 9 8 23 0 24 -14 86
-6 100 14 6 8 28 15 50 16 30 1 41 6 49 24 5 12 16 20 22 17 8 -2 13 3 13 14
0 29 11 51 25 51 7 0 15 10 18 21 4 16 11 20 26 16 11 -3 22 0 25 7 3 8 5 8 5
-1 1 -6 9 -9 19 -6 13 3 25 -5 37 -24 10 -15 24 -32 32 -36 7 -4 13 -15 13
-23 0 -8 14 -33 32 -55 30 -38 60 -50 73 -29 10 16 23 12 30 -9 3 -11 12 -18
19 -15 7 3 21 -2 29 -11 17 -16 171 -30 192 -17 5 4 39 8 75 9 91 2 104 5 110
27 3 11 16 21 28 23 30 4 65 23 58 30 -3 3 2 12 12 19 15 11 12 12 -18 7 l-35
-5 20 23 20 23 -25 -17 c-34 -23 -35 -22 -50 23 -7 22 -16 40 -20 40 -4 0 -10
9 -13 21 -3 12 -10 19 -15 16 -4 -4 -16 3 -25 14 -14 16 -30 19 -106 19 -102
0 -153 8 -148 23 2 6 16 15 33 20 16 5 35 10 42 13 7 2 15 3 18 3 4 0 10 5 15
12 4 7 29 14 56 14 26 1 63 5 80 9 28 6 32 5 27 -8 -4 -11 -1 -16 11 -16 9 0
14 -4 10 -9 -3 -6 10 -8 31 -5 23 3 33 1 29 -6 -4 -6 -3 -10 2 -9 19 5 43 -15
44 -35 1 -16 2 -17 6 -4 6 22 -14 58 -31 58 -13 0 -28 23 -30 44 -1 13 -57 45
-88 52 -42 9 -172 25 -196 25 -13 -1 -29 -4 -35 -8 -6 -4 -43 -8 -82 -9 -38
-1 -71 -3 -72 -4 -2 -1 -12 -3 -22 -4 -11 0 -23 -4 -27 -8 -4 -5 -15 -8 -24
-8 -10 0 -23 -7 -30 -15 -7 -8 -22 -15 -34 -15 -12 0 -31 -7 -42 -15 -26 -19
-34 -19 -34 4 0 24 -23 43 -43 35 -8 -3 -18 -1 -22 5 -3 6 -17 11 -30 11 -13
0 -30 6 -37 13 -30 27 -55 36 -67 24 -8 -8 -11 -8 -11 2 0 7 -4 10 -9 6 -5 -3
-12 -1 -15 4 -3 5 -28 9 -56 9 -27 1 -57 5 -67 10 -10 5 -46 12 -81 15 -56 5
-66 3 -91 -19z"/>
<path d="M2223 2521 c-18 -9 -35 -24 -39 -33 -3 -10 -12 -18 -20 -18 -8 0 -14
-4 -14 -10 0 -5 -5 -10 -11 -10 -5 0 -7 4 -4 10 3 5 0 7 -9 4 -8 -3 -17 -12
-20 -20 -3 -7 -12 -11 -21 -8 -11 5 -14 2 -9 -10 5 -14 1 -17 -22 -14 -24 2
-30 -1 -32 -20 -3 -19 -8 -21 -34 -17 -27 5 -30 4 -18 -10 9 -11 9 -15 1 -15
-7 0 -9 -6 -5 -12 6 -10 4 -10 -7 0 -18 17 -44 15 -60 -5 -12 -15 -12 -16 1
-8 13 8 13 7 1 -9 -11 -13 -16 -14 -22 -4 -7 10 -9 10 -9 -1 0 -10 -8 -12 -30
-7 -17 3 -30 1 -30 -4 0 -6 5 -10 10 -10 14 0 13 -27 -2 -36 -7 -4 -8 -3 -4 4
4 7 2 10 -6 7 -9 -4 -13 -28 -13 -80 0 -41 3 -75 7 -75 3 0 5 -16 2 -35 -2
-20 1 -45 7 -57 6 -12 7 -18 1 -14 -6 4 -8 -2 -5 -14 4 -15 11 -19 24 -15 13
4 19 1 19 -9 0 -9 -4 -16 -9 -16 -5 0 -7 -9 -4 -21 4 -12 0 -25 -8 -30 -10 -7
-7 -8 11 -5 22 3 25 0 24 -21 0 -14 -9 -32 -19 -39 -16 -12 -16 -14 -3 -14 14
0 16 -9 13 -47 -3 -42 20 -114 44 -133 8 -6 41 -66 41 -74 0 -28 -100 66 -130
123 -46 88 -1 -69 57 -199 30 -66 152 -268 241 -400 67 -100 119 -160 136
-160 6 0 23 -6 37 -14 15 -8 77 -16 145 -20 66 -3 139 -9 164 -12 76 -10 129
22 214 130 39 50 78 101 86 112 8 12 57 77 108 144 107 142 160 227 201 327
l29 72 -46 -47 c-44 -44 -75 -59 -79 -38 -1 5 -6 12 -12 15 -14 9 5 93 25 108
9 6 13 17 9 23 -4 6 1 23 11 38 10 15 19 30 19 34 0 4 7 16 16 26 9 10 16 25
17 33 3 37 36 155 45 160 5 4 7 11 4 16 -3 5 -2 27 3 48 11 49 4 61 -22 39
-19 -18 -19 -17 -14 9 6 32 -27 59 -38 31 -3 -8 -2 -12 4 -9 6 3 10 1 10 -4 0
-6 -6 -11 -12 -11 -9 0 -8 -4 2 -10 8 -5 10 -10 5 -10 -6 0 -16 5 -23 12 -7 7
-12 8 -12 2 0 -5 -4 -3 -9 5 -6 9 -5 21 2 33 10 15 9 22 -3 31 -8 7 -15 21
-15 32 0 11 7 25 15 32 13 11 13 12 -1 13 -20 0 -69 23 -69 32 0 4 -7 5 -15 2
-8 -4 -15 -2 -15 4 0 11 -18 11 -38 -2 -18 -11 -27 0 -14 17 13 15 6 27 -15
27 -10 0 -12 -6 -8 -20 4 -11 2 -20 -4 -20 -6 0 -11 4 -11 9 0 5 -15 19 -34
32 -19 13 -37 32 -40 41 -2 11 -10 16 -19 12 -10 -3 -18 2 -22 15 -3 12 -11
21 -16 21 -5 0 -9 6 -9 13 -1 12 -80 67 -98 67 -5 0 -9 -13 -8 -29 0 -18 6
-28 16 -27 8 1 14 -4 13 -11 -1 -6 4 -17 12 -23 8 -7 15 -24 15 -38 0 -23 -2
-24 -42 -18 -24 4 -61 9 -83 12 -22 2 -49 6 -60 8 -11 2 -27 4 -35 5 -13 1
-13 2 0 11 12 8 11 10 -7 10 -13 0 -23 -4 -23 -9 0 -14 -55 -30 -71 -20 -21
13 -67 11 -92 -5 -12 -8 -47 -16 -77 -18 -54 -3 -55 -2 -58 25 -3 22 5 36 30
60 35 33 56 78 35 76 -7 -1 -27 -9 -44 -18z m89 -293 c-22 -22 -13 -26 53 -24
36 0 65 -1 65 -4 0 -3 35 -7 78 -8 84 -3 144 -17 182 -42 14 -10 32 -15 40
-12 10 3 12 1 5 -6 -7 -8 -28 -6 -72 8 -48 15 -98 20 -225 22 -151 3 -167 1
-225 -21 -35 -13 -68 -30 -74 -37 -6 -8 -16 -14 -22 -14 -6 0 0 11 13 25 13
14 29 25 35 25 6 0 22 11 35 25 13 14 30 23 37 21 7 -3 13 -1 13 4 0 5 7 7 15
4 9 -4 18 1 22 12 8 23 26 44 32 38 3 -2 -1 -10 -7 -16z m149 -195 c25 -13 30
-18 17 -21 -10 -2 -18 -8 -18 -13 0 -17 21 -9 43 16 21 25 23 25 46 9 l24 -17
-24 -14 -24 -14 25 5 c14 3 51 1 83 -3 49 -7 57 -6 52 7 -4 12 -3 13 10 2 34
-28 9 -63 -54 -73 -9 -1 -22 -7 -30 -11 -10 -6 -12 -5 -7 2 4 7 -7 5 -29 -3
-19 -9 -35 -12 -35 -7 0 4 -17 9 -37 10 -28 2 -34 0 -23 -8 8 -5 10 -10 4 -10
-6 0 -14 3 -18 7 -4 4 -26 8 -49 9 -50 2 -82 9 -150 32 -43 15 -50 22 -51 45
-2 33 28 42 109 32 50 -7 58 -5 71 14 18 25 22 26 65 4z m-252 -82 c26 -21 65
-48 89 -60 48 -25 52 -30 17 -23 -14 2 -25 0 -25 -5 0 -6 -11 -8 -25 -5 -31 6
-35 -23 -6 -47 66 -55 86 -66 137 -77 66 -13 190 -10 208 5 13 11 45 19 79 20
10 1 15 6 12 12 -8 11 22 38 42 39 7 0 22 8 33 17 20 17 94 27 84 11 -3 -4
-11 -8 -18 -8 -8 0 -16 -9 -19 -20 -3 -11 -1 -20 4 -20 5 0 9 5 9 10 0 6 4 10
9 10 5 0 7 -9 4 -20 -3 -11 0 -20 6 -20 6 0 11 -7 11 -16 0 -8 -5 -12 -10 -9
-7 4 -9 -3 -7 -17 4 -29 -58 -95 -67 -71 -4 8 -4 19 -1 24 4 5 -1 6 -9 3 -9
-3 -16 -11 -16 -18 0 -7 -3 -7 -8 2 -7 10 -15 8 -35 -8 -15 -12 -27 -19 -27
-15 0 4 -15 -2 -32 -13 -22 -13 -40 -17 -53 -12 -11 4 -26 5 -32 3 -7 -3 -26
0 -42 5 -20 7 -32 7 -40 -1 -18 -18 -13 -30 10 -24 17 5 19 3 10 -6 -9 -9 -21
-6 -54 11 -44 23 -62 28 -53 14 2 -4 -3 -13 -13 -19 -15 -9 -23 -8 -39 8 -34
31 -80 17 -52 -16 10 -12 9 -15 -5 -15 -10 0 -24 8 -32 18 -14 16 -14 16 -9 0
5 -16 -9 -24 -36 -19 -5 0 -8 -7 -9 -16 0 -11 -3 -13 -6 -5 -2 6 -9 10 -14 6
-5 -3 -12 3 -16 13 -4 10 -14 23 -22 30 -19 15 -45 17 -36 3 4 -6 11 -8 16 -5
15 10 10 -12 -6 -25 -20 -16 -26 -10 -27 29 -1 18 -7 35 -14 39 -8 4 -15 19
-18 32 -2 14 -9 24 -15 23 -17 -4 -6 116 18 188 8 26 20 39 46 49 19 8 37 22
41 32 7 25 11 23 63 -21z"/>
<path d="M1594 1528 c-33 -35 -73 -81 -89 -103 -16 -22 -52 -67 -80 -100 -29
-33 -77 -94 -107 -135 -66 -88 -151 -181 -146 -160 2 8 8 19 14 25 7 5 19 22
29 38 14 22 15 27 3 27 -8 0 -25 -11 -38 -25 -13 -14 -19 -25 -14 -25 5 0 4
-4 -2 -8 -10 -6 -68 -100 -70 -112 0 -3 -6 -17 -14 -32 -17 -35 -34 -37 -18
-3 6 14 16 25 21 25 6 0 8 3 5 6 -8 7 53 130 86 174 15 19 22 36 16 38 -5 2
-7 9 -3 15 4 7 -1 6 -10 -2 -10 -8 -41 -13 -78 -13 -70 0 -101 -7 -93 -19 3
-5 -5 -9 -17 -9 -23 0 -111 -46 -166 -86 -17 -13 -33 -20 -35 -16 -5 13 -110
-8 -105 -21 4 -13 52 -10 80 4 9 6 17 7 17 4 0 -9 -121 -95 -134 -95 -6 1 2 8
17 16 39 21 31 25 -30 15 -41 -6 -52 -5 -61 8 -10 14 -10 13 -5 -3 5 -16 3
-18 -15 -14 -31 9 -17 -20 48 -91 119 -131 225 -233 315 -301 22 -17 56 -44
75 -61 19 -17 52 -40 73 -50 20 -11 37 -23 37 -27 0 -7 22 -20 130 -78 19 -11
39 -24 45 -31 11 -13 186 -93 204 -93 6 0 11 -4 11 -8 0 -9 50 -35 56 -29 4 3
32 234 55 442 23 217 81 600 95 633 12 30 12 38 1 51 -27 32 -37 78 -40 183
-1 60 -2 108 -3 108 0 0 -28 -28 -60 -62z"/>
<path d="M3315 1435 c-5 -37 -2 -78 9 -127 44 -195 65 -557 34 -595 -6 -8 4
-49 32 -125 27 -72 52 -166 69 -262 24 -132 29 -147 42 -134 8 9 25 19 38 23
44 14 176 76 186 88 6 7 26 20 45 31 108 58 130 71 130 78 0 4 17 16 38 27 20
10 53 33 72 50 19 17 53 44 75 61 87 66 147 123 319 304 21 23 53 64 72 93 19
28 41 54 49 57 8 3 15 17 15 31 0 15 4 24 9 21 5 -3 11 1 15 9 3 8 4 15 3 15
-104 17 -184 27 -189 24 -4 -3 -16 0 -27 6 -16 8 -23 6 -34 -11 -11 -14 -16
-17 -19 -7 -3 7 2 18 11 25 12 9 4 12 -44 18 -33 4 -72 9 -87 11 -16 2 -58 6
-95 9 -89 6 -188 15 -238 20 l-40 4 35 -11 c19 -7 38 -16 41 -21 3 -5 9 -8 13
-7 4 1 19 -3 34 -8 15 -6 41 -14 57 -17 17 -4 25 -9 19 -12 -6 -2 -54 10 -105
26 -117 38 -220 62 -231 55 -5 -3 -4 -12 3 -20 19 -23 4 -27 -30 -6 -17 10
-29 21 -27 23 3 2 -14 14 -37 27 l-41 23 22 -24 c12 -13 22 -27 22 -31 0 -4
17 -25 38 -46 20 -21 47 -50 59 -64 11 -14 33 -31 47 -38 19 -8 23 -14 14 -19
-9 -6 -5 -16 16 -38 16 -17 26 -34 23 -38 -4 -3 -7 -1 -7 6 0 8 -8 11 -19 8
-16 -4 -21 1 -23 22 -2 18 -10 27 -25 29 -12 2 -27 10 -35 19 -12 15 -11 15 9
4 30 -15 22 8 -8 27 -12 8 -18 9 -14 3 3 -6 2 -11 -3 -11 -11 0 -57 53 -54 63
1 4 -2 7 -7 7 -14 0 -52 70 -45 82 4 6 2 8 -4 4 -6 -3 -14 0 -19 8 -4 7 -24
32 -43 55 -19 22 -46 60 -60 84 -35 60 -91 147 -95 147 -2 0 -7 -25 -10 -55z"/>
<path d="M3084 1292 c-18 -21 -74 -93 -125 -162 -51 -69 -123 -156 -161 -194
-37 -39 -65 -72 -63 -75 3 -2 13 3 22 11 10 8 48 31 84 51 78 43 144 111 154
158 4 19 20 53 36 77 16 24 29 45 29 48 0 3 16 30 35 60 19 30 35 57 35 59 0
13 -18 0 -46 -33z"/>
<path d="M3247 1220 c-45 -121 -56 -142 -69 -134 -7 4 -8 3 -4 -4 4 -7 -4 -24
-18 -39 -15 -15 -26 -31 -26 -34 0 -11 -92 -69 -109 -69 -9 0 -47 -20 -84 -45
-38 -25 -73 -45 -79 -45 -22 0 0 -23 47 -48 28 -15 53 -31 57 -36 16 -23 56
-11 117 35 35 27 68 49 72 49 5 0 6 8 2 18 -4 11 -3 14 4 7 6 -5 13 -51 16
-100 3 -50 8 -97 11 -105 5 -15 12 -78 20 -205 4 -50 16 -94 41 -155 20 -47
43 -103 52 -125 9 -22 19 -44 23 -48 10 -11 39 3 35 16 -2 7 -6 28 -9 47 -2
19 -13 73 -25 120 -11 47 -30 137 -41 200 -10 63 -21 124 -24 135 -6 31 -20
208 -17 224 1 7 -2 10 -8 7 -6 -4 -8 1 -6 12 2 11 6 35 9 54 3 20 10 47 15 62
7 16 7 43 2 71 -6 34 -4 61 10 112 27 97 19 110 -14 23z"/>
<path d="M1930 1196 c4 -18 10 -38 13 -43 3 -5 8 -22 11 -37 5 -28 87 -124
140 -164 47 -35 216 -119 216 -107 0 3 -28 19 -62 36 -79 40 -174 135 -252
251 -67 101 -77 111 -66 64z"/>
<path d="M1790 1164 c0 -5 9 -29 20 -52 11 -22 20 -47 20 -54 0 -7 9 -26 20
-43 22 -33 27 -60 9 -49 -7 4 -10 3 -7 -2 2 -5 10 -24 17 -41 7 -18 17 -33 21
-33 5 0 12 -10 16 -22 4 -13 22 -41 40 -62 19 -22 34 -45 34 -51 0 -14 62 -62
117 -91 17 -9 125 68 110 79 -7 5 -4 6 8 3 14 -4 32 6 58 30 21 20 37 37 35
39 -5 5 -149 42 -190 49 -42 8 -82 -8 -72 -27 11 -23 -87 88 -141 159 -30 39
-68 95 -85 125 -16 30 -30 49 -30 43z"/>
<path d="M2689 809 c24 -5 48 -6 54 -2 6 4 7 1 2 -7 -6 -10 -4 -12 9 -7 28 11
56 -11 78 -61 17 -39 20 -58 15 -131 -4 -54 -3 -79 3 -66 5 11 9 37 9 57 1 20
5 39 10 42 9 6 61 -41 61 -55 0 -22 18 -6 23 20 14 69 -44 160 -127 200 -31
16 -60 21 -112 20 -67 -1 -68 -1 -25 -10z"/>
<path d="M2297 773 c-11 -10 -8 -81 3 -88 6 -3 10 2 10 12 0 12 7 7 21 -17 12
-19 39 -55 60 -79 21 -24 55 -77 76 -118 33 -66 67 -113 50 -70 -4 11 3 23 22
36 l28 20 21 -24 c13 -15 28 -22 37 -19 9 4 17 -1 21 -11 5 -12 9 -13 14 -5
11 18 32 1 25 -20 -3 -10 -1 -21 5 -25 5 -3 10 -23 10 -43 0 -20 5 -93 12
-163 11 -119 13 -126 37 -137 26 -12 61 -16 61 -7 0 3 -12 52 -26 108 -14 56
-30 120 -34 143 -25 119 -16 354 15 414 8 16 15 33 15 39 0 23 -33 41 -76 41
-24 0 -44 4 -44 8 0 5 -28 4 -62 -3 -35 -6 -74 -8 -88 -4 -14 4 -58 7 -97 8
-59 1 -73 -2 -73 -14 0 -8 -4 -15 -10 -15 -5 0 -10 9 -10 20 0 20 -11 26 -23
13z"/>
<path d="M2325 583 c4 -49 2 -105 -5 -140 -12 -61 0 -143 20 -143 6 0 9 3 9 8
-3 18 2 32 11 32 18 0 10 -47 -29 -172 -22 -67 -42 -134 -46 -148 -6 -24 -6
-25 10 -5 31 38 65 115 70 157 3 24 10 77 16 119 18 128 1 275 -40 339 l-23
35 7 -82z"/>
</g>
</svg>
