<?xml version="1.0" standalone="no"?>
<!DOCTYPE svg PUBLIC "-//W3C//DTD SVG 20010904//EN"
 "http://www.w3.org/TR/2001/REC-SVG-20010904/DTD/svg10.dtd">
<svg version="1.0" xmlns="http://www.w3.org/2000/svg"
 width="1403.000000pt" height="1388.000000pt" viewBox="0 0 1403.000000 1388.000000"
 preserveAspectRatio="xMidYMid meet">
<metadata>
Created by potrace 1.16, written by Peter Selinger 2001-2019
</metadata>
<g transform="translate(0.000000,1388.000000) scale(0.100000,-0.100000)"
fill="#000000" stroke="none">
<path d="M6564 13850 c-113 -26 -194 -59 -270 -110 l-31 -20 -40 39 c-47 46
-102 64 -182 59 -73 -4 -103 -30 -131 -113 -11 -34 -32 -73 -46 -86 -15 -13
-44 -50 -66 -82 -22 -32 -68 -87 -103 -122 -35 -35 -77 -90 -93 -122 -17 -32
-48 -79 -71 -104 -22 -26 -45 -57 -50 -70 -5 -13 -50 -74 -99 -136 -56 -70
-92 -124 -96 -145 -10 -55 -42 -96 -96 -123 -54 -27 -61 -37 -104 -158 -12
-30 -41 -72 -82 -114 -35 -37 -70 -81 -78 -98 -41 -83 -106 -233 -112 -258 -3
-15 -10 -30 -15 -33 -5 -3 -52 37 -103 88 -87 88 -126 115 -254 174 -2 1 -8
32 -13 69 -16 118 -64 193 -179 286 -87 70 -173 97 -358 114 l-73 7 -23 47
c-46 90 -137 158 -271 203 -63 21 -87 23 -255 23 -210 -1 -246 -7 -580 -99
-231 -64 -294 -78 -462 -105 -191 -31 -250 -54 -331 -130 -101 -94 -190 -260
-270 -506 -68 -205 -252 -838 -292 -1000 -19 -77 -46 -205 -60 -284 -14 -80
-29 -149 -33 -153 -5 -5 -33 5 -63 22 -45 25 -136 49 -160 42 -4 0 -6 6 -5 15
0 8 -7 17 -17 19 -14 2 -17 -3 -13 -19 3 -12 -1 -7 -9 11 -20 43 -27 40 -21
-8 4 -29 1 -40 -9 -40 -7 0 -15 5 -17 12 -7 19 -30 -3 -25 -23 9 -32 -10 -31
-22 1 -13 38 -24 39 -15 3 l7 -28 -21 25 c-27 32 -28 19 -1 -28 18 -31 19 -41
9 -67 -9 -23 -13 -26 -20 -15 -9 13 -10 13 -10 0 0 -8 4 -21 9 -29 13 -20 -2
-54 -48 -109 -47 -57 -71 -140 -71 -241 0 -79 -24 -151 -43 -132 -17 17 -24
13 -25 -16 0 -16 -4 -55 -7 -88 -5 -45 -2 -81 13 -140 29 -112 62 -293 62
-336 0 -30 -6 -39 -37 -60 -72 -47 -72 -43 -78 -444 -4 -204 -10 -366 -16
-377 -5 -10 -28 -30 -51 -44 -79 -50 -96 -82 -104 -199 -1 -22 -5 -56 -9 -75
-12 -67 -20 -296 -12 -370 9 -90 3 -130 -22 -157 -45 -48 -54 -81 -47 -177 4
-50 9 -135 12 -189 5 -96 5 -98 -15 -88 -31 17 -38 12 -12 -9 20 -17 21 -21 7
-26 -13 -5 -14 -10 -5 -20 6 -7 12 -53 14 -101 1 -48 9 -103 16 -122 11 -31
10 -36 -10 -53 -18 -14 -27 -15 -43 -7 -11 6 -23 7 -26 3 -4 -4 -1 -9 6 -11 9
-4 4 -11 -15 -23 -20 -12 -33 -15 -46 -8 -24 12 -37 0 -16 -15 12 -9 14 -27
12 -82 -4 -67 -2 -75 46 -175 37 -77 47 -106 38 -112 -9 -6 -9 -10 0 -16 10
-6 8 -24 -8 -78 -11 -38 -23 -78 -26 -89 -4 -11 -9 -22 -13 -25 -4 -3 -4 -35
0 -72 9 -81 34 -125 99 -173 54 -39 71 -65 43 -65 -13 0 -14 -2 -3 -9 11 -7
11 -9 0 -14 -11 -4 -11 -8 -2 -14 15 -10 29 -198 16 -206 -15 -9 -8 -117 10
-159 18 -43 79 -86 166 -119 78 -29 84 -35 76 -85 -8 -56 10 -121 43 -154 22
-21 46 -30 122 -44 168 -30 164 -28 205 -101 40 -72 59 -88 125 -105 24 -7 67
-23 93 -37 27 -13 86 -31 131 -39 119 -20 141 -29 191 -69 50 -41 144 -75 209
-75 23 0 80 11 126 25 101 30 112 31 167 4 63 -30 206 -37 308 -14 43 9 112
17 152 16 40 -1 108 6 151 16 49 10 127 17 217 17 127 1 147 4 218 30 78 28
81 28 340 29 182 2 283 -2 332 -11 68 -13 72 -13 140 13 148 57 179 66 212 63
l35 -3 -60 -67 c-32 -37 -100 -100 -150 -138 -81 -63 -95 -78 -123 -138 -21
-44 -48 -82 -79 -109 -89 -80 -190 -256 -215 -379 -9 -43 -25 -107 -37 -142
-17 -51 -19 -73 -13 -120 10 -71 10 -141 0 -357 -9 -185 -1 -234 51 -336 17
-35 23 -63 23 -106 -1 -36 7 -81 21 -118 32 -90 39 -131 40 -228 0 -48 7 -120
16 -158 20 -90 17 -99 -40 -97 -24 1 -42 6 -40 10 3 4 0 8 -5 8 -6 0 -11 -4
-11 -8 0 -12 -192 -33 -336 -37 -134 -4 -226 -13 -263 -27 -13 -4 -71 -15
-130 -22 -59 -8 -145 -24 -191 -36 -47 -13 -116 -28 -155 -36 -38 -7 -119 -27
-180 -44 -60 -17 -159 -43 -220 -59 -229 -60 -474 -133 -579 -174 -113 -42
-228 -115 -389 -244 -117 -95 -175 -137 -302 -218 -512 -329 -602 -395 -682
-500 -95 -125 -150 -316 -124 -436 16 -76 97 -203 176 -278 193 -180 509 -283
1243 -406 630 -105 951 -121 2012 -105 802 12 1001 20 1865 71 191 11 589 23
945 29 338 6 678 15 755 20 77 6 210 15 295 20 85 6 234 17 330 25 156 13 510
34 855 50 145 7 545 45 900 85 143 16 323 36 401 45 335 37 586 87 891 180 81
25 254 73 384 106 420 106 741 220 1097 389 103 48 313 139 467 200 154 61
361 152 460 202 117 58 241 110 355 150 199 68 302 118 410 199 120 91 173
168 173 254 0 65 -20 103 -85 158 -75 64 -146 96 -368 167 -175 56 -351 120
-465 170 -187 81 -357 119 -545 121 -103 1 -195 11 -207 23 -4 4 1 22 11 39
57 94 98 182 122 262 25 81 28 104 27 230 -1 150 -20 289 -53 383 -11 31 -25
86 -31 122 -5 36 -25 97 -43 135 -19 39 -39 88 -46 110 -17 53 -34 80 -90 140
-31 34 -53 70 -67 111 -29 86 -65 137 -127 184 -30 22 -68 59 -84 82 -31 45
-109 115 -152 138 -14 7 -54 36 -90 65 -36 28 -84 62 -107 76 -22 13 -61 49
-86 79 -30 37 -75 73 -133 110 -49 30 -114 77 -145 105 -30 27 -73 56 -95 64
-66 23 -174 103 -231 171 -29 35 -71 76 -92 90 -183 121 -228 151 -244 162 -9
7 -38 73 -63 147 -42 122 -46 140 -41 205 6 90 52 348 67 375 6 11 35 32 64
46 69 33 81 60 79 177 -3 101 -2 101 89 112 52 5 62 3 125 -30 97 -51 178 -67
290 -60 102 6 145 20 204 67 32 25 53 33 117 40 102 13 170 33 217 65 35 23
53 27 171 35 233 15 373 56 548 157 109 64 138 75 321 122 198 51 269 92 379
221 55 66 78 84 163 129 229 122 278 198 287 449 l4 123 47 59 c60 77 83 131
95 226 13 96 5 201 -26 358 -13 65 -40 223 -59 350 -38 252 -63 355 -102 428
-34 61 -115 137 -184 173 -51 26 -379 145 -554 201 -127 41 -121 37 -134 90
-19 74 -57 130 -122 178 -117 86 -300 134 -463 121 -130 -10 -136 -12 -328
-140 -140 -94 -301 -275 -432 -488 -27 -43 -55 -78 -63 -78 -20 0 -73 28 -103
55 -51 45 -122 77 -201 91 -76 13 -154 51 -175 85 -18 30 -4 109 72 404 35
132 34 195 -2 277 -32 70 -35 114 -16 221 17 93 2 168 -49 247 -21 32 -46 82
-56 111 -12 34 -40 76 -81 122 -34 38 -77 97 -94 130 -18 32 -56 84 -85 113
-29 30 -64 74 -78 99 -15 24 -42 54 -61 65 -18 12 -55 46 -82 75 -26 30 -67
68 -90 85 -28 20 -51 49 -68 84 -27 57 -52 76 -129 95 -131 32 -150 41 -185
80 -19 22 -54 48 -78 57 -23 9 -52 29 -63 45 -28 39 -51 50 -127 59 -48 6 -73
16 -101 37 -68 55 -147 67 -236 36 -41 -14 -58 -14 -105 -5 -31 7 -79 12 -106
12 -71 0 -234 -45 -318 -87 -39 -20 -110 -48 -159 -63 -48 -15 -103 -40 -122
-55 -55 -41 -82 -32 -119 40 -40 77 -113 171 -177 229 -148 133 -431 308 -665
410 -129 57 -174 87 -275 183 -105 101 -142 178 -147 315 -4 94 -3 98 28 152
45 80 63 87 259 97 208 11 243 22 267 85 20 53 15 153 -10 202 -32 62 -268
213 -391 251 -191 59 -407 67 -601 21z m-3219 -875 c133 -35 229 -110 270
-211 l24 -59 133 -6 c191 -9 255 -36 366 -153 75 -79 96 -130 90 -222 l-5 -72
36 -7 c52 -10 134 -51 183 -92 63 -52 187 -191 209 -235 33 -65 17 -186 -39
-292 -15 -28 -28 -54 -30 -57 -2 -4 13 -17 32 -29 63 -38 134 -103 176 -159
90 -122 101 -228 38 -351 -58 -111 -210 -349 -268 -418 -75 -89 -125 -116
-207 -108 -64 5 -90 15 -115 40 -8 8 -38 26 -66 40 -55 28 -82 58 -80 91 0 11
-1 25 -2 30 -6 18 12 99 31 136 23 47 73 89 107 90 108 4 177 -33 217 -117 9
-20 19 -33 22 -31 2 3 -5 23 -16 46 -26 49 -27 83 -3 103 9 9 49 32 89 52 105
52 111 69 12 39 -81 -24 -171 -21 -249 10 -100 39 -123 39 -145 -2 -8 -16 -33
-98 -54 -183 -72 -279 -157 -511 -269 -735 -97 -193 -176 -313 -208 -313 -6 0
-25 -15 -41 -33 -15 -18 -24 -27 -19 -20 16 24 -8 13 -31 -14 l-23 -28 5 30
c5 27 3 25 -20 -15 -21 -37 -25 -40 -20 -17 3 16 2 26 -3 23 -5 -3 -15 7 -22
22 -12 25 -13 26 -24 8 -6 -10 -21 -30 -32 -45 -12 -14 -32 -46 -44 -71 l-23
-45 -13 30 c-7 17 -13 23 -14 15 0 -10 -5 -7 -14 8 -13 25 -25 18 -39 -20 -4
-10 -11 -18 -17 -18 -11 0 -14 17 -11 70 l1 35 -21 -47 c-12 -27 -25 -48 -29
-48 -3 0 -17 -22 -30 -50 -13 -27 -27 -47 -33 -43 -5 3 -13 -1 -18 -8 -6 -10
-9 -4 -9 18 0 36 -20 56 -21 21 -1 -28 -27 -99 -29 -78 0 12 -3 12 -14 -3 -13
-16 -14 -16 -19 5 -4 12 -1 28 5 35 8 10 6 13 -6 13 -14 0 -16 6 -10 35 4 24
2 35 -6 35 -18 0 -40 27 -40 50 0 12 -4 18 -10 15 -5 -3 -10 -1 -10 5 0 7 -7
9 -15 6 -11 -4 -17 3 -22 25 l-6 30 -30 -53 c-31 -55 -45 -70 -59 -62 -4 3 -8
-2 -8 -11 0 -9 -4 -13 -10 -10 -6 3 -10 -4 -11 -17 0 -22 -1 -22 -8 -3 -5 11
-6 26 -4 33 3 6 -2 12 -11 12 -9 0 -18 -12 -22 -27 -4 -16 -11 -33 -16 -39 -4
-6 -6 -19 -2 -28 3 -9 1 -16 -6 -16 -6 0 -8 -5 -5 -10 4 -6 4 -18 1 -27 -5
-12 -9 -13 -21 -3 -12 10 -15 9 -15 -6 0 -11 -9 1 -20 25 -11 24 -20 50 -20
59 0 21 -12 7 -28 -31 l-12 -32 5 40 c4 35 3 37 -6 15 -6 -14 -8 -35 -6 -47 2
-12 1 -21 -3 -18 -3 2 -14 -10 -24 -26 -24 -40 -32 -30 -10 13 16 32 16 33 -2
17 -27 -23 -41 -14 -36 23 3 21 1 29 -7 24 -6 -4 -11 -2 -11 4 0 6 -9 23 -20
38 -11 15 -27 57 -36 94 -13 53 -20 65 -33 61 -9 -4 -13 -3 -9 2 4 4 1 14 -7
22 -8 8 -15 25 -15 39 0 36 -18 29 -26 -11 -3 -19 -11 -32 -16 -29 -5 3 -7 17
-4 30 9 36 -2 29 -20 -13 -12 -28 -18 -33 -21 -20 -3 9 -8 17 -13 17 -5 0 -7
-7 -3 -16 4 -11 2 -15 -7 -12 -7 2 -21 28 -30 58 -17 54 -17 54 -27 25 l-10
-30 -17 28 c-15 22 -16 30 -6 42 10 12 9 15 -8 15 -11 0 -23 6 -26 13 -3 6 -5
3 -5 -8 2 -39 -1 -51 -9 -38 -5 8 -17 3 -40 -16 -23 -21 -32 -37 -32 -60 0
-18 -10 -47 -23 -66 -22 -32 -24 -33 -43 -17 -33 26 -47 158 -34 306 6 64 7
129 4 143 l-7 27 -10 -25 c-9 -22 -11 -19 -21 33 -6 31 -15 60 -19 65 -5 4 -7
3 -6 -2 1 -6 -3 -28 -9 -49 -6 -22 -9 -51 -7 -65 5 -23 4 -24 -5 -6 -9 18 -10
17 -6 -8 2 -15 -1 -30 -5 -33 -13 -8 -11 55 5 115 16 62 2 55 -17 -10 -8 -24
-19 -43 -25 -41 -7 1 -12 -5 -12 -13 0 -8 4 -15 10 -15 5 0 7 -7 4 -15 -4 -8
-10 -13 -14 -10 -4 2 -11 -28 -15 -67 -6 -70 -7 -71 -20 -42 -17 39 -46 135
-61 209 l-13 60 4 -52 c2 -30 0 -53 -5 -53 -6 0 -13 -19 -16 -42 -5 -30 -17
-52 -39 -73 -17 -16 -36 -39 -40 -50 -7 -17 -9 -16 -14 13 -3 18 -10 32 -16
32 -5 0 -12 10 -13 22 -2 13 -8 28 -13 34 -7 9 -49 225 -49 253 0 4 -7 8 -15
8 -18 0 -20 -14 -3 -19 8 -3 6 -7 -4 -11 -14 -5 -17 8 -23 89 -4 52 -11 96
-15 99 -5 3 -6 14 -3 25 3 13 0 20 -8 20 -12 0 -12 2 -1 9 15 9 27 91 14 91
-15 0 -43 -71 -37 -94 2 -11 2 -15 -1 -8 -14 31 -50 0 -38 -33 4 -8 2 -15 -4
-15 -6 0 -13 -13 -17 -30 -4 -16 -11 -30 -16 -30 -20 0 20 385 62 595 37 184
70 309 205 765 158 533 203 657 292 787 96 141 178 188 384 217 143 21 255 46
484 111 164 46 277 72 374 88 61 10 181 6 235 -8z m4850 -1227 c193 -97 277
-250 295 -533 6 -109 19 -179 80 -435 40 -168 77 -339 84 -380 l11 -75 90 -12
c182 -26 396 -125 604 -282 91 -68 106 -78 97 -62 -10 16 5 14 18 -3 7 -9 19
-11 36 -6 l25 8 -27 1 c-27 1 -37 14 -20 25 20 12 117 -25 170 -65 77 -58 235
-219 314 -321 201 -257 332 -537 392 -840 35 -172 49 -349 41 -493 -8 -128
-21 -228 -25 -185 -1 14 -12 -26 -25 -88 -13 -62 -30 -128 -40 -147 -9 -20
-13 -40 -10 -45 4 -6 -1 -17 -10 -26 -9 -9 -14 -23 -11 -31 3 -8 1 -11 -4 -8
-5 3 -16 -9 -25 -27 -20 -45 -88 -138 -109 -150 -22 -12 -52 -71 -38 -76 6 -2
8 -10 5 -18 -3 -8 -1 -14 5 -14 6 0 8 -24 5 -61 -4 -44 -1 -65 10 -77 8 -9 20
-42 27 -72 7 -30 16 -68 21 -83 16 -55 22 -153 10 -175 -9 -18 -9 -22 2 -22
23 0 27 -37 21 -180 -4 -74 -6 -179 -5 -233 3 -117 -12 -216 -47 -312 -16 -46
-25 -94 -26 -142 -3 -97 -26 -125 -26 -31 0 128 -50 232 -225 472 -106 146
-200 263 -306 382 l-91 102 -3 78 c-2 44 -13 126 -24 183 -23 107 -78 291 -88
291 -3 0 -22 -13 -42 -29 -211 -166 -534 -306 -856 -370 -378 -75 -709 -66
-1084 29 -194 49 -426 134 -415 151 3 5 -1 7 -8 4 -13 -5 -158 59 -158 70 0 3
27 -8 60 -25 33 -16 62 -30 66 -30 3 0 -36 28 -87 62 -52 33 -122 83 -156 110
-35 26 -66 48 -69 48 -4 0 -30 19 -58 43 -28 24 -67 54 -86 67 -19 13 -40 29
-46 35 -6 5 -33 28 -59 50 -162 134 -339 316 -371 381 -15 30 -30 56 -33 59
-4 2 -19 28 -33 57 -14 29 -34 70 -44 92 -11 21 -29 57 -41 80 -12 22 -22 47
-22 54 -1 7 -5 10 -11 7 -16 -10 -12 176 6 262 17 84 61 203 75 203 5 0 33 24
62 54 55 54 75 64 327 158 30 11 71 27 90 35 19 8 91 35 160 60 212 77 524
227 747 360 73 43 170 98 215 123 173 94 349 221 466 335 62 60 115 111 116
113 2 1 23 6 47 11 l44 9 -42 1 c-51 1 -73 28 -109 129 -30 86 -29 101 9 134
l33 26 -4 -66 c-3 -60 0 -72 26 -113 67 -104 209 -108 278 -7 77 111 13 274
-117 294 l-37 6 72 57 c62 50 106 98 106 116 0 3 -18 -13 -41 -36 -91 -91
-274 -192 -474 -262 -373 -130 -589 -158 -1100 -140 -165 6 -311 14 -325 17
-14 4 -1 -5 29 -21 50 -26 56 -32 66 -76 31 -126 255 -383 497 -571 42 -32 81
-69 86 -82 10 -20 7 -26 -19 -48 -60 -51 -153 -99 -201 -104 -40 -4 -59 2
-131 36 -84 41 -259 163 -416 289 -254 206 -432 554 -393 767 29 156 140 286
273 320 106 27 186 37 214 26 15 -6 57 -9 93 -8 65 2 201 -15 272 -34 56 -15
492 -22 610 -9 58 6 130 20 160 31 30 11 70 21 88 22 17 1 32 5 32 10 0 4 7 8
16 8 8 0 22 7 30 15 8 8 21 12 28 9 8 -3 17 0 21 6 4 6 15 8 26 5 11 -4 19 -2
19 4 0 6 6 11 14 11 8 0 30 15 50 34 19 19 44 39 54 45 10 5 32 29 48 53 16
24 33 46 38 50 5 3 10 14 11 25 1 10 5 25 8 33 3 8 11 53 17 100 6 47 17 97
25 112 7 15 10 30 6 33 -9 10 -17 171 -12 263 1 27 17 25 86 -10z m-286 -1323
c74 -85 101 -197 63 -271 -43 -85 -246 -238 -467 -352 -68 -36 -94 -43 -173
-51 -92 -10 -159 0 -146 20 3 5 -3 6 -12 2 -12 -4 -15 -3 -10 5 4 7 2 10 -7 6
-17 -6 -88 69 -115 123 -47 92 -55 242 -17 317 16 31 30 43 70 58 90 34 346
95 535 127 102 18 196 36 210 40 14 5 28 9 31 10 4 1 21 -15 38 -34z m-3540
-135 c36 0 72 -4 79 -9 9 -5 18 -42 23 -92 5 -46 16 -103 24 -127 8 -24 12
-49 9 -56 -6 -14 -98 -51 -229 -91 -80 -24 -95 -32 -136 -76 -25 -27 -51 -49
-57 -49 -7 0 -12 -4 -12 -10 0 -5 -20 -21 -44 -35 -24 -14 -50 -32 -56 -40
-23 -28 -32 -16 -25 33 4 26 41 119 85 212 43 91 95 207 116 259 l37 94 60 -7
c33 -3 90 -6 126 -6z m943 -226 c41 -14 73 -44 47 -44 -6 0 -7 -6 -3 -12 6
-10 4 -10 -7 -2 -8 7 -30 15 -49 18 l-35 7 25 -20 c14 -11 32 -21 40 -22 9 0
11 -2 3 -5 -6 -3 -25 2 -42 10 -16 9 -36 16 -43 16 -7 -1 7 -12 32 -25 32 -17
39 -25 25 -26 -11 0 -2 -5 19 -10 22 -5 47 -15 55 -22 9 -8 35 -20 59 -27 24
-7 45 -17 48 -21 8 -14 -39 0 -86 24 -37 19 -59 23 -120 22 -112 -3 -163 -36
-194 -129 -19 -54 -23 -109 -11 -146 4 -14 8 -34 9 -46 0 -11 14 -37 29 -57
15 -20 25 -37 21 -37 -3 0 -1 -7 6 -15 7 -8 16 -12 21 -9 5 3 6 -3 2 -12 -5
-13 -3 -15 7 -9 10 6 12 4 7 -8 -3 -9 -3 -16 1 -14 4 1 31 -21 59 -49 64 -62
130 -99 214 -119 73 -17 221 -20 250 -5 22 12 49 60 49 89 0 28 -44 76 -111
122 -65 44 -85 69 -67 87 9 9 8 12 -4 12 -9 0 -18 7 -22 15 -3 8 -1 15 5 15 6
0 7 5 4 10 -4 6 17 -4 46 -20 28 -17 74 -37 101 -44 27 -7 45 -15 41 -20 -4
-4 0 -4 10 0 9 3 17 2 17 -4 0 -6 10 -8 23 -5 22 5 22 5 2 -10 -20 -16 -20
-16 1 -17 23 0 47 -22 42 -38 -2 -5 14 -24 36 -41 21 -17 33 -31 25 -32 -8 0
-3 -5 11 -10 23 -9 23 -11 7 -20 -9 -6 -22 -7 -29 -3 -7 5 -8 3 -3 -5 4 -7 18
-11 32 -8 17 3 21 1 14 -6 -7 -7 -5 -14 6 -23 15 -10 15 -14 4 -28 -11 -13
-17 -14 -28 -5 -11 10 -12 9 -7 -5 7 -18 25 -21 41 -5 7 7 10 1 9 -20 -1 -16
-3 -27 -5 -25 -2 2 -10 -5 -18 -16 -8 -11 -22 -20 -31 -20 -9 0 -70 -14 -136
-30 -148 -37 -230 -39 -319 -7 -96 35 -154 73 -227 148 -85 87 -168 250 -152
298 2 8 1 11 -4 8 -5 -3 -9 11 -10 31 0 21 -4 60 -9 87 -4 28 -7 62 -6 77 1
15 -3 29 -8 33 -6 3 -7 13 -4 23 5 14 4 15 -8 4 -20 -18 -16 -169 6 -252 39
-147 98 -254 197 -351 35 -35 50 -53 33 -42 -196 137 -322 499 -246 703 48
129 174 189 303 144z m6931 -73 c70 -25 134 -57 179 -93 44 -34 88 -118 88
-167 1 -51 17 -67 76 -74 28 -3 84 -18 125 -33 41 -15 156 -55 256 -90 222
-77 282 -105 348 -166 87 -80 110 -148 160 -493 15 -99 40 -246 56 -327 46
-234 37 -296 -61 -413 -74 -87 -76 -94 -64 -236 14 -174 -40 -257 -236 -359
-106 -56 -131 -76 -233 -193 -75 -85 -135 -115 -342 -168 -116 -29 -179 -51
-230 -80 -143 -80 -252 -129 -330 -150 -100 -27 -343 -36 -495 -20 -117 13
-292 42 -286 48 2 2 51 -3 109 -12 91 -13 166 -16 290 -13 37 1 91 51 84 78
-3 11 -1 20 3 20 5 0 2 12 -5 28 -8 15 -12 35 -9 45 3 11 -1 20 -13 25 -10 4
-19 15 -19 25 -2 20 7 22 24 5 7 -7 12 -8 12 -2 0 6 -5 15 -12 22 -9 9 -7 13
5 18 9 3 14 10 11 15 -3 6 0 16 6 24 10 12 10 15 0 15 -10 0 -10 3 0 15 18 21
5 59 -43 129 -23 34 -46 65 -50 71 -74 93 -247 344 -247 359 0 4 -9 17 -21 29
-22 24 -75 102 -105 156 -27 50 -42 63 -107 95 -46 22 -61 25 -72 16 -27 -22
-16 6 24 62 79 110 185 174 314 188 108 13 199 12 233 0 59 -23 101 -70 179
-202 97 -165 176 -280 314 -457 58 -75 127 -165 153 -198 47 -61 94 -101 82
-68 -4 8 -1 15 5 15 17 0 13 31 -8 72 -11 20 -75 113 -143 208 -68 94 -128
179 -133 188 -6 9 -46 70 -88 135 -63 93 -90 125 -135 156 -31 22 -88 71 -126
110 -60 61 -82 76 -160 108 -56 23 -103 51 -123 71 -29 30 -33 31 -43 15 -8
-15 -9 -12 -4 12 18 84 112 202 195 246 35 19 60 23 118 23 49 0 76 -4 79 -12
6 -20 103 -42 188 -43 168 -3 250 -34 337 -129 86 -94 132 -171 276 -472 34
-70 96 -178 137 -240 97 -146 179 -232 159 -166 -6 16 -4 20 8 15 45 -17 37
54 -15 140 -13 21 -29 47 -36 58 -48 81 -99 160 -138 215 -25 36 -87 125 -137
198 -88 129 -158 202 -360 375 -32 27 -56 69 -53 90 1 8 23 37 48 63 26 27 77
90 114 139 98 129 93 126 194 120 47 -3 103 -8 125 -10 48 -6 45 -4 -68 30
-134 42 -148 75 -107 247 11 46 20 103 20 128 -1 40 -6 28 -49 -100 -78 -234
-139 -339 -244 -416 -97 -72 -185 -83 -300 -40 -111 42 -171 101 -212 208 -10
26 -24 53 -31 59 -11 9 -14 5 -15 -22 l-1 -34 -9 30 c-17 52 3 181 57 363 l7
23 -39 -22 c-22 -12 -56 -31 -76 -41 -21 -10 -38 -25 -38 -32 0 -8 -3 -16 -7
-18 -18 -8 -165 -211 -211 -292 -47 -81 -112 -232 -112 -259 0 -5 -3 -8 -6 -4
-11 11 55 190 111 300 134 265 337 521 482 607 32 19 73 47 91 62 38 33 85 58
127 69 42 11 135 1 198 -20z m-5919 -2580 c3 -5 17 -11 31 -13 14 -3 22 -1 18
5 -3 5 2 7 13 3 11 -3 37 -8 59 -12 22 -3 41 -10 43 -15 2 -5 15 -6 28 -3 16
4 24 2 24 -7 0 -7 3 -10 6 -6 3 3 29 -3 57 -12 29 -10 65 -17 80 -15 18 2 25
-1 21 -8 -4 -7 -2 -8 4 -4 6 4 39 -7 72 -24 34 -17 116 -53 183 -79 387 -154
723 -222 1292 -262 153 -11 176 -15 229 -40 33 -16 66 -29 74 -29 9 0 13 -3 9
-6 -9 -9 -103 25 -117 42 -7 8 -29 14 -49 13 -35 0 -35 -1 -11 -11 27 -12 35
-15 48 -17 5 0 19 -10 32 -21 13 -12 29 -19 35 -16 9 3 11 -12 10 -47 -3 -60
-6 -77 -20 -93 -33 -38 -45 -55 -45 -63 0 -4 -16 -16 -35 -27 -19 -10 -35 -23
-35 -29 0 -10 -74 -72 -167 -139 -29 -21 -53 -34 -53 -30 0 4 -9 -2 -20 -14
-19 -20 -27 -24 -46 -21 -4 0 -10 -4 -13 -9 -10 -16 -118 -72 -125 -65 -3 3
-6 1 -6 -5 0 -7 -8 -12 -18 -12 -10 0 -28 -7 -40 -16 -13 -9 -26 -14 -29 -10
-3 3 -12 -1 -19 -9 -8 -7 -25 -12 -39 -11 -13 2 -22 -1 -19 -5 3 -5 -7 -9 -21
-9 -14 0 -40 -7 -58 -15 -29 -14 -30 -14 -13 0 23 18 14 20 -17 3 -12 -7 -35
-13 -52 -14 -16 -1 -49 -4 -73 -7 -23 -3 -40 -2 -38 2 3 4 -1 8 -9 8 -8 0 -12
-4 -9 -9 3 -4 -6 -8 -20 -9 -47 -1 -106 -1 -113 1 -21 6 -40 5 -62 -2 -14 -5
-29 -4 -36 2 -7 6 -25 8 -39 4 -16 -4 -33 0 -48 10 -28 20 -49 21 -22 1 25
-19 11 -19 -26 0 -27 14 -30 14 -30 0 0 -9 -5 -13 -11 -10 -6 4 -8 13 -5 21 3
8 1 14 -3 14 -5 0 -11 -7 -15 -15 -3 -8 -13 -15 -23 -15 -14 0 -15 2 -5 9 9 5
-1 10 -29 14 -24 3 -45 9 -46 14 -2 5 -25 8 -53 7 -27 0 -47 3 -44 8 3 4 -3 8
-13 8 -11 0 -24 5 -30 11 -6 6 -29 12 -52 13 -23 1 -46 7 -51 14 -7 9 -7 9 2
2 7 -5 17 -10 22 -10 6 0 1 7 -11 15 -12 8 -28 12 -37 9 -9 -3 -16 -1 -16 5 0
6 -9 11 -20 11 -11 0 -20 4 -20 9 0 5 -6 9 -12 8 -33 -1 -61 4 -55 9 7 7 -58
54 -74 54 -6 0 -7 5 -3 12 5 7 2 9 -7 6 -14 -6 -42 16 -33 25 3 3 -4 8 -15 12
-12 3 -21 10 -21 15 0 5 -9 12 -20 15 -11 3 -20 13 -20 20 0 8 -5 17 -12 21
-7 5 -8 3 -3 -6 5 -9 4 -11 -3 -6 -7 4 -12 14 -12 22 0 8 -4 12 -10 9 -5 -3
-10 0 -10 8 0 18 -30 80 -44 89 -6 4 -4 14 8 26 17 19 17 20 -5 27 -15 5 -18
9 -9 15 9 6 6 10 -10 15 -22 7 -22 8 11 22 l34 15 -29 9 c-39 11 -87 68 -79
94 6 20 5 20 -15 2 -20 -18 -20 -18 -15 2 3 12 -3 38 -13 58 -14 31 -18 61
-17 154 1 111 3 118 27 142 14 14 26 31 26 37 0 18 63 81 77 76 8 -3 15 5 19
19 6 25 18 32 28 16z m2416 -810 c0 -11 -9 -23 -20 -26 -11 -3 -20 -11 -20
-17 0 -7 4 -7 13 1 8 6 17 8 21 4 4 -4 11 -1 17 7 7 13 10 13 18 1 11 -18 25
3 17 27 -6 15 -5 15 8 0 7 -10 18 -18 25 -18 6 0 11 -8 11 -17 0 -14 2 -15 9
-5 9 16 24 1 35 -35 4 -13 12 -23 17 -23 6 0 8 4 4 9 -3 5 0 13 6 17 8 4 9 3
5 -4 -4 -7 -1 -12 6 -12 10 0 9 -3 -2 -11 -11 -8 -12 -12 -2 -16 6 -2 10 -9 6
-14 -3 -5 -1 -9 5 -9 6 0 8 -7 4 -15 -3 -10 0 -15 8 -13 10 2 13 -6 11 -25 -2
-17 1 -26 7 -23 10 7 24 -10 28 -34 1 -8 6 -16 12 -18 5 -2 7 -10 4 -19 -4
-11 -2 -14 5 -9 8 5 12 -4 12 -28 0 -19 4 -38 10 -41 6 -3 7 1 4 12 -5 17 -5
17 6 0 7 -10 9 -30 6 -45 -5 -20 -4 -23 3 -12 9 13 12 12 24 -5 8 -10 14 -24
13 -30 -2 -5 -1 -7 1 -2 3 4 13 7 23 7 12 0 23 14 34 43 11 28 14 32 10 12 -9
-46 -65 -176 -78 -180 -104 -30 -337 -107 -439 -145 -188 -71 -527 -214 -527
-222 0 -5 11 -8 25 -8 50 0 254 -90 366 -162 67 -43 134 -115 160 -171 22 -49
23 -69 5 -118 l-12 -35 52 19 c35 13 64 17 87 13 19 -4 89 -43 157 -89 150
-101 137 -93 185 -104 34 -7 48 -19 93 -78 89 -119 169 -283 179 -366 5 -45 3
-51 -27 -79 -18 -16 -41 -30 -52 -30 -10 0 -51 14 -91 31 -223 95 -501 185
-515 165 -5 -6 -38 -64 -73 -130 -35 -65 -82 -138 -105 -162 -58 -63 -85 -61
-169 16 -82 74 -174 135 -287 191 -83 41 -104 61 -75 72 6 3 0 6 -15 6 -15 1
-39 6 -53 11 -33 12 -205 161 -205 177 0 6 19 18 41 25 l41 14 -163 27 c-90
15 -222 43 -292 62 -71 20 -140 36 -153 37 -13 1 -24 9 -24 16 0 27 117 127
276 238 131 92 295 214 426 317 21 16 21 17 2 8 -32 -16 -72 6 -70 39 0 14 7
31 14 39 11 11 9 17 -13 31 -18 12 -23 19 -13 22 11 4 10 8 -2 22 -17 21 -22
86 -6 86 6 0 1 8 -12 18 -19 14 -22 24 -16 46 3 15 13 30 20 33 8 3 11 9 8 14
-3 5 3 9 13 9 17 1 17 1 1 10 -11 7 -15 19 -12 35 3 16 0 25 -8 25 -7 0 -2 7
10 16 23 16 31 40 10 29 -14 -7 8 11 41 35 12 8 21 22 21 32 0 12 8 18 21 18
11 0 18 4 14 10 -9 14 34 52 51 46 11 -4 14 -1 10 12 -4 12 4 22 25 34 16 10
28 14 25 9 -3 -4 6 -6 19 -3 14 2 26 12 26 21 1 13 2 13 6 -2 2 -9 9 -15 14
-11 5 3 7 9 4 14 -5 7 41 25 58 22 6 -2 11 21 8 41 0 4 6 7 15 7 8 0 12 -4 9
-10 -3 -5 2 -10 11 -10 10 0 14 3 11 6 -4 4 13 16 36 26 23 11 50 24 59 29 10
5 25 6 35 3 15 -5 15 -4 3 5 -12 8 -12 11 3 17 9 3 24 4 32 1 8 -4 17 -2 21 4
3 5 14 7 25 4 11 -4 19 -2 19 4 0 6 7 11 15 11 8 0 15 4 15 10 0 5 7 7 17 3
13 -5 15 -2 10 16 -5 21 -3 23 26 17 31 -5 31 -5 12 10 -19 16 -19 16 8 10 16
-4 27 -2 27 4 0 6 5 8 10 5 6 -3 10 -1 10 5 0 7 6 10 14 7 9 -4 16 2 19 15 4
15 11 19 26 15 12 -3 24 0 28 5 3 7 1 8 -5 4 -8 -5 -10 -1 -5 9 5 13 7 14 14
3 6 -10 15 -5 36 19 33 39 33 39 33 14z m162 -3379 c8 -9 20 -30 26 -47 l13
-30 -21 25 c-11 14 -20 29 -20 34 0 5 -3 7 -6 4 -3 -3 5 -26 17 -50 l22 -43
-22 19 c-22 20 -30 9 -9 -12 9 -9 9 -12 0 -12 -35 0 22 -65 88 -100 29 -16 31
-19 13 -20 -12 0 -56 18 -97 39 -54 28 -73 34 -66 22 9 -18 114 -111 124 -111
3 0 15 -9 26 -20 11 -11 17 -20 13 -20 -4 0 0 -6 9 -12 9 -7 21 -31 28 -53 7
-22 19 -46 27 -53 7 -7 14 -22 14 -33 1 -10 3 -23 4 -29 1 -5 3 -14 4 -19 0
-5 11 -12 24 -14 12 -2 -2 -5 -31 -6 -108 -2 -236 62 -293 148 -59 90 -73 192
-39 283 39 104 113 157 152 110z m-919 -128 c130 -57 184 -65 437 -68 l225 -2
0 -24 0 -25 -155 -7 c-85 -4 -204 -13 -265 -19 -60 -6 -191 -15 -290 -20 -99
-5 -211 -13 -250 -19 -38 -6 -155 -13 -260 -16 l-190 -5 85 32 c47 17 132 42
190 56 114 27 282 89 345 128 22 14 42 25 43 25 2 0 40 -16 85 -36z m-978
-187 l79 -24 -52 -7 c-38 -5 -328 -23 -414 -26 -5 0 -8 16 -8 34 0 34 1 35 48
39 156 12 269 7 347 -16z m2420 -252 c11 -16 25 -36 32 -43 13 -14 17 -27 14
-49 -1 -7 2 -13 7 -13 11 0 37 -77 46 -141 2 -15 10 -36 17 -47 15 -23 32 -18
114 35 69 44 86 45 98 8 5 -16 17 -38 25 -48 19 -22 43 -88 36 -99 -3 -5 0 -7
8 -6 9 2 12 -6 10 -25 -2 -16 1 -34 7 -41 6 -7 7 -26 2 -48 -5 -21 -6 -39 -3
-42 3 -4 -1 -6 -8 -6 -7 0 -11 -2 -8 -6 3 -3 -1 -26 -8 -52 -14 -45 -14 -48 7
-64 12 -10 17 -18 13 -18 -5 0 -38 23 -74 51 -92 72 -136 99 -162 99 -22 -1
-22 -1 -4 -15 28 -21 12 -18 -35 6 -58 29 -123 98 -157 166 -68 137 -77 292
-25 463 l17 55 6 -45 c3 -25 15 -58 25 -75z m2074 -304 c43 -60 35 -166 -17
-219 -15 -16 -21 -21 -14 -12 12 17 7 50 -8 50 -23 0 -39 114 -25 185 2 11 4
26 4 33 1 19 35 -2 60 -37z m-197 -13 c30 -58 30 -147 0 -205 -12 -23 -27 -45
-33 -49 -8 -4 -8 0 1 15 9 18 7 32 -9 76 -12 30 -19 55 -17 55 2 0 -2 20 -9
44 -8 24 -10 47 -7 51 7 7 8 12 11 40 2 32 40 15 63 -27z m-7346 -403 c-15
-23 -15 -25 1 -27 10 0 26 0 37 1 16 1 17 -1 5 -16 -11 -13 -5 -12 25 5 34 20
38 21 32 5 -5 -14 -2 -13 13 4 15 18 21 20 30 9 6 -7 8 -16 4 -19 -6 -7 15 -9
96 -12 19 0 38 -8 46 -19 8 -10 18 -15 24 -11 6 3 11 4 11 0 0 -3 -11 -10 -25
-15 -22 -8 -24 -12 -13 -24 7 -8 18 -12 23 -9 6 2 0 -4 -12 -13 -28 -20 -29
-29 -3 -31 11 -1 20 2 20 6 0 5 9 11 20 14 17 4 19 1 14 -19 -7 -26 4 -31 25
-11 11 10 13 10 7 0 -10 -18 4 -16 28 4 12 10 15 11 9 3 -23 -26 -14 -30 22
-10 20 11 35 15 35 9 0 -8 4 -8 13 -2 17 14 49 24 43 15 -6 -11 76 -9 93 2 10
6 12 5 7 -3 -5 -8 1 -11 21 -9 16 1 33 -1 39 -5 6 -4 19 2 29 13 10 11 22 17
27 13 6 -3 14 0 18 6 8 13 19 14 105 7 86 -7 89 -8 102 -18 7 -5 17 -7 22 -3
7 4 8 -1 4 -11 -5 -13 -3 -16 10 -11 9 3 17 2 17 -3 0 -6 7 -10 15 -10 8 0 15
-3 15 -8 0 -4 16 -16 35 -26 19 -10 37 -27 41 -38 3 -10 8 -17 12 -15 4 3 18
-9 32 -24 14 -16 41 -46 61 -67 20 -20 34 -44 31 -52 -3 -8 -1 -12 3 -8 12 11
35 -11 28 -28 -4 -10 2 -14 21 -14 16 0 26 -6 26 -15 0 -8 5 -15 10 -15 6 0
10 -8 10 -17 0 -10 6 -30 14 -45 8 -15 11 -29 8 -33 -6 -5 -10 -20 -16 -60 -1
-11 -8 -30 -14 -41 -6 -12 -8 -24 -5 -28 3 -3 2 -6 -4 -6 -5 0 -15 -17 -21
-38 -7 -22 -23 -51 -36 -65 -14 -15 -23 -27 -21 -27 3 0 -3 -8 -12 -18 -10
-10 -24 -16 -32 -14 -8 3 -12 1 -8 -5 6 -10 -51 -43 -88 -50 -63 -13 -141 -12
-151 1 -20 27 -34 0 -61 -113 -17 -72 -148 -167 -279 -201 -107 -27 -409 -14
-477 21 l-22 12 20 -24 c11 -13 1 -7 -22 15 -105 98 -135 243 -87 416 24 83
61 150 117 209 49 51 50 53 12 24 -34 -26 -42 -29 -53 -17 -7 8 -24 14 -38 14
-14 0 -23 4 -20 8 2 4 -15 8 -40 8 -24 0 -44 -3 -44 -7 0 -4 -9 -5 -19 -2 -23
6 -74 -25 -68 -41 3 -7 -1 -20 -8 -30 -8 -10 -11 -24 -8 -32 3 -8 0 -14 -6
-14 -6 0 -11 -12 -10 -27 2 -64 -12 -182 -32 -252 -26 -92 -65 -142 -139 -179
-49 -24 -66 -27 -163 -27 -88 0 -104 -2 -90 -12 21 -16 9 -17 -18 -2 -11 5
-17 14 -14 19 3 6 0 7 -8 4 -40 -15 -122 107 -133 198 -12 104 38 243 123 339
l48 54 -55 -50 c-85 -77 -125 -177 -136 -335 -3 -52 -11 -106 -17 -120 -17
-34 -53 -50 -117 -50 -39 0 -51 -3 -40 -10 8 -5 10 -10 4 -10 -16 0 -96 54
-120 81 -12 13 -29 38 -37 54 -11 21 -16 24 -17 12 0 -22 -38 -37 -93 -37 -31
0 -38 -3 -27 -10 35 -22 -15 -9 -56 15 -111 65 -141 237 -69 398 68 155 301
222 557 162 132 -31 162 -19 303 125 119 121 318 299 376 335 22 15 46 24 53
22 7 -3 23 4 37 14 32 25 34 24 15 -6z m2464 -239 c105 -38 263 -123 308 -165
58 -54 86 -148 79 -260 -5 -83 -36 -193 -58 -207 -6 -3 -3 8 6 26 23 44 14 47
-26 10 -92 -86 -329 -138 -484 -108 -50 10 -165 89 -165 114 0 3 -13 19 -30
34 -16 15 -30 33 -30 38 0 6 -6 13 -12 15 -10 4 -9 8 2 16 13 9 8 15 -12 12
-4 0 -10 8 -13 19 -4 11 -11 20 -16 20 -5 0 -9 6 -9 14 0 8 -10 22 -22 30 -12
9 -17 16 -10 16 6 0 12 5 12 11 0 5 -4 8 -9 5 -5 -3 -24 1 -42 9 -19 8 -27 14
-19 15 9 0 5 6 -10 13 -17 9 -33 11 -49 5 -20 -7 -22 -6 -12 6 11 12 8 14 -18
11 -30 -4 -36 2 -32 33 1 6 -3 12 -9 12 -6 0 -9 -3 -6 -8 8 -13 -20 -41 -58
-57 -20 -8 -36 -18 -36 -21 0 -3 4 -2 10 1 6 3 7 -1 4 -9 -11 -28 -30 -16 -26
16 1 3 -6 9 -15 12 -12 5 -14 2 -10 -14 3 -13 0 -20 -9 -20 -19 0 -18 20 3 49
9 14 12 21 6 18 -20 -13 -25 37 -10 98 3 11 6 22 6 24 1 3 8 -4 16 -15 14 -19
15 -19 33 4 17 22 33 22 28 -1 -2 -7 -1 -9 1 -4 3 4 10 4 16 0 7 -4 8 0 4 11
-5 14 -3 17 8 12 10 -4 15 1 15 14 0 14 5 18 18 13 15 -6 15 -5 3 10 -16 20
-7 51 13 44 10 -4 12 0 9 14 -4 15 -2 18 11 13 12 -5 16 0 16 19 0 34 27 45
132 52 41 3 62 0 72 -11 13 -12 15 -12 21 5 6 18 46 31 105 32 14 1 32 5 42
10 10 6 19 5 23 -1 3 -5 11 -7 18 -4 7 2 32 -2 56 -11 62 -22 63 -19 4 15 -75
43 -66 47 15 6 37 -18 101 -46 142 -60z"/>
<path d="M4100 11785 c153 -76 398 -180 406 -172 2 2 -12 11 -31 22 -19 10
-36 26 -36 37 -1 10 -3 23 -4 28 -1 6 -3 16 -4 24 -1 10 -18 17 -48 21 -70 9
-278 62 -353 90 -36 13 -74 26 -85 30 -11 4 59 -32 155 -80z"/>
<path d="M8145 9679 c-28 -16 -45 -40 -45 -62 0 -19 4 -19 68 -11 37 4 105 8
152 9 68 0 85 3 85 15 0 36 -213 76 -260 49z"/>
<path d="M9717 9153 c-3 -5 -8 -57 -12 -118 -4 -60 -14 -126 -22 -145 -11 -26
-13 -57 -9 -125 6 -81 4 -95 -18 -141 -13 -28 -29 -55 -35 -58 -6 -4 -11 -22
-11 -41 0 -34 -57 -156 -76 -162 -6 -2 -17 9 -24 24 -14 30 -15 29 -25 -50 -4
-33 -16 -59 -36 -82 -34 -38 -115 -95 -136 -95 -8 0 -23 17 -35 37 l-22 37
-16 -65 c-15 -63 -16 -64 -70 -91 -30 -15 -84 -35 -120 -44 l-65 -16 -32 37
c-21 24 -33 50 -34 69 -1 18 -5 5 -10 -29 -5 -33 -13 -69 -18 -81 -10 -24 -46
-31 -203 -41 l-98 -6 -19 44 -20 43 -3 -44 -3 -45 -120 0 c-66 0 -137 4 -157
8 -40 8 -35 -3 -64 150 -3 15 -10 27 -15 27 -5 0 -4 -11 1 -26 6 -14 10 -53
10 -88 l0 -62 -87 8 c-140 12 -158 19 -197 80 -12 18 -14 27 -5 30 6 2 -8 12
-32 21 -24 9 -38 12 -31 5 11 -11 17 -48 7 -48 -16 0 -55 26 -55 37 0 7 3 13
8 13 4 0 13 10 21 23 13 21 13 21 -13 -2 -25 -24 -28 -24 -106 -13 -99 14
-158 42 -172 83 -13 38 -32 38 -23 0 3 -16 2 -32 -3 -35 -11 -6 -113 29 -121
42 -3 5 -73 12 -156 16 -252 12 -429 34 -549 71 -84 25 -62 9 26 -20 46 -16
106 -38 133 -50 63 -28 285 -113 345 -132 373 -117 627 -154 1095 -158 334 -3
451 4 615 36 293 57 484 149 665 322 113 107 172 190 206 289 54 162 53 297
-3 490 -21 69 -38 93 -51 71z"/>
<path d="M7222 10281 c-151 -38 -203 -233 -90 -338 53 -50 154 -68 221 -39 39
17 92 71 106 109 55 144 -87 304 -237 268z"/>
<path d="M12882 9055 c66 -67 106 -139 176 -315 95 -239 202 -457 234 -476 20
-12 -3 138 -33 216 -16 41 -58 117 -93 170 -35 52 -86 137 -112 189 -56 110
-125 200 -186 244 -41 29 -41 28 14 -28z"/>
<path d="M7875 5505 c-176 -148 -251 -204 -448 -340 -87 -59 -160 -111 -162
-115 -6 -10 147 -52 310 -86 109 -23 157 -27 295 -28 91 -1 192 3 224 7 33 4
57 5 53 1 -4 -4 -75 -29 -159 -56 -84 -27 -156 -51 -160 -54 -10 -6 113 -122
157 -149 l33 -19 86 26 c47 14 86 21 86 17 0 -5 -3 -9 -7 -9 -5 0 -28 -18 -52
-39 l-45 -38 66 -32 c60 -28 204 -120 270 -171 l27 -21 28 43 c16 24 60 96 97
161 38 65 76 121 84 125 44 16 361 -72 585 -163 45 -18 86 -29 91 -25 19 19
-54 177 -147 317 -33 51 -66 94 -72 97 -6 2 -69 0 -139 -5 -71 -6 -133 -8
-139 -6 -6 2 26 16 71 32 45 16 82 31 81 34 0 3 -51 39 -114 79 -131 85 -104
84 -301 8 -67 -25 -125 -46 -129 -46 -4 0 16 21 44 46 151 136 115 276 -99
388 -112 59 -282 127 -330 133 l-45 5 -140 -117z m338 4 c163 -68 229 -108
268 -161 39 -55 44 -88 21 -141 -90 -203 -467 -295 -882 -216 -123 24 -260 60
-259 68 0 3 60 45 132 93 155 103 306 219 443 340 76 68 103 87 119 82 11 -3
82 -32 158 -65z m644 -466 c23 -16 42 -31 43 -35 0 -8 -250 -106 -292 -115
-37 -7 -48 -24 -11 -18 34 6 411 35 452 35 25 0 37 -10 71 -55 48 -65 125
-204 117 -211 -3 -3 -54 10 -114 29 -186 61 -311 87 -470 101 l-62 6 -64 -98
c-35 -53 -74 -116 -87 -139 -13 -24 -28 -43 -33 -43 -4 0 -27 13 -50 29 -23
15 -70 43 -104 60 -35 17 -63 34 -63 37 0 3 26 37 57 76 31 39 50 69 42 66
-79 -29 -234 -69 -252 -64 -22 5 -135 112 -126 120 2 2 67 24 144 49 141 45
471 159 620 215 l80 29 30 -23 c17 -13 49 -36 72 -51z"/>
<path d="M7995 5304 c-22 -20 -76 -63 -120 -96 -44 -33 -81 -64 -83 -68 -6
-16 114 -32 203 -28 72 4 103 11 157 36 37 17 74 41 83 56 16 24 16 28 0 52
-19 29 -112 74 -165 80 -29 4 -42 -2 -75 -32z m135 -34 c46 -23 49 -38 17 -68
-29 -28 -92 -49 -164 -57 -62 -6 -102 7 -73 24 8 5 47 34 85 65 39 31 76 56
83 56 7 0 31 -9 52 -20z"/>
</g>
</svg>
