<?xml version="1.0" standalone="no"?>
<!DOCTYPE svg PUBLIC "-//W3C//DTD SVG 20010904//EN"
 "http://www.w3.org/TR/2001/REC-SVG-20010904/DTD/svg10.dtd">
<svg version="1.0" xmlns="http://www.w3.org/2000/svg"
 width="1200.000000pt" height="1210.000000pt" viewBox="0 0 1200.000000 1210.000000"
 preserveAspectRatio="xMidYMid meet">
<metadata>
Created by potrace 1.16, written by Peter Selinger 2001-2019
</metadata>
<g transform="translate(0.000000,1210.000000) scale(0.100000,-0.100000)"
fill="#000000" stroke="none">
<path d="M5346 12052 c-3 -5 4 -32 15 -61 10 -29 16 -57 13 -63 -4 -6 -2 -8 4
-4 6 3 14 1 17 -4 5 -8 -4 -9 -29 -5 -37 7 -45 -1 -23 -24 12 -13 7 -11 -95
33 -20 8 -66 38 -102 66 -36 27 -70 50 -76 50 -19 0 -10 -31 22 -78 18 -26 31
-57 30 -69 -2 -12 2 -31 8 -42 8 -16 8 -21 -2 -21 -8 0 -20 -9 -27 -19 -13
-18 -17 -18 -54 -5 -22 8 -46 19 -54 26 -10 8 -17 8 -25 0 -7 -7 -6 -24 6 -58
9 -26 16 -48 16 -49 0 0 -18 1 -40 3 -56 6 -74 -2 -61 -27 10 -18 8 -19 -29
-14 -21 3 -46 3 -55 -1 -15 -5 -14 -10 6 -37 12 -17 39 -49 59 -70 20 -22 33
-39 28 -39 -5 0 -8 -7 -6 -16 2 -12 -14 -22 -57 -38 -65 -23 -80 -49 -32 -54
15 -2 27 -8 27 -13 0 -5 11 -15 25 -21 19 -8 22 -14 13 -20 -9 -6 -7 -10 10
-14 22 -6 22 -8 -14 -28 -53 -30 -52 -42 3 -55 l48 -13 -28 -20 c-37 -27 -57
-68 -61 -126 -2 -26 -14 -73 -26 -105 -13 -31 -20 -60 -16 -64 5 -6 183 -31
226 -33 11 0 15 11 15 39 0 40 14 67 22 44 3 -7 13 -13 23 -13 19 0 30 -19 30
-50 0 -29 21 -39 156 -75 71 -19 152 -41 180 -50 28 -8 53 -15 56 -15 3 0 0
18 -5 40 -8 30 -8 45 2 64 7 13 11 29 7 34 -3 5 0 15 8 21 26 22 63 -27 81
-107 16 -68 18 -72 68 -105 29 -19 70 -40 92 -47 22 -7 44 -16 49 -21 6 -5 18
-9 27 -9 10 0 21 -5 25 -11 5 -8 -15 -10 -67 -7 -63 3 -83 9 -134 39 -40 23
-61 43 -65 59 -4 16 -13 25 -25 25 -18 0 -21 -12 -32 -135 -7 -74 -16 -154
-19 -177 -4 -29 -2 -43 5 -43 6 0 11 -9 11 -20 0 -11 -7 -20 -15 -20 -12 0
-13 -9 -8 -45 5 -41 4 -45 -18 -53 -28 -11 -42 4 -54 56 -8 40 -19 41 -35 3
-15 -37 -10 -63 13 -67 10 -1 29 -9 42 -18 13 -9 31 -16 40 -16 9 0 14 -4 11
-9 -3 -5 25 -43 62 -86 89 -103 106 -125 94 -125 -5 0 -21 9 -36 21 -19 15
-24 16 -20 5 4 -10 1 -16 -10 -16 -9 0 -13 -6 -10 -13 3 -8 0 -26 -5 -40 -6
-15 -7 -27 -2 -27 5 0 11 6 14 13 4 10 7 10 18 0 10 -10 10 -13 0 -13 -7 0 -9
-5 -5 -12 4 -6 -1 -17 -11 -24 -15 -11 -16 -16 -5 -29 15 -18 3 -19 -29 -1
-27 15 -53 6 -77 -24 -10 -12 -35 -14 -126 -13 -197 3 -262 12 -307 41 -22 14
-39 28 -36 30 2 2 34 -4 72 -13 57 -14 88 -15 193 -7 136 10 165 21 214 79 29
35 26 62 -13 97 -14 13 -21 31 -21 58 0 72 -22 104 -94 140 -68 33 -79 44 -48
50 12 2 -3 17 -49 51 -37 26 -72 47 -78 47 -6 0 -40 20 -76 45 -128 87 -301
119 -405 74 l-50 -21 21 -29 c12 -18 62 -49 132 -85 62 -30 114 -58 117 -61
13 -13 -77 14 -224 70 -89 33 -185 68 -215 78 -58 20 -136 25 -146 9 -6 -10
23 -44 65 -72 19 -14 14 -13 -23 3 -164 70 -321 106 -332 78 -4 -10 -17 -13
-45 -11 -27 3 -44 -1 -55 -12 -9 -9 -29 -16 -44 -16 -15 0 -31 -4 -36 -9 -6
-5 -41 -14 -79 -20 -38 -5 -72 -14 -75 -18 -7 -9 -66 -43 -76 -43 -3 0 -3 5 1
11 4 8 0 8 -15 0 -24 -13 -28 -23 -6 -15 8 4 15 1 15 -4 0 -11 -30 -24 -46
-21 -29 5 -36 -3 -14 -14 15 -8 25 -21 25 -34 0 -12 11 -33 23 -46 l23 -24
-58 -29 c-32 -16 -61 -30 -65 -32 -5 -2 -8 12 -8 32 0 63 -27 54 -67 -23 -17
-32 -16 -49 1 -25 19 26 32 10 18 -21 -10 -22 -15 -24 -31 -15 -30 16 -52 12
-58 -10 -8 -32 -69 -31 -114 1 -35 25 -37 39 -6 39 13 0 33 10 45 23 23 24 30
43 12 32 -5 -3 -10 -1 -10 5 0 6 6 10 13 8 6 -2 29 10 50 26 30 23 35 31 26
43 -7 8 -18 12 -26 9 -18 -7 -17 4 7 63 17 45 18 54 5 88 -7 21 -14 32 -14 24
-1 -8 -9 -11 -23 -8 -25 6 -26 4 -130 -147 -26 -38 -50 -82 -53 -98 -9 -39
-50 -68 -96 -68 -34 0 -39 3 -39 23 0 18 -5 23 -21 23 -12 -1 -24 5 -26 12 -3
7 4 12 17 12 28 0 70 22 98 53 35 37 122 189 122 212 0 10 11 28 25 40 25 20
25 20 13 98 -10 64 -16 77 -31 77 -10 0 -21 -9 -24 -20 -3 -11 -11 -20 -18
-20 -6 0 -22 -9 -35 -20 -25 -22 -45 -26 -55 -10 -8 13 -55 13 -55 0 0 -5 -24
-9 -54 -7 -62 2 -63 1 -76 -42 -10 -37 -10 -37 20 -11 26 22 38 24 60 10 12
-8 10 -13 -12 -37 -14 -15 -29 -44 -33 -63 -4 -19 -14 -45 -22 -57 -9 -13 -17
-46 -19 -75 -5 -78 -15 -131 -26 -145 -6 -7 -25 -13 -42 -13 -18 0 -38 -6 -45
-12 -8 -8 -7 0 4 20 9 19 14 41 11 49 -6 13 -9 13 -31 -1 -24 -16 -25 -15 -25
4 0 12 15 29 39 44 31 20 39 32 45 67 4 23 4 44 1 47 -3 3 -5 -5 -5 -18 0 -56
-18 2 -29 92 -16 142 -17 138 23 138 25 0 40 7 55 26 33 42 27 75 -18 103 -22
13 -43 23 -47 23 -4 -1 -12 -16 -19 -35 -19 -55 -63 -87 -125 -92 -8 -1 -22
-4 -30 -8 -8 -3 -24 -7 -35 -9 -17 -3 -20 -12 -23 -74 -3 -71 -3 -72 -34 -78
-21 -4 -55 -32 -109 -87 -44 -45 -79 -84 -79 -86 0 -2 15 -13 33 -24 18 -12
24 -18 12 -16 -57 15 -87 18 -120 11 -51 -9 -38 -29 21 -30 84 -1 140 -22 100
-37 -17 -7 -10 -46 11 -63 9 -8 12 -21 7 -38 -7 -30 -5 -29 -39 -14 -36 16
-40 5 -11 -27 15 -16 26 -32 26 -38 0 -5 -14 -38 -31 -74 -21 -43 -29 -73 -25
-89 4 -13 3 -24 -2 -24 -4 0 -6 -19 -3 -42 3 -38 2 -41 -13 -29 -14 11 -16 11
-16 -3 0 -23 4 -31 13 -29 15 6 6 -16 -11 -26 -13 -9 -14 -12 -4 -19 21 -14
20 -95 -1 -116 -22 -23 -25 -173 -3 -182 7 -3 16 -27 20 -54 8 -60 18 -68 188
-150 146 -70 292 -121 448 -154 170 -36 243 -42 263 -21 9 9 17 22 17 29 0 8
6 19 14 25 12 10 16 8 21 -10 10 -32 -43 -104 -76 -103 -48 2 -134 17 -160 28
-9 4 -20 6 -25 4 -5 -1 -29 2 -54 6 -25 5 -50 8 -57 7 -6 -1 -14 3 -18 8 -3 6
-12 8 -20 5 -12 -5 -42 0 -125 21 -3 1 -18 8 -35 15 -16 7 -37 14 -46 16 -9 2
-49 19 -90 39 -77 37 -99 42 -99 24 0 -5 5 -7 10 -4 6 3 10 -1 10 -9 0 -13 -3
-13 -28 0 -52 27 -59 21 -59 -53 0 -38 2 -60 4 -50 2 9 6 17 8 17 6 0 83 -78
80 -82 -6 -6 -12 -356 -6 -365 22 -33 171 -109 195 -100 8 3 17 -1 20 -9 3 -9
10 -13 15 -9 5 3 12 1 15 -4 9 -14 159 -4 205 15 23 9 44 14 47 11 25 -25
-108 -61 -192 -53 -32 3 -84 8 -114 10 -36 4 -82 19 -135 45 -44 22 -81 38
-83 36 -2 -2 5 -16 17 -32 11 -15 21 -37 23 -48 2 -11 10 -26 18 -33 13 -12
13 -13 0 -6 -10 5 -8 -1 5 -16 l20 -23 -22 7 c-21 7 -23 4 -23 -24 0 -17 -5
-40 -10 -50 -6 -11 -13 -68 -16 -127 -4 -60 -10 -114 -14 -122 -4 -8 -7 13 -5
47 2 54 0 64 -25 94 -32 37 -52 32 -26 -7 16 -24 13 -75 -4 -75 -8 0 -32 55
-56 129 -13 42 -15 71 -9 130 8 95 11 112 18 131 17 44 11 65 -25 99 -48 43
-48 57 -1 31 51 -27 56 -26 39 15 -8 19 -22 62 -31 97 -8 34 -18 64 -20 67 -8
7 -55 -41 -55 -57 0 -20 -76 -103 -145 -157 -81 -63 -137 -116 -361 -339 -250
-251 -341 -362 -536 -661 -252 -384 -409 -679 -537 -1005 -170 -434 -229 -687
-267 -1155 -41 -506 19 -941 192 -1385 64 -163 141 -307 239 -443 47 -66 85
-125 85 -132 0 -35 28 -82 212 -357 110 -163 156 -222 225 -289 124 -119 321
-249 377 -249 9 0 21 9 28 19 11 18 12 18 57 -1 24 -10 64 -21 87 -25 35 -4
44 -2 52 14 6 11 7 25 2 33 -4 7 -6 28 -3 46 5 30 2 34 -31 48 -20 8 -36 16
-36 18 0 2 28 3 62 3 57 0 63 2 66 22 2 14 -4 27 -17 35 -12 7 -21 18 -21 24
0 20 32 25 51 8 18 -16 71 -12 96 8 7 6 19 5 31 -3 15 -9 31 -10 59 -3 31 7
39 14 41 37 2 19 -5 40 -22 62 -14 18 -26 38 -26 43 0 6 -4 12 -8 14 -4 2 -18
19 -31 38 -23 35 -23 35 15 -6 22 -22 56 -61 77 -87 25 -31 46 -47 61 -47 23
0 55 27 60 52 2 7 6 21 10 30 4 9 3 25 -2 34 -7 13 -5 22 12 35 l21 18 -22 43
c-12 24 -29 65 -38 92 -8 26 -20 57 -26 67 -8 16 -6 19 14 19 28 0 54 47 43
76 -4 9 -2 22 4 29 7 9 7 21 0 41 -12 32 3 74 27 74 7 0 16 7 19 15 4 8 14 15
24 15 33 0 50 26 40 61 -5 17 -14 37 -20 44 -18 22 6 26 25 5 24 -27 45 -25
78 6 32 29 30 42 -11 114 -21 38 -22 42 -5 27 11 -9 27 -17 35 -17 21 0 41 26
34 45 -4 13 -2 14 14 5 10 -5 26 -7 34 -4 9 4 29 -5 47 -20 32 -28 38 -29 63
-20 21 8 20 37 -1 77 -9 18 -17 37 -18 42 -1 18 43 33 83 28 47 -6 62 16 37
53 -14 22 -14 24 2 24 22 0 103 79 103 100 0 8 15 31 34 52 27 30 33 43 31 75
-2 35 0 33 32 -37 36 -76 54 -160 35 -160 -5 0 -12 -9 -15 -20 -7 -26 14 -26
31 0 7 12 18 18 24 14 6 -4 8 -3 5 3 -4 6 5 15 19 22 32 14 34 14 34 -5 0 -9
-5 -12 -12 -8 -6 4 -8 3 -5 -3 9 -15 -15 -73 -30 -73 -7 0 -13 -8 -13 -17 -1
-17 -1 -17 -11 -1 -6 11 -22 18 -40 18 -26 0 -29 -3 -23 -25 4 -15 1 -32 -6
-40 -19 -23 -5 -29 28 -13 l29 15 -19 -39 c-15 -31 -22 -37 -32 -28 -11 8 -14
1 -13 -37 1 -38 -7 -63 -37 -116 -42 -74 -44 -110 -11 -160 14 -23 20 -24 46
-15 16 5 29 13 29 18 0 4 10 11 23 15 l22 8 -24 4 c-22 4 -21 6 17 29 34 20
53 24 99 22 l58 -3 -35 -23 c-19 -13 -27 -21 -17 -18 9 3 17 1 17 -4 0 -6 8
-10 19 -10 25 0 45 -25 38 -50 -3 -11 -1 -20 5 -20 5 0 6 -4 3 -10 -4 -6 1 -7
11 -3 14 5 16 15 11 64 -5 45 -3 60 9 70 25 20 49 -1 50 -45 1 -44 13 -59 45
-54 16 2 25 11 27 26 l4 24 23 -22 24 -22 15 36 c8 20 22 36 30 36 20 0 20 -8
1 -53 -22 -52 -20 -69 8 -62 17 5 31 -4 61 -34 36 -37 38 -43 32 -78 -4 -21
-9 -50 -10 -65 -2 -24 -1 -26 13 -15 8 6 27 26 43 42 l27 30 -1 -38 c-2 -49
10 -59 77 -65 61 -5 72 -17 25 -27 -40 -9 -90 -34 -90 -46 0 -5 -3 -8 -7 -8
-33 5 -73 -3 -73 -15 0 -17 22 -23 85 -20 84 2 137 21 174 62 20 23 30 29 26
17 -4 -11 -7 -30 -6 -43 0 -13 -3 -21 -7 -18 -4 2 -14 1 -22 -5 -11 -6 -1 -9
31 -9 70 0 70 -22 0 -54 -86 -38 -152 -49 -255 -42 -111 8 -129 10 -144 20
-15 9 -32 -1 -32 -20 0 -8 -4 -14 -10 -14 -5 0 -10 -5 -10 -12 0 -6 7 -4 18 5
30 27 32 23 33 -55 0 -21 2 -38 4 -38 3 0 12 14 21 31 11 23 18 28 24 19 4 -7
15 -10 23 -7 29 11 26 -30 -4 -52 -16 -12 -29 -17 -29 -12 0 5 6 11 13 14 6 2
9 8 5 12 -8 9 -53 -42 -53 -60 0 -5 -20 -20 -44 -32 -25 -13 -50 -28 -55 -33
-12 -12 -15 -71 -4 -64 6 4 21 -30 23 -51 0 -5 14 -10 30 -10 20 0 29 -5 27
-13 -1 -8 2 -11 7 -7 6 3 19 -3 31 -15 11 -11 17 -20 14 -20 -3 0 1 -7 10 -15
18 -18 32 -19 42 -3 4 6 3 8 -4 4 -14 -8 14 49 31 62 35 28 102 -19 91 -65 -6
-20 -4 -24 7 -18 8 4 -1 -7 -19 -24 -18 -18 -37 -29 -44 -25 -7 4 -8 3 -4 -4
10 -16 -32 -35 -62 -27 -15 3 -60 22 -101 42 -58 29 -75 33 -82 22 -5 -8 -3
-16 4 -21 9 -6 8 -8 -2 -8 -11 0 -9 -4 5 -14 18 -14 18 -15 -6 -25 -14 -5 -19
-10 -12 -10 7 -1 36 -16 64 -35 l50 -34 -29 -15 c-26 -14 -35 -14 -98 5 -97
28 -125 32 -125 19 0 -11 -22 -39 -85 -106 -17 -18 -38 -59 -49 -91 -10 -33
-22 -67 -27 -76 -6 -13 -4 -20 9 -27 14 -7 27 -1 60 27 23 20 42 40 42 45 0 4
12 26 27 50 28 43 30 47 32 70 0 7 7 21 14 31 12 17 15 17 50 -4 20 -12 37
-24 37 -27 0 -2 -4 -1 -10 2 -9 6 -15 -8 -11 -29 1 -5 -4 -4 -12 2 -10 9 -16
9 -25 0 -15 -15 -16 -32 -2 -23 6 4 6 -4 0 -21 -8 -20 -8 -29 1 -34 17 -11
-15 -111 -44 -138 -38 -36 -147 -43 -147 -9 0 6 -4 18 -9 26 -8 12 -18 9 -58
-17 -58 -37 -120 -54 -238 -68 -81 -9 -92 -11 -103 -18 -7 -4 -12 -1 -13 6 0
7 -4 4 -9 -7 -5 -11 -9 -14 -9 -7 -1 10 -6 10 -21 2 -11 -6 -25 -8 -30 -5 -6
3 -10 -2 -10 -11 0 -16 -1 -16 -15 2 -9 12 -14 14 -15 6 0 -7 -5 -10 -12 -6
-21 13 -109 3 -107 -12 4 -22 12 -33 20 -28 5 3 9 1 9 -3 0 -10 32 -13 148
-17 40 -1 75 1 77 4 2 3 28 5 57 4 51 -3 66 -5 98 -16 8 -3 53 -19 100 -35 47
-17 120 -38 164 -48 l78 -17 25 27 c15 16 31 24 41 20 8 -3 29 -1 46 5 49 15
177 19 216 5 36 -13 82 -13 113 0 10 4 17 3 17 -5 0 -6 4 -9 9 -5 11 6 22 -22
18 -45 -12 -63 -17 -65 -154 -79 -104 -10 -415 -3 -528 13 -16 3 -76 7 -132
10 -56 3 -144 15 -195 25 -51 11 -140 24 -198 30 -108 10 -260 4 -260 -9 0 -9
131 -25 167 -21 11 1 24 -3 28 -8 3 -6 1 -11 -5 -11 -7 0 -27 -16 -45 -35 -31
-31 -34 -33 -40 -15 -7 21 -35 28 -35 10 0 -14 -37 -27 -85 -31 -30 -3 -41 -9
-46 -24 -3 -14 -12 -19 -27 -17 -19 3 -28 -8 -58 -70 -31 -65 -34 -69 -29 -33
4 22 11 46 17 53 6 6 8 12 4 12 -3 0 5 18 19 40 30 47 30 49 8 67 -17 13 -16
13 3 4 21 -10 44 1 44 22 0 5 10 17 22 27 32 25 16 36 -32 21 -29 -9 -44 -20
-51 -39 -10 -25 -12 -26 -23 -10 -7 10 -12 36 -12 59 l2 42 -196 -6 c-409 -12
-799 -44 -900 -74 -93 -27 -201 -63 -295 -100 -78 -31 -120 -51 -220 -107 -57
-32 -165 -109 -165 -118 0 -21 -41 -61 -112 -106 -154 -101 -216 -207 -238
-402 -29 -255 84 -549 270 -710 39 -33 75 -60 80 -60 5 0 15 -6 22 -13 28 -28
107 -65 207 -97 l104 -33 531 7 c292 4 560 6 596 5 36 0 1258 -3 2716 -6 2397
-4 2659 -3 2728 12 86 17 380 68 526 91 195 30 248 37 493 63 55 6 322 16 595
21 274 6 517 12 542 15 25 3 117 10 205 15 262 15 662 52 875 81 219 29 298
41 325 49 17 5 55 12 85 16 124 15 543 150 590 189 8 7 24 15 35 19 38 12 210
153 257 210 26 32 66 97 90 144 l43 85 0 116 c-1 104 -4 122 -27 174 -33 70
-83 143 -122 176 -15 14 -33 29 -40 35 -171 162 -276 224 -441 260 -288 62
-663 114 -1010 141 -110 8 -254 20 -320 25 -66 6 -226 15 -355 20 -246 10
-623 36 -651 45 -10 3 -86 13 -171 21 -84 8 -191 19 -238 24 -228 25 -230 25
-230 0 0 -13 -3 -20 -6 -17 -4 4 -25 -10 -47 -29 -41 -38 -170 -102 -216 -108
-14 -2 -34 -7 -44 -11 -13 -6 -16 -3 -11 9 3 9 10 16 15 16 5 0 28 14 51 30
22 16 46 30 52 30 6 0 29 16 51 35 22 19 46 35 53 35 10 0 12 7 8 24 -3 14 -1
28 5 32 7 4 9 27 5 68 -4 33 -2 75 3 93 5 18 6 33 3 35 -16 7 -51 129 -42 146
4 9 14 44 20 77 7 33 15 77 20 97 4 21 6 93 4 160 -3 86 -1 117 6 103 8 -17 9
-15 5 10 -13 89 -17 185 -6 185 6 0 14 -14 18 -30 13 -49 28 -34 31 31 l3 61
45 -42 c24 -22 66 -50 92 -60 26 -11 55 -24 64 -30 52 -30 49 2 -4 51 -31 28
-38 39 -25 39 25 0 22 7 -27 56 -28 28 -50 62 -61 94 -17 50 -34 58 -36 17 0
-15 -6 -8 -18 22 -20 49 -17 107 4 78 10 -14 12 -14 22 1 10 14 11 13 10 -11
-2 -26 3 -31 51 -49 29 -11 56 -17 60 -13 4 3 -14 25 -40 48 -65 58 -68 89
-11 139 104 91 108 97 137 211 l28 109 -32 33 c-31 32 -32 34 -9 29 23 -5 23
-5 5 10 -11 9 -24 16 -30 16 -6 0 -5 5 1 11 9 9 36 -2 107 -44 90 -52 96 -54
96 -33 0 13 11 35 25 50 35 37 47 63 35 71 -7 4 -6 13 1 26 8 15 14 18 23 9
35 -28 76 63 76 166 0 26 4 32 15 28 8 -4 12 -10 9 -15 -17 -29 97 19 231 95
22 13 45 21 50 19 6 -2 -5 9 -24 26 -18 16 -39 27 -47 24 -17 -6 -135 77 -127
90 4 6 1 7 -6 3 -7 -5 -26 6 -47 28 -34 35 -54 45 -54 28 0 -5 3 -12 6 -15 10
-9 11 -87 2 -87 -5 0 -8 6 -8 13 -1 46 -21 142 -33 156 -8 9 -24 34 -35 56
-16 33 -17 42 -6 52 8 8 15 9 19 3 9 -15 36 -12 56 6 14 12 22 13 38 4 15 -8
27 -8 41 0 39 21 20 55 -67 121 -32 24 -65 51 -73 60 -8 10 -44 38 -80 63
-103 74 -62 53 89 -45 153 -99 186 -109 186 -54 0 26 -9 36 -60 70 -74 49
-114 78 -98 70 6 -3 62 -23 125 -45 125 -43 192 -50 208 -20 13 24 -21 51 -98
80 -31 12 -61 25 -67 29 -18 15 -123 50 -129 44 -3 -4 -6 -2 -6 4 0 5 -27 18
-60 28 -33 10 -58 20 -56 23 6 5 275 -66 291 -77 6 -4 62 -25 126 -46 99 -34
119 -37 133 -26 20 17 21 50 0 58 -11 4 -13 13 -9 33 7 34 -6 45 -76 64 -30 8
-67 20 -84 25 -37 13 -17 11 100 -13 44 -9 93 -13 110 -10 16 3 51 1 77 -5 58
-13 78 -6 78 26 0 19 4 24 16 19 22 -9 54 11 54 34 0 14 7 20 24 20 27 0 51
23 43 43 -4 10 1 13 17 10 12 -3 28 2 35 11 12 14 17 13 52 -4 48 -25 85 -26
98 -2 13 25 -6 51 -56 77 -21 11 -41 24 -45 30 -12 17 26 24 74 13 65 -15 78
-8 76 43 -1 29 4 46 15 54 9 7 17 18 17 24 0 8 11 10 35 5 69 -13 88 38 28 75
-29 17 -32 21 -13 16 73 -19 107 -18 122 4 8 11 17 18 21 15 9 -10 45 6 51 23
4 9 -1 24 -10 34 -15 16 -14 18 13 21 34 4 47 46 16 54 -10 3 -23 15 -28 27
-8 18 -6 24 10 32 11 6 21 20 23 31 3 23 -29 40 -123 63 -27 7 -72 19 -100 27
-27 8 -74 16 -104 19 -30 3 -57 8 -60 11 -3 4 85 3 197 0 128 -5 208 -4 215 2
7 6 26 12 42 14 20 2 33 11 40 26 18 41 57 29 156 -48 50 -38 97 -70 104 -70
21 0 38 28 31 53 -3 12 -24 38 -47 57 -128 108 -122 117 22 34 54 -31 106 -54
116 -52 9 2 24 21 32 43 8 22 21 46 28 53 19 20 16 39 -9 56 -29 21 -19 29 20
15 61 -21 99 33 47 67 -14 9 -28 14 -31 11 -7 -6 -115 30 -124 41 -6 9 -93 32
-123 32 -18 0 -19 2 -7 11 11 8 8 9 -17 5 -17 -3 -33 -1 -35 4 -2 5 -34 11
-73 14 -94 7 -137 14 -149 26 -19 19 269 10 439 -14 158 -22 187 -21 198 8 6
16 -27 60 -46 62 -7 0 -14 2 -17 3 -21 10 -50 6 -50 -8 0 -14 -1 -14 -10 -1
-5 8 -18 16 -30 16 -11 1 -28 2 -38 3 -10 0 -19 8 -19 16 0 13 12 15 73 9 80
-7 104 2 104 40 0 27 -36 44 -89 41 -22 -1 -64 3 -93 10 l-53 12 70 7 c39 4
98 12 132 17 34 6 66 8 71 5 20 -12 62 13 62 36 0 22 -36 48 -67 48 -7 0 -13
7 -13 15 0 8 8 15 17 15 9 0 34 12 55 26 29 20 38 34 38 55 0 15 -6 30 -12 32
-7 3 14 3 47 0 48 -4 63 -2 74 10 15 19 11 63 -7 59 -21 -4 -13 15 14 33 18
11 24 23 21 36 -4 15 0 19 22 19 36 0 65 31 56 59 -6 19 -27 26 -63 22 -10 -2
-10 3 2 21 9 15 12 28 7 37 -18 29 -2 40 50 34 59 -7 79 6 79 52 0 25 -5 34
-22 40 -23 8 -23 8 2 12 14 2 31 12 37 22 14 23 5 64 -12 57 -7 -2 -15 4 -18
15 -4 13 -14 19 -33 19 -46 0 -19 11 61 25 42 8 83 19 91 25 17 15 19 90 2 90
-9 0 -9 3 0 12 7 7 12 22 12 35 0 15 6 23 18 23 28 0 62 29 62 54 0 13 7 29
15 36 8 7 15 23 15 36 0 19 -5 24 -26 24 -19 0 -25 5 -22 18 2 9 12 18 23 20
29 4 47 36 36 65 -11 28 2 48 44 68 36 17 42 40 21 84 -20 40 -12 85 14 85 29
0 51 33 46 71 -3 19 -5 40 -5 47 -1 6 -7 12 -15 12 -7 0 -16 9 -19 20 -4 16
-14 20 -49 21 -33 2 -36 3 -13 6 99 14 137 41 115 84 -9 16 -14 18 -26 9 -7
-7 -20 -10 -28 -7 -8 3 -17 1 -20 -6 -2 -7 -5 -5 -5 5 -1 9 9 20 22 23 80 25
127 58 127 91 0 29 -14 38 -40 24 -11 -6 -20 -7 -20 -2 0 5 14 15 32 23 41 18
57 43 41 67 -6 9 -15 16 -20 15 -26 -7 -129 -48 -133 -53 -3 -4 -14 -9 -25
-12 -11 -4 -57 -22 -102 -42 -46 -19 -83 -33 -83 -30 0 3 21 15 48 26 43 19
138 79 185 117 94 76 112 99 102 131 -8 27 -15 25 -55 -10 -18 -16 -40 -30
-48 -30 -9 0 -12 -6 -8 -16 4 -12 2 -15 -9 -10 -8 3 -15 1 -15 -4 0 -6 -5 -10
-11 -10 -16 0 -41 -29 -34 -40 3 -5 -3 -10 -15 -10 -12 0 -18 -4 -15 -10 3 -5
-2 -10 -12 -10 -11 0 -24 -5 -31 -12 -8 -8 -15 -9 -22 -2 -7 7 11 32 55 77 36
37 65 72 65 77 0 6 7 10 15 10 8 0 15 7 15 15 0 9 7 18 15 21 20 8 55 66 55
92 0 31 -19 37 -39 13 -10 -12 -25 -21 -32 -21 -10 -1 -8 -5 5 -15 19 -15 19
-15 -5 -15 -19 0 -21 -2 -9 -10 12 -8 9 -10 -13 -10 -17 0 -26 -4 -22 -11 4
-6 -3 -13 -15 -16 -16 -4 -18 -8 -8 -14 10 -7 7 -11 -10 -15 -17 -5 -20 -9
-11 -15 10 -6 7 -11 -11 -18 -22 -8 -22 -10 -5 -11 l20 -1 -20 -8 c-11 -5 -27
-6 -35 -3 -12 5 -13 3 -3 -10 15 -17 7 -29 -13 -21 -10 4 -12 0 -8 -11 4 -11
1 -16 -12 -16 -16 0 -17 -2 -4 -10 13 -9 13 -10 0 -11 -8 -1 -26 -1 -40 0 -20
2 -22 0 -10 -8 12 -9 12 -11 -2 -16 -10 -4 -23 -3 -30 1 -8 5 -8 1 2 -11 14
-17 13 -18 -13 -13 -23 5 -25 3 -15 -10 11 -13 9 -15 -14 -10 -16 3 -28 1 -28
-3 0 -5 5 -9 10 -9 6 0 10 -4 10 -9 0 -4 -11 -6 -25 -3 -16 3 -25 0 -25 -8 0
-7 -7 -10 -15 -6 -9 3 -15 0 -15 -8 0 -9 -7 -12 -20 -9 -16 4 -19 2 -14 -11 7
-19 0 -20 -29 -4 -19 10 -20 9 -10 -4 17 -19 5 -30 -18 -17 -12 6 -19 6 -19 0
0 -5 6 -12 13 -15 6 -3 -1 -4 -17 -1 -23 5 -27 3 -23 -10 5 -12 1 -14 -19 -9
-18 5 -24 3 -22 -7 2 -9 -5 -13 -16 -12 -11 1 -25 -5 -32 -12 -8 -7 -23 -11
-35 -8 -15 4 -20 3 -15 -5 8 -13 -3 -16 -43 -12 -14 1 -21 -2 -17 -9 5 -7 -4
-11 -24 -11 -18 0 -29 -4 -25 -10 9 -15 -22 -12 -38 4 -11 12 -32 8 -143 -24
-276 -82 -856 -233 -1019 -266 -66 -13 -192 -33 -280 -44 -424 -55 -644 -33
-1060 105 -464 153 -805 333 -1134 599 l-132 106 -18 -42 -19 -43 5 40 c2 22
9 51 14 65 12 33 29 154 29 209 0 40 2 42 17 30 9 -8 14 -9 10 -3 -5 8 13 13
56 16 48 4 78 0 133 -18 131 -43 293 -54 464 -29 19 3 117 10 217 17 170 11
187 10 240 -7 37 -12 80 -18 118 -16 91 5 118 4 146 -4 15 -4 49 1 85 11 l59
18 -55 7 c-30 4 -59 5 -65 2 -5 -2 -1 3 10 12 11 9 39 21 63 27 56 14 54 29
-5 23 -55 -6 -53 -4 22 35 64 33 84 38 66 16 -9 -11 -6 -12 16 -9 26 4 27 3
10 -10 -12 -10 -14 -17 -7 -22 16 -10 3 -24 -33 -34 -32 -9 -32 -9 -4 -10 24
-1 41 -21 17 -21 -5 0 -10 -7 -10 -15 0 -8 -9 -15 -20 -15 -11 0 -20 -4 -20
-9 0 -11 38 -2 45 10 3 4 13 5 22 2 21 -8 -60 -42 -104 -42 -17 -1 -34 -7 -36
-13 -4 -10 -6 -10 -6 0 -1 6 -7 12 -15 12 -9 0 -12 -7 -9 -20 6 -24 39 -26 79
-5 15 8 30 12 33 9 10 -10 -30 -37 -66 -44 -36 -7 -37 -8 -7 -9 21 -1 44 9 69
29 43 34 47 36 39 15 -5 -11 -2 -13 10 -9 28 11 17 -3 -26 -31 -48 -32 -98
-84 -98 -102 0 -17 15 -16 30 2 9 11 9 15 1 15 -7 0 -9 5 -6 10 3 6 13 10 21
10 9 0 12 -5 8 -12 -5 -8 0 -9 17 -5 13 4 30 7 38 7 7 0 11 6 8 13 -3 8 8 13
35 14 22 2 56 13 76 25 22 14 49 21 72 20 20 -2 56 5 80 13 32 11 61 14 100
10 38 -4 68 -2 95 8 22 9 90 34 150 57 64 24 135 44 170 47 48 5 70 13 110 41
33 23 72 40 115 49 42 9 78 24 102 43 53 43 86 56 100 42 18 -18 70 -14 103 8
17 11 45 20 63 20 18 0 49 7 70 16 60 25 221 64 265 64 32 0 38 3 29 12 -7 7
-12 26 -12 42 0 17 4 26 8 20 11 -18 170 -37 263 -32 84 5 146 24 320 102 54
24 54 24 25 31 -19 5 -54 1 -100 -11 -45 -12 -104 -19 -161 -19 -94 1 -305 9
-301 12 8 8 151 31 168 27 64 -14 127 -19 163 -12 22 4 52 5 67 2 36 -7 68 3
68 22 0 17 -3 16 39 4 19 -5 63 -10 99 -11 61 -2 70 -5 141 -54 93 -63 109
-69 160 -55 41 11 93 61 71 68 -7 3 -17 -1 -23 -7 -14 -14 -39 -14 -72 1 -29
13 -32 34 -8 68 17 24 16 24 -16 -2 -18 -16 -38 -28 -44 -28 -14 0 -43 18 -37
22 3 2 14 8 25 14 15 9 20 22 21 62 1 55 -5 62 -31 36 -15 -15 -18 -15 -36 2
-24 22 -61 20 -102 -4 -25 -15 -29 -15 -38 -2 -8 11 -12 12 -16 3 -7 -19 -21
-16 -27 5 -10 30 -78 62 -132 62 -87 0 -163 17 -195 45 -31 25 -89 35 -89 14
0 -5 4 -8 9 -5 4 3 16 -3 26 -14 16 -17 16 -21 2 -35 -18 -17 -37 -20 -37 -5
0 6 -5 10 -11 10 -5 0 -7 -5 -3 -11 12 -20 -35 1 -62 28 -15 15 -19 23 -10 20
9 -4 16 -2 16 4 0 5 -11 14 -25 19 -14 5 -45 19 -69 30 -25 11 -52 20 -60 20
-23 0 -20 27 4 40 11 6 70 22 131 35 61 14 140 34 176 45 70 22 137 26 177 10
23 -8 58 -59 55 -77 -3 -13 14 -47 30 -61 30 -24 86 -44 149 -53 35 -5 78 -16
95 -25 44 -22 78 -55 70 -67 -3 -6 -1 -7 5 -3 6 3 26 -7 45 -24 19 -16 45 -30
58 -30 13 0 46 -11 73 -25 27 -14 66 -25 85 -25 21 -1 46 -9 60 -20 20 -17 22
-24 13 -48 -21 -61 9 -107 73 -114 28 -3 30 0 45 52 18 65 30 85 50 85 9 0 16
11 18 30 2 25 -6 39 -53 83 -30 29 -55 59 -55 67 0 19 -32 35 -57 29 -11 -3
-57 9 -101 26 -78 30 -102 48 -64 49 9 0 62 11 116 24 l100 24 34 -24 c19 -12
43 -23 52 -23 16 0 17 -7 13 -57 -4 -49 -2 -62 17 -85 18 -24 29 -28 68 -28
71 0 76 7 70 86 l-5 69 53 0 c35 0 59 5 69 16 17 16 12 37 -31 134 -9 22 -16
52 -15 68 3 37 -52 107 -84 107 -27 0 -172 73 -156 78 9 3 9 7 0 18 -22 27 16
15 42 -12 29 -32 94 -63 132 -64 35 0 74 25 93 61 13 26 13 29 -6 39 -11 6
-42 8 -74 4 l-55 -7 -64 62 c-41 39 -67 57 -73 51 -9 -9 -138 -17 -160 -9 -6
2 -50 -22 -99 -53 -48 -32 -92 -58 -97 -58 -5 0 -40 -18 -78 -40 -38 -22 -71
-40 -74 -40 -2 0 -20 -14 -38 -30 -18 -16 -37 -30 -43 -30 -5 0 -34 -22 -62
-49 -29 -26 -53 -44 -53 -39 0 25 44 89 85 122 25 21 44 40 42 42 -2 2 -17 0
-33 -6 -67 -21 -104 -28 -109 -20 -3 4 1 12 8 17 19 16 108 43 138 43 15 0 36
8 48 18 20 16 20 20 7 57 -8 21 -19 41 -24 43 -20 6 -205 -58 -237 -83 -19
-14 -46 -30 -61 -35 -15 -6 -24 -13 -21 -16 7 -8 -18 -34 -31 -34 -6 0 -12 -7
-15 -15 -4 -8 -52 -28 -109 -45 -57 -18 -178 -56 -270 -87 -194 -63 -179 -42
-152 -209 15 -97 27 -228 17 -190 -9 34 -45 56 -78 50 -16 -4 -27 -3 -23 1 3
3 0 23 -9 43 -8 19 -16 53 -19 74 -2 22 -6 43 -8 47 -11 17 -151 -21 -160 -44
-4 -11 6 -13 47 -9 51 4 53 3 64 -26 8 -21 8 -33 -1 -44 -11 -14 -189 -66
-226 -66 -10 0 -21 -4 -24 -9 -5 -7 4 -74 18 -141 2 -8 -1 -21 -7 -27 -12 -17
-51 -17 -41 -1 5 7 3 8 -5 4 -8 -5 -14 0 -18 14 -4 16 -8 18 -14 8 -6 -10 -9
-8 -9 7 0 11 -7 39 -15 62 -8 23 -22 81 -32 130 -15 76 -18 83 -23 53 -3 -19
-2 -38 3 -41 4 -3 5 -14 1 -23 -5 -13 -15 -17 -35 -14 -27 4 -34 -2 -30 -26 1
-5 -5 -6 -14 -2 -9 3 -13 2 -10 -4 3 -6 0 -10 -7 -10 -11 0 -10 -2 0 -9 11 -7
11 -9 -2 -14 -9 -4 -16 -3 -16 1 0 4 -9 8 -20 8 -11 0 -20 -5 -20 -11 0 -5 -5
-3 -10 5 -6 10 -10 11 -10 3 0 -7 -8 -13 -17 -13 -15 0 -16 -2 -3 -10 8 -5 10
-10 5 -10 -6 0 -16 5 -23 12 -8 8 -15 8 -28 -3 -10 -8 -15 -9 -11 -2 4 6 3 14
-3 18 -5 3 -10 1 -10 -6 0 -7 -8 -5 -20 6 -20 18 -21 18 -27 -3 -6 -26 -23
-29 -24 -4 0 10 -3 12 -6 4 -2 -6 -9 -10 -14 -6 -13 8 -11 -7 6 -39 9 -19 10
-25 2 -21 -7 4 -4 -2 6 -13 18 -21 18 -22 -5 -34 -13 -7 -24 -12 -25 -11 -2 1
-2 -1 -1 -5 1 -5 8 -7 14 -5 7 1 15 -1 18 -6 6 -9 -107 -49 -154 -54 -54 -6
-32 16 30 31 62 15 66 17 63 44 -1 19 2 25 10 21 8 -5 8 -3 0 7 -18 19 -16 29
5 23 9 -3 5 2 -10 11 -18 10 -28 24 -28 39 0 17 -7 25 -25 28 -14 3 -25 1 -25
-3 0 -5 -17 -9 -37 -9 -21 0 -67 -7 -103 -15 -92 -22 -120 -26 -118 -17 1 4
-6 30 -16 59 -16 43 -21 49 -33 37 -15 -14 -43 -9 -43 10 0 6 -4 5 -9 -4 -7
-10 -2 -19 19 -31 22 -14 28 -25 28 -47 -1 -20 -6 -29 -16 -28 -8 0 -17 -5
-19 -12 -3 -7 1 -10 11 -6 10 4 16 1 16 -10 0 -10 -6 -14 -17 -10 -17 5 -17 5
-1 -6 10 -6 15 -17 11 -27 -5 -13 -2 -15 15 -11 12 4 25 2 28 -3 3 -5 -1 -9
-8 -10 -7 -1 -2 -5 12 -9 15 -5 18 -8 8 -9 -9 -1 -21 -14 -27 -31 -5 -16 -16
-30 -23 -30 -15 0 -15 -67 0 -135 5 -22 8 -62 7 -90 -3 -65 -3 -65 -16 -65 -5
0 -7 5 -4 10 3 6 -1 10 -10 10 -9 0 -13 5 -9 11 4 7 -2 9 -15 7 -12 -1 -21 -7
-21 -12 1 -5 -4 -13 -12 -17 -10 -7 -9 -9 3 -9 9 0 20 -7 23 -16 5 -13 3 -14
-6 -6 -7 5 -35 12 -62 14 l-50 3 -18 105 c-10 58 -20 119 -23 136 -4 26 -9 31
-25 27 -11 -3 -20 -11 -20 -18 0 -7 -6 -16 -12 -18 -7 -3 1 -6 17 -7 l30 -2
-31 -7 c-17 -4 -51 -5 -75 -2 l-44 6 47 14 c48 14 56 31 15 31 -20 1 -21 1 -4
11 10 6 21 8 24 6 3 -3 14 3 26 14 11 10 27 19 34 19 7 0 13 7 13 15 0 22 -26
18 -51 -7 -12 -13 -18 -17 -14 -9 6 10 1 12 -21 7 -17 -3 -39 0 -54 9 -25 14
-25 14 -2 15 12 0 22 4 22 8 0 4 -24 8 -54 8 -30 -1 -52 -4 -50 -8 3 -4 -9 -6
-26 -5 -38 3 -39 13 -1 22 16 3 36 14 45 24 15 17 15 20 1 34 -9 9 -25 14 -40
11 -23 -4 -24 -2 -18 28 8 43 11 45 19 14 6 -23 10 -25 43 -20 95 14 142 9
127 -14 -3 -5 -26 -15 -51 -21 -25 -6 -45 -13 -45 -15 0 -2 26 -2 58 -1 51 3
55 2 33 -9 -23 -13 -23 -14 -5 -24 19 -11 19 -11 0 -12 -11 0 -16 -3 -13 -7 4
-3 17 -2 30 4 12 6 31 14 41 17 19 7 19 27 1 206 -1 14 -3 41 -4 61 -1 34 -4
37 -35 41 -19 2 -32 0 -30 -4 3 -4 0 -8 -6 -8 -6 0 -8 -4 -5 -10 6 -9 -15 -11
-109 -10 -16 0 -36 5 -45 9 -11 7 0 13 44 26 80 22 83 23 60 24 -17 1 -17 3
-5 11 13 8 11 13 -12 35 -32 29 -40 31 -31 8 4 -13 -2 -10 -23 9 -27 25 -31
26 -54 12 l-25 -14 30 6 c26 4 27 4 11 -7 -15 -9 -16 -13 -5 -20 14 -9 -11
-13 -56 -10 -16 2 -17 0 -6 -8 10 -6 -4 -10 -45 -13 -57 -3 -62 -1 -134 47
-92 62 -301 175 -325 175 -9 0 -24 -8 -33 -18 -21 -23 -81 -51 -65 -30 5 7 13
21 16 31 6 15 3 17 -16 11 -12 -3 -29 -12 -37 -19 -24 -21 -411 -21 -469 0
-24 8 -45 15 -46 15 -1 0 -5 -33 -9 -72 -4 -40 -9 -94 -13 -120 l-6 -48 -119
0 c-82 0 -117 3 -113 11 4 6 13 8 21 5 8 -3 14 -1 14 5 0 5 11 7 25 3 14 -3
40 -3 59 0 l33 6 -1 153 c-1 83 -6 161 -11 171 -7 17 -5 18 16 12 13 -4 59
-10 103 -13 77 -6 78 -6 92 -39 l14 -34 111 0 c124 0 114 -7 93 66 -4 17 1 22
34 32 58 18 81 15 114 -13 37 -31 39 -31 70 3 44 46 44 67 3 95 -20 13 -52 43
-71 65 -20 23 -47 43 -64 47 -17 4 -30 13 -30 21 0 20 -10 18 -37 -8 l-23 -21
-25 23 c-32 30 -32 36 6 44 39 8 28 25 -28 45 -21 7 -45 20 -54 27 -8 7 -24
15 -35 17 -10 2 -31 9 -45 14 -14 6 -43 16 -65 21 -21 6 -58 15 -80 21 -23 6
-59 11 -81 11 -21 0 -44 5 -51 12 -9 9 -62 12 -180 12 l-168 1 7 50 c8 61 -5
89 -34 71 -16 -9 -21 -8 -31 8 -28 46 -108 135 -139 155 -19 11 -45 21 -59 21
-24 0 -25 1 -26 92 -1 72 2 98 15 118 26 38 21 147 -11 243 -14 43 -26 86 -26
97 0 10 -16 39 -35 65 -31 39 -35 51 -29 81 5 28 2 40 -17 60 -12 13 -28 24
-35 24 -8 0 -47 33 -88 74 -42 41 -107 95 -146 121 -39 26 -83 65 -97 86 -31
48 -48 51 -39 7 l6 -32 -31 29 c-17 17 -47 51 -67 78 -20 26 -42 47 -49 47
-16 0 -16 -1 -2 -37 8 -23 8 -26 -2 -15 -20 19 -42 15 -34 -5 5 -15 4 -16 -6
-5 -20 19 -37 14 -41 -10 -3 -21 -6 -19 -33 18 -35 49 -85 74 -85 43 0 -19 -1
-19 -31 -4 -32 17 -59 14 -59 -6 0 -6 10 -25 22 -41 l21 -31 -26 18 c-14 9
-31 14 -36 10 -6 -3 -25 14 -43 40 -30 43 -51 55 -62 37z m368 -626 c67 -2 94
-7 137 -29 38 -18 55 -23 60 -15 6 9 14 9 34 0 30 -14 55 -4 80 31 l16 22 20
-24 19 -24 -40 -34 c-42 -36 -54 -61 -21 -43 37 19 51 12 51 -25 0 -26 -9 -45
-33 -71 l-32 -35 -45 20 c-50 23 -85 27 -95 11 -4 -6 -2 -16 4 -23 6 -8 6 -18
1 -27 -6 -8 -10 -25 -10 -38 0 -22 -1 -22 -16 -7 -9 9 -22 14 -28 12 -44 -17
-55 -16 -77 3 -16 15 -18 18 -5 12 11 -5 34 -6 55 -1 23 5 38 4 42 -3 4 -6 9
-6 12 -1 3 5 2 15 -4 23 -5 8 -9 27 -9 42 0 16 -8 31 -19 37 -16 9 -18 8 -14
-9 4 -14 -2 -23 -23 -32 -22 -10 -28 -10 -32 0 -2 6 -10 12 -18 12 -17 0 -18
13 -3 43 9 20 8 19 -11 -3 -16 -18 -20 -32 -16 -54 5 -24 4 -28 -6 -18 -7 7
-20 12 -30 12 -11 0 -18 7 -18 18 0 9 -9 35 -21 56 -11 21 -18 41 -15 44 3 3
23 0 43 -6 40 -12 53 -9 53 14 0 10 -7 13 -22 9 -13 -2 -39 -1 -58 3 -30 7
-35 13 -42 46 -10 45 4 70 34 60 10 -3 56 -7 102 -8z m134 -428 c18 -24 48
-61 67 -82 32 -35 36 -38 48 -23 17 23 78 67 93 67 18 0 46 -93 38 -124 -5
-22 -10 -25 -33 -19 -40 10 -138 63 -169 92 -34 33 -102 116 -102 125 0 19 31
0 58 -36z m330 -346 c17 -17 36 -82 61 -214 15 -83 -27 -105 -69 -36 -18 29
-20 30 -20 11 0 -13 -4 -23 -9 -23 -14 0 -193 125 -219 153 l-23 25 28 19 c35
25 89 44 98 35 4 -4 13 2 21 12 14 19 14 19 39 -4 26 -24 29 -22 25 18 -1 17
4 22 24 22 14 0 34 -8 44 -18z m1214 -298 c26 -60 39 -106 28 -99 -5 3 -14 -3
-20 -14 -6 -12 -16 -18 -25 -15 -12 5 -15 -2 -15 -30 0 -20 -4 -36 -9 -36 -5
0 -46 27 -91 60 l-81 61 38 48 c29 37 48 51 78 59 70 17 75 15 97 -34z m-4841
-98 c-10 -12 -2 -19 43 -40 30 -14 57 -26 60 -26 4 0 25 -9 49 -19 56 -26 319
-122 437 -160 249 -81 320 -106 320 -117 0 -6 -9 -19 -19 -28 -18 -16 -23 -16
-82 -1 -257 66 -559 168 -784 265 -65 27 -124 50 -131 50 -18 0 -18 30 0 53 8
10 27 17 49 17 20 0 39 5 42 10 3 6 11 10 17 10 7 0 6 -5 -1 -14z m2752 -7
c41 -21 67 -52 67 -79 l0 -27 -119 -7 c-65 -3 -125 -4 -132 -2 -8 3 -47 14
-87 26 -41 12 -72 23 -70 25 2 3 26 -2 53 -10 26 -8 61 -15 76 -15 25 0 28 4
31 38 l3 37 71 0 c53 0 70 3 67 13 -6 15 11 16 40 1z m-1671 -150 c15 -8 16
-12 2 -44 -13 -31 -12 -35 4 -44 32 -17 186 -50 262 -56 l75 -6 15 32 c13 28
23 35 67 44 28 7 78 10 110 7 49 -3 62 -8 83 -33 l25 -29 120 39 c197 65 199
67 170 91 -24 20 -18 40 13 40 29 0 133 -68 129 -84 -2 -5 -39 -22 -83 -39
-43 -16 -144 -55 -224 -87 -80 -31 -175 -67 -212 -79 -74 -25 -47 -27 -273 24
-33 7 -81 17 -107 20 -42 6 -48 5 -48 -10 0 -14 -5 -16 -27 -10 -16 3 -41 8
-58 9 -16 1 -71 11 -121 21 l-92 19 -5 55 c-4 46 0 65 20 107 l26 51 56 -14
c31 -8 64 -19 73 -24z m3077 -87 c6 -37 14 -78 17 -92 5 -27 48 -80 64 -80 6
0 10 -6 10 -14 0 -8 14 -19 30 -25 17 -5 30 -15 30 -20 0 -6 6 -11 14 -11 8 0
19 -15 25 -33 12 -34 6 -67 -10 -67 -5 0 -9 -11 -9 -25 0 -27 17 -39 73 -49
20 -4 37 -11 37 -15 0 -17 33 -21 63 -7 99 44 113 33 132 -107 4 -27 22 -101
41 -165 38 -130 41 -160 19 -202 -30 -59 -106 -76 -234 -54 -120 20 -225 57
-355 124 -175 89 -252 145 -373 266 -190 191 -254 209 -593 159 -168 -25 -199
-25 -290 -3 -68 17 -290 133 -290 152 0 4 30 6 68 4 37 -3 80 -1 95 3 17 5 79
0 155 -11 70 -10 130 -16 134 -14 4 2 18 29 31 58 18 38 38 63 67 82 27 18 43
37 47 56 3 15 8 28 12 28 3 0 49 -12 101 -26 329 -89 425 -105 638 -105 l163
-1 5 -28 c5 -23 14 -30 49 -39 24 -6 47 -11 52 -11 4 1 -19 25 -52 55 l-60 54
-3 90 c-4 89 -4 90 29 131 29 36 35 39 45 25 7 -9 17 -46 23 -83z m-3992 -226
c49 -19 116 -44 151 -56 34 -13 61 -25 59 -29 -2 -3 -11 -22 -20 -43 l-17 -36
-47 13 c-27 7 -93 30 -148 50 -55 21 -106 38 -112 38 -8 0 -13 15 -13 37 0 28
5 39 23 48 31 15 28 16 124 -22z m2656 -281 c19 -19 43 -35 52 -35 16 0 17 -7
11 -57 -16 -135 -75 -311 -160 -478 -57 -110 -257 -384 -406 -555 -109 -125
-121 -134 -113 -86 5 30 3 35 -18 38 -34 4 -79 -49 -79 -93 0 -22 3 -29 9 -21
7 12 56 42 67 42 14 0 -1 -32 -31 -67 -40 -48 -133 -118 -142 -109 -4 3 -2 6
4 6 6 0 18 18 26 39 9 22 21 42 27 46 8 5 8 11 -1 21 -8 10 -8 14 0 14 6 0 11
8 11 18 0 14 -4 12 -23 -9 -40 -47 -128 -102 -190 -120 -38 -11 -70 3 -102 45
-33 43 -30 65 5 39 18 -14 41 -18 87 -18 56 1 68 5 120 40 64 45 207 202 287
315 29 41 95 135 147 207 194 273 194 273 243 426 24 78 56 191 71 251 24 104
37 136 55 136 5 0 24 -16 43 -35z m-1739 -96 c5 -4 10 -20 12 -34 2 -22 -6
-30 -28 -26 -5 0 -8 -4 -8 -10 0 -8 -4 -8 -14 0 -12 10 -13 8 -9 -11 5 -23 5
-23 -10 -3 -16 19 -16 19 -17 1 0 -15 -3 -16 -14 -7 -11 10 -16 8 -21 -9 -8
-24 -20 -17 -29 15 -3 11 -4 5 -2 -14 3 -30 1 -32 -10 -17 -7 11 -18 15 -25
10 -7 -4 -10 -3 -6 3 4 6 1 13 -7 16 -7 3 -16 15 -19 27 -3 12 -3 20 -1 17 3
-3 16 6 30 20 14 14 31 22 39 19 8 -3 15 -1 15 4 0 19 103 18 124 -1z m451
-39 c3 -5 0 -20 -7 -33 -25 -44 -132 -167 -146 -167 -8 0 -12 -6 -9 -14 3 -8
-1 -17 -9 -20 -8 -3 -14 -2 -14 2 0 4 -20 16 -45 26 -48 20 -50 23 -35 46 8
13 13 12 41 -4 l32 -19 20 24 c47 59 149 169 157 169 5 0 12 -4 15 -10z m5314
-40 c-8 -6 -8 -9 0 -14 14 -9 -11 -36 -34 -36 -8 0 -27 -7 -40 -16 -34 -22
-144 -31 -156 -13 -12 19 -11 52 1 44 5 -3 18 -2 27 4 10 5 32 12 48 15 17 3
48 10 70 14 50 10 100 11 84 2z m-3685 -472 c25 -29 46 -60 46 -69 0 -10 -9
-37 -19 -62 -25 -58 -57 -65 -167 -36 -98 26 -159 38 -205 38 -29 1 -38 -4
-47 -24 -6 -13 -34 -59 -62 -101 l-51 -76 27 -27 c23 -22 24 -26 9 -29 -10 -2
-29 8 -43 23 l-25 28 33 61 c19 33 50 88 70 121 l37 60 59 -3 c32 -1 79 -9
104 -17 76 -24 202 -47 211 -38 5 5 10 21 11 36 1 15 6 27 10 27 21 0 4 36
-37 78 -32 33 -41 48 -32 54 20 13 23 10 71 -44z m-2448 -72 c13 -2 18 -10 17
-25 -2 -15 5 -24 23 -31 37 -14 49 -13 34 5 -10 13 -9 15 8 15 12 0 26 -9 32
-20 13 -25 3 -47 -13 -31 -19 19 -27 12 -15 -14 6 -14 16 -25 23 -25 14 0 37
-41 33 -59 -2 -8 3 -16 10 -18 7 -3 12 4 13 19 1 22 1 22 13 -4 6 -15 21 -37
32 -50 24 -26 49 -86 41 -94 -3 -3 -32 8 -64 25 -51 27 -60 37 -70 71 -5 22
-6 40 -2 40 5 0 9 4 9 9 0 5 -11 8 -25 7 -18 -1 -23 -5 -20 -17 4 -13 9 -54
15 -120 0 -3 32 -18 70 -33 39 -16 74 -35 79 -44 10 -20 -6 -163 -19 -176 -6
-6 -10 -20 -10 -32 0 -13 -4 -25 -9 -28 -15 -10 -18 17 -5 44 7 14 15 57 19
96 6 71 5 72 -26 98 -17 14 -55 37 -84 50 -45 21 -53 29 -59 59 -6 34 -36 61
-36 32 0 -8 -9 -13 -20 -12 -15 1 -20 8 -20 32 0 28 -28 84 -30 60 0 -5 -7 1
-14 14 l-13 24 -24 -42 c-26 -46 -96 -104 -113 -94 -7 4 -6 8 2 11 7 2 10 7 7
12 -3 5 4 12 16 15 56 18 136 140 114 175 -3 5 -1 11 5 15 5 3 10 17 10 31 0
20 4 23 23 19 13 -4 32 -8 43 -9z m2212 -96 c26 -12 42 -26 43 -37 0 -11 2
-13 6 -5 4 10 9 9 24 -4 18 -16 20 -16 38 4 25 30 37 28 50 -8 8 -25 7 -32 -4
-36 -15 -6 -116 17 -186 42 -61 21 -79 19 -79 -10 0 -14 -13 -37 -29 -53 l-28
-28 49 -47 c27 -26 63 -50 81 -54 36 -8 67 -25 67 -37 0 -11 -44 3 -48 14 -2
5 -7 7 -12 4 -12 -8 -51 16 -99 60 -23 22 -49 44 -57 48 -8 4 -14 13 -14 18 0
6 5 7 10 4 6 -3 10 -4 10 -1 0 2 3 13 6 23 5 15 4 15 -5 3 -8 -11 -11 -12 -11
-2 0 8 -5 10 -12 5 -7 -4 -5 5 5 20 9 15 25 39 34 55 10 15 22 33 28 39 13 16
74 8 133 -17z m1754 -220 c62 -61 222 -181 285 -214 35 -17 68 -59 59 -74 -3
-4 0 -41 6 -81 22 -149 95 -185 190 -94 15 14 34 41 43 59 31 65 105 25 105
-57 l0 -37 68 -7 c84 -9 126 -26 148 -60 16 -25 16 -29 -1 -86 -23 -76 -14
-113 30 -117 42 -4 151 75 160 116 7 33 29 56 62 66 23 7 92 -17 105 -37 13
-20 9 -84 -8 -127 -9 -23 -14 -43 -12 -46 3 -2 31 8 63 22 65 30 225 54 288
43 59 -9 75 -41 51 -103 -4 -10 5 -27 24 -46 27 -26 37 -30 87 -30 48 0 78 9
188 59 145 64 274 111 307 111 64 0 78 -52 35 -132 -14 -26 -25 -51 -25 -56 0
-10 106 42 131 64 10 9 30 40 45 70 62 124 194 219 208 152 13 -60 6 -107 -17
-109 -7 -1 -22 -3 -34 -4 -28 -3 -82 -43 -151 -112 -30 -31 -66 -56 -82 -59
-16 -4 -39 -17 -51 -30 -12 -13 -26 -21 -31 -18 -5 3 -7 1 -6 -4 2 -5 -8 -25
-22 -43 -13 -19 -23 -43 -22 -55 2 -14 -6 -27 -25 -39 -25 -17 -26 -19 -8 -25
19 -7 19 -7 -4 -15 -28 -8 -38 0 -45 39 -7 38 -13 43 -36 28 -127 -78 -241
-100 -323 -63 -51 24 -87 65 -70 82 7 7 21 5 44 -7 96 -51 276 18 349 133 36
57 29 68 -43 67 -37 -1 -87 -16 -170 -49 -106 -42 -125 -47 -179 -43 -59 4
-62 6 -114 61 -52 55 -85 71 -149 71 -67 0 -154 -33 -175 -67 -11 -18 -10 -23
14 -44 34 -29 100 -46 153 -40 24 2 43 2 43 -2 0 -10 -59 -34 -103 -42 -58
-10 -101 6 -157 61 l-51 50 -35 -35 c-37 -38 -65 -46 -58 -17 2 9 11 44 19 77
16 62 20 155 8 155 -5 0 -28 -14 -53 -30 -87 -58 -148 -61 -209 -11 -33 27
-35 32 -36 93 -1 74 -18 108 -68 138 -52 32 -63 27 -75 -36 -10 -46 -9 -61 3
-84 18 -35 24 -39 77 -49 l43 -7 -33 -17 c-34 -19 -83 -16 -113 6 -34 26 -41
56 -34 148 4 49 4 89 0 89 -4 0 -25 -21 -48 -46 -55 -61 -105 -72 -175 -39
-41 19 -52 30 -69 71 -12 27 -21 60 -21 74 0 14 -14 59 -31 101 -32 78 -58
105 -164 178 -88 60 -183 161 -201 213 -21 63 -10 95 15 45 10 -19 47 -63 81
-97z m-1168 -71 c-4 -8 0 -9 15 -4 16 5 23 1 31 -19 8 -23 12 -25 35 -16 15 6
36 10 48 10 15 -1 6 -8 -27 -22 l-48 -22 -17 22 c-11 15 -20 19 -30 13 -12 -8
-12 -12 2 -26 10 -9 17 -21 17 -27 0 -6 6 -19 14 -27 8 -9 16 -34 19 -57 3
-22 11 -53 18 -67 13 -29 3 -52 -11 -27 -5 8 -16 24 -25 35 -13 16 -16 17 -11
3 8 -25 -45 -51 -59 -28 -3 5 -12 7 -19 4 -7 -3 -16 2 -19 10 -4 9 -12 16 -19
16 -9 0 -8 -3 2 -10 20 -13 4 -13 -21 0 -10 6 -19 18 -19 26 0 8 -4 13 -9 10
-4 -3 -17 2 -27 10 -10 9 -14 13 -8 10 8 -4 10 11 7 51 -2 31 -1 59 4 62 4 3
13 15 19 26 6 11 23 21 38 23 14 2 26 8 26 14 0 6 6 6 15 -2 9 -8 15 -8 15 -2
0 6 10 13 23 15 12 2 23 5 25 6 2 0 0 -4 -4 -10z m-338 -274 c15 -14 22 -25
15 -25 -6 0 -10 -12 -10 -27 1 -18 3 -22 6 -10 4 14 8 16 19 6 10 -9 14 -9 14
0 0 9 5 9 20 1 15 -8 20 -8 20 2 0 7 12 0 26 -15 14 -15 29 -25 35 -22 5 4 10
-2 10 -12 1 -17 2 -17 6 0 6 24 23 11 23 -19 0 -14 4 -22 10 -19 6 3 10 -1 10
-10 0 -9 4 -14 8 -11 5 3 7 -7 4 -22 -2 -17 -10 -28 -20 -29 -9 -1 -30 -5 -47
-9 -16 -4 -54 -8 -82 -9 -40 -2 -53 0 -53 11 0 8 -4 14 -10 14 -12 0 -41 55
-33 64 4 3 -1 6 -10 6 -9 0 -17 5 -17 10 0 6 -7 10 -15 10 -22 0 -18 25 8 44
12 9 16 14 10 11 -8 -4 -13 1 -13 10 0 12 6 15 21 10 18 -6 19 -5 10 13 -14
25 -14 52 -2 52 6 0 22 -11 37 -25z m5752 -12 c-10 -2 -18 -8 -18 -11 0 -4
-15 -8 -32 -10 -68 -5 -78 -7 -78 -13 0 -14 -33 -19 -46 -8 -11 9 -14 9 -14 0
0 -9 -5 -9 -21 0 -14 7 -19 7 -15 0 5 -7 -7 -9 -34 -7 -22 2 -40 0 -40 -4 0
-9 -39 -23 -58 -21 -6 1 -20 -3 -30 -9 -14 -9 -13 -10 7 -4 17 4 21 3 16 -6
-4 -6 -19 -10 -33 -9 -15 2 -33 0 -40 -4 -6 -5 -16 -5 -22 -2 -5 3 -10 2 -10
-4 0 -7 -8 -7 -25 -1 -19 7 -23 6 -18 -5 6 -18 -8 -20 -26 -2 -10 10 -12 9 -9
-2 2 -7 -4 -15 -12 -17 -8 -2 -24 -5 -35 -8 -11 -2 -28 -5 -38 -5 -10 -1 -15
-5 -12 -11 4 -6 -10 -10 -34 -10 -22 0 -43 -4 -46 -10 -3 -5 -17 -10 -31 -10
-13 0 -24 -4 -24 -10 0 -5 -16 -8 -35 -6 -19 1 -36 -1 -37 -5 -3 -8 -31 -12
-63 -10 -17 1 -16 4 10 21 17 11 37 20 46 20 9 0 19 7 23 15 3 9 18 15 38 15
26 0 30 3 18 11 -11 8 -6 9 23 5 32 -4 38 -2 33 11 -5 12 0 14 23 11 21 -3 28
-1 24 9 -6 15 23 18 32 3 3 -5 16 -9 28 -9 17 1 18 2 5 6 -10 2 -18 9 -18 14
0 12 33 12 46 -1 6 -6 41 -1 102 16 51 13 97 22 101 19 5 -3 11 -1 13 4 1 5
25 12 52 15 27 4 53 9 57 11 3 3 26 7 50 10 24 4 62 10 84 14 41 9 154 12 123
4z m-4715 -141 c1 -18 4 -32 8 -32 8 0 31 -148 24 -159 -3 -5 11 -15 30 -22
19 -7 35 -17 35 -21 0 -5 10 -22 21 -38 13 -17 22 -45 23 -73 2 -28 10 -54 24
-71 12 -15 24 -37 28 -48 10 -32 -5 -86 -31 -114 -27 -29 -30 -40 -15 -49 5
-3 15 6 23 21 l14 26 16 -41 c33 -82 25 -158 -18 -175 -59 -22 -171 4 -313 72
-57 27 -148 65 -204 83 l-100 34 -43 -48 c-37 -40 -48 -47 -69 -41 -14 3 -30
12 -37 20 -6 8 -22 14 -35 14 -24 0 -79 18 -73 24 9 9 113 -15 130 -30 17 -15
20 -14 49 20 18 20 39 36 48 36 27 0 4 13 -81 44 l-82 31 0 40 c-1 22 -6 49
-12 61 -7 11 -19 40 -27 64 -26 75 7 95 96 57 21 -9 40 -12 43 -7 3 5 -11 14
-30 20 -19 6 -35 16 -35 21 0 6 -4 8 -9 5 -4 -3 -25 9 -45 27 -27 24 -37 43
-42 76 l-7 44 69 -7 c38 -3 150 -13 249 -21 181 -15 331 -31 372 -40 l23 -5
-25 67 c-15 41 -20 70 -14 73 5 4 0 19 -13 35 -18 23 -19 28 -5 22 14 -5 17
-1 17 25 0 42 20 24 23 -20z m3814 -4 c-2 -7 -11 -12 -20 -12 -9 1 -13 -4 -10
-12 3 -8 0 -14 -6 -14 -18 0 -89 -79 -107 -120 -9 -21 -22 -37 -28 -34 -6 2
-22 -20 -36 -49 -13 -29 -37 -67 -53 -86 -16 -19 -35 -48 -43 -65 -7 -17 -13
-27 -14 -22 0 6 -9 0 -20 -12 -20 -21 -40 -29 -40 -16 0 3 11 15 25 25 24 20
24 20 5 39 -21 21 -50 27 -50 10 0 -5 -7 -10 -15 -10 -8 0 -15 -5 -15 -11 0
-6 -6 -9 -12 -6 -7 2 -21 -2 -30 -11 -13 -11 -18 -12 -18 -2 0 10 -3 10 -15 0
-12 -10 -15 -9 -15 4 0 21 -32 17 -42 -4 -5 -12 -7 -11 -7 3 -1 10 -7 25 -13
32 -35 39 -40 48 -35 70 2 14 -1 26 -6 28 -12 4 -1 27 13 27 4 0 11 -11 14
-25 8 -31 54 -55 116 -62 68 -7 146 36 205 115 59 78 171 189 215 212 41 22
63 25 57 8z m-577 -498 c12 -7 17 -17 14 -28 -4 -13 -3 -14 4 -4 15 21 44 -13
36 -43 -5 -20 -1 -24 25 -30 41 -9 46 -20 20 -44 -12 -11 -18 -24 -14 -30 4
-8 -2 -8 -20 -1 -30 12 -47 6 -39 -14 3 -8 14 -12 24 -9 19 5 19 4 4 -26 -9
-17 -20 -28 -26 -25 -6 4 -8 1 -6 -7 9 -26 -10 -47 -37 -42 -30 6 -31 11 -7
29 15 12 15 13 1 14 -27 0 -31 28 -6 36 12 5 26 7 30 6 5 -1 6 2 2 8 -9 14
-52 13 -58 -2 -2 -7 -8 -9 -13 -5 -5 4 -2 12 5 16 23 15 3 33 -22 20 -18 -9
-20 -9 -9 2 6 7 12 21 12 31 0 10 6 18 13 19 8 0 8 2 1 5 -7 3 -9 15 -6 27 3
12 1 19 -3 14 -5 -4 -17 0 -27 10 -10 9 -18 12 -18 7 0 -5 -10 -15 -21 -23
-19 -11 -21 -11 -16 3 5 12 2 13 -16 7 -14 -6 -26 -4 -34 4 -14 16 -6 28 35
49 24 12 32 13 32 4 0 -8 3 -9 8 -3 21 30 97 44 132 25z m-4010 -154 c7 -16 9
-17 9 -4 1 21 50 21 58 1 3 -7 13 -13 23 -13 10 0 26 -7 34 -16 9 -8 16 -11
16 -5 0 6 5 11 11 11 6 0 8 -8 5 -17 -5 -14 9 -25 65 -52 79 -37 84 -36 117
28 17 33 66 70 77 59 7 -7 -66 -118 -90 -138 -13 -11 -35 -6 -128 28 -61 23
-132 46 -157 52 -81 20 -80 19 -80 54 0 51 22 58 40 12z m3715 -16 c3 -6 -6
-15 -22 -20 -51 -18 -77 -38 -78 -59 -1 -17 4 -21 27 -21 64 0 13 -35 -67 -45
-27 -4 -65 -13 -82 -20 -18 -8 -33 -10 -33 -4 0 5 -3 8 -7 7 -5 -1 -21 4 -36
10 -15 7 -31 11 -35 10 -10 -4 -72 23 -72 31 0 10 -93 10 -127 0 -17 -6 -34
-16 -37 -24 -5 -14 -36 -22 -36 -9 0 11 75 76 98 85 30 12 109 12 116 0 11
-17 87 -24 112 -11 18 10 27 10 38 1 10 -8 16 -9 21 -1 3 5 1 10 -4 10 -6 0
-11 5 -11 11 0 6 7 8 16 5 10 -4 14 -1 11 6 -2 7 -12 12 -21 12 -22 -2 -15 20
9 24 10 3 15 0 11 -7 -5 -8 16 -11 68 -11 41 0 78 5 81 10 4 6 10 8 15 5 5 -3
11 -1 15 5 8 13 22 13 30 0z m-4100 -33 c0 -19 6 -22 45 -24 25 -1 88 -10 140
-21 52 -11 96 -19 98 -18 9 9 -13 36 -29 36 -10 0 -19 7 -19 15 0 14 3 13 25
-1 15 -10 25 -12 25 -5 0 6 5 11 11 11 5 0 7 -4 4 -10 -3 -5 3 -10 14 -10 12
0 21 -6 21 -12 0 -9 4 -8 10 2 8 12 10 10 10 -8 0 -13 4 -21 9 -18 5 4 16 3
25 0 15 -6 15 -7 0 -19 -16 -11 -15 -13 7 -17 22 -4 25 -1 21 23 -2 14 1 30 7
33 7 5 9 1 5 -8 -4 -11 0 -16 10 -16 10 0 16 -9 16 -23 0 -20 15 -30 94 -65
52 -23 146 -71 208 -105 l112 -63 39 -120 c41 -124 107 -431 107 -496 0 -39
-15 -49 -38 -26 -9 9 -12 6 -12 -16 0 -15 -4 -25 -9 -21 -14 8 -20 -22 -20
-97 0 -37 -4 -76 -10 -85 -8 -14 -10 -2 -11 47 -2 85 -4 108 -18 150 -11 34
-25 115 -37 209 -3 24 -9 49 -14 55 -15 20 -31 100 -21 110 5 5 5 16 -1 28 -6
11 -6 18 0 18 5 0 12 -6 14 -12 4 -8 6 -7 6 3 1 9 -6 22 -14 29 -8 6 -14 15
-13 18 2 10 -13 44 -26 61 -12 15 -18 38 -17 66 0 16 -26 32 -137 82 -263 118
-527 193 -682 193 -108 0 -319 -44 -420 -88 -57 -25 -135 -94 -172 -151 -15
-25 -28 -39 -28 -33 0 17 33 82 88 172 52 85 71 110 85 110 5 0 4 -7 -3 -15
-16 -19 -1 -19 24 0 11 8 14 15 7 15 -7 0 -9 5 -6 11 4 6 14 8 22 5 9 -4 22 1
29 11 9 13 16 15 21 7 6 -8 33 -5 98 12 50 13 100 23 113 23 14 1 26 10 32 24
7 19 9 19 9 3 1 -16 6 -18 39 -12 20 3 44 6 54 6 11 0 15 6 11 20 -4 16 -2 19
11 14 9 -4 16 -3 15 2 -3 17 1 27 8 20 4 -4 8 -17 8 -29z m2438 -22 c61 -29
151 -194 117 -215 -7 -5 -11 -18 -8 -34 5 -27 -6 -33 -32 -16 -8 5 -11 12 -7
16 3 4 -1 14 -11 23 -9 9 -18 29 -20 46 -2 16 -7 32 -10 35 -4 3 -14 19 -23
35 -10 20 -22 30 -37 29 -12 0 -22 3 -22 7 0 4 -30 6 -67 3 -47 -3 -76 -10
-95 -24 -59 -44 -84 -10 -32 43 59 61 177 85 247 52z m782 -79 c-19 -31 -39
-56 -43 -56 -4 0 -6 -18 -4 -40 5 -46 12 -48 66 -19 39 21 64 17 33 -5 -9 -7
-17 -17 -17 -21 0 -4 7 -2 15 5 22 19 20 -15 -4 -48 -10 -15 -17 -37 -15 -49
2 -13 -1 -23 -6 -23 -6 0 -8 -11 -4 -27 5 -20 4 -25 -7 -21 -11 4 -14 -6 -12
-47 1 -40 -2 -55 -14 -59 -10 -4 -13 -2 -10 8 4 10 0 14 -14 11 -15 -3 -20 3
-25 35 -5 27 -10 37 -20 33 -18 -7 -19 38 -1 87 6 20 11 63 9 97 -3 57 -5 60
-25 55 -12 -3 -26 -8 -32 -12 -5 -4 -32 -10 -60 -14 -78 -10 -109 -17 -115
-25 -9 -14 -69 -45 -75 -39 -7 6 53 130 67 139 5 3 42 12 81 19 96 18 130 30
202 74 54 33 60 34 63 17 2 -10 -13 -44 -33 -75z m-2275 -19 c0 -24 -3 -46 -6
-49 -3 -4 -7 -34 -9 -67 -4 -56 0 -70 45 -171 28 -60 50 -114 50 -119 0 -13
27 -21 74 -21 61 0 86 -21 86 -74 0 -34 -6 -48 -31 -72 -17 -16 -41 -29 -55
-29 -23 -1 -23 0 12 36 29 30 35 43 32 70 -3 32 -5 34 -51 41 -46 6 -86 36
-87 64 0 6 -7 18 -16 25 -10 8 -37 57 -61 109 l-45 95 13 73 c6 39 16 72 20
72 5 0 6 14 3 30 -5 23 -3 30 10 30 12 0 16 -10 16 -43z m2501 -34 c48 -9 112
-78 128 -136 8 -26 11 -51 7 -55 -7 -6 -47 39 -47 52 0 3 -12 18 -27 34 -23
25 -33 28 -72 25 -99 -8 -122 -3 -138 32 -12 27 -8 32 36 45 35 11 71 12 113
3z m-3398 -82 c9 -7 26 -9 40 -6 15 4 37 0 56 -9 17 -9 33 -15 35 -14 2 2 12
-5 22 -14 11 -9 22 -17 27 -16 25 0 92 -16 117 -29 16 -8 34 -12 40 -8 5 3 10
2 10 -3 0 -5 11 -15 25 -22 14 -8 24 -21 23 -29 -2 -8 7 -26 18 -38 22 -23 40
-68 24 -58 -5 3 -14 -7 -20 -22 -10 -23 -19 -28 -44 -27 -17 1 -36 -3 -42 -8
-8 -5 -17 -3 -27 6 -10 10 -17 12 -25 4 -6 -6 -19 -7 -29 -3 -20 8 -79 18 -72
11 2 -2 55 -27 117 -55 253 -112 507 -328 536 -455 6 -24 -6 -15 -81 61 -93
95 -217 187 -311 233 -63 30 -122 45 -122 30 0 -5 -49 9 -110 30 -329 118
-643 112 -825 -14 -16 -12 -39 -21 -50 -21 -26 0 -61 -66 -70 -134 -5 -38 -4
-51 6 -51 6 0 51 39 98 86 138 138 209 167 401 168 91 1 136 -4 212 -24 54
-13 94 -28 91 -34 -4 -5 1 -7 11 -3 10 4 15 3 11 -3 -3 -6 0 -10 7 -10 11 0
11 -2 0 -9 -7 -4 -25 -6 -40 -5 l-27 4 25 -8 c16 -5 24 -15 22 -25 -2 -9 3
-17 9 -17 7 0 10 -3 6 -6 -3 -4 1 -13 9 -22 21 -21 6 -31 -51 -37 -27 -3 -50
-7 -52 -9 -8 -8 28 -67 37 -61 6 4 10 -4 10 -16 0 -19 2 -20 17 -8 15 12 16
12 10 -3 -4 -11 -2 -18 5 -18 6 0 3 -9 -7 -20 -21 -23 -44 -28 -25 -5 7 9 10
18 8 21 -3 3 -15 -7 -26 -21 -14 -17 -22 -21 -25 -13 -4 8 -8 5 -12 -9 -4 -13
-11 -20 -16 -18 -4 3 -12 -2 -17 -11 -5 -9 -12 -16 -15 -15 -25 1 -68 -24 -73
-44 -4 -15 -11 -22 -20 -18 -16 6 -19 -12 -4 -22 6 -3 5 -15 -2 -30 -9 -21
-14 -23 -26 -12 -13 10 -14 9 -4 -10 16 -29 15 -34 -5 -26 -11 4 -14 3 -9 -5
4 -7 1 -12 -9 -12 -12 0 -15 -6 -10 -22 6 -22 6 -22 -15 2 l-20 25 9 -27 c8
-21 7 -26 -3 -22 -7 3 -18 15 -24 27 -10 20 -11 19 -5 -7 5 -22 3 -27 -7 -21
-10 6 -12 3 -7 -11 7 -18 7 -18 -8 0 -11 15 -15 16 -16 5 0 -8 -4 -6 -9 6 -5
11 -9 16 -10 10 -1 -5 -3 -18 -5 -28 -2 -9 12 -52 30 -95 50 -115 97 -294 116
-447 24 -187 22 -227 -10 -245 -16 -8 -18 -7 -14 9 4 15 0 19 -13 17 -25 -4
-44 42 -79 184 -15 63 -36 142 -47 175 -32 99 -132 296 -195 380 -141 190
-331 308 -492 306 -103 -1 -161 -37 -225 -141 l-27 -45 6 35 c11 62 84 202
125 241 44 42 132 79 188 79 33 0 104 -15 170 -35 21 -7 22 -5 22 51 1 78 25
263 37 275 5 5 20 4 37 -3 27 -12 27 -15 22 -67 l-6 -53 32 43 c18 23 61 61
95 83 34 23 62 45 62 50 1 5 -5 4 -11 -2 -7 -5 -28 -12 -45 -14 -33 -4 -33 -4
-33 36 0 124 126 228 293 242 45 3 84 8 86 10 11 10 201 -3 214 -15z m1433
-88 c44 -96 59 -178 43 -235 -7 -29 -13 -37 -19 -28 -11 17 -13 9 -40 -184
-22 -148 -39 -228 -59 -276 -11 -24 -11 -24 -6 5 45 292 50 336 49 525 0 107
-4 212 -8 233 -4 20 -4 37 -1 37 3 0 22 -35 41 -77z m2177 -102 c18 -10 30
-10 45 -2 13 7 23 7 27 2 7 -13 93 13 108 33 15 19 71 10 63 -10 -3 -7 0 -15
7 -17 7 -2 -3 -13 -20 -23 -18 -11 -33 -27 -33 -36 0 -9 -5 -20 -11 -23 -6 -4
-8 -13 -5 -21 3 -9 -1 -14 -14 -14 -10 0 -23 -7 -28 -16 -8 -14 -11 -14 -27 3
-13 13 -20 14 -23 5 -2 -6 -10 -12 -18 -12 -8 0 -14 -5 -14 -10 0 -6 -10 -1
-22 10 -14 13 -31 19 -43 16 -27 -7 -52 29 -35 49 8 10 8 19 0 34 -6 12 -13
21 -16 21 -3 0 -2 -4 1 -10 3 -5 2 -10 -3 -10 -16 0 -24 33 -10 42 10 6 10 8
1 8 -22 0 -14 18 10 22 13 2 25 -3 28 -12 4 -9 18 -21 32 -29z m-1752 -496
c109 -38 220 -165 314 -359 64 -133 82 -201 97 -364 19 -200 -18 -398 -105
-562 -65 -123 -89 -145 -106 -98 -4 12 -10 17 -14 11 -3 -5 1 -22 9 -38 8 -15
13 -29 12 -30 -2 0 -14 -7 -28 -13 -14 -7 -17 -10 -7 -8 24 7 21 -7 -5 -30
-15 -12 -18 -13 -10 -3 11 14 8 17 -20 23 -26 5 -37 1 -62 -22 -44 -41 -140
-96 -221 -127 -142 -53 -375 -37 -375 27 0 4 7 8 16 8 11 0 14 5 10 16 -4 12
-1 14 14 10 11 -3 29 -9 40 -12 11 -3 20 -10 20 -15 0 -5 5 -9 11 -9 5 0 7 5
4 10 -4 6 17 10 55 10 205 0 408 134 512 336 51 99 89 212 108 321 15 81 9
294 -10 383 -49 229 -154 415 -274 485 -55 32 -144 49 -191 36 -20 -5 -35 -6
-35 0 0 28 171 38 241 14z m-2902 -140 c43 -4 87 -55 47 -55 -7 0 -16 -9 -19
-21 -4 -16 -3 -18 9 -8 8 6 14 7 14 2 0 -5 -9 -16 -20 -26 -11 -9 -20 -14 -20
-11 0 4 -6 1 -13 -5 -8 -6 -17 -8 -20 -4 -4 3 -7 0 -7 -8 0 -12 -2 -11 -11 1
-8 12 -10 12 -8 -5 3 -40 -1 -55 -16 -55 -8 0 -15 7 -15 16 0 9 -7 14 -16 12
-8 -2 -15 -7 -15 -13 0 -5 -9 -13 -20 -17 -16 -6 -19 -13 -13 -30 3 -13 3 -20
-2 -15 -4 4 -13 -5 -20 -20 -13 -28 -13 -28 -9 9 2 21 6 42 10 48 3 5 2 10 -2
10 -9 0 -17 -23 -67 -185 -13 -44 -34 -111 -46 -150 -12 -38 -30 -84 -41 -101
-10 -17 -19 -36 -19 -41 0 -5 21 -15 48 -23 26 -8 52 -16 58 -17 6 -2 16 15
22 39 15 57 277 428 303 428 4 0 34 -20 67 -45 41 -31 66 -43 78 -39 14 4 15
3 6 -3 -10 -8 -10 -12 3 -23 12 -10 15 -10 15 5 0 11 5 15 15 11 9 -3 19 3 25
14 6 11 8 20 5 20 -3 0 3 8 13 18 16 17 18 18 33 2 11 -11 17 -33 16 -62 0
-39 -3 -45 -19 -40 -12 3 -18 -1 -18 -11 0 -8 -6 -17 -12 -20 -10 -3 -10 -7
-1 -19 11 -12 4 -40 -36 -154 -109 -306 -122 -339 -153 -371 -18 -18 -29 -35
-26 -39 6 -6 41 27 64 62 8 11 23 47 35 80 11 32 37 102 56 154 19 52 45 124
57 160 17 48 25 60 29 45 3 -11 5 -4 4 15 -2 31 1 35 21 34 16 -1 22 3 18 12
-4 9 2 14 15 14 15 0 19 -5 15 -15 -3 -9 3 -20 14 -27 11 -7 20 -24 21 -38 l1
-25 8 25 7 25 5 -30 c5 -29 5 -29 13 -7 6 17 10 20 16 11 4 -7 4 -20 -1 -30
-5 -9 -7 -36 -4 -59 l5 -44 -19 25 -20 24 5 -28 c3 -16 1 -27 -6 -27 -6 0 -11
8 -12 18 0 9 -9 -2 -19 -25 -20 -45 -29 -50 -47 -32 -8 8 -13 2 -18 -21 -6
-25 -3 -35 9 -42 9 -5 16 -19 16 -31 1 -20 2 -21 14 -4 18 23 30 22 23 -3 -3
-11 -1 -20 4 -20 5 0 9 -10 9 -22 0 -13 3 -33 6 -45 6 -21 7 -21 41 10 53 49
63 52 63 23 0 -14 5 -28 10 -31 6 -3 7 -18 4 -32 -4 -15 -3 -24 2 -20 12 7 12
-38 1 -49 -4 -5 -5 -1 -1 9 3 9 1 17 -4 17 -6 0 -14 9 -17 20 -8 26 -21 25
-48 -3 -28 -28 -99 -91 -158 -140 -29 -24 -57 -60 -75 -97 -16 -33 -32 -60
-35 -60 -4 0 -38 39 -77 88 -87 108 -122 143 -122 119 0 -9 4 -17 10 -17 18 0
119 -131 113 -149 -4 -14 -3 -14 6 -1 9 13 11 13 10 0 -1 -22 -17 -67 -18 -52
-1 10 -5 9 -17 -3 -10 -9 -14 -26 -11 -40 5 -28 5 -27 -17 -19 -9 3 -16 13
-16 21 0 8 5 11 10 8 6 -3 10 1 10 9 0 19 -17 30 -25 16 -3 -6 -7 -24 -7 -40
-1 -29 -2 -30 -20 -14 -10 10 -21 15 -24 11 -3 -3 4 -11 16 -17 12 -6 19 -17
17 -25 -3 -7 0 -18 6 -24 8 -8 8 -11 0 -11 -7 0 -15 10 -18 21 -5 16 -9 18
-15 9 -4 -7 -15 -10 -24 -7 -12 5 -16 0 -16 -18 0 -14 -4 -25 -9 -25 -5 0 -7
8 -4 19 3 10 1 21 -4 24 -5 3 -9 -4 -9 -16 1 -16 -4 -21 -19 -19 -19 2 -19 2
-2 -11 26 -22 20 -31 -8 -13 -14 9 -25 14 -25 11 0 -3 -11 5 -25 17 -30 26
-25 36 7 14 26 -18 38 -20 38 -6 0 6 -7 10 -15 10 -16 0 -40 48 -30 58 3 4 8
-3 11 -15 7 -26 34 -39 34 -17 0 8 -4 13 -9 10 -5 -3 -12 6 -16 21 -4 17 -2
29 7 34 8 5 9 9 2 9 -6 0 -14 12 -17 28 -3 15 -9 36 -12 47 -7 20 -6 20 9 1
14 -18 16 -18 16 -3 0 10 -7 20 -15 23 -8 4 -12 10 -9 16 3 5 12 4 20 -3 8 -6
17 -9 21 -5 3 3 2 6 -4 6 -6 0 -14 7 -17 16 -4 11 -2 15 8 11 9 -4 13 -1 10 6
-2 7 4 22 14 33 10 10 17 25 14 32 -2 6 1 12 7 12 6 0 11 13 11 29 0 16 4 31
8 33 10 3 54 129 48 135 -2 2 -20 -36 -41 -84 -21 -49 -46 -106 -56 -128 -9
-22 -51 -73 -92 -113 -64 -64 -75 -71 -87 -58 -10 13 -10 16 3 16 8 0 32 21
53 46 22 26 50 58 62 73 31 34 75 128 67 141 -3 5 -1 10 6 10 6 0 9 8 6 20 -3
13 0 20 9 20 12 0 12 4 3 22 -9 17 -9 20 3 15 10 -3 19 6 27 30 11 30 11 37
-4 53 -11 12 -13 20 -6 25 6 3 11 2 11 -3 0 -5 7 -9 17 -9 12 0 11 5 -8 20
l-24 20 28 -5 c15 -3 27 -1 27 5 0 15 -31 47 -45 47 -16 0 -185 -223 -217
-285 -25 -49 -67 -195 -61 -212 5 -13 3 -13 -15 -4 -19 10 -22 9 -22 -9 0 -12
-9 -39 -19 -61 -11 -22 -17 -48 -14 -57 4 -15 3 -15 -6 -2 -8 11 -11 12 -11 2
0 -7 -4 -10 -10 -7 -5 3 -10 2 -10 -4 0 -5 5 -11 11 -13 14 -5 -6 -48 -27 -61
-8 -4 -14 -15 -14 -23 0 -17 -48 -114 -56 -114 -3 0 -2 5 1 10 3 6 2 10 -2 10
-5 0 -17 -14 -27 -31 -17 -29 -17 -31 1 -51 38 -43 128 -101 229 -149 66 -30
103 -53 99 -60 -5 -6 -20 -8 -41 -5 -19 4 -41 2 -52 -5 -28 -18 -126 21 -225
88 -123 84 -120 83 -205 62 -40 -10 -109 -34 -151 -54 -43 -19 -89 -35 -101
-35 -52 0 -99 -23 -123 -59 -38 -57 -76 -136 -73 -152 1 -8 12 -45 23 -84 11
-38 26 -95 33 -125 7 -30 25 -84 39 -120 24 -59 32 -69 93 -110 74 -48 83 -63
19 -31 -22 12 -49 21 -60 21 -11 0 -21 8 -24 18 -3 14 -6 13 -14 -8 -10 -24
-10 -24 -21 -4 -53 99 -120 350 -108 400 5 17 3 23 -4 19 -17 -10 34 120 71
181 19 31 41 59 49 61 8 3 64 26 123 51 86 36 111 51 123 74 15 29 58 53 75
42 5 -3 6 -11 3 -17 -5 -8 -4 -9 3 -2 15 15 58 165 89 305 3 14 14 56 25 95
22 80 23 89 9 80 -5 -3 -10 1 -10 10 0 9 4 13 10 10 5 -3 20 4 32 16 l23 22
-31 -6 c-28 -5 -31 -4 -27 13 3 11 9 18 13 15 12 -7 23 12 37 65 15 54 16 83
4 76 -5 -4 -7 4 -3 16 3 12 7 17 10 10 5 -16 22 -5 22 14 0 8 -4 12 -10 9 -5
-3 -10 -1 -10 4 0 6 7 11 15 11 8 0 15 5 15 11 0 5 -4 8 -9 5 -5 -4 -6 8 -1
27 17 73 31 116 39 122 5 3 19 35 32 72 12 37 30 81 40 98 10 17 20 41 22 54
2 12 9 26 17 31 7 4 9 13 6 19 -4 6 -3 11 3 11 6 0 7 7 4 17 -4 10 -2 14 4 10
13 -8 26 20 16 35 -3 6 -1 8 4 5 6 -4 17 0 24 9 7 8 29 24 48 34 25 13 30 19
17 20 -10 0 -34 -10 -53 -22 l-35 -21 11 21 c16 30 82 92 98 92 7 0 13 5 13
11 0 6 9 24 21 40 11 16 17 29 12 29 -4 0 -3 4 2 8 6 4 19 24 29 44 10 21 23
35 27 32 5 -3 9 0 9 6 0 6 4 9 8 6 4 -2 14 -1 22 5 8 5 22 6 30 3 8 -4 30 -8
49 -9z m-3724 -439 c11 -3 20 -5 20 -6 0 -1 16 -3 35 -5 19 -2 46 -9 60 -15
22 -9 23 -10 3 -6 -13 2 -26 0 -29 -5 -3 -6 -11 -5 -20 2 -7 6 -21 9 -29 5 -8
-3 -15 -2 -15 3 0 4 -18 3 -40 -2 -22 -6 -40 -16 -40 -23 0 -18 -30 -40 -38
-27 -18 27 -39 18 -79 -35 -24 -30 -43 -51 -43 -48 0 4 -5 4 -11 0 -8 -5 -8
-9 1 -14 9 -6 7 -11 -9 -19 -11 -7 -21 -18 -21 -26 0 -8 -5 -15 -11 -15 -5 0
-8 -4 -5 -8 3 -5 -1 -9 -8 -9 -14 0 -11 21 12 77 11 27 74 90 90 90 5 0 12 10
15 22 4 12 9 19 13 15 4 -4 14 -1 22 6 13 9 14 9 8 0 -5 -9 -2 -11 9 -7 14 6
14 8 -2 21 -10 8 -12 12 -5 8 6 -3 12 -1 12 4 0 6 -5 11 -11 11 -5 0 -8 4 -4
9 5 9 71 7 120 -3z m921 -353 c-2 -37 -76 -126 -128 -156 -21 -11 -38 -27 -38
-34 0 -8 -11 -13 -27 -12 -25 0 -26 1 -8 10 14 6 10 7 -15 2 -19 -3 -43 -7
-52 -7 -9 0 -15 -3 -13 -6 2 -3 -7 -5 -20 -5 -13 0 -23 2 -23 5 1 17 -5 19
-24 10 -21 -10 -22 -10 -5 4 11 8 25 12 32 10 7 -3 15 2 18 10 4 9 13 16 21
16 7 0 27 7 42 15 16 8 37 15 47 15 9 0 17 4 17 9 0 5 15 16 33 24 18 9 41 25
52 37 10 11 22 20 26 20 4 0 19 11 33 25 30 30 34 31 32 8z m5207 -793 c79
-67 192 -152 289 -217 118 -81 285 -114 523 -107 149 5 181 8 205 17 8 3 60
17 115 31 122 31 270 80 303 102 23 15 24 19 17 83 -4 36 -8 80 -9 96 -1 17
-6 45 -10 64 l-8 34 27 -21 c15 -12 34 -22 42 -22 10 0 7 -9 -12 -31 l-26 -32
35 -29 c20 -16 40 -37 45 -46 7 -13 16 -3 42 50 27 55 37 67 63 72 22 5 35 1
47 -11 16 -17 14 -26 -53 -168 -38 -82 -76 -157 -85 -167 -8 -9 -63 -49 -123
-88 -73 -48 -116 -71 -132 -68 -39 5 -26 23 57 83 110 78 132 101 166 167 16
32 29 60 29 64 0 17 -32 -23 -52 -65 -27 -55 -34 -62 -73 -83 -28 -16 -251
-68 -288 -68 -9 0 -17 -6 -17 -14 0 -11 19 -14 96 -12 l97 2 -37 -29 c-30 -24
-36 -35 -36 -66 0 -33 -4 -39 -37 -56 -21 -10 -48 -17 -60 -16 -11 1 -24 -3
-28 -9 -3 -5 -10 -8 -14 -5 -5 2 -45 -2 -91 -10 -93 -16 -128 -14 -289 21
-197 42 -321 80 -437 135 -45 20 -85 43 -90 50 -5 8 4 22 22 38 42 37 66 78
59 101 -8 24 -25 25 -116 4 -82 -18 -121 -48 -137 -101 -6 -21 -42 -90 -80
-153 -38 -63 -97 -176 -132 -250 -35 -74 -68 -141 -73 -148 -7 -8 -6 -20 1
-35 13 -28 23 -267 10 -267 -5 0 -6 -5 -2 -11 8 -14 11 -89 3 -89 -3 0 -11 12
-18 26 -6 15 -14 24 -17 21 -3 -3 7 -24 21 -47 20 -31 26 -51 22 -74 -3 -17
-8 -49 -12 -71 -6 -36 -3 -45 20 -73 15 -18 42 -39 61 -47 38 -15 76 -75 49
-75 -9 0 -13 -5 -10 -10 4 -6 12 -7 18 -4 8 5 8 3 0 -7 -18 -18 -16 -29 5 -29
16 -1 16 -1 -1 -11 -9 -6 -15 -13 -13 -17 2 -4 -7 -8 -21 -7 -23 0 -30 -9 -54
-68 -15 -37 -37 -80 -48 -96 -24 -33 -27 -57 -8 -64 6 -3 2 -6 -10 -6 -21 -1
-44 -21 -24 -21 19 0 12 -17 -8 -23 -14 -3 -20 -14 -20 -33 0 -36 -4 -55 -15
-72 -7 -11 -4 -12 13 -3 11 7 29 28 40 49 10 20 33 65 50 100 32 64 43 71 76
48 20 -13 111 -38 190 -52 75 -13 75 -12 53 -106 -24 -106 -26 -111 -38 -103
-7 4 -6 13 3 25 17 25 10 97 -11 105 -10 3 -35 9 -57 12 -22 2 -58 9 -80 15
-75 19 -101 20 -111 6 -23 -30 -74 -158 -94 -235 l-22 -81 27 -49 c15 -26 30
-52 34 -58 3 -5 9 10 13 35 19 124 31 160 76 233 20 33 25 37 39 25 9 -7 18
-12 20 -10 9 6 33 1 33 -9 0 -5 -4 -8 -9 -5 -5 3 -6 -8 -2 -27 5 -20 1 -59
-11 -107 -10 -41 -19 -110 -20 -153 -1 -83 -17 -121 -44 -110 -9 3 -19 1 -23
-5 -8 -14 -32 0 -35 20 -1 9 -7 22 -13 29 -6 8 -32 58 -58 112 -26 53 -48 97
-49 97 -2 0 -2 -17 0 -37 2 -21 3 -38 4 -38 1 0 3 -17 5 -37 2 -21 11 -53 20
-72 12 -25 15 -49 10 -92 -3 -32 -8 -61 -11 -65 -2 -4 0 -11 6 -14 6 -4 10
-31 9 -61 -2 -47 2 -59 24 -82 20 -21 25 -34 21 -56 -6 -36 7 -46 64 -46 59 0
119 -21 131 -45 10 -20 10 -20 10 1 1 19 6 21 59 19 31 -1 63 3 71 9 11 8 15
8 18 -2 3 -6 9 -10 14 -7 4 3 14 -3 20 -13 19 -31 56 -14 50 22 -1 4 10 5 24
2 16 -4 25 -2 25 5 0 6 9 9 20 6 13 -3 21 1 25 14 4 11 10 17 15 14 5 -3 16 3
26 12 11 12 31 17 58 16 65 -3 204 28 264 59 20 10 44 18 54 18 10 0 18 4 18
8 0 4 13 12 28 18 21 8 31 20 35 43 5 22 15 34 34 41 16 6 37 15 48 20 23 10
69 24 73 21 3 -2 81 40 114 63 55 36 80 -10 31 -55 -16 -14 -46 -38 -68 -54
-22 -16 -43 -34 -48 -41 -9 -15 -123 -95 -157 -111 -14 -6 -68 -32 -120 -56
-120 -57 -350 -125 -466 -138 -49 -5 -116 -14 -149 -19 -33 -5 -103 -12 -155
-15 -52 -3 -119 -10 -147 -16 l-53 -10 18 -24 c16 -23 49 -45 37 -25 -7 11 -3
12 18 4 17 -6 11 -44 -7 -44 -7 0 -12 -12 -11 -27 0 -18 -7 -31 -21 -38 -12
-6 -29 -17 -37 -24 -9 -7 -20 -10 -26 -7 -5 3 -12 0 -14 -6 -4 -8 -8 -4 -12 9
-6 20 -12 22 -46 17 -35 -6 -39 -4 -36 12 1 11 7 25 11 33 7 11 4 13 -11 9
-12 -3 -27 -2 -34 3 -11 7 -11 9 -1 9 7 0 11 4 8 9 -3 5 4 11 17 15 36 10 54
6 27 -6 -25 -11 -25 -12 -3 -15 15 -3 20 -10 17 -21 -2 -9 1 -7 7 6 7 12 29
27 51 34 21 6 44 18 51 26 10 13 8 14 -11 8 -12 -4 -22 -3 -22 2 0 6 5 12 12
14 8 3 4 16 -12 39 -18 25 -27 53 -31 104 -4 38 -12 108 -19 154 -7 46 -10
103 -7 127 3 31 1 44 -9 48 -8 3 -14 12 -14 20 0 7 -6 16 -14 19 -8 3 -19 22
-26 42 l-12 36 -62 -5 c-33 -4 -189 -13 -346 -21 -157 -9 -323 -20 -370 -25
-47 -5 -155 -14 -240 -20 -85 -5 -180 -12 -210 -15 -30 -3 -154 -10 -275 -15
-258 -11 -593 -28 -685 -35 -230 -16 -356 -30 -363 -39 -20 -27 10 70 54 174
88 208 149 372 142 383 -3 5 -2 7 4 4 5 -3 30 37 56 89 l47 95 48 -4 c26 -3
42 -3 35 0 -16 6 -5 33 13 33 18 0 18 24 -1 60 -9 17 -20 41 -25 55 -9 23 -8
24 10 13 11 -7 20 -16 20 -20 0 -5 4 -8 10 -8 5 0 7 13 3 32 -5 25 -3 29 8 22
8 -5 17 -9 21 -9 13 0 21 -15 8 -15 -9 0 -6 -7 7 -20 14 -12 19 -27 16 -40 -8
-30 9 -24 35 13 46 65 92 137 92 142 0 4 12 22 26 41 l26 34 30 -25 c17 -14
36 -24 42 -22 12 4 16 86 5 132 -7 28 -7 28 -9 5 -1 -14 -1 -42 0 -63 1 -33
-1 -38 -17 -35 -25 5 -27 28 -4 81 19 44 21 46 54 40 42 -6 87 19 87 50 0 11
-9 30 -19 41 -20 21 -20 21 12 21 27 0 32 4 35 26 2 14 -4 31 -12 38 -13 11
-11 17 10 48 27 40 29 54 13 70 -16 16 -2 33 26 33 24 0 46 25 39 45 -2 6 16
32 41 59 l45 48 0 -105 c0 -83 3 -109 16 -121 19 -20 23 -20 47 2 20 17 20 16
12 -28 -5 -25 -9 -72 -10 -105 0 -33 -11 -93 -24 -133 -19 -59 -22 -78 -13
-97 17 -37 45 -31 71 15 14 26 27 37 37 33 8 -3 22 1 31 8 13 11 17 11 20 2 3
-7 15 -13 28 -13 14 0 29 -9 35 -20 12 -23 48 -27 56 -6 3 8 14 16 25 19 10 3
19 12 19 21 0 9 6 16 14 16 14 0 86 130 86 156 0 7 6 11 14 8 8 -3 23 8 36 26
12 17 25 29 28 25 3 -3 6 -33 6 -68 1 -56 3 -62 23 -65 16 -2 26 4 35 22 6 14
14 26 19 26 15 0 39 84 49 172 13 113 11 194 -7 272 -19 85 -11 79 16 -11 19
-62 25 -112 30 -243 l6 -165 27 -3 c25 -3 28 0 34 37 5 30 11 41 27 43 15 2
24 14 30 41 6 26 14 37 23 33 27 -10 44 6 45 43 1 24 3 28 6 13 6 -32 27 -37
69 -17 32 15 35 19 29 48 -6 29 -6 30 7 13 8 -10 23 -17 34 -14 15 2 19 12 21
43 0 22 -4 43 -10 47 -7 4 -1 11 16 17 15 6 27 15 27 20 0 24 -22 111 -29 111
-3 0 -6 17 -5 38 2 38 -39 142 -57 142 -5 0 -9 7 -9 15 0 23 -41 75 -53 68 -6
-3 -7 -2 -4 4 9 14 -21 53 -40 53 -9 0 -13 6 -9 15 3 9 0 15 -8 15 -9 0 -12 7
-9 20 3 11 2 28 -2 37 -5 10 -7 22 -6 27 1 6 -7 36 -19 67 -23 64 -24 157 -2
174 7 6 14 31 15 56 2 40 4 44 27 44 19 0 26 6 28 23 5 30 33 58 54 54 11 -2
25 8 35 25 11 18 25 27 36 25 9 -2 20 4 23 12 3 9 10 16 15 16 6 0 19 9 31 20
14 13 29 18 44 14 27 -7 84 29 84 52 0 9 11 14 29 14 34 0 46 13 35 38 -4 9
-8 31 -10 48 l-3 32 29 -15 c16 -8 47 -13 67 -11 35 3 38 6 43 38 6 41 20 43
70 12 36 -23 70 -29 70 -13 0 5 14 12 31 16 17 4 33 15 36 24 3 13 36 -14 131
-109 70 -69 167 -159 215 -200z m-2980 -364 c-51 -46 -66 -82 -31 -73 10 3 18
2 18 -2 0 -3 10 -11 22 -16 25 -12 64 -75 46 -75 -9 0 -9 -3 0 -12 17 -17 15
-26 -5 -31 -15 -3 -13 -6 9 -17 31 -15 27 -35 -6 -26 -22 5 -23 5 31 -32 10
-7 -41 17 -113 54 -131 67 -132 68 -110 86 l21 18 -25 -9 c-18 -6 -34 -4 -60
10 -56 29 -86 57 -75 67 12 11 286 98 319 101 4 1 -14 -19 -41 -43z m3060 -12
c79 -66 310 -155 380 -145 9 1 17 -3 17 -8 0 -6 5 -11 11 -11 5 0 7 5 3 11 -5
9 1 10 22 4 16 -4 38 -9 50 -10 60 -8 353 -73 367 -82 5 -3 55 -7 112 -10 75
-3 114 0 146 11 55 19 59 20 59 1 0 -24 -40 -38 -99 -35 -31 1 -75 2 -98 2
-27 -1 -43 3 -43 11 0 7 -4 6 -10 -3 -5 -8 -10 -10 -10 -5 0 6 -33 11 -73 12
-41 1 -154 19 -253 39 -205 42 -295 55 -308 43 -6 -6 -3 -9 7 -9 9 0 17 -4 17
-9 0 -25 -225 58 -287 105 -35 26 -69 87 -58 103 9 15 13 14 48 -15z m-3553
-457 c0 -7 -28 -46 -61 -85 l-62 -73 -91 8 c-50 5 -125 7 -167 7 -67 -1 -76 1
-72 15 8 32 62 46 173 45 58 0 118 -4 134 -8 26 -6 34 -1 79 48 51 57 67 67
67 43z m3540 -429 c0 -2 -47 -3 -105 -3 -58 0 -105 4 -105 9 0 5 -7 14 -16 21
-14 10 -11 21 31 104 l47 94 74 -112 c41 -61 74 -112 74 -113z m301 157 c1
-32 3 -41 9 -62 1 -5 2 -24 3 -43 2 -27 7 -35 27 -40 24 -6 24 -7 5 -17 -14
-7 -39 -8 -78 -2 -32 5 -62 7 -67 4 -4 -3 -15 -2 -23 1 -12 4 -2 26 46 100 33
52 64 94 69 94 4 0 9 -16 9 -35z m-473 -395 c63 -20 251 -43 288 -35 10 2 62
6 114 8 66 3 83 2 55 -4 -22 -4 -94 -11 -160 -15 -89 -5 -123 -11 -131 -22
-25 -34 -225 9 -267 56 -8 10 -18 34 -21 56 l-7 38 33 -31 c19 -19 59 -39 96
-51z m425 -288 c7 -7 16 -10 19 -7 3 3 16 -5 30 -18 14 -13 30 -21 36 -19 7 2
12 -2 12 -10 0 -10 3 -9 10 2 8 12 10 12 16 -3 3 -9 16 -17 27 -17 15 0 18 -3
11 -10 -6 -6 -43 -14 -82 -17 -79 -6 -84 -12 -90 -86 -2 -14 -7 -17 -22 -12
-12 4 -20 2 -20 -5 0 -6 -4 -9 -9 -6 -5 3 -14 -1 -21 -9 -7 -8 -11 -15 -9 -16
31 -6 38 -5 36 4 -1 7 4 11 11 9 8 -1 11 2 6 10 -4 7 -3 9 1 5 5 -4 10 -20 12
-35 1 -15 0 -21 -3 -14 -5 10 -9 10 -21 0 -21 -17 -43 -19 -37 -3 3 7 1 15 -4
18 -9 6 -6 120 3 146 3 8 -2 22 -11 32 -12 14 -13 22 -4 38 6 12 7 21 3 20
-16 -3 -24 1 -19 10 8 13 102 7 119 -7z m285 -497 c-4 -19 -1 -25 13 -25 14 0
17 -8 17 -42 1 -24 5 -65 11 -91 6 -27 9 -52 7 -56 -8 -12 -74 -5 -91 9 -10 8
-13 22 -9 39 11 52 13 54 29 41 8 -7 15 -10 15 -6 0 16 -3 21 -11 18 -5 -1
-12 5 -15 13 -3 8 -11 12 -16 9 -6 -4 -8 -1 -6 7 3 8 11 13 18 11 11 -3 11 0
0 13 -11 13 -10 15 4 9 9 -3 16 -10 16 -15 0 -5 5 -9 10 -9 6 0 10 7 10 15 0
8 -7 15 -16 15 -8 0 -12 5 -9 10 3 6 1 10 -5 10 -6 0 -3 11 7 25 23 31 26 31
21 0z m317 -25 c5 -16 13 -19 46 -16 22 2 45 11 52 20 18 25 45 0 53 -49 l6
-41 -99 -31 c-181 -58 -183 -58 -194 -42 -13 20 -11 99 2 99 8 0 7 5 -2 16
-10 13 -10 17 2 25 8 5 10 9 4 9 -5 0 -3 5 5 10 20 13 87 13 95 0 3 -5 11 -10
17 -10 7 0 6 6 -2 15 -8 9 -8 15 -2 15 6 0 13 -9 17 -20z m-869 -38 c20 -11
27 -93 7 -85 -7 3 -13 1 -13 -5 0 -5 7 -13 16 -16 8 -3 13 -10 9 -15 -3 -6
-11 -8 -18 -5 -8 3 -13 -3 -13 -15 0 -11 4 -18 7 -15 4 2 10 0 14 -6 4 -6 10
-8 15 -5 5 3 12 0 16 -6 5 -8 3 -9 -6 -4 -10 6 -12 4 -6 -11 6 -15 5 -17 -5
-6 -7 6 -21 12 -30 12 -10 0 -20 6 -22 13 -3 6 -6 2 -6 -11 -1 -13 3 -21 8
-18 5 3 12 -1 15 -10 3 -8 2 -13 -3 -10 -11 7 -33 -43 -25 -57 5 -8 4 -9 -4
-2 -12 12 -21 175 -9 175 4 0 3 8 -2 19 -6 10 -9 20 -7 22 2 2 6 20 9 39 3 19
8 44 13 54 7 19 8 18 15 -2 4 -11 15 -25 25 -30z m1724 -592 c150 -37 181 -50
233 -100 44 -42 48 -50 38 -69 -7 -12 -16 -19 -22 -15 -5 3 -17 0 -25 -7 -11
-9 -17 -10 -22 -1 -4 6 -20 13 -35 16 -16 3 -49 15 -74 27 -24 12 -61 23 -81
25 -51 4 -82 14 -82 28 0 7 -3 6 -8 -2 -6 -9 -12 -5 -21 15 -8 18 -9 29 -2 31
5 2 1 12 -9 22 -15 15 -18 29 -11 58 1 2 9 1 19 -2 9 -3 55 -14 102 -26z
m-1062 -49 c8 -4 15 -28 17 -52 2 -24 4 -44 5 -44 7 0 7 -62 -1 -76 -6 -12 -5
-20 1 -24 8 -5 7 -11 -1 -21 -9 -12 -15 -12 -27 -2 -13 11 -15 10 -10 -4 9
-22 -2 -30 -20 -15 -8 6 -17 11 -19 10 -15 -12 -23 1 -9 15 11 13 14 28 10 50
-4 21 -3 32 5 32 6 0 11 11 11 25 0 14 5 25 10 25 6 0 10 9 10 21 0 15 -4 19
-16 15 -9 -3 -24 -6 -34 -6 -13 0 -17 -5 -13 -20 3 -11 0 -26 -6 -34 -14 -17
-53 -15 -59 2 -2 8 2 12 13 10 10 -2 20 3 22 10 5 13 -42 17 -51 4 -3 -5 1
-27 9 -49 14 -40 14 -50 0 -104 -4 -16 -2 -30 4 -34 8 -4 7 -10 -2 -19 -12
-12 -71 -46 -80 -46 -2 0 -2 22 1 50 3 30 0 55 -7 64 -9 11 -8 15 4 20 8 3 14
9 13 13 -1 4 8 27 20 50 12 23 22 53 22 66 0 19 8 26 43 36 23 7 53 19 67 27
29 15 50 17 68 5z m-242 -100 c-10 -19 -22 -28 -30 -25 -8 3 -17 1 -21 -5 -3
-7 0 -8 9 -5 12 4 16 0 16 -16 0 -11 -4 -18 -10 -15 -5 3 -7 0 -5 -7 3 -8 -1
-32 -8 -53 -8 -22 -12 -45 -10 -52 2 -6 -1 -14 -6 -18 -7 -4 -11 4 -11 19 0
14 -6 29 -14 33 -7 4 -16 15 -19 23 -4 10 -6 8 -6 -7 -1 -12 -9 -24 -19 -27
-15 -5 -18 -16 -18 -55 1 -27 -2 -53 -6 -57 -4 -4 -20 5 -34 19 -35 35 -47 34
-65 -5 -11 -27 -22 -34 -54 -40 -81 -16 -84 -16 -90 2 -8 27 2 73 20 86 8 6
15 16 15 23 0 6 7 11 16 11 13 0 15 -7 11 -32 -6 -33 -6 -33 13 6 15 30 17 43
9 50 -9 8 -10 7 -4 -4 8 -13 6 -13 -7 -2 -14 11 -20 11 -37 0 -12 -7 -24 -21
-27 -30 -3 -10 -10 -18 -16 -18 -5 0 -8 7 -5 15 4 8 2 17 -4 20 -5 4 -12 -1
-15 -9 -9 -23 -26 -8 -21 18 3 11 1 30 -3 41 -8 17 -9 18 -9 2 -1 -10 -8 -20
-16 -23 -8 -4 -15 -17 -15 -30 0 -21 -4 -24 -27 -22 -22 2 -29 -2 -31 -19 -2
-13 -8 -23 -13 -23 -6 0 -7 5 -4 10 3 6 1 10 -4 10 -6 0 -11 9 -11 20 0 31
-16 24 -41 -17 -12 -21 -24 -40 -25 -42 -2 -1 -9 1 -16 5 -13 9 -16 9 -58 13
l-25 3 29 12 c16 7 36 28 45 47 9 19 23 35 31 37 8 2 22 13 30 25 8 12 23 28
33 36 9 9 17 21 17 28 0 20 60 20 123 1 37 -11 39 -13 33 -47 -5 -33 6 -61 25
-61 15 0 80 62 94 90 12 23 22 28 67 33 45 5 56 2 71 -15 14 -17 17 -18 17 -4
0 10 5 14 11 11 6 -4 16 1 23 11 8 10 25 17 44 16 23 0 29 3 25 14 -3 8 1 14
10 14 8 0 18 8 22 18 5 10 9 13 12 5 2 -6 -3 -25 -11 -42z m-5064 -292 c13 -7
26 -17 30 -22 4 -7 16 -4 33 7 27 18 62 15 50 -4 -3 -5 1 -10 11 -10 14 0 15
-2 3 -17 -13 -15 -11 -16 14 -11 15 3 27 1 27 -3 0 -5 10 -7 23 -5 12 2 21 8
20 13 -1 5 14 9 33 9 19 -1 34 -5 34 -9 0 -4 0 -11 0 -17 0 -5 -6 -10 -12 -10
-26 -1 -71 -47 -64 -65 3 -10 1 -24 -5 -31 -9 -11 -13 -11 -25 1 -18 18 -18
25 3 40 10 7 14 19 10 29 -5 14 -10 14 -26 4 -11 -7 -18 -15 -15 -20 3 -4 -8
-10 -23 -14 -15 -4 -33 -10 -38 -15 -11 -8 -88 5 -109 19 -6 3 -17 7 -24 8 -8
2 -22 10 -31 18 -20 18 -61 21 -61 5 0 -6 -7 -8 -16 -5 -33 13 -93 -6 -129
-41 -19 -18 -34 -37 -33 -41 1 -4 -2 -19 -6 -34 -8 -29 -31 -37 -39 -15 -4 9
-8 8 -17 -3 -9 -11 -13 -12 -17 -2 -11 27 -39 10 -34 -20 0 -5 -4 -8 -10 -8
-5 0 -7 -4 -4 -10 3 -5 0 -10 -7 -11 -10 0 -10 -2 0 -6 6 -2 10 -9 7 -13 -3
-5 -13 -6 -22 -3 -10 4 -14 2 -9 -5 3 -6 -3 -13 -14 -17 -11 -3 -27 -14 -36
-23 -9 -9 -31 -15 -50 -15 -19 1 -32 -3 -29 -7 3 -4 -2 -11 -10 -14 -13 -5
-15 1 -9 32 10 62 82 177 154 246 57 55 76 67 139 86 119 36 291 51 333 29z
m-60 -176 c-1 -2 7 -12 18 -23 25 -25 26 -57 1 -65 -10 -3 -40 -28 -65 -55
-25 -27 -46 -45 -46 -40 0 6 -7 10 -15 10 -8 0 -15 4 -15 8 0 4 -13 9 -30 10
-18 1 -30 -2 -30 -10 0 -9 -3 -9 -11 -1 -12 12 3 75 24 101 11 14 51 17 42 2
-9 -14 7 -12 29 5 10 8 22 13 25 11 3 -1 19 10 34 26 15 15 23 28 18 28 -6 0
-8 7 -4 16 5 14 7 14 16 -2 6 -11 10 -20 9 -21z m-291 -102 c17 9 21 7 26 -10
3 -12 13 -21 23 -21 13 0 17 -7 16 -29 -1 -16 -4 -33 -8 -37 -4 -4 -5 -32 -2
-63 6 -55 6 -56 -25 -69 -27 -12 -35 -12 -57 2 -13 9 -22 21 -20 25 3 4 -6 13
-19 19 -33 15 -32 26 10 76 19 24 33 45 31 47 -2 2 -6 22 -10 44 -5 31 -4 36
4 22 9 -14 15 -15 31 -6z m-121 -91 c0 -33 31 -100 52 -111 11 -6 17 -17 14
-25 -3 -8 -2 -14 3 -14 4 0 8 -13 9 -30 0 -16 -4 -30 -9 -30 -5 0 -9 7 -9 16
0 9 -6 14 -12 11 -7 -2 -13 -15 -13 -29 0 -19 -4 -24 -18 -20 -24 6 -40 39
-33 68 5 17 2 24 -9 24 -8 0 -15 7 -15 15 0 26 -29 16 -36 -12 -10 -48 -12
-49 -13 -10 -1 43 18 96 51 137 27 34 38 37 38 10z"/>
<path d="M6144 7784 c5 -10 13 -31 18 -46 11 -31 32 -36 46 -12 14 25 82 0
107 -38 22 -34 119 -81 109 -53 -4 8 -10 13 -14 10 -5 -3 -11 -1 -15 5 -4 6
-10 8 -15 5 -10 -6 -24 31 -15 44 3 5 1 12 -4 16 -5 3 -8 14 -6 25 3 15 -4 22
-33 29 -20 5 -44 9 -52 9 -26 -1 -113 13 -124 19 -6 4 -6 -1 -2 -13z"/>
<path d="M6483 7734 c-10 -7 -15 -14 -11 -14 4 0 4 -11 -1 -23 -5 -13 -5 -30
-1 -37 5 -8 4 -22 -1 -32 -8 -14 -5 -19 18 -24 16 -3 33 -7 40 -9 6 -2 16 9
21 24 9 26 13 28 60 25 l50 -2 -10 29 c-6 17 -8 33 -4 36 3 4 6 -1 6 -11 0 -9
4 -15 9 -12 5 4 11 3 13 -1 4 -11 98 -85 123 -99 11 -6 27 -25 37 -43 23 -46
25 -47 48 -21 27 31 23 66 -7 63 -27 -3 -35 20 -31 92 l3 50 -107 3 c-60 1
-108 -1 -108 -6 0 -5 -29 -1 -64 8 -55 16 -67 16 -83 4z"/>
<path d="M7383 4291 c8 -9 22 -30 31 -48 11 -21 28 -35 53 -43 21 -7 47 -18
58 -24 46 -27 103 -37 145 -25 21 7 37 16 33 22 -3 5 4 6 18 2 13 -5 89 -10
169 -12 147 -4 158 -4 208 0 38 3 40 33 4 41 -95 20 -354 55 -502 67 -63 5
-141 16 -173 23 -53 12 -57 12 -44 -3z"/>
<path d="M4595 10896 c-5 -3 -27 -7 -48 -11 -51 -8 -77 -39 -77 -89 0 -81 8
-86 167 -118 78 -15 170 -39 204 -53 77 -31 350 -177 381 -204 13 -11 46 -38
73 -60 l50 -41 7 102 c3 57 11 141 17 187 6 46 8 87 5 92 -3 5 1 9 9 9 8 0 20
6 26 14 10 12 2 17 -46 31 -32 9 -116 34 -187 56 -181 55 -311 80 -451 85 -66
2 -124 2 -130 0z m609 -260 c18 -8 45 -12 60 -9 15 3 26 1 26 -5 0 -6 -10 -12
-22 -14 -16 -2 -25 -16 -38 -56 -10 -29 -20 -55 -22 -58 -3 -2 -22 3 -44 13
-21 9 -46 16 -54 14 -12 -1 -13 0 -1 8 8 5 12 19 9 33 -2 13 2 30 9 37 8 7 12
19 9 26 -4 12 6 22 27 24 4 1 23 -5 41 -13z"/>
<path d="M9500 9725 c-10 -12 -10 -15 3 -15 18 0 28 -31 16 -52 -9 -16 -54
-23 -198 -33 -36 -3 -68 -11 -73 -18 -6 -9 -8 -8 -8 3 0 9 -3 11 -8 5 -4 -5
-31 -11 -61 -13 -56 -4 -108 5 -97 15 3 4 -1 15 -11 25 -9 11 -11 18 -5 18 7
0 12 5 12 11 0 6 -12 9 -27 7 -27 -3 -28 -5 -31 -68 -2 -36 -8 -68 -15 -72
-22 -14 60 -8 104 8 24 8 57 17 73 20 16 2 33 9 38 16 6 10 8 10 8 0 0 -7 4
-10 10 -7 5 3 49 8 97 10 117 6 214 14 236 21 13 4 17 16 17 47 0 69 -9 87
-40 87 -15 0 -33 -7 -40 -15z"/>
<path d="M2765 2662 c-12 -12 -3 -24 25 -33 30 -11 41 -41 20 -54 -8 -5 -8
-11 0 -20 8 -10 5 -22 -10 -49 -11 -20 -20 -43 -20 -51 0 -8 -3 -15 -7 -15 -5
0 -8 -13 -9 -28 -1 -20 4 -28 17 -29 20 -2 59 45 59 71 0 9 5 16 10 16 9 0 31
43 31 60 0 3 8 13 16 23 9 9 13 17 8 17 -4 0 -2 7 5 15 7 8 8 15 3 15 -6 0 -9
11 -8 24 3 28 -9 35 -53 32 -17 -1 -29 1 -27 4 5 8 -53 9 -60 2z"/>
<path d="M2527 2511 c-8 -9 -17 -25 -22 -36 -5 -13 -9 -15 -12 -7 -7 17 -23 5
-23 -17 0 -10 -7 -24 -15 -31 -9 -7 -13 -15 -11 -18 3 -2 -2 -18 -10 -34 -9
-17 -13 -41 -10 -54 4 -14 2 -24 -4 -24 -7 0 -8 -6 -2 -17 5 -10 8 -26 7 -35
-4 -23 0 -23 25 4 13 14 18 29 14 42 -4 17 -3 18 5 6 9 -12 11 -13 11 -1 0 8
3 11 7 8 3 -4 16 8 28 26 32 48 64 114 59 120 -9 9 -12 57 -4 57 4 0 10 6 13
13 7 18 -40 18 -56 -2z"/>
</g>
</svg>
