<?xml version="1.0" standalone="no"?>
<!DOCTYPE svg PUBLIC "-//W3C//DTD SVG 20010904//EN"
 "http://www.w3.org/TR/2001/REC-SVG-20010904/DTD/svg10.dtd">
<svg version="1.0" xmlns="http://www.w3.org/2000/svg"
 width="1864.000000pt" height="1054.000000pt" viewBox="0 0 1864.000000 1054.000000"
 preserveAspectRatio="xMidYMid meet">
<metadata>
Created by potrace 1.16, written by Peter Selinger 2001-2019
</metadata>
<g transform="translate(0.000000,1054.000000) scale(0.100000,-0.100000)"
fill="#000000" stroke="none">
<path d="M0 5270 l0 -5270 9320 0 c6207 0 9320 3 9320 10 0 7 -183 10 -527 10
l-528 0 -17 107 c-10 59 -15 109 -12 112 2 3 66 8 142 12 171 9 371 34 439 54
54 16 103 48 91 61 -4 4 -63 15 -130 25 -270 39 -337 50 -438 75 -148 37 -152
40 -148 122 3 66 3 67 36 77 30 9 33 13 29 40 -3 16 2 46 10 65 32 76 42 123
31 143 -7 14 -7 30 2 58 9 27 10 42 3 51 -16 20 -45 128 -39 145 3 8 -6 26
-20 40 -30 30 -46 101 -49 213 -2 73 -3 75 -33 87 -26 11 -31 18 -31 45 1 18
-6 60 -15 93 -9 32 -16 73 -16 91 0 17 -5 45 -11 62 -7 22 -7 36 1 51 9 17 7
26 -11 50 -14 19 -20 37 -16 52 3 12 -1 61 -9 108 -10 53 -14 111 -10 152 4
49 2 70 -9 85 -9 12 -14 42 -15 80 0 33 -4 64 -8 70 -5 5 -14 28 -21 51 -9 33
-9 47 1 62 10 16 8 27 -8 62 -10 24 -18 47 -17 51 2 4 7 48 13 99 9 77 8 96
-5 122 -16 31 -15 32 15 57 16 14 30 30 30 37 0 31 80 36 545 29 362 -5 462
-9 470 -19 6 -8 23 -22 38 -32 22 -14 32 -16 50 -7 12 6 38 15 57 21 19 5 50
15 68 22 26 11 36 11 52 1 20 -12 20 -9 20 181 l0 193 -30 22 c-27 20 -29 27
-24 60 8 51 -20 99 -76 132 -23 14 -52 37 -63 53 -31 41 -13 51 98 55 l95 4 0
1758 0 1759 -342 1 c-554 2 -679 2 -755 -3 -73 -4 -99 6 -43 17 17 3 43 9 59
12 51 9 60 30 70 155 6 77 6 118 -1 126 -6 8 -33 13 -63 13 -63 0 -86 7 -79
25 3 7 -2 19 -10 28 -9 9 -16 23 -16 32 0 9 -9 19 -21 22 -12 3 -16 9 -10 12
7 4 -1 19 -19 40 -17 18 -30 42 -30 54 0 15 -11 29 -32 42 -42 24 -51 38 -30
47 22 8 819 -4 1150 -17 l172 -8 0 512 0 511 -37 0 c-79 0 -82 3 -76 83 6 87
13 100 13 26 0 -66 13 -86 63 -94 l37 -7 0 100 c0 87 -2 101 -17 105 -17 4
-17 5 0 6 16 1 17 18 17 201 l0 200 -225 -4 c-124 -1 -225 1 -225 6 0 4 101 8
225 8 l225 0 0 89 c0 62 -4 91 -12 94 -10 4 -10 6 0 6 9 1 12 28 12 102 l0
102 -57 -5 c-32 -3 -83 -2 -113 2 -47 6 -38 7 58 9 l112 1 0 95 0 95 -217 2
-218 2 175 7 c96 3 194 7 218 8 l42 1 0 189 0 190 -73 7 c-64 6 -69 8 -43 17
20 7 35 6 48 -2 10 -6 29 -11 43 -11 22 0 25 4 25 35 l0 35 -9320 0 -9320 0 0
-5270z m782 5203 c4 -34 23 -39 203 -50 l130 -8 -160 -5 -160 -5 -2 -192 -2
-191 67 -7 c101 -9 107 -14 15 -11 l-83 3 0 -259 0 -260 -29 7 c-23 5 -31 1
-45 -20 -16 -24 -18 -63 -20 -348 -1 -177 0 -409 3 -515 6 -188 7 -194 30
-213 13 -10 37 -19 55 -19 17 0 49 -7 71 -14 l40 -14 -45 -4 -45 -3 -2 -165
c-2 -146 9 -295 23 -309 2 -3 11 5 20 17 14 21 23 22 137 22 127 0 147 5 187
52 8 10 47 26 85 36 53 14 73 25 82 43 22 43 40 49 161 49 114 0 158 10 149
35 -7 18 36 35 89 35 52 0 118 -36 127 -70 6 -23 -13 -36 -38 -26 -29 11 -127
-38 -195 -97 -59 -51 -111 -77 -155 -77 -28 0 -35 4 -35 19 0 39 -69 42 -140
6 -61 -31 -67 -41 -42 -68 20 -22 20 -24 5 -142 -8 -68 -21 -127 -29 -136 -18
-20 -18 -25 4 -47 11 -11 22 -38 26 -60 7 -46 39 -110 65 -128 9 -7 30 -15 48
-19 22 -4 30 -11 29 -23 -3 -13 -12 -17 -42 -16 -97 4 -545 6 -549 3 -5 -5 18
-1603 32 -2166 5 -232 4 -273 -8 -273 -8 0 -30 -18 -49 -40 -24 -28 -48 -44
-77 -52 -24 -5 -40 -14 -37 -19 8 -13 82 -31 159 -38 53 -4 71 -10 73 -22 4
-22 -37 -27 -281 -35 -109 -4 -200 -11 -203 -16 -3 -4 3 -8 13 -9 14 0 13 -2
-5 -9 -33 -14 -38 -37 -11 -59 19 -15 21 -22 12 -32 -10 -10 -9 -19 5 -41 17
-29 16 -30 -7 -49 -22 -18 -23 -21 -7 -38 15 -17 17 -53 4 -67 -9 -8 3 -37 20
-50 25 -18 2 -214 -29 -248 -17 -19 -9 -36 17 -36 25 0 26 -2 20 -37 -4 -21
-9 -54 -11 -73 -6 -49 15 -214 28 -222 7 -4 4 -16 -8 -35 -11 -15 -20 -43 -22
-60 -2 -35 -1 -36 82 -48 22 -3 123 -10 225 -15 457 -25 442 -24 454 -42 9
-15 1 -27 -49 -73 -82 -75 -94 -85 -104 -85 -5 0 -22 -11 -38 -24 l-29 -24
-458 -4 c-252 -3 -469 -3 -482 0 l-24 4 0 224 0 224 98 0 c53 0 103 4 110 9
11 6 13 45 13 171 -1 90 -3 166 -6 169 -2 4 -5 152 -6 329 -3 354 -5 341 56
343 46 1 99 23 110 46 21 42 38 54 69 51 l31 -3 0 203 c0 111 -1 667 -3 1235
l-2 1034 -227 -5 c-152 -3 -230 -8 -235 -16 -4 -6 -8 139 -8 322 l0 332 203 2
c111 1 216 2 232 3 l30 1 2 805 c2 721 4 811 20 871 16 63 16 69 0 86 -15 17
-17 52 -17 330 0 271 2 316 17 346 15 32 15 37 1 53 -8 10 -15 25 -15 33 0 8
-2 20 -3 25 -7 30 3 32 144 34 l145 2 3 -28z m5668 -2 c0 -37 15 -49 70 -54
118 -10 -325 -11 -658 -1 -142 5 -206 3 -216 -5 -9 -8 -21 -8 -45 0 -17 6 -42
8 -56 5 -13 -3 -243 -5 -512 -4 -268 1 -551 1 -628 1 -647 -2 -968 0 -1010 6
-32 5 51 9 228 10 164 0 286 5 297 11 13 7 21 7 25 0 10 -16 602 -13 608 3 3
9 7 9 18 1 15 -12 614 -20 1334 -16 209 1 413 0 452 -1 78 -2 84 2 76 46 -3
16 -1 27 6 27 6 0 11 -13 11 -29z m-4686 -37 c154 3 292 6 306 6 14 0 153 -1
308 -2 156 -2 286 0 289 5 2 4 13 3 23 -3 11 -6 121 -10 271 -10 139 0 250 -2
247 -5 -11 -11 -535 -16 -1188 -12 -36 0 -90 -1 -120 -2 -30 -2 -185 -1 -345
2 -159 3 -297 1 -305 -3 -8 -4 -24 -4 -35 0 -24 9 52 20 139 20 34 0 68 4 75
9 9 6 22 6 34 -1 12 -6 117 -8 301 -4z m6291 -25 c30 -12 -835 -14 -882 -2
-13 3 -21 9 -18 14 7 10 873 -1 900 -12z m1884 -8 c79 0 142 -4 138 -7 -9 -9
-972 -4 -1027 5 -38 6 317 7 889 2z m-5864 -178 c447 -3 493 -5 240 -14 -273
-9 -995 -13 -1003 -5 -3 3 83 6 192 6 209 0 239 5 236 43 -1 12 -1 38 1 57 2
26 4 19 8 -25 l6 -60 320 -2z m1260 -3 c174 1 319 0 321 -3 7 -7 -497 -17
-805 -16 -163 1 -282 4 -266 8 17 4 100 5 185 3 123 -3 162 -1 190 11 23 10
39 12 46 6 7 -6 141 -9 329 -9z m2541 -210 c101 0 153 -3 149 -10 -4 -6 -96
-10 -243 -10 -130 0 -242 -4 -249 -8 -7 -4 -11 -33 -10 -75 1 -37 -1 -67 -5
-67 -4 0 -8 33 -10 73 l-3 72 -62 3 c-35 2 -63 7 -63 12 0 8 294 20 328 13 8
-2 83 -3 168 -3z m6069 -44 c18 -18 146 -26 415 -26 113 0 313 -3 445 -6 143
-4 262 -2 294 4 30 5 66 6 80 2 29 -9 196 -18 396 -22 80 -1 103 -3 60 -5 -38
-2 -75 -8 -81 -14 -8 -6 -13 -6 -16 0 -3 10 -238 16 -1083 27 -247 4 -468 9
-490 13 -26 4 -41 12 -43 24 -4 21 5 22 23 3z m-7675 -85 c-1 -31 -1 -62 -1
-70 1 -12 58 -13 388 -7 213 3 383 3 379 -1 -4 -5 -132 -11 -284 -14 -152 -3
-284 -7 -292 -9 -40 -8 -650 1 -650 10 0 6 84 11 218 12 l217 3 3 73 c2 46 7
70 13 66 6 -3 10 -31 9 -63z m-2508 -68 c14 -18 578 -19 596 -1 8 8 15 8 26
-1 11 -9 72 -12 223 -12 114 1 231 -3 258 -7 72 -10 -268 -19 -365 -9 -41 4
-181 6 -310 4 -129 -3 -239 -4 -245 -4 -5 0 -109 2 -230 5 -201 6 -210 7 -105
12 105 5 115 7 118 25 6 40 15 51 20 25 2 -14 9 -31 14 -37z m-2188 -2 c160 0
298 1 306 1 89 0 455 -14 459 -18 5 -5 -94 -6 -569 -5 -184 0 -438 1 -564 1
-126 0 -227 3 -223 6 7 7 266 23 286 17 8 -2 146 -3 305 -2z m6030 -12 c148 0
221 -4 202 -9 -16 -5 -33 -7 -38 -4 -5 3 -21 1 -36 -5 -26 -11 -27 -14 -24
-72 2 -36 -1 -66 -7 -72 -8 -8 -11 10 -11 65 0 59 -3 77 -15 82 -9 3 -100 3
-203 -1 -199 -6 -363 3 -327 18 11 5 67 7 124 4 57 -3 208 -5 335 -6z m3989
-31 c166 -1 440 -1 609 -2 168 -1 310 -4 314 -9 4 -4 -92 -7 -214 -7 -143 0
-223 -4 -227 -10 -4 -7 -11 -7 -18 -2 -20 15 -580 25 -595 10 -9 -9 -15 -9
-24 0 -8 8 -70 13 -202 14 -105 1 -148 4 -96 5 52 2 99 8 104 13 5 5 16 5 28
-1 11 -6 140 -10 321 -11z m3538 -38 c99 0 170 -4 174 -10 7 -11 -764 -19
-780 -8 -6 4 -47 9 -90 11 -44 2 47 3 202 3 213 -1 285 2 294 12 9 8 16 9 23
2 6 -6 79 -10 177 -10z m-3966 -368 c77 -4 271 -5 430 -2 160 3 296 2 304 -1
30 -14 -585 -23 -914 -14 -93 3 -221 5 -284 6 -92 1 -111 4 -94 13 23 12 299
11 558 -2z m-3442 -174 c7 -4 111 -8 232 -8 223 0 328 -7 320 -20 -2 -4 -29
-7 -59 -7 -31 0 -62 -6 -70 -12 -10 -8 -21 -9 -33 -3 -10 5 -110 12 -222 15
-112 3 -208 10 -213 15 -5 5 -3 14 7 22 10 8 16 33 17 79 l2 66 3 -70 c2 -39
9 -73 16 -77z m-3768 2 c3 -5 27 -11 53 -12 44 -1 44 -2 10 -5 -57 -6 -46 -20
21 -26 67 -6 102 -25 132 -73 11 -19 25 -34 30 -34 6 0 25 -16 43 -35 26 -27
41 -35 69 -35 20 0 39 5 43 11 4 7 10 7 16 1 19 -19 -3 -33 -46 -31 -41 3 -41
3 -38 -30 2 -25 -3 -38 -18 -48 -11 -8 -20 -24 -20 -36 0 -16 -3 -18 -12 -9
-8 8 -15 8 -23 2 -15 -13 -65 24 -65 48 0 20 -39 62 -57 62 -8 0 -47 -15 -86
-34 -40 -19 -92 -43 -117 -54 -42 -20 -43 -21 -16 -22 17 0 56 5 88 12 60 12
79 8 60 -15 -16 -19 -5 -27 39 -27 21 0 40 -4 43 -9 9 -14 -69 -88 -122 -115
-26 -13 -65 -28 -86 -31 -20 -4 -50 -18 -66 -31 -15 -13 -32 -24 -38 -24 -5 0
-44 -16 -86 -36 -70 -34 -81 -36 -134 -29 -113 14 -136 12 -167 -18 -17 -15
-34 -27 -39 -27 -5 0 -32 -15 -60 -33 -28 -19 -60 -37 -71 -40 -72 -21 -140
-49 -166 -68 -22 -15 -47 -22 -83 -23 -71 -1 -86 11 -46 36 30 18 32 22 28 63
-6 48 -2 58 26 68 26 10 17 16 -50 32 -39 9 -126 14 -253 14 -121 0 -198 4
-205 11 -13 13 -41 12 311 11 170 0 314 4 328 9 14 5 25 17 25 28 0 32 56 63
128 72 37 5 71 15 77 22 5 7 23 22 39 32 20 13 25 21 17 29 -11 11 -108 -13
-164 -40 -16 -8 -55 -17 -88 -19 -50 -5 -59 -3 -59 11 0 14 7 15 45 9 48 -7
75 5 75 35 0 9 13 22 28 29 16 6 41 25 58 40 46 45 49 46 229 82 33 7 75 21
93 32 18 11 68 32 110 47 68 25 77 30 74 51 -1 13 6 28 15 35 21 15 13 27 -18
29 -28 1 -36 24 -12 33 10 3 20 9 23 12 14 17 71 51 84 51 8 0 18 5 21 10 3 6
10 10 15 10 5 0 12 -4 15 -10z m2815 -9 c168 -1 355 -2 415 -3 61 -2 139 -2
174 -1 37 1 60 -2 55 -7 -13 -13 -1057 -10 -1070 3 -4 4 16 7 44 7 32 0 52 4
52 11 0 8 4 8 13 1 8 -7 116 -11 317 -11z m5346 -39 c12 -7 -1040 -8 -1061 -1
-5 2 78 6 185 10 241 7 857 2 876 -9z m-3979 -163 c8 -8 137 -12 425 -13 227
0 414 -5 415 -10 2 -4 -135 -7 -303 -7 -221 2 -310 -1 -320 -10 -10 -8 -14
-34 -14 -85 0 -111 -12 -106 266 -102 131 2 229 -1 224 -6 -7 -7 -512 -10
-515 -3 -1 1 2 40 5 87 4 47 3 92 -1 99 -5 12 -27 14 -101 13 -98 -3 -123 4
-112 31 7 20 16 21 31 6z m-7251 -204 c-9 -13 -11 -25 -6 -27 5 -2 13 -76 16
-166 l7 -164 -34 4 c-30 3 -34 6 -34 33 0 23 -4 30 -20 30 -14 0 -20 -6 -19
-22 0 -13 -5 -23 -12 -23 -23 0 -44 12 -44 26 0 9 6 11 18 7 15 -6 15 -5 3 10
-12 15 -10 18 15 28 23 9 35 8 57 -5 16 -9 32 -14 36 -12 3 2 8 54 9 114 2 90
0 111 -12 115 -11 5 -13 13 -6 36 11 41 20 52 31 45 6 -4 4 -15 -5 -29z
m11424 -44 c176 -5 211 -8 194 -18 -12 -7 -25 -9 -29 -5 -10 10 -575 17 -1113
13 -188 -1 -348 2 -355 6 -27 18 702 20 1303 4z m-1345 -196 c176 -2 621 -7
990 -10 368 -3 671 -8 674 -10 4 -5 -545 -9 -564 -5 -5 1 -417 4 -915 5 -634
2 -909 0 -918 -7 -9 -8 -16 -8 -24 0 -7 7 -30 12 -52 12 -21 0 -37 2 -34 5 3
3 99 6 214 6 115 0 225 4 244 8 19 5 42 7 50 4 8 -3 159 -6 335 -8z m-4289
-336 c32 -14 61 -19 97 -17 29 2 54 -1 57 -7 3 -6 -13 -11 -38 -11 -52 -2 -61
-9 -32 -24 21 -11 101 -18 125 -11 6 2 60 2 120 1 l110 -3 -113 -8 c-110 -9
-113 -10 -147 -43 -19 -19 -55 -41 -82 -49 -26 -8 -62 -21 -79 -28 -26 -10
-36 -10 -64 4 -41 21 -54 21 -70 2 -7 -8 -27 -15 -45 -15 -21 0 -35 -6 -39
-16 -5 -12 -14 -15 -34 -11 -19 4 -39 -1 -59 -13 -17 -10 -57 -23 -89 -29 -31
-6 -59 -13 -61 -15 -2 -2 9 -30 26 -61 17 -32 31 -63 31 -70 0 -7 -16 -25 -35
-39 -29 -23 -35 -33 -35 -65 0 -37 31 -124 75 -211 13 -27 42 -59 69 -78 25
-18 46 -39 46 -46 0 -7 14 -25 30 -41 17 -16 30 -35 30 -42 0 -23 -58 -15
-122 17 -48 24 -64 28 -75 19 -21 -18 -605 -19 -610 -1 -5 14 -24 17 -20 2 2
-9 -1220 -24 -1245 -15 -11 4 -14 33 -9 81 1 11 92 74 107 74 27 0 93 34 93
49 6 110 -11 157 -59 163 -35 5 -124 -16 -155 -36 -14 -9 -41 -16 -61 -14
l-36 2 7 42 c5 37 3 43 -15 49 -11 3 -20 13 -20 21 0 19 -19 18 -26 -1 -4 -8
-13 -15 -22 -15 -11 0 -5 8 16 23 35 24 52 64 32 77 -9 6 -9 14 4 36 8 16 15
23 16 16 0 -10 7 -9 29 3 22 11 28 20 24 35 -5 20 -23 28 -23 10 0 -18 -18
-11 -25 10 -3 11 -12 20 -20 20 -7 0 -15 6 -18 13 -3 8 -25 20 -49 26 -25 8
-53 25 -67 42 -20 26 -22 36 -16 82 4 32 15 63 30 81 21 26 27 28 48 19 14 -6
40 -24 58 -40 19 -16 51 -35 73 -42 41 -14 52 -23 109 -94 34 -42 38 -52 35
-94 -4 -63 8 -72 80 -61 31 5 59 13 62 17 22 34 49 36 572 39 529 3 613 -1
650 -35 16 -14 18 -14 18 -1 0 21 62 28 240 29 l142 1 -6 41 c-4 23 -9 52 -12
64 -5 19 1 25 35 39 23 9 50 28 61 41 17 22 22 24 37 12 10 -8 22 -20 26 -26
12 -20 35 -15 48 8 8 15 8 24 0 32 -19 19 -12 24 58 37 63 12 114 10 196 -5
17 -3 23 -2 15 2 -33 17 -110 65 -110 69 0 12 67 1 106 -17z m-2844 -56 c24
-10 41 -26 44 -40 4 -14 23 -30 50 -44 68 -32 74 -47 72 -176 -2 -101 0 -115
18 -135 17 -19 19 -29 12 -58 -19 -79 -18 -89 8 -107 23 -15 25 -21 20 -57
-20 -127 -20 -121 16 -157 19 -19 55 -45 81 -58 25 -13 44 -27 42 -31 -6 -10
51 -31 59 -23 9 9 36 -18 36 -35 0 -8 -17 -38 -38 -66 -21 -28 -44 -66 -51
-83 -8 -18 -18 -33 -23 -33 -6 0 -8 -9 -5 -19 4 -17 1 -19 -32 -14 -51 8 -96
38 -136 90 -29 38 -35 54 -35 94 0 35 -4 49 -14 49 -19 0 -24 17 -22 68 1 23
-1 42 -6 42 -4 0 -8 9 -8 20 0 10 -10 25 -22 31 -12 6 -33 22 -47 35 -14 14
-34 27 -43 30 -10 3 -18 12 -18 21 0 8 -8 27 -19 41 -14 22 -18 43 -16 106 3
76 -6 134 -23 145 -16 12 -59 123 -55 142 6 21 6 21 84 19 71 -2 139 16 139
36 0 8 -13 17 -30 21 -26 5 -30 10 -28 32 3 23 -1 26 -34 29 -25 2 -38 8 -38
18 0 18 -47 37 -74 30 -48 -12 -82 14 -54 42 18 18 144 15 190 -5z m13288 -78
c-1 -18 -54 -25 -185 -25 -71 1 -152 -3 -180 -8 -59 -10 -195 -1 -195 13 0 6
30 11 67 12 38 1 158 6 268 11 229 10 226 10 225 -3z m-6295 -134 c13 -21 -95
-75 -170 -85 -66 -9 -86 -16 -80 -26 9 -15 -25 -40 -55 -40 -17 0 -33 7 -39
17 -8 15 -11 15 -26 3 -14 -12 -16 -25 -10 -79 9 -79 15 -98 49 -134 33 -36
25 -60 -18 -52 -56 12 -64 15 -69 35 -12 47 -104 5 -95 -44 8 -40 -14 -51
-108 -52 -45 -1 -88 -5 -94 -9 -16 -10 -6 -99 15 -131 18 -29 19 -34 2 -34 -8
0 -29 -8 -48 -17 -31 -16 -116 -17 -1139 -16 -2055 2 -1936 1 -1919 18 9 10
13 28 11 55 -4 34 -8 40 -27 40 -12 0 -28 7 -35 15 -10 12 -6 16 22 23 26 7
32 13 31 31 -2 15 5 24 22 31 22 8 24 12 13 29 -10 17 -9 23 6 40 19 21 30 81
15 81 -4 0 -17 10 -28 21 -17 18 -19 30 -14 67 5 33 2 48 -8 56 -16 12 -42
112 -33 127 10 16 54 4 70 -20 l16 -22 19 22 19 22 588 0 c439 0 594 -3 611
-12 15 -8 26 -9 34 -3 10 9 1030 20 1193 14 l41 -2 -5 -79 c-3 -47 0 -86 6
-97 9 -15 11 4 12 83 l0 103 28 -5 c15 -2 218 -7 451 -10 396 -5 425 -4 437
13 16 22 158 26 149 3 -4 -10 1 -12 22 -6 16 4 45 11 66 15 21 4 41 10 44 14
9 9 21 7 28 -3z m-8774 -31 c10 -6 19 -21 20 -33 1 -20 1 -20 8 3 10 36 40 38
553 39 l447 1 10 -32 c5 -18 19 -58 31 -88 12 -30 24 -64 27 -75 4 -11 23 -39
45 -62 21 -24 38 -49 38 -57 0 -21 110 -132 140 -141 55 -17 67 -57 27 -97
-12 -13 -31 -35 -42 -50 -24 -32 8 -31 -757 -29 l-508 1 -40 29 c-23 16 -36
32 -30 36 5 3 10 28 10 55 0 45 3 51 30 65 39 20 41 58 4 81 -22 15 -23 19
-10 26 9 5 16 21 16 36 0 16 5 33 11 39 14 14 7 69 -9 65 -7 -1 -33 3 -57 9
-38 10 -45 15 -45 37 0 28 -34 89 -64 113 -11 9 -16 21 -12 27 9 15 130 16
157 2z m10007 -38 c9 -12 12 -82 12 -271 0 -140 3 -252 6 -248 4 3 9 122 11
264 3 142 6 259 8 261 5 6 944 6 950 0 4 -3 1 -15 -6 -26 -10 -15 -10 -39 -3
-98 l10 -78 -76 -75 c-165 -165 -222 -238 -229 -295 l-6 -41 -130 -5 c-71 -3
-206 -2 -300 3 -93 4 -285 5 -425 2 -254 -5 -300 -1 -272 27 42 42 -26 267
-119 394 -52 71 -111 116 -194 149 -81 31 -96 42 -76 54 7 5 196 6 420 4 354
-5 408 -7 419 -21z m2492 0 c164 6 1145 -4 1158 -11 11 -6 14 -41 14 -152 0
-114 2 -133 8 -89 5 30 11 98 14 150 3 52 5 96 6 98 1 5 240 2 240 -4 0 -13
-27 -30 -66 -43 -58 -19 -68 -26 -60 -46 5 -14 14 -16 40 -11 20 4 37 2 41 -4
4 -6 -11 -10 -40 -10 -88 0 -122 -79 -75 -175 11 -22 19 -46 20 -53 0 -7 9
-25 20 -40 11 -15 27 -56 36 -92 9 -36 27 -78 40 -93 13 -16 22 -32 19 -36
-10 -17 -334 -20 -1120 -10 -451 5 -828 12 -838 15 -20 6 -14 43 9 57 30 17
13 36 -43 49 l-58 13 64 5 c60 5 65 7 66 30 3 33 -6 49 -36 63 -62 32 -27 68
163 168 77 40 143 80 148 89 9 18 6 63 -8 105 l-9 30 81 -3 c44 -2 119 -2 166
0z m-3904 -313 c3 -6 18 -9 32 -6 28 5 52 -1 52 -13 0 -5 -22 -16 -48 -24 -65
-22 -115 -60 -119 -91 -3 -23 -1 -25 22 -19 32 8 60 -12 44 -32 -20 -24 -79
-14 -79 13 0 12 -8 15 -38 10 -46 -6 -115 19 -92 33 8 5 31 12 50 15 54 9 61
16 51 52 -14 50 8 67 91 72 15 0 30 -4 34 -10z m-7162 -313 c19 -13 32 -27 28
-31 -4 -5 -1 -5 6 -1 6 4 17 4 22 1 18 -11 -8 -33 -33 -28 -16 3 -34 -6 -62
-31 -21 -20 -44 -36 -50 -36 -5 0 -27 -9 -48 -20 -20 -11 -44 -20 -54 -20 -9
0 -25 -7 -35 -17 -28 -25 -22 4 7 33 14 14 25 31 25 37 0 22 104 125 130 130
14 2 26 5 27 6 1 0 18 -10 37 -23z m-2041 -36 c40 -44 87 -114 87 -130 0 -14
-56 -12 -120 5 -30 8 -69 15 -87 15 -17 0 -35 5 -38 11 -4 6 7 39 25 75 30 59
36 64 65 64 25 0 41 -9 68 -40z m8820 -107 c4 -3 2 -12 -4 -19 -15 -18 1 -42
67 -104 69 -62 62 -73 -41 -64 -130 10 -245 47 -245 77 0 48 192 142 223 110z
m3083 -176 c5 -4 3 -16 -3 -27 -10 -14 -9 -21 2 -30 8 -7 15 -19 15 -26 0 -8
9 -23 21 -35 11 -11 18 -26 16 -33 -6 -15 -60 -26 -127 -26 -52 0 -80 -14 -64
-30 5 -5 50 -22 100 -36 49 -14 91 -28 94 -31 6 -7 -171 4 -215 13 l-30 6 40
-36 c45 -40 80 -51 116 -38 17 7 35 5 62 -5 49 -20 47 -36 -5 -31 -47 3 -60
-12 -30 -38 12 -9 17 -24 15 -35 -4 -14 0 -19 14 -19 11 0 28 -7 39 -15 19
-14 19 -14 -2 -15 -11 0 -29 -9 -39 -20 -26 -28 -49 -25 -92 14 -42 37 -72 54
-114 66 -25 7 -29 6 -29 -11 0 -20 -34 -27 -45 -9 -3 6 -19 10 -35 10 -21 0
-34 8 -47 28 -9 15 -43 53 -75 84 -36 34 -54 59 -48 63 7 4 9 22 6 44 -8 49 8
142 27 156 12 9 13 15 5 23 -18 18 -5 24 89 34 48 5 93 11 98 13 18 7 233 0
241 -8z m-12041 -901 c8 -19 21 -39 28 -43 8 -4 20 -26 26 -48 7 -22 17 -51
23 -65 6 -14 14 -34 18 -45 4 -11 13 -33 19 -48 6 -15 11 -39 11 -53 0 -14 11
-35 25 -48 14 -13 25 -30 25 -38 0 -8 29 -34 65 -57 35 -24 73 -57 84 -75 11
-17 37 -45 57 -61 20 -17 48 -40 63 -52 63 -53 90 -73 112 -83 13 -5 31 -14
39 -19 19 -11 203 -99 250 -119 19 -8 60 -21 92 -28 73 -17 127 -54 159 -110
14 -24 75 -92 134 -150 69 -67 104 -109 98 -115 -14 -14 -37 -2 -57 31 -9 17
-54 60 -98 95 -44 36 -95 84 -113 108 -46 58 -111 107 -144 107 -9 0 -197 84
-331 147 -93 44 -169 102 -278 209 -57 57 -112 106 -122 109 -17 5 -50 61 -50
83 0 6 -6 17 -13 24 -31 32 -109 175 -120 219 -4 14 -16 38 -28 53 -21 26 -33
81 -22 99 11 18 35 4 48 -27z m359 -136 c24 -22 49 -54 56 -70 7 -16 23 -36
36 -45 13 -8 24 -20 24 -25 0 -18 -26 -10 -50 15 -30 32 -89 48 -144 40 -39
-6 -43 -5 -54 20 -24 52 -12 78 45 95 15 4 31 9 36 9 4 1 27 -17 51 -39z
m3124 -161 c53 -29 108 -60 122 -69 57 -39 182 -90 285 -117 103 -26 113 -31
156 -74 61 -63 82 -110 80 -179 -1 -30 -4 -63 -7 -72 -8 -26 -43 -22 -56 7
-12 26 -41 41 -58 30 -9 -6 -100 52 -125 79 -38 43 -69 56 -131 56 -71 0 -82
7 -118 79 -28 54 -51 75 -126 121 -91 55 -128 96 -144 163 -9 39 9 36 122 -24z
m1512 -59 c11 -19 30 -48 44 -65 14 -16 30 -35 36 -42 6 -7 16 -10 24 -7 9 4
16 -6 20 -29 4 -19 14 -38 23 -41 20 -8 53 2 53 15 0 6 4 8 9 5 5 -4 11 -2 13
3 1 5 12 11 23 13 14 2 21 -3 23 -20 2 -12 7 -20 12 -17 5 3 21 -12 35 -34 15
-22 33 -42 41 -45 22 -8 18 -46 -5 -46 -46 0 -26 -50 31 -79 22 -11 30 -12 43
-1 10 8 15 9 15 1 0 -6 -4 -11 -10 -11 -24 0 -7 -29 20 -35 17 -4 30 -11 30
-16 0 -5 6 -9 14 -9 7 0 32 -17 55 -38 29 -27 40 -43 35 -55 -3 -9 -8 -17 -10
-17 -1 0 -47 26 -101 57 -161 94 -327 227 -408 326 -72 90 -141 216 -131 242
6 17 8 17 27 -1 12 -11 29 -35 39 -54z m-2870 -37 c47 -20 99 -44 116 -54 17
-11 38 -19 45 -19 8 0 34 -9 58 -20 40 -19 43 -22 29 -38 -9 -9 -28 -48 -42
-87 -15 -38 -34 -85 -42 -103 -7 -18 -14 -40 -14 -48 0 -33 -73 -234 -116
-318 -63 -124 -90 -241 -84 -371 9 -251 -3 -521 -28 -619 -6 -22 -8 -52 -5
-67 3 -15 -2 -60 -10 -101 -26 -119 -38 -279 -32 -415 3 -71 7 -196 9 -280 4
-124 9 -161 25 -197 20 -46 21 -95 5 -206 -4 -25 -12 -122 -18 -217 -6 -94
-14 -175 -18 -179 -18 -17 -5 -43 38 -80 26 -21 60 -51 75 -66 16 -15 43 -34
59 -43 27 -14 32 -13 64 5 47 28 53 10 10 -29 -19 -18 -39 -42 -43 -54 -11
-28 9 -151 33 -197 16 -33 16 -35 -1 -48 -19 -14 -94 -10 -233 11 -109 17
-192 15 -223 -6 -37 -24 -91 -22 -109 4 -13 21 -21 21 -222 21 -155 -1 -206 2
-197 11 12 12 27 16 96 26 l50 7 -51 13 c-50 14 -57 22 -41 48 4 7 -1 14 -13
18 -31 10 -24 33 17 52 20 10 40 28 44 40 7 19 2 23 -41 37 -27 9 -56 16 -64
16 -33 0 -23 19 31 60 31 23 61 44 67 46 6 2 16 14 21 27 6 12 28 32 50 43 23
12 39 27 36 35 -8 35 -8 65 1 82 13 26 38 123 38 151 0 25 21 83 46 129 9 16
14 37 11 48 -4 13 2 27 14 37 10 9 19 21 19 26 0 5 10 20 22 33 14 15 18 27
12 33 -5 5 -58 10 -118 11 -86 1 -112 -2 -124 -15 -14 -14 -14 -17 0 -33 33
-39 33 -46 -3 -41 -28 5 -39 0 -62 -24 -16 -16 -34 -27 -40 -25 -20 6 -31 87
-29 197 2 57 5 106 7 108 6 6 274 3 300 -4 34 -8 31 -20 -6 -28 -18 -3 -49
-21 -69 -39 -21 -17 -49 -40 -62 -49 -22 -17 -19 -17 88 -18 74 0 116 4 128
13 19 14 25 72 8 89 -6 6 -8 26 -5 45 5 27 0 42 -27 79 -31 44 -34 62 -15 106
10 26 -49 36 -192 33 -128 -2 -145 2 -148 32 0 10 -4 24 -9 31 -5 8 2 26 18
47 14 18 26 45 26 59 0 30 -4 29 140 27 99 -2 145 8 126 26 -4 4 -59 11 -123
14 -63 4 -119 11 -126 18 -6 6 -10 35 -8 65 1 30 -3 63 -10 74 -7 11 -9 27 -6
36 5 13 24 16 119 16 62 0 118 4 124 8 8 5 9 40 3 121 -5 62 -11 121 -14 130
-2 9 -6 196 -7 415 l-2 399 22 15 c28 19 28 26 -3 40 -31 14 -31 36 -4 99 28
63 47 155 59 278 5 55 14 127 19 160 6 33 15 110 21 170 12 124 19 134 84 136
58 2 102 6 176 17 93 13 153 5 250 -35z m6643 -192 c31 -12 127 -100 127 -116
0 -19 31 -77 65 -120 59 -75 69 -125 36 -185 -15 -28 -16 -41 -8 -64 9 -27 7
-32 -21 -54 -30 -23 -31 -25 -17 -52 9 -18 25 -30 45 -34 40 -7 35 -27 -11
-43 -43 -15 -91 -16 -122 -2 -42 19 -87 101 -96 176 -5 38 -21 113 -36 168
-15 55 -38 138 -50 185 -13 47 -26 95 -30 107 -6 18 -2 25 16 32 31 13 72 13
102 2z m3041 -73 c-27 -35 -53 -66 -60 -70 -7 -5 -10 -16 -7 -27 3 -12 -14
-38 -57 -82 -60 -62 -100 -111 -202 -249 -69 -93 -75 -101 -104 -138 -19 -24
-24 -36 -16 -44 21 -21 97 32 225 157 121 118 131 125 169 125 34 0 45 6 71
37 54 63 86 91 117 102 52 17 40 -1 -92 -154 -131 -151 -186 -216 -276 -325
-215 -263 -522 -588 -614 -651 -42 -29 -56 -44 -51 -56 5 -14 19 -15 105 -9
54 3 106 10 116 15 9 5 56 20 103 35 63 19 111 43 178 89 135 91 139 93 151
81 21 -21 -322 -271 -462 -337 -42 -20 -72 -41 -80 -57 -7 -14 -28 -43 -48
-66 -96 -110 -123 -144 -137 -170 -22 -44 -42 -63 -114 -105 -36 -22 -95 -69
-130 -105 l-64 -65 -52 5 c-46 5 -54 3 -63 -14 -10 -19 -19 -20 -190 -18 -130
2 -180 6 -180 15 0 8 -16 10 -52 6 l-53 -5 -25 48 c-41 78 -77 128 -107 148
-26 17 -43 39 -79 103 -14 25 -1 112 19 126 17 12 778 -2 794 -14 8 -7 10 -32
6 -80 -4 -47 -2 -69 5 -69 15 0 149 178 251 335 102 156 100 154 261 321 104
108 412 451 423 470 6 11 1 14 -23 14 -40 0 -99 25 -106 45 -6 14 -8 14 -25
-1 -11 -9 -19 -25 -19 -35 0 -21 -59 -69 -84 -69 -9 0 -31 7 -47 16 -40 20
-34 43 16 70 40 20 56 46 36 59 -6 3 -11 37 -11 75 l0 68 40 7 c26 4 44 14 52
28 14 27 35 48 45 46 9 -2 39 8 63 20 8 5 16 15 18 24 2 12 -7 17 -39 19 -23
2 -44 9 -47 16 -6 19 58 75 119 104 45 21 86 49 184 125 110 85 167 123 188
123 5 0 -13 -28 -39 -62z m-284 13 c0 -10 -51 -57 -88 -81 -13 -8 -24 -23 -26
-34 -2 -17 -100 -96 -119 -96 -4 0 -25 -13 -45 -29 -25 -19 -53 -30 -84 -34
-27 -2 -48 -2 -48 1 0 3 18 20 40 39 22 19 40 40 40 47 0 24 52 62 178 127
129 67 152 76 152 60z m-10395 -121 c32 -22 94 -51 136 -65 64 -22 85 -34 124
-76 25 -27 45 -55 42 -62 -2 -7 -18 -13 -35 -15 -28 -3 -32 -7 -32 -33 0 -19
-5 -29 -14 -29 -15 0 -86 38 -96 51 -3 3 -15 11 -27 18 -13 6 -26 24 -29 39
-7 25 -32 59 -108 142 -17 19 -38 43 -45 53 -24 31 19 20 84 -23z m11213 -316
c29 -20 28 -56 -3 -102 -14 -20 -25 -44 -25 -54 0 -10 -7 -34 -16 -55 -35 -79
-44 -100 -74 -164 -16 -37 -30 -72 -30 -77 0 -6 -6 -17 -13 -24 -15 -15 -50
-72 -89 -143 -30 -56 -38 -72 -80 -165 -16 -36 -36 -77 -44 -92 -8 -14 -14
-32 -14 -38 0 -7 -34 -83 -76 -169 -92 -189 -105 -218 -139 -301 -15 -36 -36
-83 -46 -106 -10 -22 -19 -44 -19 -48 0 -4 -10 -31 -23 -59 -27 -60 -41 -97
-69 -182 -11 -33 -31 -80 -43 -105 l-24 -45 -64 3 c-42 3 -75 -1 -93 -10 -16
-8 -37 -13 -48 -10 -15 3 -17 10 -12 41 4 26 1 44 -11 61 l-17 24 -11 -44
c-10 -39 -9 -48 7 -69 14 -18 15 -27 7 -37 -12 -15 -75 -19 -82 -6 -10 15 37
221 70 312 97 265 154 434 163 478 9 52 59 164 97 221 13 19 23 42 23 53 0 11
12 44 26 74 17 36 24 63 20 79 -4 14 -2 25 4 25 5 0 10 4 10 10 0 11 77 180
114 250 14 25 35 50 48 56 116 55 149 72 190 97 48 30 63 31 141 12 17 -5 27
-3 27 4 0 6 -9 11 -19 11 -28 0 -51 11 -51 24 0 6 32 45 70 86 39 41 80 95 92
120 11 25 28 53 36 63 19 21 60 22 90 1z m-3403 -254 c6 -19 16 -45 23 -57 6
-12 12 -27 12 -33 0 -6 11 -26 24 -43 16 -22 21 -38 16 -52 -5 -13 -1 -28 11
-44 20 -25 26 -81 9 -81 -14 0 -38 40 -44 74 -3 16 -17 41 -31 56 -14 14 -25
33 -25 41 0 9 -9 24 -21 35 -15 13 -20 28 -18 56 2 20 0 40 -4 44 -4 4 -7 16
-7 26 0 14 6 19 22 16 16 -2 26 -14 33 -38z m588 -963 c9 -4 20 -14 24 -23 7
-19 83 -94 96 -94 4 0 6 -4 2 -9 -3 -5 6 -18 20 -29 25 -19 36 -50 14 -36 -9
5 -10 -6 -7 -40 4 -36 2 -49 -9 -53 -8 -3 -12 -12 -9 -19 3 -7 1 -16 -4 -19
-6 -4 -10 -29 -10 -57 0 -41 4 -51 19 -55 18 -5 61 -100 61 -136 0 -23 57 -49
80 -37 23 12 77 13 84 1 9 -13 66 -19 67 -7 0 6 7 -2 14 -19 7 -16 11 -44 8
-61 l-5 -31 138 -6 c75 -4 197 -7 271 -7 83 0 143 -4 156 -12 12 -6 72 -14
133 -18 94 -6 118 -11 155 -33 24 -14 76 -41 114 -60 39 -19 76 -41 84 -51 7
-9 23 -16 34 -16 16 0 18 -3 9 -12 -8 -8 -18 -8 -34 -1 -16 7 -34 5 -70 -9
-27 -10 -57 -18 -68 -18 -11 0 -24 -9 -30 -20 -9 -17 -7 -22 12 -29 13 -5 42
-17 65 -26 53 -22 95 -16 160 24 53 33 73 38 73 20 0 -18 -145 -227 -199 -286
-20 -23 -23 -23 -313 -24 -161 -1 -349 -2 -417 -3 -132 -1 -122 -5 -149 51 -6
11 -30 21 -68 28 -32 6 -89 21 -125 34 l-66 24 -2 123 c0 68 -6 135 -11 149
-6 15 -7 38 -4 51 5 19 0 32 -22 55 -25 26 -34 29 -95 29 -47 0 -70 4 -79 15
-8 10 -30 15 -61 15 -60 0 -67 22 -13 40 57 19 81 34 76 48 -2 8 5 20 17 28
23 17 28 40 9 46 -7 3 -19 33 -28 68 -14 57 -20 67 -52 84 -43 22 -58 71 -34
108 32 50 30 88 -9 163 -20 39 -42 77 -49 85 -19 23 -47 100 -40 111 3 6 19 0
37 -14 18 -13 40 -26 50 -30z m-5210 -40 c378 -10 397 -12 397 -30 0 -23 -16
-55 -43 -85 -23 -25 -61 -93 -107 -191 l-30 -64 -193 7 c-105 3 -231 9 -279
12 -83 6 -89 8 -111 38 -13 17 -32 47 -42 66 -9 19 -25 44 -35 55 -10 11 -25
42 -34 68 -9 27 -23 62 -32 79 -24 47 -13 59 53 58 32 -1 237 -7 456 -13z
m9785 -2 c27 -5 32 -10 32 -35 0 -16 4 -39 9 -52 5 -14 3 -46 -4 -81 -6 -32
-10 -82 -7 -112 6 -69 -17 -121 -56 -132 -25 -8 -192 -9 -557 -6 -88 1 -279 1
-424 -1 -290 -2 -262 -7 -315 54 -31 36 -67 123 -94 228 l-30 114 28 16 c25
15 89 17 706 15 373 -2 694 -5 712 -8z m-13450 -22 c7 -9 16 -32 22 -51 5 -19
17 -43 26 -53 9 -10 14 -25 10 -35 -5 -14 -16 -15 -69 -11 -34 4 -82 10 -107
14 -48 9 -49 10 -35 78 3 17 8 40 11 52 3 16 13 23 37 26 49 7 91 -1 105 -20z
m7593 17 c10 -6 19 -18 19 -26 0 -19 27 -73 50 -99 10 -11 20 -36 24 -56 4
-26 24 -55 67 -100 77 -82 97 -115 81 -131 -9 -9 -203 -13 -784 -16 -425 -3
-855 -4 -955 -2 -100 1 -235 -3 -300 -10 -121 -13 -191 -5 -185 19 1 7 -6 25
-17 39 -32 45 -48 329 -20 357 12 12 122 16 709 21 382 4 697 8 699 10 11 10
594 3 612 -6z m-2607 -54 c28 -33 44 -60 40 -69 -3 -9 4 -37 15 -63 12 -25 21
-62 21 -80 0 -35 16 -112 32 -153 5 -13 6 -26 4 -29 -3 -3 -74 -4 -158 -3 -84
1 -157 1 -163 2 -5 0 -57 -3 -115 -6 -118 -6 -212 9 -203 31 3 8 -5 22 -17 32
l-22 18 24 49 c16 34 33 55 56 65 18 9 50 38 73 65 22 27 46 54 53 59 7 6 28
36 46 66 19 30 39 58 45 62 5 4 58 8 116 8 l107 0 46 -54z m-2144 2 c56 -33
77 -77 81 -173 l4 -80 -42 2 c-59 2 -86 18 -73 43 15 28 13 34 -26 72 l-35 36
21 42 c12 23 19 51 17 61 -7 25 6 24 53 -3z m12797 -99 c15 -5 55 -36 88 -68
58 -56 159 -132 220 -164 29 -16 27 -16 -75 -16 -58 0 -161 -1 -230 -2 -69 -1
-136 2 -148 5 -22 7 -22 9 -8 32 9 13 16 28 16 34 0 6 9 20 20 32 20 22 60
117 60 143 0 18 18 19 57 4z m-15522 -62 c64 -14 80 -33 52 -65 -8 -9 -17 -33
-20 -52 -12 -73 -20 -100 -29 -106 -13 -8 -303 -7 -340 1 -25 6 -40 25 -19 25
14 0 22 30 12 47 -6 11 -2 30 10 57 10 23 19 51 19 63 0 15 7 24 23 27 12 3
31 7 42 9 43 10 193 5 250 -6z m2832 -129 c6 -7 15 -26 21 -43 5 -16 13 -38
17 -47 6 -16 1 -18 -38 -18 -24 0 -59 3 -76 6 -26 5 -31 11 -31 34 0 16 -7 30
-15 34 -21 8 -19 34 3 39 37 10 110 7 119 -5z m707 -44 c14 -8 45 -18 68 -21
24 -3 53 -14 66 -24 22 -17 22 -18 3 -24 -31 -10 -151 -12 -157 -3 -11 18 -26
5 -48 -42 -23 -50 -43 -60 -25 -13 6 18 6 30 -2 39 -15 18 -76 18 -111 0 -26
-14 -27 -13 -64 39 -20 30 -33 59 -29 65 11 19 268 5 299 -16z m-4880 -274 c5
-5 -27 -46 -83 -103 -80 -82 -161 -185 -161 -205 0 -4 -26 -32 -57 -63 -32
-31 -70 -69 -84 -85 -14 -16 -41 -42 -59 -59 -26 -24 -37 -47 -56 -120 -14
-53 -21 -102 -18 -120 6 -31 59 -95 80 -95 6 0 28 -11 49 -25 l37 -26 71 25
c60 21 74 30 84 55 7 17 26 40 43 52 16 13 30 29 30 36 0 7 12 20 27 30 16 10
51 41 78 68 28 28 68 67 90 86 22 19 64 62 92 96 29 33 89 92 134 129 45 38
117 99 160 137 44 37 83 67 88 67 5 0 34 22 64 50 30 27 66 54 79 59 25 9 597
5 646 -5 20 -4 22 -10 23 -62 0 -31 4 -91 9 -132 5 -41 13 -120 19 -175 14
-136 40 -313 52 -351 17 -55 11 -82 -28 -126 -21 -24 -44 -47 -51 -51 -7 -5
-27 -38 -45 -75 -29 -60 -32 -71 -23 -110 8 -39 7 -45 -17 -70 -20 -21 -27
-39 -27 -68 0 -33 -5 -42 -30 -56 -16 -9 -36 -32 -44 -51 -8 -20 -23 -40 -33
-45 -30 -17 -948 -13 -1030 4 -16 3 -25 15 -33 43 -11 44 -23 55 -62 65 -33 7
-38 -8 -8 -24 21 -11 27 -30 10 -30 -6 0 -27 -10 -48 -23 -56 -36 -124 -50
-200 -45 -80 6 -198 -3 -195 -16 2 -5 20 -10 40 -12 103 -10 489 -24 648 -24
99 0 223 -4 275 -10 52 -5 183 -14 290 -19 188 -8 196 -8 224 12 32 22 97 29
103 10 2 -6 -15 -24 -39 -39 -24 -15 -54 -38 -68 -50 -14 -12 -49 -35 -77 -50
-29 -15 -53 -33 -53 -39 0 -6 -18 -29 -40 -51 -56 -56 -53 -76 23 -154 57 -58
90 -84 218 -167 49 -32 222 -210 215 -221 -3 -5 -43 -12 -89 -15 -87 -6 -132
-20 -141 -43 -7 -18 13 -22 164 -28 69 -4 148 -8 175 -11 28 -2 106 -6 175 -9
69 -4 141 -11 160 -17 19 -6 84 -12 144 -13 71 -1 111 -6 113 -13 3 -7 -18
-29 -46 -50 -28 -21 -53 -48 -57 -60 -3 -12 -14 -29 -25 -39 -10 -9 -19 -21
-19 -25 0 -4 -25 -32 -56 -61 -30 -29 -61 -66 -69 -84 -7 -17 -36 -50 -64 -74
-28 -24 -51 -47 -51 -52 0 -15 -43 -68 -56 -68 -7 0 -23 -17 -35 -37 -13 -21
-30 -43 -39 -50 -11 -10 -267 -12 -1122 -13 l-1108 0 0 1507 0 1506 352 -7
c194 -3 357 -11 362 -16z m4341 -21 c15 -29 15 -54 -2 -112 -4 -16 -2 -17 15
-8 36 19 49 13 62 -33 12 -42 11 -46 -15 -81 -15 -19 -25 -39 -21 -43 4 -4 13
1 20 11 14 18 46 23 46 7 0 -6 -12 -28 -26 -50 -15 -22 -25 -42 -22 -45 2 -2
51 19 107 47 88 44 110 60 147 107 43 54 44 58 44 128 l0 73 128 -4 c205 -7
228 -15 203 -64 -5 -9 -18 -53 -29 -97 -84 -343 -84 -342 -81 -442 1 -58 -3
-110 -9 -126 -18 -42 -16 -107 3 -107 8 0 15 -7 15 -15 0 -8 -7 -15 -16 -15
-52 0 67 -78 121 -79 17 -1 55 -10 85 -21 30 -11 88 -23 128 -27 40 -3 75 -10
78 -14 3 -5 23 -9 44 -9 40 0 109 -28 110 -44 0 -4 -8 -5 -17 -1 -10 4 -60 11
-111 16 -51 5 -101 13 -112 19 -29 16 -101 13 -94 -4 7 -20 -26 -26 -142 -26
-77 0 -103 -3 -107 -14 -7 -18 61 -26 238 -26 77 0 156 -5 176 -10 20 -6 180
-14 355 -20 568 -17 868 -30 917 -40 27 -6 77 -10 111 -10 53 0 68 -4 102 -29
96 -71 611 -171 796 -154 91 8 119 -4 55 -24 -53 -15 -57 -31 -11 -47 46 -17
637 -10 759 9 126 18 281 50 318 64 31 12 422 15 501 5 49 -7 60 -26 26 -44
-11 -6 -20 -17 -20 -24 0 -7 -9 -21 -20 -31 -11 -10 -20 -23 -20 -28 0 -6 -19
-35 -42 -66 -24 -31 -50 -69 -59 -86 -9 -16 -26 -35 -39 -41 -12 -7 -42 -29
-67 -50 -25 -21 -54 -45 -64 -52 -11 -7 -29 -32 -40 -55 -18 -33 -20 -52 -15
-99 5 -52 4 -59 -17 -70 -12 -7 -51 -13 -87 -13 l-65 0 -9 -36 c-7 -27 -19
-43 -47 -60 -21 -13 -41 -31 -44 -39 -8 -23 -64 -80 -79 -80 -23 0 -41 -29
-28 -42 20 -20 13 -28 -14 -18 -14 6 -37 10 -51 10 l-25 0 31 -36 c43 -48 30
-64 -51 -64 -74 0 -84 -17 -34 -61 29 -25 36 -38 36 -66 0 -31 2 -34 15 -23
18 15 21 13 50 -36 12 -20 62 -78 111 -130 76 -79 240 -254 253 -269 2 -3
-1059 -5 -2359 -5 l-2363 0 6 47 c3 26 10 49 16 51 6 2 13 19 17 37 10 57 20
60 198 58 712 -7 953 -15 998 -29 88 -28 848 -1 1017 37 25 5 64 22 85 37 36
25 46 27 127 25 49 -1 97 -7 108 -12 25 -14 99 -14 176 0 79 13 162 18 321 19
113 0 134 3 152 19 12 10 19 21 15 25 -4 3 2 12 12 20 28 20 11 33 -57 40 -35
3 -88 10 -118 15 -199 31 -290 43 -404 52 -71 5 -133 12 -138 15 -5 3 -1 15 9
26 17 19 17 21 -4 56 -19 34 -31 41 -132 76 -61 21 -111 43 -111 47 0 19 215
-2 272 -26 54 -22 215 -57 288 -62 76 -5 129 10 111 31 -21 26 -124 47 -346
71 -71 7 -161 19 -200 24 -195 30 -282 40 -410 46 -77 3 -165 11 -196 16 -73
12 -128 -4 -147 -44 -8 -17 -29 -35 -50 -44 -38 -16 -87 -13 -262 16 -30 5
-73 12 -95 16 -22 3 -126 9 -232 13 -106 4 -196 11 -200 16 -4 5 0 13 11 20
61 37 62 38 31 90 -34 58 -53 71 -130 86 -109 21 -302 80 -359 109 -98 51
-159 112 -194 194 -17 39 -33 80 -36 90 -4 11 -16 17 -36 17 -35 0 -40 9 -43
71 l-2 43 45 8 c168 27 171 28 151 52 -8 10 -45 17 -120 21 -60 4 -113 10
-119 14 -28 17 -38 541 -12 662 5 24 3 48 -7 70 -8 19 -16 57 -18 84 -2 28 -9
86 -15 130 -17 121 -23 284 -12 298 20 24 32 92 23 125 -9 31 -9 32 31 42 22
7 67 9 102 5 50 -5 67 -3 96 14 19 11 36 20 37 20 1 1 10 -13 18 -30z m4852
-1 c12 -13 14 -21 7 -28 -7 -7 -3 -37 13 -98 13 -48 28 -107 32 -132 11 -56
66 -266 80 -301 5 -15 15 -71 21 -125 6 -55 17 -121 25 -149 7 -27 19 -76 26
-108 12 -58 12 -64 -20 -152 -6 -16 -13 -47 -16 -69 -4 -21 -17 -49 -30 -62
-23 -23 -29 -24 -187 -24 -173 0 -232 9 -248 40 -10 19 -107 56 -175 66 -111
16 -171 24 -285 38 -69 9 -150 21 -180 26 -105 19 -401 32 -460 21 -141 -27
-505 -41 -585 -21 -27 6 -28 8 -10 14 11 4 31 13 45 20 14 8 41 16 60 20 19 3
53 18 75 32 22 14 31 22 20 18 -11 -3 -40 -11 -65 -16 -73 -16 -123 -29 -160
-45 -20 -8 -60 -18 -90 -23 -30 -5 -73 -13 -95 -19 -76 -21 -1091 -7 -1127 15
-5 3 -6 25 -2 49 5 38 3 45 -17 58 -13 9 -60 21 -104 27 -106 16 -156 42 -229
117 -33 35 -66 63 -72 63 -14 0 -58 113 -51 132 2 7 0 23 -4 36 -7 17 -4 27
11 42 25 25 25 59 3 98 -17 29 -16 33 6 99 33 97 122 305 137 323 12 12 77 14
412 15 445 0 438 1 468 -71 8 -19 35 -67 59 -107 25 -39 45 -76 45 -81 0 -6
15 -42 34 -81 19 -38 47 -99 62 -135 55 -127 135 -259 171 -281 22 -14 36 -32
40 -50 3 -16 12 -34 19 -40 8 -6 14 -19 14 -28 0 -10 12 -33 26 -52 18 -24 24
-42 20 -61 -5 -23 -1 -29 20 -34 14 -4 51 -2 82 4 74 15 124 22 192 27 52 4
108 17 158 36 13 5 41 9 63 9 35 0 118 36 139 60 3 3 24 20 47 38 53 42 133
159 133 195 0 56 -55 58 -224 8 -61 -18 -72 -19 -102 -6 -19 8 -65 22 -102 31
-90 23 -192 90 -192 127 0 16 -21 27 -50 27 -25 0 -80 59 -80 86 0 11 -7 42
-16 68 -9 26 -14 49 -11 52 8 9 75 9 157 1 278 -25 859 -11 1024 26 55 12 101
27 103 33 6 19 -77 46 -172 55 -49 5 -176 13 -281 18 -106 5 -201 14 -213 20
-27 15 -27 37 0 52 41 21 2 30 -160 36 -88 3 -161 10 -161 14 0 4 354 8 788 7
470 0 821 4 872 10 130 15 245 11 267 -10z m5569 0 c4 -4 1 -14 -5 -22 -7 -8
-10 -20 -6 -26 4 -6 -7 -15 -24 -21 -39 -14 -33 -25 20 -33 57 -9 79 -23 79
-49 1 -16 12 -28 43 -42 51 -24 60 -50 20 -58 -67 -13 -123 -31 -123 -39 0 -4
5 -8 10 -8 6 0 15 -11 20 -25 6 -17 17 -25 33 -25 32 0 59 -22 52 -42 -4 -9
-20 -22 -37 -29 l-30 -12 31 -13 c35 -15 37 -21 16 -48 -10 -13 -26 -19 -47
-18 -58 1 -113 14 -130 29 -9 8 -24 13 -34 11 -32 -6 -25 -25 16 -41 28 -11
40 -21 40 -36 0 -19 6 -23 63 -35 20 -5 27 -12 27 -31 0 -20 7 -26 43 -35 23
-6 53 -17 67 -24 14 -8 44 -19 68 -25 41 -11 45 -16 83 -94 22 -45 56 -99 76
-119 32 -33 37 -45 41 -100 7 -87 5 -196 -7 -303 -5 -49 -10 -130 -11 -180 0
-62 -7 -109 -21 -150 -15 -44 -19 -82 -18 -145 3 -136 -8 -190 -47 -240 -40
-50 -38 -71 9 -111 20 -17 28 -32 24 -42 -5 -15 -20 -16 -114 -12 -59 3 -128
8 -153 11 -25 3 -63 7 -85 10 -22 3 -74 9 -115 14 -41 6 -133 15 -205 20 -71
6 -157 15 -190 20 -33 4 -117 9 -186 9 -69 1 -141 6 -159 13 -27 9 -43 8 -84
-5 -81 -26 -328 -38 -349 -18 -4 4 20 18 55 31 35 12 82 33 106 46 35 21 42
30 42 55 0 16 -7 41 -16 54 -17 26 -32 30 -149 45 -38 4 -79 11 -90 13 -11 3
-25 6 -32 6 -22 2 -98 74 -137 130 -21 31 -51 70 -67 86 -17 18 -29 42 -29 58
0 16 -8 30 -20 37 -15 8 -19 17 -14 36 4 14 1 31 -7 41 -9 10 -14 42 -14 89 0
66 -3 76 -23 90 -18 12 -22 22 -17 38 4 11 11 98 16 191 11 216 13 233 27 247
7 7 74 17 151 22 170 13 186 21 81 41 -60 11 -100 28 -100 43 0 8 9 25 20 39
11 14 20 34 20 44 0 10 9 36 20 57 11 22 20 52 20 68 -1 16 3 62 9 102 11 73
5 123 -19 187 -13 35 3 57 38 53 20 -2 29 -12 40 -46 17 -53 32 -60 82 -37 56
25 74 48 61 74 -6 11 -11 29 -11 40 0 11 -7 27 -16 36 -11 10 -14 24 -10 41 5
17 2 26 -9 30 -8 4 -15 12 -15 19 0 10 59 13 271 14 150 0 275 3 278 7 8 8
748 0 757 -8z m-7516 -49 c17 -6 35 -20 41 -30 8 -16 6 -21 -14 -28 -35 -13
-344 -18 -355 -6 -6 6 -13 24 -17 42 -5 25 -3 32 12 37 29 9 299 -4 333 -15z
m4617 -243 l28 -24 -19 -33 c-10 -19 -39 -74 -65 -123 -26 -49 -54 -94 -62
-99 -23 -15 -129 1 -129 19 0 35 73 154 134 217 36 37 70 67 75 67 6 0 22 -11
38 -24z m-872 -420 c201 -17 332 -30 430 -43 l60 -9 -3 -39 c-5 -58 -31 -106
-76 -136 -33 -22 -74 -77 -76 -101 -1 -27 50 7 149 98 62 57 121 109 131 114
36 19 30 -8 -13 -62 -24 -29 -80 -114 -126 -188 -46 -74 -93 -151 -106 -170
-39 -63 -88 -144 -114 -190 -13 -25 -31 -49 -38 -53 -7 -4 -13 -13 -13 -19 0
-6 -11 -26 -25 -44 -14 -18 -25 -36 -25 -39 0 -4 -9 -20 -21 -36 -32 -45 -22
-68 43 -101 46 -23 60 -27 75 -17 21 13 103 112 103 124 0 4 19 31 43 59 85
102 100 132 114 224 15 103 27 119 76 103 32 -11 36 -16 42 -59 10 -71 29
-106 74 -142 47 -38 66 -96 37 -112 -12 -7 -16 -24 -16 -71 0 -45 -6 -74 -22
-103 -20 -38 -21 -46 -9 -82 13 -38 12 -41 -20 -88 -50 -73 -68 -151 -57 -249
5 -44 11 -104 14 -133 3 -32 13 -61 23 -71 18 -18 158 -46 306 -61 92 -10 196
-27 203 -34 3 -3 3 -8 0 -11 -8 -8 -189 -25 -283 -25 -118 -1 -285 -23 -266
-35 33 -20 106 -24 271 -13 192 12 332 2 425 -31 28 -10 84 -19 125 -20 101
-3 106 -11 16 -26 -26 -4 -35 -10 -29 -16 7 -7 44 -7 109 0 194 20 373 14 412
-15 15 -11 14 -13 -13 -20 -38 -9 -206 -78 -262 -107 -67 -34 -55 -57 40 -77
41 -8 117 -9 261 -4 222 7 205 11 252 -48 11 -14 34 -22 164 -56 l75 -20
-1932 -1 -1933 -1 -1 23 c0 12 1 49 2 82 2 33 2 80 1 105 -1 25 -2 104 -3 176
-1 127 0 136 36 240 20 60 50 143 66 184 16 41 54 140 84 219 31 80 58 161 61
180 8 50 34 96 106 191 14 19 33 53 42 75 10 22 41 61 72 88 61 55 98 120 107
186 4 36 14 53 51 89 25 24 48 53 52 64 8 26 59 101 80 119 45 37 88 149 84
216 -1 15 -2 32 -1 36 1 12 342 2 566 -17z m1765 -224 c0 -82 -23 -137 -81
-192 -39 -37 -40 -38 -26 -71 14 -34 14 -34 76 -31 34 2 73 7 87 12 27 11 32
5 36 -40 3 -22 -2 -25 -49 -33 -37 -6 -50 -12 -47 -22 3 -7 1 -23 -6 -34 -8
-16 -6 -29 10 -60 11 -22 20 -47 20 -56 0 -9 6 -26 14 -38 26 -41 27 -62 6
-85 -12 -12 -23 -36 -25 -53 -2 -17 -10 -39 -18 -48 -19 -21 -30 -58 -32 -101
-1 -19 -4 -46 -8 -60 -6 -20 -1 -33 22 -61 29 -35 33 -37 118 -44 49 -5 100
-7 115 -6 35 3 179 -43 232 -74 24 -14 51 -25 62 -26 10 0 37 -9 59 -19 l40
-18 -80 5 c-113 6 -266 20 -360 34 -44 6 -164 12 -266 12 -184 1 -186 1 -238
-26 -29 -15 -59 -27 -66 -27 -32 0 -122 150 -149 249 -26 93 -15 225 29 346
92 257 133 316 300 435 55 39 106 75 113 79 11 6 15 22 21 77 1 10 62 42 84
43 4 1 7 -30 7 -67z m-10757 -342 c64 0 117 -4 117 -8 0 -5 -17 -16 -37 -24
-132 -54 -149 -58 -233 -58 -106 0 -114 5 -97 51 16 46 24 51 82 45 28 -3 103
-6 168 -6z m-85 -204 c53 -8 220 -17 369 -21 190 -5 289 -11 325 -21 71 -20
156 -35 195 -34 38 1 103 -24 103 -39 0 -6 -11 -11 -24 -11 -25 0 -56 -32 -56
-58 0 -8 -13 -30 -30 -49 -19 -22 -30 -45 -30 -64 0 -39 -26 -83 -58 -101 -14
-7 -40 -27 -58 -44 -24 -22 -49 -33 -96 -42 -35 -6 -68 -18 -74 -26 -6 -9 -19
-13 -32 -10 -21 6 -112 -48 -112 -66 0 -13 37 -13 97 0 37 8 63 7 108 -3 56
-14 58 -15 34 -25 -14 -6 -91 -13 -170 -17 -158 -8 -158 -8 -274 -90 -57 -40
-58 -40 -148 -40 l-92 0 -25 61 c-33 81 -39 87 -107 109 -32 11 -62 23 -68 27
-5 4 -26 8 -47 8 -28 0 -40 5 -44 18 -3 9 -16 41 -30 70 -30 66 -59 237 -49
299 5 33 17 55 46 86 22 23 42 52 45 64 3 12 16 24 27 26 49 10 183 6 275 -7z
m14142 -557 c0 -63 14 -93 67 -146 54 -53 56 -60 26 -95 -11 -12 -12 -21 -4
-36 8 -15 7 -29 -4 -56 -14 -33 -19 -36 -55 -36 -21 0 -61 8 -87 19 -26 10
-77 27 -113 37 -60 17 -90 33 -90 49 0 4 7 5 15 1 11 -4 15 2 15 22 0 26 40
147 74 224 9 21 16 41 16 45 0 5 7 18 15 30 l15 21 55 -26 c47 -22 55 -30 55
-53z m-4137 -210 c82 -42 112 -67 98 -82 -4 -4 -55 -6 -112 -5 l-104 3 -3 63
c-3 57 -1 62 18 62 11 0 57 -19 103 -41z m-7659 -239 c93 -86 200 -114 481
-126 140 -6 396 -36 485 -57 55 -13 55 -14 21 -20 -18 -4 -113 -7 -210 -7
-106 0 -222 -6 -290 -16 -108 -15 -165 -15 -345 2 -48 4 -66 3 -62 -5 12 -20
-24 -24 -82 -11 -96 22 -92 15 -92 145 0 98 2 115 18 124 26 15 29 14 76 -29z
m-1024 -70 c25 -49 50 -159 50 -222 0 -30 7 -80 15 -111 8 -32 15 -62 15 -67
0 -6 -144 -10 -375 -10 -333 0 -374 2 -368 15 3 9 23 25 44 36 22 11 81 62
132 113 51 51 112 106 136 122 95 64 146 94 161 94 8 0 21 9 28 20 7 11 23 20
35 20 13 0 32 7 43 15 31 24 64 14 84 -25z m12470 -260 c66 -13 208 -23 347
-24 67 -1 124 -4 128 -7 3 -4 9 -32 12 -63 l6 -56 -524 0 c-287 0 -519 4 -513
8 5 5 31 17 58 27 28 10 68 35 90 55 37 34 102 62 166 73 34 6 175 -2 230 -13z"/>
<path d="M13115 4194 c-44 -30 -95 -72 -113 -92 -35 -40 -65 -92 -57 -100 11
-11 232 171 266 219 19 27 19 29 2 29 -10 -1 -54 -26 -98 -56z"/>
</g>
</svg>
