<?xml version="1.0" standalone="no"?>
<!DOCTYPE svg PUBLIC "-//W3C//DTD SVG 20010904//EN"
 "http://www.w3.org/TR/2001/REC-SVG-20010904/DTD/svg10.dtd">
<svg version="1.0" xmlns="http://www.w3.org/2000/svg"
 width="800.000000pt" height="800.000000pt" viewBox="0 0 800.000000 800.000000"
 preserveAspectRatio="xMidYMid meet">
<metadata>
Created by potrace 1.16, written by Peter Selinger 2001-2019
</metadata>
<g transform="translate(0.000000,800.000000) scale(0.100000,-0.100000)"
fill="#000000" stroke="none">
<path d="M4048 7903 c-16 -2 -28 -9 -28 -14 0 -5 -19 -18 -42 -28 -39 -16 -97
-65 -73 -61 25 5 28 -2 5 -13 -27 -14 -54 -11 -44 5 3 5 -3 4 -15 -4 -12 -7
-21 -17 -21 -22 0 -4 8 -2 18 5 15 13 16 12 3 -4 -11 -14 -26 -17 -90 -13 -42
2 -57 1 -33 -1 29 -3 42 -9 42 -19 0 -10 -6 -13 -19 -9 -31 9 -85 8 -111 -4
-22 -9 -18 -10 25 -7 28 2 59 -1 69 -7 18 -9 17 -11 -15 -27 -21 -10 -40 -13
-51 -8 -13 6 -15 4 -11 -12 3 -12 0 -20 -8 -20 -7 0 -9 3 -6 7 4 3 2 12 -4 20
-9 10 -15 11 -26 2 -7 -7 -16 -9 -20 -6 -3 4 -14 2 -25 -4 -11 -6 -32 -13 -46
-15 -15 -3 -38 -18 -52 -34 -14 -17 -28 -30 -32 -30 -4 0 -24 -17 -43 -37 -24
-26 -33 -31 -28 -17 8 21 58 84 67 84 11 0 54 50 47 55 -5 2 -16 -4 -26 -15
-10 -11 -21 -17 -25 -15 -5 3 -17 -6 -27 -20 -10 -13 -28 -26 -41 -28 -12 -2
-28 -10 -35 -17 -10 -12 -9 -12 5 -2 11 9 18 10 23 2 3 -5 3 -10 -2 -10 -4 0
-17 -21 -28 -48 -14 -34 -20 -42 -23 -28 -4 18 -5 18 -18 -5 -14 -23 -14 -22
-10 16 5 47 15 75 26 75 7 0 23 38 21 52 0 3 7 12 17 20 15 12 16 11 3 -4 -27
-35 6 -17 48 26 25 25 59 48 83 55 58 18 42 23 -21 6 -61 -16 -89 -32 -137
-83 -20 -20 -33 -31 -29 -24 6 11 3 11 -12 1 -21 -13 -73 -89 -73 -108 0 -6
-4 -11 -10 -11 -5 0 -10 -7 -10 -15 0 -8 -4 -15 -9 -15 -5 0 -12 -8 -14 -17
-3 -11 -5 -7 -6 10 -1 29 -21 38 -21 9 0 -9 -11 -34 -25 -54 -14 -20 -25 -44
-25 -52 0 -9 -7 -16 -15 -16 -9 0 -17 -14 -21 -39 -6 -35 -11 -41 -51 -56 -39
-15 -44 -21 -40 -41 4 -23 3 -24 -19 -10 -15 11 -24 12 -26 4 -3 -8 -9 -8 -25
0 -19 10 -20 8 -19 -24 1 -19 8 -39 16 -44 11 -7 1 -10 -33 -10 -54 0 -60 -15
-19 -56 24 -25 29 -44 10 -44 -6 0 -3 -6 8 -14 10 -8 16 -18 11 -22 -4 -4 -7
-2 -7 4 0 7 -9 12 -20 12 -19 0 -20 -1 -4 -24 10 -16 22 -23 32 -20 13 4 13 3
-2 -6 -14 -10 -20 -9 -27 1 -8 12 -11 12 -18 0 -7 -10 -4 -19 7 -28 15 -11 14
-13 -13 -14 -16 -1 -34 -1 -39 0 -4 1 -17 -1 -28 -5 -19 -6 -19 -6 4 -22 12
-8 24 -16 26 -18 2 -1 -3 -17 -11 -36 -8 -19 -15 -45 -15 -59 0 -13 -5 -51
-11 -83 -12 -66 -3 -143 30 -261 11 -38 24 -91 29 -117 5 -26 13 -55 18 -65 5
-10 13 -38 17 -63 4 -25 12 -53 17 -63 16 -32 30 -287 16 -297 -4 -3 -1 -30 7
-60 8 -30 15 -71 15 -90 1 -19 8 -53 16 -75 9 -22 22 -71 30 -110 21 -100 23
-104 35 -82 7 11 17 16 29 12 14 -4 18 0 17 17 0 13 3 60 6 106 5 57 3 82 -4
82 -7 0 -9 9 -5 23 14 46 16 68 8 63 -11 -6 -24 144 -23 249 1 95 20 174 44
186 15 9 18 17 13 42 -10 50 -7 79 10 105 15 22 15 27 2 36 -11 8 -14 28 -12
79 3 55 0 67 -12 67 -14 0 -14 2 0 15 9 9 13 27 11 46 -2 17 3 48 10 70 8 21
10 39 5 39 -18 0 66 121 103 148 36 27 97 91 97 102 0 6 5 8 11 5 6 -4 17 1
24 11 13 18 14 18 15 2 0 -10 5 -18 11 -18 6 0 9 -7 5 -15 -4 -12 3 -15 32
-14 26 0 50 10 82 35 63 47 115 71 188 85 34 6 65 16 68 20 3 5 16 9 30 9 14
0 34 5 46 11 33 18 234 -28 272 -63 6 -4 18 -8 28 -8 10 0 18 -4 18 -9 0 -14
63 -71 78 -71 6 0 12 -5 12 -11 0 -5 13 -15 30 -20 16 -6 32 -18 35 -27 5 -17
70 -64 81 -60 3 2 10 -5 15 -14 6 -10 19 -18 30 -18 11 0 29 -9 41 -20 12 -11
30 -20 39 -20 10 0 22 -6 26 -13 4 -7 22 -23 40 -35 53 -38 259 -141 279 -141
45 1 108 -15 124 -31 10 -10 24 -22 33 -26 20 -12 83 -116 82 -134 -1 -8 -3
-23 -3 -33 -2 -16 -4 -16 -27 -1 -14 9 -31 14 -40 11 -8 -4 -17 -2 -20 3 -4 6
-11 10 -16 10 -6 0 -8 -3 -6 -7 3 -5 -22 -9 -54 -10 -33 -1 -59 2 -59 7 0 6
-6 10 -14 10 -7 0 -19 7 -26 15 -13 15 -35 21 -26 7 2 -4 -41 -8 -97 -7 -56 0
-135 -4 -176 -8 -51 -6 -71 -5 -66 2 7 12 -39 -5 -62 -22 -7 -5 -19 -7 -28 -4
-8 4 -17 2 -20 -3 -3 -5 -13 -9 -23 -9 -9 0 -43 -5 -75 -12 -41 -8 -62 -8 -69
-1 -8 8 -15 6 -25 -4 -8 -8 -18 -12 -22 -9 -9 5 -106 17 -141 17 -86 0 -291
-32 -337 -53 -24 -10 -49 -16 -57 -13 -8 3 -17 1 -21 -5 -3 -6 -19 -11 -34
-11 -16 0 -42 -7 -57 -15 -16 -8 -46 -15 -66 -15 -37 0 -55 -19 -20 -21 11 0
13 -2 4 -6 -8 -3 -25 0 -38 7 -19 11 -27 10 -46 -3 -53 -36 -83 -66 -74 -74 5
-4 11 -2 13 5 5 14 33 16 33 2 0 -5 -5 -10 -11 -10 -5 0 -7 -5 -3 -12 5 -7 2
-9 -9 -5 -8 3 -21 -1 -27 -9 -7 -8 -9 -14 -4 -14 5 0 1 -5 -10 -11 -15 -9 -16
-13 -5 -20 10 -6 5 -9 -16 -9 -29 -1 -29 -1 -11 -15 11 -8 16 -15 12 -15 -5 0
-3 -7 4 -15 7 -8 8 -15 3 -15 -4 0 -8 -19 -8 -41 0 -25 -5 -43 -12 -46 -18 -7
-17 -53 2 -53 8 0 15 -4 15 -9 0 -5 14 -9 31 -9 17 1 34 -3 37 -9 13 -19 51
-33 89 -33 48 0 86 -24 63 -40 -11 -7 -6 -10 21 -10 20 0 54 -7 74 -16 44 -18
201 -22 231 -6 10 6 34 16 52 22 17 7 32 15 32 19 0 3 10 7 23 7 87 4 184 44
197 80 5 13 13 24 17 24 11 0 34 65 40 112 3 21 11 42 19 49 8 6 14 17 14 24
0 7 21 29 46 50 l46 38 42 -42 c23 -22 47 -41 53 -41 13 0 68 -108 79 -155 8
-33 77 -102 111 -111 11 -3 31 -1 42 6 12 6 78 12 149 13 107 2 135 6 176 25
27 12 56 22 66 22 10 0 23 7 30 14 6 8 30 16 53 18 29 2 41 7 39 16 -1 8 2 11
7 8 5 -4 12 -2 16 4 3 5 15 10 26 10 10 0 19 7 19 15 0 8 4 15 9 15 13 0 32
52 28 75 -2 11 -9 31 -14 45 -8 19 -7 27 6 37 14 11 13 12 -6 13 -25 0 -31 15
-10 23 8 3 6 10 -8 21 -16 12 -17 15 -4 16 18 0 18 29 2 70 -7 17 -7 29 -1 38
8 9 4 12 -13 13 -22 0 -23 1 -4 9 18 7 19 8 3 15 -10 4 -16 11 -13 15 3 5 1
12 -5 15 -8 5 -7 11 1 21 8 10 8 14 0 14 -6 0 -11 9 -11 20 0 32 40 21 46 -12
4 -21 6 -21 13 -4 6 15 14 -6 29 -75 19 -85 31 -157 62 -394 24 -182 26 -183
27 -19 0 127 4 167 17 192 20 39 20 56 1 72 -9 7 -13 15 -10 18 3 3 -2 13 -10
22 -18 20 -22 155 -6 250 6 39 9 147 5 270 -2 113 -5 214 -5 225 0 11 -6 30
-14 41 -19 30 -31 119 -16 128 22 14 10 74 -28 135 -8 13 -16 40 -16 60 -1 27
-12 51 -43 90 -23 29 -42 59 -42 67 0 19 -67 92 -102 110 -21 11 -29 24 -34
54 -9 56 -36 82 -134 132 -47 23 -91 48 -98 55 -25 24 -96 35 -185 30 -70 -4
-90 -2 -94 9 -3 8 -9 14 -15 14 -5 0 -6 -5 -3 -10 4 -6 -7 -8 -29 -5 -20 2
-36 0 -36 -4 0 -15 -63 5 -104 32 l-39 27 42 0 c23 0 40 4 37 9 -6 8 -31 15
-105 28 -23 4 -29 8 -20 14 14 9 -50 10 -103 2z m247 -273 c-8 -24 -7 -24 38
-5 44 18 78 19 76 3 -3 -28 2 -38 19 -39 14 0 14 -2 -3 -8 -11 -5 -23 -7 -27
-4 -5 2 -8 0 -8 -5 0 -6 19 -8 43 -6 l42 5 -30 -14 -30 -15 45 5 c44 5 42 4
-49 -44 -76 -38 -90 -49 -70 -52 17 -2 6 -8 -41 -22 -74 -21 -125 -25 -73 -6
37 14 59 33 26 23 -29 -9 -80 3 -61 15 7 5 20 9 28 9 13 0 13 -2 0 -11 -12 -9
-12 -10 3 -5 10 3 24 6 30 6 7 0 6 4 -3 10 -11 7 -5 10 25 11 l40 2 -35 5 -35
5 40 13 40 12 -43 1 c-23 1 -58 -6 -77 -13 -36 -15 -45 -10 -22 13 10 10 6 11
-18 5 -16 -3 -45 -13 -64 -20 -19 -8 -36 -12 -38 -10 -2 2 17 12 44 22 26 10
51 23 55 28 5 7 8 7 8 1 0 -6 3 -6 8 0 4 6 19 16 35 23 15 6 33 24 39 39 19
43 55 62 43 23z"/>
<path d="M4507 5582 c-17 -3 -17 -6 7 -31 17 -17 30 -48 37 -85 14 -69 6 -80
-56 -70 -47 8 -49 8 -136 1 -37 -2 -72 -8 -79 -12 -7 -4 -47 -7 -89 -6 -42 0
-108 -6 -147 -15 -70 -15 -108 -15 -131 -1 -16 10 -17 99 -2 114 8 8 8 13 0
18 -18 11 -67 -4 -96 -29 -15 -13 -47 -33 -71 -45 -24 -12 -50 -31 -57 -42 -8
-10 -16 -16 -20 -13 -8 9 -87 -28 -81 -37 3 -5 -8 -11 -23 -14 -15 -4 -38 -11
-50 -17 -11 -6 -26 -7 -32 -4 -6 4 -43 9 -81 11 -39 2 -74 7 -79 10 -5 3 -12
1 -16 -5 -3 -5 -36 -10 -72 -10 -58 0 -69 -3 -89 -26 -13 -14 -24 -32 -24 -40
0 -7 -8 -14 -18 -14 -11 0 -26 -14 -35 -32 -17 -32 -17 -32 -12 -5 4 19 1 27
-9 27 -8 0 -18 -5 -22 -12 -5 -7 -2 -9 7 -4 8 4 7 1 -2 -5 -13 -10 -14 -19 -6
-53 5 -23 14 -45 18 -50 5 -6 9 -21 9 -35 0 -30 25 -110 51 -164 11 -22 19
-44 19 -51 0 -6 11 -28 25 -48 14 -20 25 -44 25 -52 0 -9 4 -16 8 -16 5 0 15
-12 23 -27 12 -25 90 -143 128 -194 19 -26 33 -178 26 -275 l-6 -80 -52 -17
c-29 -9 -88 -28 -132 -41 -89 -27 -157 -54 -165 -66 -3 -4 -30 -19 -60 -34
-30 -15 -66 -38 -81 -52 -14 -13 -30 -24 -37 -24 -6 0 -19 -11 -28 -25 -10
-15 -26 -25 -40 -25 -23 0 -37 -13 -41 -40 -2 -17 -31 -40 -50 -40 -18 0 -43
-53 -36 -78 4 -16 1 -22 -11 -22 -9 0 -16 7 -16 15 0 13 -3 13 -20 3 -11 -7
-20 -18 -20 -25 0 -8 -12 -13 -29 -13 -21 0 -36 -8 -51 -30 -11 -16 -27 -27
-34 -24 -7 3 -18 -1 -25 -9 -9 -11 -8 -17 4 -27 12 -10 13 -16 4 -27 -9 -11
-8 -16 5 -26 14 -10 14 -17 4 -45 -7 -17 -21 -35 -32 -38 -11 -4 -26 -13 -34
-20 -12 -13 -35 -12 -79 2 -7 2 -13 13 -13 24 0 11 -4 20 -10 20 -15 0 -12 38
3 47 8 4 17 17 20 28 5 14 -2 10 -21 -12 -16 -18 -36 -33 -45 -33 -23 0 -29
-16 -22 -60 5 -30 10 -37 23 -33 11 5 14 2 9 -10 -4 -9 -10 -24 -13 -32 -4
-11 0 -15 16 -15 18 0 21 -4 17 -22 -4 -13 0 -29 9 -40 9 -9 14 -23 12 -30 -3
-7 6 -21 19 -32 23 -18 23 -19 6 -38 -18 -20 -17 -20 7 -13 14 4 31 10 38 12
7 3 12 -3 12 -16 0 -12 5 -21 10 -21 6 0 10 -11 10 -25 0 -20 5 -25 25 -25 14
0 25 -5 25 -11 0 -5 -4 -8 -9 -4 -5 3 -12 1 -16 -4 -3 -6 -12 -8 -19 -5 -8 3
-17 1 -21 -5 -3 -6 0 -11 7 -11 9 -1 7 -5 -4 -14 -23 -17 -23 -26 1 -26 12 0
18 7 17 17 0 12 7 19 22 21 12 2 22 -2 22 -8 0 -6 4 -8 10 -5 6 3 7 -1 4 -9
-3 -9 -14 -16 -23 -16 -13 0 -13 -2 -2 -9 10 -7 9 -12 -8 -23 -19 -14 -20 -16
-6 -22 19 -7 38 1 30 13 -2 5 4 16 15 26 18 16 20 16 20 2 0 -10 5 -17 10 -17
6 0 10 -4 10 -10 0 -5 -10 -10 -22 -10 -19 0 -20 -2 -8 -10 8 -5 23 -7 32 -4
46 14 60 13 54 -3 -4 -9 -1 -20 6 -25 13 -8 -16 -13 -52 -9 -12 2 -13 0 -1 -7
7 -5 22 -7 32 -5 10 3 19 0 19 -6 0 -6 7 -11 16 -11 26 0 6 -17 -28 -24 l-33
-8 25 -10 25 -10 -24 -9 c-26 -10 -24 -19 6 -23 13 -2 19 -13 21 -44 2 -23 0
-42 -4 -42 -10 0 -33 30 -44 58 -8 20 -15 22 -39 17 -17 -4 -32 -2 -36 5 -4 7
0 10 10 8 18 -3 44 26 32 38 -8 8 -67 -15 -67 -27 0 -5 -9 -9 -20 -9 -11 0
-20 -4 -20 -9 0 -5 -9 -7 -20 -4 -20 5 -20 6 -3 25 10 11 33 28 52 37 19 9 37
23 39 31 3 12 2 12 -8 3 -9 -8 -21 -8 -41 -1 l-28 10 27 24 c24 21 25 24 7 22
-44 -3 -65 3 -65 17 0 8 7 15 16 15 8 0 12 5 9 11 -8 12 -61 3 -93 -17 -24
-16 -56 -7 -44 12 4 6 22 21 41 32 l34 21 -26 12 c-28 13 -34 24 -17 34 20 12
10 27 -14 21 -33 -8 -42 10 -19 36 20 23 28 23 -89 1 -42 -8 -36 23 9 50 31
18 34 22 18 25 -30 6 -40 19 -25 37 11 13 9 15 -13 15 -32 0 -46 -19 -23 -32
24 -13 20 -24 -17 -42 -57 -26 -149 -7 -112 24 8 7 15 19 15 27 0 26 -22 8
-44 -35 -12 -23 -27 -42 -35 -42 -11 0 -11 4 2 18 10 10 17 24 17 30 0 17 -60
-7 -68 -27 -3 -9 -10 -19 -15 -22 -5 -4 -5 -14 1 -25 13 -27 4 -44 -23 -44
-33 0 -39 16 -16 39 23 23 10 32 -34 23 -24 -4 -27 -2 -22 12 4 10 7 20 7 22
0 2 12 4 28 5 l27 1 -30 13 c-16 7 -31 9 -33 4 -6 -16 -31 -9 -37 11 -9 29
-25 24 -25 -8 0 -29 -35 -72 -58 -72 -20 0 -13 -17 9 -23 28 -7 21 -41 -9 -45
-27 -4 -29 -19 -2 -27 11 -3 20 -11 20 -16 0 -5 8 -9 19 -9 10 0 24 -6 30 -14
10 -12 8 -17 -8 -25 -11 -6 -31 -11 -45 -11 -14 0 -26 -4 -26 -10 0 -5 13 -10
29 -10 33 0 47 -23 25 -41 -8 -6 -12 -20 -9 -30 7 -21 -19 -37 -55 -34 -27 2
-31 22 -17 77 7 26 6 27 -23 22 -19 -4 -30 -2 -30 5 0 6 -11 11 -25 11 -36 0
-32 29 5 37 35 6 39 18 10 26 -26 7 -61 -3 -54 -14 3 -5 -4 -9 -15 -9 -24 0
-38 -49 -22 -79 14 -25 14 -34 1 -26 -9 6 -14 -25 -11 -70 2 -28 43 -115 54
-115 5 0 7 -6 4 -14 -3 -7 5 -30 19 -49 13 -20 24 -41 24 -46 0 -6 9 -16 20
-23 11 -7 20 -18 20 -25 0 -7 5 -13 10 -13 6 0 10 -7 10 -16 0 -8 5 -12 10 -9
6 3 10 -1 10 -9 0 -20 49 -76 67 -76 7 0 13 -5 13 -10 0 -6 11 -21 25 -34 14
-13 25 -28 25 -35 0 -6 5 -11 10 -11 6 0 10 -7 10 -15 0 -8 7 -15 15 -15 8 0
15 -7 15 -15 0 -8 5 -15 10 -15 6 0 10 -9 10 -21 0 -11 5 -17 10 -14 6 3 10
-3 10 -14 0 -12 5 -21 10 -21 6 0 10 -7 10 -15 0 -17 16 -20 25 -5 3 6 11 10
17 10 6 0 3 -9 -6 -19 -17 -18 -17 -21 -1 -45 10 -14 22 -26 27 -26 6 0 5 -6
-2 -15 -10 -12 -10 -15 3 -15 9 0 15 -10 15 -27 0 -15 5 -29 11 -31 6 -2 11
-11 11 -20 0 -10 11 -26 25 -36 14 -10 25 -25 25 -32 0 -8 5 -14 10 -14 11 0
13 -39 4 -64 -6 -16 -25 -23 -23 -8 3 19 -2 32 -13 29 -7 -1 -14 8 -16 21 -2
12 -9 22 -17 22 -7 0 -23 9 -36 21 -13 11 -19 18 -14 15 6 -2 16 4 23 14 10
16 9 18 -3 14 -8 -4 -15 -1 -15 6 0 6 -5 8 -11 4 -7 -4 -10 4 -9 22 3 47 1 56
-14 51 -20 -8 -29 22 -14 41 11 13 11 14 -1 7 -11 -6 -13 -4 -8 9 6 14 3 15
-14 5 -27 -14 -32 -8 -20 24 11 28 1 41 -29 42 -9 0 -15 10 -15 25 0 17 -7 26
-20 29 -26 5 -36 21 -24 42 10 19 -11 32 -36 23 -10 -4 -15 1 -16 15 -1 12 -2
27 -3 33 0 7 -12 13 -26 13 -20 0 -25 5 -25 25 -1 21 -5 25 -28 22 -24 -2 -27
1 -27 28 0 23 -4 30 -19 30 -14 0 -21 8 -23 28 -2 20 -9 28 -27 30 -19 3 -22
8 -18 29 4 20 1 24 -14 20 -10 -3 -20 1 -23 9 -3 8 -12 14 -21 14 -11 0 -15
11 -15 40 0 22 -4 40 -10 40 -5 0 -10 6 -10 14 0 22 -19 29 -36 15 -13 -10
-17 -10 -25 2 -13 22 -11 30 11 36 23 6 27 23 6 23 -17 0 -28 -13 -60 -73 -14
-26 -23 -54 -20 -62 3 -7 -1 -24 -9 -37 -8 -13 -18 -57 -22 -98 -3 -41 -8 -84
-11 -95 -2 -11 -1 -14 2 -7 10 21 44 13 56 -14 11 -23 10 -29 -11 -45 -13 -11
-29 -19 -36 -19 -20 0 -37 27 -30 50 5 14 2 20 -9 20 -11 0 -16 9 -16 28 l-1
27 -14 -26 c-19 -35 -32 -204 -16 -213 6 -4 11 -18 11 -31 0 -12 7 -25 15 -29
9 -3 15 -19 15 -41 0 -26 7 -43 26 -60 15 -14 30 -25 33 -25 3 0 7 -32 7 -70
1 -39 -2 -70 -7 -70 -12 0 -39 42 -39 61 0 9 -11 28 -25 43 -17 19 -25 38 -25
65 0 43 -19 75 -38 63 -8 -6 -14 -47 -19 -119 -6 -103 -5 -111 15 -131 29 -29
10 -82 -29 -82 -17 0 -19 -8 -19 -79 0 -44 -3 -86 -6 -95 -4 -11 0 -16 14 -16
22 0 35 -22 26 -44 -11 -27 13 -53 44 -48 22 3 32 -2 46 -23 16 -25 16 -29 1
-61 -13 -28 -19 -33 -30 -24 -8 6 -15 21 -17 33 -4 22 -9 24 -40 12 -13 -5
-22 1 -35 24 -27 47 -43 47 -43 2 0 -25 5 -41 15 -45 8 -3 15 -17 15 -32 0
-18 6 -28 20 -31 25 -7 37 -48 20 -68 -7 -8 -30 -18 -51 -21 -29 -5 -39 -11
-39 -25 0 -10 8 -20 18 -24 30 -9 59 -95 33 -95 -4 0 -19 -11 -33 -23 -25 -23
-26 -27 -22 -128 1 -57 5 -142 8 -189 3 -61 0 -89 -9 -100 -10 -12 -11 -28 -3
-72 5 -32 14 -58 20 -58 5 0 14 -14 20 -30 l10 -30 30 25 c16 14 34 23 39 19
16 -10 10 -34 -16 -56 -14 -12 -25 -25 -25 -30 0 -14 28 -9 45 8 9 9 19 13 23
9 4 -3 -1 -12 -11 -19 -24 -18 -21 -26 8 -26 14 0 29 8 35 20 12 22 35 26 46
9 4 -7 -4 -20 -17 -30 -15 -12 -19 -19 -10 -19 8 0 25 10 38 22 18 17 26 19
35 10 9 -9 9 -15 0 -24 -20 -20 -14 -29 14 -22 20 5 26 2 31 -15 4 -17 8 -19
26 -10 16 9 22 8 29 -5 12 -22 30 -20 57 5 16 15 26 18 34 10 7 -7 6 -12 -6
-17 -9 -3 -17 -12 -17 -19 0 -7 -10 -15 -22 -19 -34 -9 -38 -8 -38 10 0 28
-25 8 -30 -25 -3 -17 -8 -32 -12 -31 -5 0 -12 0 -18 0 -5 0 -10 18 -10 40 0
39 -1 39 -30 33 -20 -4 -30 -2 -30 7 0 8 -10 9 -30 5 -22 -5 -32 -3 -36 9 -11
28 -23 17 -26 -21 -2 -30 -7 -38 -23 -38 -16 0 -21 8 -25 45 -4 38 -9 45 -27
46 -13 1 -29 6 -36 13 -11 9 -17 8 -26 -3 -20 -24 -8 -50 32 -69 42 -20 45
-27 17 -52 -23 -21 -50 -13 -50 15 0 11 -5 20 -11 20 -8 0 -9 -13 -3 -42 4
-24 8 -62 8 -85 0 -42 1 -43 33 -43 17 0 35 4 38 10 12 19 50 9 73 -21 20 -24
22 -32 12 -44 -18 -21 -37 -18 -43 7 -5 18 -8 19 -22 8 -10 -8 -31 -11 -60 -8
l-45 6 0 -59 0 -59 830 0 c535 0 830 3 830 10 0 6 10 5 26 -2 21 -10 27 -9 35
3 5 8 9 9 9 3 0 -8 26 -12 71 -12 54 -1 69 2 60 11 -17 17 -14 48 4 41 10 -4
15 0 15 15 0 14 5 19 15 15 15 -6 20 5 15 35 -1 8 4 12 14 8 10 -4 16 1 18 16
2 14 9 21 20 19 12 -2 20 7 27 30 5 18 10 28 10 21 1 -7 8 -10 16 -7 14 6 20
-5 16 -34 -2 -9 4 -12 17 -8 15 5 21 1 26 -20 6 -22 9 -24 23 -12 15 11 16 10
11 -10 -4 -14 -2 -22 5 -21 27 3 37 -2 37 -18 0 -10 5 -25 10 -33 9 -13 11
-13 21 0 8 12 10 8 6 -17 l-4 -33 78 0 c44 0 81 5 84 10 5 8 12 7 22 -2 12
-10 17 -9 27 3 14 18 56 20 56 2 0 -10 26 -13 115 -12 107 1 143 9 95 22 -13
3 -18 10 -14 21 3 9 1 16 -5 16 -6 0 -11 -8 -12 -17 0 -15 -3 -14 -16 5 -8 12
-21 22 -28 22 -13 0 -25 21 -25 43 0 7 4 6 10 -3 9 -13 11 -13 20 0 5 8 10 23
10 32 0 10 6 17 13 15 7 -1 13 10 15 26 3 23 6 26 17 17 11 -9 15 -7 20 13 4
14 16 28 27 30 15 4 19 12 15 26 -7 30 29 23 44 -9 7 -16 13 -20 16 -12 4 10
10 7 20 -8 12 -17 17 -19 24 -9 7 12 9 11 10 -1 1 -8 1 -19 0 -23 -1 -5 7 -11
17 -14 11 -2 25 -16 31 -31 9 -19 15 -22 20 -13 6 9 11 10 15 3 7 -11 -46 -72
-63 -72 -5 0 -12 -12 -15 -26 -6 -21 -9 -24 -21 -14 -12 10 -15 9 -15 -10 0
-16 -4 -20 -15 -16 -8 3 -15 1 -15 -4 0 -15 423 -13 438 2 9 9 12 9 12 0 0 -9
241 -12 1024 -12 968 0 1025 1 1029 17 4 17 5 17 6 1 1 -17 35 -18 575 -18
568 0 574 0 569 20 -3 13 1 22 11 26 24 9 32 -4 18 -26 -11 -18 -9 -20 19 -20
26 0 30 3 24 18 -4 9 -9 87 -11 172 -5 165 -11 220 -22 220 -9 0 -52 -75 -52
-90 0 -31 -37 -83 -77 -110 -24 -17 -48 -30 -52 -30 -13 0 -70 -30 -76 -41 -4
-5 -15 -9 -26 -9 -11 0 -22 -7 -26 -16 -4 -11 -14 -14 -33 -11 -15 3 -32 1
-37 -4 -8 -8 -18 -7 -33 1 -18 9 -25 8 -41 -6 -18 -16 -20 -16 -38 0 -12 11
-27 15 -43 11 -17 -4 -29 0 -42 14 -13 14 -26 19 -41 15 -18 -4 -25 -1 -30 15
-3 12 -15 21 -26 21 -24 0 -25 17 0 25 10 3 44 -8 82 -27 124 -62 281 -45 380
42 107 95 139 130 139 155 0 14 6 42 14 62 23 64 39 150 30 164 -5 8 -9 28
-10 44 -1 17 -7 85 -13 153 -15 167 -38 244 -55 178 -3 -14 -20 -34 -36 -46
-19 -13 -30 -30 -30 -44 0 -25 22 -50 33 -39 4 3 7 1 7 -5 0 -19 -48 -14 -70
8 -16 16 -25 18 -39 10 -14 -7 -22 -6 -31 5 -16 20 -30 19 -46 -3 -11 -14 -13
-14 -13 -2 0 26 25 50 49 48 13 -2 25 3 27 10 3 6 -2 12 -11 12 -19 0 -21 25
-4 36 6 4 19 -2 29 -14 23 -29 39 -28 39 3 0 18 5 25 19 25 10 0 26 11 35 25
9 14 21 23 25 21 5 -3 11 21 14 54 6 58 -4 108 -24 121 -6 4 -6 15 0 31 7 19
6 31 -4 44 -18 24 -19 53 -1 73 10 13 11 33 4 96 -4 44 -11 103 -13 130 -8 75
-8 75 -16 75 -4 0 -13 -27 -20 -60 -16 -83 -25 -88 -99 -50 -33 17 -64 38 -67
46 -3 8 2 34 11 57 19 50 20 79 5 94 -16 16 -4 43 20 43 10 0 21 7 25 15 6 17
42 20 51 5 3 -5 18 -10 32 -10 25 0 25 1 18 58 -4 31 -8 77 -9 102 -4 74 -5
77 -19 51 -16 -32 -28 -30 -51 9 -19 33 -19 33 2 74 17 31 22 57 21 106 -1 79
-8 103 -28 90 -21 -12 -51 6 -51 31 0 11 11 24 26 31 19 9 24 17 20 34 -3 12
-8 74 -11 137 -3 64 -9 126 -15 139 -6 17 -9 18 -9 6 -1 -27 -28 -11 -34 20
-3 15 0 33 5 40 13 15 3 144 -13 173 -9 17 -12 18 -25 5 -23 -24 -58 -5 -62
33 -4 36 19 43 50 14 10 -9 18 -11 18 -6 0 6 -6 16 -13 22 -8 6 -19 37 -26 68
-7 32 -18 63 -23 70 -5 7 -7 17 -3 23 4 6 0 22 -9 35 -9 13 -16 30 -16 36 0 7
-11 36 -25 66 -28 58 -55 71 -55 26 0 -16 -6 -39 -13 -53 -8 -14 -20 -47 -28
-74 -8 -30 -21 -51 -31 -54 -11 -2 -18 -14 -18 -28 0 -15 -6 -24 -15 -24 -10
0 -15 -10 -15 -31 0 -21 -6 -32 -18 -36 -14 -3 -17 -12 -14 -39 4 -35 -5 -43
-26 -22 -10 10 -12 6 -10 -22 2 -29 0 -34 -14 -32 -12 2 -17 -3 -16 -15 0 -10
0 -29 0 -42 -2 -20 -5 -22 -14 -13 -16 16 -28 15 -28 -2 0 -8 10 -22 23 -32
15 -11 16 -15 5 -11 -10 4 -18 3 -18 -2 0 -5 -10 -11 -22 -14 -21 -6 -21 -7
-5 -25 15 -17 16 -21 3 -31 -8 -7 -20 -10 -25 -7 -14 9 -25 -14 -12 -27 18
-18 13 -54 -8 -60 -14 -3 -17 -11 -14 -29 4 -20 0 -26 -18 -31 -19 -5 -21 -9
-11 -19 16 -16 15 -38 -2 -38 -17 0 -29 -27 -16 -35 15 -9 12 -45 -4 -45 -8 0
-16 -7 -20 -15 -3 -8 -2 -15 3 -15 4 0 8 -13 8 -30 0 -35 0 -35 -34 -13 -21
14 -25 15 -18 3 14 -22 17 -58 5 -65 -5 -3 -10 -1 -10 4 0 15 -37 14 -44 -1
-3 -9 -9 -7 -20 6 -9 11 -17 18 -19 15 -2 -2 -11 -15 -20 -28 l-16 -24 -11 29
-12 29 -14 -27 c-17 -33 -30 -36 -39 -8 -9 27 -23 25 -31 -5 -11 -42 -42 -27
-35 18 2 15 -19 6 -29 -13 -13 -25 -47 -26 -53 -3 -3 12 -7 8 -12 -14 -8 -34
-19 -41 -31 -21 -5 7 -3 8 7 3 8 -5 5 1 -5 14 -21 23 -40 23 -42 0 -1 -8 -2
-20 -3 -28 -1 -21 -30 18 -31 41 0 22 -27 13 -35 -11 -3 -10 -17 -23 -31 -29
-23 -11 -24 -11 -13 9 9 17 8 23 -2 30 -16 10 -18 9 -23 -22 -2 -13 -9 -23
-16 -21 -7 1 -17 -1 -24 -6 -23 -17 -55 -11 -58 11 -3 25 -37 25 -51 0 -8 -12
-11 -11 -24 7 -18 26 -36 22 -43 -10 -6 -24 -6 -24 -26 -5 -30 29 -41 28 -53
-5 -5 -17 -13 -30 -17 -30 -4 0 -4 3 -1 6 10 10 -12 44 -28 44 -13 0 -37 -31
-32 -42 1 -2 -5 4 -13 12 -23 24 -50 21 -50 -6 0 -17 -4 -21 -20 -17 -10 3
-19 8 -18 12 0 3 0 14 -1 23 -2 25 -30 11 -37 -18 -5 -19 -9 -22 -24 -14 -24
13 -60 13 -60 0 0 -17 -18 -11 -24 8 -9 27 -36 23 -42 -7 -3 -14 -7 -30 -8
-36 -2 -5 -10 5 -20 23 -18 36 -33 41 -43 15 -11 -29 -27 -34 -39 -12 -10 19
-12 19 -26 5 -9 -9 -19 -21 -21 -28 -4 -9 -10 -8 -21 6 -23 28 -43 28 -50 0
-8 -29 -20 -31 -39 -4 -13 19 -14 19 -30 2 -10 -10 -14 -22 -10 -25 3 -4 1 -7
-5 -7 -7 0 -17 9 -24 20 -16 26 -35 26 -43 0 -7 -23 -33 -27 -41 -5 -9 24 -33
18 -40 -10 -7 -30 -20 -32 -29 -5 -3 11 -15 20 -25 20 -10 0 -22 -9 -25 -20
-8 -25 -22 -26 -30 -1 -7 24 -41 17 -48 -10 -7 -26 -23 -24 -32 4 -4 14 -8 17
-12 9 -4 -10 -8 -10 -19 -1 -11 9 -14 7 -14 -15 0 -30 -25 -36 -34 -8 -9 26
-35 23 -42 -5 -7 -28 -20 -29 -36 -4 -9 15 -16 17 -30 10 -10 -5 -18 -16 -18
-24 0 -23 -27 -18 -33 5 -7 27 -29 22 -42 -9 l-11 -25 -21 23 -21 23 -21 -21
c-25 -25 -41 -27 -41 -6 0 22 -38 18 -45 -5 -7 -24 -30 -26 -39 -5 -8 22 -37
18 -43 -5 -6 -24 -19 -26 -31 -3 -14 24 -43 25 -49 2 -7 -25 -20 -24 -34 2 -9
17 -13 19 -20 8 -7 -12 -9 -11 -10 1 0 8 -6 2 -13 -14 l-13 -28 -21 22 c-22
24 -52 21 -52 -5 0 -27 -19 -16 -29 18 -5 17 -10 26 -10 20 -1 -7 -7 -13 -15
-13 -7 0 -16 -9 -19 -20 -7 -25 -27 -26 -34 -1 -5 21 -43 18 -43 -4 0 -7 -6
-18 -14 -24 -11 -9 -15 -7 -20 12 -10 40 -43 27 -37 -15 0 -4 -8 -6 -19 -5
-12 1 -20 8 -20 19 0 35 -37 26 -53 -14 -4 -9 -12 -5 -27 12 -12 14 -25 24
-28 23 -3 -1 -12 -17 -20 -35 l-14 -33 -10 28 c-11 31 -38 36 -45 8 -4 -17
-44 -38 -41 -22 6 50 -22 51 -38 1 l-11 -35 -17 35 c-8 19 -13 25 -10 13 7
-30 -11 -30 -21 -1 l-8 23 -4 -22 c-2 -13 -8 -23 -13 -23 -5 0 -7 -8 -4 -17 2
-10 -4 0 -15 22 -11 22 -20 34 -20 27 -1 -7 -6 -10 -11 -7 -11 7 -30 -34 -23
-50 2 -5 -6 2 -19 18 -24 27 -48 36 -48 16 0 -5 5 -7 11 -3 7 4 10 1 7 -7 -3
-8 -11 -14 -19 -14 -8 0 -17 -4 -21 -10 -4 -5 -8 0 -8 12 0 18 -5 22 -25 21
-16 -2 -24 -7 -21 -15 7 -17 -18 -17 -36 0 -23 21 -38 18 -38 -7 0 -36 -15
-40 -35 -10 -16 25 -17 25 -37 7 -19 -17 -20 -17 -37 4 -12 14 -22 18 -32 13
-11 -7 -10 -10 6 -16 17 -7 16 -9 -10 -16 -22 -5 -32 -4 -38 7 -12 22 -37 18
-37 -6 0 -11 -4 -17 -10 -14 -6 3 -10 -4 -10 -18 0 -13 -9 -34 -20 -47 -16
-18 -20 -20 -20 -7 0 10 -4 17 -10 17 -5 0 -10 5 -10 11 0 8 4 8 13 0 26 -21
47 22 31 63 -9 24 -22 19 -40 -16 l-16 -32 -16 30 c-11 21 -17 25 -20 14 -7
-20 -53 -63 -60 -55 -3 3 -1 10 5 16 9 9 9 16 1 29 -13 21 -31 9 -43 -30 l-8
-24 -14 27 c-17 33 -20 33 -45 5 -18 -22 -20 -22 -32 -5 -16 21 -46 23 -46 2
0 -22 -28 -18 -35 4 -4 13 -12 18 -21 14 -13 -5 -12 -8 3 -26 17 -19 17 -19
-3 -13 -13 4 -26 1 -34 -9 -14 -17 -40 -20 -40 -5 0 5 6 9 13 7 6 -1 12 4 12
12 0 8 -8 15 -18 17 -9 1 -15 -1 -12 -6 3 -4 -2 -14 -11 -21 -13 -11 -17 -10
-25 4 -11 18 -49 24 -49 7 0 -5 -8 -10 -18 -10 -10 0 -24 -6 -32 -13 -12 -10
-12 -9 -1 5 9 13 10 22 1 38 -14 26 -4 43 22 34 17 -5 20 -3 14 12 -5 17 -5
17 9 -1 13 -17 17 -17 25 -6 7 12 11 12 24 2 10 -9 16 -9 16 -3 0 7 15 10 35
8 19 -1 35 2 35 6 0 5 9 6 20 3 11 -3 20 -3 20 2 0 10 41 10 58 -1 7 -4 12 -2
12 4 0 7 7 10 15 7 8 -4 17 -2 21 4 4 6 11 6 20 -2 11 -9 14 -8 14 5 0 11 4
14 13 9 16 -11 97 -11 97 0 0 5 10 5 21 2 15 -5 19 -4 14 5 -6 9 -3 9 13 1 28
-15 35 -14 28 4 -6 17 9 21 19 5 5 -8 11 -8 20 0 10 8 15 8 20 -1 6 -8 10 -7
16 2 8 12 11 11 19 -1 8 -12 10 -11 10 8 0 28 14 28 28 -1 9 -19 11 -19 11 -3
1 16 3 16 17 5 13 -10 17 -10 24 1 5 8 6 18 4 22 -3 4 0 8 6 8 7 0 10 -7 7
-15 -4 -8 -2 -17 3 -20 6 -4 10 -1 10 5 0 7 6 10 14 7 8 -3 29 -2 45 3 19 5
33 5 37 -1 4 -6 10 -7 17 0 7 5 27 8 45 7 22 -1 32 2 32 12 0 12 3 12 15 2 8
-6 19 -9 26 -5 6 4 15 1 20 -6 8 -12 10 -12 18 0 5 7 13 11 19 7 6 -3 14 -2
17 4 5 8 11 8 20 0 10 -8 15 -8 20 0 5 8 11 8 21 -1 9 -7 14 -8 14 -1 0 6 16
9 40 7 22 -2 40 0 40 5 0 5 7 7 15 4 11 -4 15 1 16 17 0 16 3 19 6 9 10 -25
31 -41 38 -30 5 8 11 7 21 -1 10 -8 14 -8 14 0 0 6 13 9 33 8 17 -2 38 1 45 7
10 7 16 6 22 -3 5 -10 9 -10 15 -2 3 7 15 9 26 6 14 -5 22 0 28 17 8 19 15 13
13 -12 0 -3 12 -5 26 -4 15 1 27 3 27 4 0 7 53 5 63 -2 9 -8 12 -3 12 21 0 17
5 31 10 31 6 0 10 -8 8 -17 -2 -12 4 -18 17 -18 11 -1 25 -4 32 -8 6 -4 13 -1
16 5 3 10 7 10 20 -1 10 -7 17 -9 17 -3 0 11 49 11 68 -1 7 -5 12 -3 12 3 0 7
8 9 19 5 11 -3 22 -1 26 5 5 8 11 8 21 -1 11 -9 14 -9 14 1 0 10 4 10 16 -1
13 -10 17 -10 24 1 7 11 11 11 23 1 12 -9 16 -9 21 1 5 11 7 11 12 0 5 -10 9
-10 20 -1 11 9 17 9 28 0 9 -8 16 -8 20 -2 4 6 13 8 21 4 8 -3 15 -1 15 3 0
11 50 12 66 1 7 -4 15 0 18 10 6 15 8 14 20 -2 9 -12 15 -14 20 -7 4 6 13 9
21 5 8 -3 15 0 15 7 0 7 7 10 16 6 9 -4 22 -2 29 4 9 8 15 8 20 0 4 -6 12 -5
22 6 9 8 19 12 22 7 8 -11 51 -12 51 0 0 5 8 6 17 3 9 -4 20 -1 25 6 6 11 10
10 17 -1 6 -9 10 -10 16 -2 3 7 15 9 25 6 13 -4 20 1 25 16 6 19 9 20 19 8 11
-14 86 -21 86 -8 0 4 18 6 40 5 22 -1 40 2 40 6 0 5 18 7 40 4 23 -3 40 -1 40
5 0 6 9 8 19 4 11 -3 23 -1 26 6 6 8 10 7 17 -2 8 -11 11 -11 15 -1 4 10 8 10
19 1 11 -9 14 -9 14 1 0 7 8 10 20 7 11 -3 22 -1 25 4 3 4 12 6 19 3 8 -3 17
0 21 6 5 8 11 8 21 -1 9 -7 14 -8 14 -1 0 6 8 11 18 11 44 1 92 8 98 14 4 4
13 2 21 -4 8 -7 13 -8 13 -1 0 5 12 10 27 10 15 0 29 5 31 11 2 6 8 9 13 6 13
-9 80 -12 84 -5 2 4 18 6 34 5 16 -1 30 1 29 4 -3 28 3 33 20 15 16 -18 68
-22 58 -5 -3 4 1 8 9 8 8 0 15 -5 15 -10 0 -5 6 -5 13 2 10 8 17 7 25 -1 7 -7
12 -8 12 -2 0 6 17 11 37 11 23 1 42 8 50 19 10 14 13 14 18 3 3 -9 21 -14 46
-15 36 -1 40 2 35 20 -5 20 -4 20 12 -2 10 -13 21 -20 25 -15 4 4 28 7 52 8
24 0 47 4 51 8 4 4 13 2 20 -4 8 -6 14 -7 18 0 4 6 13 8 21 5 19 -8 37 36 23
54 -7 8 -7 12 0 12 5 0 15 -7 22 -15 10 -12 10 -19 2 -27 -21 -21 -13 -31 12
-15 21 14 25 14 30 1 4 -10 13 -13 32 -8 15 4 41 8 58 9 17 2 31 4 31 5 0 1
44 3 97 4 74 2 100 7 113 19 9 10 20 17 25 17 4 0 6 9 3 20 -4 14 0 20 10 20
10 0 13 6 10 20 -3 11 -1 20 3 20 5 0 10 15 11 33 0 17 -1 26 -4 20 -8 -21
-18 -15 -19 12 -1 14 2 25 7 25 5 0 9 -4 9 -10 0 -5 7 -10 16 -10 8 0 12 4 9
10 -10 17 -14 51 -5 45 4 -3 14 17 21 45 7 27 16 50 21 50 4 0 5 7 2 15 -4 8
-1 15 5 15 6 0 11 5 11 11 0 5 8 29 19 52 30 69 34 81 32 95 -1 6 3 12 9 12 5
0 10 7 10 15 0 8 5 15 10 15 6 0 10 6 10 13 0 7 11 32 25 57 30 55 53 103 92
195 41 95 45 107 48 130 18 145 19 137 -14 185 -17 25 -31 51 -31 58 0 6 -8
12 -17 12 -30 0 -63 -12 -63 -22 0 -5 8 -7 19 -3 10 3 24 -1 31 -10 11 -13 8
-19 -15 -41 -15 -14 -34 -24 -44 -23 -28 3 -34 -1 -23 -14 6 -7 14 -33 18 -57
6 -38 5 -43 -10 -37 -10 4 -29 7 -42 7 -14 0 -24 6 -24 14 0 8 -9 30 -20 50
-13 20 -17 37 -11 40 5 4 12 2 16 -4 24 -38 57 24 35 65 -7 13 -10 27 -6 33 3
5 -6 14 -20 20 -20 10 -23 15 -15 31 6 10 18 21 27 25 14 5 13 9 -7 24 -13 10
-31 21 -40 24 -9 4 -18 18 -21 31 -4 20 -1 24 11 20 13 -5 13 -3 4 7 -22 24
-41 5 -37 -38 2 -31 -1 -41 -14 -46 -9 -3 -22 -8 -28 -11 -7 -3 -14 5 -18 20
-4 14 -13 25 -22 25 -9 0 -14 -3 -12 -7 2 -5 10 -25 18 -46 9 -24 22 -40 38
-44 34 -8 21 -28 -22 -31 -45 -4 -69 13 -62 44 4 13 0 27 -9 34 -8 7 -15 18
-15 24 0 6 -15 28 -33 48 -28 33 -34 35 -43 21 -9 -15 -13 -15 -42 -1 -18 9
-41 14 -54 10 -21 -6 -21 -7 7 -12 18 -3 34 -14 40 -28 5 -12 13 -22 17 -22 5
0 8 -9 8 -20 0 -15 -7 -20 -25 -20 -14 0 -25 -4 -25 -10 0 -17 -47 -11 -66 7
-16 17 -16 18 14 27 l30 8 -26 24 c-17 16 -28 21 -32 13 -4 -6 -10 -10 -14
-10 -31 4 -38 0 -26 -14 17 -20 5 -45 -22 -46 -16 0 -8 -8 31 -25 42 -20 51
-27 42 -38 -14 -17 -51 -28 -51 -15 0 5 -11 9 -25 9 -28 0 -34 -24 -9 -38 11
-6 6 -9 -22 -10 -43 -2 -52 -8 -36 -24 17 -17 15 -38 -3 -38 -8 0 -15 -4 -15
-10 0 -11 39 -23 59 -18 7 2 15 -7 17 -19 3 -20 0 -23 -29 -23 -24 0 -28 -3
-17 -10 24 -15 -2 -11 -30 5 -14 8 -34 14 -45 14 -19 0 -19 0 2 -18 25 -21 21
-31 -14 -31 -28 0 -30 -14 -3 -33 25 -18 16 -27 -27 -27 -18 0 -33 -4 -33 -10
0 -5 8 -10 17 -10 23 0 103 -40 103 -51 0 -14 -42 -11 -90 6 -52 18 -50 18
-50 1 0 -8 7 -16 15 -20 26 -10 16 -26 -16 -26 -19 0 -28 -4 -24 -11 4 -6 13
-8 20 -5 8 3 19 -1 25 -9 9 -11 5 -12 -24 -5 -19 4 -37 6 -39 4 -2 -3 -10 3
-17 11 -11 14 -10 17 8 22 24 6 30 23 8 23 -8 0 -13 8 -12 18 1 12 -5 16 -23
14 -18 -2 -22 2 -17 14 3 8 6 18 6 20 0 10 30 2 45 -12 12 -13 19 -14 28 -5 8
8 7 11 -6 11 -9 0 -17 7 -17 15 0 8 -9 15 -20 15 -24 0 -25 6 -5 27 16 16 45
11 45 -7 0 -5 10 -10 23 -10 20 1 21 2 5 14 -10 7 -18 18 -18 25 0 6 -9 11
-20 11 -24 0 -25 9 -5 36 15 18 16 18 39 -10 15 -18 28 -26 36 -21 10 6 9 10
-4 17 -9 5 -16 16 -16 23 0 8 -7 15 -16 15 -11 0 -14 5 -10 16 3 9 6 18 6 20
0 2 6 4 14 4 10 0 14 9 13 27 -2 22 3 29 20 31 22 3 22 5 7 28 -15 22 -15 24
0 30 9 3 27 3 41 0 18 -5 25 -2 25 9 0 8 -9 15 -20 15 -11 0 -20 4 -20 8 0 14
23 32 42 32 10 0 18 5 18 10 0 6 -6 10 -14 10 -11 0 -14 11 -13 43 2 38 0 42
-23 45 -14 2 -29 7 -33 12 -15 13 2 46 29 58 31 15 34 15 29 0 -3 -7 0 -20 5
-28 9 -13 12 -12 22 5 19 33 20 111 2 130 -9 9 -23 14 -30 11 -8 -3 -14 -1
-14 4 0 6 -7 10 -15 10 -8 0 -15 7 -15 15 0 8 -7 15 -15 15 -8 0 -15 -4 -15
-10 0 -5 4 -10 8 -10 5 0 18 -9 31 -21 18 -17 21 -27 16 -52 -7 -32 -20 -52
-33 -52 -4 -1 -17 -6 -28 -12 -17 -10 -25 -9 -40 2 -11 8 -28 15 -39 15 -24 0
-61 61 -52 84 9 23 -3 46 -23 46 -10 0 -23 6 -29 14 -20 24 8 31 32 8 19 -18
25 -19 46 -8 20 11 21 14 6 19 -9 4 -25 7 -35 7 -10 0 -26 10 -35 23 -12 17
-17 19 -24 8 -7 -11 -10 -9 -15 6 -4 13 -19 23 -38 27 -17 3 -28 9 -25 12 9 9
-58 44 -83 44 -11 0 -20 6 -20 14 0 7 -7 19 -16 27 -13 10 -17 10 -26 -2 -8
-12 -10 -12 -15 0 -9 22 -54 61 -70 61 -8 0 -31 9 -51 19 -21 11 -56 23 -77
26 -22 4 -46 13 -54 18 -14 12 -42 16 -155 22 -37 2 -73 8 -80 15 -18 18 -14
174 5 196 9 11 24 35 34 54 48 93 58 110 78 132 13 14 29 44 37 69 7 24 22 52
32 62 10 10 18 24 18 31 0 7 11 33 24 57 38 71 78 262 78 375 0 89 -11 174
-23 174 -5 0 -9 11 -9 25 0 25 -14 34 -24 16 -4 -5 -27 -3 -53 5 -39 12 -56
13 -88 3 -22 -6 -60 -17 -85 -25 -60 -17 -86 -19 -139 -10 -31 6 -39 11 -30
17 11 7 10 9 -3 9 -10 0 -18 -4 -18 -10 0 -17 -20 -11 -54 15 -21 16 -46 25
-70 25 -22 0 -35 4 -31 10 4 6 -5 10 -19 10 -14 0 -26 5 -26 10 0 6 -8 10 -17
10 -9 0 -24 6 -32 13 -9 8 -24 12 -34 9z m-606 -413 c4 -13 7 -19 8 -14 1 10
41 -50 41 -61 0 -4 -8 0 -17 7 -12 10 -15 11 -9 1 13 -22 25 -73 16 -67 -5 3
-13 -3 -19 -12 -10 -17 -10 -17 -11 0 0 16 -2 17 -15 3 -8 -8 -12 -23 -9 -33
5 -15 4 -15 -5 -3 -9 12 -11 13 -11 1 0 -8 -3 -12 -6 -9 -3 4 -1 15 4 25 7 13
6 24 -4 38 -14 19 -14 19 -16 -1 0 -10 -1 -26 0 -34 0 -12 -2 -11 -13 3 -18
25 -56 31 -49 9 5 -15 4 -15 -9 1 -10 12 -17 14 -22 7 -3 -5 -10 -8 -15 -5 -5
3 -2 14 8 24 9 11 29 33 44 50 28 31 46 42 32 19 -5 -9 -2 -9 9 1 9 7 17 25
18 40 0 14 3 20 6 14 2 -7 12 -13 21 -13 12 0 13 3 4 12 -16 16 -15 31 0 26 7
-3 15 -15 19 -29z m309 -296 c35 -24 40 -33 40 -80 0 -47 3 -45 -79 -47 -23
-1 -39 6 -51 21 -12 16 -20 19 -28 11 -13 -13 -46 -2 -37 12 3 5 -1 10 -9 10
-10 0 -16 9 -16 24 0 25 4 26 63 17 4 0 7 -11 8 -23 0 -19 3 -17 17 12 29 60
52 71 92 43z m599 -151 c7 -24 6 -30 -4 -26 -8 4 -13 -3 -14 -18 0 -13 -1 -30
-1 -38 0 -8 2 -32 5 -52 4 -31 3 -36 -10 -32 -8 4 -15 11 -15 17 0 6 -3 7 -6
4 -4 -4 -3 -12 3 -19 5 -7 10 -29 11 -48 2 -23 0 -31 -6 -22 -13 19 -23 -8
-16 -42 2 -14 0 -26 -5 -26 -6 0 -8 -9 -6 -20 3 -13 -2 -20 -12 -20 -11 0 -14
-7 -10 -25 4 -24 3 -25 -18 -11 -21 14 -23 14 -27 -9 -3 -13 -2 -22 2 -20 13
8 32 -47 20 -59 -8 -8 -10 -7 -6 4 3 8 1 22 -4 30 -9 13 -11 13 -19 1 -8 -12
-14 -13 -37 -3 -24 12 -26 11 -21 -7 4 -16 0 -19 -25 -17 -17 1 -32 -3 -35
-11 -3 -7 -10 -13 -17 -12 -33 4 -46 -3 -47 -23 -1 -19 -2 -19 -6 -5 -3 11
-11 16 -19 13 -8 -3 -14 -2 -14 3 0 11 -63 8 -72 -3 -4 -6 -12 -6 -20 1 -18
15 -54 7 -92 -20 -17 -12 -32 -21 -33 -20 -2 1 -12 -1 -23 -4 -15 -4 -19 -12
-16 -29 3 -16 0 -21 -9 -18 -8 3 -11 14 -7 27 5 21 4 21 -14 6 -31 -26 -44
-32 -38 -16 9 25 -33 28 -50 3 -12 -17 -15 -18 -15 -4 -1 9 -15 21 -32 27 -40
14 -37 14 -42 -6 -3 -10 -5 -5 -6 12 -1 17 -5 26 -9 20 -10 -14 -43 -15 -41
-1 3 28 -2 38 -17 32 -12 -5 -15 -2 -10 9 3 9 1 15 -7 14 -23 -3 -52 3 -39 8
6 2 12 9 12 14 0 6 -4 8 -9 4 -5 -3 -12 -1 -16 5 -4 6 -11 8 -16 5 -5 -4 -9
-1 -9 5 0 7 7 10 15 6 8 -3 15 -1 15 4 0 6 -7 10 -16 10 -8 0 -13 4 -9 9 3 6
-3 9 -12 9 -10 0 -27 3 -37 7 -15 6 -17 5 -11 -5 5 -9 4 -11 -3 -6 -17 10 -15
26 3 26 8 0 15 5 15 10 0 6 -5 10 -11 10 -6 0 -1 9 12 20 l24 20 -27 -4 c-14
-2 -36 -10 -48 -16 -12 -6 -23 -10 -25 -8 -2 2 15 14 39 26 23 13 43 30 43 38
0 17 -19 18 -35 2 -9 -9 -12 -8 -12 4 0 9 10 19 23 21 15 3 12 5 -13 7 l-35 2
34 10 c44 12 27 32 -26 31 -38 -1 -33 4 19 21 11 3 15 11 12 21 -4 11 0 15 16
15 28 0 62 -19 55 -31 -4 -5 -1 -9 5 -9 6 0 22 -7 36 -17 19 -12 22 -18 12
-24 -10 -7 -9 -9 5 -9 12 0 17 -8 17 -26 0 -14 4 -23 9 -20 5 3 15 -1 22 -10
32 -39 225 -95 241 -70 4 6 8 8 8 5 0 -4 29 2 65 12 35 10 67 14 69 10 3 -3
32 -8 65 -9 56 -2 100 12 121 39 3 3 19 13 36 22 36 19 104 93 104 115 0 7 15
28 33 46 60 62 87 94 87 106 0 12 32 42 38 36 1 -2 7 -17 11 -34z m316 -542
c61 -19 128 -55 151 -82 106 -119 120 -315 34 -475 -11 -21 -20 -43 -20 -50 0
-6 -9 -18 -19 -25 -11 -8 -25 -27 -33 -43 -7 -17 -18 -36 -25 -42 -14 -15 -43
-17 -43 -3 0 6 8 10 19 10 17 0 27 16 36 60 3 10 -2 8 -12 -5 -15 -20 -15 -20
-9 0 4 14 -1 25 -14 35 -25 18 -26 35 -2 25 14 -5 15 -4 5 6 -15 15 -17 63 -4
88 6 11 6 22 -1 32 -8 11 -9 10 -4 -5 6 -16 4 -17 -9 -6 -12 10 -13 15 -4 20
7 5 8 13 3 21 -6 11 -5 12 7 2 13 -11 15 -9 15 10 -1 12 -5 25 -11 29 -7 5 -6
8 0 8 9 0 14 152 6 170 -1 3 -4 23 -6 45 -5 52 -27 103 -59 138 -30 32 -52 37
-36 8 14 -27 13 -30 -10 -24 -11 3 -20 9 -20 14 0 5 -20 29 -45 55 -25 25 -45
47 -45 50 0 2 26 -9 58 -24 31 -16 75 -35 97 -42z m-1785 -76 c0 -7 -73 -98
-82 -102 -4 -2 -4 -10 -1 -18 3 -9 -2 -14 -15 -14 -20 0 -29 -20 -38 -85 -2
-16 -6 -39 -8 -50 -3 -11 -5 -37 -5 -58 -1 -21 -5 -36 -10 -32 -5 3 -12 1 -16
-5 -3 -5 1 -10 9 -10 22 0 20 -20 -1 -20 -17 -1 -17 -1 0 -14 22 -17 22 -26 0
-26 -9 0 -14 -2 -12 -4 2 -2 7 -4 10 -3 3 1 13 -4 21 -11 13 -11 16 3 21 110
7 136 9 154 21 165 5 4 6 -13 4 -39 -3 -27 -2 -48 3 -48 5 0 9 -18 9 -40 0
-22 5 -40 10 -40 6 0 10 -7 10 -15 0 -8 3 -15 8 -15 4 0 6 -37 5 -82 -1 -46 2
-92 7 -103 4 -11 13 -33 19 -48 6 -15 11 -35 11 -43 0 -14 31 -89 68 -161 12
-25 14 -35 5 -44 -14 -14 10 -70 28 -66 7 1 14 -5 16 -13 4 -13 3 -13 -6 0 -7
9 -11 10 -11 3 0 -6 5 -15 10 -18 6 -4 7 -11 4 -17 -5 -7 -2 -8 5 -3 8 4 18
-1 27 -14 9 -12 20 -18 26 -15 7 5 9 1 5 -9 -4 -11 3 -18 24 -26 16 -5 29 -17
29 -25 0 -8 9 -18 20 -21 28 -9 25 -25 -5 -25 -14 0 -25 4 -25 8 0 5 -19 15
-42 21 -24 7 -49 18 -57 25 -12 9 -13 7 -9 -11 4 -13 3 -23 -1 -23 -15 0 -20
13 -11 30 12 23 -42 112 -64 104 -8 -3 -17 -1 -21 5 -3 6 1 11 9 11 9 0 13 6
10 14 -3 8 -13 12 -25 9 -10 -3 -19 0 -19 6 0 5 7 8 15 5 22 -9 19 2 -20 66
-19 31 -36 66 -38 76 -2 10 -11 44 -20 74 -9 30 -18 70 -20 88 -2 17 -6 35
-10 38 -3 3 -3 13 0 21 6 15 -12 33 -34 33 -7 0 -13 -4 -13 -10 0 -5 9 -10 20
-10 11 0 20 -4 20 -10 0 -5 -9 -10 -20 -10 -13 0 -18 -5 -14 -14 3 -8 12 -12
20 -9 8 3 14 0 14 -6 0 -6 -10 -11 -22 -11 -19 0 -20 -2 -8 -10 10 -7 11 -13
5 -17 -12 -9 -12 -14 -1 -63 19 -82 108 -269 155 -324 15 -18 14 -18 -18 -11
-19 4 -41 14 -49 21 -21 22 -121 66 -132 59 -6 -3 -7 0 -4 9 5 13 -9 23 -19
14 -3 -3 -14 6 -72 57 -57 50 -69 62 -88 90 -17 24 -20 25 -36 11 -15 -14 -20
-14 -37 -1 -17 13 -17 14 -2 15 9 0 20 4 23 10 6 10 -20 66 -41 88 -8 7 -14
25 -14 38 0 16 -8 27 -22 33 l-22 8 23 13 c21 11 22 14 8 22 -20 11 -22 28 -4
28 8 0 14 12 14 30 0 17 -4 30 -9 30 -4 0 -8 7 -8 15 0 8 6 15 13 15 7 0 23
24 36 54 30 73 100 141 200 196 45 25 110 65 143 90 86 64 118 81 118 64z
m2197 -882 c13 10 14 8 11 -12 -2 -20 1 -25 18 -23 17 2 21 -2 17 -17 -7 -28
16 -25 26 3 11 29 55 36 46 6 -5 -14 -3 -17 9 -13 12 5 13 11 6 24 -18 33 -10
46 9 16 26 -39 46 -49 70 -37 26 14 32 4 15 -27 -10 -19 -10 -28 -2 -33 9 -6
8 -11 -1 -23 -7 -8 -10 -20 -6 -25 7 -12 -23 -61 -37 -61 -5 0 -18 -10 -27
-22 -17 -20 -48 -18 -36 3 4 5 -1 9 -9 9 -25 0 -21 45 4 47 14 1 20 -4 20 -17
0 -13 5 -17 15 -14 8 4 15 13 15 21 0 7 6 13 13 12 30 -4 40 1 28 14 -8 10 -7
17 2 26 9 10 8 15 -5 25 -10 7 -18 21 -18 30 0 9 -4 16 -9 16 -13 0 -41 -29
-41 -42 0 -6 -6 -6 -15 2 -8 7 -15 18 -15 25 0 6 -7 12 -15 12 -14 0 -20 -27
-16 -71 1 -11 -6 -27 -15 -37 -10 -11 -17 -33 -18 -51 -1 -35 -20 -49 -30 -22
-4 10 1 25 10 35 15 17 15 21 -4 56 -12 24 -25 37 -36 35 -9 -2 -19 5 -23 15
-4 10 -17 27 -29 38 -26 24 -39 61 -24 70 5 3 10 1 10 -5 0 -6 5 -8 10 -5 6 3
10 -3 10 -14 0 -24 16 -36 23 -19 3 7 6 3 6 -9 1 -26 12 -35 30 -23 8 5 11 15
7 25 -3 10 -9 15 -13 12 -3 -4 -12 1 -19 11 -9 13 -10 20 -1 31 8 9 12 10 15
2 3 -9 8 -9 19 1z m-2764 -279 c20 -6 23 -39 5 -45 -8 -3 -4 -9 9 -17 20 -10
22 -9 16 6 -5 12 -2 15 9 10 10 -3 18 1 21 13 6 23 47 16 47 -7 0 -9 -6 -13
-15 -9 -22 8 -18 -12 5 -24 16 -9 20 -8 20 6 0 10 5 14 15 10 14 -5 20 6 16
28 -1 5 5 6 14 2 9 -3 21 -6 26 -6 5 0 9 -7 9 -16 0 -10 -6 -14 -15 -10 -9 3
-15 0 -15 -9 0 -8 -8 -24 -17 -35 -19 -21 -43 -27 -43 -9 0 5 -5 7 -10 4 -6
-4 -9 -1 -8 5 2 7 -5 14 -15 15 -14 3 -16 -1 -12 -16 4 -10 3 -19 0 -19 -11 0
-50 23 -57 34 -16 24 -18 -4 -4 -39 9 -21 16 -47 16 -58 0 -18 -2 -19 -17 -5
-10 9 -23 14 -29 12 -5 -3 -10 11 -11 31 -1 34 -21 65 -43 65 -8 0 -10 -9 -6
-24 9 -35 -13 -44 -35 -15 -17 22 -19 22 -19 5 0 -11 -3 -17 -6 -13 -4 3 -13
0 -21 -8 -19 -20 -32 -19 -29 3 1 9 21 26 44 37 23 11 41 27 42 36 0 9 7 19
15 23 8 3 12 12 9 21 -7 17 32 37 56 28 8 -3 23 -8 33 -10z m-1392 -724 c5
-11 7 -24 4 -30 -4 -5 -3 -18 1 -27 4 -9 6 -27 5 -39 -3 -29 12 -29 31 -1 l15
22 18 -27 c10 -16 18 -49 19 -78 1 -28 8 -54 15 -58 9 -6 8 -11 -4 -21 -14
-11 -18 -10 -33 11 -9 13 -17 31 -18 39 -1 36 -16 68 -29 63 -8 -2 -30 11 -50
30 -36 35 -36 35 -20 67 12 24 14 35 5 45 -7 8 -9 19 -6 24 9 14 34 3 47 -20z
m4329 -400 c0 16 43 7 48 -10 11 -41 13 -44 21 -30 6 8 10 2 15 -19 4 -23 10
-31 21 -26 10 3 15 -1 15 -14 0 -22 -19 -37 -29 -23 -7 12 -41 13 -41 1 0 -19
-21 -6 -33 20 -6 15 -17 31 -24 35 -7 4 -13 14 -13 20 0 7 -9 13 -20 13 -12 0
-20 -7 -20 -17 0 -10 -7 -16 -17 -15 -13 1 -18 -7 -19 -24 -1 -51 -3 -53 -19
-40 -10 8 -15 9 -15 2 0 -6 -7 -9 -15 -6 -8 4 -15 1 -15 -5 0 -18 -29 -12 -40
8 -14 27 -13 32 8 29 12 -2 18 5 20 24 2 19 8 25 18 21 14 -5 18 7 14 36 -1 9
4 12 14 8 9 -4 16 -2 16 3 0 10 46 7 57 -3 11 -12 23 -7 23 9 0 14 3 14 15 4
10 -9 15 -9 15 -1z m-770 -80 c0 -8 5 -8 15 1 12 10 15 10 15 -1 0 -21 -17
-42 -27 -36 -6 4 -9 -9 -7 -31 4 -47 -4 -75 -19 -65 -17 10 -40 10 -55 -1 -15
-11 -35 5 -37 31 0 10 -3 18 -6 18 -3 0 -13 6 -21 13 -13 10 -16 8 -22 -19 -3
-16 -10 -28 -15 -25 -5 3 -11 -4 -14 -15 -4 -14 -11 -20 -20 -16 -8 3 -19 1
-25 -5 -13 -13 -32 -2 -32 19 0 9 3 13 7 10 10 -11 33 13 33 34 0 11 5 18 12
17 7 -2 14 8 17 22 5 21 12 25 44 27 30 1 37 -1 33 -12 -3 -8 -1 -17 5 -21 6
-3 15 -18 21 -32 l12 -27 4 24 c2 13 10 31 18 38 8 8 14 23 14 33 0 16 12 24
43 29 4 0 7 -4 7 -10z m-1975 -169 c5 8 11 8 21 -1 11 -9 14 -9 14 0 0 7 5 9
10 6 6 -4 10 -12 9 -18 -4 -31 1 -40 14 -28 17 13 28 5 20 -15 -7 -19 18 -49
27 -33 5 7 10 7 13 2 4 -6 0 -19 -8 -29 -13 -16 -16 -17 -25 -4 -7 10 -12 11
-17 4 -5 -6 -17 -14 -27 -18 -23 -8 -36 8 -36 48 0 21 -4 27 -15 22 -10 -3
-17 3 -21 19 -8 31 -44 30 -44 -1 0 -12 -7 -27 -15 -34 -8 -7 -15 -23 -15 -36
0 -24 -13 -38 -24 -27 -14 14 -46 13 -46 -2 0 -21 -17 -19 -30 4 -14 27 -13
32 7 29 11 -2 19 5 21 17 2 11 11 28 20 38 14 16 14 19 2 27 -17 11 -13 15 23
24 17 4 27 2 27 -5 0 -8 4 -8 14 0 11 9 16 9 21 0 6 -8 10 -7 17 5 7 13 13 14
23 6 10 -8 15 -8 20 0z m3289 -126 c-5 -18 -2 -24 11 -24 11 0 15 -7 13 -22
-5 -32 -41 -30 -64 3 -19 29 -56 46 -62 29 -2 -6 -8 -8 -13 -4 -5 3 -9 -2 -9
-11 0 -11 5 -15 15 -11 11 4 15 -1 15 -19 0 -19 -5 -23 -22 -22 -27 2 -68 36
-68 54 0 7 -6 13 -14 13 -14 0 -30 29 -21 38 3 3 13 6 23 7 9 0 22 4 27 7 6 3
11 -5 11 -19 3 -34 10 -38 38 -23 16 8 22 18 18 28 -4 12 -1 14 12 9 10 -4 24
-1 32 8 13 13 18 13 39 -1 19 -12 23 -22 19 -40z m-4995 -250 c12 -14 29 -43
36 -63 7 -21 23 -57 34 -79 l21 -41 -32 -17 c-18 -9 -43 -25 -55 -36 -30 -28
-46 -19 -62 38 -8 27 -22 60 -31 74 -10 14 -25 40 -34 57 l-16 33 41 30 c51
37 69 38 98 4z m466 -384 c4 -6 28 -21 55 -35 59 -30 64 -37 39 -53 -17 -11
-21 -9 -29 13 -6 17 -14 23 -25 19 -11 -5 -18 0 -22 15 -4 17 -8 19 -19 10 -7
-6 -17 -8 -23 -5 -5 3 -11 -1 -15 -9 -3 -8 -12 -12 -21 -9 -8 3 -15 1 -15 -5
0 -6 -7 -8 -15 -5 -25 10 -17 -3 35 -57 44 -45 52 -50 67 -38 12 10 17 11 20
2 5 -15 33 -5 33 12 0 7 7 16 16 19 25 10 54 7 54 -5 0 -6 -6 -9 -13 -6 -8 3
-26 -10 -42 -29 -16 -19 -36 -34 -46 -34 -9 0 -20 -7 -23 -16 -5 -13 -9 -14
-21 -4 -8 7 -15 18 -15 25 0 7 -9 15 -20 18 -11 3 -20 12 -20 19 0 8 -11 20
-25 26 -15 7 -22 17 -19 26 3 8 1 17 -5 21 -6 3 -11 15 -11 26 0 10 -4 19 -10
19 -5 0 -10 5 -10 11 0 5 4 8 9 4 5 -3 13 0 16 6 4 5 13 8 21 5 7 -3 16 -1 19
4 3 5 12 7 19 4 8 -3 17 -1 21 5 8 14 32 14 40 1z m-619 -54 c3 -8 12 -12 21
-9 9 4 24 -5 39 -23 28 -35 29 -42 8 -66 -16 -16 -16 -18 0 -24 24 -9 20 -22
-13 -39 -36 -18 -40 -13 -38 47 1 27 -3 52 -11 60 -9 9 -12 5 -12 -24 0 -20
-3 -43 -6 -52 -9 -24 -42 -19 -50 6 -12 39 -13 123 -1 130 20 13 57 9 63 -6z
m2256 -289 c2 -12 8 -20 13 -17 6 2 9 11 7 19 -3 11 0 10 13 -2 9 -9 13 -21
10 -27 -3 -5 -1 -10 5 -10 6 0 8 -4 5 -10 -3 -6 1 -7 9 -4 19 7 21 -9 5 -37
-8 -16 -13 -18 -25 -8 -10 8 -14 8 -14 0 0 -17 -20 -13 -28 7 -12 29 -38 22
-51 -15 -7 -18 -17 -31 -22 -27 -5 3 -6 11 -2 17 4 7 0 6 -10 -2 -14 -11 -18
-10 -28 12 -8 18 -8 30 0 43 9 17 10 17 11 -6 0 -20 2 -22 10 -10 5 8 7 23 4
32 -3 10 4 27 16 40 l21 23 -10 -27 c-6 -16 -8 -28 -5 -28 3 0 9 13 15 28 12
35 46 41 51 9z m2448 -22 c0 -19 21 -30 30 -15 4 7 9 0 13 -19 4 -21 11 -29
20 -25 9 3 17 -3 20 -16 3 -12 10 -19 16 -15 6 3 11 0 11 -8 0 -19 25 -28 38
-15 8 8 9 3 3 -18 -5 -16 -14 -28 -20 -26 -7 1 -15 -7 -18 -18 -3 -13 -11 -19
-19 -16 -9 4 -14 -2 -14 -18 0 -29 -10 -39 -27 -25 -10 9 -13 7 -13 -9 0 -16
-4 -20 -17 -15 -12 5 -15 2 -10 -9 7 -20 -16 -53 -31 -44 -7 4 -12 16 -12 26
0 13 -5 17 -15 14 -10 -4 -15 0 -15 16 0 11 -4 18 -10 15 -14 -9 -70 23 -70
41 0 9 -5 12 -11 8 -6 -3 -15 0 -20 7 -14 22 -11 39 6 33 10 -4 18 2 24 17 4
13 12 23 17 21 5 -1 10 9 12 23 2 14 10 25 18 25 8 0 14 7 14 15 0 8 6 15 14
15 8 0 18 9 21 20 3 11 13 20 21 20 9 0 12 5 8 12 -4 7 -3 8 4 4 7 -4 12 -13
12 -21z m-700 -32 c0 -20 4 -24 19 -20 14 3 21 -2 25 -19 4 -15 11 -21 20 -18
10 4 16 -3 18 -18 2 -15 9 -22 21 -20 9 2 17 -3 17 -11 0 -8 8 -21 17 -28 15
-12 16 -12 9 6 -5 15 -4 17 5 8 19 -19 2 -59 -36 -82 -19 -11 -35 -25 -35 -31
0 -5 -16 -16 -35 -24 -23 -10 -33 -20 -29 -29 3 -8 -2 -17 -12 -21 -12 -5 -26
3 -45 26 -16 18 -28 36 -29 41 0 4 -7 7 -15 7 -8 0 -15 5 -15 10 0 6 -11 15
-25 20 -14 5 -25 14 -25 20 0 5 -6 10 -14 10 -8 0 -17 7 -20 16 -9 23 -8 27 9
20 10 -3 17 3 21 19 3 14 11 22 19 19 7 -3 16 4 20 15 3 12 10 19 15 16 5 -3
11 8 15 24 4 19 12 28 23 27 10 0 18 7 20 19 2 12 11 21 22 22 15 1 20 -5 20
-24z m-697 -43 c3 -13 11 -18 20 -14 9 3 16 -3 20 -15 3 -12 12 -21 20 -21 8
0 17 -10 21 -22 5 -19 8 -21 16 -8 5 8 10 13 11 10 6 -36 9 -44 18 -53 8 -8
11 -8 11 1 0 7 5 12 10 12 22 0 8 -30 -37 -76 -27 -27 -51 -48 -55 -47 -4 2
-10 -6 -13 -17 -4 -11 -10 -20 -15 -20 -5 0 -12 -9 -15 -20 -11 -34 -43 -24
-62 19 -15 35 -18 38 -30 23 -12 -16 -13 -15 -19 5 -3 13 -10 21 -14 18 -5 -3
-15 3 -22 13 -7 10 -21 21 -30 25 -20 7 -25 38 -5 34 7 -1 13 10 15 26 2 19 8
27 20 25 11 -2 18 5 20 20 2 12 8 20 13 16 6 -3 13 3 16 15 3 12 12 21 19 21
8 0 18 8 21 18 13 34 38 41 46 12z m-1982 -84 c5 3 9 -4 9 -15 0 -12 4 -21 9
-21 5 0 27 -28 47 -62 21 -35 44 -68 52 -73 15 -12 6 -45 -13 -45 -7 0 -19
-13 -27 -30 -15 -35 -24 -38 -33 -11 -6 20 13 71 26 71 10 0 -20 69 -38 87 -6
7 -13 18 -16 25 -3 9 -11 5 -26 -11 -27 -31 -27 -36 10 -83 17 -21 29 -41 27
-44 -6 -6 -82 76 -98 105 -10 20 -9 23 9 28 20 5 26 20 22 52 -2 7 2 10 8 6 7
-3 11 3 12 17 0 13 3 17 6 10 2 -6 9 -10 14 -6z m1025 -50 c12 -12 -21 -50
-36 -41 -6 4 -10 -2 -10 -12 0 -10 -9 -26 -20 -36 -13 -11 -20 -29 -20 -51 0
-39 -16 -55 -33 -36 -9 10 -8 12 6 7 9 -4 17 -2 17 3 0 23 -36 65 -52 62 -14
-3 -18 3 -18 28 0 20 -4 29 -11 24 -6 -3 -15 0 -20 7 -12 20 -11 41 2 33 6 -3
16 0 21 7 8 11 11 11 15 1 4 -10 8 -10 19 -1 11 9 14 7 14 -14 0 -35 22 -51
38 -26 7 11 8 19 2 19 -19 0 -10 21 13 29 28 11 59 10 73 -3z"/>
<path d="M5771 371 c-1 -25 -5 -32 -16 -27 -14 5 -22 -19 -15 -49 1 -5 3 -21
4 -35 2 -14 11 -26 20 -28 9 -2 16 -10 16 -17 0 -21 15 -26 42 -16 12 6 17 10
11 10 -7 1 -13 11 -12 24 0 12 3 16 6 9 4 -10 8 -10 19 -1 8 6 14 16 14 21 0
5 7 16 15 24 19 19 19 34 1 34 -8 0 -16 7 -20 15 -3 8 -12 12 -20 9 -9 -3 -17
3 -21 15 -3 12 -12 21 -20 21 -7 0 -16 6 -18 13 -3 6 -6 -3 -6 -22z"/>
<path d="M5101 361 c-1 -7 -7 -11 -16 -7 -9 3 -15 0 -15 -8 0 -21 -27 -40 -33
-24 -3 8 -6 5 -6 -6 -1 -11 -8 -27 -17 -37 -17 -19 -10 -43 11 -35 7 2 15 -4
18 -16 4 -13 11 -19 21 -15 10 4 16 -1 18 -16 2 -12 10 -22 18 -22 9 0 14 7
12 18 -2 13 2 17 15 15 11 -2 22 7 31 25 7 15 17 27 23 27 5 0 9 7 9 15 0 9
-6 12 -16 8 -10 -4 -17 1 -21 16 -3 11 -11 21 -17 21 -7 0 -17 12 -23 28 -6
15 -11 21 -12 13z"/>
<path d="M4367 292 c-5 -27 -12 -42 -20 -39 -6 2 -17 -7 -24 -21 -17 -31 -16
-45 0 -39 7 3 19 -4 26 -14 6 -11 16 -17 20 -14 5 2 12 -7 15 -21 8 -32 30
-26 34 9 2 18 8 24 18 20 9 -3 14 2 14 16 0 15 5 21 16 19 25 -5 28 19 5 39
-12 9 -21 23 -21 30 0 7 -6 10 -14 7 -9 -3 -17 3 -21 16 -5 16 -10 19 -20 10
-10 -8 -14 -7 -17 7 -2 10 -7 -1 -11 -25z"/>
<path d="M3698 189 c-10 -5 -18 -17 -18 -24 0 -8 -3 -14 -7 -12 -5 1 -18 -8
-31 -21 -25 -25 -23 -56 3 -46 9 4 15 1 15 -9 0 -10 7 -13 20 -10 14 4 20 0
20 -11 0 -9 5 -16 11 -16 5 0 7 -5 4 -10 -3 -6 -1 -10 5 -10 7 0 9 7 6 16 -8
22 14 50 25 32 5 -8 10 -3 14 15 4 15 13 27 20 27 7 0 15 7 19 15 3 8 1 15 -4
15 -6 0 -10 -6 -11 -12 -1 -7 -7 5 -14 27 -8 24 -14 32 -15 20 -1 -19 -2 -19
-17 3 -17 25 -21 26 -45 11z"/>
</g>
</svg>
