<?xml version="1.0" standalone="no"?>
<!DOCTYPE svg PUBLIC "-//W3C//DTD SVG 20010904//EN"
 "http://www.w3.org/TR/2001/REC-SVG-20010904/DTD/svg10.dtd">
<svg version="1.0" xmlns="http://www.w3.org/2000/svg"
 width="1146.000000pt" height="1054.000000pt" viewBox="0 0 1146.000000 1054.000000"
 preserveAspectRatio="xMidYMid meet">
<metadata>
Created by potrace 1.16, written by Peter Selinger 2001-2019
</metadata>
<g transform="translate(0.000000,1054.000000) scale(0.100000,-0.100000)"
fill="#000000" stroke="none">
<path d="M0 10530 c0 -7 773 -10 2298 -11 1263 0 2341 0 2395 1 80 1 98 -2
103 -15 8 -21 -40 -83 -68 -87 -17 -2 -22 -9 -20 -23 2 -15 -11 -31 -42 -54
-33 -25 -42 -38 -38 -53 6 -22 -12 -38 -44 -38 -12 0 -27 -6 -33 -14 -17 -20
-62 -30 -71 -15 -4 6 -13 8 -19 5 -6 -4 -9 -11 -6 -16 3 -5 1 -12 -5 -15 -8
-5 -8 -11 0 -19 6 -9 7 -23 1 -42 -5 -16 -12 -55 -16 -86 -6 -53 -9 -58 -30
-58 -13 0 -27 5 -30 10 -3 6 -13 10 -22 10 -10 0 5 -21 38 -55 60 -61 73 -81
74 -110 0 -16 7 -20 33 -20 19 0 32 -5 32 -12 0 -7 -6 -13 -14 -13 -8 0 -16
-7 -20 -15 -4 -10 6 -20 32 -31 l37 -15 -30 -25 c-16 -14 -40 -33 -53 -42 -12
-9 -29 -22 -36 -29 -8 -7 -16 -10 -19 -7 -3 3 -22 -4 -44 -16 -70 -39 -88 -48
-133 -69 -31 -14 -38 -21 -23 -21 12 0 24 4 27 8 2 4 21 9 42 10 l37 3 -36
-41 c-21 -22 -37 -45 -37 -50 0 -6 -5 -10 -10 -10 -19 0 -70 -43 -70 -59 0 -9
-15 -22 -32 -29 -56 -23 -63 -28 -63 -53 0 -19 -11 -30 -53 -51 -59 -30 -63
-42 -14 -44 18 -1 34 -3 37 -6 2 -2 -18 -21 -45 -41 -55 -41 -60 -51 -30 -67
24 -13 26 -42 5 -60 -21 -17 -19 -27 6 -33 29 -8 18 -33 -13 -29 -17 2 -27 -3
-31 -15 -2 -10 -8 -26 -12 -36 -5 -13 -4 -18 6 -17 46 7 50 -5 54 -163 2 -71
5 -130 7 -132 2 -3 16 -1 32 3 21 6 32 20 50 63 49 120 192 370 252 439 12 14
41 48 64 75 54 63 143 162 218 242 68 73 109 88 145 56 12 -11 49 -32 82 -48
33 -15 68 -35 78 -43 14 -13 24 -13 57 -3 29 8 45 9 60 1 11 -6 36 -8 55 -4
54 10 82 -1 88 -35 4 -19 16 -34 34 -43 15 -7 32 -26 38 -41 8 -24 6 -31 -10
-44 -17 -13 -17 -16 -5 -21 8 -3 29 -19 45 -36 17 -18 48 -39 70 -48 98 -39
127 -62 167 -128 41 -66 56 -82 70 -74 4 3 8 -6 8 -19 0 -16 14 -37 40 -61 22
-20 40 -40 40 -45 0 -6 8 -14 17 -20 14 -7 19 -29 24 -93 l7 -83 -32 -25 c-17
-14 -41 -35 -54 -47 -13 -13 -27 -23 -31 -23 -10 0 -21 -24 -21 -44 0 -7 13
-26 30 -42 33 -33 37 -46 16 -64 -20 -16 -50 -108 -48 -143 3 -35 -14 -67 -34
-67 -9 0 -29 8 -45 17 -28 17 -29 17 -58 -11 -47 -45 -23 -69 41 -42 24 11 31
-24 12 -62 -17 -36 -24 -42 -59 -48 -29 -5 -33 10 -8 25 10 5 14 13 10 17 -5
5 -12 2 -16 -5 -6 -8 -19 -12 -35 -9 -15 3 -24 3 -21 0 2 -3 0 -11 -6 -19 -11
-12 -2 -18 22 -15 12 2 -4 -42 -23 -62 -10 -11 -18 -25 -18 -31 0 -25 -93 -60
-168 -62 -49 -2 -78 -8 -88 -18 -9 -8 -27 -18 -42 -21 -57 -12 -132 -71 -147
-116 -4 -10 -13 -18 -21 -18 -31 0 -5 -103 32 -123 18 -10 9 -27 -15 -27 -9 0
-40 11 -68 25 -28 14 -55 25 -59 24 -42 -7 -57 14 -26 37 15 12 15 15 2 23
-16 11 -21 120 -7 185 l8 39 -29 -6 c-26 -5 -34 -1 -58 31 -46 62 -98 113
-124 123 -14 6 -74 19 -135 31 -84 15 -130 18 -193 13 -82 -7 -83 -7 -65 -27
17 -19 17 -19 -43 -13 -41 5 -64 4 -68 -4 -4 -6 -2 -11 4 -11 6 0 9 -4 6 -9
-4 -5 -29 -12 -56 -16 -27 -4 -52 -11 -55 -15 -3 -5 41 -23 97 -40 164 -52
267 -111 343 -200 13 -15 3 -11 -30 13 -94 68 -295 160 -380 173 -25 3 -51 12
-58 18 -7 7 -28 11 -49 8 l-38 -4 31 -29 c30 -28 30 -29 26 -109 -5 -80 -7
-87 -55 -138 -8 -9 -11 -25 -7 -43 5 -20 -3 -58 -25 -119 -23 -68 -30 -105
-29 -153 1 -35 -3 -72 -9 -83 -5 -10 -10 -36 -10 -56 0 -20 -3 -41 -6 -46 -3
-5 -6 -34 -7 -65 -2 -56 -2 -56 -24 -39 -42 34 -83 88 -120 162 -60 119 -77
177 -89 304 -11 122 -29 161 -41 93 -17 -86 46 -305 129 -452 18 -33 71 -101
117 -151 70 -77 98 -98 168 -135 47 -23 94 -42 104 -41 11 0 33 -6 48 -14 23
-12 44 -12 116 -4 48 5 88 8 90 7 1 -2 -13 -9 -31 -15 -33 -12 -33 -14 -28
-58 3 -26 0 -49 -5 -53 -23 -14 -70 -194 -74 -281 -1 -30 -6 -57 -9 -60 -14
-10 -22 -50 -10 -50 16 0 71 60 65 71 -3 5 -1 17 4 26 6 10 11 12 11 6 0 -15
30 -18 30 -3 0 6 7 10 15 10 16 0 28 -36 24 -66 -8 -53 89 -114 182 -114 61 0
89 -13 89 -43 0 -13 6 -30 13 -39 14 -19 123 -79 130 -72 2 3 2 -6 0 -20 -7
-33 -24 -38 -75 -21 -76 24 -154 45 -171 45 -24 0 -22 -37 2 -45 11 -3 22 -12
25 -20 3 -8 15 -15 27 -15 11 0 33 -9 49 -20 15 -10 49 -25 76 -32 27 -6 53
-16 59 -20 17 -14 -62 -8 -91 7 -16 8 -36 15 -45 15 -8 0 -24 7 -35 15 -14 11
-51 14 -156 15 l-138 0 -6 -25 c-9 -36 -1 -40 59 -26 38 8 68 9 107 1 65 -12
160 -48 160 -61 0 -12 -37 -11 -60 1 -20 11 -70 -2 -70 -19 0 -5 15 -15 33
-21 l32 -12 -25 -8 c-24 -8 -24 -8 -3 -9 16 -1 21 -6 17 -16 -4 -8 -10 -13
-14 -10 -18 11 -21 -18 -3 -37 35 -39 97 -71 143 -74 43 -2 100 -18 100 -28 0
-3 -4 -16 -9 -29 -7 -18 -6 -30 4 -43 23 -30 17 -37 -24 -30 -23 3 -42 2 -46
-4 -4 -6 -10 -8 -15 -5 -9 6 -20 -18 -20 -46 0 -10 -7 -19 -15 -19 -8 0 -15
-9 -15 -19 0 -20 30 -38 30 -18 1 7 7 -3 15 -22 17 -38 5 -65 -24 -56 -24 7
-40 -7 -47 -42 -5 -25 -1 -34 21 -52 15 -11 34 -21 41 -21 8 0 14 -7 14 -16 0
-9 14 -31 32 -49 28 -29 34 -32 64 -23 28 7 37 5 56 -12 95 -89 99 -97 102
-220 2 -72 -8 -105 -40 -135 -107 -101 -127 -112 -158 -86 -13 11 -20 11 -28
3 -7 -7 -27 -12 -46 -12 -33 0 -34 1 -28 30 5 27 2 32 -21 41 -15 6 -50 9 -77
8 -32 -2 -51 1 -54 9 -2 7 7 12 22 12 32 0 34 16 4 26 -13 3 -30 13 -40 21
-18 16 -22 12 -32 -29 -4 -19 -13 -28 -26 -28 -21 0 -26 10 -11 26 17 18 20
59 6 78 -8 10 -12 22 -10 26 3 5 -6 11 -20 14 -14 4 -25 13 -25 22 0 23 -61
77 -73 65 -11 -11 -1 -31 17 -31 8 0 12 -9 9 -22 -3 -17 4 -28 27 -43 64 -41
57 -81 -20 -120 -97 -49 -160 -96 -207 -153 -64 -78 -82 -90 -163 -113 -74
-20 -139 -55 -225 -120 -63 -48 -217 -128 -295 -154 -143 -48 -305 -107 -338
-124 -20 -11 -73 -44 -117 -75 -44 -31 -83 -56 -88 -56 -5 0 -23 -6 -40 -14
-65 -30 -241 -96 -255 -96 -8 0 -56 -20 -106 -45 -50 -24 -163 -70 -251 -101
-88 -30 -173 -62 -190 -69 -145 -64 -205 -90 -305 -130 -166 -66 -310 -141
-392 -203 -172 -130 -262 -208 -306 -264 -52 -67 -100 -117 -218 -228 -44 -41
-96 -100 -116 -131 -72 -109 -158 -305 -158 -360 0 -11 -5 -29 -10 -40 -11
-20 -25 -80 -86 -369 -19 -91 -47 -208 -63 -260 -92 -304 -117 -392 -173 -622
l-62 -253 -3 -397 -4 -398 5730 0 5731 0 0 1616 c0 1373 -2 1618 -14 1628 -8
6 -17 21 -21 34 -5 19 -2 25 14 29 l21 5 0 853 c0 469 -3 867 -6 884 -4 17
-13 31 -20 31 -18 0 -18 15 1 34 13 13 14 19 3 36 -10 16 -10 22 -1 28 7 4 13
25 15 46 3 35 0 40 -22 43 -67 9 -85 9 -111 0 -23 -9 -27 -15 -22 -37 3 -17
-1 -31 -11 -39 -9 -8 -16 -24 -16 -36 0 -14 -17 -41 -40 -65 -24 -25 -40 -51
-40 -66 0 -32 -39 -57 -76 -48 -40 9 -71 40 -95 92 -17 39 -21 43 -35 31 -9
-7 -24 -14 -33 -14 -22 -2 -81 -28 -81 -36 0 -4 -16 -3 -35 1 -43 10 -70 4
-115 -27 -49 -32 -95 -30 -181 12 -41 19 -83 35 -94 35 -12 0 -77 16 -145 36
-188 54 -371 99 -505 123 -160 30 -450 89 -503 103 -28 7 -46 8 -53 1 -5 -5
-13 -42 -18 -81 -9 -85 -29 -112 -102 -138 -26 -10 -50 -23 -52 -29 -3 -6 -1
-61 3 -124 5 -71 4 -125 -3 -147 -9 -30 -15 -34 -61 -43 -28 -6 -118 -17 -201
-25 -82 -9 -178 -19 -213 -22 -51 -5 -60 -9 -51 -20 6 -8 18 -14 26 -14 50 0
415 -94 462 -119 11 -6 32 -12 46 -13 26 -2 59 -28 36 -28 -6 0 -11 -11 -11
-25 0 -29 20 -34 27 -6 3 12 17 21 39 26 44 8 54 1 55 -38 l0 -32 16 23 c8 12
23 22 32 22 21 0 61 -40 61 -61 1 -10 3 -9 11 4 8 14 18 16 47 11 20 -4 42
-10 47 -14 6 -5 44 -26 85 -47 41 -22 107 -56 145 -76 39 -20 73 -37 77 -37
12 0 100 -69 133 -103 16 -18 28 -41 26 -51 -2 -16 2 -18 27 -13 26 5 31 2 49
-31 14 -26 26 -37 44 -38 41 -2 43 -4 23 -18 -19 -14 -19 -15 5 -40 14 -14 30
-26 37 -26 7 0 18 -8 23 -19 8 -13 18 -17 37 -13 22 4 26 2 21 -12 -4 -9 -10
-22 -13 -30 -3 -9 2 -17 14 -20 11 -4 22 -16 25 -27 4 -13 12 -19 23 -17 24 4
28 23 9 42 -15 15 -15 16 2 16 26 0 40 -12 52 -43 9 -24 8 -27 -9 -27 -11 0
-20 -3 -20 -7 0 -19 25 -73 35 -73 5 0 18 -28 28 -63 10 -34 22 -76 27 -93 6
-17 10 -38 10 -48 0 -10 9 -29 19 -43 19 -23 19 -53 0 -53 -5 0 -9 -13 -9 -30
0 -40 -26 -40 -35 0 -4 16 -4 33 -1 38 2 4 0 29 -6 56 -8 37 -7 50 2 56 7 4 9
13 6 19 -10 16 -26 14 -26 -4 0 -16 -27 -20 -46 -7 -7 4 -20 26 -30 50 -11 24
-26 42 -34 42 -9 0 -21 5 -28 12 -9 9 -12 8 -12 -5 0 -9 7 -20 15 -24 8 -5 18
-30 21 -58 l7 -50 -28 40 c-16 22 -41 59 -57 83 -16 23 -34 42 -39 42 -5 0 -9
6 -9 13 -1 18 -44 64 -67 71 -11 4 -39 24 -62 46 -46 44 -51 47 -51 25 0 -8
-4 -15 -10 -15 -5 0 -10 9 -10 20 0 11 5 20 12 20 6 0 3 9 -7 20 -10 11 -23
19 -29 18 -6 0 -33 5 -60 12 -36 10 -53 21 -65 42 -17 31 -125 103 -140 94
-22 -14 -39 7 -43 55 -3 27 -8 52 -12 56 -3 3 -17 -4 -30 -16 -33 -31 -57 -21
-96 38 -21 33 -39 51 -58 54 -51 10 -102 32 -102 44 0 6 8 19 17 29 16 16 15
16 -17 11 -53 -8 -107 -25 -86 -26 11 -1 16 -4 13 -7 -4 -4 -20 -1 -37 6 -24
10 -28 15 -19 26 9 11 8 18 -1 29 -20 25 -33 17 -26 -15 6 -31 -7 -42 -18 -15
-3 9 -18 15 -37 15 -24 0 -30 3 -25 16 3 9 6 20 6 25 0 5 8 9 18 9 14 0 15 2
2 10 -8 5 -34 10 -56 10 -43 0 -54 11 -54 50 0 13 5 17 20 13 28 -7 26 21 -2
34 -20 10 -19 11 17 11 58 1 105 5 105 9 0 15 -34 33 -62 33 -18 0 -51 5 -73
11 -22 6 -49 10 -59 10 -10 0 -32 7 -47 15 -47 24 -69 19 -69 -17 0 -19 -4
-28 -11 -23 -6 3 -9 19 -5 35 5 24 2 29 -15 29 -11 0 -75 13 -142 29 -67 17
-174 39 -237 51 -137 25 -229 55 -289 92 -48 30 -65 30 -38 0 10 -10 17 -24
17 -30 0 -7 7 -12 15 -12 8 0 21 -15 30 -33 10 -22 31 -41 61 -55 38 -19 44
-25 34 -37 -9 -11 -17 -12 -30 -5 -10 6 -27 10 -38 10 -19 0 -82 63 -82 83 0
5 -12 26 -27 45 -22 29 -24 38 -14 54 10 17 7 21 -31 38 -24 11 -52 20 -62 20
-11 0 -45 6 -75 14 -31 8 -96 20 -146 27 -49 6 -101 19 -115 28 -50 32 -146
70 -175 71 -17 0 -48 9 -69 20 -22 10 -43 17 -47 14 -5 -3 -9 -52 -9 -109 0
-57 -5 -139 -10 -182 -10 -71 -59 -274 -97 -398 -34 -112 -161 -414 -200 -477
-13 -21 -23 -40 -23 -43 0 -2 -18 -35 -41 -72 -47 -77 -86 -123 -107 -123 -9
0 -11 -7 -7 -20 3 -11 4 -24 0 -29 -8 -14 -35 -2 -35 15 0 8 -4 14 -9 14 -17
0 -23 -20 -11 -35 10 -12 9 -15 -8 -15 -12 0 -24 5 -27 10 -3 6 -1 10 4 10 6
0 11 4 11 8 0 4 -16 6 -35 4 -45 -5 -45 7 0 65 45 59 51 84 36 144 -11 40 -10
51 3 71 13 21 13 25 -7 49 -12 14 -30 29 -40 32 -20 7 -14 27 7 27 14 0 24 33
33 113 4 35 11 52 27 63 32 20 50 62 35 80 -16 20 0 36 30 30 14 -3 20 -3 14
0 -18 8 -16 29 3 45 13 10 15 24 11 62 -6 47 -6 48 24 54 39 8 31 29 -9 25
-38 -4 -41 5 -7 18 15 6 25 17 25 30 0 11 3 20 8 20 4 0 13 4 20 9 11 7 11 12
1 28 -10 17 -8 25 11 51 15 20 21 38 17 52 -5 21 6 57 39 123 8 16 12 33 9 38
-6 8 107 222 126 239 10 9 82 143 125 231 25 50 53 133 68 195 64 266 109 412
142 465 23 37 69 63 101 57 15 -3 20 -19 28 -100 6 -53 13 -99 16 -103 11 -10
708 -6 894 5 379 22 369 19 335 94 -24 53 -15 86 23 86 29 0 47 -18 47 -46 0
-13 11 -36 24 -51 23 -27 29 -28 109 -28 56 0 89 5 100 13 15 12 16 42 13 260
-5 294 -24 662 -37 715 -16 62 -52 77 -181 77 -170 0 -661 -30 -675 -42 -7 -6
-33 -12 -58 -13 -40 -3 -45 -1 -45 18 0 12 -9 36 -20 52 -14 21 -20 47 -20 85
0 61 16 211 25 241 5 15 0 20 -24 25 -17 4 -28 11 -25 16 9 14 -15 28 -48 28
-24 0 -28 4 -28 30 0 38 37 75 90 91 51 15 114 -13 165 -74 31 -37 42 -44 52
-35 8 6 13 25 13 42 -3 48 -1 56 13 56 12 0 48 171 47 226 0 12 6 27 14 33 9
8 15 46 18 124 4 76 10 123 22 144 9 18 16 44 16 59 0 14 7 52 14 83 8 31 17
83 20 116 2 33 7 99 11 146 6 70 5 88 -8 100 -8 9 -17 26 -19 39 -2 17 -12 26
-35 32 -23 6 -33 14 -33 28 0 11 4 20 8 20 4 0 6 16 4 35 -6 50 6 102 27 123
24 22 33 77 21 127 -5 22 -5 44 -1 48 5 5 -7 34 -26 65 -18 31 -39 75 -45 97
-6 22 -24 50 -39 62 -17 15 -25 30 -22 41 2 10 -3 24 -11 31 -9 8 -16 10 -16
5 0 -4 -11 3 -25 16 -13 13 -39 24 -57 25 -18 1 -62 8 -98 15 -36 7 -74 13
-84 14 -31 2 -28 -19 4 -31 19 -7 30 -18 30 -31 0 -11 30 -44 75 -83 41 -35
75 -67 75 -71 0 -3 -9 -10 -20 -13 -21 -7 -25 -17 -13 -29 4 -4 8 -25 9 -47 1
-22 9 -48 18 -58 9 -10 16 -25 16 -35 0 -9 7 -19 15 -22 8 -4 15 -13 15 -21 0
-19 -26 -11 -128 40 -18 9 -22 18 -18 38 4 22 0 27 -28 37 -18 7 -43 12 -55
12 -19 0 -21 -3 -12 -14 7 -8 26 -18 42 -21 26 -6 42 -35 19 -35 -22 0 -8 -16
22 -25 44 -14 46 -31 3 -39 -47 -9 -40 -26 19 -47 26 -9 55 -24 64 -33 16 -17
15 -17 -22 -10 -22 4 -56 16 -75 28 -24 14 -36 17 -39 8 -4 -14 -48 -16 -57
-3 -3 5 4 12 15 16 34 11 22 25 -21 25 -47 0 -79 14 -79 35 0 9 -10 15 -25 15
-14 0 -25 -2 -25 -5 0 -11 35 -42 55 -49 17 -7 14 -11 -22 -26 -52 -23 -97
-21 -81 3 1 1 -4 13 -12 26 -11 21 -10 26 3 36 13 9 -10 15 -115 28 -116 14
-134 15 -148 2 -9 -8 -29 -15 -43 -15 -15 0 -27 -4 -27 -10 0 -5 -4 -10 -10
-10 -5 0 -10 7 -10 16 0 12 -5 14 -17 8 -10 -4 -45 -8 -79 -9 -40 0 -69 -6
-87 -18 -25 -16 -28 -17 -34 -1 -8 21 24 47 49 40 24 -6 34 13 11 20 -10 3
-31 11 -48 19 -16 7 -48 19 -70 26 -22 6 -50 15 -63 20 -13 5 -32 9 -42 9 -11
0 -20 6 -20 13 0 17 -36 38 -55 31 -8 -3 -15 -10 -15 -14 0 -5 -9 -6 -20 -3
-11 3 -20 9 -20 14 0 5 -8 9 -19 9 -10 0 -24 6 -30 14 -10 12 -8 17 7 25 29
15 36 57 15 86 -10 13 -22 25 -26 25 -4 0 -41 16 -81 35 -50 23 -88 35 -118
35 -37 0 -112 8 -236 26 -25 4 -32 10 -30 22 2 10 12 16 23 15 11 -1 48 -5 83
-9 39 -4 62 -3 62 4 0 17 -24 30 -70 36 -77 12 -139 29 -134 38 3 4 32 8 65 8
63 0 73 9 37 32 -12 8 -18 19 -14 26 10 16 43 15 49 0 3 -10 9 -10 26 0 25 14
101 16 101 2 0 -5 12 -10 28 -10 15 0 43 -4 61 -10 24 -7 39 -6 48 1 9 9 20 7
39 -6 38 -25 124 -32 136 -11 6 10 23 16 51 17 l42 1 -47 15 c-27 8 -48 18
-48 24 0 5 -9 9 -20 9 -11 0 -41 5 -67 12 -27 6 -65 15 -87 20 -59 14 -34 22
62 20 70 -3 94 1 124 16 21 11 34 23 30 26 -4 4 1 12 11 17 9 6 15 14 12 20
-8 12 -45 12 -45 -1 0 -5 -5 -10 -11 -10 -8 0 -7 5 1 15 16 20 14 22 -51 44
-29 11 -55 24 -57 31 -3 8 -8 7 -19 -2 -12 -10 -18 -9 -29 6 -11 15 -20 17
-51 10 -21 -4 -73 -8 -115 -9 -59 0 -81 -5 -97 -19 -22 -20 -82 -27 -88 -10
-2 7 17 18 42 25 51 15 77 36 54 43 -61 19 -211 39 -292 38 -82 -1 -97 1 -87
12 6 8 27 17 47 21 51 9 23 26 -42 24 -67 -2 -175 12 -175 22 0 10 20 15 115
29 75 11 126 28 137 44 5 8 14 7 28 -1 11 -7 27 -13 35 -13 8 0 15 -7 15 -15
0 -22 21 -18 27 5 6 22 19 26 25 8 3 -7 12 -9 22 -5 11 4 16 13 12 22 -4 11 6
20 35 31 22 9 46 26 54 37 14 20 15 20 35 2 11 -10 20 -23 20 -30 0 -18 31
-43 65 -51 17 -4 36 -11 43 -17 9 -7 18 -5 30 7 10 9 30 16 45 16 14 0 28 4
31 9 9 14 -30 51 -55 51 -24 0 -58 16 -49 23 3 2 29 18 58 36 28 18 52 39 52
46 0 7 4 15 10 17 6 2 6 9 0 17 -7 12 -19 9 -72 -19 -56 -29 -73 -33 -152 -36
-49 -1 -111 -6 -137 -9 -27 -4 -49 -2 -53 3 -7 11 29 26 114 48 64 16 150 54
150 65 0 9 -241 17 -255 8 -13 -8 -136 -4 -158 6 -9 4 -23 2 -30 -3 -19 -16
-59 -3 -55 17 2 9 11 15 20 13 24 -4 73 17 62 28 -16 15 -74 16 -84 1 -5 -8
-26 -20 -47 -27 -21 -6 -54 -19 -74 -27 -39 -17 -66 -9 -56 17 4 9 18 16 32
16 34 0 87 28 82 43 -2 7 -17 13 -33 13 -16 1 -49 5 -73 9 -41 8 -44 7 -37
-11 23 -55 21 -59 -15 -31 -46 35 -89 51 -103 37 -7 -7 -5 -10 7 -10 9 0 21
-9 27 -20 9 -17 8 -20 -10 -20 -23 0 -70 28 -70 41 0 5 7 9 16 9 13 0 14 3 4
15 -10 12 -30 14 -104 9 -84 -5 -89 -4 -72 10 11 9 27 16 35 17 25 1 52 7 58
12 6 7 -74 53 -107 62 -14 4 -40 18 -58 32 -25 19 -39 23 -63 18 -31 -7 -79 9
-79 26 0 5 227 8 505 8 278 0 505 -4 505 -7 0 -4 13 -12 29 -18 26 -10 28 -9
23 8 -4 18 5 19 329 16 321 -3 336 -4 391 -26 31 -12 73 -36 93 -52 42 -33 55
-37 55 -16 0 15 -64 76 -80 76 -6 0 -10 5 -10 10 0 7 717 10 2130 10 1413 0
2130 3 2130 10 0 7 -1917 10 -5730 10 -3813 0 -5730 -3 -5730 -10z m5583
-2881 c56 -11 140 -34 187 -49 47 -16 112 -36 145 -46 119 -35 160 -58 204
-118 23 -30 41 -59 41 -63 0 -4 12 -19 25 -32 29 -27 32 -51 7 -51 -19 0 -47
26 -75 72 -9 15 -49 48 -88 75 -39 26 -83 57 -98 69 -14 11 -53 31 -86 44 -33
13 -64 26 -70 30 -38 27 -255 70 -353 70 -53 0 -131 -11 -192 -26 l-25 -6 25
21 c32 26 45 28 158 30 60 1 129 -6 195 -20z m-774 -135 c48 -24 61 -60 58
-156 l-2 -83 -36 -18 c-20 -9 -73 -22 -118 -29 -51 -7 -85 -17 -88 -25 -3 -7
-12 -13 -20 -13 -10 0 -13 6 -8 18 4 9 16 52 27 95 11 44 31 95 43 115 79 123
84 126 144 96z m1981 -89 c0 -8 -17 -19 -42 -25 -40 -11 -119 -35 -213 -65
-22 -7 -56 -16 -75 -20 -19 -4 -55 -18 -80 -30 -40 -21 -48 -22 -70 -9 -14 7
-38 13 -53 14 -21 0 -28 4 -25 16 2 13 19 17 79 19 41 2 102 12 135 23 32 11
93 30 134 42 41 13 93 29 115 36 55 18 95 18 95 -1z m-2130 -394 c5 -11 10
-35 10 -54 0 -37 -25 -107 -38 -107 -19 0 -44 -107 -38 -161 3 -30 7 -65 8
-78 2 -13 9 -26 16 -29 6 -2 12 -10 12 -18 0 -8 4 -14 10 -14 16 0 9 -132 -8
-153 -14 -16 -13 -20 7 -48 26 -35 26 -33 -14 -45 -60 -19 -84 -8 -109 51 -15
31 -32 56 -45 60 -11 3 -58 43 -106 89 -76 75 -85 87 -85 120 0 49 18 81 81
141 32 31 62 73 79 110 29 64 103 140 143 148 48 9 67 6 77 -12z m722 -429
c100 -60 179 -92 227 -92 14 0 39 -5 57 -12 24 -8 55 -9 114 -2 44 5 80 7 80
3 0 -6 -72 -24 -155 -38 -49 -8 -47 -13 8 -25 20 -5 27 -12 27 -30 0 -27 30
-39 86 -34 34 2 101 -22 86 -31 -5 -3 -14 -39 -19 -79 -7 -56 -6 -77 3 -90 8
-9 14 -38 14 -63 0 -38 4 -48 20 -52 25 -7 28 -47 3 -47 -17 -1 -17 -1 0 -14
17 -13 17 -16 -2 -62 -15 -38 -21 -45 -26 -31 -4 9 -17 17 -30 17 -22 0 -22
-2 -19 -95 3 -86 1 -96 -18 -109 -11 -8 -26 -12 -33 -10 -18 7 -28 -13 -29
-55 -1 -29 -5 -37 -23 -39 -14 -2 -23 2 -23 10 0 12 -34 48 -45 48 -12 0 -3
-38 13 -56 9 -10 18 -31 20 -46 2 -24 -1 -28 -23 -28 -14 0 -25 -6 -25 -13 0
-7 -10 -13 -21 -14 -20 -2 -21 2 -15 40 7 44 45 132 79 180 18 26 19 35 8 115
-14 115 -28 148 -77 194 -26 23 -50 59 -62 91 -34 89 -88 282 -81 289 1 2 -3
13 -10 26 -10 18 -10 26 0 38 6 8 10 16 8 17 -2 2 -35 24 -74 50 -129 85 -158
119 -43 49z m3286 17 c38 -13 48 -42 56 -163 8 -135 -20 -169 -126 -151 -23 4
-105 8 -182 9 -130 1 -145 0 -190 -22 -45 -23 -56 -24 -148 -17 -139 10 -170
22 -180 70 -5 21 -13 44 -19 51 -15 18 12 96 54 157 l32 47 230 6 c127 3 268
9 315 13 47 4 94 9 106 9 12 1 35 -3 52 -9z m249 -31 c19 -22 63 -148 63 -183
0 -9 -11 -27 -25 -40 -33 -34 -83 -34 -115 0 -20 21 -22 31 -17 78 4 29 3 67
-2 83 -20 69 50 113 96 62z m-4070 -1033 c60 -10 90 -11 116 -3 19 6 42 8 51
5 21 -8 20 -46 -1 -54 -10 -3 -27 -16 -38 -27 -11 -12 -33 -27 -49 -34 -24
-11 -27 -17 -22 -40 4 -15 8 -36 10 -47 2 -11 4 -23 5 -27 0 -4 17 -4 36 -1
24 4 35 2 35 -7 0 -7 7 -10 16 -6 8 3 12 2 9 -4 -3 -5 18 -13 47 -17 52 -7 52
-7 18 -14 -33 -6 -33 -6 13 -8 56 -1 60 -13 18 -60 -20 -22 -31 -28 -34 -19
-4 9 -6 8 -6 -4 -1 -9 -8 -24 -17 -32 -18 -19 -64 -21 -64 -3 0 6 -20 24 -44
40 -39 24 -57 52 -61 92 0 6 -17 28 -37 49 -20 22 -34 44 -31 48 14 23 -44
101 -94 127 -13 6 -23 20 -23 31 0 22 29 42 50 34 8 -3 52 -12 97 -19z m4699
-430 c47 -14 89 -27 93 -29 27 -17 293 -79 371 -86 98 -10 190 -42 190 -68 0
-9 5 -10 19 -2 24 13 98 13 106 1 6 -10 51 -8 62 2 4 4 23 5 42 2 114 -19 109
-33 -13 -37 -52 -2 -92 0 -89 5 11 17 -151 -8 -183 -30 -12 -7 -71 -18 -135
-23 -63 -6 -154 -14 -204 -20 -49 -5 -151 -12 -225 -16 -129 -6 -136 -5 -162
16 -28 21 -28 23 -28 136 0 110 8 149 34 166 17 12 29 10 122 -17z m-2006
-256 c0 -3 20 -37 45 -73 25 -37 45 -72 45 -78 0 -5 10 -24 22 -41 12 -17 17
-27 11 -24 -19 12 -42 -32 -36 -69 3 -19 1 -34 -4 -34 -19 0 -33 25 -33 61 0
27 -5 38 -19 42 -10 2 -26 19 -35 37 -19 38 -20 50 -6 50 6 0 10 -6 10 -14 0
-9 7 -12 20 -9 24 6 25 17 4 42 -10 11 -24 16 -35 14 -11 -3 -20 0 -20 6 -5
39 -20 71 -40 81 -10 6 -19 19 -19 30 0 18 2 18 45 2 25 -9 45 -19 45 -23z
m-3193 -156 c10 -28 35 -53 52 -53 9 0 54 -18 101 -40 47 -22 93 -40 102 -40
9 0 20 -9 23 -21 5 -16 12 -19 32 -14 14 3 31 1 40 -7 21 -17 235 -98 245 -92
16 10 48 -17 48 -42 0 -23 3 -24 35 -18 33 6 79 -7 125 -36 8 -5 35 -19 59
-31 40 -19 45 -19 59 -5 14 14 14 16 1 16 -8 0 -28 14 -44 30 -22 23 -25 30
-12 30 9 0 17 -4 17 -10 0 -5 22 -10 50 -10 44 0 53 -4 85 -37 35 -36 36 -38
15 -43 -29 -7 -21 -25 12 -25 15 0 36 -10 48 -22 11 -13 30 -23 40 -23 11 0
20 -4 20 -10 0 -5 6 -10 13 -10 6 0 26 -19 42 -41 17 -23 43 -46 58 -52 19 -6
25 -12 17 -17 -6 -4 -10 -20 -8 -35 3 -28 5 -28 73 -32 81 -5 99 -19 89 -69
-7 -38 5 -49 56 -50 46 -1 110 -40 110 -66 0 -11 -8 -27 -18 -36 -15 -14 -18
-27 -14 -70 4 -48 8 -56 37 -73 36 -22 48 -41 38 -64 -4 -13 0 -15 21 -11 18
3 29 -1 36 -14 5 -10 24 -22 42 -26 27 -5 30 -9 17 -17 -13 -8 -14 -19 -6 -65
5 -31 16 -62 23 -70 21 -20 17 -59 -6 -65 -10 -3 -21 0 -24 7 -3 6 -3 1 -1
-11 3 -12 1 -24 -5 -28 -5 -3 -10 -13 -10 -22 0 -21 -40 -74 -51 -67 -5 3 -26
-8 -46 -25 -42 -34 -55 -38 -72 -17 -14 17 -79 26 -122 17 -28 -6 -37 -2 -60
21 -21 23 -35 28 -75 28 -37 0 -54 6 -73 24 -16 14 -54 31 -96 41 -38 9 -73
21 -76 26 -3 6 -58 13 -122 18 -108 7 -120 10 -145 34 -30 29 -74 28 -71 -2 4
-42 -1 -52 -23 -50 -13 2 -29 0 -36 -5 -18 -11 -80 -10 -129 2 -21 6 -69 13
-106 17 -65 6 -176 44 -207 70 -8 6 -28 17 -45 22 -58 20 -154 129 -224 253
-24 41 -48 82 -55 90 -16 21 -33 75 -42 135 -3 28 -11 58 -16 69 -6 10 -10 95
-9 190 0 158 2 179 29 271 16 55 39 119 50 142 27 52 27 56 3 43 -20 -10 -62
-89 -79 -150 -29 -100 -50 -449 -29 -477 5 -7 7 -20 3 -28 -3 -8 0 -26 6 -40
12 -27 3 -48 -11 -26 -5 7 -12 36 -15 64 -4 28 -10 56 -14 61 -6 11 -8 19 -17
86 -18 140 -21 218 -8 265 7 28 16 66 20 85 3 19 14 41 24 48 10 7 21 28 25
46 4 23 28 58 71 105 66 71 98 87 110 54z m6419 -1201 c-4 -31 -7 -72 -9 -90
-3 -36 -19 -52 -57 -52 -40 0 -53 31 -29 69 10 17 19 49 19 71 0 52 30 86 61
69 18 -9 20 -17 15 -67z m561 -208 c18 -5 21 -11 16 -39 -7 -45 12 -85 59
-120 56 -43 50 -55 -19 -39 -31 7 -69 18 -85 23 -15 6 -41 16 -57 22 -35 13
-32 26 15 73 21 21 34 44 34 60 0 28 3 29 37 20z m-853 -66 c7 -7 15 -22 18
-33 24 -81 41 -106 117 -182 42 -41 81 -108 81 -139 0 -21 -20 -27 -27 -7 -9
27 -36 50 -77 67 -28 12 -36 21 -36 41 0 14 -9 43 -20 65 -11 22 -20 48 -20
58 0 11 -9 22 -19 25 -16 4 -20 13 -19 46 0 23 -5 48 -12 56 -15 18 -4 20 14
3z m-9234 -1208 l0 -110 149 0 149 0 7 27 c3 14 5 63 4 107 l-2 81 76 3 77 3
0 -291 0 -291 -77 3 -78 3 -2 100 c-1 55 -2 108 -2 118 -1 15 -15 17 -151 17
l-150 0 0 -120 0 -120 -80 0 -80 0 0 290 0 290 80 0 80 0 0 -110z m5029 77
c102 -68 107 -214 10 -270 -21 -12 -39 -24 -39 -27 0 -3 13 -12 28 -21 31 -18
138 -211 127 -229 -3 -6 -39 -10 -80 -10 l-74 0 -45 95 c-58 124 -80 145 -146
145 l-50 0 0 -120 0 -121 -72 3 -73 3 -3 293 -2 294 188 -4 c188 -3 189 -3
231 -31z m-2116 -129 l72 -3 3 -37 c4 -44 -12 -52 -91 -46 l-52 3 -3 -99 c-4
-136 6 -151 94 -143 l64 5 0 -43 c0 -40 -2 -42 -39 -53 -61 -19 -151 -15 -188
8 -50 30 -57 53 -63 195 -5 121 -6 130 -25 131 -11 1 -27 2 -35 3 -8 0 28 44
85 101 l100 101 3 -60 3 -60 72 -3z m-1984 -14 c65 -26 75 -50 81 -204 5 -133
5 -134 30 -140 15 -4 26 -14 28 -27 4 -27 -40 -43 -115 -43 -47 0 -55 3 -65
25 l-11 24 -42 -24 c-32 -19 -56 -25 -104 -25 -56 0 -66 3 -92 29 -21 22 -29
39 -29 66 0 58 45 95 163 134 93 31 97 34 97 62 0 16 -9 38 -21 50 -19 19 -30
21 -80 16 -33 -3 -75 -14 -95 -26 -19 -12 -39 -21 -45 -21 -11 0 -12 50 0 69
28 44 222 67 300 35z m379 -27 l3 -38 36 31 c45 40 72 50 134 50 60 0 104 -21
128 -61 17 -27 19 -28 32 -13 8 10 34 30 58 46 59 37 153 40 196 6 47 -37 55
-72 55 -243 l0 -155 -65 0 -65 0 0 139 c0 125 -2 141 -21 165 -34 43 -98 33
-146 -23 -21 -24 -23 -36 -23 -153 l0 -128 -64 0 -65 0 -3 146 c-3 139 -4 147
-27 165 -35 29 -85 25 -123 -10 l-33 -29 -5 -134 -5 -133 -62 -3 -63 -3 0 211
0 211 63 -3 62 -3 3 -38z m910 16 c4 -28 3 -28 49 3 33 23 46 25 104 22 54 -3
73 -9 104 -32 103 -79 102 -284 -3 -364 -29 -22 -48 -27 -107 -30 -52 -3 -81
0 -103 12 -17 9 -33 16 -36 16 -3 0 -7 -51 -8 -112 l-3 -113 -62 -3 -63 -3 0
316 0 316 63 -3 c56 -3 62 -5 65 -25z m1261 2 c54 -32 91 -85 100 -144 17
-108 -22 -194 -110 -239 -38 -20 -56 -23 -134 -20 -108 4 -156 24 -200 87 -27
39 -30 50 -30 125 0 73 3 87 27 123 17 26 45 50 80 67 48 25 61 27 143 24 67
-3 100 -9 124 -23z m359 -17 c4 -45 10 -47 43 -12 41 44 76 57 145 52 117 -7
137 -49 132 -273 l-3 -150 -60 0 -60 0 -5 148 c-5 141 -6 150 -29 168 -36 29
-76 24 -119 -15 l-37 -34 -5 -134 -5 -133 -60 0 -60 0 -3 200 c-1 110 0 205 3
213 3 9 21 12 62 10 l58 -3 3 -37z m1763 31 c93 -31 139 -100 139 -206 0 -83
-25 -133 -88 -178 -42 -29 -48 -30 -152 -30 -104 0 -110 1 -152 30 -64 45 -90
102 -86 191 4 93 36 145 111 180 58 27 167 33 228 13z m689 -24 c0 -35 0 -35
-46 -35 l-46 0 26 -31 c34 -40 41 -72 26 -109 -24 -57 -98 -100 -172 -100 -24
0 -58 -22 -58 -38 1 -24 27 -36 103 -48 99 -14 132 -33 148 -86 10 -30 9 -42
-7 -74 -31 -62 -77 -79 -209 -79 -79 1 -120 5 -147 17 -100 44 -80 147 31 164
l46 7 -33 15 c-60 29 -51 96 13 108 48 9 52 20 10 28 -46 9 -102 59 -114 101
-19 70 25 153 93 174 50 16 75 18 209 20 l127 1 0 -35z m417 20 c71 -30 109
-87 115 -171 l3 -49 -157 -3 c-172 -3 -173 -3 -138 -59 37 -61 122 -80 226
-48 55 16 70 9 60 -28 -10 -40 -84 -60 -206 -55 -91 3 -102 5 -142 33 -61 43
-90 101 -91 178 -1 99 50 174 138 205 46 16 151 14 192 -3z m373 -69 l5 -80
24 57 c29 71 72 107 128 107 21 0 47 -6 57 -13 16 -12 16 -16 -4 -71 -21 -55
-23 -57 -49 -50 -66 19 -119 -7 -147 -73 -9 -19 -14 -68 -14 -123 l0 -90 -65
0 -65 0 0 203 c0 112 3 207 7 211 4 4 32 6 63 4 l55 -3 5 -79z m569 73 c27 -9
31 -16 31 -46 0 -32 -2 -35 -22 -28 -13 3 -44 9 -70 12 -55 6 -78 -7 -78 -43
0 -20 12 -30 73 -59 40 -19 83 -45 94 -57 50 -54 31 -147 -37 -180 -41 -21
-153 -23 -215 -4 -36 10 -40 15 -43 49 -4 41 1 43 51 22 51 -21 103 -19 127 5
35 35 25 50 -70 98 -81 41 -113 76 -113 122 0 76 61 119 169 120 39 0 85 -5
103 -11z m-1238 -541 c54 -16 112 -68 138 -123 27 -59 42 -169 34 -263 -8 -95
-13 -101 -88 -92 -49 6 -55 9 -36 15 l25 8 -24 9 c-16 6 -30 4 -46 -7 -13 -8
-30 -15 -39 -15 -8 0 -15 -4 -15 -10 0 -5 -4 -10 -9 -10 -5 0 -12 21 -16 48
-4 26 -10 52 -15 57 -4 6 -10 24 -14 40 -10 39 -34 65 -60 65 -25 0 -139 -36
-178 -57 -57 -29 -204 -55 -393 -68 -81 -6 -213 -29 -250 -45 -11 -5 -60 -16
-110 -25 -49 -10 -129 -29 -177 -42 -58 -16 -106 -23 -145 -21 -57 3 -58 4
-61 34 -2 22 4 40 22 60 22 26 27 28 47 16 31 -20 50 3 52 64 2 46 1 48 -31
58 -25 7 -41 5 -67 -7 -29 -14 -34 -14 -39 -1 -4 9 -21 14 -53 15 l-48 1 35
13 c36 14 168 19 208 9 12 -4 22 -14 22 -24 0 -10 7 -21 16 -24 10 -4 14 -14
11 -26 -3 -10 1 -24 9 -31 8 -6 14 -19 14 -28 1 -9 9 -26 18 -37 17 -20 23
-21 73 -12 30 5 68 11 86 13 17 3 44 10 60 17 15 7 34 12 42 13 25 1 37 32 23
56 -7 11 -11 23 -8 26 3 3 1 14 -5 24 -5 11 -6 19 -1 19 6 0 12 9 15 20 6 24
-6 25 -64 4 -70 -24 -204 -40 -247 -29 -24 7 -21 9 28 20 30 7 98 20 150 29
52 10 120 28 150 41 100 43 224 67 355 69 110 1 122 -1 143 -20 18 -17 32 -21
60 -17 52 6 73 -12 75 -67 2 -45 2 -45 37 -42 19 1 49 13 67 25 28 18 33 28
33 60 0 30 8 48 34 78 18 22 36 53 39 68 12 58 45 71 118 49z m-3893 -226 c9
-7 12 -49 10 -178 l-3 -169 -45 0 -45 0 -3 165 c-1 90 0 170 2 177 6 14 64 17
84 5z m762 -61 c0 -28 3 -30 43 -33 37 -3 42 -6 42 -28 0 -22 -5 -25 -42 -28
l-43 -3 0 -58 c0 -70 14 -86 65 -78 32 5 35 4 35 -19 0 -48 -112 -63 -155 -19
-22 21 -25 33 -25 98 0 69 -2 75 -22 81 -21 5 -19 9 32 61 30 30 58 55 62 55
4 0 8 -13 8 -29z m1070 -1 c0 -29 2 -30 46 -30 44 0 45 -1 42 -27 -3 -25 -7
-28 -45 -31 l-43 -3 0 -53 c0 -70 16 -91 64 -83 33 5 36 4 36 -19 0 -17 -8
-27 -26 -34 -41 -16 -100 -12 -125 9 -21 17 -24 30 -27 99 -4 72 -6 81 -25 86
-20 5 -17 10 33 61 30 30 58 55 62 55 4 0 8 -13 8 -30z m-1497 -61 c14 -17 17
-41 17 -125 l0 -104 -34 0 c-40 0 -46 13 -46 111 0 37 -5 70 -12 77 -19 19
-47 14 -73 -13 -22 -21 -25 -33 -25 -100 l0 -76 -37 3 -38 3 -3 123 -3 122 41
0 c33 0 40 -3 40 -20 0 -11 5 -20 10 -20 6 0 10 4 10 9 0 5 15 16 33 25 41 21
96 14 120 -15z m258 9 c18 -28 9 -36 -43 -34 -68 1 -77 -22 -19 -49 83 -37
103 -84 56 -130 -42 -43 -175 -31 -175 16 0 22 8 22 71 3 8 -2 24 3 35 11 19
15 19 15 -1 31 -11 8 -35 25 -54 37 -44 28 -55 48 -47 80 10 40 51 58 115 53
30 -3 58 -11 62 -18z m390 -23 c3 -22 7 -35 8 -28 0 6 13 25 27 42 18 22 35
31 55 31 35 0 45 -18 32 -57 -8 -24 -14 -27 -44 -25 -52 5 -73 -24 -79 -107
l-5 -66 -35 0 -35 0 -3 128 -3 128 38 -3 c36 -3 38 -5 44 -43z m677 39 c16 -5
22 -14 22 -35 0 -28 -1 -28 -43 -23 -55 8 -90 -18 -90 -66 0 -47 33 -72 92
-68 38 3 46 0 49 -16 6 -29 -25 -46 -80 -46 -60 0 -103 21 -128 63 -55 89 11
196 120 196 19 1 45 -2 58 -5z m517 -8 c63 -27 94 -114 62 -176 -46 -91 -219
-94 -261 -5 -59 124 65 237 199 181z m205 -21 c0 -19 5 -35 10 -35 6 0 10 5
10 10 0 23 50 60 79 60 39 0 45 -12 27 -54 -11 -26 -19 -34 -30 -30 -26 10
-64 -5 -78 -29 -7 -12 -15 -49 -18 -82 l-5 -60 -35 0 -35 0 -3 114 c-1 63 0
121 2 128 3 7 21 13 41 13 33 0 35 -2 35 -35z m-1160 -54 c0 -99 5 -111 41
-111 51 0 69 30 69 115 l0 75 40 0 41 0 -3 -122 -3 -123 -37 -3 c-33 -3 -38 0
-38 17 0 26 -5 26 -37 1 -39 -31 -106 -27 -132 6 -18 23 -21 41 -21 125 l0 99
40 0 40 0 0 -79z m224 -20 c-5 -30 -1 -51 16 -85 25 -53 69 -84 134 -92 27 -4
46 -12 46 -20 0 -22 -61 -33 -210 -38 -80 -3 -184 -8 -231 -12 l-86 -7 -6 69
c-10 101 -8 174 3 174 6 0 10 -17 10 -39 0 -106 37 -131 185 -125 55 2 106 3
113 4 9 0 12 25 12 89 0 81 5 121 16 121 2 0 1 -18 -2 -39z m-787 -42 c-16
-61 20 -114 94 -139 30 -10 53 -22 52 -27 -3 -7 25 -10 130 -12 17 -1 27 -6
27 -16 0 -12 -18 -15 -105 -15 -58 0 -104 -3 -104 -7 4 -22 -2 -43 -10 -38 -5
3 -13 -4 -16 -16 -4 -12 -12 -18 -21 -15 -11 4 -14 -6 -14 -49 0 -41 4 -55 14
-55 8 0 16 6 19 13 8 21 17 1 27 -56 5 -31 16 -71 24 -89 33 -72 60 -217 51
-270 -4 -24 -10 -65 -13 -93 l-7 -50 -235 -1 c-166 -1 -237 2 -242 10 -12 17
-9 164 2 171 6 4 51 9 100 12 57 4 94 11 101 20 8 9 10 50 6 126 -4 93 -10
123 -33 177 -30 71 -41 167 -27 235 9 40 9 40 60 43 70 4 107 37 101 90 -3 20
-8 45 -12 55 -6 13 -3 17 14 17 18 0 21 -4 17 -21z m2312 -110 c38 -30 62 -61
87 -111 20 -39 37 -80 38 -92 1 -11 5 -28 8 -36 75 -192 103 -372 78 -505 -16
-83 -20 -85 -182 -85 l-120 0 6 58 c4 31 12 72 18 91 13 41 3 170 -19 261 -16
66 -51 139 -104 218 -16 24 -29 46 -29 49 0 3 -26 30 -57 59 l-58 54 22 18
c12 11 50 25 85 32 35 7 77 16 93 20 59 16 81 11 134 -31z m-910 -25 c20 -4
39 -9 44 -11 4 -2 -22 -34 -58 -71 -62 -64 -82 -95 -178 -287 -29 -56 -47
-122 -48 -170 -1 -11 -5 -43 -11 -72 -6 -32 -6 -59 0 -70 5 -10 12 -42 15 -71
l6 -52 -152 2 -151 3 -8 35 c-4 19 -8 96 -9 170 -1 109 2 150 19 211 29 104
57 166 98 216 54 66 83 77 179 69 l81 -6 19 31 c11 17 28 43 38 58 9 14 20 34
23 43 6 16 8 16 31 -2 14 -11 41 -22 62 -26z m1966 -36 c14 -6 25 -15 25 -19
0 -4 21 -30 46 -58 l46 -52 72 7 c58 5 74 3 84 -9 27 -32 57 -296 37 -316 -6
-6 -44 -12 -86 -15 l-77 -4 5 38 c5 36 4 38 -27 45 -23 5 -30 11 -25 22 4 13
3 14 -10 3 -9 -7 -27 -10 -45 -7 -16 4 -32 2 -35 -3 -8 -12 -52 -13 -59 -1 -8
13 -54 19 -64 9 -5 -5 -20 16 -35 52 -15 33 -31 60 -36 60 -15 0 -40 95 -43
160 l-3 55 53 6 c29 4 58 11 65 17 11 9 38 17 74 21 7 0 24 -4 38 -11z"/>
<path d="M6002 1964 l3 -89 70 3 c55 2 74 7 92 24 31 29 30 78 -1 115 -21 24
-32 28 -95 31 l-72 4 3 -88z"/>
<path d="M2050 1751 c-53 -28 -72 -54 -68 -92 2 -23 11 -38 28 -48 23 -12 30
-12 63 4 l37 17 0 69 c0 77 -3 80 -60 50z"/>
<path d="M3488 1874 c-28 -14 -28 -16 -28 -115 l0 -100 35 -15 c102 -42 163
17 157 154 -3 49 -49 92 -99 92 -21 -1 -50 -8 -65 -16z"/>
<path d="M4513 1866 c-24 -21 -28 -32 -31 -93 -4 -63 -2 -72 23 -101 23 -28
33 -32 74 -32 57 0 85 22 102 79 15 50 5 103 -27 141 -34 40 -98 43 -141 6z"/>
<path d="M6675 1867 c-48 -41 -50 -154 -5 -202 33 -35 107 -35 140 -1 45 49
43 162 -4 203 -36 31 -95 31 -131 0z"/>
<path d="M7238 1881 c-25 -22 -32 -36 -32 -66 0 -72 88 -111 147 -65 49 39 42
116 -14 145 -41 22 -65 18 -101 -14z"/>
<path d="M7245 1513 c-45 -12 -69 -57 -47 -89 26 -39 152 -48 196 -13 30 24
34 59 8 82 -19 18 -120 30 -157 20z"/>
<path d="M7777 1885 c-23 -23 -40 -78 -29 -90 8 -8 202 -6 202 3 0 29 -24 84
-43 97 -35 24 -100 19 -130 -10z"/>
<path d="M7880 9961 l-25 -7 33 -24 c39 -29 40 -36 5 -48 -28 -9 -27 -9 33
-40 33 -17 66 -37 73 -45 6 -8 32 -21 58 -29 30 -9 48 -20 54 -35 5 -13 13
-23 19 -23 5 0 10 -3 10 -8 0 -4 -34 -6 -75 -4 -61 3 -75 1 -75 -11 0 -17 102
-48 171 -52 42 -2 46 -1 41 17 -2 11 -13 25 -23 31 -11 7 -19 17 -19 23 0 6
-10 19 -22 27 l-23 16 23 0 c12 1 22 5 22 11 0 20 -43 90 -55 90 -7 0 -19 7
-26 16 -21 26 -122 90 -149 96 -14 3 -36 3 -50 -1z"/>
<path d="M6747 9898 c-50 -31 -50 -47 0 -48 12 0 25 -5 28 -10 23 -38 196 -66
383 -62 52 1 63 -2 58 -14 -3 -8 -1 -14 3 -14 5 0 11 7 15 15 3 8 14 15 25 15
11 0 23 5 26 10 3 6 18 10 31 10 38 0 25 23 -22 38 -48 17 -104 10 -141 -16
-22 -15 -37 -18 -67 -13 -46 7 -58 27 -24 40 23 9 23 9 -7 21 -16 7 -46 14
-65 15 -45 3 -129 25 -136 36 -11 18 -60 7 -107 -23z"/>
<path d="M7070 9393 c0 -18 -4 -24 -14 -20 -10 4 -13 1 -10 -8 3 -8 18 -17 34
-20 16 -3 34 -13 41 -21 6 -8 18 -14 25 -14 10 0 7 7 -7 21 -28 28 -13 42 37
31 39 -8 42 -14 29 -57 -5 -17 4 -25 54 -49 81 -38 83 -51 13 -69 l-57 -14 30
-12 c17 -6 40 -16 52 -23 12 -6 34 -8 50 -4 15 3 46 8 67 11 57 7 76 15 76 31
0 9 -11 14 -30 14 -23 0 -30 5 -30 19 0 31 26 46 56 32 33 -15 37 -14 30 4 -3
8 2 19 12 24 15 9 15 10 -4 11 -12 0 -27 6 -33 14 -9 10 -6 17 13 30 14 9 35
16 46 16 13 0 18 4 15 11 -4 6 1 16 11 24 11 7 16 16 13 20 -15 15 -146 24
-326 24 l-193 0 0 -26z"/>
<path d="M7970 9410 c0 -5 6 -13 13 -17 8 -4 24 -23 37 -41 23 -30 27 -32 80
-30 30 1 61 -1 68 -6 19 -11 72 3 72 20 0 8 -17 21 -37 30 -21 9 -55 25 -75
35 -39 20 -158 27 -158 9z"/>
<path d="M3630 7891 c-59 -23 -169 -102 -169 -121 -2 -31 -41 -55 -41 -25 0 8
-4 15 -10 15 -19 0 -10 -21 22 -50 32 -29 48 -31 48 -4 0 8 5 14 10 14 6 0 10
11 10 25 0 29 29 59 74 75 17 7 48 20 69 31 22 10 51 19 67 19 28 0 55 21 43
33 -12 13 -78 6 -123 -12z"/>
<path d="M10395 7315 c-61 -22 -66 -35 -63 -157 2 -87 0 -110 -13 -123 -18
-18 -121 -28 -494 -44 -452 -21 -444 -20 -523 -52 -41 -16 -78 -29 -83 -29 -5
0 -19 -8 -30 -19 -19 -17 -20 -26 -13 -121 7 -100 18 -130 48 -130 20 0 58
-47 54 -66 -2 -11 -22 -29 -46 -42 l-42 -23 1 -97 c1 -53 4 -122 7 -152 l7
-55 165 -2 c91 -2 281 -10 424 -19 199 -12 272 -13 320 -5 60 11 161 21 421
41 73 6 132 15 136 22 4 6 7 48 8 94 1 63 -4 96 -20 136 -27 70 -38 264 -19
345 12 47 11 69 -3 161 -10 59 -17 150 -17 203 0 91 -1 96 -28 122 -25 24 -36
27 -93 27 -35 -1 -82 -7 -104 -15z m54 -651 c36 -30 42 -78 13 -114 -17 -21
-53 -31 -202 -56 -48 -8 -72 19 -77 89 -5 71 11 90 85 98 123 13 148 11 181
-17z m-446 -32 c29 -30 38 -150 12 -175 -29 -29 -77 -21 -116 19 -18 19 -48
42 -66 49 -17 7 -39 25 -49 40 -16 25 -16 30 -3 54 17 30 56 41 142 37 44 -2
63 -8 80 -24z"/>
</g>
</svg>
