<?xml version="1.0" standalone="no"?>
<!DOCTYPE svg PUBLIC "-//W3C//DTD SVG 20010904//EN"
 "http://www.w3.org/TR/2001/REC-SVG-20010904/DTD/svg10.dtd">
<svg version="1.0" xmlns="http://www.w3.org/2000/svg"
 width="1214.000000pt" height="868.000000pt" viewBox="0 0 1214.000000 868.000000"
 preserveAspectRatio="xMidYMid meet">
<metadata>
Created by potrace 1.16, written by Peter Selinger 2001-2019
</metadata>
<g transform="translate(0.000000,868.000000) scale(0.100000,-0.100000)"
fill="#000000" stroke="none">
<path d="M2653 8623 c7 -60 19 -849 38 -2358 5 -473 14 -1024 19 -1225 5 -201
14 -768 21 -1260 11 -853 11 -897 -7 -948 -22 -67 -67 -108 -128 -117 -52 -8
-297 5 -1071 55 -88 6 -268 17 -400 25 -132 8 -337 22 -455 30 -118 8 -289 19
-380 24 -91 6 -193 13 -228 16 l-62 6 0 -119 0 -119 68 -7 c37 -3 144 -10 237
-16 94 -6 267 -19 385 -30 118 -11 307 -26 420 -35 113 -8 297 -24 410 -35
113 -11 288 -26 390 -35 102 -8 223 -18 270 -22 l85 -7 -85 -13 c-131 -19
-931 -35 -1588 -31 l-592 3 0 -160 c0 -92 4 -154 9 -147 5 8 17 12 27 10 14
-2 20 -13 22 -43 2 -37 -16 -271 -40 -520 -5 -55 -12 -425 -14 -823 l-5 -722
438 2 438 3 107 180 c59 99 113 186 119 194 10 11 687 12 4273 7 2344 -3 4283
-8 4309 -12 39 -5 46 -9 36 -20 -6 -8 -20 -14 -30 -14 -10 0 -21 -9 -24 -20
-3 -11 -13 -20 -21 -20 -10 0 -14 -14 -14 -53 0 -41 -4 -55 -20 -65 -11 -7
-20 -23 -20 -37 0 -16 -6 -25 -15 -25 -8 0 -15 -9 -15 -20 0 -17 -7 -20 -40
-20 -29 0 -40 -4 -40 -15 0 -9 -7 -18 -15 -21 -8 -4 -15 -15 -15 -25 0 -19 32
-19 1345 -19 l1345 0 0 1210 0 1210 -84 0 c-105 0 -129 -9 -186 -68 -81 -85
-194 -173 -241 -187 -13 -4 -35 -16 -48 -26 -13 -11 -29 -19 -36 -19 -48 0
-96 -166 -63 -219 15 -25 -4 -587 -21 -604 -6 -6 -11 -23 -11 -38 0 -15 -7
-57 -15 -94 -9 -36 -13 -70 -10 -75 4 -6 2 -10 -4 -10 -6 0 -8 -6 -5 -14 7
-18 -111 -25 -459 -26 l-278 -1 5 258 c3 142 8 472 11 733 6 568 8 591 34 654
19 44 24 48 47 42 15 -4 97 -11 183 -16 188 -11 363 -28 411 -40 19 -5 89 -11
155 -15 66 -4 134 -10 150 -15 17 -5 79 -12 139 -15 61 -4 135 -11 165 -16 31
-5 80 -9 109 -9 l52 0 0 194 0 193 -167 7 c-93 3 -292 8 -443 11 -151 3 -338
10 -415 15 -77 5 -186 12 -243 14 -62 3 -109 9 -118 17 -39 32 -61 134 -48
228 9 68 50 116 91 107 16 -3 134 -13 263 -21 339 -23 356 -24 450 -34 332
-38 447 -46 608 -42 22 1 22 2 22 164 l0 164 -122 119 c-67 65 -148 145 -179
176 -105 106 -191 123 -744 148 -121 5 -272 12 -335 15 -63 3 -232 10 -375 16
-143 6 -305 14 -360 17 l-99 7 -76 145 c-112 214 -197 335 -419 601 -168 200
-212 246 -292 309 -41 33 -99 89 -129 125 -29 36 -61 67 -69 69 -9 3 -56 10
-106 17 -88 11 -169 35 -405 119 -63 23 -230 75 -370 116 -147 43 -283 88
-320 108 -36 19 -97 42 -135 51 -39 10 -86 26 -105 35 -19 10 -57 29 -85 43
-54 27 -173 48 -160 28 3 -6 33 -25 66 -41 82 -42 111 -87 110 -172 0 -87 -58
-245 -110 -303 -10 -11 -48 -59 -84 -107 -138 -185 -422 -493 -592 -642 -156
-137 -300 -236 -342 -236 -17 0 -60 35 -141 113 -374 359 -363 346 -337 397
11 21 23 30 40 30 33 0 40 15 40 85 0 33 4 65 8 71 4 7 38 15 77 19 60 6 76 4
114 -15 32 -15 50 -18 63 -12 10 6 37 16 61 23 24 7 53 23 65 36 12 12 28 23
35 23 6 0 22 11 34 25 14 17 32 25 53 25 20 0 43 10 61 25 16 14 38 25 49 25
40 0 99 28 146 69 26 22 54 41 62 41 8 0 20 7 27 15 7 8 19 15 26 15 8 0 14 6
14 13 0 8 12 24 26 38 14 13 32 39 41 57 9 19 26 38 39 42 12 5 37 23 54 40
21 20 36 28 42 22 5 -5 23 -6 41 -2 30 7 67 20 67 24 23 203 34 502 19 558 -6
24 -15 74 -20 112 -9 61 -7 73 11 111 l21 43 -26 50 c-20 38 -26 64 -25 104 0
29 -2 68 -6 86 -5 27 -4 32 14 32 33 0 36 53 6 127 -33 85 -30 108 16 108 33
0 35 -2 42 -44 4 -25 13 -49 19 -55 8 -8 9 19 4 104 -6 95 -11 119 -27 137
-16 17 -19 29 -14 55 21 103 23 136 10 194 -27 133 -43 279 -36 339 5 42 2 86
-10 145 -10 47 -17 95 -18 106 0 12 -18 52 -40 89 -21 38 -42 80 -45 95 -3 15
-24 44 -46 66 -22 21 -47 53 -54 69 -18 40 -162 189 -202 209 -38 19 -63 21
-63 5 0 -14 -82 -5 -108 11 -13 8 -2 10 43 7 33 -2 54 -2 48 0 -7 3 -13 11
-13 18 0 14 -29 35 -49 35 -6 0 -20 -10 -31 -22 l-21 -23 -5 22 c-6 22 -74 53
-115 53 -12 0 -16 5 -13 14 3 9 -3 17 -17 21 -14 5 -25 3 -27 -4 -2 -6 -8 -11
-13 -11 -6 0 -8 4 -5 9 3 4 -5 6 -17 4 -31 -6 -86 15 -68 27 10 6 1 12 -30 21
-24 7 -48 16 -54 21 -15 13 -45 9 -62 -8 -10 -10 -26 -14 -42 -11 -14 3 -34 1
-44 -4 -12 -7 -29 -6 -50 2 -26 9 -42 8 -83 -4 -29 -9 -70 -13 -95 -10 -37 4
-56 0 -104 -26 -32 -17 -63 -31 -70 -31 -6 0 -20 -8 -29 -19 -13 -14 -26 -17
-61 -13 -32 3 -63 -2 -107 -19 -35 -12 -65 -26 -68 -30 -3 -3 -15 -9 -26 -13
-35 -11 -55 -41 -60 -92 -3 -27 -8 -52 -13 -57 -4 -4 -27 -1 -50 8 -60 21 -62
20 -109 -27 -29 -28 -40 -47 -37 -59 4 -11 -1 -19 -12 -23 -10 -3 -29 -30 -42
-60 -13 -30 -32 -64 -42 -75 -35 -37 -76 -125 -89 -189 -16 -80 -7 -197 19
-232 23 -32 29 -71 41 -275 14 -218 23 -279 53 -355 20 -50 24 -73 19 -100 -8
-38 2 -240 16 -335 6 -33 15 -96 21 -140 13 -97 43 -224 69 -291 11 -27 23
-67 27 -89 4 -22 10 -44 15 -50 4 -5 17 -38 29 -73 22 -68 75 -163 128 -228
18 -23 33 -45 33 -49 0 -13 93 -109 113 -117 16 -7 16 -10 2 -31 -8 -13 -39
-37 -68 -52 -28 -15 -79 -47 -112 -70 -76 -54 -190 -111 -327 -164 -59 -23
-123 -53 -144 -67 -95 -64 -320 -161 -504 -216 -49 -14 -87 -44 -107 -81 -9
-18 -89 -104 -178 -192 -89 -88 -184 -191 -211 -229 -82 -118 -169 -268 -213
-372 -24 -54 -49 -112 -56 -129 -12 -27 -80 -280 -136 -505 -12 -47 -39 -141
-60 -210 -21 -69 -45 -150 -53 -180 -31 -122 -85 -250 -144 -339 -44 -68 -49
-91 -31 -150 8 -27 30 -50 84 -93 l73 -56 4 -79 c3 -43 1 -82 -3 -88 -7 -10
-21 -93 -38 -225 -10 -73 -8 -65 -52 -254 -37 -157 -82 -261 -114 -261 -18 0
-20 8 -24 85 -4 106 16 546 31 660 6 47 19 113 28 148 14 50 15 65 5 75 -7 7
-16 24 -20 37 -4 14 -24 57 -45 95 l-37 70 -17 345 c-33 683 -46 1200 -66
2545 -6 380 -15 803 -20 940 -14 326 -29 1267 -30 1758 l0 387 -101 0 -102 0
6 -57z m3474 -708 c12 -3 24 -13 28 -24 4 -14 19 -20 67 -25 34 -3 64 -10 67
-14 3 -5 40 -22 81 -37 45 -17 85 -40 100 -57 13 -15 31 -28 40 -28 8 0 26 -9
39 -19 18 -14 24 -27 23 -55 -1 -25 3 -36 13 -36 17 0 81 -93 91 -132 3 -16
10 -28 15 -28 17 0 59 -52 59 -72 0 -24 27 -58 45 -58 17 0 61 -50 88 -100 38
-71 63 -154 92 -295 28 -136 29 -203 2 -233 -8 -9 -18 -34 -21 -56 -5 -26 -14
-40 -27 -43 -11 -3 -29 -25 -40 -49 -20 -44 -42 -57 -53 -29 -3 8 -13 15 -21
15 -9 0 -13 -5 -10 -10 4 -6 2 -16 -3 -23 -5 -7 -9 -27 -9 -45 0 -19 -5 -37
-12 -42 -8 -4 -10 -16 -7 -27 5 -16 -4 -29 -45 -59 -28 -22 -57 -52 -65 -67
-8 -15 -26 -33 -39 -39 -19 -8 -25 -19 -25 -41 0 -17 -11 -45 -25 -63 -14 -18
-25 -39 -25 -48 0 -44 -21 -57 -51 -30 -14 12 -15 21 -6 49 8 27 6 41 -7 68
-9 19 -16 44 -16 54 0 11 -13 32 -29 47 -29 27 -121 76 -145 76 -7 0 -23 14
-35 31 -19 25 -21 33 -10 40 11 6 8 14 -11 34 -19 21 -22 29 -13 43 17 28 -11
167 -40 201 -28 32 -87 121 -87 131 0 14 20 13 70 -5 50 -18 60 -18 60 -5 0 6
-7 10 -15 10 -8 0 -15 9 -15 20 0 22 1 23 24 14 9 -3 16 -12 16 -20 0 -8 4
-14 9 -14 5 0 15 -2 23 -5 20 -8 78 49 67 66 -14 22 -11 39 9 46 9 3 25 14 35
25 21 21 63 24 70 4 4 -11 16 -11 71 -1 60 11 82 21 111 50 18 18 18 120 1
158 -19 38 -70 61 -100 45 -9 -5 -23 -5 -33 0 -10 5 -49 12 -86 15 -70 6 -170
44 -164 62 2 5 28 10 58 11 30 0 67 6 82 12 20 8 34 9 47 2 10 -5 30 -10 44
-10 15 0 35 -6 46 -12 15 -10 22 -10 32 0 6 6 20 12 29 12 45 0 23 52 -28 64
-13 4 -54 21 -89 37 -57 27 -69 30 -94 19 -16 -7 -41 -9 -57 -6 -15 3 -88 8
-161 11 -108 4 -137 2 -156 -10 -33 -22 -44 -54 -34 -93 7 -27 13 -32 29 -27
11 4 38 4 59 0 47 -8 51 -24 17 -69 -28 -38 -57 -94 -57 -113 0 -7 -8 -13 -18
-13 -29 0 -40 -19 -35 -59 4 -30 2 -39 -13 -45 -19 -7 -34 8 -34 36 0 10 -8
25 -19 35 -10 10 -26 40 -35 68 -11 35 -30 62 -64 92 -37 34 -44 45 -34 55 17
17 15 79 -4 107 -12 17 -23 22 -43 18 -14 -3 -34 -1 -45 5 -10 5 -52 10 -92
10 -64 -1 -81 -5 -128 -31 -29 -17 -61 -31 -70 -31 -10 0 -45 -26 -78 -57 -44
-42 -70 -78 -93 -128 -55 -119 -57 -129 -50 -190 7 -51 11 -59 42 -77 20 -12
32 -26 29 -34 -3 -7 -1 -16 3 -18 12 -8 20 -82 14 -122 -4 -26 -16 -42 -49
-66 -39 -28 -44 -36 -44 -69 0 -21 -6 -42 -14 -46 -12 -8 -25 -46 -29 -85 -1
-10 -7 -18 -14 -18 -18 0 -40 38 -47 83 -8 45 -10 452 -2 465 3 4 9 36 15 69
10 66 40 140 75 188 59 81 90 171 87 254 -2 46 21 77 62 85 45 8 61 1 74 -34
9 -24 17 -29 44 -29 19 0 55 -3 81 -7 33 -4 56 -1 78 10 17 8 38 12 46 9 9 -3
14 1 14 12 0 13 6 16 25 11 17 -4 36 2 64 21 49 34 51 43 9 37 -26 -4 -36 -1
-46 17 -12 18 -12 23 0 31 24 16 -16 34 -71 32 -41 -1 -52 2 -56 17 -10 32 3
40 54 33 44 -6 50 -4 69 21 12 15 22 33 22 40 0 22 37 46 66 43 24 -3 29 0 27
18 -2 15 4 24 18 27 16 4 19 2 15 -10 -5 -12 -3 -13 6 -6 7 6 33 14 58 18 25
4 50 11 55 15 22 18 95 16 182 -5z m-147 -1174 c0 -23 31 -51 55 -51 27 0 97
-28 107 -43 3 -5 4 -16 1 -24 -4 -10 -9 -11 -19 -2 -9 7 -31 9 -59 6 -24 -4
-47 -3 -50 2 -3 5 -38 7 -78 4 -58 -4 -75 -2 -86 10 -19 23 -10 60 18 74 13 6
28 19 33 27 5 9 18 16 28 16 12 0 20 7 20 17 0 15 2 14 15 -3 8 -10 15 -25 15
-33z m-462 -154 c7 -5 21 -5 32 -2 14 4 27 -2 45 -22 32 -36 31 -45 -5 -86
-16 -19 -30 -40 -30 -46 0 -11 -41 -55 -66 -69 -6 -4 -22 -27 -36 -52 -28 -52
-62 -74 -91 -59 -14 8 -17 17 -12 40 4 18 3 29 -4 29 -6 0 -11 5 -11 11 0 5 4
7 10 4 6 -4 8 11 4 41 -3 26 -1 58 4 73 5 14 15 45 21 68 10 36 18 46 54 62
43 20 62 22 85 8z m813 -508 c1 -5 2 -18 3 -28 0 -11 6 -25 11 -30 15 -15 56
15 49 34 -10 25 7 17 41 -21 30 -33 32 -38 21 -67 -22 -63 -42 -92 -65 -93
-21 -1 -35 -14 -44 -37 -1 -5 -47 -10 -101 -11 -65 -2 -101 -7 -106 -16 -6 -9
-15 -7 -39 11 -32 24 -49 57 -34 68 5 3 20 22 33 41 13 19 34 47 47 61 14 15
23 35 21 45 -2 12 3 19 15 19 10 0 21 5 25 11 9 15 24 19 77 21 25 1 46 -3 46
-8z m529 -2351 c-11 -18 -23 -40 -26 -50 -8 -22 -34 -28 -122 -28 -69 0 -72 1
-62 19 5 11 10 33 10 50 0 33 -9 31 158 39 l62 3 -20 -33z m-873 -6 c-15 -19
-63 -42 -86 -42 -11 0 -27 -10 -36 -22 -14 -21 -23 -23 -118 -23 l-102 0 -3
39 c-6 69 -11 67 182 64 143 -3 172 -5 163 -16z m472 8 c8 0 -9 -12 -37 -26
-30 -15 -62 -24 -73 -21 -31 8 -75 -11 -61 -25 21 -21 13 -25 -60 -31 -40 -3
-83 -9 -95 -12 -18 -6 -22 -3 -25 21 l-3 28 -25 -26 c-14 -15 -33 -38 -43 -52
-21 -30 -45 -25 -42 8 5 42 23 62 67 76 24 8 57 26 74 40 30 26 32 26 170 23
76 -1 146 -2 153 -3z m139 -196 c12 -23 30 -79 39 -123 22 -112 6 -214 -54
-339 -32 -66 -183 -209 -268 -254 l-59 -31 -276 12 c-151 7 -368 15 -482 18
l-206 5 -36 30 c-23 19 -36 38 -36 54 0 25 7 29 29 15 8 -5 11 -16 6 -30 -6
-19 -4 -20 20 -11 34 13 58 13 50 0 -3 -5 1 -10 9 -10 11 0 16 9 16 28 0 21
-5 28 -21 29 -12 1 -27 7 -32 12 -17 17 -18 68 -2 81 18 15 17 17 35 -40 l15
-45 95 -7 c152 -11 565 -23 687 -21 119 3 143 10 211 61 41 31 111 120 142
182 47 90 36 312 -20 390 -11 15 -20 31 -20 35 0 3 30 5 67 3 l68 -3 23 -41z
m-647 -2 c0 -15 3 -21 6 -14 7 18 30 14 29 -5 -1 -24 -73 -130 -100 -148 -18
-13 -21 -23 -18 -75 4 -71 -6 -85 -63 -85 l-40 0 -3 51 c-5 91 41 202 108 262
53 47 80 52 81 14z m-576 -118 c22 8 19 -46 -5 -91 -22 -41 -26 -78 -10 -88
12 -7 2 -91 -15 -124 -10 -20 -21 -25 -54 -27 l-41 -2 0 46 c0 45 2 48 42 71
l41 23 -24 19 c-13 10 -32 19 -41 19 -9 0 -23 6 -31 14 -20 20 -60 9 -54 -15
3 -11 -2 -19 -14 -22 -10 -3 -19 -3 -21 -2 -2 2 -1 33 0 69 l4 66 51 -6 c50
-6 53 -5 70 24 18 32 53 45 74 29 7 -5 20 -7 28 -3z m4966 2 c75 -7 83 -11 97
-50 15 -42 15 -196 0 -262 l-12 -51 -35 43 c-66 80 -82 103 -103 151 -11 26
-28 56 -36 66 -16 18 -42 82 -42 105 0 8 11 11 38 7 20 -2 62 -7 93 -9z
m-4443 -303 c6 -16 13 -40 16 -55 3 -14 18 -40 32 -57 l26 -31 -34 1 c-81 1
-112 13 -130 49 -24 49 -23 80 2 80 11 0 20 3 20 8 0 6 35 28 51 31 4 0 11
-11 17 -26z m877 -225 c-18 -58 -18 -78 1 -79 18 0 18 -1 -1 -9 -23 -10 -177
-12 -155 -2 17 8 23 24 24 67 1 40 10 45 80 45 56 0 58 -1 51 -22z m3619 -138
c4 -5 11 -38 13 -74 5 -58 3 -70 -18 -101 -46 -67 -48 -64 -74 89 -12 72 -13
91 -3 98 14 9 68 1 82 -12z m-2694 -290 c0 -5 -16 -10 -36 -10 -31 0 -35 -3
-28 -17 7 -17 14 -85 15 -146 0 -20 7 -31 25 -37 17 -7 24 -17 24 -37 0 -39
-16 -61 -31 -46 -15 15 -39 5 -39 -17 0 -10 -6 -21 -12 -24 -7 -3 8 -3 35 0
29 4 47 2 47 -4 0 -13 -25 -22 -64 -22 l-33 0 -6 107 c-4 58 -7 139 -7 179 0
67 2 73 23 77 43 8 87 7 87 -3z m-312 -11 c20 -7 29 -15 25 -25 -3 -8 -1 -14
5 -14 5 0 7 -11 4 -25 -3 -18 0 -25 12 -25 9 0 15 -3 15 -7 -7 -45 12 -77 47
-78 16 -1 29 -6 31 -12 3 -7 -46 -13 -137 -18 -77 -4 -143 -11 -146 -16 -3 -5
-2 -24 2 -44 l6 -35 70 0 c54 0 76 5 98 20 16 11 31 16 34 12 3 -5 -7 -15 -22
-22 l-27 -13 25 -7 c14 -4 33 -3 43 2 28 14 20 -9 -12 -31 -65 -47 -197 -46
-266 0 -77 52 -99 183 -44 263 44 65 160 102 237 75z m-1015 -63 c14 -11 15
-15 5 -19 -8 -4 -5 -8 9 -12 31 -10 21 -21 -26 -29 -62 -10 -82 -46 -80 -143
2 -76 12 -108 30 -97 5 3 9 -2 9 -10 0 -9 9 -16 20 -16 11 0 20 -3 20 -8 0 -4
-18 -6 -40 -4 -31 3 -51 14 -89 51 -61 57 -74 113 -46 186 16 43 45 62 45 30
0 -8 4 -15 10 -15 5 0 6 -7 3 -17 -4 -10 -2 -14 4 -10 17 11 22 58 7 64 -24 9
-15 34 19 48 41 18 77 18 100 1z m381 -28 c8 -5 7 -11 -2 -20 -16 -16 -16 -29
1 -25 8 1 11 -7 7 -28 -2 -16 -4 -51 -5 -77 0 -43 -2 -48 -22 -48 -13 0 -23
-4 -23 -10 0 -5 7 -10 15 -10 8 0 15 -9 15 -20 0 -11 6 -20 14 -20 8 0 17 -7
20 -16 5 -14 17 -16 74 -11 61 6 65 5 42 -8 -47 -27 -132 -13 -178 29 -62 55
-81 169 -42 246 25 48 51 66 64 42 5 -9 14 -20 20 -24z m2351 -253 c48 -145
108 -274 263 -565 70 -132 124 -284 125 -351 1 -86 -33 -110 -158 -113 -53 -1
-76 6 -191 57 -72 31 -138 57 -147 57 -34 0 -40 26 -27 105 18 108 8 249 -26
357 -25 82 -26 92 -16 155 6 38 19 115 27 173 9 58 25 125 35 150 10 25 26 67
35 93 10 27 21 45 24 40 4 -4 30 -75 56 -158z m-5375 75 c19 -5 64 -16 100
-25 36 -10 73 -24 83 -33 18 -16 24 -77 7 -87 -5 -3 -10 -14 -10 -24 0 -10
-15 -33 -32 -52 -18 -19 -32 -35 -30 -36 8 -9 -4 -29 -44 -69 -43 -44 -47 -46
-90 -41 -36 4 -47 1 -58 -14 -12 -18 -13 -18 -24 7 -7 13 -12 31 -12 39 0 7
-4 15 -10 17 -5 2 -11 46 -14 98 -3 52 -7 114 -9 138 -3 34 0 47 18 66 13 14
21 27 18 29 -6 7 66 -2 107 -13z m-1205 -45 c313 -25 305 -22 313 -138 5 -77
-11 -167 -30 -167 -5 0 -35 18 -66 40 l-57 40 -220 4 -220 4 -42 -27 c-23 -14
-42 -29 -43 -32 -1 -16 65 -32 145 -36 232 -9 441 -26 472 -39 31 -14 33 -17
33 -65 0 -28 -6 -97 -14 -153 -8 -55 -17 -130 -21 -166 -5 -56 -26 -225 -41
-327 l-5 -33 -609 0 c-343 0 -610 4 -610 9 0 23 32 28 135 25 l110 -4 32 30
31 29 -4 299 c-3 196 0 315 7 348 12 54 13 79 4 140 -9 57 10 117 50 160 l35
37 113 -6 c103 -5 116 -4 167 18 66 29 97 30 335 10z m1887 -130 c20 -28 50
-57 69 -67 55 -26 63 -41 46 -80 -47 -104 -46 -161 3 -233 l31 -46 -16 -67
c-9 -37 -20 -76 -25 -87 -5 -11 -16 -61 -25 -111 -8 -50 -22 -113 -30 -140 -8
-27 -15 -68 -15 -91 l0 -43 -87 0 c-49 -1 -134 -1 -191 -2 -57 0 -106 2 -109
6 -5 5 29 123 83 281 7 22 27 87 44 145 17 58 40 132 50 165 32 103 99 348
106 388 8 49 23 45 66 -18z m-3098 -1062 c48 -8 71 -43 80 -123 10 -85 -10
-121 -86 -154 -33 -14 -68 -26 -79 -26 -11 0 -39 20 -64 44 -44 42 -45 45 -45
105 0 57 3 67 36 106 42 52 75 62 158 48z m413 -84 c27 -10 93 -66 93 -79 0
-4 -16 -14 -36 -23 -35 -17 -36 -17 -66 8 -69 59 -158 6 -158 -95 0 -84 97
-132 164 -79 26 20 55 19 83 -3 18 -14 -8 -49 -56 -76 -51 -29 -129 -29 -187
-2 -129 63 -137 254 -14 332 46 28 126 36 177 17z m1276 -13 c42 -21 45 -33
17 -69 l-20 -25 -37 19 c-40 20 -79 24 -102 10 -24 -15 -5 -37 46 -51 66 -18
120 -46 133 -69 15 -30 12 -94 -6 -120 -38 -54 -156 -68 -234 -28 -24 12 -46
27 -47 33 -2 7 7 24 20 39 l24 28 29 -22 c36 -26 107 -32 129 -11 23 24 3 40
-71 61 -83 22 -124 60 -124 113 0 40 31 83 74 102 39 18 120 13 169 -10z
m1057 -37 c0 -55 2 -60 18 -53 9 4 37 9 62 12 35 3 52 -1 70 -16 24 -19 25
-27 28 -136 l4 -116 -41 0 -40 0 -3 98 -3 97 -28 3 c-52 6 -67 -20 -67 -113 0
-82 0 -83 -27 -88 -53 -10 -53 -9 -53 182 0 98 3 181 7 184 3 4 21 7 40 7 l33
0 0 -61z m1090 54 c0 -5 -27 -90 -61 -190 -56 -170 -62 -183 -85 -183 -13 0
-24 5 -24 11 0 11 109 348 117 362 6 9 53 9 53 0z m410 -3 c20 -5 51 -25 69
-44 l34 -35 -37 -18 c-25 -12 -39 -14 -44 -7 -13 20 -50 34 -87 34 -56 0 -95
-44 -95 -107 0 -56 17 -86 62 -109 49 -25 118 -4 118 37 0 14 -9 19 -47 21
-46 3 -48 4 -48 33 l0 30 88 3 87 3 0 -75 0 -76 -42 -27 c-36 -24 -52 -28
-113 -28 -62 0 -77 4 -113 28 -124 86 -98 282 44 332 47 17 77 18 124 5z m908
-177 l2 -183 -40 0 c-22 0 -40 4 -40 9 0 6 -12 3 -27 -5 -35 -18 -55 -18 -98
0 -49 21 -68 64 -63 144 4 58 8 68 36 93 35 31 94 39 133 19 18 -10 19 -7 19
43 0 30 3 57 7 61 4 4 21 6 38 4 l30 -3 3 -182z m1783 171 c16 -20 1 -49 -27
-50 -39 -2 -44 -4 -44 -18 0 -8 10 -16 23 -18 17 -2 23 -11 25 -35 3 -30 1
-33 -22 -33 l-26 0 0 -100 0 -100 -40 0 -40 0 0 100 c0 93 -1 100 -20 100 -28
0 -29 60 -1 67 11 3 22 17 26 31 11 47 44 72 91 72 26 0 47 -6 55 -16z m429
-24 l0 -40 -50 0 -50 0 0 -145 0 -145 -45 0 -45 0 0 144 0 145 -52 3 c-52 3
-53 3 -49 33 1 17 8 33 15 37 6 4 71 8 144 8 l132 0 0 -40z m1113 24 c41 -21
77 -54 77 -70 0 -8 -14 -21 -31 -30 -30 -15 -32 -15 -58 10 -48 46 -123 30
-156 -34 -19 -37 -19 -64 1 -105 21 -45 74 -70 116 -56 18 6 40 19 50 27 15
14 22 15 48 4 37 -15 38 -29 3 -62 -100 -95 -277 -41 -314 94 -11 44 -5 97 16
138 43 82 167 125 248 84z m691 0 c8 -20 8 -114 -1 -247 l-6 -107 -34 0 c-18
0 -33 5 -33 10 0 6 -13 4 -30 -5 -40 -21 -71 -19 -111 8 -87 58 -70 229 25
255 36 10 83 5 92 -9 14 -24 24 -3 24 51 l0 60 34 0 c22 0 36 -6 40 -16z
m-3246 -51 c3 -27 7 -33 28 -33 21 0 24 -5 24 -35 0 -31 -3 -35 -25 -35 -26 0
-26 -1 -23 -67 3 -59 6 -68 22 -68 11 0 23 -11 28 -25 18 -48 -56 -68 -106
-29 -24 19 -26 26 -26 105 0 77 -2 84 -20 84 -16 0 -20 7 -20 35 0 28 4 35 20
35 15 0 20 7 20 28 0 37 8 44 45 40 26 -3 30 -7 33 -35z m-5306 -44 c2 -7 12
-7 30 2 37 16 60 5 56 -28 -2 -20 -10 -29 -31 -34 -52 -14 -57 -25 -57 -115
l0 -84 -34 0 -35 0 -3 125 c-2 69 -1 130 0 135 5 14 69 13 74 -1z m198 -88 c6
-106 17 -123 67 -105 28 9 28 10 31 107 l3 98 37 -3 37 -3 3 -132 3 -133 -41
0 c-22 0 -40 5 -40 10 0 6 -13 4 -30 -5 -33 -17 -83 -20 -110 -5 -10 5 -23 24
-29 41 -12 35 -15 211 -4 223 4 4 21 6 38 4 l30 -3 5 -94z m448 68 c2 -19 -12
-45 -52 -97 -31 -39 -56 -73 -56 -76 0 -3 25 -6 55 -6 54 0 55 0 55 -30 l0
-30 -110 0 -110 0 0 28 c0 18 19 52 55 100 l55 72 -55 0 c-54 0 -55 0 -55 29
0 16 6 32 13 35 6 3 55 4 107 3 94 -3 95 -3 98 -28z m711 16 c38 -19 43 -33
49 -153 l5 -103 -54 0 c-30 1 -75 -2 -100 -5 -39 -5 -50 -2 -73 18 -16 14 -29
37 -33 60 -5 32 -1 41 25 68 23 23 39 30 69 30 21 0 45 -4 53 -9 18 -12 31 -4
23 15 -11 28 -51 36 -90 17 -34 -16 -36 -16 -49 2 -21 29 -17 41 19 59 40 20
119 21 156 1z m183 4 c3 -9 9 -9 25 0 12 6 42 11 67 11 36 0 48 -5 65 -26 18
-23 21 -41 21 -135 0 -99 -2 -108 -20 -114 -11 -3 -29 -3 -40 0 -18 6 -20 15
-20 94 0 92 -8 111 -46 111 -37 0 -49 -27 -51 -114 l-2 -81 -35 -3 -36 -3 0
135 0 136 34 0 c19 0 36 -5 38 -11z m438 -4 c35 -18 38 -35 9 -61 -16 -15 -24
-16 -39 -6 -50 31 -100 1 -100 -59 0 -58 60 -90 100 -54 15 13 19 12 40 -10
l24 -25 -21 -22 c-48 -47 -160 -29 -206 33 -41 57 -19 164 42 202 33 21 113
22 151 2z m586 -4 c34 -21 64 -75 64 -115 l0 -26 -89 0 c-91 0 -113 -9 -91
-35 19 -22 67 -28 100 -12 28 14 31 14 45 -5 8 -12 12 -25 8 -31 -9 -15 -70
-37 -103 -37 -44 0 -107 35 -125 70 -19 37 -19 103 0 141 34 64 128 89 191 50z
m291 -3 c23 -23 8 -62 -20 -53 -12 4 -39 10 -60 12 -33 5 -38 3 -35 -13 2 -12
19 -22 53 -30 50 -13 95 -50 95 -79 0 -82 -100 -119 -199 -75 -42 19 -43 21
-28 43 16 24 21 24 85 5 36 -10 44 -10 58 4 15 15 15 17 -2 26 -11 5 -36 13
-58 16 -45 9 -86 46 -86 78 0 29 25 67 54 79 31 13 124 5 143 -13z m1005 10
c4 -10 10 -10 32 0 45 20 58 16 54 -20 -2 -25 -9 -33 -31 -39 -52 -14 -57 -25
-57 -115 l0 -84 -35 0 -35 0 0 128 c0 71 3 132 7 135 11 12 61 8 65 -5z m309
-3 c40 -21 49 -50 49 -161 l0 -95 -52 1 c-29 0 -72 -2 -95 -6 -38 -5 -46 -3
-73 24 -40 41 -40 83 -1 123 31 31 68 37 116 19 24 -9 26 -8 23 12 -5 34 -47
45 -89 24 -32 -16 -34 -16 -46 1 -20 26 -16 39 20 57 41 20 109 20 148 1z
m493 9 c13 -5 16 -23 16 -93 0 -92 8 -111 46 -111 42 0 54 25 54 114 0 45 2
85 5 87 2 3 20 3 40 1 l35 -4 0 -129 0 -129 -40 0 c-22 0 -40 5 -40 10 0 6
-13 4 -30 -5 -53 -28 -114 -16 -135 26 -15 29 -22 219 -8 232 8 9 36 9 57 1z
m455 -20 l31 -26 0 -109 0 -110 -47 1 c-27 1 -68 -1 -93 -5 -38 -5 -49 -3 -75
18 -24 20 -30 32 -30 65 0 25 7 48 19 61 24 26 76 36 116 23 27 -10 30 -9 30
9 0 11 -11 24 -25 31 -21 9 -33 8 -62 -6 -35 -17 -38 -17 -50 0 -7 10 -13 24
-13 31 0 21 59 42 117 43 41 0 58 -5 82 -26z m477 7 c33 -20 69 -93 62 -127
-3 -17 -15 -19 -96 -22 -99 -3 -113 -13 -58 -41 24 -11 34 -11 67 2 37 15 38
14 54 -9 14 -22 14 -24 -11 -40 -62 -41 -163 -23 -208 38 -25 35 -26 116 -2
153 41 62 131 83 192 46z m452 -1 c59 -36 79 -124 44 -189 -48 -89 -190 -94
-242 -9 -23 38 -26 110 -7 148 33 65 138 91 205 50z m819 9 c8 -8 17 -8 31 0
38 20 52 14 52 -24 0 -29 -4 -35 -21 -35 -51 0 -59 -15 -59 -110 l0 -90 -40 0
-40 0 0 128 c0 71 3 132 7 135 10 11 58 8 70 -4z m201 -89 c3 -97 8 -110 46
-110 43 0 56 28 56 117 l0 83 35 0 35 0 0 -130 0 -131 -52 1 c-29 0 -74 -2
-100 -6 -42 -5 -50 -3 -72 20 -25 24 -26 31 -26 135 l0 110 28 4 c15 2 32 3
37 2 6 -1 11 -43 13 -95z m432 84 c36 -22 58 -60 62 -109 l3 -40 -90 -1 c-94
-2 -112 -11 -73 -38 28 -20 45 -20 82 -1 26 14 30 14 42 -2 21 -29 16 -43 -21
-59 -134 -56 -263 71 -197 194 35 67 128 93 192 56z m687 -4 c89 -54 83 -199
-10 -243 -100 -48 -207 18 -207 126 0 80 58 137 140 137 27 0 58 -8 77 -20z
m629 1 c33 -20 69 -93 62 -127 -3 -17 -15 -19 -96 -22 -50 -1 -92 -7 -92 -11
0 -32 85 -46 116 -20 13 11 19 9 34 -11 22 -29 18 -38 -26 -56 -44 -18 -84
-18 -133 2 -73 29 -103 140 -56 207 40 57 131 75 191 38z m182 7 c9 -9 15 -9
24 0 7 7 22 12 35 12 20 0 23 -5 23 -35 0 -29 -4 -35 -21 -35 -51 0 -59 -15
-59 -110 l0 -90 -40 0 -40 0 0 128 c0 71 3 132 7 135 11 11 58 8 71 -5z m292
-3 c34 -18 34 -16 18 -50 -13 -29 -16 -30 -42 -10 -23 18 -72 20 -82 4 -9 -15
10 -25 58 -33 52 -8 88 -45 88 -89 0 -71 -93 -108 -185 -72 -48 18 -53 29 -30
62 15 21 15 21 52 2 44 -23 66 -24 82 -5 14 17 11 19 -60 40 -66 19 -83 35
-83 83 0 52 39 83 105 83 28 0 63 -7 79 -15z"/>
<path d="M7291 2377 c-34 -17 -65 -62 -57 -82 5 -15 15 -16 62 -10 40 5 54 3
50 -4 -5 -7 4 -11 24 -11 24 0 33 6 41 26 13 36 3 61 -31 79 -35 18 -57 19
-89 2z"/>
</g>
</svg>
