<?xml version="1.0" standalone="no"?>
<!DOCTYPE svg PUBLIC "-//W3C//DTD SVG 20010904//EN"
 "http://www.w3.org/TR/2001/REC-SVG-20010904/DTD/svg10.dtd">
<svg version="1.0" xmlns="http://www.w3.org/2000/svg"
 width="1252.000000pt" height="1050.000000pt" viewBox="0 0 1252.000000 1050.000000"
 preserveAspectRatio="xMidYMid meet">
<metadata>
Created by potrace 1.16, written by Peter Selinger 2001-2019
</metadata>
<g transform="translate(0.000000,1050.000000) scale(0.100000,-0.100000)"
fill="#000000" stroke="none">
<path d="M6722 8042 c-7 -5 -73 -8 -147 -8 -74 1 -135 -2 -135 -6 0 -10 10
-11 84 -8 62 2 72 -14 14 -23 -75 -11 -239 -47 -251 -54 -6 -4 -64 -8 -127 -8
-103 0 -115 -2 -112 -17 3 -18 -7 -22 -82 -32 -21 -3 -43 -12 -50 -19 -6 -8
-29 -18 -51 -22 -57 -10 -124 -42 -168 -81 -20 -19 -44 -34 -52 -34 -8 0 -28
-19 -45 -42 -17 -23 -39 -48 -50 -55 -11 -8 -18 -19 -14 -24 3 -5 -4 -28 -15
-50 -12 -22 -21 -46 -21 -53 0 -17 -22 -26 -60 -26 -35 0 -50 -19 -21 -27 31
-8 25 -33 -9 -39 -16 -4 -30 -13 -30 -21 0 -21 -49 -66 -65 -59 -10 3 -15 -1
-16 -12 0 -13 -3 -12 -11 6 -12 25 -45 37 -83 30 -37 -8 -30 10 7 20 23 6 33
14 33 28 0 13 8 20 28 22 32 4 36 22 6 29 -16 5 -19 11 -14 31 3 13 9 37 12
53 3 16 12 34 19 40 19 15 18 49 -1 49 -8 0 -23 -17 -34 -37 -11 -21 -35 -55
-55 -76 -19 -21 -45 -59 -58 -85 -23 -46 -23 -54 -24 -367 -1 -341 1 -328 -60
-585 -17 -72 -18 -140 -3 -227 6 -32 14 -87 20 -123 6 -39 25 -97 48 -145 22
-44 45 -108 51 -142 6 -35 18 -80 27 -100 8 -21 19 -72 24 -113 5 -41 18 -102
29 -135 69 -208 81 -240 90 -243 20 -7 24 0 21 33 -2 23 5 48 20 72 20 32 24
56 31 192 4 86 12 179 17 206 6 28 11 91 11 140 1 50 5 117 9 150 6 56 8 60
34 63 15 2 27 9 28 15 3 37 -3 95 -12 119 -12 29 -1 48 31 60 11 4 7 9 -12 17
-31 12 -36 26 -12 35 24 9 112 7 118 -3 19 -29 102 -7 90 24 -6 16 11 21 89
28 34 3 55 12 73 31 l26 26 26 -20 c19 -16 40 -20 94 -20 76 0 95 -15 63 -50
-17 -19 -17 -21 -1 -39 9 -10 26 -36 36 -57 22 -43 17 -82 -17 -131 -11 -15
-23 -36 -26 -46 -4 -9 -17 -21 -29 -26 -26 -10 -59 -40 -102 -92 l-29 -34
-111 0 c-88 0 -120 4 -153 19 -24 11 -50 16 -60 12 -17 -7 -16 -9 5 -27 39
-31 115 -48 250 -54 148 -7 194 -13 188 -24 -11 -18 45 -55 87 -58 71 -5 82
-8 90 -20 5 -9 14 -8 35 3 33 17 64 18 80 2 9 -9 15 -9 24 0 14 14 57 16 77 3
7 -5 16 -32 19 -60 2 -28 8 -51 13 -51 5 0 9 -9 9 -20 0 -11 -4 -20 -10 -20
-5 0 -14 -19 -21 -42 -6 -24 -26 -66 -45 -94 -19 -28 -34 -62 -34 -75 0 -13
-4 -38 -9 -56 -13 -45 6 -60 48 -39 38 20 55 20 47 1 -4 -10 2 -19 17 -25 12
-5 16 -9 10 -9 -7 -1 -13 -6 -13 -11 0 -6 6 -10 13 -8 6 2 30 -8 51 -22 52
-32 112 -38 269 -27 48 4 97 2 110 -2 24 -10 93 -31 170 -51 81 -22 56 -33
-55 -26 -80 5 -115 3 -158 -9 -30 -9 -66 -19 -80 -22 -14 -3 -39 -16 -57 -29
-17 -13 -35 -24 -39 -24 -4 0 -16 -8 -26 -17 -15 -13 -37 -16 -110 -15 -50 1
-100 -3 -110 -9 -11 -6 -30 -34 -42 -62 -19 -42 -22 -62 -17 -107 4 -30 10
-61 14 -67 10 -16 122 -17 166 -2 l31 11 -2 67 -3 66 65 7 c102 11 529 17 535
8 6 -10 -35 -20 -90 -22 -22 0 -47 -6 -55 -13 -8 -6 -42 -22 -75 -35 -33 -13
-67 -29 -76 -37 -8 -7 -19 -13 -24 -13 -5 0 -17 -8 -28 -17 -10 -10 -35 -23
-55 -28 -26 -8 -38 -18 -45 -40 -5 -17 -15 -37 -22 -45 -7 -8 -15 -35 -19 -59
-6 -38 -3 -49 20 -82 15 -22 29 -58 31 -84 5 -37 1 -50 -20 -77 -52 -68 -64
-78 -95 -78 -23 0 -32 -6 -38 -22 -12 -40 -55 -87 -88 -98 -44 -14 -69 -67
-60 -126 4 -31 2 -49 -10 -65 -15 -22 -13 -25 30 -73 71 -82 74 -85 74 -104 0
-10 -5 -23 -11 -29 -8 -8 -3 -23 21 -57 19 -25 37 -46 42 -46 4 0 8 -10 8 -23
0 -38 98 -131 164 -156 31 -11 65 -21 74 -21 10 0 26 -6 37 -13 41 -28 153
-37 255 -22 52 8 111 15 131 15 20 0 56 7 80 16 24 8 71 17 105 18 33 2 71 9
84 16 14 8 25 8 29 2 3 -5 29 -13 58 -17 51 -7 52 -8 55 -42 2 -30 9 -39 40
-55 24 -13 35 -24 31 -34 -3 -8 -10 -14 -15 -14 -6 0 -8 -7 -4 -15 3 -9 0 -15
-9 -15 -12 0 -12 -4 2 -20 10 -11 24 -20 33 -21 10 0 9 -3 -5 -9 -14 -7 -10
-8 16 -4 22 3 39 1 43 -5 10 -15 106 -13 135 3 17 10 34 11 55 5 17 -5 43 -9
59 -9 18 0 37 -10 53 -27 19 -21 27 -24 33 -14 6 9 9 8 13 -6 6 -23 -27 -70
-36 -51 -4 9 -9 7 -18 -7 -22 -32 -86 -95 -99 -95 -6 0 -34 -13 -61 -30 -26
-16 -57 -30 -67 -30 -10 0 -38 -8 -62 -17 -38 -14 -102 -17 -439 -22 -702 -9
-730 -7 -910 51 -249 80 -494 258 -595 432 -40 69 -82 187 -95 266 -14 84 -22
100 -55 100 -22 0 -134 -91 -164 -133 -39 -55 -110 -117 -134 -117 -30 0 -81
-54 -107 -115 -10 -23 -52 -92 -94 -153 -42 -62 -76 -116 -76 -121 0 -4 -17
-13 -38 -19 -25 -8 -43 -21 -50 -37 -8 -17 -20 -25 -36 -25 -18 0 -27 -8 -35
-30 -6 -20 -17 -30 -30 -30 -11 0 -22 -4 -25 -9 -3 -5 -18 -12 -33 -16 -33 -7
-103 -54 -103 -67 0 -16 -34 -46 -70 -61 -20 -8 -48 -28 -62 -46 -15 -17 -34
-31 -43 -31 -23 0 -64 -28 -112 -77 -34 -35 -49 -43 -78 -43 -43 0 -54 -20
-30 -57 l17 -26 -35 6 c-40 6 -77 -1 -77 -14 0 -5 7 -9 15 -9 8 0 15 -4 15
-10 0 -5 -30 -10 -67 -12 -62 -3 -68 -5 -73 -27 -3 -13 -14 -29 -25 -35 -11
-6 -24 -17 -28 -23 -5 -9 -33 -13 -77 -13 -74 0 -90 -12 -42 -32 l27 -11 -34
-9 c-19 -5 -43 -7 -53 -5 -23 7 -37 -21 -17 -34 9 -6 -1 -9 -31 -9 -29 0 -54
-7 -70 -20 -14 -11 -30 -20 -37 -20 -7 0 -17 -9 -23 -20 -6 -11 -15 -18 -20
-15 -5 3 -11 1 -15 -5 -3 -5 -13 -10 -22 -10 -28 0 -93 -33 -93 -47 0 -7 -10
-13 -23 -13 -12 0 -32 -6 -43 -14 -11 -8 -42 -21 -69 -29 -38 -11 -51 -20 -55
-38 -4 -17 -17 -28 -45 -37 -22 -7 -54 -26 -70 -43 -17 -16 -38 -29 -47 -29
-18 0 -72 -40 -64 -48 3 -3 -5 -11 -18 -18 -20 -10 -32 -9 -68 3 -64 24 -173
20 -236 -7 -65 -28 -125 -94 -142 -155 -14 -51 -7 -198 10 -203 6 -2 10 -9 10
-15 0 -5 -3 -7 -6 -4 -4 4 -20 -15 -37 -41 -17 -26 -50 -71 -75 -100 -59 -71
-143 -228 -177 -332 -15 -47 -40 -116 -55 -155 -66 -162 -83 -206 -129 -330
-27 -71 -63 -181 -80 -243 -18 -62 -51 -172 -75 -245 l-43 -132 -698 -3 c-385
-1 -703 2 -708 7 -4 4 -11 34 -14 65 -9 88 -35 63 -30 -29 l2 -40 -327 -3
c-207 -1 -328 -6 -328 -12 0 -7 2151 -10 6260 -10 l6260 0 -2 1033 -3 1032
-44 90 c-76 153 -133 246 -150 244 -35 -3 -45 4 -138 97 -53 53 -112 103 -131
111 -38 16 -102 78 -102 99 0 8 -4 14 -10 14 -5 0 -24 19 -41 43 -17 23 -42
48 -57 56 -15 7 -43 28 -62 46 -35 33 -97 65 -137 70 -41 6 -72 17 -170 62
-18 9 -33 22 -33 29 0 8 -4 14 -10 14 -5 0 -17 8 -27 18 -26 27 -130 60 -185
60 -46 -1 -60 -9 -38 -23 6 -3 10 -15 10 -26 0 -10 10 -29 22 -41 21 -21 21
-21 2 -35 -17 -13 -22 -11 -43 14 -13 15 -34 33 -45 38 -12 7 -20 19 -18 29 3
16 -31 56 -48 56 -4 0 -11 16 -14 35 -5 25 -13 36 -29 40 -54 14 -135 26 -164
25 -27 0 -33 3 -33 20 0 11 -3 21 -7 21 -5 1 -17 3 -28 5 -63 9 -210 53 -213
63 -2 6 -10 11 -18 11 -8 0 -14 5 -14 10 0 6 -12 15 -27 21 -23 9 -30 7 -44
-10 -21 -26 -25 -26 -31 -3 -4 15 -19 21 -62 26 -31 3 -64 10 -74 15 -29 16
-120 41 -147 41 -15 0 -52 13 -82 30 -64 35 -83 37 -106 10 -10 -12 -22 -18
-27 -15 -14 9 -2 25 17 25 14 0 14 3 -2 20 -24 26 -15 34 40 32 25 -1 45 2 45
7 0 19 -86 38 -152 32 -25 -2 -23 -21 2 -21 11 0 20 -4 20 -10 0 -11 -8 -13
-68 -10 -24 1 -57 -4 -73 -10 -33 -14 -102 -1 -169 31 -21 10 -43 19 -49 19
-5 0 -13 9 -16 21 -6 19 -13 20 -79 18 -77 -4 -126 15 -126 47 0 8 -8 18 -17
21 -22 8 -62 54 -63 70 0 7 -11 20 -25 29 -14 9 -25 25 -25 35 0 11 -8 28 -17
38 -10 11 -23 26 -30 33 -30 33 -46 40 -75 34 -24 -5 -38 1 -72 29 -24 19 -56
38 -73 41 l-30 6 -12 -109 c-7 -59 -17 -126 -22 -147 -21 -79 -70 -165 -125
-220 -48 -48 -62 -56 -93 -56 -47 1 -71 20 -71 57 0 16 -4 33 -9 38 -33 35
-54 292 -39 470 3 33 2 67 -3 76 -4 9 -9 71 -10 137 -2 68 -6 119 -11 116 -5
-4 -9 0 -7 7 1 8 1 45 0 82 l-1 69 -52 -7 c-55 -7 -56 -8 -139 -105 -46 -54
-73 -80 -77 -75 -2 2 -19 -5 -38 -16 -38 -21 -64 -25 -64 -9 0 6 -11 15 -25
20 -15 6 -32 25 -41 45 -17 42 -57 70 -95 67 -20 -2 -29 2 -29 13 0 8 -7 15
-15 15 -24 0 -38 111 -15 118 8 3 8 8 0 17 -8 10 -8 15 1 20 6 4 15 1 20 -6
12 -19 1 49 -13 78 -11 23 5 80 25 95 16 10 9 221 -8 285 -27 96 -44 123 -78
119 -17 -2 -51 8 -79 22 -45 22 -49 27 -34 38 13 9 14 13 4 17 -15 6 15 10 52
7 26 -2 61 -18 70 -31 3 -4 12 -4 20 1 11 7 11 10 2 10 -10 0 -10 5 -2 21 9
16 8 24 -7 37 -11 9 -27 34 -37 55 -17 38 -49 77 -63 77 -18 0 -72 52 -67 65
4 8 -1 18 -10 21 -9 3 -25 33 -37 65 -12 32 -25 59 -29 59 -12 0 -31 51 -23
63 5 7 8 34 8 61 0 49 1 50 34 57 18 4 37 13 42 20 6 11 11 11 21 1 6 -6 22
-12 35 -12 13 0 23 -5 23 -10 0 -20 55 -31 165 -33 92 -2 115 -5 129 -20 14
-14 21 -15 32 -6 8 7 12 14 9 18 -3 3 -10 -1 -15 -9 -8 -13 -10 -12 -10 3 0 9
5 17 10 17 6 0 10 7 10 15 0 8 7 15 16 15 13 0 15 7 9 39 -5 29 -2 46 11 66
11 17 17 43 15 72 -1 36 2 44 13 40 11 -5 16 4 18 31 2 23 8 36 16 34 6 -1 12
2 12 6 0 5 14 24 30 42 17 18 30 40 30 47 0 7 5 13 11 13 6 0 23 9 38 19 14
10 37 20 51 22 50 7 77 -29 139 -186 18 -44 36 -87 41 -96 10 -20 40 -136 40
-157 0 -9 7 -30 15 -45 8 -16 20 -47 25 -68 6 -22 16 -39 22 -37 6 2 20 29 30
59 17 48 19 80 17 279 -1 124 -1 227 0 230 20 49 15 224 -8 285 -6 17 -25 71
-42 121 -37 110 -80 169 -116 159 -17 -4 -33 1 -54 20 l-31 25 29 0 c15 0 37
-7 47 -15 26 -20 36 -19 36 3 -1 19 3 17 -185 144 -380 257 -519 328 -805 414
-133 39 -147 41 -101 13 18 -11 31 -23 28 -26 -8 -8 -167 17 -191 30 -18 9
-18 11 -3 22 9 7 17 17 17 23 0 12 24 22 54 22 12 0 31 7 42 15 26 20 51 19
188 -10 165 -35 276 -81 476 -197 183 -105 228 -128 244 -122 25 9 40 -6 20
-21 -15 -11 -12 -14 30 -30 25 -10 49 -15 53 -12 12 13 -129 162 -227 240 -68
54 -249 179 -305 211 -177 101 -355 160 -590 197 -121 19 -241 7 -378 -38 -52
-17 -147 -14 -221 8 -58 16 -24 30 44 17 66 -12 169 -5 228 16 56 20 90 21
321 12 142 -6 192 -5 187 3 -4 6 -15 11 -24 11 -23 0 -102 31 -102 41 0 4 10
9 23 11 12 2 22 10 22 18 0 11 -14 16 -57 18 -43 2 -58 7 -58 17 0 9 9 15 22
15 40 0 10 12 -54 21 -104 14 -150 26 -208 53 -49 24 -63 26 -131 20 -57 -5
-83 -3 -105 9 -39 20 -86 29 -102 19z m613 -797 c17 -7 41 -17 55 -21 32 -9
41 -23 34 -54 -14 -64 -27 -81 -93 -117 -36 -20 -97 -55 -136 -78 -38 -23 -92
-50 -120 -61 -27 -10 -68 -38 -90 -61 -42 -41 -100 -73 -137 -73 -10 0 -43 16
-73 35 -30 19 -83 43 -117 55 -62 20 -89 31 -138 55 -35 18 -205 3 -349 -29
-62 -14 -122 -26 -132 -26 -11 0 -52 -16 -92 -36 -88 -45 -89 -45 -118 -66
-13 -9 -33 -18 -44 -20 -17 -3 -20 2 -17 31 2 18 12 43 23 54 10 12 19 24 19
29 0 8 52 43 118 79 39 21 46 26 165 102 41 26 79 47 84 47 6 0 34 13 64 30
30 16 78 32 109 36 30 4 60 13 68 21 10 10 27 12 63 7 32 -4 49 -3 49 4 0 13
-2 13 185 18 198 6 239 10 267 26 60 34 287 42 353 13z m-1326 -669 c185 -48
280 -54 300 -19 6 12 18 14 47 9 21 -3 50 -8 64 -10 14 -2 28 -4 33 -5 4 0 7
-5 7 -10 0 -5 -21 -9 -47 -9 -27 1 -67 -6 -91 -15 -33 -13 -51 -15 -85 -8 -95
22 -268 41 -357 40 -52 -1 -149 6 -215 15 l-120 15 155 -3 c85 -2 164 0 175 5
31 12 74 10 134 -5z m855 -321 c-3 -8 4 -16 16 -20 19 -6 21 -12 17 -41 -5
-28 -2 -37 18 -50 13 -8 27 -30 31 -47 3 -18 10 -34 14 -37 7 -4 15 -76 19
-167 1 -7 12 -13 26 -13 26 0 64 -22 145 -85 25 -19 51 -35 59 -35 10 0 12 -9
7 -32 -3 -18 -10 -65 -15 -103 -4 -39 -14 -81 -21 -94 -7 -13 -12 -46 -12 -72
0 -27 -4 -49 -8 -49 -4 0 -10 -8 -13 -19 -4 -17 -9 -18 -55 -7 -28 6 -54 14
-58 19 -12 12 -61 8 -73 -6 -13 -16 -69 -10 -89 9 -7 8 -11 14 -7 14 8 0 -27
53 -45 67 -8 7 -22 13 -31 13 -9 0 -23 8 -32 18 -15 17 -15 18 9 20 35 3 114
40 121 57 9 24 -59 109 -98 121 -60 21 -79 -20 -34 -74 14 -17 25 -33 25 -36
0 -3 -17 -6 -37 -6 -46 0 -103 32 -104 60 -1 11 -2 28 -2 38 -2 34 14 87 31
107 9 11 37 31 62 44 25 13 51 28 58 34 32 25 -6 77 -58 77 -14 0 -44 -9 -68
-20 -23 -10 -49 -17 -57 -14 -27 11 -1 78 55 141 21 24 53 72 70 106 50 98 59
107 111 99 18 -3 26 -9 23 -17z m1262 -90 c33 -21 30 -44 -9 -88 -19 -20 -42
-56 -51 -80 -18 -48 -56 -77 -78 -60 -40 32 -125 47 -265 48 -123 0 -144 3
-162 19 -11 10 -23 28 -27 39 -4 12 -13 27 -21 35 -19 20 1 42 38 42 16 0 56
9 90 21 102 35 203 49 337 44 90 -3 130 -8 148 -20z m-2854 -4147 l3 -113 152
-3 152 -3 3 113 3 113 75 0 75 0 3 -287 2 -288 -80 0 -80 0 0 120 0 121 -152
-3 -153 -3 -3 -117 -3 -118 -74 0 -75 0 0 290 0 290 75 0 74 0 3 -112z m1668
-183 l0 -296 -62 3 c-60 3 -63 4 -66 30 l-3 27 -42 -30 c-39 -28 -47 -30 -108
-27 -54 3 -73 9 -104 32 -55 42 -78 102 -73 190 5 92 29 141 87 177 57 37 145
40 204 9 l37 -20 0 93 c0 52 3 97 7 100 3 4 33 7 65 7 l58 0 0 -295z m588 3
l-3 -293 -60 0 c-55 0 -60 2 -63 23 -4 27 -3 27 -48 -3 -65 -44 -182 -28 -236
32 -30 33 -48 91 -48 157 0 88 37 160 99 193 57 30 141 31 194 3 l37 -20 0 93
c0 52 3 97 7 100 3 4 33 7 65 7 l58 0 -2 -292z m280 0 l-3 -293 -54 -3 c-37
-2 -57 1 -62 10 -10 15 -12 562 -2 571 3 4 33 7 65 7 l58 0 -2 -292z m1395
130 l72 -3 0 -40 0 -40 -72 -3 -73 -3 0 -103 c0 -91 2 -105 20 -121 22 -20 68
-24 113 -11 27 8 27 8 27 -38 0 -45 0 -45 -42 -57 -24 -6 -73 -9 -110 -7 -113
6 -138 46 -138 223 l0 115 -28 0 c-16 0 -32 3 -36 7 -4 4 37 51 91 105 l98 99
3 -60 3 -60 72 -3z m-6079 -19 c63 -29 99 -85 104 -160 l4 -59 -156 0 c-146 0
-156 -1 -156 -19 0 -25 35 -68 70 -86 37 -19 113 -19 176 0 27 8 50 15 52 15
1 0 2 -15 2 -34 0 -33 -3 -35 -52 -52 -70 -23 -199 -23 -256 1 -94 39 -144
143 -121 254 9 45 20 64 53 97 50 47 89 62 174 63 44 1 75 -5 106 -20z m366
-24 c3 -28 8 -36 14 -27 4 8 29 27 54 43 82 52 202 33 234 -36 13 -28 26 -32
34 -10 3 8 26 28 52 45 39 25 55 30 109 30 58 0 66 -3 101 -34 l37 -34 3 -176
3 -176 -65 0 -66 0 0 140 c0 136 -1 142 -25 165 -37 38 -79 33 -126 -14 l-39
-39 0 -126 0 -126 -65 0 -65 0 0 133 c0 144 -9 176 -51 191 -38 13 -77 0 -110
-37 -29 -31 -29 -32 -29 -159 l0 -128 -65 0 -65 0 0 210 0 211 63 -3 62 -3 5
-40z m932 -75 c25 -63 50 -114 54 -113 5 0 29 48 55 105 26 56 53 109 59 116
10 12 101 17 112 7 3 -3 -59 -144 -137 -313 l-142 -307 -62 -3 c-33 -2 -61 1
-61 6 0 5 24 61 54 125 l54 115 -84 182 c-46 100 -81 187 -78 192 3 5 33 8 67
6 l62 -3 47 -115z m3885 88 c48 -31 81 -93 85 -158 l3 -45 -157 -3 c-146 -2
-158 -4 -158 -21 0 -25 35 -68 70 -86 37 -19 126 -19 181 0 49 18 65 9 55 -28
-4 -19 -17 -29 -53 -41 -216 -68 -383 19 -383 202 0 74 24 129 72 165 50 37
86 47 169 44 63 -2 82 -6 116 -29z m478 18 c29 -12 35 -20 35 -44 0 -39 -6
-43 -45 -26 -45 19 -100 18 -119 -2 -34 -33 -16 -55 87 -103 78 -37 102 -71
94 -133 -10 -73 -66 -108 -169 -107 -35 0 -81 6 -103 13 -36 10 -40 15 -43 49
-4 43 -6 42 41 22 76 -31 152 -13 145 36 -2 18 -19 33 -73 61 -81 42 -125 87
-125 126 0 39 32 85 71 105 43 21 157 22 204 3z m972 -10 c73 -34 106 -87 111
-176 5 -87 -19 -146 -78 -189 -48 -35 -91 -46 -170 -45 -104 2 -172 40 -211
117 -31 60 -24 168 14 226 40 61 109 91 207 91 58 0 87 -6 127 -24z m371 -18
c2 -21 7 -38 13 -38 5 0 9 5 9 10 0 6 21 24 47 40 58 37 139 42 189 11 53 -32
65 -82 62 -256 l-3 -150 -60 0 -60 0 -5 140 c-5 150 -14 181 -55 191 -37 9
-70 -2 -102 -36 -27 -29 -28 -34 -33 -162 l-5 -133 -60 0 -60 0 -3 204 c-2
157 1 206 10 213 7 4 36 7 63 6 l50 -3 3 -37z m-4096 -112 c4 -166 12 -186 78
-186 30 0 45 7 74 37 l36 37 0 128 0 128 65 0 65 0 -2 -207 -3 -208 -62 -3
-63 -3 0 41 c0 22 -2 40 -4 40 -2 0 -20 -15 -41 -34 -48 -44 -116 -62 -174
-46 -86 23 -101 63 -101 273 l0 147 64 0 65 0 3 -144z m3322 -98 c31 -107 81
-174 148 -199 31 -11 72 -51 83 -81 3 -8 -3 -25 -13 -38 -15 -18 -29 -24 -58
-23 -43 0 -123 22 -140 38 -6 5 -27 21 -47 35 -43 29 -45 38 -16 74 19 24 21
36 16 98 -3 39 -8 72 -10 74 -2 2 -21 -3 -41 -11 -52 -22 -100 -17 -104 12 -3
18 3 22 30 26 77 9 149 7 152 -5z m-376 -107 c22 -51 65 -91 117 -109 l30 -10
-30 -12 c-16 -6 -68 -16 -115 -21 -47 -6 -99 -14 -116 -20 -17 -5 -63 -9 -102
-9 -94 0 -274 -20 -286 -31 -11 -10 -70 -12 -103 -3 -27 7 -30 34 -5 41 10 2
22 14 27 26 7 14 21 23 40 25 37 4 59 22 27 22 -26 0 -30 25 -5 34 11 5 25 -2
40 -19 16 -16 35 -25 56 -25 18 -1 59 -3 92 -5 111 -9 190 30 233 116 14 28
34 41 73 48 3 1 15 -21 27 -48z m418 -232 c14 -16 15 -23 7 -26 -23 -8 -14
-23 13 -23 14 0 23 4 19 10 -3 6 3 10 14 10 11 0 25 -9 31 -19 5 -11 23 -28
39 -37 36 -21 61 -63 61 -102 0 -43 31 -62 101 -62 42 0 65 -6 90 -23 l34 -23
0 -84 c0 -47 4 -92 8 -101 6 -13 2 -18 -19 -23 -43 -11 -196 -9 -227 3 -16 6
-50 11 -76 11 -40 0 -50 -3 -54 -20 -6 -24 -34 -26 -73 -5 -29 15 -26 17 26
29 41 9 35 51 -10 74 -19 10 -34 24 -32 31 2 8 -6 37 -17 65 -10 28 -22 65
-26 81 -4 17 -15 40 -26 51 -18 19 -19 25 -7 62 8 26 20 43 33 46 11 3 31 14
44 24 l23 19 -28 26 -29 27 31 0 c19 0 38 -8 50 -21z m-885 -64 c74 -27 145
-112 146 -176 1 -35 -1 -37 -36 -43 -20 -3 -65 -6 -99 -6 -54 0 -70 5 -105 28
-23 16 -59 40 -79 53 -89 57 -69 126 43 148 66 13 82 12 130 -4z m-3743 -287
l-3 -173 -42 -3 -43 -3 0 175 0 176 45 0 45 0 -2 -172z m754 110 c3 -31 6 -33
46 -36 37 -3 42 -6 42 -28 0 -22 -4 -24 -45 -24 l-45 0 0 -59 c0 -68 13 -84
62 -79 26 2 33 -1 36 -16 6 -28 -25 -46 -79 -46 -76 0 -93 21 -97 118 -4 72
-6 81 -25 86 -20 5 -17 10 33 61 30 30 58 55 62 55 3 0 8 -15 10 -32z m1068
-3 c0 -35 0 -35 45 -35 41 0 45 -2 45 -25 0 -23 -4 -25 -45 -25 l-45 0 0 -58
c0 -68 11 -82 62 -82 31 0 38 -4 38 -20 0 -26 -29 -40 -85 -40 -35 0 -51 6
-70 25 -22 21 -25 33 -25 98 0 69 -2 75 -22 81 -21 5 -19 9 32 61 30 30 58 55
62 55 4 0 8 -16 8 -35z m-1525 -39 c42 -18 57 -65 53 -169 l-3 -72 -37 -3 -38
-3 0 78 c0 85 -16 123 -51 123 -39 0 -59 -35 -59 -104 0 -86 -5 -96 -46 -96
l-34 0 0 125 0 125 36 0 c28 0 37 -5 41 -20 5 -19 7 -19 22 -6 16 14 57 34 74
35 4 1 23 -5 42 -13z m265 1 c14 -7 26 -20 28 -29 3 -13 -6 -16 -50 -14 -42 1
-53 -2 -56 -16 -2 -12 8 -22 35 -33 83 -35 108 -94 57 -134 -40 -32 -156 -28
-168 6 -10 25 2 31 44 20 33 -9 43 -8 56 5 20 20 13 33 -29 54 -47 24 -77 55
-77 79 0 22 32 58 60 68 27 10 74 7 100 -6z m408 -31 l3 -39 25 37 c25 36 61
53 89 42 17 -6 19 -24 5 -61 -8 -20 -15 -25 -30 -20 -54 17 -90 -31 -90 -120
l0 -55 -40 0 -40 0 0 123 c0 68 3 127 7 131 4 4 21 6 38 4 27 -3 30 -7 33 -42z
m683 34 c11 -6 19 -21 19 -36 0 -24 -2 -25 -43 -19 -55 8 -90 -16 -90 -63 0
-50 28 -74 83 -70 42 2 45 1 48 -24 4 -33 -23 -43 -99 -36 -170 17 -148 258
24 258 21 0 47 -5 58 -10z m515 -9 c68 -31 94 -114 54 -178 -28 -47 -61 -65
-122 -65 -102 -1 -154 51 -146 144 10 99 111 146 214 99z m204 -26 c5 -34 7
-37 13 -18 17 47 80 77 115 54 20 -12 -11 -83 -32 -75 -28 11 -65 -6 -81 -36
-8 -16 -15 -54 -15 -85 l0 -56 -37 3 -38 3 -3 114 c-1 63 0 121 3 129 3 8 17
12 37 10 30 -3 33 -6 38 -43z m-1162 -57 c2 -74 6 -89 22 -98 24 -13 65 2 79
29 6 11 11 52 11 91 l0 71 38 -3 37 -3 0 -120 0 -120 -37 -3 c-33 -3 -38 0
-38 17 0 25 -13 27 -30 6 -19 -23 -76 -35 -109 -24 -40 14 -51 47 -51 155 l0
95 38 -3 37 -3 3 -87z m2735 -164 c56 -29 66 -42 60 -82 -8 -54 -19 -69 -54
-76 -18 -3 -29 -9 -26 -12 3 -4 2 -15 -4 -25 -9 -18 -11 -18 -47 6 -20 14 -46
25 -57 25 -11 0 -30 3 -42 6 -24 7 -106 110 -100 127 4 14 130 44 190 46 27 0
62 -6 80 -15z m695 -52 c15 -10 36 -22 47 -28 10 -6 29 -28 40 -49 12 -20 30
-43 41 -49 76 -43 114 -91 139 -172 13 -43 13 -50 -2 -66 -23 -26 -47 -22
-107 16 -30 19 -78 46 -107 61 -41 20 -58 35 -70 63 -32 74 -41 102 -36 116 3
7 -4 28 -15 47 l-20 33 28 23 c35 27 29 27 62 5z"/>
<path d="M6660 1863 c-37 -33 -51 -84 -40 -144 15 -78 87 -112 160 -74 l30 16
0 98 0 99 -40 16 c-56 22 -75 20 -110 -11z"/>
<path d="M7275 1881 c-75 -31 -94 -173 -30 -228 31 -28 94 -31 130 -7 24 15
25 21 25 114 l0 98 -40 16 c-45 18 -56 19 -85 7z"/>
<path d="M2953 1882 c-25 -19 -46 -69 -39 -89 4 -9 31 -13 101 -13 l95 0 0 35
c0 52 -36 85 -92 85 -25 0 -52 -8 -65 -18z"/>
<path d="M8107 1872 c-18 -19 -27 -39 -27 -60 l0 -32 94 0 c52 0 97 4 100 8
10 16 -15 81 -37 97 -12 8 -40 15 -62 15 -32 0 -47 -6 -68 -28z"/>
<path d="M9565 1857 c-31 -26 -44 -82 -34 -140 15 -89 113 -122 171 -58 25 28
28 39 28 97 0 59 -3 68 -29 95 -38 37 -97 40 -136 6z"/>
<path d="M0 6998 c0 -30 5 -59 11 -65 8 -8 8 -13 0 -17 -8 -5 -11 -133 -11
-417 0 -402 0 -409 20 -409 42 0 60 -34 60 -113 l0 -74 112 -6 c70 -4 116 -3
122 3 7 7 6 10 -2 10 -7 0 -32 9 -54 20 -23 11 -54 20 -68 20 -14 0 -35 6 -46
14 -30 23 -7 50 47 54 24 2 52 11 62 20 10 9 34 16 55 16 20 -1 29 1 20 3 -10
3 -18 10 -18 17 0 15 -52 66 -67 66 -6 0 -13 8 -15 18 -3 10 -12 19 -21 19
-25 0 -88 46 -84 63 1 9 13 15 27 15 14 0 26 4 27 9 1 5 5 12 10 15 5 3 17 19
27 35 24 38 10 52 -38 35 -32 -12 -38 -11 -54 5 -16 16 -16 18 7 37 13 10 32
19 44 19 26 0 91 66 83 85 -3 9 -18 15 -36 15 -27 0 -30 3 -30 34 0 19 9 45
21 60 11 15 19 33 16 40 -6 15 -47 29 -47 16 0 -13 -66 -40 -98 -40 -30 0 -43
14 -35 37 6 17 65 52 94 56 15 3 25 12 27 25 2 12 8 22 13 22 11 0 39 61 39
86 0 12 -8 15 -37 12 -53 -4 -103 20 -103 50 0 16 5 23 18 21 9 -1 26 -1 37 0
36 3 -6 19 -47 18 -43 -1 -80 34 -74 71 2 12 -1 25 -5 28 -5 3 -9 -19 -9 -48z"/>
<path d="M11571 6316 c-10 -11 37 -14 276 -18 302 -4 336 -3 330 16 -6 18
-591 20 -606 2z"/>
<path d="M12429 4426 c-6 -7 -193 -25 -369 -36 -212 -13 -622 -49 -875 -75
-265 -28 -440 -46 -542 -55 -56 -5 -140 -14 -185 -19 -46 -6 -126 -15 -178
-20 -239 -26 -535 -63 -540 -68 -5 -5 109 3 280 18 58 6 161 14 230 19 69 6
197 19 285 30 88 10 225 26 305 35 80 8 183 20 230 25 47 5 148 14 225 20 77
6 149 12 160 15 11 2 139 16 285 30 233 23 341 28 470 23 19 -1 58 3 85 9 28
6 89 14 138 18 65 5 87 10 87 21 0 10 -13 14 -43 14 -24 0 -46 -2 -48 -4z"/>
<path d="M12451 4118 c-35 -4 -78 -12 -94 -18 -17 -5 -53 -10 -81 -10 -28 0
-70 -5 -93 -10 -38 -9 -236 -34 -478 -60 -55 -6 -129 -16 -165 -22 -36 -5 -98
-11 -139 -13 -40 -2 -103 -8 -140 -14 -36 -6 -140 -20 -231 -31 -177 -22 -288
-41 -415 -71 -44 -10 -129 -23 -190 -30 -60 -6 -118 -15 -130 -19 -17 -6 -15
-8 15 -15 19 -4 59 -20 88 -36 33 -17 64 -27 80 -24 15 2 65 9 112 14 47 6
216 29 375 51 160 22 349 47 420 56 72 8 158 22 193 29 35 8 82 15 104 15 22
0 68 4 102 10 33 5 122 17 196 25 260 31 528 70 536 78 3 2 4 27 2 53 l-3 49
-64 -7z"/>
<path d="M1480 1871 c0 -159 -3 -302 -6 -319 -7 -32 -41 -52 -90 -52 -13 0
-24 -3 -24 -7 0 -22 24 -141 31 -155 20 -38 160 -30 221 13 16 11 38 39 51 62
21 41 22 52 25 395 l3 352 -105 0 -106 0 0 -289z m178 -68 c-3 -308 -4 -330
-24 -368 -26 -52 -88 -85 -161 -85 -28 0 -54 4 -57 8 -3 5 -8 31 -12 59 l-6
50 43 14 c65 21 68 35 68 367 l1 282 76 0 75 0 -3 -327z"/>
<path d="M1951 1988 c-59 -16 -117 -64 -143 -115 -35 -71 -32 -182 5 -246 33
-57 81 -94 143 -113 87 -26 266 -12 307 24 13 12 17 31 17 85 0 62 -2 68 -17
62 -112 -49 -204 -59 -244 -26 -13 11 -20 23 -16 28 5 4 71 9 148 11 l139 4 0
44 c0 25 -5 66 -12 91 -15 60 -87 137 -143 152 -48 13 -137 13 -184 -1z m194
-37 c71 -32 115 -104 115 -188 l0 -33 -154 0 c-85 0 -157 -4 -160 -8 -10 -17
31 -76 65 -94 41 -22 118 -23 185 -3 27 8 50 15 52 15 1 0 2 -13 2 -30 0 -37
-32 -55 -125 -70 -114 -18 -204 7 -263 74 -93 106 -55 279 73 337 54 25 157
25 210 0z"/>
<path d="M1987 1889 c-21 -12 -47 -61 -47 -89 0 -19 6 -20 100 -20 l100 0 0
29 c0 17 -11 42 -26 60 -21 26 -33 31 -67 31 -23 0 -50 -5 -60 -11z"/>
<path d="M2615 1991 c-11 -5 -28 -18 -39 -30 -21 -23 -36 -19 -36 10 0 17 -8
19 -95 19 l-96 0 3 -250 c3 -242 4 -250 25 -272 l22 -22 53 23 c105 45 103 44
106 86 2 22 10 47 18 57 14 14 14 17 -1 20 -24 4 -30 79 -10 118 16 30 51 60
71 60 7 0 26 -12 43 -26 32 -27 51 -25 51 5 0 10 11 51 25 91 14 40 25 76 25
80 0 3 -16 14 -35 23 -38 18 -96 21 -130 8z m110 -35 c18 -13 18 -15 -1 -67
l-19 -54 -53 3 c-66 5 -92 -11 -121 -72 -16 -36 -21 -65 -21 -131 l0 -85 -65
0 -65 0 0 205 0 205 65 0 65 0 0 -70 c0 -38 3 -70 8 -70 4 0 15 20 25 45 26
62 77 105 125 105 21 0 47 -6 57 -14z"/>
</g>
</svg>
