<?xml version="1.0" standalone="no"?>
<!DOCTYPE svg PUBLIC "-//W3C//DTD SVG 20010904//EN"
 "http://www.w3.org/TR/2001/REC-SVG-20010904/DTD/svg10.dtd">
<svg version="1.0" xmlns="http://www.w3.org/2000/svg"
 width="1843.000000pt" height="1843.000000pt" viewBox="0 0 1843.000000 1843.000000"
 preserveAspectRatio="xMidYMid meet">
<metadata>
Created by potrace 1.16, written by Peter Selinger 2001-2019
</metadata>
<g transform="translate(0.000000,1843.000000) scale(0.100000,-0.100000)"
fill="#000000" stroke="none">
<path d="M8600 18415 c-1262 -91 -2422 -410 -3549 -974 -594 -298 -1212 -703
-1721 -1128 -488 -408 -950 -879 -1329 -1356 -141 -179 -133 -162 -127 -254
20 -305 24 -716 7 -778 -14 -53 -22 -402 -10 -451 5 -22 12 -47 14 -57 2 -10
6 -26 9 -35 3 -9 7 -102 11 -207 3 -104 14 -289 24 -410 30 -338 38 -625 26
-965 -1 -30 -3 -260 -4 -510 -2 -250 -5 -458 -8 -463 -2 -4 -6 -103 -8 -220
-5 -290 -15 -620 -21 -692 -2 -33 -6 -100 -9 -150 -2 -49 -5 -90 -6 -90 0 0
-2 -21 -4 -46 -2 -47 -32 -129 -47 -129 -4 0 -8 -11 -8 -24 0 -14 -5 -28 -10
-31 -6 -4 -8 -15 -5 -26 4 -11 2 -19 -4 -19 -6 0 -11 7 -11 15 0 37 -47 89
-90 100 -38 10 -58 33 -76 89 -9 28 -20 56 -24 61 -21 30 -36 251 -46 690 -3
138 -7 270 -9 295 -2 25 -6 122 -10 215 -3 94 -8 224 -11 290 -27 559 -35
1305 -19 1652 3 65 5 344 4 618 -1 719 -3 865 -9 865 -12 0 -240 -372 -368
-601 -39 -69 -107 -198 -151 -286 l-80 -159 4 -370 c2 -255 9 -418 21 -529 9
-88 18 -176 20 -195 2 -19 6 -48 11 -65 4 -16 7 -47 7 -67 0 -21 3 -38 7 -38
3 0 10 -42 13 -92 4 -51 10 -109 13 -128 10 -58 6 -190 -6 -204 -6 -7 -8 -16
-5 -19 4 -4 -3 -29 -14 -56 -20 -46 -22 -70 -27 -457 -3 -225 -8 -580 -11
-789 -7 -381 -8 -773 -3 -1455 1 -201 -2 -441 -7 -535 -15 -279 -11 -1874 4
-1975 22 -146 41 -264 48 -300 4 -19 8 -122 10 -228 2 -129 7 -198 15 -208 8
-9 9 -38 5 -89 -3 -42 -3 -87 0 -101 6 -24 10 -26 47 -20 33 6 47 2 78 -19 22
-14 39 -29 39 -34 0 -14 -82 -45 -119 -44 -19 0 -28 -3 -21 -7 9 -6 9 -9 -1
-13 -10 -4 -10 -6 -1 -6 6 -1 12 -5 12 -11 0 -5 -6 -9 -12 -7 -8 1 -16 -17
-21 -48 -4 -27 -12 -63 -17 -79 -9 -26 -2 -45 60 -163 381 -724 880 -1416
1458 -2023 662 -694 1369 -1244 2199 -1710 l158 -89 6 50 c7 51 28 78 61 79
10 0 55 8 100 19 46 10 124 24 173 31 50 7 162 25 250 41 148 26 259 41 514
70 68 8 100 8 118 0 24 -11 24 -12 22 -144 -3 -171 -12 -190 -96 -201 -163
-21 -330 -51 -341 -61 -15 -13 -20 -242 -6 -254 17 -15 125 -54 131 -47 4 3 8
48 10 99 5 115 12 123 121 132 42 3 107 9 143 13 90 11 119 0 119 -43 0 -24 6
-38 19 -45 26 -14 23 -15 77 31 97 80 238 131 272 97 8 -8 12 -58 12 -158 0
-133 -2 -148 -20 -168 -15 -16 -33 -22 -63 -23 -23 0 -63 -8 -89 -17 -49 -18
-138 -76 -138 -90 0 -8 174 -66 338 -113 l62 -18 1 27 c1 49 -2 153 -6 173 -2
10 -5 100 -6 199 -2 156 -1 183 14 197 13 13 51 18 188 26 154 9 174 8 184 -6
8 -11 14 -105 19 -279 9 -307 12 -355 26 -408 12 -45 3 -41 180 -79 158 -35
162 -34 206 54 l27 57 -2 312 c-2 302 -1 313 18 330 19 17 36 18 173 14 104
-3 163 -9 183 -19 l30 -14 0 -423 c-1 -480 -12 -424 87 -437 l47 -6 -15 48
c-36 109 -46 177 -40 268 13 217 88 361 237 461 109 72 189 96 329 99 241 6
406 -54 529 -192 94 -105 136 -218 148 -396 5 -87 4 -96 -16 -116 -26 -26 -30
-26 -464 -9 -231 8 -321 8 -329 0 -30 -30 40 -120 125 -161 37 -18 65 -23 134
-23 94 -1 139 12 217 65 21 15 44 27 50 27 6 0 41 -32 78 -70 l67 -70 201 0
200 0 -48 73 c-93 141 -134 283 -133 468 0 215 53 377 178 541 46 60 170 166
234 199 216 110 504 129 729 48 105 -37 250 -126 289 -175 26 -32 24 -35 -81
-171 -116 -150 -120 -152 -207 -78 -268 228 -637 110 -715 -229 -40 -171 -2
-317 111 -430 75 -74 125 -103 207 -120 91 -19 181 -7 281 39 43 19 86 33 95
30 16 -5 25 -20 49 -77 9 -23 17 -28 45 -28 l34 0 -20 53 c-31 79 -31 285 -1
382 43 133 119 236 227 303 129 82 229 110 421 119 123 5 150 3 223 -15 247
-63 390 -229 417 -485 5 -56 10 -68 23 -65 14 3 18 21 23 103 7 122 19 171 64
270 63 139 202 249 356 281 143 30 299 11 384 -46 41 -27 73 -26 84 3 5 13 7
133 4 266 -4 221 -3 244 13 262 16 17 32 19 184 19 126 0 171 -3 185 -14 18
-13 20 -35 25 -315 3 -165 9 -303 12 -306 3 -4 88 34 187 84 1384 694 2614
1780 3488 3082 926 1379 1451 2943 1553 4629 13 213 13 817 0 1030 -128 2109
-917 4024 -2309 5605 -152 172 -520 544 -701 708 -833 754 -1752 1326 -2800
1742 -906 360 -1849 569 -2854 635 -214 14 -938 10 -1156 -5z m1669 -1465
c158 -24 338 -70 451 -117 8 -3 18 -7 23 -8 4 -2 8 -3 10 -5 1 -1 9 -3 17 -5
18 -3 108 -41 130 -55 22 -13 107 -59 165 -87 56 -29 162 -91 280 -168 44 -28
121 -75 170 -105 50 -29 107 -65 129 -79 21 -14 55 -35 75 -46 20 -11 45 -28
56 -37 11 -9 58 -46 105 -80 94 -71 167 -157 171 -203 2 -16 10 -38 18 -48 13
-16 13 -19 1 -27 -10 -7 -11 -10 -2 -10 6 0 12 -7 12 -16 0 -12 -7 -15 -28
-12 -23 3 -28 0 -30 -17 -2 -27 18 -66 31 -58 6 3 7 1 3 -5 -8 -14 23 -64 35
-57 4 3 17 -3 28 -14 14 -14 22 -16 30 -8 17 17 13 35 -8 42 -22 7 -32 27 -37
70 -1 17 0 24 3 18 2 -7 11 -13 18 -13 19 0 84 -76 104 -123 21 -47 63 -97 83
-97 16 0 49 -36 41 -44 -8 -8 20 -96 35 -108 9 -8 11 -7 6 6 -3 9 -2 16 3 16
22 0 43 -27 45 -58 2 -33 17 -56 19 -30 1 13 16 -27 18 -48 1 -6 -11 -11 -26
-10 -22 1 -29 -4 -31 -21 -3 -18 1 -20 20 -15 21 5 22 4 9 -12 -12 -14 -11
-20 8 -39 11 -13 21 -33 21 -45 0 -12 4 -22 10 -22 5 0 8 -13 7 -30 -1 -16 -5
-30 -9 -30 -5 0 -8 -9 -8 -20 0 -11 -5 -20 -11 -20 -5 0 -7 -5 -4 -10 4 -7 14
-3 25 10 15 18 18 18 24 4 15 -40 7 -54 -32 -54 -40 0 -51 11 -68 70 -21 76
-71 95 -66 25 2 -22 10 -47 18 -56 8 -8 14 -21 14 -27 0 -7 5 -12 11 -12 5 0
9 -10 7 -22 -2 -13 2 -23 8 -23 14 0 42 -28 46 -46 1 -8 -7 -28 -19 -45 -22
-31 -22 -32 -3 -37 11 -3 18 -1 15 3 -3 5 -1 11 5 15 5 3 10 0 10 -9 0 -8 6
-17 13 -19 9 -4 8 -8 -3 -16 -8 -6 -22 -8 -30 -5 -43 17 -48 16 -43 -10 5 -27
22 -36 24 -13 0 10 2 10 6 0 2 -7 13 -13 23 -13 21 0 34 -26 17 -34 -7 -3 -3
-4 8 -3 12 1 21 -5 23 -18 3 -11 9 -23 15 -27 6 -4 12 -35 12 -69 0 -41 5 -64
13 -67 9 -3 8 -8 -5 -17 -14 -11 -16 -18 -7 -32 17 -29 12 -87 -8 -91 -10 -2
-18 1 -18 7 0 6 5 11 10 11 6 0 4 15 -5 35 -8 20 -10 33 -5 30 6 -4 9 11 8 34
-1 22 -7 42 -14 45 -7 3 -14 15 -16 27 -4 27 -17 33 -40 15 -15 -11 -16 -18
-7 -47 6 -19 12 -65 14 -102 2 -38 7 -77 10 -87 6 -20 36 -21 43 -2 5 15 38
16 47 2 3 -5 -1 -10 -10 -10 -11 0 -15 -5 -11 -15 4 -12 0 -14 -18 -11 -17 3
-23 0 -22 -12 0 -10 -5 -16 -12 -14 -8 1 -11 -5 -6 -22 3 -13 1 -33 -5 -45
-10 -17 -9 -20 4 -15 8 4 15 12 15 19 0 16 19 30 28 20 3 -3 1 -9 -5 -13 -12
-7 -16 -40 -14 -109 1 -40 2 -42 24 -34 12 5 21 15 19 22 -9 35 -10 129 -1
134 17 11 31 -6 17 -22 -10 -12 -9 -17 5 -25 10 -5 15 -13 12 -19 -4 -5 -3
-14 1 -21 16 -26 13 -60 -6 -65 -13 -3 -21 -18 -25 -46 -4 -22 -18 -52 -32
-66 l-25 -26 7 33 c7 33 -4 43 -22 20 -16 -20 -22 -57 -11 -64 5 -3 8 -15 5
-25 -3 -12 0 -19 8 -19 13 0 13 -9 2 -95 -1 -12 -9 -19 -18 -17 -12 2 -18 -9
-23 -44 -8 -63 -8 -119 2 -128 7 -7 8 -11 11 -38 2 -16 40 32 41 50 0 7 4 11
9 8 5 -4 2 -27 -7 -53 -8 -27 -16 -68 -17 -93 -1 -25 -5 -60 -9 -77 -6 -27 -5
-33 9 -33 14 0 15 -3 5 -15 -10 -12 -10 -15 1 -15 11 0 11 -2 -1 -10 -13 -9
-11 -13 10 -29 21 -17 22 -21 10 -37 -9 -11 -10 -15 -2 -10 9 5 11 -6 9 -48
-3 -41 0 -56 9 -56 9 0 12 -11 9 -35 -3 -19 -1 -35 5 -35 5 0 7 -14 4 -32 -13
-78 -14 -80 -37 -74 -17 4 -22 0 -24 -17 -1 -12 -5 -42 -9 -66 -6 -43 -6 -44
20 -39 18 4 26 1 26 -8 0 -8 -4 -14 -10 -14 -5 0 -10 -4 -10 -10 0 -5 9 -10
20 -10 24 0 25 -4 4 -35 -9 -13 -13 -28 -10 -33 3 -5 -4 -19 -15 -31 l-20 -22
30 -10 c27 -9 29 -14 29 -55 0 -26 -6 -50 -15 -59 -8 -8 -11 -15 -7 -15 4 0 0
-8 -8 -17 -9 -10 -19 -33 -23 -50 -3 -18 -11 -35 -16 -38 -5 -4 -5 -14 1 -26
7 -13 7 -19 0 -19 -5 0 -10 -12 -10 -27 0 -16 -5 -35 -10 -43 -8 -13 -11 -11
-16 8 -9 32 -17 28 -42 -28 -23 -51 -22 -70 3 -70 8 0 19 -16 24 -36 6 -20 18
-45 27 -55 9 -10 14 -27 11 -39 -3 -11 -1 -20 4 -20 5 0 9 -9 9 -20 0 -11 -5
-20 -11 -20 -5 0 -7 6 -3 13 5 8 2 7 -9 -2 -20 -16 -19 -38 3 -61 16 -16 16
-34 6 -195 -4 -78 -8 -93 -31 -116 -23 -25 -24 -29 -9 -44 15 -15 15 -17 -2
-30 -16 -12 -17 -17 -6 -35 10 -16 10 -30 2 -61 -8 -30 -8 -44 1 -55 12 -15 4
-84 -10 -84 -5 0 -12 12 -15 26 -10 38 -39 27 -47 -18 -4 -28 -1 -40 12 -51 9
-9 20 -13 22 -10 3 2 15 -1 27 -7 16 -8 19 -17 14 -33 -4 -12 -8 -38 -9 -57
-2 -19 -6 -58 -10 -87 -7 -46 -5 -52 15 -63 18 -10 21 -17 15 -46 -3 -19 -2
-34 3 -34 23 0 4 -66 -27 -97 -30 -29 -31 -32 -14 -41 17 -10 17 -11 1 -17
-10 -4 -18 -12 -18 -18 0 -6 -8 -19 -17 -30 -10 -11 -13 -17 -6 -14 6 4 18 4
27 1 13 -5 12 -9 -8 -25 -20 -16 -24 -30 -29 -96 -8 -96 -22 -188 -33 -205 -4
-6 -9 -23 -10 -37 -2 -13 -7 -27 -13 -30 -36 -23 -80 -131 -52 -131 14 0 -12
-83 -40 -127 -28 -42 -23 -67 6 -43 10 8 15 9 15 2 0 -6 -8 -16 -19 -21 -11
-6 -22 -27 -26 -48 -4 -21 -25 -62 -48 -91 -33 -44 -38 -55 -26 -63 10 -6 11
-11 3 -16 -18 -12 -54 -82 -54 -104 0 -32 -30 -91 -62 -121 -32 -30 -34 -38
-13 -38 8 0 15 -3 15 -7 -1 -14 -27 -43 -33 -37 -9 9 -39 -55 -31 -67 3 -6 -3
-17 -15 -25 -15 -11 -21 -24 -19 -44 1 -16 -6 -37 -16 -48 -13 -16 -14 -21 -4
-25 10 -4 9 -9 -4 -17 -10 -6 -18 -19 -18 -29 0 -11 -7 -21 -15 -25 -8 -3 -15
-11 -15 -18 0 -7 -9 -19 -20 -26 -26 -16 -70 -86 -69 -109 0 -11 3 -13 6 -5 2
6 18 12 34 12 20 0 27 -4 23 -14 -3 -7 3 -16 12 -20 22 -8 23 -7 26 33 1 18 8
37 16 43 8 7 9 13 3 18 -7 3 -3 12 8 22 21 18 19 24 22 -77 1 -26 3 -32 6 -16
3 13 13 26 24 28 12 4 19 14 19 30 0 18 5 24 18 21 11 -3 16 -12 15 -26 -2
-19 0 -20 24 -11 31 11 52 37 53 62 0 21 20 23 20 1 0 -8 4 -12 10 -9 5 3 7 0
4 -8 -3 -8 -1 -18 4 -21 15 -9 35 21 29 44 -3 11 2 25 10 32 14 11 15 10 9
-12 -6 -25 -6 -25 5 -2 7 12 19 23 28 23 9 1 26 3 39 4 16 2 22 -2 18 -12 -4
-9 0 -13 11 -11 19 4 42 -50 25 -61 -15 -9 -33 -81 -20 -81 5 0 -2 -14 -16
-31 -29 -34 -34 -69 -11 -69 8 0 15 -7 15 -15 0 -8 -6 -15 -14 -15 -10 0 -11
-7 -2 -35 9 -29 14 -33 33 -29 29 8 29 -4 -2 -62 -28 -53 -33 -104 -10 -104 8
0 15 7 15 15 0 8 5 15 11 15 5 0 7 5 3 11 -4 7 -1 10 7 7 8 -3 16 -15 17 -27
2 -15 0 -21 -7 -17 -6 4 -11 3 -11 -3 0 -5 5 -13 10 -16 18 -11 11 -27 -10
-22 -24 6 -25 3 -4 -18 13 -12 19 -13 30 -4 12 10 13 8 7 -7 -3 -10 -9 -21
-13 -24 -10 -8 -44 -85 -39 -90 2 -2 15 -3 28 -1 14 1 21 -1 17 -7 -4 -6 2
-17 12 -24 20 -14 64 -76 46 -65 -12 7 -64 -13 -64 -25 0 -5 14 -8 30 -8 30 0
42 -22 19 -35 -18 -11 -30 -56 -20 -69 7 -8 6 -21 -4 -39 -8 -15 -11 -27 -7
-27 11 0 82 97 82 112 0 9 -3 9 -11 -2 -7 -10 -9 -11 -7 -2 2 8 6 12 9 10 3
-2 13 3 23 11 21 18 31 9 17 -17 -5 -10 -12 -34 -14 -53 -2 -19 -8 -42 -12
-51 -4 -10 -5 -25 -1 -33 3 -8 2 -15 -2 -15 -4 0 -8 -16 -9 -35 -2 -26 0 -33
11 -29 11 4 13 -7 11 -60 -3 -64 -3 -66 20 -66 22 0 24 -3 19 -42 -3 -24 -10
-48 -16 -55 -6 -8 -8 -16 -5 -20 3 -3 0 -21 -8 -40 -19 -44 -19 -57 -1 -50 11
5 13 0 6 -24 -16 -53 -149 -259 -169 -259 -4 0 -12 -9 -17 -19 -8 -17 -156
-150 -231 -207 -115 -88 -370 -215 -538 -270 -22 -7 -78 -26 -125 -44 -151
-55 -407 -110 -697 -149 -300 -41 -627 -22 -1048 61 -170 34 -263 58 -526 137
-123 37 -334 121 -494 197 -70 33 -175 94 -328 188 -314 192 -582 494 -618
694 -6 31 -21 91 -34 132 -51 163 -50 266 2 370 l28 55 -1 275 c0 151 -6 401
-13 554 -12 266 -15 290 -57 495 -113 548 -125 614 -150 821 -23 189 -21 185
-75 182 -24 -2 -60 4 -80 12 -82 34 -192 197 -223 326 -8 36 -31 108 -51 160
-20 52 -50 158 -65 236 -16 77 -42 192 -59 255 -73 279 -94 452 -81 665 5 87
14 175 19 194 6 19 17 102 26 184 17 161 32 209 84 268 60 69 144 94 216 64
40 -17 41 -17 18 71 -14 59 -15 90 -5 297 7 127 17 272 22 321 5 50 14 131 20
180 20 183 49 302 176 720 73 241 88 282 151 408 106 214 251 436 367 564 69
76 184 167 376 299 205 140 262 175 460 277 255 132 296 152 432 203 358 135
531 178 863 217 80 10 192 5 314 -13z m1904 -1027 c46 -50 107 -127 107 -136
0 -4 11 -20 25 -34 13 -15 30 -41 37 -57 7 -17 21 -38 32 -47 17 -14 18 -19 7
-33 -12 -14 -16 -14 -42 0 -16 8 -29 21 -29 30 0 8 -11 25 -25 37 -14 12 -26
31 -28 43 -1 12 -10 33 -20 47 -9 15 -17 29 -17 32 0 10 -74 105 -82 105 -4 0
-8 9 -8 20 0 11 -4 20 -10 20 -5 0 -10 5 -10 10 0 15 33 -4 63 -37z m902
-2689 c9 -4 21 -17 26 -31 9 -25 50 -46 73 -37 24 9 54 -55 52 -111 -2 -36 3
-57 16 -76 16 -21 19 -44 20 -125 0 -54 6 -144 14 -199 18 -134 17 -179 -5
-299 -11 -55 -25 -137 -31 -181 -24 -161 -112 -583 -129 -615 -4 -8 -14 -36
-22 -62 -7 -27 -17 -48 -21 -48 -4 0 -8 -10 -8 -22 0 -13 -7 -32 -15 -42 -8
-11 -15 -31 -15 -45 0 -48 -54 -181 -77 -188 -7 -3 -15 8 -18 24 -7 28 -17 62
-31 98 -4 11 -8 22 -9 25 -1 3 -7 16 -13 30 l-11 25 0 -28 c-1 -24 -4 -27 -21
-22 -16 5 -20 2 -20 -17 0 -13 5 -29 11 -35 7 -7 12 -50 12 -103 1 -89 0 -93
-27 -116 -32 -29 -57 -30 -79 -6 -13 14 -15 34 -11 108 8 150 14 176 49 188
21 8 30 16 27 29 -2 9 -8 15 -13 12 -5 -3 -6 1 -3 9 3 8 -2 17 -14 20 -23 8
-32 58 -32 173 0 73 1 75 38 108 20 19 45 35 55 35 9 0 17 7 17 15 0 8 -7 15
-16 15 -12 0 -14 3 -6 13 13 15 22 90 13 104 -8 14 -54 9 -59 -5 -2 -7 -8 -10
-13 -6 -5 3 -9 0 -9 -5 0 -6 -4 -11 -9 -11 -11 0 -30 162 -32 265 -1 129 0
135 16 135 8 0 15 -3 15 -7 0 -5 13 -15 29 -24 21 -12 32 -14 40 -6 16 16 14
47 -4 53 -10 4 -14 20 -13 55 0 27 -5 55 -11 63 -8 10 -10 30 -6 59 5 34 2 51
-15 82 -17 31 -19 43 -11 62 9 21 16 23 78 21 44 -1 68 2 71 10 5 17 22 15 22
-3 0 -8 9 -19 20 -25 18 -10 20 -8 20 20 0 27 3 31 22 28 15 -2 22 -11 25 -33
11 -90 35 -63 40 47 2 45 15 123 27 173 20 78 27 93 53 110 47 30 55 55 31 93
-11 18 -22 32 -24 32 -6 0 -95 -48 -117 -63 -15 -10 -20 -9 -28 6 -11 19 -33
24 -27 5 5 -14 -2 -24 -49 -75 -18 -19 -33 -37 -33 -40 0 -7 -23 -28 -53 -48
l-28 -18 5 39 c7 58 19 83 75 153 28 35 51 70 51 77 0 8 4 14 10 14 12 0 39
51 33 65 -2 6 6 21 17 33 11 11 20 25 20 31 0 5 6 12 13 14 6 3 13 6 14 6 1 1
9 -2 18 -5z m81 -8740 c96 -64 204 -224 230 -341 21 -94 13 -208 -22 -299 -32
-85 -36 -129 -20 -205 16 -74 39 -123 75 -161 24 -25 34 -27 141 -33 63 -4
123 -11 132 -16 22 -12 26 -37 33 -216 l7 -151 -27 -18 c-23 -15 -37 -16 -142
-5 -85 9 -119 9 -129 0 -20 -16 -44 -109 -50 -193 -6 -91 9 -214 37 -287 11
-30 27 -72 35 -94 20 -50 11 -150 -17 -215 -36 -81 -119 -154 -229 -199 -57
-23 -296 -51 -442 -51 -100 0 -102 4 -117 187 -15 170 -11 189 42 197 17 3 80
7 139 9 60 2 113 9 121 15 34 28 53 174 36 267 -6 33 -22 98 -36 145 -15 55
-26 124 -29 195 l-6 110 33 50 c28 40 34 59 34 101 0 44 -5 58 -35 95 l-34 43
0 151 c0 115 4 164 18 210 10 33 20 99 23 147 5 73 2 98 -17 158 -26 81 -25
80 -145 56 -38 -8 -99 -15 -135 -15 -180 -2 -668 7 -763 14 -109 8 -355 -2
-732 -30 -104 -8 -308 -16 -452 -19 l-261 -4 -69 -38 c-216 -120 -358 -238
-447 -374 -61 -92 -89 -156 -124 -278 -24 -86 -27 -113 -26 -242 0 -80 6 -181
13 -225 11 -71 60 -212 83 -240 5 -5 26 -37 47 -71 21 -33 63 -90 93 -125 30
-35 62 -76 72 -90 16 -26 16 -27 -8 -46 -21 -17 -49 -21 -203 -28 -288 -14
-292 -13 -311 12 -9 13 -28 44 -42 70 -13 27 -34 62 -46 78 -25 34 -114 217
-114 234 0 6 -4 19 -9 29 -37 67 -62 212 -62 364 0 229 55 412 184 623 53 86
78 118 229 297 126 151 232 221 543 359 l100 44 360 1 c207 1 396 6 445 13 46
6 124 11 171 11 48 0 170 7 271 15 150 13 203 14 288 4 58 -6 239 -14 404 -16
244 -4 322 -1 430 13 317 41 380 43 432 8z m-3201 -57 c20 -27 9 -45 -45 -72
-76 -39 -210 -156 -297 -260 l-41 -50 -139 2 c-76 1 -253 6 -393 10 l-255 8
-5 145 c-6 149 1 204 24 213 7 3 154 4 327 2 218 -2 346 1 419 10 58 7 169 12
248 12 127 -2 145 -4 157 -20z m-1379 -25 c11 -10 14 -51 14 -166 0 -199 9
-189 -183 -196 l-142 -5 -18 -39 c-37 -78 -36 -169 2 -341 30 -133 39 -273 22
-333 -6 -18 -24 -49 -40 -68 -42 -48 -44 -121 -4 -179 47 -70 46 -257 -2 -430
-9 -33 -19 -106 -22 -162 -5 -83 -2 -111 13 -153 29 -79 28 -79 372 -90 163
-6 430 -15 592 -22 383 -17 358 -17 1010 7 74 3 233 6 353 7 l218 1 70 44
c182 111 279 199 400 360 158 210 223 395 222 628 -1 146 -21 240 -76 355 -56
120 -144 246 -202 292 -27 21 -33 59 -11 77 19 16 151 29 320 33 l138 3 35
-40 c74 -85 183 -269 183 -309 0 -9 4 -16 8 -16 17 0 65 -168 83 -289 34 -239
-45 -531 -208 -774 -144 -213 -352 -421 -564 -565 -61 -41 -265 -147 -309
-160 -20 -6 -255 -15 -565 -22 -291 -6 -570 -13 -620 -16 -93 -7 -507 6 -1010
32 -159 7 -346 14 -416 14 -152 0 -214 11 -294 50 -218 106 -283 356 -163 622
30 67 33 81 33 173 0 93 -2 105 -33 167 -22 44 -39 68 -55 72 -12 3 -72 6
-133 6 -82 0 -115 4 -123 14 -15 18 -18 354 -3 382 13 25 64 34 198 34 111 0
111 0 145 125 27 100 22 204 -16 320 -63 189 1 397 147 487 91 56 151 71 308
78 221 10 311 8 326 -8z m3867 -2036 c11 -11 15 -38 16 -93 0 -43 3 -111 6
-152 3 -40 3 -82 0 -92 -8 -24 -55 -35 -175 -43 -52 -3 -135 -13 -185 -21 -49
-8 -191 -21 -315 -30 -124 -8 -261 -19 -305 -25 -193 -22 -215 -20 -215 24 0
16 17 37 58 68 154 123 184 149 273 235 l96 93 171 9 c94 5 176 12 182 16 18
11 130 21 256 24 98 1 125 -1 137 -13z"/>
<path d="M11964 13426 c10 -8 16 -19 13 -23 -13 -21 38 -53 82 -53 21 0 32 6
36 20 6 20 35 28 35 10 0 -5 -4 -10 -9 -10 -5 0 -12 -8 -16 -19 -5 -16 -13
-18 -77 -13 -52 4 -69 2 -64 -7 4 -6 17 -11 29 -11 22 0 61 -19 42 -20 -26 -1
33 -30 61 -30 17 0 37 -7 44 -15 7 -8 18 -15 26 -15 17 0 29 40 15 50 -7 4
-13 33 -14 64 l-2 58 -30 -6 c-16 -3 -42 -8 -57 -11 -16 -3 -28 -2 -28 2 0 13
-33 30 -70 37 -32 6 -33 6 -16 -8z"/>
<path d="M8880 13320 c-25 -4 -106 -17 -180 -29 -74 -11 -156 -27 -181 -35
-52 -16 -125 -51 -133 -64 -3 -5 39 -2 92 7 53 8 165 16 247 17 83 1 153 3
158 4 10 4 117 7 307 10 149 2 169 0 210 -19 26 -12 64 -20 90 -20 l45 1 -33
14 c-17 8 -53 19 -80 26 -26 6 -74 24 -107 39 -97 45 -320 70 -435 49z"/>
<path d="M10885 13240 c-44 -3 -85 -8 -92 -13 -6 -4 -49 -18 -96 -32 -74 -21
-157 -59 -157 -71 0 -2 10 -2 23 1 12 3 60 10 107 15 47 6 90 11 95 11 19 3
300 -12 326 -17 14 -2 54 -7 90 -9 35 -2 87 -9 114 -15 28 -5 68 -13 90 -16
22 -4 45 -10 50 -14 6 -4 29 -11 52 -15 23 -3 47 -13 53 -20 6 -8 26 -17 43
-21 43 -9 102 -39 126 -65 25 -27 92 -37 110 -15 11 14 7 22 -33 63 -25 27
-52 56 -58 66 -17 23 -201 92 -297 112 -102 20 -354 56 -416 58 -27 2 -86 0
-130 -3z"/>
<path d="M10409 11811 c-73 -57 -169 -169 -169 -196 0 -13 92 -12 133 1 12 4
17 2 13 -4 -17 -28 86 -29 125 -2 16 12 35 20 42 18 19 -4 137 144 137 172 0
20 -3 19 -42 -14 -60 -52 -102 -48 -139 10 -24 40 -62 45 -100 15z"/>
<path d="M10270 10946 c-6 -6 -21 -11 -33 -12 -12 0 -40 -4 -62 -9 -22 -4 -49
-7 -61 -6 -28 3 -77 -17 -69 -28 3 -5 22 -7 43 -4 102 13 151 1 152 -39 1 -7
7 -24 15 -38 10 -18 10 -28 2 -38 -8 -10 -7 -16 2 -21 23 -15 54 -7 56 14 3
33 16 65 26 65 6 0 9 -19 7 -42 l-3 -43 73 -7 c39 -4 84 -14 99 -22 16 -7 48
-17 73 -21 25 -4 53 -14 62 -22 10 -9 24 -13 33 -9 20 7 31 6 28 -4 -2 -5 10
-2 24 5 15 8 48 17 73 21 25 4 52 12 60 19 8 6 38 19 65 28 83 26 119 44 144
71 l24 25 -29 11 c-16 6 -58 17 -94 25 -36 7 -99 25 -140 40 -64 22 -94 26
-200 28 -69 1 -128 6 -132 11 -3 5 -40 5 -90 -1 -64 -8 -89 -8 -110 2 -20 9
-29 10 -38 1z"/>
<path d="M9192 10884 c-29 -13 -84 -33 -124 -42 l-71 -18 59 -22 c98 -35 133
-40 209 -26 39 7 93 13 120 13 28 1 55 5 61 9 15 10 24 73 12 95 -13 26 -48
22 -49 -5 -1 -13 -2 -30 -3 -38 -1 -10 -14 -16 -38 -18 -32 -3 -38 0 -38 17 0
11 5 23 10 26 6 3 10 13 10 21 0 25 -97 18 -158 -12z"/>
<path d="M10046 9671 c-11 -12 -15 -27 -12 -39 10 -30 -18 -48 -49 -32 -22 12
-27 11 -40 -6 -19 -25 -19 -40 1 -48 13 -5 14 -9 5 -20 -14 -17 2 -31 34 -31
11 0 21 -8 23 -18 6 -30 -18 -77 -39 -77 -11 0 -18 -5 -16 -11 1 -6 -4 -14
-11 -16 -8 -3 -10 1 -6 11 3 9 3 31 0 50 -5 28 -10 33 -26 29 -15 -4 -20 0
-20 13 0 17 -1 16 -15 -2 -12 -17 -12 -20 0 -30 8 -6 15 -19 15 -28 0 -9 6
-29 14 -45 17 -31 7 -57 -19 -48 -11 5 -14 13 -10 27 5 15 3 18 -8 14 -23 -8
-37 -45 -40 -99 -1 -38 -7 -54 -24 -68 -12 -9 -24 -30 -28 -46 -3 -16 -12 -35
-20 -41 -18 -15 -33 13 -31 58 0 17 -3 31 -9 29 -5 -2 -8 -24 -6 -49 2 -35 -2
-50 -18 -65 -11 -10 -25 -31 -31 -47 -13 -34 -24 -27 -24 16 -1 35 -26 53 -26
18 0 -29 -19 -62 -31 -54 -6 3 -14 16 -19 28 -8 19 -9 18 -15 -11 -9 -40 -30
-61 -39 -38 -3 8 -12 15 -20 15 -8 0 -20 16 -27 35 -13 35 -29 47 -29 21 0 -8
-6 -21 -12 -28 -7 -7 -14 -33 -15 -58 -4 -70 -11 -90 -33 -90 -21 0 -26 10
-11 26 5 5 11 28 13 51 3 41 3 42 -17 29 -18 -12 -23 -12 -32 2 -9 14 -13 13
-36 -10 -15 -15 -27 -38 -27 -53 0 -14 -4 -25 -10 -25 -5 0 -7 -8 -3 -17 5
-16 4 -16 -9 0 -13 18 -14 17 -27 -6 -9 -17 -19 -23 -29 -20 -10 4 -13 2 -8
-5 7 -11 -7 -42 -33 -74 -12 -16 -12 -18 2 -18 10 0 17 -4 17 -9 0 -5 -8 -7
-19 -4 -11 3 -21 -2 -24 -11 -7 -18 8 -22 19 -5 4 8 9 7 15 -2 6 -10 9 -11 9
-1 0 6 5 12 10 12 6 0 10 -7 10 -15 0 -9 6 -12 15 -9 17 7 21 -11 5 -21 -5 -3
-10 -15 -10 -25 0 -10 -7 -26 -16 -35 -10 -9 -14 -25 -11 -38 8 -29 -6 -90
-20 -94 -7 -3 -19 10 -28 26 -8 17 -22 31 -30 31 -18 0 -19 -12 -4 -27 16 -16
2 -33 -29 -33 l-27 0 28 -25 c18 -18 27 -36 27 -58 l1 -32 13 30 c10 25 13 27
19 12 4 -10 11 -16 16 -13 18 11 41 -6 41 -30 0 -26 27 -33 47 -13 9 9 19 4
39 -16 l28 -28 -23 -9 c-15 -5 -28 -4 -37 3 -10 8 -14 8 -14 0 0 -13 36 -23
70 -19 19 2 26 -2 28 -20 2 -13 11 -26 20 -29 9 -2 26 -9 37 -14 11 -5 31 -8
45 -7 17 2 24 -1 22 -11 -3 -14 10 -13 67 5 17 5 22 4 17 -5 -4 -6 -11 -9 -16
-6 -5 3 -12 0 -16 -6 -5 -9 4 -10 36 -5 36 6 41 4 37 -9 -11 -28 11 -15 24 14
14 30 34 32 25 3 -6 -20 3 -37 22 -38 6 -1 23 -2 37 -2 31 -2 32 -24 3 -65
-20 -29 -20 -30 -3 -17 11 7 26 21 33 29 17 20 92 24 92 4 0 -10 6 -12 20 -8
14 4 20 2 20 -8 0 -8 6 -20 14 -26 11 -9 26 -5 71 19 56 30 86 34 128 15 10
-4 21 -5 24 -2 9 9 44 -13 38 -23 -9 -14 14 -22 45 -15 24 5 27 9 17 19 -7 7
-26 16 -42 21 -30 8 -30 9 -5 13 28 4 60 29 60 46 0 6 7 20 16 31 13 17 16 18
24 5 6 -9 10 -10 10 -3 0 6 17 17 38 23 20 7 64 26 96 42 38 19 62 26 69 19
11 -11 0 -34 -13 -26 -5 3 -11 1 -14 -4 -7 -11 52 -26 62 -16 3 3 1 15 -6 25
-16 26 -15 30 7 30 24 0 36 -16 19 -24 -7 -3 7 -3 32 0 25 4 56 7 70 8 14 1
36 11 49 23 13 12 30 19 37 16 13 -5 34 25 34 48 0 8 -6 6 -18 -4 -24 -22 -42
-21 -42 1 0 26 11 34 26 21 10 -9 15 -7 20 5 3 9 26 30 51 46 43 29 44 29 38
8 -5 -18 2 -14 29 17 20 22 36 43 36 46 0 3 12 12 27 20 21 11 185 242 202
284 2 6 15 20 28 32 19 19 25 20 29 8 10 -26 24 -17 47 33 12 26 25 49 29 52
12 10 38 95 38 127 0 17 4 43 9 56 5 13 12 45 14 70 3 25 10 54 16 66 14 26
14 31 -3 31 -8 0 -17 -10 -20 -22 -8 -31 -43 -74 -52 -66 -4 4 -8 36 -9 70 -1
35 -6 75 -9 89 -5 16 -3 30 3 33 15 10 14 41 -2 55 -17 14 -30 2 -16 -15 17
-21 -27 -39 -54 -22 -28 17 -66 12 -75 -10 -8 -22 -28 -42 -42 -42 -16 0 -29
42 -18 63 7 14 5 17 -13 17 -18 0 -19 -2 -9 -15 11 -13 10 -14 -6 -9 -16 6
-17 5 -6 -7 19 -21 15 -41 -10 -37 -19 3 -21 -2 -24 -41 -3 -43 -18 -66 -38
-54 -5 4 -6 1 -1 -7 5 -8 2 -17 -7 -24 -8 -6 -18 -18 -21 -26 -4 -8 -4 1 -1
20 4 19 11 40 16 47 6 8 -5 26 -38 58 l-47 46 5 -57 c4 -49 2 -57 -14 -62 -10
-2 -22 -18 -26 -35 -4 -17 -13 -32 -20 -35 -9 -3 -9 4 -1 27 8 23 7 42 -4 80
-11 40 -12 54 -2 78 12 29 30 110 19 87 -3 -7 -14 -10 -24 -7 -15 4 -20 0 -20
-16 0 -12 5 -19 10 -16 18 11 10 -34 -14 -77 -13 -24 -29 -61 -36 -83 -13 -42
-30 -68 -30 -47 0 25 33 147 43 160 8 10 7 16 -2 22 -8 4 -11 12 -7 18 11 18
-18 19 -37 2 -13 -13 -16 -25 -11 -44 6 -25 -10 -39 -18 -14 -2 6 -10 8 -17 4
-7 -5 -10 -15 -7 -23 7 -17 -12 -58 -22 -48 -4 4 -7 12 -7 18 0 5 -6 12 -13
15 -7 2 -12 -2 -11 -9 4 -18 -38 -99 -51 -99 -19 0 -21 22 -4 35 21 15 19 19
-12 29 -13 4 -29 -1 -44 -14 -13 -11 -36 -20 -51 -20 -20 0 -30 -6 -35 -22 -9
-30 -79 -134 -120 -178 -17 -19 -44 -48 -58 -65 -14 -16 -26 -25 -26 -20 0 6
11 24 25 40 84 101 128 175 108 182 -10 4 -9 8 2 20 8 8 15 30 15 49 0 39 26
48 39 12 13 -37 21 5 9 49 -7 21 -11 44 -9 51 1 6 -3 12 -9 12 -5 0 -10 -6
-10 -14 0 -8 -9 -17 -19 -21 -21 -6 -34 -54 -20 -71 14 -17 -37 -63 -61 -57
-11 3 -20 1 -20 -4 0 -5 -14 -17 -31 -27 -22 -13 -28 -21 -20 -29 8 -8 14 -8
23 1 19 19 30 14 26 -10 -2 -16 -9 -22 -20 -20 -10 2 -18 -2 -18 -7 0 -5 -9
-12 -19 -16 -12 -3 -21 -17 -23 -33 -2 -19 -9 -28 -26 -30 -13 -2 -26 -10 -29
-18 -10 -26 -22 -4 -16 29 8 46 23 69 38 63 7 -2 19 2 25 10 10 11 9 14 -4 14
-19 0 -19 1 -6 34 5 14 6 26 1 26 -5 0 -11 -7 -15 -15 -3 -8 -11 -15 -17 -15
-7 0 -5 8 6 20 11 13 25 18 37 14 27 -8 22 15 -7 28 -22 10 -27 8 -46 -15 -24
-31 -39 -35 -39 -9 0 19 44 64 73 75 15 6 16 10 5 27 -7 11 -19 18 -25 15 -7
-2 -13 2 -13 10 0 19 17 28 23 13 2 -7 11 1 20 19 13 24 14 32 4 36 -9 3 -9
11 -1 33 6 16 15 38 19 49 7 16 4 15 -14 -5 l-23 -25 7 30 c11 46 22 88 30
110 7 16 6 18 -6 8 -22 -22 -29 -15 -23 27 7 45 4 48 -20 21z"/>
<path d="M9060 9098 c0 -13 5 -29 10 -34 8 -8 6 -15 -6 -25 -14 -11 -20 -11
-46 4 -16 9 -26 12 -23 7 4 -6 -1 -24 -9 -42 -18 -35 -14 -47 9 -28 16 13 17
12 19 -34 1 -23 -34 -61 -63 -71 -17 -5 -19 -9 -9 -31 11 -24 27 -32 29 -14 1
6 2 15 3 21 0 5 13 18 29 27 22 14 31 14 47 5 13 -9 21 -9 26 -2 4 7 13 4 25
-7 18 -16 19 -16 19 3 0 16 -6 20 -25 18 -14 -2 -28 2 -32 7 -3 7 -1 8 5 4 7
-4 12 -1 12 8 0 9 6 16 13 16 18 0 39 47 32 70 -4 12 1 19 15 23 19 5 20 8 8
26 -7 12 -20 21 -28 20 -32 -3 -42 2 -37 15 3 8 -1 20 -9 26 -11 10 -14 8 -14
-12z"/>
<path d="M160 10962 c0 -5 -16 -101 -35 -213 -90 -531 -125 -960 -125 -1539 0
-543 33 -964 116 -1478 27 -174 93 -500 129 -642 l23 -95 -3 80 c-2 44 -7 193
-10 330 -3 138 -8 279 -10 315 -2 36 -7 371 -10 745 -14 1659 -16 1727 -44
1933 -16 116 -23 221 -24 367 -1 113 -3 205 -4 205 -2 0 -3 -4 -3 -8z"/>
<path d="M12505 739 c-82 -12 -153 -61 -188 -132 -35 -67 -35 -81 -1 -73 58
15 375 142 376 151 1 12 -67 51 -102 57 -14 3 -52 1 -85 -3z"/>
<path d="M8537 655 c-66 -23 -144 -116 -132 -155 9 -29 57 -38 242 -44 199 -6
205 -4 183 67 -32 108 -178 174 -293 132z"/>
<path d="M11082 609 c-88 -44 -152 -154 -152 -262 0 -55 20 -134 39 -159 l18
-22 84 18 c46 10 143 31 216 48 148 35 143 30 143 135 0 112 -50 203 -137 247
-48 24 -157 21 -211 -5z"/>
</g>
</svg>
