<?xml version="1.0" standalone="no"?>
<!DOCTYPE svg PUBLIC "-//W3C//DTD SVG 20010904//EN"
 "http://www.w3.org/TR/2001/REC-SVG-20010904/DTD/svg10.dtd">
<svg version="1.0" xmlns="http://www.w3.org/2000/svg"
 width="1242.000000pt" height="1054.000000pt" viewBox="0 0 1242.000000 1054.000000"
 preserveAspectRatio="xMidYMid meet">
<metadata>
Created by potrace 1.16, written by Peter Selinger 2001-2019
</metadata>
<g transform="translate(0.000000,1054.000000) scale(0.100000,-0.100000)"
fill="#000000" stroke="none">
<path d="M6628 10528 c7 -7 12 -23 12 -36 0 -20 -4 -23 -32 -22 -59 3 -68 1
-68 -21 0 -11 4 -18 9 -15 14 9 20 -32 14 -85 -5 -44 -8 -49 -45 -63 -70 -29
-173 -15 -166 22 2 12 16 19 48 23 l45 6 -43 1 c-24 1 -57 -5 -74 -14 -26 -13
-49 -15 -119 -10 -71 5 -88 4 -99 -9 -7 -8 -17 -15 -23 -15 -20 0 -35 -35 -30
-67 4 -26 -1 -41 -22 -69 -16 -20 -31 -51 -34 -68 -6 -28 -11 -31 -48 -34 -23
-2 -47 -10 -53 -18 -7 -7 -18 -14 -24 -14 -7 0 -21 -6 -31 -14 -17 -12 -18
-16 -5 -31 13 -15 12 -20 -10 -37 -19 -16 -25 -30 -25 -61 0 -40 -2 -42 -45
-58 -27 -10 -45 -23 -45 -32 0 -16 -55 -67 -107 -100 -16 -10 -28 -22 -28 -27
0 -5 12 -12 28 -16 37 -8 102 -36 102 -44 0 -20 -31 -30 -97 -30 -42 0 -73 -4
-73 -10 0 -5 5 -10 11 -10 15 0 2 -50 -16 -64 -17 -13 -93 -160 -122 -236 -28
-72 -35 -128 -37 -282 0 -69 -4 -124 -8 -121 -5 2 -8 -1 -8 -7 0 -6 10 -8 25
-4 19 5 25 2 25 -10 0 -20 39 -37 60 -26 31 17 142 125 192 188 29 36 72 86
97 111 101 103 171 180 171 188 0 15 397 399 488 473 64 52 157 97 234 115
113 25 360 37 813 39 l430 1 104 -28 c57 -16 136 -34 175 -42 82 -15 132 -28
234 -60 72 -22 195 -32 245 -20 35 9 42 33 15 55 -21 17 -22 21 -9 41 12 20
11 24 -10 40 -20 15 -21 19 -10 33 11 13 11 22 -4 51 -9 20 -19 53 -22 73 -4
20 -15 49 -26 64 -12 17 -17 33 -13 45 10 25 9 28 -14 29 -12 1 -19 -4 -17
-10 10 -29 -75 -46 -142 -27 -48 13 -36 31 22 31 73 0 85 6 102 47 16 38 20
93 7 93 -5 0 -16 18 -25 39 -14 31 -25 41 -50 46 -18 4 -49 18 -69 31 -21 13
-44 24 -51 24 -7 0 -26 13 -41 29 l-28 30 38 4 c22 2 -49 4 -156 4 -107 0
-171 -3 -141 -6 l54 -6 -53 -52 c-57 -57 -87 -67 -92 -31 -2 15 -19 30 -51 47
-53 27 -51 38 8 44 22 2 -252 4 -609 5 -506 2 -647 -1 -638 -10z"/>
<path d="M5135 8818 c-4 -18 -12 -46 -20 -63 -54 -122 -65 -158 -65 -211 l0
-57 33 6 c17 4 42 9 55 13 19 5 22 3 22 -22 l0 -28 25 34 c14 19 25 40 25 46
0 7 9 19 20 27 25 18 40 58 40 111 0 27 6 48 15 56 8 7 15 20 15 29 0 13 2 13
9 2 5 -8 11 -9 15 -3 6 10 -15 22 -40 22 -7 0 -20 -14 -29 -30 -13 -26 -20
-29 -43 -24 -34 9 -39 17 -47 76 -8 56 -21 62 -30 16z"/>
<path d="M6589 8645 c-3 -2 -120 -9 -260 -15 -419 -18 -468 -25 -729 -113
-185 -62 -185 -62 -188 -93 -2 -18 -18 -49 -36 -70 -43 -51 -61 -87 -75 -151
-10 -51 -95 -224 -132 -272 -10 -12 -21 -38 -25 -57 -3 -19 -15 -39 -25 -45
-11 -5 -19 -14 -19 -20 0 -17 54 -58 75 -59 23 0 48 37 59 85 21 92 27 103 54
114 16 7 35 11 42 9 7 -2 28 17 47 42 66 87 77 98 102 110 23 10 28 9 48 -17
13 -15 23 -34 23 -40 0 -8 15 -13 41 -13 22 0 61 -6 87 -12 l47 -13 -72 -5
c-97 -8 -103 -14 -103 -114 0 -68 4 -91 26 -134 14 -29 37 -60 50 -70 14 -9
46 -33 72 -52 59 -44 93 -63 162 -90 60 -24 193 -60 220 -60 15 0 228 -63 255
-76 6 -2 30 -16 55 -29 24 -14 73 -30 109 -35 35 -5 68 -13 73 -18 4 -4 49 -7
99 -5 82 2 91 1 96 -16 4 -17 49 -47 66 -43 4 1 7 -3 7 -9 0 -6 9 -8 20 -4 13
4 20 2 20 -7 0 -8 5 -5 11 6 8 13 8 20 1 25 -6 3 -10 21 -10 38 1 24 6 33 25
37 12 4 23 11 23 16 0 5 16 17 35 26 38 18 105 12 105 -9 0 -7 8 -28 18 -47
11 -19 18 -44 17 -55 -1 -22 -34 -65 -49 -65 -10 0 -35 -26 -86 -91 -19 -24
-46 -54 -60 -65 -48 -42 -80 -73 -80 -80 0 -4 -13 -29 -30 -56 -23 -36 -30
-60 -30 -97 0 -27 -4 -51 -10 -53 -12 -4 -42 -176 -35 -199 7 -22 -18 -74 -39
-82 -9 -4 -13 -13 -10 -21 3 -8 1 -17 -5 -21 -6 -3 -11 -19 -11 -36 0 -16 -4
-29 -8 -29 -18 0 -70 -53 -65 -66 3 -8 0 -14 -7 -14 -7 0 -10 -6 -7 -14 3 -8
0 -22 -8 -32 -13 -19 -10 -44 7 -44 5 0 6 4 3 10 -3 5 7 13 22 16 15 4 34 16
43 27 13 15 23 17 54 12 26 -5 34 -10 24 -16 -16 -11 -14 -11 92 -9 46 1 89 5
95 9 12 9 291 13 318 5 14 -4 17 -12 13 -29 -5 -19 2 -31 29 -57 57 -54 63
-58 82 -58 34 1 194 46 187 53 -11 10 16 36 31 31 7 -3 22 -1 33 5 24 13 131
-12 148 -35 14 -17 128 -22 237 -9 51 6 67 5 67 -5 0 -7 7 -10 15 -6 8 3 15 2
15 -3 0 -4 11 -14 25 -21 14 -7 25 -19 25 -27 0 -7 16 -23 35 -35 19 -13 35
-32 36 -43 3 -68 24 -87 57 -49 32 37 27 98 -10 110 -12 3 -17 9 -12 13 13 8
10 42 -7 71 -8 14 -23 52 -34 85 -20 57 -22 60 -50 57 -17 -2 -37 -9 -45 -16
-8 -7 -21 -11 -27 -10 -7 1 -18 2 -23 3 -16 2 8 41 25 41 7 0 15 -6 17 -14 3
-13 6 -13 22 -1 16 12 17 17 6 30 -7 8 -21 15 -31 15 -20 0 -35 54 -25 88 5
13 -2 30 -18 49 -14 16 -27 40 -30 54 -13 57 -18 99 -23 177 -4 70 -2 87 13
103 9 10 22 19 29 19 18 0 55 44 55 66 0 29 23 96 41 122 13 17 34 26 92 36
42 7 84 19 93 27 13 11 53 14 164 14 143 0 147 -1 188 -27 23 -16 48 -28 55
-28 7 0 18 -5 24 -11 8 -8 19 -3 40 17 16 16 32 37 36 47 3 9 13 17 21 17 16
0 26 32 19 60 -3 12 -14 20 -26 20 -13 0 -17 4 -11 9 14 14 154 61 182 61 21
0 23 -3 17 -22 -4 -13 -13 -88 -21 -168 -7 -80 -18 -182 -24 -226 -6 -45 -8
-88 -5 -96 3 -8 -1 -21 -10 -28 -8 -7 -15 -19 -15 -26 0 -8 -4 -14 -9 -14 -4
0 -26 -46 -47 -102 -27 -69 -50 -113 -74 -137 -25 -26 -35 -45 -37 -73 -3 -40
-37 -118 -52 -118 -5 0 -18 -20 -30 -44 -11 -25 -28 -49 -37 -54 -24 -13 -11
-56 42 -142 24 -39 44 -76 44 -82 0 -6 -11 -23 -25 -40 -15 -18 -25 -42 -25
-61 0 -18 -9 -43 -20 -57 -11 -14 -20 -32 -20 -40 0 -21 -20 -40 -42 -40 -14
0 -18 8 -18 34 0 19 -5 38 -10 41 -6 3 -8 16 -4 29 3 14 -1 27 -13 38 -16 14
-23 14 -69 1 -47 -14 -53 -19 -74 -66 -28 -61 -33 -83 -34 -157 -1 -50 1 -56
27 -68 15 -7 36 -14 47 -15 14 -1 20 -8 20 -24 0 -22 -4 -23 -74 -23 -79 0
-89 -6 -102 -54 -4 -16 -15 -31 -25 -33 -19 -5 -59 -72 -59 -99 0 -8 -4 -12
-10 -9 -5 3 -10 -1 -10 -9 0 -15 -37 -22 -80 -16 -24 3 -138 99 -145 121 -5
14 -12 18 -23 14 -10 -4 -29 -12 -44 -17 -16 -5 -28 -14 -28 -19 0 -5 -7 -9
-15 -9 -8 0 -25 -10 -39 -23 -42 -39 -56 -48 -99 -68 -23 -11 -57 -29 -75 -39
-50 -30 -76 -31 -132 -3 -40 20 -54 23 -65 13 -16 -13 -9 -40 11 -40 19 0 18
-26 -1 -34 -8 -3 -15 -11 -15 -17 0 -7 -8 -21 -17 -31 -15 -17 -15 -20 -3 -28
13 -8 11 -12 -7 -25 -13 -9 -23 -22 -23 -30 0 -17 -31 -35 -60 -35 -13 0 -20
-5 -17 -12 2 -7 11 -12 21 -10 9 2 16 -2 16 -8 0 -5 -6 -10 -14 -10 -8 0 -17
-4 -20 -8 -8 -14 16 -92 28 -92 15 0 68 -54 61 -62 -3 -3 5 -8 17 -11 23 -6
23 -10 18 -67 -5 -55 -10 -64 -40 -88 -19 -15 -50 -30 -70 -33 -19 -4 -61 -12
-93 -18 -32 -7 -68 -9 -80 -5 -12 4 -41 7 -65 6 -34 -1 -53 5 -97 34 -46 31
-60 35 -97 31 -24 -2 -61 -12 -83 -20 -49 -20 -145 -23 -145 -4 0 27 -19 41
-53 39 -37 -3 -87 34 -87 63 0 9 -9 15 -25 15 -14 0 -25 5 -25 10 0 12 -80 13
-99 1 -17 -11 -41 -4 -41 12 0 6 8 19 17 29 25 28 7 50 -42 53 -22 1 -59 6
-83 10 -37 7 -45 5 -67 -17 l-25 -25 25 -56 c14 -33 20 -59 15 -62 -29 -18 5
-82 62 -118 34 -21 84 -22 92 -2 7 20 76 21 76 1 0 -8 -9 -18 -20 -21 -47 -15
-14 -23 70 -18 75 5 90 4 90 -9 0 -8 11 -25 25 -38 32 -30 32 -40 0 -40 -14 0
-30 -9 -37 -20 -7 -11 -18 -20 -25 -20 -7 0 -13 -8 -13 -17 0 -10 -15 -25 -33
-33 -35 -16 -44 -52 -15 -58 16 -3 58 30 58 46 0 16 41 42 65 42 18 0 28 7 35
25 10 27 26 32 113 38 50 3 60 1 69 -16 8 -16 5 -25 -20 -48 -16 -15 -33 -25
-37 -21 -4 4 -6 -5 -3 -19 4 -23 0 -28 -39 -44 -40 -17 -42 -19 -24 -32 23
-15 65 -3 93 27 12 13 30 19 53 18 31 -1 41 -18 11 -18 -8 0 -19 -7 -27 -16
-7 -8 -21 -13 -31 -11 -10 3 -18 2 -18 -2 0 -13 34 -39 54 -42 18 -4 17 -7
-12 -40 -38 -44 -56 -86 -39 -92 7 -2 29 4 49 14 21 11 44 19 53 19 8 0 15 5
15 10 0 6 7 10 15 10 8 0 24 5 35 12 16 10 22 9 40 -11 11 -13 20 -27 20 -31
0 -4 12 -10 28 -13 15 -3 42 -19 61 -36 34 -31 34 -31 21 -72 -13 -37 -12 -43
3 -54 17 -12 24 -45 10 -45 -5 0 -21 -16 -37 -36 -28 -36 -28 -36 -9 -55 23
-23 43 -25 100 -8 49 15 64 7 39 -20 -18 -20 -19 -68 -1 -63 6 1 10 7 10 13 0
6 8 16 18 23 9 7 17 18 17 24 0 15 89 92 125 108 17 8 37 18 45 23 8 5 35 19
60 31 71 35 150 90 150 105 0 8 12 23 28 32 59 39 83 89 36 77 l-26 -7 16 30
c19 37 28 41 91 37 78 -4 117 -14 112 -27 -6 -17 12 -49 23 -42 18 11 23 -47
6 -75 -16 -28 -13 -84 5 -96 5 -3 9 -14 9 -25 0 -11 -4 -18 -9 -15 -12 8 -21
-29 -11 -44 8 -14 -7 -60 -24 -72 -5 -3 1 -18 13 -33 12 -16 21 -42 21 -61 0
-25 4 -32 14 -28 10 4 16 -5 21 -25 4 -17 11 -33 16 -36 13 -9 11 -75 -2 -75
-7 0 -9 -11 -6 -26 3 -16 0 -28 -9 -31 -8 -3 -14 -13 -14 -23 0 -11 -5 -22
-11 -26 -6 -3 -9 -15 -6 -25 3 -11 0 -25 -7 -32 -7 -6 -21 -26 -31 -44 -10
-17 -29 -34 -42 -38 -13 -3 -33 -15 -44 -26 -11 -11 -24 -17 -30 -14 -5 4 -15
2 -22 -3 -15 -12 -65 -23 -130 -27 -27 -2 -55 -9 -62 -15 -8 -6 -24 -10 -37
-9 -26 3 -102 -20 -94 -28 6 -7 -63 -43 -81 -43 -7 0 -13 -4 -13 -10 0 -5 -7
-10 -15 -10 -10 0 -15 -10 -15 -31 0 -28 -2 -31 -24 -25 -19 5 -26 1 -31 -15
-6 -17 -12 -19 -38 -13 -53 11 -77 23 -77 37 0 16 -61 77 -78 77 -7 0 -12 4
-12 10 0 12 -47 25 -75 21 -11 -1 -30 -13 -43 -27 -12 -13 -34 -27 -47 -30
-14 -3 -25 -13 -25 -20 0 -12 -3 -12 -14 -2 -8 7 -10 15 -5 16 17 7 9 20 -17
26 -15 4 -33 14 -41 21 -18 19 -72 19 -92 1 -9 -7 -37 -17 -64 -20 -38 -6 -48
-4 -53 8 -3 9 -12 16 -20 16 -8 0 -14 4 -14 10 0 5 -3 9 -7 8 -5 -1 -20 2 -35
6 -20 6 -40 2 -72 -14 -25 -12 -45 -25 -44 -28 1 -4 -2 -14 -5 -22 -3 -8 -11
-46 -16 -85 -15 -95 -30 -145 -46 -151 -25 -10 -70 24 -160 122 -49 54 -119
126 -154 160 -60 58 -66 61 -95 53 -17 -5 -62 -7 -100 -4 -68 6 -111 22 -191
74 -22 14 -56 33 -75 42 -19 9 -58 39 -86 65 -56 53 -184 218 -184 238 0 12
-19 51 -58 119 -12 21 -22 43 -22 50 -1 7 -14 28 -30 47 -17 19 -30 38 -30 44
0 5 -16 32 -35 61 -18 29 -39 65 -46 81 -75 186 -85 201 -136 210 -47 8 -82
65 -108 178 -15 65 -16 85 -6 112 17 46 109 133 214 201 92 60 113 90 55 78
-69 -14 -104 -26 -142 -48 -44 -25 -106 -108 -106 -141 0 -27 -39 -66 -66 -66
-12 0 -32 -12 -47 -27 -14 -16 -37 -36 -51 -46 -14 -10 -26 -25 -26 -34 0 -8
-9 -32 -19 -52 -10 -20 -24 -50 -30 -67 -7 -16 -25 -38 -42 -48 -29 -17 -31
-36 -3 -36 8 0 14 -10 14 -25 0 -14 -4 -25 -9 -25 -16 0 -19 -39 -5 -51 11 -9
13 -26 8 -71 -5 -48 -4 -62 11 -78 26 -29 12 -35 -31 -15 -27 13 -35 22 -31
36 5 18 -36 113 -53 124 -4 3 -6 14 -3 26 4 15 0 22 -15 26 -17 4 -22 14 -24
51 -2 38 -7 48 -23 50 -11 2 -27 13 -36 24 -15 19 -17 19 -32 3 -22 -21 -22
-78 -1 -111 13 -19 14 -28 5 -37 -6 -6 -11 -23 -11 -38 0 -23 -6 -28 -45 -39
-42 -12 -46 -11 -63 10 -17 22 -19 22 -33 5 -8 -9 -33 -37 -56 -61 l-42 -43
27 -20 27 -20 -30 -25 c-16 -14 -41 -25 -54 -26 -20 0 -22 -2 -11 -15 7 -9 11
-17 9 -18 -2 -2 -30 -18 -61 -35 -71 -39 -105 -42 -114 -8 -5 21 -14 26 -60
32 -69 8 -86 -4 -82 -60 l3 -41 63 -3 c100 -5 75 -20 -73 -44 -11 -2 -26 -16
-34 -32 -13 -25 -13 -29 2 -37 25 -14 10 -36 -29 -44 -19 -3 -45 -16 -56 -27
-23 -23 -93 -39 -124 -27 -17 6 -73 -9 -114 -31 -9 -4 -34 -11 -57 -14 -34 -6
-40 -11 -36 -27 4 -13 -2 -21 -19 -28 -32 -12 -127 -16 -150 -6 -10 4 -31 2
-47 -3 -22 -8 -32 -7 -40 2 -37 44 -277 49 -382 8 -30 -12 -80 -28 -113 -37
-32 -9 -68 -26 -81 -39 -13 -13 -30 -26 -38 -29 -8 -3 -18 -20 -22 -37 -4 -17
-14 -34 -23 -37 -10 -3 -35 -14 -57 -24 -22 -10 -67 -27 -99 -39 -32 -11 -79
-31 -104 -45 -24 -14 -50 -25 -56 -25 -7 0 -22 -11 -34 -25 -12 -14 -27 -25
-32 -25 -6 0 -23 -9 -38 -20 -15 -11 -41 -23 -57 -26 -17 -3 -35 -11 -41 -19
-6 -8 -15 -15 -20 -15 -16 -1 -52 -36 -56 -56 -2 -10 -8 -19 -13 -19 -19 -1
-95 -45 -95 -55 0 -6 -11 -20 -25 -32 -14 -12 -25 -28 -25 -35 0 -7 -4 -13 -8
-13 -19 0 -65 -49 -59 -62 8 -21 -8 -42 -27 -35 -17 7 -20 13 -30 59 -6 26
-10 28 -56 28 -51 0 -60 6 -38 28 9 9 7 12 -9 12 -12 0 -25 5 -28 10 -11 17
-42 11 -63 -12 -11 -13 -40 -45 -64 -72 -23 -27 -60 -59 -80 -73 -21 -13 -38
-30 -38 -38 0 -7 -8 -20 -19 -27 -10 -7 -30 -31 -45 -53 -15 -22 -37 -51 -49
-65 -39 -44 -88 -119 -99 -153 -15 -46 -78 -168 -100 -191 -10 -11 -21 -29
-24 -40 -4 -12 -10 -23 -13 -26 -10 -8 -121 -210 -121 -220 0 -21 18 -9 30 19
6 16 20 37 31 47 10 9 19 25 19 36 0 10 4 18 9 18 9 0 19 12 129 159 29 39 66
80 83 91 28 21 29 21 29 2 0 -11 -11 -27 -24 -36 -14 -9 -41 -43 -60 -76 -20
-34 -61 -92 -91 -130 -30 -38 -55 -72 -55 -76 0 -9 -101 -163 -150 -229 -21
-27 -49 -72 -64 -98 -14 -26 -66 -114 -115 -195 -130 -216 -193 -339 -259
-507 -33 -82 -76 -185 -96 -229 l-36 -78 0 -319 0 -319 6210 0 c6203 0 6210 0
6210 20 0 19 -7 20 -115 20 -111 0 -115 1 -119 22 -2 13 -12 88 -21 168 -9 80
-30 213 -46 295 -17 83 -34 175 -40 205 -15 80 -20 74 -13 -13 4 -42 4 -77 1
-77 -14 0 -37 61 -37 95 0 20 -6 48 -14 63 -12 24 -37 286 -40 413 -1 25 -6
52 -12 60 -6 8 -14 39 -18 69 -4 30 -19 80 -33 109 -31 67 -64 189 -69 256 -2
42 -8 54 -35 76 -28 22 -30 28 -19 46 12 18 8 25 -29 62 -37 37 -47 42 -79 39
-28 -2 -37 1 -37 12 0 9 11 16 28 18 19 2 27 9 27 23 0 22 -35 39 -81 39 -61
0 -99 45 -99 117 0 21 -4 44 -9 51 -11 18 -59 42 -82 42 -10 0 -23 8 -28 18
-10 18 -100 52 -139 52 -12 0 -22 5 -22 10 0 6 -26 10 -58 10 -36 0 -66 6 -78
15 -17 13 -17 14 -2 15 28 0 29 15 3 52 -13 19 -28 50 -33 69 -6 26 -13 33
-28 31 -30 -6 -38 -19 -23 -36 42 -46 42 -47 26 -63 -21 -21 -81 -8 -71 15 19
46 17 61 -10 68 -16 4 -26 13 -26 24 0 10 -12 28 -27 39 l-28 20 28 1 c36 0
35 21 -3 48 -16 13 -30 28 -30 35 0 19 -63 77 -83 77 -9 0 -16 5 -15 12 2 6
-10 18 -27 27 -37 20 -45 30 -38 48 8 20 -58 79 -96 88 -42 9 -48 23 -14 31
15 4 32 9 36 11 15 9 -15 33 -51 39 -36 7 -36 7 -14 22 37 24 29 64 -17 90
-21 12 -41 19 -44 16 -12 -12 -46 8 -49 29 -5 35 -66 69 -113 64 -78 -9 -170
-28 -182 -39 -19 -15 -136 -19 -145 -4 -14 21 -8 45 13 51 11 4 18 9 16 12
-13 13 -48 -12 -73 -51 -22 -34 -35 -45 -62 -50 -36 -5 -75 16 -49 28 6 4 1 4
-13 1 -14 -2 -32 -5 -41 -5 -8 0 -25 -9 -38 -21 -16 -15 -31 -20 -54 -16 -18
2 -42 0 -55 -6 -16 -8 -26 -7 -34 1 -9 9 -4 12 20 12 38 0 42 16 7 32 -19 9
-29 8 -50 -6 -18 -12 -30 -14 -43 -7 -10 5 -36 7 -58 4 -38 -5 -41 -3 -54 26
-11 28 -10 34 5 51 10 11 28 20 41 20 13 0 26 5 29 10 4 6 -11 10 -37 10 -24
0 -49 5 -55 11 -6 6 -47 11 -91 12 l-80 2 34 22 c18 13 39 23 46 23 7 0 4 6
-7 12 -22 12 -35 28 -35 42 0 4 25 5 55 1 37 -4 55 -3 55 4 0 12 -19 15 -63
12 -25 -2 -28 0 -22 18 6 19 2 21 -30 21 -60 0 -75 14 -75 69 0 26 -5 63 -11
81 l-12 33 -71 -8 c-39 -4 -83 -8 -98 -9 -14 0 -30 -4 -34 -9 -4 -4 -30 -7
-58 -7 -92 0 -125 21 -66 41 33 12 38 24 15 33 -26 10 -16 24 22 33 47 11 56
33 14 33 -20 0 -34 6 -38 16 -8 22 16 36 52 29 19 -3 26 -2 20 4 -6 5 -23 12
-39 15 -16 3 -34 10 -40 16 -16 16 -37 12 -62 -15 -16 -18 -33 -25 -60 -25
-35 0 -36 1 -31 29 6 31 -8 41 -61 41 -15 0 -22 5 -20 13 3 8 33 13 94 15 49
1 93 3 98 5 18 6 -70 41 -109 43 -22 2 -47 3 -55 4 -11 1 -8 6 8 17 31 22 27
33 -13 33 -25 0 -37 6 -46 23 -14 27 -55 64 -79 72 -15 5 -17 13 -13 45 3 22
4 40 1 40 -2 0 -23 -9 -46 -20 -40 -19 -42 -23 -42 -64 0 -24 -5 -57 -11 -74
-7 -21 -7 -37 0 -50 7 -13 7 -22 -2 -31 -6 -6 -12 -28 -14 -49 -5 -78 -11
-112 -19 -124 -27 -38 -44 -80 -44 -107 0 -17 -4 -31 -10 -31 -5 0 -13 -12
-16 -27 -7 -27 -40 -81 -57 -94 -4 -3 -7 -10 -6 -15 3 -19 -1 -34 -11 -34 -5
0 -10 9 -10 19 0 11 -9 22 -19 26 -12 3 -21 17 -23 33 -2 20 -9 28 -28 31 -35
4 -42 22 -19 44 18 17 19 21 6 35 -19 22 -25 64 -37 237 -11 156 -13 507 -3
569 9 65 19 76 64 76 34 0 48 -7 91 -47 28 -27 68 -72 90 -100 42 -58 55 -64
60 -30 4 26 -51 110 -102 154 -42 37 -108 73 -133 73 -25 0 -34 30 -13 46 13
9 19 29 21 76 2 35 7 90 13 123 10 66 64 195 81 195 6 0 17 15 25 33 7 19 37
53 65 77 28 23 53 50 56 59 3 9 18 32 35 51 16 19 30 39 30 43 0 5 20 35 45
67 25 32 45 61 45 63 0 3 13 19 30 37 30 32 88 144 109 212 7 21 16 40 21 43
10 6 82 218 79 231 -1 5 3 21 9 36 6 15 14 51 17 80 10 86 52 205 80 228 16
14 22 100 6 100 -5 0 -8 19 -6 43 2 23 4 60 4 83 1 37 5 42 42 62 49 26 56 27
121 5 49 -16 51 -15 65 3 32 42 -13 224 -57 232 -8 1 -37 -16 -65 -39 -48 -39
-50 -40 -59 -20 -6 14 -5 38 3 69 6 26 17 67 23 92 15 63 37 89 74 90 17 0 37
-7 44 -15 14 -17 35 -21 25 -5 -3 6 -1 10 4 10 6 0 10 3 9 8 -1 4 4 20 10 35
17 41 16 46 -21 63 -35 17 -63 69 -48 88 24 29 76 191 86 264 5 44 57 129 101
167 12 11 28 40 35 65 7 25 23 56 36 71 13 14 23 36 23 50 0 14 11 36 25 49
28 26 34 75 10 84 -8 3 -29 3 -45 -1 -25 -5 -30 -2 -30 14 0 11 9 28 20 38 25
23 25 39 0 73 -28 39 -53 120 -45 149 7 29 -70 351 -89 371 -18 19 -66 4 -76
-23 -10 -27 -27 -33 -93 -33 -39 0 -54 -6 -83 -32 -20 -17 -47 -36 -60 -42
-14 -7 -24 -21 -26 -37 -2 -18 -9 -26 -23 -26 -11 0 -19 5 -18 12 2 8 -9 7
-35 -4 -72 -30 -296 -10 -342 32 -8 7 -33 20 -55 28 -22 8 -69 27 -103 42
-117 49 -415 91 -466 66 -36 -17 -216 -45 -331 -51 -149 -7 -226 4 -345 51
-243 95 -227 91 -385 105 -163 15 -209 17 -216 9z m870 -669 c-4 -20 13 -65
27 -77 15 -12 54 -92 68 -137 10 -31 14 -182 5 -176 -8 5 -25 -62 -21 -82 1
-6 -9 -16 -22 -22 -29 -13 -50 -51 -60 -104 -4 -21 -11 -38 -16 -38 -6 0 -10
4 -10 10 0 5 -12 13 -27 16 -16 4 -35 15 -44 26 -10 13 -30 21 -55 23 -61 4
-71 12 -79 62 -7 51 -2 62 21 42 14 -11 15 -10 12 7 -2 13 3 20 19 22 12 2 27
10 33 18 7 8 18 14 24 14 7 0 12 40 14 121 2 80 8 136 19 163 8 22 16 52 17
66 2 36 45 83 63 69 7 -7 12 -17 12 -23z m57 -943 c4 -16 6 -35 5 -43 -1 -9
19 -24 51 -38 29 -12 71 -32 94 -43 45 -22 69 -26 100 -15 14 4 26 1 34 -9 7
-8 22 -15 34 -15 37 0 58 -23 63 -69 4 -34 0 -50 -21 -82 -30 -45 -70 -69 -87
-52 -8 8 -8 17 0 31 6 11 11 34 11 51 0 44 -26 54 -100 41 -99 -18 -159 -71
-217 -190 -7 -14 -14 -47 -15 -74 -2 -37 -8 -52 -23 -60 -11 -6 -23 -15 -26
-20 -4 -4 -26 -5 -50 -2 -44 6 -89 41 -89 69 0 8 -9 17 -20 20 -21 6 -24 19
-20 102 5 92 3 105 -21 131 -40 43 -92 64 -158 64 -52 0 -63 -3 -76 -23 -12
-19 -13 -34 -6 -73 12 -64 3 -75 -52 -62 -62 15 -87 49 -87 120 0 71 9 94 53
140 26 26 56 42 104 57 76 24 116 26 218 13 46 -6 79 -5 95 2 14 5 30 10 35
11 45 6 94 19 115 30 36 21 47 18 56 -12z m1422 -3499 c3 -18 -1 -20 -28 -16
-33 5 -120 -16 -120 -28 0 -11 -57 -30 -86 -30 -13 0 -32 -8 -42 -17 -9 -10
-40 -33 -69 -51 -28 -18 -54 -39 -57 -47 -7 -20 -26 -19 -26 0 0 8 7 15 16 15
9 0 22 17 31 40 13 33 23 42 55 52 21 6 38 16 38 22 0 6 9 17 20 24 12 7 18
17 15 22 -3 4 1 15 9 23 11 10 42 14 128 13 107 -1 113 -2 116 -22z m-6718
-1656 c0 -298 -8 -387 -38 -427 -36 -49 -69 -65 -141 -69 l-68 -4 -11 57 c-7
32 -9 61 -6 66 3 5 18 9 34 9 19 0 35 9 49 26 20 26 21 38 21 325 l0 299 80 0
80 0 0 -282z m890 162 c0 -66 4 -120 8 -120 5 0 19 12 33 26 13 14 36 32 51
40 38 20 133 18 169 -3 52 -31 60 -64 57 -245 l-3 -163 -39 -3 c-22 -2 -50 -1
-63 2 -23 6 -23 8 -23 145 0 125 -2 141 -21 165 -30 39 -79 36 -127 -8 l-37
-34 -5 -134 -5 -133 -39 -3 c-22 -2 -50 -1 -63 2 l-23 6 0 290 0 290 65 0 65
0 0 -120z m1526 -55 c35 -93 65 -174 67 -179 2 -5 39 72 82 172 l79 182 56 0
57 0 73 -175 c40 -96 76 -175 80 -175 4 0 38 79 75 175 l68 175 78 0 c59 0 77
-3 74 -13 -3 -7 -59 -138 -124 -292 l-119 -280 -49 0 -48 0 -80 182 c-44 101
-82 183 -85 183 -3 0 -43 -84 -89 -186 l-84 -185 -46 3 -45 3 -116 275 c-64
151 -119 283 -123 293 -6 16 0 18 74 15 l82 -3 63 -170z m2292 -117 l2 -288
-23 -5 c-13 -4 -41 -5 -63 -3 -32 2 -40 7 -42 26 -4 28 -13 28 -58 -3 -49 -34
-123 -34 -185 -2 -137 73 -129 319 13 393 41 21 146 18 185 -5 17 -11 34 -17
37 -14 3 4 6 49 6 100 l0 94 63 -3 62 -3 3 -287z m-4217 121 c92 -31 140 -102
140 -205 0 -80 -27 -135 -89 -179 -39 -27 -53 -30 -133 -34 -177 -6 -266 72
-257 229 7 130 89 200 234 200 39 0 86 -5 105 -11z m987 -31 c4 -45 10 -47 43
-12 37 40 73 54 138 54 49 0 65 -4 90 -26 44 -37 53 -79 49 -249 l-3 -150 -60
0 -60 0 -5 148 c-5 141 -6 150 -29 168 -36 30 -75 24 -121 -17 l-39 -36 -3
-131 -3 -132 -60 0 -60 0 -3 200 c-1 110 0 205 3 213 3 9 21 12 62 10 l58 -3
3 -37z m2139 16 c46 -34 53 -59 53 -189 0 -125 6 -145 42 -145 12 0 18 -8 18
-23 0 -31 -36 -47 -105 -47 -47 0 -57 3 -71 25 l-16 25 -32 -23 c-43 -31 -161
-37 -194 -10 -47 38 -45 127 5 160 14 10 69 34 122 53 106 39 119 55 81 103
-29 36 -93 37 -168 2 -30 -14 -56 -25 -58 -25 -10 0 -3 69 9 78 56 46 260 56
314 16z m353 -58 l5 -80 24 57 c29 71 72 107 128 107 21 0 47 -6 57 -13 16
-12 16 -16 -5 -70 -21 -55 -24 -58 -48 -51 -66 19 -119 -7 -147 -73 -9 -19
-14 -68 -14 -123 l0 -90 -65 0 -65 0 0 203 c0 112 3 207 7 211 4 4 32 6 63 4
l55 -3 5 -79z m-2952 -694 c9 -7 12 -49 10 -178 l-3 -169 -45 0 -45 0 -3 165
c-1 90 0 170 2 177 6 14 64 17 84 5z m762 -61 c0 -28 3 -30 42 -33 33 -2 44
-8 46 -22 5 -24 -14 -36 -55 -36 l-33 0 0 -59 c0 -70 14 -86 65 -78 32 5 35 4
35 -19 0 -48 -112 -63 -155 -19 -22 21 -25 33 -25 98 0 69 -2 75 -22 81 -21 5
-19 9 32 61 30 30 58 55 62 55 4 0 8 -13 8 -29z m1070 -1 c0 -29 2 -30 46 -30
44 0 45 -1 42 -27 -3 -25 -7 -28 -45 -31 l-43 -3 0 -53 c0 -70 16 -91 64 -83
33 5 36 4 36 -19 0 -17 -8 -27 -26 -34 -29 -11 -84 -13 -109 -4 -28 11 -45 60
-45 127 0 59 -2 65 -22 71 -21 5 -19 9 32 61 30 30 58 55 62 55 4 0 8 -13 8
-30z m-1521 -45 c38 -19 41 -30 41 -146 l0 -99 -34 0 c-42 0 -46 10 -46 104 0
43 -5 77 -12 84 -19 19 -47 14 -73 -13 -22 -21 -25 -33 -25 -100 l0 -76 -37 3
-38 3 -3 123 -3 122 41 0 c33 0 40 -3 40 -20 0 -24 13 -26 31 -4 28 34 75 42
118 19z m261 2 c14 -7 26 -20 28 -29 3 -13 -6 -16 -50 -14 -41 1 -53 -3 -56
-15 -2 -10 9 -21 29 -29 50 -21 89 -59 89 -86 0 -14 -11 -36 -25 -49 -42 -43
-175 -31 -175 16 0 22 -1 22 65 4 11 -3 29 1 40 10 l20 15 -20 16 c-11 8 -35
25 -54 37 -44 28 -55 48 -47 80 12 49 99 73 156 44z m411 -32 c3 -22 7 -35 8
-28 0 6 13 25 27 42 18 22 35 31 55 31 35 0 45 -18 32 -57 -8 -24 -14 -27 -44
-25 -52 5 -73 -24 -79 -107 l-5 -66 -35 0 -35 0 -3 128 -3 128 38 -3 c36 -3
38 -5 44 -43z m677 39 c16 -5 22 -14 22 -35 0 -28 -1 -28 -43 -23 -55 8 -90
-18 -90 -66 0 -48 33 -72 92 -68 39 2 46 0 49 -16 6 -29 -25 -46 -80 -46 -60
0 -103 21 -128 63 -55 89 11 196 120 196 19 1 45 -2 58 -5z m512 -7 c83 -29
106 -145 42 -210 -26 -26 -40 -31 -93 -35 -75 -6 -120 14 -143 63 -59 123 55
230 194 182z m210 -22 c0 -19 5 -35 10 -35 6 0 10 5 10 10 0 23 50 60 79 60
39 0 45 -12 27 -54 -11 -26 -19 -34 -30 -30 -26 10 -65 -5 -77 -29 -7 -12 -15
-49 -18 -82 l-6 -60 -35 0 -35 0 -3 114 c-1 63 0 121 2 128 3 7 21 13 41 13
33 0 35 -2 35 -35z m-1160 -54 c0 -99 5 -111 41 -111 50 0 69 33 69 117 l0 73
40 0 41 0 -3 -122 -3 -123 -37 -3 c-33 -3 -38 0 -38 17 0 26 -5 26 -37 1 -39
-31 -106 -27 -132 6 -18 23 -21 41 -21 125 l0 99 40 0 40 0 0 -79z m1565 -115
c99 -8 257 -20 350 -26 198 -14 213 -17 167 -37 -22 -9 -38 -10 -45 -4 -7 5
-55 11 -107 14 -113 6 -175 11 -335 27 -66 7 -158 15 -204 19 -59 4 -86 10
-89 20 -4 11 4 13 39 7 24 -4 125 -13 224 -20z m-529 -92 c8 3 14 -1 14 -8 0
-19 -25 -27 -39 -13 -9 9 -16 8 -31 -1 -11 -6 -29 -12 -41 -12 -12 0 -19 -5
-17 -12 3 -8 28 -15 60 -18 55 -5 96 -26 81 -41 -5 -5 -47 -4 -94 3 -82 11
-87 13 -104 44 -11 21 -22 31 -32 27 -11 -4 -14 0 -11 12 3 16 12 19 58 16 30
-1 73 4 95 12 35 12 40 12 43 0 2 -8 10 -12 18 -9z m-259 -282 c27 -17 42
-153 27 -232 -6 -27 -10 -31 -28 -25 -12 4 -40 10 -62 14 -23 4 -49 15 -58 23
-9 9 -20 18 -26 20 -5 1 -13 49 -16 104 l-7 102 80 0 c44 0 84 -3 90 -6z
m-219 -329 c5 -10 7 -24 5 -30 -3 -7 2 -13 11 -13 9 0 16 7 16 15 0 8 5 15 11
15 6 0 8 -9 4 -20 -4 -14 -2 -20 8 -20 9 0 17 -5 19 -11 4 -11 27 -17 71 -18
17 -1 27 -7 27 -16 0 -7 7 -18 15 -23 9 -5 13 -15 10 -24 -9 -22 -94 -31 -270
-26 -125 3 -140 5 -143 21 -2 10 8 29 22 42 32 30 33 57 4 70 -13 6 -24 18
-26 27 -3 15 9 18 95 21 54 1 101 4 105 5 4 1 11 -6 16 -15z m1297 -69 c27
-17 50 -73 36 -87 -5 -5 -36 -11 -70 -14 -52 -5 -61 -3 -61 11 0 9 -6 16 -14
16 -20 0 -24 51 -6 72 19 21 84 23 115 2z"/>
<path d="M6652 1905 c-33 -24 -52 -68 -52 -120 0 -52 12 -82 44 -107 30 -25
97 -23 130 3 25 19 26 25 26 109 0 84 -2 91 -25 106 -37 24 -96 28 -123 9z"/>
<path d="M2543 1886 c-26 -23 -28 -29 -28 -100 0 -68 3 -78 26 -102 30 -30 83
-36 123 -15 59 32 70 151 20 211 -34 40 -98 42 -141 6z"/>
<path d="M5687 1764 c-26 -14 -53 -36 -59 -49 -15 -33 -2 -74 28 -87 22 -10
32 -9 62 7 36 20 37 21 40 88 3 77 1 79 -71 41z"/>
<path d="M5079 7093 c-50 -62 -82 -120 -86 -157 -5 -38 -3 -43 22 -54 23 -11
34 -9 85 15 65 31 78 47 56 72 -10 10 -15 35 -14 67 1 28 -2 56 -6 62 -11 18
-41 15 -57 -5z"/>
<path d="M4440 6720 c-31 -19 8 -25 200 -30 254 -6 238 5 232 -169 l-5 -128
24 -6 c13 -4 53 -7 89 -7 126 -1 120 -35 -9 -50 -45 -5 -86 -12 -91 -15 -4 -3
-8 -105 -7 -228 0 -122 -3 -283 -7 -357 -7 -115 -6 -138 7 -148 11 -9 76 -12
253 -10 l239 3 -3 32 c-2 17 4 55 12 82 11 38 13 65 6 104 -5 30 -5 83 -1 118
8 62 5 129 -6 159 -3 8 -5 39 -3 67 1 38 -5 66 -21 97 -18 38 -21 56 -17 121
l5 78 -59 -7 c-115 -12 -208 23 -309 114 -61 54 -67 63 -73 109 -10 79 -16 81
-246 81 -107 0 -202 -4 -210 -10z"/>
<path d="M6645 5995 c-70 -25 -83 -75 -19 -75 19 0 60 -9 91 -19 65 -22 138
-38 258 -57 11 -2 72 -12 135 -23 323 -56 575 -59 739 -9 70 21 92 21 98 -1 3
-12 10 -21 17 -21 6 0 5 -4 -3 -9 -12 -8 -11 -12 3 -27 15 -14 19 -15 27 -3
12 19 11 36 -2 44 -7 5 -6 12 4 23 8 10 18 35 22 58 6 38 4 43 -25 68 -18 14
-35 24 -39 22 -4 -3 -52 2 -106 10 -55 7 -164 14 -242 14 -103 0 -142 3 -145
12 -4 10 -18 10 -69 -2 -72 -15 -72 -15 -222 -5 -72 5 -146 4 -220 -5 -98 -11
-117 -10 -157 4 -55 19 -93 20 -145 1z"/>
<path d="M12007 5530 c-21 -25 -22 -39 -2 -46 8 -4 15 -11 15 -18 1 -27 22
-35 125 -46 77 -9 114 -17 123 -28 8 -11 12 -12 12 -3 0 8 12 12 33 10 17 -1
49 -1 70 0 l37 1 0 64 0 64 -44 11 c-53 13 -126 14 -179 2 -20 -5 -39 -5 -42
-1 -2 4 -33 8 -68 9 -51 1 -65 -2 -80 -19z"/>
<path d="M11565 5361 c-3 -7 0 -20 6 -27 8 -10 8 -14 1 -14 -6 0 -9 -7 -6 -15
5 -13 49 -23 121 -28 18 -1 33 -6 33 -10 0 -5 3 -6 8 -4 4 2 41 1 82 -4 41 -5
78 -5 82 -1 4 4 2 22 -4 40 -10 27 -10 34 1 41 9 6 -1 13 -35 21 -58 15 -133
15 -148 0 -13 -13 -56 -13 -56 0 0 5 -7 7 -15 4 -8 -4 -15 -2 -15 2 0 15 -49
10 -55 -5z"/>
<path d="M12015 5373 c-42 -9 -65 -27 -65 -49 0 -13 -8 -27 -17 -33 -15 -8
-15 -11 -3 -26 26 -31 81 -47 141 -40 41 4 76 0 132 -15 70 -19 78 -20 112 -6
20 9 39 25 42 36 3 11 9 20 13 20 5 0 6 -8 3 -18 -2 -10 3 -24 11 -31 14 -12
16 -10 16 8 0 11 5 21 10 21 6 0 10 20 10 45 0 48 -7 53 -53 36 -20 -8 -27 -6
-31 5 -3 8 -22 22 -41 30 -31 13 -43 12 -104 -1 -67 -16 -71 -15 -112 4 -24
12 -43 20 -43 20 -1 -1 -10 -3 -21 -6z"/>
<path d="M10656 5291 c-4 -6 -4 -16 -1 -22 8 -13 -23 -38 -47 -39 -32 0 -19
-17 14 -18 17 0 34 -5 37 -11 4 -6 34 -12 67 -15 34 -3 73 -10 88 -16 62 -23
100 -3 90 48 -5 26 -14 33 -63 50 -70 25 -176 38 -185 23z"/>
<path d="M11333 5228 c-11 -13 -24 -33 -28 -45 -3 -13 -11 -23 -16 -23 -19 0
-8 -16 21 -28 17 -8 30 -20 30 -28 0 -8 10 -18 22 -23 22 -8 22 -8 3 -14 -11
-3 -82 -8 -159 -11 -117 -5 -141 -8 -152 -23 -12 -16 -13 -16 -14 -2 0 18 -38
29 -102 29 -25 0 -41 5 -44 15 -5 12 -25 15 -90 15 -64 0 -85 3 -92 15 -5 9
-29 18 -60 22 -71 8 -102 -12 -102 -67 0 -24 5 -40 12 -40 6 0 8 -3 5 -7 -8
-8 -160 -15 -279 -14 -55 1 -88 -2 -88 -9 0 -5 -18 -10 -41 -10 -36 0 -40 -2
-34 -20 5 -15 2 -20 -11 -20 -17 0 -17 -1 1 -13 11 -9 15 -19 10 -27 -6 -10
-9 -9 -16 1 -7 11 -9 9 -9 -7 0 -11 -4 -24 -9 -30 -6 -5 -12 -158 -15 -349 -3
-187 -9 -447 -12 -578 l-6 -237 38 -35 c21 -20 61 -49 89 -65 27 -17 77 -48
110 -70 33 -21 67 -42 75 -46 8 -4 35 -21 60 -38 46 -31 106 -66 267 -155 51
-28 95 -56 98 -61 4 -6 22 -17 41 -25 19 -8 59 -34 87 -58 29 -24 59 -46 67
-49 8 -3 40 -26 70 -50 30 -25 63 -49 72 -54 25 -14 155 -132 212 -193 109
-117 203 -222 256 -286 30 -36 65 -78 78 -92 14 -17 22 -39 22 -62 0 -20 12
-67 26 -106 14 -38 29 -86 34 -105 5 -19 17 -60 28 -90 11 -30 28 -82 37 -115
10 -33 26 -75 36 -93 10 -18 22 -52 25 -75 4 -23 12 -53 19 -67 6 -14 17 -52
24 -85 7 -33 17 -68 22 -77 5 -10 9 -27 9 -39 0 -11 5 -30 12 -42 15 -29 39
-149 43 -214 1 -31 9 -58 19 -68 19 -19 20 -27 4 -43 -8 -8 -8 -15 2 -27 11
-13 11 -23 0 -55 -13 -40 -7 -67 10 -40 8 12 14 12 47 -4 21 -11 78 -36 127
-57 49 -21 110 -52 136 -69 26 -16 50 -30 53 -30 4 0 7 873 7 1941 0 1298 -3
1938 -10 1934 -13 -8 -80 16 -80 28 0 10 43 5 73 -8 15 -6 17 1 17 79 0 70 -3
86 -15 86 -8 0 -15 3 -15 6 0 3 7 12 15 20 11 11 15 38 15 98 0 99 -3 102
-122 105 -81 2 -145 -18 -133 -42 4 -7 0 -4 -8 5 -12 15 -16 16 -35 3 -18 -14
-21 -13 -25 2 -4 17 -5 17 -6 1 -1 -21 -37 -25 -44 -5 -3 6 -6 3 -6 -7 -1 -11
-4 -16 -7 -13 -13 13 -44 -14 -44 -38 0 -20 -5 -25 -26 -25 -14 0 -23 -4 -20
-9 10 -16 -68 -23 -117 -10 -48 12 -58 27 -32 49 16 13 21 86 7 106 -17 26
-57 35 -140 34 -115 -2 -198 8 -248 31 -51 24 -56 24 -81 -3z m-773 -1054 c44
-8 117 -28 162 -44 46 -17 93 -30 105 -30 28 0 53 -10 53 -21 0 -13 -44 -11
-77 3 -15 6 -62 15 -103 18 -79 7 -268 54 -285 71 -14 14 15 30 43 24 12 -3
58 -12 102 -21z"/>
<path d="M6514 5215 c-10 -8 -13 -15 -7 -15 23 0 7 -60 -25 -91 -43 -42 -78
-52 -127 -34 -39 14 -41 13 -60 -10 -12 -14 -26 -25 -32 -25 -11 0 -24 -35
-16 -44 3 -3 13 0 23 6 10 7 25 8 36 3 11 -5 21 -9 24 -10 3 -1 12 -4 20 -8 8
-3 35 -10 60 -15 40 -7 50 -5 93 21 33 20 52 26 59 19 14 -14 0 -72 -18 -72
-19 0 -18 -7 6 -32 l20 -21 20 45 c27 62 37 69 97 61 l51 -6 -5 -34 c-4 -24
-1 -39 12 -53 20 -22 50 -26 60 -10 8 13 14 83 7 76 -8 -9 -42 14 -42 28 0 8
7 19 15 26 8 7 15 25 15 41 0 15 5 31 10 34 16 10 12 55 -4 55 -8 0 -18 -4
-21 -10 -15 -25 -95 8 -95 39 0 25 -49 43 -96 36 -30 -4 -49 -3 -53 4 -5 8
-13 6 -27 -4z"/>
<path d="M7262 5190 c-29 -4 -56 -10 -59 -14 -10 -10 -7 -186 4 -197 12 -12
65 -1 57 12 -3 5 6 9 19 9 23 0 24 3 26 67 1 45 7 73 18 85 15 17 12 49 -4 47
-4 -1 -32 -5 -61 -9z"/>
<path d="M1550 5149 c-113 -8 -278 -22 -553 -49 -54 -6 -105 -10 -115 -11 -13
0 -12 -2 5 -9 22 -9 118 -4 508 30 303 25 344 30 351 41 6 10 -16 10 -196 -2z"/>
<path d="M9135 4960 c-3 -6 1 -17 9 -26 9 -8 16 -11 16 -5 0 19 18 12 24 -9 3
-11 8 -28 11 -38 4 -13 -3 -22 -22 -31 -17 -8 -23 -15 -16 -19 7 -4 8 -13 4
-20 -6 -11 -17 8 -56 95 -1 2 -27 -5 -59 -14 -54 -15 -57 -18 -51 -42 9 -35
24 -51 47 -51 10 0 16 -4 13 -10 -3 -5 -1 -10 4 -10 6 0 11 -7 11 -15 0 -8 -4
-15 -9 -15 -5 0 -11 -9 -14 -20 -3 -11 0 -20 6 -20 7 0 6 -4 -3 -9 -8 -6 -18
-7 -22 -5 -4 3 -8 0 -8 -5 0 -12 -39 -15 -64 -5 -11 4 -16 19 -16 50 0 24 -4
44 -10 44 -5 0 -10 -4 -10 -10 0 -5 -7 -10 -15 -10 -8 0 -15 -9 -15 -21 0 -11
-4 -18 -9 -15 -5 3 -20 -5 -34 -18 -25 -24 -27 -24 -99 -10 -40 8 -88 17 -105
20 -25 5 -33 3 -33 -8 0 -8 -9 -14 -20 -14 -10 1 -19 -3 -20 -9 0 -5 6 -10 13
-10 6 0 15 -3 18 -8 3 -4 39 -14 80 -22 41 -9 83 -19 94 -24 11 -5 54 -16 95
-26 86 -19 110 -30 110 -50 0 -33 -92 -30 -200 5 -30 10 -75 18 -100 19 -25 1
-63 6 -85 11 -51 12 -118 13 -111 1 3 -5 -1 -14 -9 -21 -12 -10 -15 -10 -15 2
0 10 -10 13 -37 10 -67 -8 -70 -20 -16 -70 54 -49 77 -63 183 -108 173 -73
347 -158 380 -185 19 -16 51 -37 70 -45 19 -9 42 -22 50 -28 8 -7 53 -27 98
-45 82 -31 300 -131 374 -171 20 -11 49 -20 64 -20 26 0 27 1 20 53 -3 28 -6
127 -6 219 l0 168 -25 5 c-14 3 -35 7 -47 10 -13 2 -32 11 -43 19 -32 23 -4
41 63 41 55 0 57 1 54 25 -2 14 -7 131 -11 260 -4 129 -8 205 -9 169 -2 -63
-3 -66 -24 -62 -13 2 -34 0 -48 -5 -31 -11 -70 4 -70 28 0 9 -5 21 -11 27 -7
7 -5 15 6 27 10 9 12 16 5 16 -7 0 -20 10 -30 23 -20 24 -32 19 -34 -15 -1
-28 -40 -37 -64 -15 -9 8 -28 17 -42 19 -14 1 -23 7 -20 11 9 15 -43 37 -58
25 -11 -9 -11 -13 0 -19 10 -7 9 -9 -4 -9 -11 0 -18 8 -18 19 0 26 -62 43 -75
21z"/>
</g>
</svg>
