<?xml version="1.0" standalone="no"?>
<!DOCTYPE svg PUBLIC "-//W3C//DTD SVG 20010904//EN"
 "http://www.w3.org/TR/2001/REC-SVG-20010904/DTD/svg10.dtd">
<svg version="1.0" xmlns="http://www.w3.org/2000/svg"
 width="1843.000000pt" height="1843.000000pt" viewBox="0 0 1843.000000 1843.000000"
 preserveAspectRatio="xMidYMid meet">
<metadata>
Created by potrace 1.16, written by Peter Selinger 2001-2019
</metadata>
<g transform="translate(0.000000,1843.000000) scale(0.100000,-0.100000)"
fill="#000000" stroke="none">
<path d="M8600 18415 c-1262 -91 -2422 -410 -3549 -974 -1305 -654 -2475
-1659 -3338 -2866 -396 -555 -741 -1171 -993 -1774 -95 -228 -88 -189 -94
-546 -3 -176 -5 -446 -5 -600 2 -568 4 -2141 3 -2495 -1 -201 -1 -439 -2 -530
0 -112 -7 -213 -21 -315 -24 -168 -25 -306 -4 -367 11 -32 14 -96 13 -272 -1
-127 -3 -247 -5 -266 -3 -19 -7 -255 -11 -525 -5 -437 -9 -507 -29 -645 l-23
-155 50 -133 c140 -379 347 -826 558 -1207 309 -557 696 -1108 1124 -1600 215
-246 624 -655 871 -871 1012 -882 2175 -1520 3465 -1902 172 -51 371 -104 375
-100 22 27 60 152 70 232 9 72 -24 186 -65 227 l-28 28 -120 -6 -120 -6 -17
27 c-16 25 -18 46 -12 222 4 107 11 203 17 213 12 24 82 40 200 47 47 3 90 7
95 8 19 6 65 111 75 171 11 69 -4 182 -44 318 -46 158 -34 337 29 437 28 44
107 115 155 140 102 51 126 53 367 40 137 -8 230 -18 240 -25 13 -10 18 -44
25 -185 l9 -174 -25 -24 c-26 -26 -51 -28 -281 -18 -28 1 -31 -3 -47 -51 -29
-88 -30 -164 -1 -333 18 -112 26 -196 27 -300 l1 -145 -32 -49 c-58 -87 -63
-176 -13 -246 32 -44 32 -231 1 -345 -12 -44 -26 -98 -32 -120 -6 -21 -14 -44
-18 -50 -5 -5 -11 -38 -14 -72 -5 -57 -3 -62 17 -66 60 -15 461 -79 601 -96
202 -26 455 -49 610 -56 66 -3 142 -8 168 -11 l49 -5 -32 46 c-53 77 -146 273
-184 388 -56 171 -66 235 -66 432 0 239 11 292 109 500 98 209 136 284 164
324 42 62 175 199 256 265 132 108 403 256 567 312 77 26 81 26 199 15 66 -6
305 -13 530 -17 226 -3 437 -7 470 -9 33 -2 119 -6 190 -9 127 -5 282 -20 553
-53 133 -16 193 -15 392 7 120 13 431 12 509 -1 77 -13 114 -33 195 -106 122
-109 167 -200 168 -339 0 -103 -21 -189 -78 -307 -45 -95 -51 -147 -24 -243
23 -85 63 -178 80 -189 7 -4 45 -16 85 -26 120 -30 157 -53 178 -113 3 -10
365 169 554 275 1278 713 2372 1717 3180 2920 926 1379 1451 2943 1553 4629
13 213 13 817 0 1030 -116 1910 -770 3654 -1935 5155 -385 496 -878 1005
-1385 1428 -509 425 -1127 830 -1721 1128 -1147 574 -2334 895 -3623 979 -214
14 -938 10 -1156 -5z m150 -2142 c14 -3 37 -5 53 -4 29 3 36 -16 15 -37 -20
-20 -6 -22 91 -12 51 6 97 7 103 4 15 -9 -12 -24 -43 -24 -15 0 -32 -7 -39
-15 -10 -12 -5 -13 42 -8 29 3 56 12 60 19 5 8 23 11 50 8 40 -5 95 3 211 28
35 7 52 7 59 0 13 -13 20 -10 -107 -41 -49 -13 -99 -31 -111 -42 -12 -11 -35
-19 -55 -19 -19 0 -39 -4 -44 -9 -6 -5 -26 -12 -45 -15 -124 -19 -220 -49
-220 -67 0 -5 15 -9 33 -10 29 -1 27 -3 -21 -17 -30 -10 -50 -20 -46 -24 10
-11 58 -10 89 2 18 7 32 6 47 -3 19 -11 68 -55 68 -61 0 -1 -24 1 -52 4 -29 4
-59 5 -65 3 -19 -7 -16 -23 4 -23 24 0 10 -10 -18 -14 -13 -1 -32 -6 -41 -10
-35 -16 -5 -26 77 -26 73 0 87 3 104 21 17 19 24 20 52 10 41 -14 42 -14 36 3
-3 8 1 17 9 20 18 7 64 8 64 2 0 -17 -15 -36 -28 -36 -13 0 -12 -3 3 -20 15
-17 26 -19 71 -14 36 5 54 3 54 -4 0 -6 -10 -12 -22 -14 -35 -5 -27 -20 16
-32 l38 -11 -20 -25 -20 -25 36 -31 36 -31 -42 -7 c-32 -5 -42 -11 -42 -25 0
-19 -25 -35 -40 -26 -4 3 -13 -2 -20 -10 -9 -11 -17 -12 -32 -4 -17 9 -19 8
-16 -8 2 -10 11 -17 21 -15 10 2 17 -3 17 -12 0 -12 -5 -13 -31 -4 -18 6 -76
9 -141 6 -96 -4 -112 -7 -127 -25 -9 -11 -29 -27 -45 -36 l-30 -15 49 -10 c27
-6 53 -8 58 -5 11 7 306 -26 335 -37 12 -6 22 -6 22 -1 0 5 10 7 21 4 21 -6
20 -7 -10 -32 -25 -21 -29 -29 -20 -38 7 -7 10 -15 6 -19 -8 -9 -49 -9 -69 0
-13 6 -20 0 -32 -28 -9 -22 -22 -36 -32 -36 -13 0 -15 -3 -7 -11 13 -13 96 -2
88 11 -3 5 -1 11 5 15 5 3 10 -1 10 -9 0 -9 5 -16 10 -16 6 0 10 4 10 9 0 16
44 17 58 1 11 -13 11 -13 7 0 -7 21 76 49 138 45 34 -1 47 2 47 11 0 8 12 14
28 15 34 2 34 2 55 -6 10 -5 17 -2 17 5 0 22 75 80 102 80 29 -1 39 -16 28
-44 -7 -21 -16 -27 -29 -23 -18 4 -51 -23 -51 -43 0 -5 -17 -12 -37 -15 -69
-11 -83 -15 -83 -25 0 -6 11 -10 24 -10 13 0 29 -7 36 -15 11 -13 10 -18 -6
-30 -10 -8 -27 -15 -36 -15 -10 0 -17 -6 -15 -12 1 -8 -15 -17 -39 -22 -31 -7
-44 -16 -53 -38 -16 -37 -6 -49 43 -52 37 -3 63 -16 31 -16 -10 0 -16 -3 -12
-6 3 -4 46 -8 95 -9 70 -3 96 -8 126 -26 40 -23 116 -42 116 -28 0 12 72 -20
98 -44 12 -11 22 -26 22 -34 0 -7 11 -15 24 -19 15 -3 26 -14 28 -27 2 -12 13
-23 25 -27 13 -3 31 -12 41 -21 23 -19 48 -29 90 -35 18 -2 42 -9 52 -14 10
-6 44 -10 75 -10 45 0 60 -4 79 -23 26 -26 85 -34 98 -15 5 9 11 8 23 -2 14
-11 20 -11 37 -1 23 14 20 17 43 -32 24 -52 41 -56 76 -17 23 25 35 31 55 26
21 -6 25 -3 30 24 4 17 10 33 15 35 10 7 121 -96 138 -129 8 -14 18 -23 23
-20 15 10 89 -7 95 -22 7 -20 -38 -73 -64 -73 -12 -1 -25 -6 -28 -12 -5 -7 7
-10 36 -7 43 3 44 2 49 -31 5 -33 6 -34 23 -17 20 21 21 28 5 44 -19 19 0 27
21 8 22 -20 78 -18 94 4 27 35 131 19 167 -27 13 -17 31 -26 53 -28 53 -3 117
-37 111 -57 -4 -13 0 -18 16 -18 11 0 24 -8 27 -17 9 -26 43 -53 72 -59 14 -3
36 -11 49 -17 18 -8 28 -8 43 1 20 12 40 6 80 -26 9 -7 34 -10 62 -8 26 3 47
1 47 -5 0 -5 11 -15 25 -21 27 -12 36 -52 10 -42 -19 8 -19 0 0 -54 28 -80 55
-124 72 -118 18 7 43 -10 43 -29 0 -7 -10 -15 -21 -18 -21 -6 -22 -10 -16 -76
5 -65 19 -130 37 -176 45 -114 49 -140 20 -125 -17 9 -20 8 -20 -10 0 -29 40
-80 62 -80 10 0 18 -4 18 -10 0 -5 -7 -10 -15 -10 -18 0 -65 43 -65 60 0 5 -5
10 -11 10 -8 0 -10 -17 -7 -50 3 -27 3 -52 0 -55 -3 -3 -15 12 -27 32 -18 32
-25 37 -50 35 -23 -3 -35 3 -52 25 l-23 28 -6 -23 c-10 -37 -50 -46 -85 -21
-34 24 -38 15 -7 -18 18 -19 20 -28 11 -55 -7 -26 -14 -32 -33 -30 -13 1 -30
-6 -40 -15 -13 -15 -14 -24 -6 -58 11 -39 16 -49 44 -80 6 -7 12 -21 12 -30 0
-16 17 -55 29 -65 13 -11 61 -117 66 -147 6 -30 35 -55 35 -30 0 6 12 -5 26
-25 31 -44 44 -41 44 10 0 53 21 26 22 -29 1 -24 6 -50 11 -56 10 -14 2 -63
-11 -63 -4 0 -56 43 -116 95 -60 52 -117 95 -126 95 -9 0 -25 9 -36 21 -29 32
-63 46 -129 54 -33 4 -69 9 -80 11 -19 3 -44 27 -90 86 -21 26 -97 68 -124 68
-11 0 -9 -6 9 -20 14 -11 30 -20 36 -20 6 0 11 -6 11 -13 0 -10 -13 -7 -46 11
-25 13 -50 28 -55 32 -5 5 -21 6 -36 3 -16 -3 -70 4 -121 15 -52 12 -123 24
-159 28 -36 3 -73 11 -83 16 -20 10 -342 27 -544 28 -470 3 -802 -48 -960
-148 -24 -15 -43 -30 -43 -34 0 -5 -9 -8 -21 -8 -11 0 -34 -14 -51 -31 l-31
-30 -106 5 c-58 3 -107 5 -108 6 -1 0 0 7 3 15 5 13 -11 15 -113 15 l-119 0
-93 45 c-113 55 -205 79 -383 99 -160 19 -590 21 -793 5 -71 -6 -159 -12 -195
-15 -88 -5 -433 -52 -484 -65 -23 -6 -53 -13 -68 -16 -15 -3 -33 -11 -39 -19
-6 -8 -20 -14 -30 -14 -10 0 -26 -12 -36 -26 -51 -73 -71 -89 -137 -109 -38
-11 -66 -26 -66 -33 0 -8 7 -11 18 -8 9 3 53 7 97 8 75 3 80 1 77 -17 -2 -11
-4 -48 -5 -82 l-2 -61 -35 -6 c-19 -3 -58 -6 -86 -6 -44 0 -52 -3 -62 -25 -9
-19 -8 -34 4 -67 23 -67 44 -166 50 -237 6 -79 11 -113 26 -163 8 -28 8 -41
-1 -51 -15 -19 1 -61 34 -95 26 -26 28 -24 38 28 9 43 34 104 45 108 6 2 13
-2 17 -7 3 -6 15 -11 26 -11 11 0 17 5 14 10 -3 6 -1 10 4 10 17 0 13 43 -10
98 -18 43 -24 50 -39 42 -13 -7 -27 -2 -56 20 -32 23 -44 41 -62 97 -26 82
-27 93 -7 93 32 0 65 31 63 59 -2 18 2 26 12 26 11 0 16 -15 20 -54 3 -31 10
-56 18 -59 9 -3 12 22 12 100 0 149 16 265 42 318 42 82 179 131 463 164 371
44 454 49 745 43 437 -9 669 -46 737 -119 45 -48 55 -101 43 -228 -11 -111
-28 -207 -50 -280 -13 -45 -13 -87 1 -95 5 -4 23 -2 39 5 22 9 30 20 35 50 11
64 17 177 17 318 0 125 1 133 21 144 34 19 518 18 541 -1 15 -12 17 -30 14
-112 -2 -53 0 -95 5 -92 4 2 7 0 7 -6 0 -5 3 -16 6 -25 4 -11 1 -16 -11 -16
-13 0 -15 -6 -10 -32 8 -39 25 -61 25 -33 0 30 17 4 24 -37 4 -21 2 -39 -4
-43 -34 -21 28 -145 73 -145 3 0 7 14 11 32 4 22 -1 50 -19 94 -54 136 -102
392 -76 408 5 3 12 22 15 41 19 101 132 148 446 189 357 46 731 45 1075 -4
253 -35 302 -43 358 -60 105 -30 163 -71 186 -132 10 -26 15 -28 63 -28 29 0
58 -4 64 -8 6 -4 13 -36 16 -72 4 -65 4 -66 -31 -89 -21 -13 -44 -21 -58 -18
-23 4 -23 3 -23 -88 0 -71 3 -94 14 -98 25 -10 35 17 32 90 -2 46 1 73 8 76
26 9 90 -4 110 -21 11 -11 32 -20 46 -20 29 0 137 -60 184 -103 29 -26 29 -28
9 -29 -12 0 -25 5 -28 10 -3 6 -10 10 -15 10 -12 0 -1 -29 21 -58 10 -13 23
-39 29 -58 10 -28 9 -37 -4 -50 -23 -22 -25 -96 -4 -121 7 -9 7 -13 -1 -13 -6
0 -11 -9 -11 -19 0 -11 -5 -21 -10 -23 -6 -2 1 -15 15 -30 14 -15 25 -33 25
-40 -1 -8 -6 -6 -15 6 -12 16 -17 17 -30 6 -17 -14 -20 -39 -5 -41 6 -1 16 -2
23 -3 15 -1 23 -46 8 -46 -6 0 -11 6 -12 13 -1 16 -27 -53 -28 -74 -1 -9 8
-19 19 -22 25 -6 27 18 3 32 -15 8 -11 10 19 11 34 0 39 -4 53 -37 9 -20 16
-47 17 -60 2 -16 10 -24 30 -28 18 -4 28 -13 28 -25 0 -10 5 -22 10 -25 18
-11 10 -27 -11 -22 -13 3 -19 1 -16 -6 2 -7 13 -11 24 -9 26 4 73 -44 73 -75
0 -13 -4 -22 -9 -18 -6 3 -14 -2 -19 -10 -8 -15 -10 -15 -21 -1 -20 24 -39 20
-34 -8 3 -13 16 -29 30 -35 24 -11 29 -49 5 -44 -6 2 -9 -4 -5 -12 4 -11 9
-13 18 -5 21 17 28 -19 9 -47 -9 -14 -13 -35 -10 -46 3 -12 0 -39 -6 -60 -9
-30 -9 -43 1 -59 13 -21 8 -41 -20 -88 -5 -8 -12 -23 -16 -33 -3 -11 -12 -16
-22 -12 -14 4 -17 -3 -18 -37 -1 -24 5 -53 13 -65 9 -15 11 -23 3 -23 -6 0 -9
-9 -6 -20 3 -11 0 -20 -5 -20 -7 0 -9 -19 -5 -53 6 -44 4 -54 -12 -64 -11 -7
-23 -8 -32 -2 -23 14 -30 10 -19 -10 11 -22 10 -140 -2 -147 -4 -3 -8 1 -8 9
0 18 -17 32 -50 42 l-25 7 28 -26 c32 -32 36 -52 7 -36 -19 10 -20 9 -14 -16
9 -33 -15 -29 -33 6 -26 52 -65 47 -55 -7 4 -21 2 -25 -11 -20 -11 4 -17 -2
-22 -21 -5 -21 -8 -23 -16 -11 -7 11 -9 8 -8 -11 1 -14 1 -38 1 -54 -2 -23 -5
-26 -15 -17 -8 6 -16 8 -19 5 -3 -3 -15 7 -27 22 -17 22 -22 24 -27 10 -3 -9
-4 -25 -1 -36 3 -10 2 -20 -2 -22 -4 -2 -4 -36 -1 -76 3 -41 2 -76 -2 -78 -4
-3 -17 0 -29 6 -29 16 -33 8 -15 -35 18 -42 20 -55 8 -55 -4 0 -13 14 -19 31
-7 19 -16 28 -23 24 -16 -10 -10 -75 12 -113 18 -34 24 -72 10 -72 -4 0 -18 7
-30 16 -12 8 -26 12 -32 9 -13 -8 -1 -92 21 -142 19 -42 24 -63 14 -63 -6 0
-39 27 -67 53 -11 10 -22 16 -25 14 -8 -9 7 -47 19 -47 27 0 77 -79 95 -148 5
-22 3 -24 -16 -19 -16 4 -22 0 -26 -16 -2 -12 -6 -31 -8 -42 -3 -13 -5 -9 -6
10 -1 28 -19 59 -61 105 -26 29 -60 79 -60 89 0 6 7 8 15 5 8 -4 15 -12 15
-20 0 -8 4 -14 9 -14 5 0 8 25 5 55 -2 30 0 55 5 55 5 0 1 16 -7 35 -10 21
-23 35 -32 33 -8 -1 -21 1 -27 5 -10 6 -13 -4 -13 -42 0 -39 4 -51 15 -51 17
0 18 -4 9 -37 -8 -29 -24 -30 -24 -2 0 11 -13 34 -30 51 -16 16 -30 36 -30 45
0 21 -90 124 -102 117 -5 -4 -4 -13 4 -22 24 -29 48 -91 42 -107 -4 -8 -12
-15 -20 -15 -13 0 -18 -12 -15 -32 2 -14 -16 -8 -43 13 l-26 20 6 -29 c4 -20
1 -34 -11 -46 -13 -13 -16 -26 -11 -55 5 -33 3 -39 -13 -44 -14 -3 -18 -11
-14 -26 3 -12 1 -21 -6 -21 -6 0 -11 7 -11 16 0 13 -2 14 -21 0 -12 -8 -29
-12 -38 -9 -13 5 -14 3 -3 -8 20 -22 15 -56 -10 -63 -18 -4 -20 -8 -10 -18 20
-20 14 -28 -15 -18 -27 10 -27 9 6 -21 31 -29 35 -30 47 -15 17 24 26 5 29
-60 2 -46 0 -54 -17 -60 -25 -7 -49 18 -79 80 -22 48 -32 58 -27 29 1 -10 -1
-24 -5 -30 -16 -26 45 -93 84 -93 11 0 19 -7 19 -15 0 -13 -7 -15 -37 -9 l-38
7 23 -25 c19 -21 30 -48 18 -48 -13 0 -65 60 -56 65 13 8 13 25 -1 25 -15 0
-39 -26 -39 -44 0 -8 20 -29 45 -47 52 -38 57 -51 15 -42 -29 5 -30 4 -30 -31
0 -20 -4 -36 -10 -36 -5 0 -10 -13 -10 -30 0 -29 -9 -38 -24 -23 -12 12 -58
15 -51 3 3 -5 12 -10 20 -10 17 0 75 -48 75 -62 0 -7 -14 -8 -35 -5 -19 3 -35
2 -35 -4 0 -9 3 -10 33 -13 6 0 13 -15 15 -33 4 -38 -28 -63 -54 -42 -11 9
-14 8 -14 -4 0 -9 5 -19 10 -22 6 -3 10 -14 10 -23 -1 -14 -4 -13 -19 6 -27
32 -41 27 -41 -14 0 -21 -4 -33 -10 -29 -6 4 -8 11 -5 16 4 5 0 9 -8 9 -24 0
-28 -62 -6 -78 12 -8 19 -25 19 -43 0 -17 5 -40 11 -52 9 -20 9 -20 -4 -4 -21
25 -39 22 -31 -7 10 -42 -4 -48 -42 -20 -29 23 -35 24 -40 10 -9 -22 3 -49 19
-43 17 6 45 -17 84 -68 26 -34 29 -42 16 -53 -10 -10 -17 -11 -27 -3 -23 19
-27 -58 -6 -89 12 -16 16 -36 13 -58 l-5 -33 -15 28 c-8 15 -17 42 -21 60 l-7
32 -24 -18 c-22 -17 -23 -21 -12 -49 17 -41 0 -138 -22 -125 -7 3 -3 -3 7 -15
19 -22 19 -22 0 -22 -11 0 -25 5 -31 11 -16 16 -34 2 -26 -19 6 -14 4 -15 -8
-5 -8 6 -21 28 -28 49 -11 29 -11 38 0 44 15 10 -37 59 -64 60 -15 0 -16 -3
-7 -21 7 -11 9 -24 5 -27 -9 -9 -45 36 -45 56 0 8 -7 24 -17 34 -21 24 -3 23
42 -2 19 -11 35 -16 35 -11 0 5 -4 11 -8 13 -8 3 -55 80 -81 131 -14 28 -26
34 -35 18 -3 -5 1 -15 10 -22 25 -21 36 -57 23 -82 l-12 -21 -17 22 c-24 30
-31 28 -28 -8 1 -18 7 -29 14 -26 12 5 34 -12 34 -27 0 -5 -7 -7 -15 -3 -11 4
-15 -2 -15 -22 -1 -26 -1 -26 -15 -8 -8 11 -15 31 -15 44 0 13 -10 32 -22 43
-30 24 -41 24 -33 -2 5 -15 4 -19 -4 -15 -6 4 -11 18 -11 32 0 15 -6 24 -15
24 -16 0 -18 -12 -9 -47 4 -13 12 -23 18 -23 7 0 17 -18 23 -40 10 -38 -1 -58
-13 -25 -10 24 -34 18 -34 -9 0 -27 14 -40 50 -50 30 -7 99 -86 76 -86 -8 0
-32 16 -53 36 -30 29 -90 64 -109 64 -8 0 3 -39 15 -54 17 -20 2 -21 -35 -1
-41 21 -60 2 -32 -30 12 -14 32 -44 46 -67 23 -39 23 -41 3 -20 -12 12 -26 22
-30 22 -5 0 -14 13 -19 29 -10 29 -52 50 -52 26 0 -8 -7 -18 -15 -22 -13 -8
-11 -14 10 -43 17 -23 22 -37 15 -44 -7 -7 -15 -3 -26 13 -9 12 -22 20 -30 17
-7 -3 -18 2 -23 12 -5 9 -13 13 -18 9 -4 -5 0 -14 10 -21 9 -7 17 -18 17 -24
0 -6 25 -37 55 -68 30 -32 55 -61 55 -66 0 -5 7 -20 16 -33 11 -16 12 -25 5
-25 -7 0 -20 15 -29 32 -17 34 -117 138 -132 138 -13 0 -24 -71 -22 -135 2
-50 1 -57 -9 -40 -7 10 -13 47 -13 81 -1 34 -4 57 -8 51 -5 -8 -12 -6 -22 8
-11 15 -18 17 -26 8 -12 -11 -2 -60 22 -106 6 -12 4 -25 -7 -40 -8 -12 -15
-17 -15 -12 0 21 -20 -21 -20 -42 0 -28 -20 -30 -27 -3 -3 11 -9 20 -14 20 -5
0 -9 -9 -9 -20 0 -11 -4 -20 -10 -20 -15 0 -8 -53 9 -66 12 -10 9 -13 -17 -19
-18 -3 -30 -10 -28 -14 3 -4 1 -13 -5 -21 -10 -17 -12 -8 -9 46 2 35 -14 53
-24 28 -3 -8 -10 -12 -16 -9 -5 3 -10 -3 -10 -14 0 -23 -16 -36 -25 -21 -3 5
-14 10 -25 10 -14 0 -19 -9 -22 -42 -2 -24 -1 -44 4 -46 4 -2 8 -11 8 -20 0
-12 -3 -13 -12 -4 -18 18 -28 15 -28 -8 0 -13 -5 -18 -15 -14 -9 4 -15 0 -15
-7 -1 -8 -7 -3 -15 11 -14 24 -14 24 -15 3 0 -12 5 -25 10 -28 13 -8 13 -45 1
-45 -5 0 -15 16 -21 35 -11 35 -40 49 -40 20 0 -17 -27 -19 -64 -5 -23 8 -28
5 -53 -30 -30 -42 -43 -50 -43 -25 0 8 -4 15 -10 15 -5 0 -10 -12 -10 -26 0
-19 -4 -25 -15 -20 -11 4 -15 -2 -15 -24 0 -17 -5 -30 -11 -30 -6 0 -9 -12 -7
-27 4 -34 -12 -39 -42 -13 -13 11 -27 20 -31 20 -4 0 -20 25 -35 54 -15 30
-32 52 -36 49 -5 -3 -17 2 -26 10 -20 17 -64 32 -60 20 2 -5 -7 -21 -19 -37
-16 -20 -23 -24 -23 -12 0 9 6 16 13 16 8 0 8 3 -2 9 -8 5 -19 8 -25 6 -6 -2
-25 -6 -43 -9 -27 -4 -32 -2 -36 17 -3 13 -5 8 -6 -15 -1 -44 -16 -57 -31 -27
-11 19 -13 20 -30 4 -14 -13 -19 -13 -23 -3 -3 10 -9 8 -25 -6 -21 -18 -21
-18 -33 8 -17 37 -33 32 -66 -19 -26 -43 -43 -56 -43 -36 0 5 -3 17 -7 27 -4
11 -3 15 5 11 6 -4 17 6 25 23 21 40 5 47 -26 11 -14 -17 -28 -27 -31 -24 -3
4 -7 -1 -7 -10 -2 -19 -3 -25 -12 -49 -4 -10 -9 -25 -12 -34 -3 -11 -12 -14
-25 -11 -17 4 -19 1 -14 -21 l5 -27 -15 25 c-20 33 -22 67 -2 51 10 -9 15 -8
19 3 8 20 -3 27 -25 15 -26 -14 -38 -3 -38 36 0 19 -5 46 -10 60 -11 29 -40
63 -40 46 0 -5 5 -13 10 -16 6 -3 10 -15 10 -26 0 -26 -27 -79 -41 -79 -5 0
-3 13 6 29 18 35 1 56 -21 26 -10 -13 -21 -16 -45 -11 -30 6 -31 5 -26 -21 3
-16 9 -37 12 -48 6 -18 4 -17 -14 4 -29 32 -30 106 -1 114 24 6 27 48 5 67
-13 10 -15 9 -15 -10 0 -14 -8 -24 -20 -27 -11 -3 -23 -17 -26 -32 -10 -45
-14 -48 -12 -9 2 20 -1 40 -5 45 -11 10 -46 -36 -47 -62 -1 -20 -1 -20 -10 0
-4 12 -15 27 -24 34 -20 17 -20 57 -1 94 12 23 13 37 4 73 -14 54 -28 57 -27
5 0 -44 -10 -66 -32 -66 -9 0 -13 -6 -11 -15 3 -8 5 -39 5 -68 0 -53 0 -54 27
-48 33 6 42 -10 28 -56 -6 -18 -10 -54 -10 -81 0 -37 -5 -53 -26 -73 -19 -19
-23 -28 -14 -37 14 -14 15 -47 1 -47 -16 0 -12 -26 6 -41 9 -8 14 -22 11 -37
-4 -19 5 -36 36 -69 22 -24 42 -41 44 -39 7 7 -28 56 -41 56 -6 0 -16 8 -22
18 -10 15 -8 20 15 29 14 6 39 14 55 18 l29 6 -36 26 c-21 15 -35 28 -32 31 3
3 13 -2 22 -10 10 -9 23 -14 28 -12 15 6 45 -49 45 -80 0 -32 29 -51 46 -28
10 14 14 15 29 2 10 -8 21 -14 24 -12 3 1 6 -10 6 -25 0 -26 -2 -28 -39 -25
-45 4 -42 -13 5 -23 16 -4 35 -15 41 -24 9 -15 16 -16 39 -8 32 12 34 11 44
-22 4 -15 3 -21 -3 -17 -5 3 -13 -1 -16 -9 -4 -13 -10 -14 -26 -5 -13 7 -20 7
-20 0 0 -10 19 -14 52 -11 9 1 30 -4 45 -12 18 -10 49 -14 88 -11 33 2 71 3
84 3 14 1 29 7 34 13 6 10 10 10 13 1 3 -7 12 -9 20 -6 9 3 26 0 40 -7 25 -14
48 -5 25 9 -18 12 -6 61 15 61 12 0 15 -6 10 -23 -4 -16 1 -26 15 -35 17 -11
18 -16 8 -28 -9 -11 -8 -18 5 -32 9 -10 16 -24 16 -30 0 -22 18 -12 24 13 8
30 26 33 33 5 6 -22 39 -27 46 -7 3 9 9 9 24 1 15 -9 23 -8 42 7 31 25 68 25
76 -1 3 -11 11 -20 16 -20 5 0 9 -7 9 -15 0 -8 -6 -15 -14 -15 -7 0 -20 -8
-27 -17 -12 -14 -12 -16 0 -8 8 4 26 8 42 7 15 0 33 6 40 14 18 21 46 17 72
-12 15 -16 27 -22 31 -15 4 5 13 8 21 5 8 -4 25 6 39 23 l25 28 2 -25 c0 -14
0 -43 -1 -66 -1 -37 1 -41 22 -39 15 1 24 9 26 23 2 12 9 22 16 22 7 0 17 10
23 22 9 20 11 18 32 -26 20 -39 22 -52 12 -72 -6 -14 -11 -27 -11 -29 0 -8 65
18 76 31 8 10 13 9 22 -7 16 -26 32 -15 32 22 0 28 30 69 50 69 6 0 10 -18 10
-40 0 -26 7 -47 19 -59 19 -19 20 -19 35 19 23 57 34 57 58 3 20 -45 22 -46
31 -25 13 28 23 28 42 -1 13 -21 13 -43 0 -104 -7 -31 13 -39 21 -8 3 14 10
25 15 25 12 0 11 -47 -1 -55 -5 -3 -7 -19 -4 -34 5 -23 2 -30 -15 -36 -16 -5
-21 -15 -21 -40 0 -28 -3 -32 -20 -28 -11 3 -20 14 -20 24 0 11 -4 19 -10 19
-5 0 -10 7 -10 15 0 8 -4 15 -10 15 -5 0 -10 -7 -10 -15 0 -8 -4 -15 -9 -15
-18 0 -21 -37 -7 -65 14 -27 13 -31 -19 -75 -19 -26 -32 -50 -28 -54 3 -3 -1
-6 -10 -6 -8 0 -22 -2 -30 -6 -10 -3 -17 5 -22 28 l-7 33 -10 -35 c-5 -19 -15
-38 -21 -42 -6 -4 -18 -37 -28 -75 -9 -37 -20 -76 -24 -85 -6 -15 -2 -18 18
-18 37 0 57 10 57 29 0 14 2 14 10 1 8 -12 13 -13 30 -2 11 6 26 12 34 12 16
0 29 -41 20 -63 -3 -8 -1 -18 5 -22 6 -3 11 0 11 8 0 8 14 20 30 26 30 10 40
35 18 44 -7 3 -4 6 7 6 11 1 29 4 40 7 14 3 23 -2 30 -18 6 -13 16 -24 23 -24
6 -1 23 -2 36 -3 18 -1 25 -8 30 -33 l7 -33 15 34 c7 18 14 40 14 47 0 8 5 13
12 12 7 -2 17 7 23 20 12 26 25 29 26 5 0 -14 2 -13 9 5 6 15 18 22 35 22 26
0 26 -1 29 -70 1 -48 20 -49 24 -1 3 37 5 40 43 46 23 4 39 12 39 20 0 8 8 18
17 24 14 8 15 12 4 25 -21 25 -6 43 43 50 25 4 46 11 46 17 0 5 10 9 23 9 111
0 145 13 202 76 6 7 19 13 30 15 10 2 22 15 25 29 3 14 14 27 25 29 11 2 24
10 28 17 11 18 27 8 27 -16 0 -30 18 -33 50 -10 22 16 30 30 31 53 0 29 1 30
9 10 12 -30 45 -29 65 1 11 17 22 22 40 18 20 -3 23 -8 18 -32 -5 -27 4 -32
37 -20 3 1 12 3 20 4 8 0 15 10 16 21 2 41 14 56 36 44 12 -7 18 -18 15 -29
-2 -10 4 -31 14 -47 10 -15 19 -36 19 -45 0 -9 7 -21 16 -26 15 -8 15 -15 3
-61 -10 -40 -10 -54 0 -64 9 -9 14 -9 20 2 17 27 33 0 28 -48 -4 -39 -3 -43 8
-28 19 26 26 6 19 -50 -14 -110 -9 -130 45 -182 21 -20 23 -25 10 -35 -8 -6
-16 -26 -17 -44 -3 -31 -2 -32 17 -21 11 7 22 22 26 34 5 19 6 19 16 2 5 -9 8
-21 4 -26 -3 -5 2 -16 11 -25 8 -9 12 -21 9 -26 -11 -17 4 -65 16 -53 13 13
40 117 43 164 1 20 13 50 25 67 16 23 18 30 7 26 -9 -3 -16 -1 -16 5 0 26 69
5 76 -23 3 -12 14 -27 25 -34 24 -15 45 -6 29 13 -6 7 -15 27 -20 43 -6 24 -5
32 7 36 20 8 33 -2 26 -20 -3 -8 6 -25 22 -40 21 -20 34 -24 56 -19 33 7 36
17 14 39 -26 25 -16 59 30 111 11 12 28 34 38 49 21 31 37 33 44 7 3 -12 11
-17 22 -14 10 2 25 -7 38 -25 20 -28 26 -29 87 -29 63 1 103 -14 90 -34 -3 -5
-1 -9 4 -9 6 0 13 -12 16 -26 6 -23 11 -26 38 -20 37 7 78 -24 78 -59 0 -12 5
-36 11 -54 38 -110 -96 -486 -250 -701 -115 -159 -185 -233 -356 -374 -85 -70
-155 -117 -244 -163 -35 -19 -76 -42 -90 -52 -44 -31 -240 -121 -263 -121 -8
0 -18 -4 -23 -8 -6 -5 -29 -16 -52 -25 -23 -9 -61 -25 -85 -35 -107 -47 -302
-99 -419 -112 -52 -6 -119 -15 -149 -20 -47 -9 -324 -27 -415 -27 -148 -1
-592 50 -715 82 -57 15 -159 38 -245 56 -171 37 -495 144 -511 170 -3 5 -12 9
-21 9 -21 0 -256 114 -309 150 -23 17 -53 34 -66 40 -13 5 -32 16 -43 22 -10
7 -58 37 -105 66 -47 30 -96 63 -110 73 -14 10 -41 28 -61 39 -20 10 -74 50
-120 87 -46 38 -109 87 -139 110 -69 52 -317 302 -405 408 -93 112 -162 219
-238 370 -91 181 -121 271 -122 367 0 92 6 101 137 189 188 127 388 318 432
414 39 83 66 173 66 218 0 23 7 66 14 95 10 37 13 84 10 150 -3 54 -5 102 -4
107 12 101 11 125 -6 150 -12 18 -14 29 -6 37 7 7 7 19 1 35 -6 16 -5 31 1 44
6 11 8 25 4 31 -5 8 -14 -3 -25 -28 l-18 -39 0 94 c-1 78 3 105 23 155 13 34
26 74 28 90 2 25 -1 31 -24 37 -19 5 -31 3 -39 -7 -6 -8 -18 -14 -25 -14 -26
0 8 40 41 49 19 5 29 13 26 22 -9 33 1 171 15 198 12 25 13 34 2 53 -6 13 -11
30 -10 38 1 8 -4 33 -12 55 -12 33 -19 40 -41 40 -24 -1 -26 2 -21 27 3 15 9
42 12 58 6 26 4 30 -14 30 -12 0 -24 5 -28 11 -4 8 -9 8 -17 0 -16 -16 -27
-13 -21 4 4 8 10 13 14 10 16 -10 32 24 25 55 -5 24 -11 31 -25 27 -21 -5 -31
12 -25 43 4 21 3 21 -19 6 -30 -19 -36 -13 -36 38 0 23 -9 70 -20 106 -10 36
-22 82 -25 103 -3 20 -10 37 -15 37 -6 0 -10 16 -10 35 0 28 -13 75 -27 94 -1
2 -10 -2 -19 -10 -15 -12 -16 -11 -9 11 4 14 13 37 20 52 11 22 11 30 -1 45
-7 10 -14 34 -14 54 0 20 -7 42 -15 49 -8 7 -15 28 -15 46 0 27 -6 36 -30 49
-16 8 -38 15 -50 15 -32 0 -95 36 -124 71 -64 76 -106 204 -106 324 0 46 -7
111 -16 146 -15 60 -15 67 9 198 14 75 29 156 32 181 3 25 15 83 27 129 19 75
20 93 9 160 -6 42 -13 117 -16 168 -5 80 -36 237 -50 251 -3 3 -14 -3 -25 -13
-13 -12 -20 -14 -20 -6 0 9 -9 11 -29 6 -26 -5 -29 -4 -24 14 3 11 13 27 22
35 16 15 20 14 41 -4 13 -11 25 -18 27 -16 8 8 -21 45 -43 55 -24 11 -39 50
-49 131 -3 25 -10 52 -15 60 -9 13 -12 12 -25 -4 -11 -14 -15 -16 -15 -5 0 9
-7 5 -19 -10 -10 -13 -20 -20 -23 -15 -3 5 -1 53 3 107 7 72 15 110 31 138 13
24 18 43 13 47 -13 9 -16 105 -3 113 5 3 8 41 6 85 l-3 79 -18 -37 c-26 -58
-41 -49 -33 20 8 75 -9 159 -34 167 -30 9 -32 36 -10 106 28 84 36 154 20 164
-6 4 -17 2 -23 -4 -32 -32 -33 6 -3 84 18 46 21 177 5 206 -8 16 -7 30 6 61 8
22 13 48 10 58 -3 11 3 36 13 57 32 63 69 280 58 339 -6 29 -10 33 -22 24 -20
-17 -19 10 5 88 11 35 17 70 15 77 -3 7 13 50 35 95 28 55 46 109 56 170 17
98 33 150 46 150 4 0 14 19 20 43 7 23 21 54 31 69 10 14 18 32 18 40 0 7 17
31 37 52 35 36 103 140 103 155 0 4 11 18 25 31 23 22 61 73 118 159 9 14 15
32 12 39 -3 7 0 10 5 7 6 -3 21 6 35 22 28 32 32 45 10 37 -8 -4 -15 -3 -15 0
0 15 66 129 77 133 7 3 38 39 70 82 31 42 80 103 108 136 29 33 60 77 70 97 9
21 34 51 54 68 56 46 90 83 85 92 -8 12 8 34 43 60 97 70 181 140 201 167 12
17 39 42 60 55 20 13 50 36 66 51 28 26 139 85 161 85 13 0 79 69 94 97 6 12
28 27 48 33 49 16 59 26 45 43 -15 17 -6 27 24 27 13 0 26 5 29 10 3 6 15 10
25 10 10 0 26 10 34 22 12 16 25 22 48 20 38 -2 179 40 179 54 0 5 -9 10 -21
12 -56 9 16 31 104 32 17 1 46 9 65 19 27 15 51 17 140 14 58 -2 117 -7 131
-10z m1443 -409 c26 -19 47 -39 47 -44 0 -14 -34 -12 -48 2 -7 7 -12 8 -12 2
0 -6 20 -24 45 -42 27 -19 45 -39 45 -51 0 -27 42 -90 60 -91 24 -1 60 -36 60
-59 0 -28 -16 -35 -32 -14 -7 10 -29 27 -48 38 -58 32 -101 76 -89 91 7 9 5
14 -10 19 -11 3 -29 17 -40 31 -10 13 -25 24 -33 24 -20 0 -37 20 -31 37 3 8
-8 29 -27 48 -27 28 -31 37 -21 48 17 21 75 4 134 -39z m-208 -151 c14 -33 92
-122 108 -123 4 0 7 7 7 16 0 26 24 10 43 -29 18 -35 46 -54 33 -22 -8 21 7
19 38 -6 31 -24 35 -45 6 -29 -12 6 -20 7 -20 1 0 -10 98 -91 111 -91 20 0 18
22 -3 40 -27 23 -11 26 37 6 33 -14 48 -36 24 -36 -7 0 -9 -9 -6 -21 4 -15 2
-19 -9 -15 -11 4 -12 2 -4 -14 15 -28 13 -31 -26 -27 -22 3 -47 16 -68 36 -17
17 -39 31 -48 31 -16 0 -66 36 -143 103 -35 31 -44 35 -49 21 -12 -31 -5 -45
28 -59 29 -12 35 -21 41 -57 4 -24 14 -51 23 -61 21 -23 7 -35 -17 -13 -17 16
-19 16 -25 0 -6 -15 -8 -15 -26 1 -12 11 -18 25 -15 36 4 12 -3 26 -19 40 -25
22 -37 79 -17 79 10 0 7 71 -3 89 -4 6 -1 11 8 11 21 0 20 6 -6 43 -31 43 -48
76 -48 94 0 24 28 -4 45 -44z m2267 -1130 c0 -10 1 -24 1 -30 -1 -7 3 -10 8
-8 4 3 33 -14 62 -37 58 -45 112 -136 138 -228 7 -25 13 -47 14 -50 13 -43 16
-62 12 -66 -8 -9 -48 75 -56 116 -4 21 -13 36 -23 38 -15 3 -15 -2 3 -47 10
-28 23 -72 29 -98 6 -27 12 -58 15 -69 3 -12 14 -24 25 -27 14 -4 20 -13 20
-35 0 -17 5 -43 10 -58 14 -36 4 -44 -11 -8 -28 68 -42 99 -49 104 -3 3 -16
35 -28 72 -24 75 -107 221 -146 257 -14 14 -26 30 -26 37 0 7 -14 23 -31 37
-23 18 -32 34 -36 67 -6 42 -6 43 20 36 16 -4 27 -2 27 4 0 18 20 11 22 -7z
m243 -1053 c15 -52 29 -117 30 -145 2 -27 6 -72 10 -100 7 -46 7 -49 -8 -36
-10 7 -17 22 -17 33 0 11 -5 16 -11 13 -6 -4 -9 -37 -7 -83 2 -46 -1 -78 -7
-80 -6 -1 -11 57 -12 155 -2 144 -8 283 -13 308 -4 15 -1 39 4 34 2 -2 16 -47
31 -99z m237 -1659 c25 -9 73 -94 64 -110 -4 -5 -20 -12 -36 -16 -16 -4 -32
-11 -35 -16 -4 -5 -12 -9 -19 -9 -35 0 -60 145 -27 153 26 7 29 7 53 -2z m252
-222 c23 -50 39 -184 32 -264 -5 -64 -70 -320 -106 -420 -12 -34 -25 -105 -30
-165 -5 -58 -14 -124 -20 -148 -6 -24 -7 -48 -4 -54 4 -6 3 -8 -3 -5 -5 3 -17
-9 -26 -28 -16 -33 -9 -54 12 -41 14 9 34 -55 21 -68 -5 -5 -10 -27 -10 -48 0
-25 -5 -38 -13 -38 -7 0 -21 -19 -31 -42 -22 -51 -88 -116 -152 -148 -25 -13
-53 -36 -62 -52 -9 -15 -21 -28 -27 -28 -6 0 -26 -11 -45 -23 -47 -32 -118
-54 -218 -67 -77 -10 -86 -9 -125 10 -29 15 -54 39 -80 79 -54 84 -68 148 -61
279 4 59 10 112 14 117 11 16 10 136 0 130 -18 -11 -9 30 15 70 23 37 23 40 8
58 -11 12 -14 21 -7 25 6 4 14 39 18 77 7 74 24 135 41 147 6 5 5 8 -2 8 -7 0
-13 9 -13 20 0 11 6 20 13 21 10 0 10 2 0 6 -18 7 -16 30 3 37 8 3 13 10 10
15 -7 11 14 61 25 61 5 0 9 10 9 23 -1 32 15 126 22 133 4 3 22 0 42 -7 50
-18 76 6 76 69 0 38 5 50 32 74 36 32 33 31 58 18 17 -9 18 -7 13 26 -6 36 -5
37 22 32 21 -4 29 -1 32 13 6 22 50 52 63 44 12 -7 13 -38 3 -49 -10 -10 -12
-36 -3 -36 5 0 12 5 15 11 4 6 13 8 21 5 8 -3 14 -1 14 5 0 6 9 8 19 4 11 -3
25 1 34 10 36 35 127 -3 127 -54 0 -25 20 -71 31 -71 4 0 16 14 26 30 9 17 22
30 28 30 18 0 42 -23 58 -55 l15 -30 6 25 c31 143 32 176 11 216 -21 40 -19
54 8 54 16 0 27 -11 41 -41z m-1987 -1647 c11 -14 15 -14 31 2 17 14 21 15 31
2 9 -11 9 -15 -1 -18 -10 -4 -10 -11 2 -34 l14 -29 4 32 c4 37 31 52 46 26 12
-19 14 -36 19 -122 4 -51 3 -53 -13 -35 -9 10 -26 25 -38 32 -19 10 -22 10
-22 -5 0 -12 -8 -5 -25 19 -13 19 -37 40 -53 46 -33 11 -82 69 -82 96 0 14 6
16 38 10 20 -3 43 -13 49 -22z m119 -337 c16 -34 16 -36 -11 -71 -15 -19 -28
-41 -29 -47 -1 -7 -5 -18 -10 -25 -4 -7 -8 -42 -9 -79 l-2 -65 58 -62 c69 -73
92 -104 83 -114 -4 -3 -41 28 -82 70 l-75 77 -3 95 c-1 53 2 96 6 96 4 0 8 12
8 26 0 14 7 32 15 41 9 9 13 23 10 34 -5 15 -3 17 11 12 14 -5 16 -2 10 20 -9
37 0 34 20 -8z m-2061 -7329 c225 -10 265 -19 265 -60 0 -12 -77 -72 -152
-118 -56 -35 -145 -111 -204 -175 l-60 -66 -250 2 c-137 1 -280 4 -319 6 -210
14 -234 17 -248 33 -20 23 -34 357 -15 379 10 13 67 14 433 10 231 -3 479 -8
550 -11z"/>
<path d="M7835 12883 c-11 -3 -24 -9 -29 -14 -5 -4 -29 -6 -53 -2 -34 5 -43 3
-43 -9 0 -9 -17 -28 -37 -43 -41 -30 -63 -54 -63 -67 0 -16 34 -7 67 18 19 15
38 22 42 18 4 -5 18 -35 30 -66 23 -57 46 -87 58 -75 3 4 0 14 -8 23 -9 11
-12 39 -11 88 3 78 17 99 74 110 15 3 28 10 28 16 0 10 -20 11 -55 3z"/>
<path d="M10546 12719 c-20 -16 -24 -24 -16 -34 15 -17 -13 -45 -46 -45 -24 0
-35 -20 -11 -20 6 0 63 -2 125 -5 118 -5 136 2 82 33 -30 17 -41 42 -17 42 14
0 -40 35 -70 44 -13 4 -29 -1 -47 -15z"/>
<path d="M9067 11252 c-9 -10 -15 -31 -14 -47 2 -23 -2 -30 -15 -29 -10 1 -18
-3 -18 -9 0 -6 -19 -31 -42 -55 -42 -42 -43 -44 -42 -110 0 -62 15 -112 32
-112 4 0 21 13 38 30 18 16 34 26 37 23 3 -3 37 0 75 7 l70 11 52 -39 c28 -22
59 -39 68 -38 29 2 74 58 67 83 -4 19 -1 23 20 23 14 0 25 3 25 8 0 4 10 12
23 17 16 7 25 23 31 57 12 62 -12 110 -71 145 -38 22 -52 24 -130 22 -49 -2
-93 -8 -100 -15 -14 -13 -93 -28 -102 -18 -3 3 4 13 16 21 12 8 19 21 16 29
-7 19 -17 18 -36 -4z"/>
<path d="M8377 11192 c-24 -26 -21 -50 9 -93 35 -50 129 -92 199 -87 64 4 68
20 17 85 -77 97 -183 141 -225 95z"/>
<path d="M9650 11163 c-9 -2 -24 -23 -34 -46 -18 -43 -53 -87 -68 -87 -9 0
-128 -121 -128 -131 0 -4 -13 -12 -30 -19 -16 -7 -27 -16 -24 -21 6 -10 63 -7
82 5 7 4 12 2 12 -4 0 -7 9 -6 28 3 15 8 54 28 87 44 39 20 65 40 75 59 8 16
19 32 23 35 4 3 11 31 14 61 6 60 -11 106 -37 101z"/>
<path d="M9487 10038 c4 -19 3 -20 -6 -8 -6 8 -11 10 -11 4 0 -15 -159 -17
-176 -3 -9 7 -19 7 -32 0 -21 -11 -196 -8 -224 4 -14 5 -18 2 -18 -13 0 -24
-9 -28 -92 -37 -42 -5 -73 -3 -86 4 -13 7 -23 8 -27 1 -10 -16 46 -25 135 -21
317 13 518 5 665 -26 26 -6 176 -8 303 -4 49 2 54 15 12 39 -16 9 -30 25 -30
35 0 9 -3 17 -7 17 -5 0 -48 5 -98 11 -106 12 -225 17 -220 9 7 -11 -40 -6
-47 4 -5 7 -11 6 -18 -4 -6 -10 -10 -11 -10 -2 0 6 -4 12 -9 12 -5 0 -7 -10
-4 -22z"/>
<path d="M12486 11475 c-3 -8 -17 -15 -31 -15 -21 0 -25 -4 -21 -18 4 -13 -13
-45 -55 -101 -46 -61 -59 -85 -50 -94 6 -6 11 -21 11 -34 0 -12 9 -46 20 -75
10 -29 24 -75 30 -102 10 -47 47 -105 97 -155 14 -12 27 -21 30 -17 3 3 -11
56 -31 118 -20 62 -36 123 -36 134 0 12 -18 44 -40 72 -54 67 -48 82 40 97 64
11 82 34 83 101 1 77 -29 134 -47 89z"/>
<path d="M81 10473 c-61 -486 -72 -654 -78 -1135 -5 -430 2 -646 33 -978 21
-231 45 -414 55 -425 11 -12 3 262 -12 369 -10 74 -6 472 6 651 6 93 18 1615
13 1615 -3 0 -10 -44 -17 -97z"/>
<path d="M9772 1871 c-190 -105 -343 -231 -458 -376 -21 -27 -41 -52 -44 -55
-3 -3 -24 -35 -47 -73 -61 -97 -99 -192 -113 -277 -6 -41 -16 -94 -21 -117 -5
-23 -9 -61 -9 -84 0 -50 27 -244 39 -279 5 -14 14 -49 21 -79 15 -65 80 -234
122 -316 16 -33 50 -84 75 -114 35 -43 43 -60 38 -79 l-6 -25 193 7 c209 7
484 28 697 51 98 11 140 20 154 33 31 28 189 221 239 292 81 115 122 215 164
400 64 280 2 540 -197 831 -76 111 -78 141 -9 150 62 9 410 0 431 -12 49 -25
186 -286 234 -442 77 -254 70 -550 -20 -797 -28 -78 -126 -274 -152 -302 -18
-20 -18 -20 17 -13 121 24 444 104 610 151 197 56 574 177 599 193 8 5 15 35
18 77 5 61 11 77 51 137 41 63 44 72 38 115 -3 25 -13 55 -21 66 -8 12 -22 31
-31 43 -12 17 -18 55 -21 145 -5 114 -3 132 26 252 18 72 35 160 38 197 7 79
-13 224 -34 245 -14 13 -39 15 -228 18 -27 0 -108 -3 -180 -6 -75 -5 -159 -3
-200 2 -38 6 -158 15 -265 20 -108 5 -216 11 -240 14 -106 12 -242 16 -1040
31 -140 3 -286 7 -325 10 -67 6 -73 4 -143 -34z"/>
</g>
</svg>
