<?xml version='1.0' encoding='utf-8'?>
<svg xmlns="http://www.w3.org/2000/svg" viewBox="0 0 133.10001 129.03" id="svg2" height="129.03mm" width="133.10001mm" version="1.0"> <metadata id="metadata14"> </metadata> <defs id="defs4"> <clipPath id="clipEmfPath1" clipPathUnits="userSpaceOnUse"> <path id="path7" d="m 0.449699,-0.599599 471.884301,0 0,457.193599 -471.884301,0 z"/> </clipPath> <pattern y="0" x="0" height="6" width="6" patternUnits="userSpaceOnUse" id="EMFhbasepattern"/> </defs> <path transform="scale(0.28222222,0.28222222)" id="path10" d="m 236.317,171.972 c -26.757,0 -48.493,21.698 -48.493,48.493 0,26.757 21.736,48.492 48.493,48.492 26.794,0 48.492,-21.735 48.492,-48.492 0,-26.795 -21.698,-48.493 -48.492,-48.493 z m 121.643,-0.637 c -9.293,0 -16.826,7.533 -16.826,16.827 0,9.293 7.533,16.826 16.826,16.826 9.294,0 16.827,-7.533 16.827,-16.826 0,-9.294 -7.533,-16.827 -16.827,-16.827 z m 37.55,-28.443 c -7.42,0 -13.416,5.996 -13.416,13.416 0,7.382 5.996,13.378 13.416,13.378 7.383,0 13.379,-5.996 13.379,-13.378 0,-7.42 -5.996,-13.416 -13.379,-13.416 z m -67.942,-2.811 c -9.294,0 -16.826,7.533 -16.826,16.826 0,9.294 7.532,16.827 16.826,16.827 9.294,0 16.826,-7.533 16.826,-16.827 0,-9.293 -7.532,-16.826 -16.826,-16.826 z m -93.35,-18.4 -1.311,0.187 c -7.72,1.612 -13.566,8.432 -13.566,16.639 0,8.207 5.846,15.065 13.566,16.639 l 1.311,0.188 0,-10.006 -7.795,0 c -0.374,0 -0.712,-0.338 -0.712,-0.712 l 0,-2.848 c 0,-0.375 0.338,-0.712 0.712,-0.712 l 11.318,0 c 0.412,0 0.712,0.337 0.712,0.712 l 0,0 0,2.848 0,10.718 1.311,-0.188 c 7.72,-1.574 13.566,-8.432 13.566,-16.639 0,-8.207 -5.846,-15.027 -13.566,-16.639 l -1.311,-0.187 0,10.043 7.795,0 c 0.374,0 0.712,0.3 0.712,0.712 l 0,2.811 c 0,0.375 -0.338,0.712 -0.712,0.712 l -8.47,0 -0.037,0 -2.811,0 c -0.412,0 -0.712,-0.3 -0.712,-0.712 l 0,0 0,-2.811 z m 190.223,-8.394 c -7.383,0 -13.379,5.996 -13.379,13.416 0,7.382 5.996,13.378 13.379,13.378 7.42,0 13.416,-5.996 13.416,-13.378 0,-7.42 -5.996,-13.416 -13.416,-13.416 z m -56.737,0 c -7.383,0 -13.379,5.996 -13.379,13.416 0,7.382 5.996,13.378 13.379,13.378 7.42,0 13.416,-5.996 13.416,-13.378 0,-7.42 -5.996,-13.416 -13.416,-13.416 z m -286.8706,-8.47 c -2.2485,0 -4.1223,1.837 -4.1223,4.123 l 0,21.735 -20.4987,0 c -2.286,0 -4.1223,1.836 -4.1223,4.122 l 0,16.489 c 0,2.286 1.8363,4.122 4.1223,4.122 l 20.4987,0 0,19.263 c 0,2.286 1.8738,4.122 4.1223,4.122 l 16.489,0 c 2.2859,0 4.1226,-1.836 4.1226,-4.122 l 0,-19.263 20.536,0 c 2.248,0 4.122,-1.836 4.122,-4.122 l 0,-16.489 c 0,-2.286 -1.874,-4.122 -4.122,-4.122 l -20.536,0 0,-21.735 c 0,-2.286 -1.8367,-4.123 -4.1226,-4.123 z M 395.51,84.9182 c -7.42,0 -13.416,5.9959 -13.416,13.416 0,7.3828 5.996,13.3788 13.416,13.3788 7.383,0 13.379,-5.996 13.379,-13.3788 0,-7.4201 -5.996,-13.416 -13.379,-13.416 z M 234.106,0.1499 l 4.459,0 c 2.361,-0.0749502 4.76,-0.1124251 7.083,0.074949 13.641,0.22485 64.757,10.005851 75.362,16.076751 4.759,2.923 5.809,10.3431 8.732,15.8519 33.39,2.998 73.151,3.635 98.109,25.1082 0,2.6607 0,5.2839 0,7.9072 26.045,24.6959 32.378,51.9781 31.966,85.5551 9.406,37.025 12.929,69.816 11.355,104.742 -2.211,27.882 -7.233,55.313 -18.063,78.286 -4.497,9.143 -16.039,15.926 -21.248,15.926 -7.008,-0.524 -18.513,-10.867 -25.296,-22.634 -10.155,-28.631 -17.463,-58.199 -26.195,-87.28 -1.873,-5.358 -6.071,-9.331 -10.493,-10.492 -16.601,3.147 -40.248,4.384 -49.841,9.368 -5.621,2.623 -14.728,13.379 -15.627,22.073 -10.006,50.891 -15.777,104.592 -29.98,152.673 -5.397,19.037 -16.339,36.875 -31.404,41.335 l -6.671,1.049 c 0,0 0,0 0,0 l -0.037,0 0,0 c 0,0 0,0 0,0 l -6.671,-1.049 c -15.065,-4.46 -26.007,-22.298 -31.404,-41.335 -14.203,-48.081 -19.974,-101.782 -29.98,-152.673 -0.899,-8.694 -10.005,-19.45 -15.627,-22.073 -9.593,-4.984 -33.24,-6.221 -49.841,-9.368 -4.4598,1.161 -8.6195,5.134 -10.4933,10.492 -8.7316,29.081 -16.0393,58.649 -26.195,87.28 -6.7829,11.767 -18.2877,22.11 -25.2955,22.634 -5.209,0 -16.7513,-6.783 -21.2483,-15.926 C 8.69418,310.779 3.71002,283.348 1.499,255.466 -0.0749498,220.54 3.44769,187.749 12.8539,150.724 12.4417,117.147 18.7749,89.8648 44.82,65.1689 c 0,-2.6233 0,-5.2465 0,-7.9072 24.9583,-21.4732 64.719,-22.1102 98.109,-25.1082 2.923,-5.5088 3.973,-12.9289 8.732,-15.8519 10.605,-6.0709 61.721,-15.851901 75.362,-16.076751 2.323,-0.1873741 4.722,-0.1498992 7.083,-0.074949 z" clip-path="url(#clipEmfPath1)" style="fill:#000000;fill-opacity:1;fill-rule:evenodd;stroke:none"/> </svg>