<?xml version='1.0' encoding='utf-8'?>
<svg xmlns="http://www.w3.org/2000/svg" viewBox="0 0 187.39999 130.3" id="svg2" height="130.3mm" width="187.39999mm" version="1.0"> <metadata id="metadata14"> </metadata> <defs id="defs4"> <clipPath id="clipEmfPath1" clipPathUnits="userSpaceOnUse"> <path id="path7" d="m 2.24849,-0.599599 664.35551,0 0,461.690599 -664.35551,0 z"/> </clipPath> <pattern y="0" x="0" height="6" width="6" patternUnits="userSpaceOnUse" id="EMFhbasepattern"/> </defs> <path transform="scale(0.28222222,0.28222222)" id="path10" d="m 420.356,191.759 c -21.248,0 -38.449,17.201 -38.449,38.412 0,21.248 17.201,38.449 38.449,38.449 21.211,0 38.449,-17.201 38.449,-38.449 0,-21.211 -17.238,-38.412 -38.449,-38.412 z m -203.189,-7.12 0,31.404 -31.479,0 0,29.605 31.479,0 0,31.442 29.605,0 0,-31.442 31.479,0 0,-29.605 -31.479,0 0,-31.404 z M 509.659,160.58 c -12.779,0 -23.122,10.381 -23.122,23.16 0,12.778 10.343,23.159 23.122,23.159 12.779,0 23.159,-10.381 23.159,-23.159 0,-12.779 -10.38,-23.16 -23.159,-23.16 z M 279.001,126.365 c -2.249,0 -4.048,1.837 -4.048,4.085 l 0,16.302 c 0,2.248 1.799,4.085 4.048,4.085 l 16.339,0 c 2.248,0 4.047,-1.837 4.047,-4.085 l 0,-16.302 c 0,-2.248 -1.799,-4.085 -4.047,-4.085 z m 101.969,-1.836 c -7.72,0 -13.978,6.258 -13.978,13.978 0,7.72 6.258,13.978 13.978,13.978 7.72,0 13.978,-6.258 13.978,-13.978 0,-7.72 -6.258,-13.978 -13.978,-13.978 z m 76.898,-8.357 c -12.778,0 -23.159,10.343 -23.159,23.122 0,12.779 10.381,23.16 23.159,23.16 12.779,0 23.16,-10.381 23.16,-23.16 0,-12.779 -10.381,-23.122 -23.16,-23.122 z m 103.619,-0.937 c -12.779,0 -23.16,10.343 -23.16,23.16 0,12.779 10.381,23.122 23.16,23.122 12.779,0 23.122,-10.343 23.122,-23.122 0,-12.817 -10.343,-23.16 -23.122,-23.16 z M 151.249,99.1211 c -21.249,0 -38.45,17.2009 -38.45,38.4489 0,21.211 17.201,38.45 38.45,38.45 21.248,0 38.449,-17.239 38.449,-38.45 0,-21.248 -17.201,-38.4489 -38.449,-38.4489 z M 416.084,73.7506 c -7.72,0 -13.978,6.2583 -13.978,13.9782 0,7.7198 6.258,13.9782 13.978,13.9782 7.72,0 13.978,-6.2584 13.978,-13.9782 0,-7.7199 -6.258,-13.9782 -13.978,-13.9782 z m -164.44,0 c -7.72,0 -13.978,6.2583 -13.978,13.9782 0,7.7198 6.258,13.9782 13.978,13.9782 7.72,0 13.978,-6.2584 13.978,-13.9782 0,-7.7199 -6.258,-13.9782 -13.978,-13.9782 z m 258.015,-2.9605 c -12.779,0 -23.122,10.3806 -23.122,23.1595 0,12.7794 10.343,23.1224 23.122,23.1224 12.779,0 23.159,-10.343 23.159,-23.1224 0,-12.7789 -10.38,-23.1595 -23.159,-23.1595 z M 202.177,0.0749498 227.398,10.493 C 248.046,9.36873 268.47,8.91903 288.857,8.65671 l 29.942,-0.37475 15.552,-0.22485 15.59,-0.18738 c 7.57,0.11243 14.727,0.33728 29.942,0.78698 20.387,0.26232 40.773,0.71202 61.459,1.83629 L 466.563,0.0749498 C 497.517,2.36092 530.795,4.60941 556.24,17.0511 c 12.704,7.3825 18.213,10.1182 26.045,20.0491 3.86,6.0334 8.844,11.842 11.542,18.1003 l 2.811,1.4241 13.079,16.4515 c 13.978,32.9779 31.891,133.2609 41.147,187.1499 9.257,53.926 17.876,99.908 13.978,136.259 -8.094,39.835 -25.67,57.261 -58.236,63.782 -20.911,0.037 -34.214,-8.469 -47.967,-24.846 -18.401,-29.718 -31.704,-60.372 -47.556,-90.539 -6.558,-9.069 -11.955,-17.426 -26.607,-20.237 l -138.62,0 -22.972,0 -138.62,0 c -14.653,2.811 -20.049,11.168 -26.607,20.237 -15.852,30.167 -29.156,60.821 -47.556,90.539 C 96.348,451.798 83.0444,460.304 62.1334,460.267 29.5677,453.746 11.992,436.32 3.89739,396.485 0,360.134 8.61923,314.152 17.8755,260.226 27.1318,206.337 45.0448,106.054 59.023,73.0761 L 72.1017,56.6246 74.9124,55.2005 C 77.6105,48.9422 82.5947,43.1336 86.4546,37.1002 94.2869,27.1693 99.7957,24.4336 112.5,17.0511 137.945,4.60941 171.223,2.36092 202.177,0.0749498 Z" clip-path="url(#clipEmfPath1)" style="fill:#000000;fill-opacity:1;fill-rule:evenodd;stroke:none"/> </svg>