<?xml version="1.0" encoding="UTF-8"?>
<svg version="1.1" viewBox="0 0 552.85699 924.28929" xmlns="http://www.w3.org/2000/svg" xmlns:xlink="http://www.w3.org/1999/xlink">
 <g transform="translate(735.71 -5.2193)">
  <path d="m-715.29 5.2193h512.01c11.316 0 20.426 9.1099 20.426 20.426v826.72c-7.6485 18.312-15.577 27.143-27.5 36.717-20.297 16.298-45.972 25.567-71.14 32.212-29.105 7.6842-59.965 5.4836-89.931 8.2143h-343.86c-11.316 0-20.426-9.1099-20.426-20.426v-883.43c0-11.316 9.1099-20.426 20.426-20.426z"/>
  <path d="m-671.72 78.656c-11.232 0-20.281 9.0183-20.281 20.25v323.75c0 11.232 9.0495 20.281 20.281 20.281h390.4c37.207 0 67.156-29.949 67.156-67.156v-21.75c0.30501-1.2377 0.5-2.5405 0.5-3.875v-255.5c0-8.8647-7.1353-16-16-16h-442.06z" fill="#fff"/>
  <rect x="-603.06" y="122.01" width="301.03" height="276.78" ry="9.1662"/>
  <path transform="translate(-.50508 .25254)" d="m-648.52 216.97c0 4.1842-3.392 7.5762-7.5762 7.5762s-7.5761-3.392-7.5761-7.5762 3.392-7.5761 7.5761-7.5761c4.1842 0 7.5762 3.392 7.5762 7.5761z"/>
  <path transform="matrix(1.1148,0,0,1.1148,41.26,-79.715)" d="m-307.09 654.87c0 17.016-13.794 30.81-30.81 30.81s-30.81-13.794-30.81-30.81 13.794-30.81 30.81-30.81 30.81 13.794 30.81 30.81z" fill="#fff"/>
  <path transform="matrix(1.1148,0,0,1.1148,135.2,-122.14)" d="m-307.09 654.87c0 17.016-13.794 30.81-30.81 30.81s-30.81-13.794-30.81-30.81 13.794-30.81 30.81-30.81 30.81 13.794 30.81 30.81z" fill="#fff"/>
  <path d="m-643.41 566.47c-1.7203 0-3.0938 1.4047-3.0938 3.125v41.219h-41.219c-1.7203 0-3.0938 1.3734-3.0938 3.0938v45.562c0 1.7203 1.3734 3.0938 3.0938 3.0938h41.219v41.219c0 1.7203 1.3734 3.0938 3.0938 3.0938h45.562c1.7203 0 3.125-1.3734 3.125-3.0938v-41.219h41.219c1.7203 0 3.0938-1.3734 3.0938-3.0938v-45.562c0-1.7203-1.3734-3.0938-3.0938-3.0938h-41.219v-41.219c0-1.7203-1.4047-3.125-3.125-3.125h-45.562z" fill="#fff"/>
  <rect id="g" transform="matrix(.50773 .86151 -.86151 .50773 0 0)" x="522.75" y="747.48" width="92.455" height="12.327" ry="6.1637" fill="#fff"/>
  <use id="h" transform="translate(139.91,-77.277)" width="744.09448" height="1052.3622" fill="#ffffff" xlink:href="#g"/>
  <use id="i" transform="translate(-27.274,15.657)" width="744.09448" height="1052.3622" fill="#ffffff" xlink:href="#h"/>
  <use id="j" transform="translate(-27.779,15.657)" width="744.09448" height="1052.3622" fill="#ffffff" xlink:href="#i"/>
  <use id="k" transform="translate(-28.284,15.152)" width="744.09448" height="1052.3622" fill="#ffffff" xlink:href="#j"/>
  <use transform="translate(-28.789,14.142)" width="744.09448" height="1052.3622" fill="#ffffff" xlink:href="#k"/>
  <rect id="a" transform="matrix(.88999 -.45598 .45598 .88999 0 0)" x="-774.28" y="480.64" width="72.143" height="17.143" ry="8.5714" fill="#fff"/>
  <use transform="translate(-96.429 -.35714)" width="744.09448" height="1052.3622" xlink:href="#a"/>
  <use transform="translate(-96.429 -.35714)" width="744.09448" height="1052.3622" fill="#ffffff" xlink:href="#a"/>
 </g>
</svg>
