<?xml version="1.0" standalone="no"?>
<!DOCTYPE svg PUBLIC "-//W3C//DTD SVG 20010904//EN"
 "http://www.w3.org/TR/2001/REC-SVG-20010904/DTD/svg10.dtd">
<svg version="1.0" xmlns="http://www.w3.org/2000/svg"
 width="360.000000pt" height="450.000000pt" viewBox="0 0 360.000000 450.000000"
 preserveAspectRatio="xMidYMid meet">
<metadata>
Created by potrace 1.16, written by Peter Selinger 2001-2019
</metadata>
<g transform="translate(0.000000,450.000000) scale(0.100000,-0.100000)"
fill="#000000" stroke="none">
<path d="M0 2735 c0 -971 3 -1765 8 -1765 10 0 52 120 52 151 0 14 9 36 20 49
11 13 20 26 20 30 0 3 16 14 35 23 19 9 35 21 35 26 0 6 27 37 60 71 33 34 60
69 60 78 1 30 54 96 92 115 34 17 40 17 99 2 113 -30 208 -92 270 -178 43 -59
39 -168 -4 -151 -9 3 -17 2 -17 -2 0 -16 45 -87 56 -91 6 -2 21 16 32 39 25
51 29 36 6 -22 -15 -37 -15 -45 0 -105 18 -71 21 -175 6 -175 -15 0 -12 -77 3
-83 10 -4 10 -7 0 -18 -7 -7 -13 -24 -13 -37 0 -57 -99 -105 -206 -100 -39 2
-57 -3 -79 -20 -15 -12 -35 -22 -43 -22 -9 0 -24 -7 -34 -16 -25 -24 -107 -30
-144 -12 -16 9 -44 18 -61 21 -37 7 -170 132 -218 205 -15 23 -29 42 -31 42
-2 0 -4 -178 -4 -395 l0 -395 1800 0 1800 0 0 395 c0 217 -2 395 -4 395 -2 0
-16 -19 -31 -42 -48 -74 -179 -197 -217 -205 -18 -3 -46 -12 -62 -21 -37 -18
-119 -12 -144 12 -10 9 -25 16 -34 16 -8 0 -27 9 -41 20 -14 11 -30 20 -36 20
-6 0 -11 5 -11 11 0 8 -5 7 -15 -1 -21 -18 -112 -7 -162 19 -61 30 -77 73 -81
206 -2 84 2 128 16 184 17 64 17 77 6 89 -8 7 -14 19 -15 25 0 7 -4 33 -8 59
-5 31 -4 46 3 45 5 -1 22 20 37 47 62 113 186 207 317 241 60 15 66 15 100 -2
38 -19 91 -85 92 -115 0 -9 27 -44 60 -78 33 -34 60 -65 60 -71 0 -5 16 -17
35 -26 19 -9 35 -20 35 -23 0 -4 9 -17 20 -30 11 -13 20 -35 20 -49 0 -31 42
-151 52 -151 5 0 8 794 8 1765 l0 1765 -1800 0 -1800 0 0 -1765z m1922 1569
c57 -19 132 -83 160 -138 33 -64 30 -151 -8 -212 -52 -84 -52 -84 -278 -86
l-199 -2 -42 46 c-87 97 -85 224 7 319 87 89 224 117 360 73z m-17 -688 c71
-6 75 -13 57 -101 -9 -41 -13 -77 -9 -81 3 -3 23 7 44 23 59 46 81 55 142 56
61 0 91 -11 133 -51 28 -26 58 -24 58 4 0 12 5 14 18 9 9 -5 40 -16 67 -26
l50 -18 3 -98 c2 -54 -2 -128 -9 -164 -11 -65 -11 -67 23 -145 19 -43 39 -92
44 -108 5 -16 14 -31 21 -33 18 -6 43 50 43 97 0 41 9 50 28 27 21 -25 25 -66
7 -93 -20 -31 -15 -41 9 -15 39 43 28 138 -18 159 -18 8 -25 22 -30 56 -14 89
5 128 84 173 47 26 71 15 112 -51 30 -47 32 -57 31 -134 0 -46 -5 -93 -11
-105 -6 -12 -20 -52 -32 -90 -12 -37 -27 -73 -34 -80 -6 -6 -22 -29 -34 -49
-32 -52 -86 -96 -127 -104 -30 -5 -36 -11 -45 -45 -6 -21 -15 -39 -19 -39 -5
0 -15 -14 -22 -32 -24 -58 -152 -168 -195 -168 -13 0 -86 -32 -162 -71 -108
-54 -158 -73 -218 -84 -166 -30 -254 -13 -449 84 -77 38 -152 72 -168 76 -15
3 -36 14 -47 25 -11 11 -24 20 -28 20 -27 0 -152 175 -152 213 0 9 -15 17 -40
21 -45 7 -98 49 -132 104 -12 20 -28 43 -34 49 -7 7 -22 43 -34 80 -12 38 -26
78 -32 90 -6 12 -11 59 -12 105 0 75 2 88 28 128 34 55 53 70 83 70 26 0 103
-36 116 -54 5 -6 6 -67 3 -136 -6 -131 2 -192 28 -218 20 -20 23 -16 41 53 9
32 25 76 37 96 21 37 21 43 10 172 -14 152 -8 227 17 227 9 0 39 11 68 24 l52
25 3 -21 c5 -32 21 -32 63 2 46 37 103 53 153 44 45 -8 66 -18 113 -55 20 -16
40 -29 43 -29 11 0 6 51 -10 107 -20 69 -14 76 74 83 64 5 99 4 197 -4z m-490
-1641 c77 -76 -14 -255 -131 -255 -50 0 -79 20 -94 65 -14 43 -6 88 26 138 50
77 149 103 199 52z m901 4 c33 -15 49 -32 68 -72 32 -63 33 -104 3 -148 -24
-36 -49 -45 -104 -34 -114 21 -178 202 -90 255 41 25 70 25 123 -1z"/>
<path d="M1663 4208 c-16 -29 -48 -92 -72 -141 l-42 -87 32 -28 c46 -39 59
-45 64 -30 2 7 16 53 30 102 14 50 29 94 35 100 6 6 17 -1 32 -20 13 -16 32
-39 43 -52 l20 -23 39 51 c21 28 43 49 49 47 6 -2 24 -51 41 -110 16 -59 32
-107 35 -107 14 0 81 63 81 76 0 19 -128 274 -137 274 -4 0 -31 -24 -60 -52
l-53 -53 -51 53 c-27 28 -51 52 -53 52 -2 0 -17 -24 -33 -52z"/>
<path d="M1570 3380 c-63 -8 -85 -23 -110 -75 -30 -63 -26 -174 8 -223 27 -37
42 -41 49 -12 3 11 9 20 14 20 18 0 117 70 124 87 17 41 -2 181 -28 200 -6 5
-32 6 -57 3z"/>
<path d="M1955 3356 c-16 -37 -37 -165 -30 -176 8 -13 126 -80 140 -80 7 0 20
16 30 36 21 46 16 115 -13 153 -17 22 -27 26 -66 24 -39 -1 -45 1 -35 13 7 8
29 13 60 13 54 -2 85 -23 94 -67 4 -15 8 -36 10 -47 6 -30 -14 -107 -36 -138
-23 -31 -19 -48 6 -27 72 59 60 253 -18 304 -13 9 -48 19 -76 22 -51 5 -52 4
-66 -30z"/>
<path d="M2339 3014 c-24 -29 -99 -75 -152 -93 -49 -17 -52 -20 -59 -59 -14
-85 -74 -157 -167 -201 -49 -23 -68 -26 -161 -26 -120 0 -168 16 -239 80 -52
47 -80 93 -89 146 -7 38 -11 43 -47 54 -58 17 -106 43 -142 77 -18 17 -38 28
-46 25 -26 -10 -67 -107 -67 -159 0 -43 5 -54 41 -93 25 -27 56 -49 78 -55 27
-7 42 -20 59 -50 33 -58 89 -84 164 -76 34 3 58 2 58 -4 0 -5 17 -21 37 -35
44 -30 134 -35 170 -10 19 13 25 13 50 0 15 -8 42 -18 58 -22 22 -6 -2 -9 -85
-13 -87 -5 -100 -7 -55 -10 126 -7 289 12 243 29 -15 5 -12 11 20 36 33 26 43
29 93 27 72 -5 106 13 153 76 25 34 45 51 66 55 43 9 99 65 109 109 10 45 -2
110 -30 154 -29 48 -44 57 -60 38z"/>
</g>
</svg>
