<?xml version="1.0" standalone="no"?>
<!DOCTYPE svg PUBLIC "-//W3C//DTD SVG 20010904//EN"
 "http://www.w3.org/TR/2001/REC-SVG-20010904/DTD/svg10.dtd">
<svg version="1.0" xmlns="http://www.w3.org/2000/svg"
 width="950.000000pt" height="950.000000pt" viewBox="0 0 950.000000 950.000000"
 preserveAspectRatio="xMidYMid meet">
<metadata>
Created by potrace 1.16, written by Peter Selinger 2001-2019
</metadata>
<g transform="translate(0.000000,950.000000) scale(0.100000,-0.100000)"
fill="#000000" stroke="none">
<path d="M4365 9285 c-787 -81 -1460 -324 -2100 -756 -257 -174 -455 -340
-690 -580 -693 -707 -1111 -1574 -1247 -2584 -20 -152 -23 -210 -23 -555 0
-346 3 -402 23 -555 80 -586 246 -1106 508 -1588 74 -134 192 -327 202 -327 3
0 31 22 61 48 95 82 262 205 412 304 192 126 281 183 299 192 23 11 56 31 71
43 8 5 34 22 59 35 25 14 63 35 85 48 22 12 65 36 95 52 30 17 60 34 65 38 10
7 45 27 165 93 104 57 285 145 365 177 44 17 94 38 110 46 17 8 98 43 180 78
l150 64 26 128 c15 71 39 163 54 204 15 41 36 104 47 140 11 36 32 99 46 140
25 72 26 74 35 45 6 -22 4 -41 -9 -70 -21 -47 -19 -40 -28 -90 -4 -22 -10 -48
-13 -59 -3 -12 -1 -16 6 -12 6 4 11 18 11 30 0 13 6 38 13 55 13 30 13 28 14
-42 0 -40 6 -91 13 -113 10 -32 78 -167 124 -248 10 -18 126 -189 143 -211 5
-5 15 -21 24 -35 9 -14 25 -35 35 -47 11 -11 26 -31 34 -44 8 -12 23 -29 33
-38 9 -8 17 -21 17 -28 0 -7 3 -13 8 -13 4 0 30 -29 57 -65 26 -36 50 -63 52
-61 4 3 -111 158 -142 192 -5 6 -17 22 -25 34 -8 12 -22 30 -30 40 -8 10 -21
26 -28 37 -7 10 -41 57 -75 105 -34 48 -77 116 -95 150 -32 61 -33 62 -7 33
112 -124 215 -244 277 -326 108 -141 172 -218 177 -214 2 3 -21 35 -51 72 -86
106 -163 207 -173 223 -17 30 176 -149 227 -211 62 -74 128 -144 128 -136 0 4
-16 25 -36 47 -20 22 -34 43 -31 46 10 10 76 -49 98 -86 12 -19 15 -30 9 -23
-14 13 -41 1 -73 -32 -10 -11 -16 -14 -12 -7 3 6 0 19 -9 27 -8 8 -24 27 -35
41 -12 15 -23 25 -26 23 -2 -3 10 -20 26 -38 25 -29 28 -40 23 -70 -3 -20 -11
-40 -18 -46 -10 -9 -13 -23 -19 -85 -3 -32 -32 -38 -49 -11 -7 12 -17 21 -22
21 -5 0 1 -11 14 -25 13 -14 30 -25 37 -25 8 0 12 -4 8 -9 -3 -5 0 -13 5 -16
6 -4 10 -19 9 -33 -1 -15 2 -35 6 -45 4 -9 4 -24 1 -33 -4 -9 -1 -23 5 -30 6
-8 9 -22 7 -32 -3 -10 1 -24 9 -31 8 -7 13 -22 10 -31 -3 -12 0 -17 8 -14 7 3
15 -4 18 -15 3 -12 1 -21 -4 -21 -5 0 -9 -10 -9 -22 0 -18 2 -20 10 -8 15 24
23 -11 10 -44 -9 -24 -8 -27 5 -22 10 4 15 -1 15 -15 0 -18 -5 -21 -30 -17
-23 4 -27 2 -19 -9 6 -7 15 -10 20 -7 5 3 12 -2 15 -11 6 -13 8 -14 15 -3 6 9
9 2 9 -19 0 -17 4 -35 10 -38 19 -12 10 -35 -15 -41 -18 -4 -32 -1 -45 11 -11
10 -23 16 -26 12 -3 -3 7 -13 23 -23 15 -10 39 -28 52 -41 13 -12 27 -21 31
-18 4 3 15 -17 25 -43 17 -45 26 -66 94 -216 17 -38 34 -66 38 -63 3 4 1 12
-5 19 -6 7 -20 38 -32 68 -12 30 -27 69 -35 85 -7 17 -21 50 -30 75 -9 25 -19
51 -22 58 -3 7 4 12 20 12 14 0 28 -7 31 -16 9 -22 8 -24 -11 -25 -14 0 -13
-2 5 -9 12 -5 22 -13 23 -17 3 -34 37 -119 44 -112 2 3 -3 25 -11 49 -21 59
-64 226 -64 246 0 24 41 13 51 -13 7 -19 5 -23 -11 -23 -11 0 -20 -4 -20 -10
0 -5 7 -7 16 -3 16 6 34 -12 34 -34 0 -7 -7 -13 -15 -13 -8 0 -15 -5 -15 -11
0 -6 9 -8 20 -4 15 5 20 2 21 -14 2 -22 3 -28 11 -51 3 -8 12 -35 19 -60 17
-60 54 -146 66 -153 5 -3 0 15 -13 41 -12 26 -32 83 -43 127 -12 44 -24 88
-27 98 -4 13 1 17 18 18 23 1 23 1 -2 8 -32 9 -41 51 -11 51 24 0 38 -23 51
-82 26 -121 74 -278 86 -278 3 0 3 8 -1 18 -4 9 -13 40 -21 67 -40 158 -63
242 -70 259 -6 16 -4 18 10 13 10 -4 21 -7 26 -7 8 0 54 -139 110 -330 12 -41
27 -79 33 -85 7 -7 8 -4 2 10 -10 28 -44 146 -49 170 -2 11 -18 63 -35 116
-36 113 -37 119 -12 119 15 0 24 -15 41 -72 12 -40 28 -86 36 -103 7 -16 27
-77 44 -135 35 -113 77 -216 86 -208 3 3 -5 28 -17 54 -28 63 -35 81 -48 124
-6 19 -28 89 -50 155 -23 73 -35 122 -29 126 6 4 5 8 -2 11 -20 6 -51 99 -39
114 8 9 6 11 -8 8 -24 -7 -72 84 -52 97 7 4 17 5 22 2 17 -11 74 -109 91 -158
10 -27 24 -62 32 -77 8 -15 14 -30 13 -35 -1 -4 2 -17 6 -28 5 -11 16 -40 26
-65 10 -25 18 -40 18 -33 1 22 -71 231 -95 276 -14 25 -14 28 3 34 10 3 21 8
25 10 9 5 45 -75 76 -167 49 -147 80 -247 87 -280 10 -51 55 -183 65 -194 5
-5 -2 26 -16 70 -13 43 -31 106 -40 139 -17 65 -90 298 -103 330 -33 77 -66
140 -87 164 -23 27 -24 61 -3 61 26 0 -17 40 -58 54 -58 20 -62 20 -37 1 18
-15 18 -16 0 -13 -10 2 -22 13 -27 26 -7 18 -5 22 11 22 10 0 22 -5 25 -10 3
-5 14 -10 23 -10 24 0 -16 27 -47 32 -14 1 -25 11 -27 21 -1 9 0 17 2 17 11 0
95 -43 100 -51 3 -5 10 -9 17 -9 24 0 -21 32 -90 64 -31 14 -45 36 -23 36 9 0
115 -55 135 -70 6 -4 28 -10 50 -13 39 -6 39 -6 -8 9 -39 13 -47 19 -45 36 2
12 -3 23 -10 25 -7 3 -10 -1 -6 -11 9 -24 -6 -20 -69 18 -31 19 -57 31 -57 26
0 -5 -8 -16 -17 -26 -13 -13 -14 -19 -5 -22 15 -5 16 -32 2 -32 -6 0 -13 7
-16 15 -4 9 -11 15 -18 14 -22 -3 -96 36 -95 51 0 10 2 11 6 3 2 -7 10 -13 16
-13 6 0 0 11 -12 24 -12 13 -21 27 -20 32 4 21 -2 28 -11 14 -8 -11 -9 -7 -4
15 4 17 12 33 18 37 8 5 7 14 -2 29 -13 20 -12 21 5 14 44 -18 55 -14 21 7
-21 13 -38 29 -38 36 0 17 19 15 26 -2 3 -8 12 -12 19 -10 7 3 33 -9 59 -27
25 -18 48 -30 51 -27 5 5 -107 80 -136 90 -9 4 -19 18 -21 32 -5 26 -5 26 18
11 13 -8 24 -11 24 -5 0 5 -3 10 -7 10 -5 0 -27 19 -51 41 -34 33 -40 44 -31
55 9 11 8 18 -2 31 -8 10 12 -8 44 -39 31 -32 69 -65 83 -75 15 -9 35 -31 45
-48 11 -16 19 -23 19 -15 0 8 22 -7 50 -35 28 -27 50 -57 50 -67 0 -9 5 -20
12 -24 6 -4 8 -3 4 4 -3 6 -3 13 2 16 5 3 20 -14 35 -37 18 -27 23 -43 16 -48
-8 -5 -8 -8 0 -13 6 -4 11 -2 11 3 0 18 14 13 28 -9 7 -12 9 -26 5 -33 -10
-17 -11 -47 -1 -47 4 0 8 12 8 27 l0 27 22 -21 c18 -18 19 -24 8 -37 -8 -11
-9 -16 -1 -16 6 0 11 6 11 13 0 6 11 -1 25 -18 16 -19 24 -39 22 -56 -2 -16 1
-25 7 -23 6 2 20 -9 31 -26 12 -18 29 -30 41 -30 20 0 92 -26 104 -37 2 -2 -2
-8 -10 -13 -9 -6 -10 -10 -3 -10 6 0 15 5 18 10 5 8 11 7 21 -1 19 -15 18 -33
-1 -25 -8 3 -15 1 -15 -3 0 -5 7 -12 16 -15 10 -4 14 -14 11 -26 -3 -11 0 -18
5 -17 5 1 14 -5 18 -13 9 -16 64 -151 66 -160 0 -3 10 -25 20 -50 11 -25 25
-63 32 -85 41 -139 51 -179 46 -187 -3 -4 0 -8 6 -8 15 0 5 48 -36 181 -28 94
-46 141 -84 224 -5 11 -22 47 -37 80 -15 33 -29 63 -31 68 -2 4 1 7 6 7 12 0
53 -69 72 -120 7 -19 21 -53 31 -76 11 -22 19 -44 19 -48 0 -4 9 -28 21 -53
11 -25 18 -47 15 -51 -3 -3 -2 -10 3 -16 6 -7 12 -23 15 -36 3 -14 10 -43 16
-65 6 -22 12 -46 12 -52 1 -7 4 -13 7 -13 13 0 158 156 165 178 4 12 11 22 15
22 4 0 16 19 26 43 10 23 25 50 34 60 12 15 13 32 4 106 -12 110 -44 165 -134
235 -60 47 -100 107 -76 115 14 5 170 125 195 150 9 10 38 32 64 49 46 30 48
31 58 11 13 -23 4 -43 -16 -35 -8 3 -11 0 -8 -9 3 -7 -3 -16 -13 -19 -10 -3
-33 -20 -50 -36 -37 -35 -46 -55 -10 -23 21 19 115 83 121 83 2 0 6 -9 9 -21
5 -20 -1 -28 -62 -77 -23 -17 -23 -19 -5 -26 10 -4 15 -4 12 0 -4 4 9 22 30
40 67 60 107 70 85 22 -8 -18 -6 -27 9 -42 10 -11 17 -25 15 -30 -2 -6 2 -17
10 -24 12 -12 19 -52 9 -52 -2 0 -21 29 -41 65 -33 59 -55 81 -55 55 0 -5 3
-10 8 -10 11 0 59 -81 66 -114 6 -23 9 -27 17 -15 7 11 9 11 9 -4 0 -9 -4 -25
-9 -35 -5 -9 -15 -37 -22 -62 -7 -25 -19 -56 -27 -69 -8 -13 -14 -41 -14 -61
1 -30 -4 -39 -21 -45 l-22 -8 23 -4 c33 -7 31 -53 -2 -53 -15 0 -26 7 -28 17
-4 19 -58 -84 -58 -111 0 -26 -12 -46 -24 -39 -6 4 -6 0 2 -9 11 -13 9 -26 -7
-75 -19 -57 -64 -240 -74 -298 -3 -16 -2 -39 2 -50 5 -12 10 6 15 54 3 41 9
78 13 85 4 6 8 17 9 26 3 30 62 241 69 248 11 12 4 -34 -19 -116 -38 -136 -65
-382 -45 -414 7 -11 15 112 10 162 -1 9 5 49 13 90 42 210 45 220 69 221 19 1
19 2 4 6 -16 4 -18 11 -12 50 9 64 14 73 39 74 l21 0 -21 9 c-31 12 -21 60 12
60 27 0 29 -12 14 -74 -4 -21 -14 -42 -20 -46 -8 -5 -8 -10 -2 -14 6 -3 4 -27
-5 -63 -7 -32 -16 -69 -19 -82 -3 -13 -12 -54 -20 -90 -12 -49 -17 -146 -21
-376 -3 -170 -3 -308 0 -305 3 3 8 134 11 290 6 308 7 316 35 435 11 44 25
106 32 138 11 50 15 57 36 57 30 0 29 -14 -2 -114 -13 -44 -27 -103 -30 -130
-4 -28 -8 -64 -10 -81 -6 -47 -6 -647 0 -653 3 -3 5 98 5 224 1 417 9 517 54
657 8 23 17 54 20 69 3 14 14 29 24 31 16 4 16 5 0 6 -21 1 -21 2 -8 35 13 35
56 38 46 3 -52 -178 -76 -338 -77 -515 -1 -73 2 -136 5 -139 5 -5 11 215 7
241 -10 51 79 446 100 446 5 0 6 7 3 15 -4 10 0 15 14 15 11 0 22 7 26 15 4
12 2 13 -13 6 -18 -10 -31 -6 -31 11 0 5 4 6 10 3 5 -3 7 0 4 8 -3 8 5 23 18
33 13 11 28 26 33 34 4 8 -3 5 -17 -7 -30 -28 -44 -29 -51 -3 -3 11 -1 20 4
20 11 0 89 77 89 87 0 4 -17 -10 -38 -30 -36 -36 -62 -47 -62 -28 0 5 -3 17
-7 27 -5 13 -3 16 8 12 16 -6 58 34 189 183 142 160 184 210 200 235 8 13 18
24 22 24 5 0 8 6 8 12 0 15 -24 -10 -105 -112 -33 -41 -85 -102 -116 -135 -31
-33 -71 -78 -90 -100 -54 -63 -91 -94 -105 -88 -21 8 -17 41 5 48 10 3 51 43
91 88 40 45 80 89 89 97 14 13 138 161 166 198 5 7 18 22 28 33 19 21 21 29 9
29 -4 0 -15 -12 -24 -28 -9 -15 -25 -36 -35 -47 -10 -11 -40 -47 -67 -80 -43
-54 -72 -86 -208 -232 -44 -48 -63 -53 -71 -22 -4 14 1 22 17 28 12 5 44 35
71 67 28 33 64 73 80 89 17 17 62 69 100 115 39 47 73 87 78 88 4 2 7 8 7 13
0 5 29 47 65 93 36 46 65 86 65 89 0 3 17 32 38 64 58 87 109 183 98 183 -2 0
-14 -19 -27 -43 -35 -67 -42 -78 -82 -140 -20 -31 -37 -59 -37 -62 0 -11 -218
-290 -271 -346 -17 -18 -53 -59 -82 -92 -96 -111 -127 -131 -127 -82 0 14 4
25 9 25 11 0 91 79 91 90 0 4 -20 -13 -45 -37 -24 -25 -49 -42 -55 -38 -21 13
-9 43 30 74 22 17 45 42 51 54 7 12 -7 2 -31 -22 -40 -41 -44 -43 -56 -26 -20
26 -18 33 14 49 25 13 82 75 82 90 0 3 -19 -15 -41 -39 -23 -25 -48 -45 -55
-45 -23 0 -17 48 8 61 26 14 46 38 163 191 147 193 201 268 191 268 -3 0 -40
-48 -83 -107 -176 -244 -268 -353 -295 -353 -14 0 -9 50 6 56 13 5 82 84 73
84 -2 0 -20 -16 -41 -36 -20 -19 -41 -32 -46 -29 -18 11 -10 44 14 60 12 8 50
52 82 98 32 45 95 129 140 187 44 58 111 149 147 203 67 98 161 266 154 274
-3 2 -24 -34 -47 -79 -24 -46 -47 -85 -52 -86 -4 -2 -8 -8 -8 -13 0 -18 -289
-422 -321 -449 -3 -3 -12 -16 -19 -29 -19 -36 -91 -111 -101 -105 -19 11 -7
47 27 82 20 20 40 46 46 57 5 11 -9 -1 -32 -28 -46 -53 -56 -56 -65 -26 -5 15
1 30 23 53 16 17 71 87 121 156 51 69 99 134 107 145 8 11 51 74 94 140 44 66
83 125 88 130 4 6 16 28 26 50 10 22 27 57 38 77 10 21 16 38 13 38 -2 0 -16
-24 -31 -52 -48 -96 -128 -226 -216 -348 -49 -68 -172 -234 -178 -240 -3 -3
-18 -24 -33 -48 -32 -49 -67 -58 -67 -17 0 14 9 30 20 37 11 7 20 16 20 21 0
4 17 29 38 56 20 26 44 58 52 71 18 27 86 121 98 135 4 6 45 66 90 135 45 69
85 130 89 135 16 19 106 211 130 275 13 36 30 79 38 95 27 61 41 126 44 210 2
38 4 45 11 30 5 -11 9 -35 9 -52 1 -18 5 -33 9 -33 5 0 5 21 1 47 -15 85 -22
153 -16 153 22 0 105 -184 157 -345 56 -177 51 -168 111 -189 30 -10 86 -25
124 -33 39 -8 95 -24 125 -35 30 -11 118 -42 195 -68 138 -48 169 -57 410
-120 66 -17 161 -44 210 -59 50 -16 164 -52 255 -81 289 -90 652 -211 745
-247 109 -43 344 -155 397 -190 21 -14 40 -24 42 -22 2 2 24 56 49 119 136
346 224 691 279 1095 20 153 23 209 23 555 0 346 -3 402 -23 555 -97 715 -323
1331 -698 1903 -173 264 -326 453 -549 681 -250 255 -442 414 -730 606 -599
398 -1222 626 -1965 721 -173 22 -766 28 -945 9z m-312 -1048 c4 3 7 -2 7 -13
0 -11 3 -15 8 -8 14 22 41 11 48 -18 3 -16 4 -32 1 -35 -8 -7 14 -63 25 -63 5
0 7 -3 5 -8 -3 -4 5 -20 18 -36 17 -21 28 -27 42 -21 17 7 17 7 0 14 -11 4
-29 29 -43 56 l-23 49 28 -29 c16 -17 24 -32 19 -33 -5 -2 -4 -10 2 -17 6 -8
17 -12 24 -9 8 3 20 -1 27 -9 8 -7 23 -19 34 -25 20 -11 20 -12 -2 -18 -26 -7
-21 -24 7 -24 10 0 20 -7 24 -15 3 -8 16 -15 28 -14 13 0 17 3 11 6 -18 7 -16
23 2 23 8 0 15 -5 15 -10 0 -6 8 -13 18 -17 9 -3 26 -13 36 -22 15 -12 20 -13
23 -3 3 8 9 10 16 4 16 -12 73 -23 81 -15 8 8 109 7 137 -2 12 -4 24 -2 28 4
5 7 21 5 51 -5 43 -15 250 -27 250 -15 0 3 19 6 43 5 23 0 51 4 62 9 11 6 26
13 34 17 22 10 25 30 6 30 -12 0 -15 5 -11 16 3 9 6 20 6 25 0 6 5 7 10 4 6
-3 11 4 11 17 l2 23 4 -22 c5 -29 23 -30 23 -2 0 11 5 17 10 14 6 -4 9 -13 8
-22 -4 -21 82 -48 95 -30 7 9 10 9 13 0 3 -7 12 -9 20 -6 8 3 14 0 14 -6 0 -6
7 -11 16 -11 10 0 14 6 11 14 -8 20 35 30 49 11 6 -8 17 -15 25 -14 10 0 11 2
2 6 -7 2 -13 9 -13 15 0 6 7 7 16 4 9 -4 23 -1 30 5 11 9 14 8 14 -5 0 -9 -8
-17 -17 -17 -10 -1 -4 -5 12 -8 17 -4 34 -4 39 0 5 4 14 3 20 -2 6 -5 25 -20
42 -34 18 -14 42 -25 55 -25 49 0 70 -11 63 -33 -5 -16 -3 -19 12 -13 34 13
39 11 42 -16 3 -25 22 -41 22 -19 0 4 11 6 25 3 26 -5 35 -36 13 -45 -8 -3 -6
-6 4 -6 10 -1 24 -13 32 -28 8 -16 15 -22 16 -15 0 7 5 10 11 7 6 -5 4 -11 -7
-19 -20 -15 -10 -61 12 -52 8 3 14 2 14 -3 0 -4 9 -18 20 -31 11 -13 20 -29
20 -37 0 -23 1 -28 11 -39 5 -7 12 -25 14 -40 2 -16 10 -49 16 -74 6 -25 11
-53 11 -62 0 -11 4 -15 15 -11 12 5 14 3 8 -8 -12 -19 -14 -49 -3 -55 5 -3 4
-12 -2 -19 -8 -9 -5 -22 11 -49 11 -20 16 -36 10 -36 -6 0 -11 5 -11 10 0 6
-4 10 -10 10 -5 0 -7 -7 -4 -15 4 -8 1 -15 -6 -15 -6 0 -8 -5 -5 -10 4 -6 10
-8 14 -5 5 2 16 -4 25 -14 17 -19 17 -20 -6 -24 l-23 -4 22 -8 c13 -4 20 -12
17 -17 -8 -12 16 -71 33 -81 7 -5 11 -12 8 -18 -4 -5 -1 -9 4 -9 6 0 10 -3 9
-7 -1 -5 4 -18 11 -31 7 -13 10 -30 7 -38 -3 -9 -1 -12 4 -9 6 3 11 -3 11 -14
2 -33 4 -39 12 -47 4 -4 7 -18 7 -30 0 -13 4 -25 8 -28 5 -3 7 -19 6 -35 -1
-17 3 -31 8 -31 6 0 8 -6 5 -14 -3 -8 1 -20 9 -26 8 -7 14 -22 14 -33 0 -18
-2 -18 -20 6 -11 14 -20 30 -20 36 0 18 -37 31 -89 31 -50 0 -50 0 -70 45 -17
39 -28 49 -76 70 -31 14 -64 25 -74 25 -10 0 -32 7 -47 15 -16 8 -36 15 -44
15 -8 0 -22 5 -30 11 -13 9 -12 10 3 5 10 -3 15 -2 12 4 -3 5 -19 7 -35 3 -19
-3 -30 -1 -30 5 0 6 -7 9 -15 6 -8 -4 -15 -2 -15 4 0 16 -57 25 -81 12 -17 -9
-23 -9 -29 0 -5 7 -15 10 -24 7 -10 -4 -16 -1 -16 8 0 19 -12 25 -57 30 -93
11 -113 17 -113 32 0 13 -2 13 -16 2 -14 -11 -18 -10 -30 6 -14 19 -16 19 -60
3 -36 -13 -44 -13 -40 -2 6 17 -10 28 -20 13 -5 -8 -9 -7 -15 2 -5 9 -13 4
-26 -19 -23 -40 -33 -41 -33 -2 0 17 -4 30 -9 30 -15 0 -33 -29 -28 -45 11
-27 -12 -26 -26 2 l-15 27 -7 -33 c-4 -19 -10 -30 -14 -25 -3 5 -13 10 -21 11
-8 1 -26 5 -40 9 -22 7 -23 6 -12 -8 16 -20 1 -32 -28 -23 -16 5 -19 3 -14
-10 5 -12 2 -16 -12 -13 -15 2 -18 -2 -16 -21 2 -20 0 -22 -13 -11 -20 17 -19
1 2 -22 11 -13 14 -22 7 -26 -6 -4 -11 -15 -11 -25 0 -12 6 -16 19 -11 13 4
16 1 12 -10 -5 -12 -2 -15 11 -10 10 4 5 -5 -12 -25 -25 -27 -39 -32 -103 -41
-110 -14 -253 -13 -274 3 -16 12 -15 13 10 12 25 0 28 4 30 33 1 23 -2 32 -11
28 -7 -2 -12 1 -12 7 1 44 -4 89 -10 84 -3 -4 -17 0 -30 8 -17 12 -23 12 -23
3 0 -9 -3 -8 -10 2 -8 13 -11 13 -19 1 -7 -11 -10 -10 -15 5 -4 14 -16 19 -47
20 -24 0 -44 6 -50 15 -7 11 -9 11 -9 -5 0 -15 -3 -16 -15 -6 -8 7 -21 10 -29
7 -7 -3 -17 -2 -22 3 -5 4 -24 11 -41 15 -28 6 -32 4 -27 -10 5 -13 2 -15 -20
-9 -16 4 -26 2 -26 -5 0 -7 -28 -11 -79 -11 -76 0 -79 -1 -73 -22 4 -17 2 -20
-11 -15 -10 3 -26 3 -37 -1 -18 -7 -18 -10 -5 -35 13 -25 12 -27 -8 -32 -25
-5 -57 -8 -74 -6 -7 0 -24 13 -38 28 -20 22 -25 24 -25 10 0 -9 4 -17 8 -17 5
0 9 -7 9 -15 0 -10 -10 -15 -29 -15 -16 0 -27 4 -23 10 3 5 13 6 23 3 13 -4
12 -1 -5 16 -24 23 -43 27 -43 10 0 -6 -9 -8 -20 -4 -11 4 -20 2 -20 -4 0 -6
6 -11 13 -12 9 0 9 -2 -1 -6 -6 -2 -10 -9 -6 -14 3 -6 -7 -7 -26 -4 -19 3 -29
2 -25 -4 3 -6 -14 -15 -37 -21 -90 -23 -168 -52 -192 -71 -14 -11 -31 -37 -37
-58 -11 -38 -13 -39 -70 -45 -54 -6 -60 -9 -75 -42 -26 -55 -36 -52 -32 11 2
31 6 59 10 61 3 2 4 13 1 23 -3 11 3 40 12 65 9 24 14 49 11 55 -4 5 3 16 14
24 18 13 19 15 5 21 -9 3 -13 11 -9 17 4 8 9 7 16 -2 7 -10 8 -9 4 5 -4 10 -2
24 4 31 6 7 10 17 9 21 -3 19 14 54 27 54 7 0 16 5 20 11 4 8 -1 9 -16 4 -16
-5 -21 -4 -18 6 3 8 10 14 16 14 7 0 12 5 11 10 0 6 -6 9 -14 9 -25 -3 -3 25
25 31 22 5 30 13 32 33 2 17 8 26 17 24 12 -3 12 0 1 12 -8 11 -9 16 -1 16 6
0 11 14 11 30 0 34 -6 36 -37 15 -18 -13 -22 -13 -26 0 -4 10 -1 12 10 8 12
-5 14 -1 8 15 -7 23 10 31 18 10 4 -9 6 -7 6 3 1 9 -9 21 -21 28 -13 6 -16 10
-7 7 16 -4 39 11 39 26 0 4 -10 8 -22 8 -20 0 -20 1 -5 18 22 24 22 43 0 35
-16 -6 -15 -3 2 17 16 18 17 24 6 28 -11 4 -11 6 0 13 11 7 10 9 -3 9 -10 0
-18 5 -18 10 0 14 23 13 38 -2 9 -9 12 -9 12 0 0 7 -5 12 -11 12 -6 0 -9 7 -6
14 4 10 1 13 -9 9 -12 -4 -13 -1 -5 20 5 14 7 28 3 33 -4 4 1 4 12 0 15 -5 17
-2 13 14 -3 11 -1 20 4 20 5 0 9 10 9 21 0 19 2 20 17 8 15 -12 16 -12 10 4
-16 40 -19 52 -10 39 5 -7 17 -10 26 -6 13 5 17 1 17 -17 0 -20 -2 -21 -11 -9
-9 12 -10 12 -5 -3 3 -10 6 -25 6 -33 0 -8 4 -14 10 -14 5 0 7 6 4 13 -3 8 2
20 11 27 8 7 15 19 15 26 0 8 5 14 11 14 6 0 8 -9 3 -22 -4 -13 -7 -31 -6 -42
0 -10 -6 -29 -15 -43 -12 -18 -13 -27 -5 -35 8 -8 8 -14 -3 -22 -8 -6 -16 -24
-20 -41 -3 -16 -2 -23 1 -15 4 8 16 28 26 43 11 15 22 49 24 75 5 58 11 75 24
67 5 -3 12 7 16 22 4 15 11 30 15 33 13 9 22 60 10 60 -6 0 -11 -6 -11 -14 0
-8 -8 -13 -17 -12 -31 5 -21 40 12 47 l30 7 -33 1 c-29 1 -31 3 -23 20 6 10 7
22 3 26 -4 5 -2 5 5 1 7 -4 14 3 19 16 3 12 12 28 20 35 10 11 13 10 16 -2 2
-10 7 -6 15 11 10 22 10 25 -3 20 -7 -3 -14 -1 -14 4 0 10 12 13 40 11 10 0
11 1 3 5 -7 3 -13 13 -13 21 0 11 3 13 13 5 8 -7 18 -5 35 8 12 10 22 22 22
26 0 4 -9 -1 -20 -11 -18 -16 -20 -16 -20 -2 0 9 9 21 20 27 12 6 20 7 20 1 0
-5 10 -4 24 2 13 7 22 15 20 19 -8 12 66 78 87 78 10 0 21 5 25 11 4 8 -1 9
-17 4 -21 -7 -22 -6 -10 9 14 17 40 18 54 1 5 -5 5 0 2 12 -5 18 -3 22 9 17 9
-3 16 -1 16 6 0 14 26 41 37 38 13 -4 73 45 73 60 0 9 7 11 22 7 17 -6 20 -4
14 10 -5 14 -4 16 7 7 8 -7 17 -9 20 -5z m1594 -1363 c13 -4 20 -11 16 -20 -3
-9 6 -19 25 -27 25 -10 28 -15 21 -35 -6 -17 -5 -22 7 -22 8 0 13 4 10 9 -7
10 47 1 54 -9 3 -4 13 3 23 16 19 26 9 31 -24 13 -15 -8 -24 -7 -35 2 -16 13
-14 33 4 35 44 5 46 6 19 14 -15 5 -41 7 -58 5 -16 -2 -27 0 -24 5 10 17 212
-4 256 -26 40 -20 56 -54 70 -141 13 -89 1 -260 -23 -310 -33 -70 -202 -104
-508 -103 -396 0 -435 12 -508 156 -26 51 -28 62 -17 78 15 20 11 39 -19 78
-49 62 -56 73 -56 85 0 23 20 14 21 -9 0 -22 1 -22 9 -3 6 17 8 15 11 -14 3
-26 9 -35 26 -37 12 -2 26 -5 30 -6 4 -1 19 4 32 11 23 13 23 13 7 -10 -21
-31 -22 -57 -1 -39 12 10 15 10 15 -1 0 -8 6 -5 14 7 12 15 17 17 27 7 10 -10
7 -22 -19 -59 -24 -33 -30 -49 -23 -58 6 -7 7 -17 3 -21 -4 -5 -2 -5 5 -1 6 3
15 2 18 -4 5 -8 11 -8 20 0 10 8 17 6 27 -7 14 -20 64 -24 60 -5 -1 7 2 12 8
12 13 0 31 -36 22 -45 -4 -4 0 -6 8 -3 8 3 14 13 14 22 -2 22 3 20 32 -11 14
-16 30 -29 35 -29 5 -1 16 -2 24 -3 8 0 14 -6 13 -12 -2 -6 3 -14 11 -17 10
-3 12 0 8 12 -4 9 -2 26 4 38 9 22 9 22 6 -4 -3 -21 0 -26 15 -25 13 1 16 7
12 20 -6 18 -5 18 15 0 23 -19 81 -20 92 -1 4 7 13 6 27 -1 34 -18 47 -13 26
10 -24 26 -6 40 44 32 30 -5 34 -4 29 10 -5 13 -1 16 16 14 13 -1 21 3 19 11
-1 6 2 12 6 12 4 0 14 -6 21 -12 11 -11 11 -9 2 10 -10 19 -18 22 -44 17 -20
-4 -27 -3 -19 3 7 5 10 16 6 26 -6 16 -3 17 17 11 13 -4 34 -13 46 -21 12 -8
30 -14 38 -14 9 0 23 -7 31 -15 9 -8 23 -15 32 -15 15 0 15 2 2 10 -13 8 -13
10 2 10 10 0 16 7 15 19 0 11 -4 18 -8 15 -15 -9 -19 15 -4 29 17 18 20 63 4
72 -6 4 -8 13 -5 20 5 14 -24 45 -42 45 -7 0 -12 -7 -12 -15 0 -22 -31 -18
-37 5 -3 11 -10 20 -16 20 -5 0 -26 12 -45 26 -27 21 -31 29 -21 36 11 8 10 9
-2 5 -9 -3 -45 4 -80 15 -47 15 -94 21 -176 22 -94 1 -115 4 -132 20 -13 12
-21 14 -21 7 0 -7 -5 -9 -12 -5 -8 5 -6 11 5 19 9 7 14 15 11 18 -26 26 359
44 443 21z m-1577 -59 c7 -8 20 -15 29 -14 10 0 11 2 4 6 -7 2 -13 9 -13 15 0
6 8 4 18 -5 10 -10 30 -17 45 -17 14 0 30 -8 36 -17 10 -19 61 -25 73 -8 21
30 81 -6 71 -43 -5 -22 -23 -31 -23 -13 0 6 -18 9 -40 7 -29 -2 -40 1 -40 11
0 8 -4 12 -9 9 -4 -3 -53 -7 -107 -10 -182 -8 -303 -52 -404 -147 -19 -19 -38
-32 -42 -31 -5 1 -8 -3 -8 -9 0 -7 -7 -17 -17 -24 -10 -7 -13 -17 -8 -25 6
-10 12 -7 26 11 15 20 19 21 19 7 0 -10 -4 -18 -9 -18 -5 0 -11 -9 -14 -20 -3
-12 -14 -20 -26 -20 -12 0 -21 -6 -21 -15 0 -18 21 -20 38 -3 9 9 12 9 12 0 0
-7 -16 -22 -35 -33 -19 -12 -35 -24 -35 -28 0 -12 70 -3 105 13 38 18 42 25
23 44 -9 9 -1 12 33 12 68 1 93 4 108 14 8 5 16 4 21 -4 4 -7 13 -10 19 -6 6
4 19 2 30 -4 11 -5 44 -12 73 -14 29 -2 55 -5 57 -5 2 -1 -2 -8 -9 -16 -10
-11 -10 -18 -1 -29 10 -12 6 -15 -19 -21 -16 -4 -28 -10 -25 -14 6 -10 -76
-29 -114 -26 -16 2 -32 -3 -34 -9 -8 -21 301 -5 314 16 4 7 14 6 28 -1 13 -7
21 -8 21 -2 0 6 6 8 14 5 7 -3 16 2 20 11 3 9 10 13 16 10 14 -8 80 25 80 40
0 7 7 15 15 19 8 3 15 14 15 25 0 14 5 19 14 15 13 -5 11 -15 -10 -62 -45
-105 -86 -127 -302 -157 -215 -31 -581 -28 -643 6 -43 22 -71 145 -70 305 0
125 14 165 68 192 48 25 107 41 175 48 73 8 81 9 98 17 27 11 154 24 251 26
75 1 99 -2 109 -14z m1458 -75 c45 -24 97 -69 88 -77 -3 -3 -12 0 -20 6 -9 8
-30 11 -51 8 -20 -3 -41 0 -48 7 -7 6 -25 12 -42 13 -68 4 -135 16 -135 25 0
5 10 13 23 18 20 8 21 9 2 11 -14 1 -12 4 10 10 44 12 131 1 173 -21z m-721
-31 c21 -7 33 -18 38 -36 3 -14 4 -28 0 -31 -3 -3 -5 0 -5 8 0 9 -3 10 -13 1
-8 -6 -16 -8 -19 -5 -3 3 -8 -9 -10 -25 -5 -34 21 -141 46 -186 9 -16 16 -35
16 -41 0 -6 9 -22 19 -36 11 -13 23 -37 26 -51 4 -15 12 -27 17 -27 6 0 8 -7
4 -15 -3 -10 1 -15 12 -16 14 -1 14 -2 -2 -6 -14 -4 -16 -7 -6 -13 7 -5 13
-23 13 -40 0 -22 10 -43 30 -64 44 -48 74 -97 81 -136 4 -25 3 -31 -4 -20 -8
12 -10 9 -10 -13 0 -19 -4 -27 -12 -23 -7 3 -21 9 -30 12 -10 4 -18 12 -18 20
0 8 -6 11 -15 8 -13 -5 -14 -2 -5 21 8 20 7 31 -2 42 -17 21 -21 86 -5 77 7
-4 8 -3 4 2 -5 5 -13 9 -17 9 -5 0 -16 9 -24 20 -15 20 -15 20 -16 -3 0 -13
-4 -21 -9 -18 -4 3 -29 -8 -55 -24 -26 -17 -55 -30 -66 -30 -10 0 -22 -4 -25
-10 -3 -5 -20 -10 -36 -10 -17 0 -28 4 -24 10 6 9 -3 8 -42 -6 -44 -16 -81
-11 -94 13 -7 13 -19 21 -26 19 -7 -3 -17 2 -22 11 -7 14 -10 13 -16 -6 -3
-12 -19 -36 -35 -53 -23 -25 -27 -35 -19 -51 6 -10 8 -21 5 -25 -3 -3 -6 0 -6
6 0 7 -7 12 -16 12 -12 0 -15 -7 -12 -25 3 -13 2 -22 -3 -20 -4 3 -10 1 -13
-4 -4 -6 -18 -6 -35 -1 -16 4 -33 5 -37 2 -4 -4 -4 15 0 43 4 36 14 58 36 80
17 17 30 36 30 43 0 7 5 12 11 12 22 0 2 25 -22 27 -22 1 -26 -4 -37 -50 -6
-29 -21 -60 -32 -69 -11 -9 -26 -27 -33 -40 -31 -58 -64 -98 -84 -103 -13 -3
-23 -13 -23 -23 0 -10 -22 -40 -50 -67 -27 -27 -50 -57 -50 -67 0 -10 -5 -18
-11 -18 -6 0 -9 -7 -5 -15 3 -8 0 -15 -7 -15 -9 0 -9 -2 0 -8 10 -6 10 -12 -2
-28 -8 -10 -15 -27 -15 -36 0 -28 -20 -21 -20 7 0 14 -4 25 -10 25 -5 0 -9 -8
-8 -17 5 -69 -4 -90 -67 -139 -20 -15 -20 -15 4 -10 18 4 21 2 12 -7 -6 -6
-11 -19 -11 -30 0 -10 -5 -15 -10 -12 -6 3 -13 -2 -17 -12 -4 -10 -13 -23 -21
-29 -15 -11 -24 -144 -10 -144 12 0 10 -38 -2 -45 -12 -7 -14 -36 -2 -33 13 5
49 -27 54 -49 3 -13 2 -21 -4 -20 -6 1 -12 -10 -13 -25 -3 -20 0 -25 11 -21
12 4 13 0 4 -22 -9 -23 -8 -26 5 -21 10 3 20 -5 30 -24 19 -36 19 -40 0 -40
-8 0 -15 -4 -15 -10 0 -5 5 -10 10 -10 6 0 10 -5 10 -11 0 -6 6 -17 14 -25 13
-12 17 -12 30 1 8 8 22 15 30 15 9 0 16 5 16 10 0 6 -5 10 -11 10 -5 0 -7 5
-4 10 4 6 1 18 -6 26 -6 8 -9 17 -5 21 3 3 6 1 6 -5 0 -7 5 -12 10 -12 6 0 10
6 10 13 0 7 8 13 18 14 9 1 34 6 55 11 31 8 39 7 44 -4 4 -10 12 -12 27 -8 18
6 19 5 7 -10 -7 -9 -9 -16 -3 -16 11 0 24 26 26 50 1 8 9 16 19 18 12 3 17 -3
17 -20 1 -22 1 -22 15 -4 13 17 15 18 21 2 6 -15 7 -15 20 1 8 11 13 13 14 6
0 -8 13 -13 30 -13 22 0 28 4 24 15 -4 9 0 15 10 15 8 0 20 9 26 20 12 22 73
29 85 9 4 -6 13 -8 21 -5 8 3 14 2 14 -2 0 -4 12 -15 26 -26 26 -18 26 -18 19
3 -7 25 18 30 40 8 14 -14 188 -18 201 -4 10 10 26 9 20 -2 -3 -5 4 -9 17 -9
12 0 31 -3 43 -7 13 -4 26 -1 35 8 16 15 119 31 119 17 0 -4 -6 -10 -12 -13
-10 -4 -10 -7 0 -18 16 -18 15 -29 -3 -29 -8 0 -15 -4 -15 -8 0 -5 -16 -17
-35 -28 -39 -21 -41 -26 -21 -43 10 -9 16 -9 21 -1 5 8 11 7 21 -1 12 -10 15
-10 12 2 -2 8 7 15 20 17 15 2 22 -2 22 -13 0 -9 5 -13 10 -10 8 5 7 12 -2 22
-10 12 -9 17 5 24 9 6 17 22 17 37 0 15 4 23 8 17 4 -5 17 -10 30 -11 17 0 21
4 16 18 -6 21 6 24 25 6 11 -11 13 -9 9 7 -4 18 0 21 28 22 19 0 31 -3 28 -8
-3 -5 0 -9 5 -9 24 0 9 -19 -24 -30 -36 -12 -39 -30 -4 -30 10 0 19 -4 19 -9
0 -5 7 -11 14 -14 10 -4 13 -1 9 9 -5 14 7 18 36 14 9 -1 12 4 8 14 -4 10 -1
16 8 16 8 0 15 7 15 15 0 16 12 20 23 8 4 -3 2 -12 -4 -20 -9 -10 -8 -13 1
-13 9 0 10 -10 6 -35 -6 -28 -4 -35 9 -35 9 0 13 -5 10 -10 -4 -6 -11 -8 -16
-5 -5 4 -9 -3 -9 -14 0 -11 -4 -23 -10 -26 -6 -3 -7 1 -4 9 6 17 -7 22 -20 9
-8 -8 -13 -10 -46 -12 -11 0 -20 -5 -20 -11 0 -5 6 -7 13 -5 21 8 35 -9 42
-53 6 -41 -6 -59 -19 -26 -4 10 -12 14 -22 10 -8 -3 -25 -1 -36 5 -15 8 -19 8
-13 -1 13 -21 13 -60 -1 -60 -8 0 -11 -7 -7 -17 3 -10 -13 2 -35 27 -23 25
-41 40 -42 33 0 -6 7 -18 15 -27 17 -17 20 -36 5 -36 -6 0 -6 -9 0 -25 7 -20
6 -25 -5 -25 -8 0 -14 3 -13 8 4 16 -14 52 -26 52 -8 0 -19 7 -26 15 -13 15
-35 11 -25 -6 4 -5 1 -9 -4 -9 -6 0 -11 6 -11 13 0 14 -33 57 -43 57 -14 0
-15 -34 -1 -56 26 -39 10 -38 -21 2 -15 20 -24 39 -19 43 5 3 15 18 21 33 10
21 9 26 0 22 -23 -8 -40 -63 -29 -89 7 -14 7 -34 2 -52 -7 -23 -8 -24 -9 -6
-1 12 -5 25 -11 28 -12 7 -14 -37 -2 -51 5 -5 13 -21 19 -35 11 -25 10 -26
-12 -15 -13 6 -22 12 -20 14 6 6 -18 66 -31 79 -7 7 -10 22 -7 33 4 14 0 20
-10 20 -10 0 -13 6 -10 21 4 15 8 17 14 8 14 -23 20 -3 8 25 -9 19 -16 23 -24
16 -7 -6 -29 -8 -49 -5 l-36 6 0 -38 c0 -22 -7 -48 -15 -59 -17 -23 -20 -5 -4
30 10 20 9 28 -5 42 -9 9 -20 13 -24 10 -3 -4 -1 -10 6 -14 9 -6 9 -17 0 -47
-6 -22 -10 -46 -9 -54 1 -7 -2 -10 -9 -6 -6 4 -9 28 -8 57 3 58 -14 75 -31 31
l-11 -28 4 31 c4 25 1 33 -13 37 -16 4 -17 0 -11 -28 4 -18 11 -39 16 -46 6
-10 3 -10 -11 1 -17 14 -18 14 -7 -7 9 -17 9 -22 -3 -26 -9 -4 -12 -1 -8 9 8
21 -6 17 -32 -8 -35 -35 -52 -47 -58 -42 -3 3 8 19 24 37 32 35 37 49 14 41
-8 -4 -15 -10 -15 -15 0 -5 -5 -9 -11 -9 -15 0 -59 -51 -59 -67 0 -7 -4 -13
-10 -13 -5 0 -10 -9 -10 -19 0 -20 -52 -45 -66 -33 -4 4 -5 0 -2 -9 3 -8 -1
-25 -11 -37 -14 -19 -18 -19 -35 -6 -11 7 -16 14 -11 14 10 0 -26 29 -37 30
-4 0 -3 -12 3 -26 11 -30 3 -46 -11 -24 -8 12 -10 11 -10 -6 0 -25 -18 -44
-42 -44 -11 0 -18 7 -18 20 0 11 -7 20 -15 20 -19 0 -19 9 2 32 9 11 11 18 5
18 -7 0 -12 7 -12 15 0 18 -12 19 -28 3 -8 -8 -12 -8 -12 -1 0 21 28 35 49 24
28 -15 51 -14 45 3 -6 17 12 31 21 16 3 -5 17 -10 31 -10 13 0 24 -4 24 -10 0
-5 16 -10 36 -10 28 0 35 3 30 15 -6 17 19 21 29 5 11 -18 23 -10 30 20 4 17
11 30 16 30 6 0 8 4 5 8 -3 5 3 18 14 29 10 12 16 24 13 27 -3 3 -16 -5 -28
-19 -13 -13 -25 -22 -27 -19 -3 2 -15 -7 -28 -21 -13 -14 -29 -25 -37 -25 -7
0 -13 -4 -13 -8 0 -12 -58 -13 -66 -1 -3 5 -2 9 3 8 24 -4 45 4 70 27 l28 26
-38 -21 c-46 -25 -54 -26 -33 -5 23 22 20 43 -4 37 -12 -3 -20 -14 -20 -27 -1
-21 -1 -21 -15 -2 -15 19 -15 19 -15 -1 0 -12 -4 -25 -10 -28 -6 -3 -7 1 -4 9
3 9 2 16 -4 16 -15 0 -34 -28 -27 -40 4 -6 -6 -10 -24 -10 -21 0 -32 6 -36 20
-8 24 -28 16 -21 -8 3 -10 -1 -28 -9 -42 -8 -14 -14 -20 -15 -13 0 9 -8 8 -27
-3 -16 -7 -34 -14 -42 -14 -25 0 18 39 47 42 28 3 44 28 18 28 -9 0 -16 -4
-16 -8 0 -4 -8 -9 -17 -10 -10 -1 -40 -5 -67 -8 -35 -4 -47 -3 -42 5 4 6 12 9
17 6 12 -8 11 2 -1 26 -6 10 -17 19 -25 19 -8 0 -15 5 -15 10 0 6 5 10 11 10
5 0 8 4 4 9 -3 5 5 13 17 17 13 4 34 15 47 26 24 18 25 18 43 -1 10 -11 18
-27 18 -36 0 -8 7 -15 15 -15 19 0 19 -2 -5 45 -17 33 -18 41 -6 43 12 3 12 6
-2 21 -11 11 -20 14 -25 7 -4 -7 -17 1 -35 22 -29 34 -45 42 -36 17 4 -8 1
-15 -5 -15 -6 0 -11 5 -11 10 0 6 -4 10 -10 10 -5 0 -10 -7 -10 -15 0 -8 -4
-15 -10 -15 -5 0 -10 -4 -10 -10 0 -5 7 -10 15 -10 8 0 15 4 15 9 0 13 27 7
70 -15 43 -22 22 -31 -28 -12 -22 9 -49 12 -68 8 -28 -6 -30 -5 -26 17 7 37
-11 27 -33 -19 -13 -27 -21 -36 -23 -25 -3 13 -11 16 -35 12 -22 -4 -28 -2
-17 4 8 5 18 7 22 5 4 -3 8 4 8 14 0 21 -22 45 -34 37 -3 -3 -2 1 4 7 13 16
13 51 0 43 -15 -9 -12 7 5 31 11 17 12 29 3 60 -11 41 -25 57 -45 49 -16 -6
-17 7 -1 23 7 7 8 12 2 12 -5 0 -15 -5 -21 -11 -9 -9 -11 -2 -8 27 5 39 5 39
-11 14 -15 -24 -15 -24 -9 18 3 29 2 41 -5 37 -6 -4 -10 6 -11 22 -1 17 -3 21
-6 10 -2 -9 -9 -14 -15 -11 -6 4 -8 -2 -3 -16 5 -15 4 -20 -4 -16 -14 9 -14
51 0 77 6 11 8 25 5 32 -2 7 -8 2 -11 -10 -4 -13 -11 -23 -16 -23 -5 0 -9 -7
-9 -16 0 -8 -4 -13 -9 -10 -5 3 -12 -1 -15 -9 -4 -13 -10 -14 -26 -5 -12 6
-20 7 -20 1 0 -5 5 -11 12 -13 9 -3 9 -6 0 -12 -7 -4 -14 3 -18 20 -4 17 -2
29 7 35 7 4 10 11 7 14 -4 4 -15 -3 -25 -14 -9 -12 -21 -21 -26 -21 -5 0 -4 7
3 15 6 8 9 23 5 35 -5 17 -10 19 -21 9 -11 -9 -14 -7 -14 9 0 12 10 28 22 36
12 9 17 16 11 16 -6 0 -16 -7 -23 -15 -11 -13 -15 -13 -21 -3 -7 10 -9 10 -9
1 0 -21 -31 -15 -37 7 -6 22 -31 28 -30 8 1 -32 -4 -45 -18 -45 -20 0 -19 14
3 26 13 8 14 12 5 22 -10 10 -16 9 -27 -7 -8 -10 -18 -16 -22 -11 -4 4 -2 7 4
7 6 0 14 20 18 45 3 25 11 45 16 45 5 0 6 5 3 11 -5 6 -13 3 -22 -10 -8 -12
-19 -18 -25 -15 -6 4 -8 2 -5 -3 4 -6 -1 -17 -10 -24 -10 -8 -14 -9 -10 -2 4
6 3 14 -3 18 -5 3 -10 1 -10 -6 0 -7 -3 -10 -6 -7 -3 4 2 17 11 31 9 15 12 28
7 31 -6 3 -12 -1 -16 -9 -3 -8 -11 -15 -17 -15 -12 0 -8 50 6 83 7 17 6 18
-13 6 -11 -7 -19 -16 -16 -20 2 -4 -4 -6 -14 -5 -9 0 -16 -5 -14 -11 1 -7 -2
-13 -8 -13 -18 0 -10 27 13 44 l22 17 -30 -5 c-28 -5 -28 -5 -7 6 12 6 22 17
22 25 0 24 -31 26 -62 3 -30 -22 -51 -23 -24 -1 10 9 12 20 6 41 -4 16 -6 31
-2 34 3 3 0 6 -5 6 -6 0 -13 -3 -16 -7 -2 -5 -2 -1 1 7 13 39 14 73 3 66 -6
-4 -11 -3 -11 3 0 5 -9 13 -20 16 -11 3 -20 11 -20 17 0 7 5 7 14 -1 10 -9 15
-8 20 4 3 8 0 15 -6 15 -7 0 -5 7 4 18 27 31 31 42 12 35 -12 -4 -15 -3 -10 5
4 6 9 25 11 41 3 24 0 29 -13 24 -12 -5 -14 -2 -9 11 6 15 3 17 -13 13 -22 -6
-28 8 -7 17 7 4 8 8 2 11 -6 3 -10 36 -9 78 1 39 -2 77 -7 83 -10 12 -6 64 5
83 4 6 2 11 -4 11 -6 0 -8 5 -5 10 4 6 10 8 14 6 4 -3 8 1 8 9 0 8 -4 12 -9 9
-13 -9 -9 6 7 22 11 11 12 20 5 34 -13 24 -13 43 -1 35 6 -3 10 3 10 12 -1 32
7 52 26 73 16 18 17 20 2 14 -13 -5 -16 -2 -11 10 3 9 10 13 15 10 5 -3 12 2
15 10 3 9 12 16 18 16 7 0 18 6 25 13 6 6 16 13 22 13 5 1 14 2 19 3 6 0 10 8
10 16 0 8 5 15 10 15 6 0 10 -7 10 -16 0 -13 3 -14 15 -4 21 18 32 6 39 -47
11 -80 35 -141 65 -163 47 -33 155 -43 401 -37 165 3 258 10 348 26 129 22
152 30 190 64 12 11 22 16 22 11 0 -5 -11 -18 -25 -28 -13 -10 -22 -23 -19
-28 3 -5 -2 -20 -11 -34 -20 -31 -16 -38 17 -25 22 8 38 29 37 47 0 3 7 11 15
17 30 22 112 184 146 287 31 96 32 102 10 122 -14 13 -20 15 -20 6 0 -7 -12
-35 -25 -63 -14 -27 -23 -41 -19 -30 3 11 9 39 11 62 6 47 12 54 63 73 79 29
172 32 247 9z m-746 -26 c16 -10 29 -21 29 -26 0 -4 -4 -6 -8 -3 -9 5 -35 -1
-147 -33 -38 -11 -80 -21 -93 -21 -12 0 -25 -6 -28 -14 -3 -8 -12 -12 -20 -9
-10 4 -12 0 -8 -11 3 -9 2 -16 -2 -16 -5 0 -20 -3 -33 -7 -17 -4 -22 -3 -17 6
4 6 12 9 17 6 5 -4 9 0 9 7 0 7 12 25 28 38 94 88 207 122 273 83z m2019 -38
c7 -8 20 -15 30 -15 10 0 21 -7 24 -16 5 -13 2 -15 -13 -11 -14 3 -21 -2 -26
-20 -4 -19 -11 -24 -25 -20 -11 3 -20 1 -20 -4 0 -5 8 -9 18 -9 12 0 14 -2 4
-8 -10 -7 -10 -15 -2 -36 5 -15 7 -33 4 -38 -5 -7 1 -9 14 -6 12 4 20 3 18 -1
-3 -4 5 -13 16 -20 19 -12 20 -11 13 6 -15 37 -17 53 -7 53 6 0 13 -13 17 -30
5 -23 12 -30 31 -30 19 0 24 5 24 25 0 14 5 25 10 25 6 0 10 -12 10 -27 0 -22
2 -25 10 -13 11 16 11 15 15 -17 1 -14 -2 -20 -11 -16 -8 3 -14 1 -14 -3 0
-13 20 -41 20 -29 1 22 40 -42 39 -65 0 -23 -1 -23 -14 8 -8 17 -19 32 -25 32
-15 0 -12 -21 7 -42 9 -11 11 -18 5 -18 -7 0 -12 -5 -12 -11 0 -6 9 -8 20 -4
21 7 26 -11 22 -75 -4 -62 -7 -69 -19 -58 -20 16 -16 -17 4 -37 14 -14 14 -18
2 -26 -8 -5 -17 -9 -21 -9 -12 0 -10 -30 1 -30 6 0 9 -9 8 -20 -1 -11 -6 -20
-12 -20 -5 0 -3 -5 5 -10 8 -5 12 -10 8 -10 -4 0 -3 -13 2 -30 6 -21 5 -29 -3
-27 -7 1 -11 -4 -9 -12 1 -7 -3 -19 -9 -27 -9 -11 -8 -14 5 -14 9 0 16 -5 16
-11 0 -7 -10 -9 -25 -7 -26 5 -35 -6 -12 -15 7 -3 4 -6 -6 -6 -10 -1 -15 -6
-12 -11 4 -6 10 -8 15 -5 4 3 6 -4 3 -15 -3 -11 -1 -20 5 -20 6 0 9 -7 8 -15
-1 -9 -6 -15 -11 -15 -5 1 -12 -7 -16 -17 -7 -16 -8 -16 -8 -1 -1 11 -6 15
-16 12 -21 -8 -19 13 2 25 10 5 16 12 13 15 -3 2 -16 -4 -30 -15 l-25 -19 21
-18 c12 -9 30 -23 40 -30 11 -7 14 -10 7 -7 -17 8 -28 -16 -12 -26 7 -4 10
-11 6 -16 -10 -10 -28 18 -22 35 5 14 -14 16 -49 2 -17 -6 -26 -6 -26 0 0 6 9
10 20 10 11 0 20 5 20 10 0 6 -11 10 -25 10 -14 0 -25 6 -25 13 -1 6 -7 1 -15
-13 -11 -19 -14 -21 -15 -7 0 27 -20 20 -20 -8 0 -16 6 -25 15 -25 8 0 15 -5
15 -11 0 -6 7 -9 15 -5 22 8 18 -7 -10 -40 -14 -16 -20 -30 -15 -32 6 -2 10
-10 10 -18 0 -8 5 -14 11 -14 5 0 7 -5 4 -10 -5 -8 -11 -8 -20 0 -20 16 -50
-36 -37 -64 10 -21 11 -20 11 4 1 23 2 24 19 6 12 -14 14 -20 4 -23 -9 -3 -6
-13 9 -34 11 -16 19 -34 17 -40 -2 -6 -16 6 -31 28 -32 44 -36 34 -7 -20 13
-23 16 -36 8 -35 -7 2 -23 24 -37 51 -13 26 -26 46 -28 43 -3 -2 0 -13 6 -24
6 -12 10 -33 10 -49 -1 -22 -3 -23 -6 -6 -2 12 -12 24 -21 28 -14 5 -15 4 -4
-6 6 -7 12 -27 11 -44 l-1 -30 -9 33 c-13 44 -32 42 -23 -3 4 -22 2 -35 -4
-35 -6 0 -13 -8 -15 -17 -3 -10 -5 8 -6 39 -1 67 -21 90 -22 26 0 -24 -3 -36
-7 -28 -4 8 -16 28 -26 43 -14 21 -21 25 -27 15 -6 -9 -9 -8 -9 7 0 17 -2 17
-10 5 -8 -13 -10 -12 -10 3 0 9 7 17 15 17 8 0 15 5 15 10 0 6 -6 10 -14 10
-18 0 -31 -39 -18 -52 15 -15 2 -50 -16 -43 -11 4 -13 -1 -10 -19 4 -17 1 -23
-9 -19 -7 3 -13 14 -13 24 0 10 -6 19 -14 19 -10 0 -13 -9 -10 -29 4 -24 1
-30 -21 -35 -14 -4 -25 -11 -25 -16 0 -5 7 -7 15 -4 11 5 13 2 9 -10 -3 -9
-12 -16 -20 -16 -8 0 -14 -9 -14 -21 0 -16 -4 -19 -19 -14 -18 5 -19 3 -11
-26 11 -37 6 -49 -21 -49 -24 0 -25 -16 -1 -29 9 -6 11 -11 5 -11 -7 0 -13
-11 -13 -24 0 -34 -25 -53 -39 -29 -8 14 -11 15 -11 3 0 -8 -8 -24 -17 -35
-15 -19 -15 -19 -9 9 5 19 3 32 -6 38 -9 7 -8 8 5 4 20 -6 24 23 5 42 -9 9 -9
12 1 12 13 0 11 22 -6 66 -4 12 -3 15 5 10 12 -7 15 5 15 72 0 17 4 32 10 32
6 0 3 6 -7 13 -9 7 -18 19 -20 27 -1 8 -8 25 -14 38 -7 12 -10 27 -7 32 3 6 3
16 -2 23 -4 6 -8 19 -8 27 0 9 -10 15 -25 16 -14 0 -31 3 -37 7 -6 4 -13 -2
-16 -15 -8 -29 -16 -20 -19 20 -2 23 -7 32 -20 32 -9 0 -22 9 -28 20 -6 11
-15 18 -20 15 -6 -3 -7 1 -4 9 4 11 0 16 -11 16 -11 0 -15 5 -12 14 6 15 -18
31 -42 27 -8 -1 -5 6 8 20 12 13 21 30 21 39 0 16 -50 67 -50 52 -1 -4 -9 3
-19 16 -12 13 -25 20 -35 16 -19 -7 -21 7 -3 25 10 11 9 13 -5 8 -9 -3 -35
-11 -57 -17 -23 -6 -41 -16 -41 -21 0 -6 6 -9 14 -6 7 3 26 -7 41 -23 15 -16
41 -32 56 -35 35 -8 69 -48 44 -53 -16 -4 -21 -42 -5 -42 6 0 10 -5 10 -12 0
-9 -3 -9 -12 0 -15 15 -38 16 -38 0 0 -14 60 -138 67 -138 3 0 2 12 -1 28 -6
25 -5 26 9 8 10 -13 11 -23 5 -31 -6 -8 -5 -18 5 -31 19 -25 19 -40 0 -24 -8
7 -15 18 -15 25 0 7 -7 18 -16 25 -19 16 -76 129 -70 139 3 4 -4 12 -15 19
-19 12 -26 4 -10 -13 14 -16 25 -79 12 -71 -6 4 -11 14 -11 21 0 8 -9 29 -20
47 -22 37 -26 28 -9 -21 6 -18 9 -34 6 -37 -11 -11 -36 54 -35 88 2 59 -43
108 -55 61 -3 -13 -5 -12 -6 5 0 13 -5 20 -11 17 -5 -3 -10 -1 -10 4 0 6 4 11
10 11 5 0 12 11 16 24 3 13 14 26 25 29 16 4 19 11 14 34 -5 20 -4 24 3 14 6
-8 17 -11 27 -7 17 6 17 7 0 26 -16 18 -16 20 -1 26 12 4 14 10 6 19 -5 6 -7
14 -5 17 7 6 -51 156 -67 175 -6 7 -8 20 -4 28 3 8 0 15 -6 15 -7 0 -9 14 -5
39 3 26 0 47 -10 61 -24 33 -5 42 58 28 37 -9 145 -13 339 -13 260 0 293 2
379 22 103 25 144 45 172 83 20 27 39 146 39 241 0 61 13 76 40 44z m-3178
-540 c9 -33 20 -165 20 -227 -1 -9 6 -19 14 -22 12 -4 14 -1 9 14 -4 11 -2 20
4 20 6 0 8 7 5 15 -4 8 -1 22 6 30 10 12 10 18 0 30 -7 9 -10 18 -6 22 3 3 6
1 6 -5 0 -20 18 -13 25 9 4 12 10 17 15 13 14 -16 20 -79 9 -94 -8 -11 -9 -8
-4 13 4 19 2 26 -5 22 -5 -3 -10 -15 -10 -26 0 -11 -4 -17 -10 -14 -6 3 -7 -1
-4 -9 4 -9 1 -16 -6 -16 -7 0 -3 -8 8 -19 27 -23 28 -34 2 -26 -24 8 -25 2 -4
-20 21 -20 10 -32 -13 -14 -15 11 -16 11 -5 -1 13 -15 17 -70 4 -70 -4 0 -14
6 -22 13 -8 6 -4 -1 10 -17 19 -22 21 -28 8 -23 -19 7 -25 -8 -8 -18 6 -3 10
-25 10 -48 l0 -42 -15 29 c-9 16 -13 36 -11 43 3 7 1 13 -4 13 -5 0 -8 18 -8
40 0 34 4 40 22 41 20 2 20 2 -1 6 -17 3 -23 12 -24 31 -3 48 -5 57 -19 87
-10 21 -15 75 -16 175 -1 80 0 132 3 115 2 -16 9 -48 15 -70z m3621 -94 c-6
-43 -13 -65 -21 -63 -15 3 -16 -14 -1 -24 8 -5 9 -32 5 -88 -4 -44 -7 -94 -7
-111 1 -16 -2 -42 -7 -56 -6 -23 -9 -25 -20 -13 -7 8 -9 14 -3 14 10 0 2 42
-10 50 -9 6 -12 25 -10 69 1 30 3 32 19 20 15 -12 16 -12 6 1 -14 19 -24 71
-13 64 5 -3 10 1 10 8 4 37 8 55 16 78 6 14 8 31 6 38 -3 6 0 12 5 12 5 0 7
17 5 38 -2 20 -1 57 3 82 l7 45 9 -49 c5 -27 5 -78 1 -115z m-2193 -262 c0 -8
57 -24 80 -21 8 1 22 -3 30 -8 13 -9 13 -11 0 -20 -8 -5 -19 -8 -25 -7 -19 7
-67 -57 -79 -105 -6 -28 -26 -39 -26 -16 0 7 -10 -2 -22 -19 -13 -18 -26 -33
-30 -33 -11 0 11 53 25 62 19 12 0 20 -21 9 -11 -6 -30 -33 -43 -61 -21 -46
-39 -65 -39 -40 0 6 5 10 12 10 6 0 8 3 5 6 -4 4 -13 1 -22 -6 -12 -10 -15 -9
-15 6 0 13 -3 15 -11 7 -6 -6 -17 -9 -24 -6 -16 6 -28 -27 -19 -53 5 -16 4
-17 -6 -4 -9 11 -13 12 -17 3 -2 -7 -9 -13 -14 -13 -6 0 -7 5 -3 11 4 7 1 10
-7 7 -7 -2 -17 -20 -22 -39 -5 -19 -13 -39 -18 -45 -5 -6 -7 -20 -4 -33 2 -12
0 -32 -5 -44 -7 -18 -9 -16 -10 18 0 29 -7 47 -25 64 -14 13 -25 28 -25 35 1
6 10 0 20 -13 l20 -23 0 25 c0 13 6 30 14 37 8 6 12 18 9 26 -3 8 0 14 6 14
19 0 12 17 -9 23 -11 3 -20 11 -20 19 0 10 3 9 10 -2 8 -13 12 -13 27 3 16 15
16 19 3 27 -8 5 -11 12 -7 16 4 4 13 2 19 -4 14 -14 28 -16 28 -3 0 5 34 43
75 84 41 42 75 78 75 81 0 12 35 46 47 46 7 0 13 9 13 21 0 18 2 18 25 -7 14
-15 25 -30 25 -35z m550 -542 c11 3 23 -34 15 -47 -3 -5 -1 -10 4 -10 6 0 11
8 11 18 0 10 5 23 11 29 16 16 42 -10 45 -44 3 -23 0 -25 -34 -21 -23 3 -41 0
-47 -8 -6 -8 -39 -15 -78 -17 -55 -4 -69 -1 -77 12 -8 14 -9 14 -15 -1 -6 -15
-20 -18 -77 -18 -56 0 -74 4 -84 18 -12 16 -13 16 -19 0 -9 -23 -47 -23 -69 0
-13 15 -14 24 -6 49 9 25 15 29 36 25 14 -2 28 -11 31 -18 8 -21 20 -17 27 10
5 21 13 24 68 28 54 4 66 2 80 -15 15 -17 18 -17 24 -4 12 32 110 53 132 27 7
-8 17 -14 22 -13z m-1363 -1049 c18 -7 33 -19 34 -28 0 -10 2 -11 6 -2 8 20
22 14 16 -8 -6 -23 7 -26 26 -7 10 10 11 9 6 -5 -4 -10 -12 -18 -19 -18 -6 0
-2 -7 8 -15 10 -8 22 -12 26 -10 10 6 35 -24 27 -32 -4 -3 -13 0 -22 7 -24 20
-17 -1 8 -23 15 -13 18 -21 10 -24 -15 -5 -18 -33 -4 -33 5 0 11 8 14 19 7 29
53 35 79 11 12 -11 26 -20 30 -20 5 0 6 -5 2 -11 -4 -7 -16 -1 -33 15 -33 32
-57 26 -56 -12 1 -38 15 -64 31 -58 8 3 14 1 14 -4 0 -6 -5 -10 -11 -10 -6 0
-9 -7 -6 -15 4 -8 2 -17 -3 -20 -6 -4 -10 -1 -10 4 0 6 -5 11 -10 11 -7 0 -7
-6 -1 -17 5 -10 11 -22 13 -28 1 -5 19 -10 38 -9 19 1 29 -1 22 -3 -10 -4 -10
-8 0 -21 11 -13 9 -15 -17 -9 l-30 7 36 -22 c20 -13 34 -28 32 -34 -2 -6 5
-14 17 -17 11 -3 26 -20 34 -37 7 -19 16 -28 20 -22 4 6 12 10 19 8 7 -1 9 -1
5 1 -5 3 -8 11 -8 18 0 7 -6 15 -12 17 -7 3 -2 7 10 10 13 4 20 2 16 -3 -3 -6
5 -20 18 -32 14 -13 23 -28 21 -34 -3 -7 6 -20 18 -30 50 -41 71 -63 61 -63
-6 0 -17 7 -26 15 -13 13 -16 13 -30 0 -9 -9 -17 -11 -21 -5 -3 5 -1 10 4 10
6 0 11 5 11 11 0 5 -3 8 -7 6 -5 -3 -17 -1 -28 4 -17 6 -17 8 -2 8 20 1 22 8
5 25 -18 17 -48 27 -48 16 0 -5 8 -14 18 -19 14 -9 13 -10 -10 -9 -15 1 -24 6
-22 10 3 4 -4 17 -15 30 -11 13 -26 30 -33 40 -7 9 -28 19 -46 23 -32 7 -33 6
-20 -14 8 -13 20 -20 30 -17 13 3 17 -1 14 -17 -4 -26 25 -52 36 -34 5 7 8 0
8 -15 0 -34 -8 -35 -42 -3 -15 14 -34 25 -41 25 -8 0 -20 6 -26 14 -7 8 -25
18 -41 21 -21 5 -27 11 -23 22 5 12 1 14 -15 9 -18 -6 -21 -4 -15 10 4 12 3
15 -5 10 -7 -4 -15 -1 -18 8 -3 8 -12 12 -20 9 -10 -4 -12 0 -8 12 5 12 2 16
-12 13 -11 -2 -19 3 -20 12 -2 24 -15 50 -27 50 -5 0 -2 -10 9 -22 12 -14 13
-18 3 -10 -9 6 -19 9 -22 5 -4 -3 -7 3 -7 14 0 12 -6 23 -12 26 -17 6 -62 87
-49 87 6 0 11 14 11 31 0 21 4 28 13 24 6 -4 3 1 -7 9 -26 21 -40 20 -31 -1
16 -38 18 -58 6 -47 -6 6 -14 35 -17 65 -6 49 -5 52 9 35 14 -19 15 -19 15 7
0 15 -6 27 -13 27 -7 0 -16 8 -20 18 -5 14 -4 15 6 5 7 -7 20 -13 29 -12 10 0
11 2 3 6 -7 2 -13 9 -13 14 0 6 5 7 10 4 6 -3 10 -1 10 4 0 12 36 51 47 51 4
0 22 -5 40 -12z m2459 -331 c-31 -62 -89 -163 -129 -223 -69 -104 -182 -267
-199 -289 -5 -5 -36 -47 -69 -93 -33 -45 -64 -80 -69 -77 -24 15 -16 49 30
112 27 38 63 90 82 116 18 27 38 54 43 61 6 6 15 19 20 28 80 127 337 489 343
483 2 -2 -21 -55 -52 -118z m-177 -174 c-24 -40 -79 -121 -144 -213 -21 -30
-68 -97 -104 -148 -63 -90 -65 -92 -78 -70 -7 13 -12 29 -13 36 0 10 41 69 90
129 6 7 10 15 10 19 0 3 14 24 31 46 17 21 29 41 27 43 -4 4 -48 -53 -98 -125
-55 -80 -72 -99 -85 -93 -18 6 -19 35 -2 52 10 10 9 11 -5 6 -10 -4 -18 -16
-18 -26 0 -10 -4 -19 -10 -19 -18 0 -10 26 15 50 14 13 25 19 25 14 0 -5 10 2
23 16 32 35 147 135 155 135 4 0 50 42 102 93 52 50 96 92 98 92 2 0 -7 -17
-19 -37z m-402 -408 c-4 -8 -15 -18 -24 -22 -10 -4 -24 -13 -31 -20 -7 -7 -19
-13 -25 -13 -15 -1 -85 -60 -70 -60 6 0 16 7 23 15 7 8 16 15 21 15 5 0 31 14
57 30 27 17 52 30 56 30 14 0 5 -41 -11 -47 -26 -10 -111 -70 -172 -122 -30
-25 -71 -56 -90 -68 -20 -12 -30 -23 -23 -23 17 0 66 33 106 72 17 15 35 28
40 28 6 0 16 8 23 19 6 10 32 28 57 41 25 12 48 26 52 31 8 14 21 11 28 -6 3
-10 -3 -17 -22 -22 -15 -3 -33 -15 -40 -25 -7 -10 -19 -18 -25 -18 -7 0 -41
-27 -77 -61 -36 -33 -89 -76 -118 -96 -29 -19 -51 -38 -48 -41 3 -3 12 1 21 8
8 7 28 20 45 29 16 9 53 39 83 68 29 28 82 70 118 92 56 35 65 38 70 23 4 -9
5 -20 2 -24 -6 -12 15 -10 39 3 18 10 20 9 15 -5 -4 -9 -2 -16 4 -16 5 0 -6
-14 -25 -31 -19 -16 -38 -29 -42 -27 -4 2 -10 -7 -15 -18 -4 -12 -38 -42 -76
-68 -37 -26 -96 -70 -129 -99 -34 -29 -75 -62 -90 -75 -26 -22 -27 -23 -4 -11
14 6 27 15 30 18 3 3 23 19 45 36 22 16 51 39 65 52 61 53 74 63 82 63 5 0 14
5 21 10 63 54 61 52 74 34 15 -21 -2 -48 -24 -40 -9 4 -11 1 -7 -5 6 -11 -42
-58 -59 -59 -4 0 -20 -13 -35 -29 -33 -35 -182 -151 -193 -151 -7 0 -41 55
-38 62 0 2 -4 15 -10 30 -5 14 -12 44 -14 66 -3 31 -1 39 10 35 7 -3 13 0 13
6 0 6 -7 11 -15 11 -11 0 -15 11 -15 36 0 27 4 35 14 31 8 -3 22 1 33 9 17 14
17 15 -4 9 -17 -5 -23 -2 -23 9 0 28 23 66 41 66 21 0 79 32 79 43 0 5 -13 -1
-29 -12 -47 -34 -58 -20 -18 21 31 33 142 128 149 128 4 0 30 16 59 35 52 34
79 34 66 0z"/>
<path d="M3095 3350 c-12 -18 -15 -229 -3 -236 4 -3 8 10 9 28 1 30 2 29 10
-12 11 -56 28 -99 48 -124 9 -11 10 -16 4 -12 -16 9 -17 -6 -1 -22 9 -9 9 -12
0 -12 -7 0 -12 -4 -12 -10 0 -5 7 -10 15 -10 8 0 15 -5 15 -11 0 -6 6 -9 14
-6 19 7 31 -24 14 -35 -9 -6 -5 -8 11 -6 23 3 25 -1 28 -46 2 -28 5 -51 7 -53
6 -6 36 9 36 18 0 4 -6 6 -14 3 -9 -4 -13 3 -13 22 l0 27 21 -27 c47 -61 303
-307 411 -396 41 -33 10 -4 -219 213 -120 113 -160 159 -244 276 -32 45 -41
63 -77 149 -22 52 -14 67 9 17 20 -41 30 -47 16 -9 -14 37 -36 65 -43 57 -4
-3 -7 1 -7 9 0 9 6 19 13 21 7 4 6 6 -4 6 -10 1 -17 10 -18 24 0 12 -4 56 -8
97 -6 55 -11 71 -18 60z"/>
</g>
</svg>
