<?xml version="1.0" standalone="no"?>
<!DOCTYPE svg PUBLIC "-//W3C//DTD SVG 20010904//EN"
 "http://www.w3.org/TR/2001/REC-SVG-20010904/DTD/svg10.dtd">
<svg version="1.0" xmlns="http://www.w3.org/2000/svg"
 width="3031.000000pt" height="3940.000000pt" viewBox="0 0 3031.000000 3940.000000"
 preserveAspectRatio="xMidYMid meet">
<metadata>
Created by potrace 1.16, written by Peter Selinger 2001-2019
</metadata>
<g transform="translate(0.000000,3940.000000) scale(0.100000,-0.100000)"
fill="#000000" stroke="none">
<path d="M16468 37870 c-113 -14 -331 -139 -471 -270 l-75 -70 -153 0 c-681
-1 -1384 -244 -1913 -663 -92 -73 -339 -311 -411 -397 -313 -370 -478 -637
-640 -1035 -120 -294 -218 -628 -245 -835 -6 -47 -13 -94 -15 -106 -3 -12 -33
-40 -74 -67 -208 -138 -413 -360 -550 -595 -95 -164 -137 -312 -148 -529 l-6
-123 -116 113 c-64 61 -149 135 -188 162 l-71 50 -65 205 c-157 492 -297 801
-428 944 -63 69 -150 118 -283 160 -161 50 -177 54 -368 83 -154 23 -202 26
-438 26 -236 0 -284 -3 -438 -26 -191 -29 -207 -33 -368 -83 -133 -42 -220
-91 -283 -160 -131 -143 -270 -449 -428 -944 l-66 -205 -89 -65 c-105 -77
-292 -265 -403 -405 -174 -219 -372 -577 -455 -820 -313 -916 -288 -2083 70
-3366 112 -402 238 -760 360 -1029 225 -496 544 -1022 775 -1278 74 -82 186
-152 340 -212 33 -13 83 -42 110 -65 170 -142 351 -223 609 -272 377 -71 936
12 1231 182 33 19 170 90 305 158 418 211 732 378 1090 581 144 82 155 86 168
69 7 -10 16 -29 19 -43 4 -13 23 -56 44 -95 30 -56 54 -137 123 -412 118 -471
198 -759 262 -948 30 -88 59 -177 64 -197 6 -21 36 -104 69 -185 32 -81 62
-164 66 -183 16 -76 219 -573 352 -860 19 -41 66 -142 103 -225 37 -82 112
-240 165 -350 172 -356 346 -783 347 -855 2 -82 20 -303 34 -410 34 -263 72
-459 195 -1010 l30 -135 -20 -99 c-25 -119 -26 -177 -5 -286 8 -46 13 -94 9
-107 -3 -13 -37 -95 -76 -181 -39 -86 -92 -211 -118 -277 -27 -66 -63 -156
-80 -200 -125 -312 -369 -971 -517 -1393 -41 -119 -111 -318 -154 -442 -206
-588 -461 -1353 -495 -1481 -15 -59 -21 -68 -53 -84 -41 -19 -181 -117 -262
-183 -89 -73 -159 -149 -258 -278 l-92 -122 -73 -5 c-97 -7 -154 -21 -240 -57
-39 -17 -99 -43 -132 -57 -306 -131 -902 -450 -1265 -676 -58 -37 -125 -78
-150 -93 -148 -90 -619 -409 -895 -607 -299 -215 -801 -600 -995 -764 -115
-97 -177 -149 -186 -158 -6 -5 -44 -39 -84 -75 -66 -58 -332 -299 -465 -420
-191 -175 -597 -576 -760 -750 -223 -239 -437 -478 -614 -685 -57 -66 -113
-131 -125 -145 -44 -51 -214 -258 -291 -355 -44 -55 -85 -106 -92 -113 -31
-32 -287 -378 -351 -473 -97 -145 -109 -172 -125 -269 -18 -112 -26 -126 -80
-134 -89 -13 -120 -52 -306 -369 -112 -190 -139 -248 -147 -313 -5 -34 -19
-66 -46 -104 -69 -96 -202 -310 -283 -455 -555 -992 -919 -2232 -1045 -3560
-68 -721 -63 -1356 16 -2015 63 -525 225 -1116 411 -1496 79 -162 204 -371
264 -442 31 -37 58 -72 60 -78 7 -20 141 -125 194 -152 46 -24 63 -26 195 -30
127 -3 169 0 332 27 214 35 314 56 494 105 269 73 569 182 802 292 40 19 75
34 78 34 3 0 83 39 177 86 468 235 886 511 1352 892 129 106 123 101 210 172
44 35 82 67 85 70 3 3 67 59 144 124 312 267 756 714 1072 1076 21 25 41 47
44 50 12 11 248 319 300 390 105 145 477 706 557 840 166 278 268 461 369 664
l104 209 69 27 c39 15 92 44 119 63 53 40 248 237 381 387 46 52 98 111 115
130 58 64 410 483 497 590 612 758 1214 1645 1754 2585 54 94 139 240 190 325
531 894 1057 2095 1330 3044 198 689 299 1224 336 1791 14 201 6 741 -11 798
-13 44 -29 11 157 327 66 113 133 230 150 260 16 30 61 111 100 180 104 185
317 593 360 689 36 81 37 83 46 55 9 -28 92 -232 164 -404 43 -102 241 -525
296 -630 288 -554 469 -869 705 -1224 192 -289 446 -622 615 -806 23 -25 75
-84 116 -130 173 -198 433 -439 656 -607 456 -343 958 -574 1287 -590 147 -7
174 2 307 102 256 193 563 599 779 1031 158 316 311 770 397 1179 75 356 112
657 122 982 l6 213 236 121 c553 284 1385 748 1669 931 28 18 80 51 114 72 63
39 153 97 258 164 181 116 563 379 688 473 169 129 474 381 567 469 39 37 112
107 163 156 329 313 509 520 797 919 48 67 156 250 210 355 73 146 125 350
110 438 -11 68 -176 216 -356 322 -30 17 -75 44 -100 59 -136 84 -363 192
-679 325 -113 48 -212 91 -221 95 -249 138 -486 252 -699 337 -86 34 -98 43
-193 138 -158 157 -408 310 -527 323 -40 4 -71 16 -115 44 -252 160 -866 386
-1427 524 -981 242 -2247 415 -3048 415 -192 0 -196 0 -246 27 -28 14 -55 35
-60 45 -9 18 -172 257 -272 399 -314 445 -452 629 -534 712 -94 96 -119 152
-286 652 -78 231 -163 485 -191 565 -117 340 -129 390 -142 603 -6 107 -10
201 -8 211 3 14 20 5 89 -45 47 -35 158 -113 247 -174 154 -106 164 -115 218
-194 78 -117 131 -179 261 -308 179 -176 350 -263 753 -383 302 -89 639 -152
1211 -225 452 -58 744 -76 1208 -76 389 0 609 11 807 42 248 38 334 77 422
189 50 65 48 64 108 51 22 -5 99 -17 170 -25 72 -9 180 -26 240 -38 83 -17
145 -23 255 -23 144 0 146 1 242 38 54 21 153 53 220 72 148 40 213 67 252
103 41 39 161 200 242 327 116 179 141 217 183 275 95 130 204 337 230 435 13
51 39 306 45 450 5 108 6 112 64 245 151 343 158 425 56 666 -20 49 -42 95
-48 103 -7 9 -11 94 -11 240 -1 200 -3 235 -22 302 -36 130 -85 219 -140 260
-65 47 -148 97 -268 159 -55 28 -138 80 -185 115 -305 226 -642 407 -889 480
-77 22 -107 27 -160 22 -36 -3 -77 -12 -91 -19 -91 -49 -180 -109 -250 -170
l-80 -69 -52 46 c-167 150 -289 170 -475 79 -138 -68 -383 -266 -436 -351 -33
-52 -76 -242 -108 -473 -6 -47 -14 -88 -18 -92 -3 -3 -76 -12 -161 -18 -1025
-75 -2192 -321 -2785 -585 -58 -26 -107 -46 -108 -44 -7 9 -181 208 -222 253
-6 6 -19 23 -30 37 -11 14 -41 50 -67 80 -174 202 -319 392 -358 469 -17 33
-67 151 -111 263 -91 226 -189 435 -244 516 -19 29 -34 55 -33 56 2 1 56 32
121 68 128 73 277 178 457 322 l115 92 115 22 c200 39 402 105 506 166 74 43
220 162 309 252 301 301 594 791 743 1240 109 328 120 656 36 1058 l-26 119
21 101 c23 113 54 323 73 495 20 187 17 803 -5 980 -25 206 -44 316 -83 470
-142 576 -394 1067 -778 1520 -48 56 -275 280 -346 341 -150 128 -358 272
-537 370 l-99 53 -51 107 c-61 126 -187 317 -220 332 -13 5 -23 14 -23 18 0 8
-174 78 -313 125 -213 73 -516 138 -782 169 -138 16 -195 17 -287 5z m343 -80
c171 -26 313 -54 464 -91 132 -33 458 -140 517 -170 89 -45 243 -304 306 -514
40 -133 78 -471 89 -777 l6 -188 -22 0 c-12 0 -20 -4 -17 -8 2 -4 -15 -8 -38
-8 l-43 0 -7 236 c-6 221 -22 398 -47 518 -11 56 -34 74 -24 20 15 -89 35
-420 35 -580 0 -216 -25 -509 -47 -555 -9 -21 -25 -36 -41 -40 -27 -6 -244 34
-762 143 -249 52 -267 57 -299 87 l-33 32 7 260 c13 523 -35 1010 -125 1257
-26 70 -60 135 -60 114 0 -5 16 -57 35 -117 89 -275 133 -734 119 -1252 l-7
-268 32 -40 32 -39 -183 -186 c-101 -102 -191 -190 -200 -195 -24 -13 -43 -3
-74 42 -30 44 -30 18 -4 414 29 446 -13 1059 -92 1345 -25 93 -77 196 -116
233 -23 22 -47 31 -106 42 -43 7 -80 15 -83 18 -8 8 152 132 237 184 41 25
106 58 145 74 61 25 83 28 171 29 56 0 161 -9 235 -20z m-195 -3030 c315 -46
984 -193 1216 -267 123 -39 151 -59 169 -124 23 -86 0 -339 -67 -731 -18 -104
-19 -107 -42 -101 -16 4 -27 0 -37 -13 -13 -18 -14 -18 -20 -2 -4 10 -11 15
-16 12 -5 -3 -7 -9 -4 -14 3 -5 -8 -5 -25 0 -17 5 -32 5 -35 -1 -17 -27 -20 2
-8 94 24 198 9 225 -21 37 -39 -242 -98 -533 -112 -555 -26 -40 -60 -47 -160
-35 -248 30 -825 140 -884 168 -19 9 -47 35 -63 57 l-27 40 30 210 c79 535
100 692 100 729 -1 74 -18 17 -39 -130 -11 -76 -30 -197 -41 -269 -42 -262
-70 -468 -70 -518 0 -44 5 -56 39 -97 l39 -46 -197 -105 c-108 -57 -205 -104
-215 -104 -10 0 -28 13 -40 28 -19 26 -21 41 -20 160 2 140 40 465 95 797 40
242 117 637 131 673 13 34 78 97 116 114 37 16 51 16 208 -7z m-6470 -43 c7
-7 -33 -206 -45 -226 -8 -12 -152 -1 -151 12 0 4 0 57 0 118 l0 111 95 -4 c52
-2 97 -7 101 -11z m213 -23 c70 -11 161 -37 161 -46 0 -5 -24 -52 -52 -104
-37 -65 -60 -96 -76 -100 -12 -4 -58 1 -102 10 -44 9 -90 16 -101 16 -17 0
-20 4 -15 23 3 12 16 66 28 120 l22 99 54 -7 c30 -4 66 -9 81 -11z m2311 -294
c36 -39 119 -207 164 -331 116 -324 210 -830 251 -1359 29 -364 34 -490 35
-748 0 -237 -1 -253 -17 -248 -10 3 -48 13 -85 22 l-68 16 0 190 c0 301 -36
803 -81 1128 -39 285 -111 600 -205 890 -53 167 -99 272 -149 341 l-34 48 67
41 c37 22 73 40 80 40 8 0 27 -14 42 -30z m-172 -120 c172 -262 344 -1025 392
-1735 12 -178 27 -690 22 -746 l-4 -37 -111 29 c-153 40 -273 77 -329 101 -42
18 -49 25 -58 62 -20 78 -102 331 -127 391 -45 108 -153 316 -217 419 l-63
101 -12 120 c-27 261 -67 438 -108 479 -21 21 -21 25 -9 77 46 187 148 358
333 558 77 83 239 231 253 231 3 0 20 -23 38 -50z m1895 -999 c-143 -113 -237
-286 -290 -537 -24 -115 -27 -150 -27 -324 0 -175 2 -208 27 -324 28 -130 80
-273 131 -360 15 -25 31 -46 35 -46 5 0 -4 42 -20 93 -88 277 -108 494 -73
765 28 224 79 356 196 514 89 120 220 208 310 208 51 0 141 -23 218 -56 l60
-26 -35 -40 c-101 -118 -188 -373 -231 -673 -25 -171 -25 -509 -1 -625 34
-163 99 -253 202 -281 166 -46 355 192 450 565 36 141 75 410 83 569 l7 142
112 -125 c217 -243 275 -330 309 -470 10 -41 21 -79 26 -84 10 -12 28 37 28
77 0 32 0 32 38 -22 20 -30 62 -89 93 -131 57 -78 215 -320 361 -552 75 -120
82 -128 111 -128 26 0 76 33 251 165 121 91 221 164 222 162 2 -2 -7 -48 -18
-102 -18 -80 -22 -134 -23 -270 0 -169 0 -170 30 -230 40 -78 71 -100 143
-100 75 0 121 24 203 105 134 132 244 340 313 592 30 109 66 312 66 368 l0 38
153 60 c153 61 331 118 441 143 l59 13 28 -32 c86 -96 91 -404 12 -657 -79
-252 -231 -515 -425 -736 -63 -72 -70 -86 -35 -68 81 44 254 234 367 404 169
257 250 480 275 756 8 82 -14 239 -41 305 -8 20 -12 39 -9 42 11 11 97 3 146
-13 116 -39 207 -209 234 -438 7 -56 6 -60 -38 -135 -24 -43 -92 -149 -149
-237 -249 -380 -407 -643 -536 -895 -408 -796 -501 -890 -1102 -1113 -357
-132 -818 -272 -1150 -347 -302 -69 -395 -61 -587 51 -256 151 -560 375 -883
653 -260 223 -535 539 -646 742 -97 176 -150 399 -198 834 -49 443 -57 549
-63 835 l-6 290 31 92 c80 238 221 434 374 521 113 64 283 110 411 111 l79 1
-49 -39z m627 -481 c43 -43 15 -175 -42 -194 -59 -21 -100 43 -78 124 21 78
78 112 120 70z m4862 -370 c26 -175 28 -408 4 -535 -18 -95 -74 -290 -82 -283
-2 3 1 31 8 64 19 93 16 518 -4 626 -17 90 -15 121 23 261 12 43 14 45 22 25
5 -13 18 -84 29 -158z m-5050 -405 c103 -47 238 -44 368 9 33 13 60 20 60 15
0 -28 -74 -199 -114 -262 -130 -210 -273 -229 -365 -49 -28 55 -51 179 -51
273 l0 82 23 -21 c12 -11 48 -33 79 -47z m2638 -580 c0 -17 -101 -180 -147
-238 -128 -159 -274 -171 -318 -24 -9 30 -15 90 -15 147 l0 97 52 -26 c101
-50 284 -36 383 28 31 20 45 25 45 16z m-9668 -232 l160 -87 -6 -106 c-9 -154
-28 -380 -32 -380 -9 0 -161 63 -243 101 l-93 43 5 51 c3 27 14 143 23 258 10
114 20 207 22 207 2 0 76 -39 164 -87z m5039 -331 c47 -17 106 -33 130 -37 40
-6 48 -12 74 -53 32 -50 129 -182 167 -228 73 -87 165 -188 231 -253 l76 -74
-66 -63 c-57 -54 -74 -64 -112 -69 -25 -3 -56 -7 -69 -9 -13 -2 -58 10 -100
26 -84 31 -251 53 -332 42 -88 -11 -206 -37 -258 -56 -29 -11 -56 -18 -58 -15
-3 3 -1 47 5 98 17 154 33 527 29 676 l-3 139 100 -47 c55 -26 139 -61 186
-77z m-5085 -225 l159 -64 -4 -264 c-2 -145 -5 -265 -6 -267 -4 -4 -96 34
-229 94 l-109 49 7 210 c6 184 14 305 21 305 1 0 73 -29 161 -63z m-86 -554
c8 -3 66 -26 128 -51 l112 -46 0 -115 c0 -64 5 -181 10 -260 6 -79 8 -147 5
-149 -6 -6 -79 23 -225 89 -81 38 -106 53 -111 72 -9 35 -22 473 -15 486 5 7
19 6 44 -5 20 -9 44 -18 52 -21z m5338 -13 c72 -12 216 -58 315 -102 38 -16
71 -27 75 -24 3 4 -9 21 -27 40 l-32 33 25 5 c32 6 29 8 106 -92 70 -93 139
-177 300 -371 58 -69 132 -159 165 -200 294 -364 620 -705 847 -888 106 -86
119 -99 146 -160 105 -229 225 -842 263 -1345 l12 -160 -65 -61 c-366 -347
-995 -767 -1531 -1022 l-68 -32 50 62 c167 210 329 557 430 919 37 133 75 352
68 394 -13 77 -178 365 -308 536 -84 109 -254 302 -323 366 -75 68 -360 258
-431 287 -55 22 -60 22 -107 8 -27 -8 -165 -78 -306 -155 -280 -154 -733 -390
-738 -385 -2 2 18 53 45 115 233 526 462 1346 552 1974 14 93 28 157 36 164
24 20 175 66 278 84 120 22 142 23 223 10z m-5366 -549 c24 -11 96 -41 162
-68 81 -33 121 -54 126 -68 4 -11 10 -60 14 -110 4 -49 15 -150 25 -222 13
-99 14 -133 5 -133 -14 0 -185 70 -240 99 -22 11 -51 24 -65 30 -24 9 -28 17
-38 93 -12 85 -39 398 -34 398 1 0 22 -9 45 -19z m9548 -126 l0 -85 30 0 c17
0 74 16 126 36 90 33 97 34 114 19 24 -21 15 -48 -12 -39 -15 4 -18 3 -13 -7
6 -9 2 -11 -12 -7 -11 3 -28 1 -38 -5 -14 -7 -16 -7 -10 3 5 9 4 11 -3 6 -12
-7 -41 -15 -77 -20 -11 -1 -30 -8 -42 -14 -16 -9 -22 -9 -26 1 -3 9 -7 9 -20
-2 -14 -11 -20 -11 -32 -1 -12 10 -15 9 -15 -5 0 -14 -3 -15 -15 -5 -9 7 -18
10 -22 6 -3 -3 0 -6 8 -6 8 0 3 -6 -11 -13 -21 -11 -26 -11 -32 2 -6 14 -7 13
-7 -1 -1 -21 -41 -25 -42 -5 0 9 -2 9 -6 0 -5 -14 -41 -22 -119 -26 -28 -2
-62 -11 -75 -20 -22 -16 -24 -16 -31 0 -6 16 -7 16 -7 2 -1 -9 -8 -19 -15 -22
-10 -4 -13 -1 -9 8 4 13 1 13 -23 0 -16 -8 -39 -15 -51 -15 -12 0 -25 -5 -28
-10 -4 -6 -21 -8 -42 -4 -25 5 -38 3 -44 -7 -7 -12 -9 -12 -9 0 0 11 -3 11
-17 0 -11 -10 -14 -10 -9 -1 4 6 2 12 -3 12 -6 0 -11 -8 -12 -17 0 -11 -3 -13
-6 -5 -2 6 -9 12 -14 12 -6 0 -7 -6 -3 -12 5 -9 4 -10 -3 -3 -18 17 -26 105
-11 109 80 23 583 192 613 206 72 34 75 31 75 -65z m-9488 -419 c18 -8 92 -38
163 -66 l130 -52 37 -211 c20 -116 35 -213 33 -215 -6 -6 -103 33 -231 94 -98
46 -112 56 -116 81 -9 50 -58 337 -62 361 -4 26 2 27 46 8z m143 -511 c108
-41 229 -96 236 -107 4 -6 10 -29 13 -52 4 -22 20 -101 37 -175 16 -74 27
-136 25 -138 -13 -13 -316 154 -316 174 0 1 -20 73 -45 160 -25 86 -45 161
-45 166 0 5 8 6 18 2 9 -4 44 -18 77 -30z m10211 -200 c134 -176 315 -389 606
-713 145 -160 157 -178 187 -255 42 -109 60 -199 67 -327 l5 -105 -66 70
c-231 244 -586 682 -634 780 -24 51 -68 164 -246 640 -11 27 -1 16 81 -90z
m-2940 -232 c267 -368 764 -923 1131 -1266 98 -91 190 -175 204 -186 39 -30
73 -111 130 -304 74 -253 84 -281 274 -756 258 -648 485 -1227 485 -1238 0 -5
-55 -24 -122 -43 -322 -87 -869 -287 -1238 -453 -80 -36 -221 -100 -315 -142
-347 -156 -919 -461 -1165 -622 -35 -24 -68 -39 -72 -35 -20 20 -216 486 -334
795 -144 373 -247 689 -374 1142 -90 321 -190 696 -190 711 0 6 26 21 58 34
184 74 583 298 864 483 132 87 392 281 513 381 134 112 263 243 270 275 13 61
-33 508 -80 784 -27 157 -73 369 -104 480 -10 37 -17 67 -16 67 1 0 38 -48 81
-107z m-2273 -2242 c112 -75 286 -158 391 -186 136 -36 177 -33 232 17 l21 19
22 -88 c90 -362 244 -912 337 -1203 92 -286 318 -898 394 -1065 75 -165 141
-335 135 -345 -4 -6 -12 -9 -18 -7 -7 2 -30 -5 -51 -16 -33 -16 -43 -17 -59
-7 -16 10 -19 9 -15 -2 4 -8 -3 -14 -19 -14 -23 -2 -23 -1 -6 13 13 11 11 11
-9 -1 -21 -12 -28 -13 -28 -4 0 7 -11 14 -26 14 -21 2 -23 0 -9 -10 12 -9 7
-11 -29 -10 -30 1 -46 -3 -50 -12 -3 -8 -10 -14 -16 -14 -6 0 -8 5 -4 12 5 8
2 9 -9 5 -10 -3 -17 -2 -17 2 0 5 -8 8 -17 6 -10 -2 -24 -4 -31 -4 -8 -1 -10
-6 -6 -13 4 -8 3 -10 -2 -5 -5 5 -9 12 -10 15 0 4 -6 18 -12 32 -6 14 -50 117
-98 230 -48 113 -169 384 -270 603 -306 662 -410 907 -543 1280 -103 287 -261
775 -261 803 0 9 15 1 83 -45z m8822 -3266 c319 -44 805 -139 1139 -221 375
-93 874 -279 890 -331 19 -66 34 -215 20 -201 -3 4 -15 -3 -26 -14 -11 -11
-26 -17 -33 -14 -7 2 -16 -2 -19 -10 -3 -8 -11 -14 -18 -14 -9 0 -8 3 2 10 13
8 12 10 -2 10 -11 0 -18 -8 -18 -20 0 -12 -5 -17 -14 -14 -7 3 -20 -2 -29 -11
-10 -9 -18 -11 -22 -5 -3 5 -11 10 -16 10 -6 0 -7 -4 -4 -10 3 -6 -4 -10 -17
-10 -14 0 -19 -3 -11 -8 8 -5 2 -12 -18 -21 -16 -7 -27 -17 -24 -22 4 -5 -1
-6 -9 -3 -9 3 -16 2 -16 -4 0 -5 -13 -12 -30 -15 -16 -4 -30 -11 -30 -17 0 -6
5 -8 10 -5 6 3 10 2 10 -3 0 -17 -13 -22 -28 -9 -13 9 -14 9 -8 0 4 -8 2 -13
-6 -13 -7 0 -19 -9 -26 -20 -7 -11 -17 -20 -23 -20 -8 0 -7 6 2 18 7 9 0 5
-15 -10 -28 -29 -43 -37 -30 -16 4 7 -7 2 -24 -10 -17 -13 -34 -27 -37 -32 -4
-6 -13 -10 -21 -10 -9 0 -22 -7 -31 -16 -9 -8 -21 -13 -29 -10 -7 3 -18 -2
-24 -9 -7 -8 -16 -13 -20 -10 -4 3 -10 -4 -13 -15 -3 -13 -11 -18 -20 -14 -8
3 -17 -2 -21 -11 -3 -9 -11 -15 -18 -14 -21 3 -48 -12 -42 -23 4 -6 -2 -7 -16
-3 -15 5 -20 4 -16 -4 5 -7 1 -9 -9 -5 -11 5 -18 0 -22 -15 -5 -18 -8 -19 -21
-9 -12 10 -14 10 -8 1 5 -9 -1 -13 -18 -13 -14 0 -26 -5 -26 -11 0 -5 6 -7 13
-3 9 6 8 3 -1 -9 -10 -12 -19 -14 -38 -6 -17 6 -23 6 -19 -1 3 -6 -6 -15 -21
-21 -24 -9 -45 -3 -144 37 -240 97 -767 365 -1018 516 -283 171 -572 399 -654
517 -55 78 -35 127 71 178 127 60 149 64 361 59 107 -3 245 -12 305 -21z
m-5939 -1505 c139 -11 310 -39 439 -71 88 -22 282 -85 303 -97 10 -7 9 -27 -8
-102 -30 -134 -120 -450 -202 -710 -63 -199 -113 -340 -333 -940 -154 -420
-500 -1262 -683 -1665 -85 -187 -101 -215 -120 -215 -6 0 -12 -7 -15 -15 -4
-8 -15 -12 -26 -10 -11 2 -20 1 -20 -3 3 -20 -3 -30 -21 -35 -11 -3 -18 -1
-14 4 3 5 1 9 -5 9 -5 0 -13 -9 -16 -21 -5 -14 -10 -18 -17 -11 -7 7 -16 4
-29 -9 -10 -10 -30 -19 -43 -19 -13 0 -29 -7 -36 -15 -7 -8 -19 -15 -27 -15
-8 0 -11 -4 -8 -10 3 -6 -1 -7 -10 -4 -8 4 -21 1 -29 -5 -7 -6 -16 -8 -19 -4
-4 3 -7 -1 -7 -11 0 -9 -4 -14 -10 -11 -5 3 -10 -1 -10 -9 0 -9 -7 -16 -16
-16 -8 0 -13 -4 -10 -8 3 -4 -9 -7 -26 -6 -23 2 -32 -3 -35 -17 -4 -14 -9 -17
-18 -9 -9 8 -14 6 -19 -5 -3 -8 -14 -15 -25 -15 -11 0 -23 -5 -26 -10 -4 -6
-11 -8 -16 -5 -5 3 -6 0 -3 -8 3 -8 0 -18 -7 -23 -8 -4 -10 -3 -5 4 11 18 -6
14 -34 -8 -19 -14 -28 -16 -40 -7 -8 6 -12 7 -8 3 9 -11 -46 -47 -75 -49 -11
-1 -24 -11 -29 -23 -6 -13 -16 -20 -24 -17 -8 3 -14 -1 -14 -8 0 -11 -3 -11
-10 1 -8 13 -10 12 -10 -4 0 -15 -3 -16 -15 -6 -14 12 -20 5 -17 -21 1 -4 -7
-5 -18 -2 -11 3 -27 -2 -35 -11 -9 -9 -21 -14 -26 -11 -5 4 -9 -1 -9 -11 0
-14 -3 -14 -15 -4 -9 7 -18 10 -22 6 -3 -3 -1 -6 5 -6 7 0 12 -5 12 -12 0 -6
-3 -8 -7 -5 -3 4 -11 0 -18 -9 -6 -9 -25 -17 -42 -17 -22 -1 -29 -6 -25 -16 3
-9 1 -12 -5 -8 -6 4 -18 1 -26 -7 -8 -8 -17 -12 -21 -9 -3 4 -6 2 -6 -3 0 -5
-9 -10 -20 -11 -11 -1 -29 -11 -42 -22 -21 -20 -38 -26 -67 -21 -9 1 -12 -4
-8 -14 4 -10 1 -16 -8 -16 -9 0 -12 6 -8 18 3 9 -6 2 -21 -17 -14 -19 -26 -28
-26 -20 0 11 -2 11 -9 1 -4 -7 -14 -12 -21 -10 -8 2 -14 -3 -15 -9 0 -7 -4
-13 -9 -12 -5 0 -14 -7 -19 -16 -8 -14 -11 -15 -18 -4 -8 12 -10 12 -18 1 -7
-12 -30 -10 -137 6 -175 28 -418 44 -597 40 -81 -2 -147 -1 -147 2 0 21 360
1089 575 1710 400 1151 831 2267 932 2412 45 65 118 124 222 177 197 101 391
150 706 176 195 16 303 17 461 5z"/>
<path d="M15102 30425 c-160 -81 -188 -195 -62 -257 157 -77 780 -244 1073
-288 78 -12 247 -5 247 9 0 4 -33 22 -72 39 -40 18 -165 80 -278 138 -578 299
-771 394 -804 394 -18 0 -65 -16 -104 -35z m328 -108 c102 -51 320 -162 485
-247 268 -139 296 -155 264 -158 -77 -7 -639 129 -949 230 -186 60 -209 75
-210 135 0 40 32 72 114 113 39 20 67 28 85 24 14 -3 109 -47 211 -97z"/>
</g>
</svg>
