<?xml version="1.0" standalone="no"?>
<!DOCTYPE svg PUBLIC "-//W3C//DTD SVG 20010904//EN"
 "http://www.w3.org/TR/2001/REC-SVG-20010904/DTD/svg10.dtd">
<svg version="1.0" xmlns="http://www.w3.org/2000/svg"
 width="500.000000pt" height="500.000000pt" viewBox="0 0 500.000000 500.000000"
 preserveAspectRatio="xMidYMid meet">
<metadata>
Created by potrace 1.16, written by Peter Selinger 2001-2019
</metadata>
<g transform="translate(0.000000,500.000000) scale(0.100000,-0.100000)"
fill="#000000" stroke="none">
<path d="M2930 4753 c26 -33 13 -40 -32 -17 -27 14 -59 18 -168 18 -132 1
-138 0 -265 -41 -71 -23 -154 -49 -183 -57 -95 -28 -273 -193 -353 -328 -61
-102 -93 -174 -84 -189 4 -5 -1 -9 -10 -9 -11 0 -15 -6 -11 -18 4 -11 -4 -32
-19 -52 -15 -21 -21 -36 -15 -40 6 -4 8 -14 4 -23 -3 -9 -11 -14 -17 -10 -7 4
-20 8 -31 8 -10 1 -26 11 -35 21 -31 38 -62 46 -110 29 -24 -8 -74 -15 -110
-15 -42 0 -74 -5 -86 -14 -19 -14 -19 -15 10 -26 106 -42 121 -62 104 -142
-19 -87 -45 -135 -86 -156 -31 -17 -52 -15 -107 13 -40 19 -52 21 -68 12 -17
-10 -24 -7 -48 22 -16 19 -31 43 -33 55 -3 19 -4 19 -15 -6 -6 -15 -8 -43 -5
-63 5 -31 -2 -96 -23 -202 -5 -25 -55 -56 -77 -47 -22 8 -29 48 -21 125 6 65
5 69 -21 93 -29 27 -42 30 -69 20 -31 -12 -37 -40 -22 -96 10 -38 12 -80 7
-147 -6 -89 -8 -94 -39 -122 -25 -22 -42 -29 -75 -29 -23 0 -62 -10 -87 -22
-36 -16 -61 -20 -128 -19 -100 3 -126 -12 -116 -63 13 -74 -74 -114 -119 -54
-24 32 -17 69 18 102 14 13 25 35 25 49 0 24 -29 87 -41 87 -10 0 -80 -202
-109 -314 -51 -199 -62 -288 -67 -522 -6 -234 3 -353 38 -524 36 -178 91 -345
88 -270 -5 171 4 460 16 515 14 58 14 68 -1 105 -11 26 -14 53 -10 78 4 20 10
85 14 144 9 137 17 147 117 149 39 1 94 -5 125 -14 69 -20 203 -44 295 -52 39
-3 103 -13 144 -21 40 -8 128 -19 195 -24 305 -24 386 -32 461 -47 127 -25
127 -25 160 12 32 36 106 171 113 208 3 12 5 55 5 95 -1 73 11 95 23 45 9 -33
50 -99 81 -129 12 -12 19 -25 15 -29 -4 -4 0 -12 8 -18 9 -7 15 -29 16 -53 1
-49 34 -134 52 -134 6 0 12 -9 12 -20 0 -11 7 -20 15 -20 9 0 18 -7 21 -15 4
-8 12 -15 19 -15 6 0 35 -21 62 -47 77 -73 101 -89 156 -107 14 -5 16 -1 11
21 -6 22 -4 25 10 20 39 -15 66 -19 66 -9 0 6 -4 13 -9 16 -15 9 -6 39 15 50
10 6 23 17 27 24 5 7 13 10 18 6 5 -3 16 0 24 6 8 7 15 10 15 6 0 -3 26 6 58
20 31 14 84 28 117 31 39 3 79 16 115 35 77 41 200 126 200 139 0 5 4 8 9 5 5
-3 32 20 61 51 l52 57 -7 -41 c-6 -37 -2 -48 33 -105 22 -34 43 -77 46 -94 9
-39 -4 -38 237 -28 163 6 182 5 258 -15 64 -17 93 -21 134 -14 29 4 133 6 232
5 175 -3 182 -4 235 -31 43 -22 61 -26 79 -19 14 5 70 7 125 6 101 -3 101 -3
104 -30 4 -35 51 -56 89 -39 l26 12 -6 162 c-12 344 -111 697 -283 1005 -33
59 -37 62 -49 45 -19 -27 -32 -111 -49 -311 -19 -213 -30 -239 -86 -194 -20
16 -22 29 -27 147 -3 72 -6 164 -7 205 -1 48 -8 92 -21 122 -15 38 -17 52 -8
70 17 34 31 111 26 145 -3 17 0 40 6 51 9 16 5 27 -21 63 -116 160 -491 479
-563 479 -15 0 -39 15 -62 39 -21 21 -53 46 -70 55 -31 16 -33 15 -33 -1 -1
-37 -48 -73 -94 -73 -14 0 -26 -4 -26 -10 0 -5 -5 -10 -11 -10 -5 0 -7 5 -4
10 3 6 -2 10 -13 10 -29 0 -56 36 -58 80 -2 42 -4 43 -44 28 -18 -7 -34 -5
-57 6 -35 16 -49 48 -40 92 4 20 -1 27 -21 35 -13 5 -25 8 -26 7 -17 -39 -35
-111 -29 -121 4 -6 -15 6 -42 28 -28 23 -61 48 -75 57 -16 10 -26 26 -28 44
-3 34 -8 40 -50 48 l-33 6 21 -27z m229 -376 c54 -26 78 -57 133 -172 l43 -90
1 -133 c1 -74 6 -168 10 -210 5 -43 9 -158 9 -256 0 -117 4 -180 11 -183 16
-5 44 63 44 107 0 32 7 46 35 74 19 20 35 40 35 45 0 6 12 18 26 28 26 17 27
16 50 -11 13 -15 24 -38 24 -51 0 -37 -58 -204 -92 -265 -17 -30 -42 -77 -56
-105 -13 -27 -27 -57 -31 -65 -5 -8 -23 -20 -42 -26 -21 -7 -35 -19 -37 -31
-2 -10 -14 -32 -28 -48 -15 -17 -30 -40 -35 -53 -6 -15 -13 -21 -21 -16 -9 5
-8 2 1 -10 11 -13 12 -19 2 -29 -10 -9 -11 -8 -5 7 5 13 4 17 -4 12 -7 -4 -12
-1 -13 6 0 10 -2 10 -6 1 -2 -7 -11 -13 -19 -13 -8 0 -14 -4 -14 -9 0 -4 -13
-25 -30 -46 -16 -20 -27 -42 -23 -49 3 -6 3 -8 -2 -4 -4 4 -17 2 -28 -4 -17
-9 -19 -8 -13 7 5 14 4 16 -7 7 -8 -7 -17 -8 -22 -4 -4 4 -4 -4 0 -18 l7 -25
-18 25 c-10 14 -28 34 -41 45 -28 25 -29 45 -3 75 23 27 25 36 8 44 -7 3 -4 4
6 3 10 -1 21 4 23 11 3 6 0 12 -6 12 -6 0 -11 5 -11 11 0 8 6 7 16 -2 15 -12
16 -11 8 11 -15 43 -11 115 9 134 25 26 32 66 16 92 -8 12 -33 46 -55 75 -98
127 -148 168 -104 86 25 -47 25 -67 0 -67 -11 0 -20 -6 -20 -12 0 -9 -3 -8
-10 2 -5 8 -12 11 -16 7 -4 -4 -13 -2 -21 5 -7 6 -16 8 -20 5 -3 -4 -11 -3
-17 2 -18 13 -56 20 -62 10 -8 -13 -40 -11 -56 4 -119 110 -115 107 -148 95
-26 -8 -34 -8 -41 3 -12 18 -11 49 0 49 12 0 41 29 41 41 0 20 -26 7 -87 -46
-36 -30 -68 -55 -71 -55 -4 0 -18 -17 -32 -38 -25 -37 -59 -71 -72 -72 -11 0
-63 -51 -61 -59 1 -4 -7 -8 -18 -8 -22 -2 -24 8 -7 25 9 9 9 12 -1 12 -7 0
-11 6 -8 15 9 22 -10 28 -23 8 -8 -13 -13 -14 -16 -5 -8 17 -27 15 -20 -3 3
-8 1 -15 -4 -15 -6 0 -10 2 -10 4 0 2 -3 11 -6 20 -4 11 0 16 12 16 17 1 17 2
2 10 -11 7 -25 7 -42 0 -19 -7 -26 -6 -27 3 0 6 -4 2 -9 -10 -9 -22 -40 -23
-40 -2 0 5 -4 9 -9 9 -5 0 -7 -9 -4 -19 3 -11 1 -27 -4 -36 -21 -36 -35 123
-31 330 5 204 6 210 55 327 32 77 49 166 35 180 -8 8 -7 20 3 46 19 45 19 56
-2 47 -21 -7 -15 -1 43 43 23 18 46 32 51 32 5 0 16 9 26 20 9 11 12 20 7 20
-6 0 -10 5 -10 11 0 7 11 9 30 6 17 -4 30 -2 30 3 0 6 7 10 15 10 8 0 23 4 33
9 117 60 166 71 275 64 135 -8 242 -8 332 1 44 4 81 9 82 10 8 7 166 -30 202
-47z m-1356 -694 c3 -10 8 -31 12 -48 3 -16 15 -49 26 -73 20 -42 20 -46 3
-98 -9 -30 -21 -57 -25 -60 -5 -3 -9 -18 -9 -34 0 -28 21 -45 48 -41 24 4 41
-26 47 -85 4 -33 9 -62 12 -66 2 -4 -3 -5 -12 -2 -11 5 -14 2 -8 -12 5 -13 3
-15 -8 -10 -8 4 -5 0 5 -8 11 -9 17 -19 13 -22 -9 -9 -59 5 -53 15 3 4 -1 19
-8 32 -7 14 -16 39 -20 55 -4 16 -14 36 -21 44 -7 8 -18 44 -24 80 -27 162
-36 193 -53 196 -11 1 -18 -4 -18 -13 0 -9 -6 -13 -14 -10 -17 7 -26 -40 -32
-168 -8 -156 -10 -174 -18 -182 -4 -4 -39 -8 -76 -8 -66 0 -69 1 -86 30 -17
30 -64 84 -115 134 -15 14 -32 36 -38 49 -10 19 -19 22 -66 20 -30 -1 -56 0
-59 2 -2 3 -6 61 -7 130 -3 110 -2 125 13 128 10 2 25 -6 35 -17 9 -12 28 -21
41 -21 12 0 25 -6 28 -14 3 -8 19 -15 37 -15 18 0 112 -2 210 -5 l177 -5 0 44
c0 44 19 75 45 75 8 0 16 -8 18 -17z m1015 -514 c13 1 22 -5 22 -14 0 -8 7
-15 16 -15 10 0 13 -6 9 -19 -5 -17 -2 -18 34 -11 31 5 41 4 46 -7 3 -8 3 -19
-1 -24 -3 -5 1 -9 8 -9 10 0 10 -2 1 -8 -8 -5 -9 -19 -3 -46 10 -45 2 -106
-14 -106 -6 0 -4 -5 4 -10 13 -8 13 -10 -2 -10 -9 0 -20 -5 -24 -12 -4 -7 -3
-8 4 -4 7 4 12 3 12 -3 0 -5 -6 -11 -12 -14 -10 -3 -10 -9 1 -28 9 -17 10 -21
1 -12 -9 8 -19 9 -32 2 -12 -6 -18 -6 -18 1 0 12 -22 9 -33 -5 -4 -6 -13 -3
-21 8 -12 15 -18 16 -35 8 -26 -15 -31 -14 -31 5 0 8 -4 12 -10 9 -5 -3 -10 2
-10 12 -1 17 -1 17 -11 0 -9 -15 -12 -15 -25 -3 -8 8 -14 22 -14 30 0 9 -4 16
-10 16 -5 0 -10 -5 -10 -12 0 -6 -6 -3 -14 7 -8 11 -12 24 -9 29 7 11 -15 -1
-38 -21 -14 -12 -17 -9 -22 24 -4 20 -4 39 -2 42 6 5 64 10 143 12 43 1 50 4
41 15 -9 11 -8 14 2 15 8 0 3 5 -11 10 -14 6 -72 13 -130 15 -186 8 -202 10
-212 28 -8 14 -2 16 42 16 32 0 49 4 45 10 -4 6 6 10 24 10 16 0 32 4 35 9 3
5 0 9 -7 8 -35 -1 -47 5 -47 22 0 31 21 37 42 11 17 -21 18 -21 18 -2 0 28 9
29 130 25 58 -3 115 -4 128 -4z"/>
<path d="M2217 3957 c-3 -8 -25 -26 -49 -39 -24 -14 -42 -30 -40 -37 1 -6 -5
-14 -13 -17 -8 -3 -12 -10 -9 -16 3 -5 -2 -16 -12 -23 -11 -8 -15 -15 -10 -15
5 0 4 -6 -1 -12 -19 -24 -38 -111 -25 -116 6 -2 28 -17 48 -33 21 -16 44 -27
51 -24 8 2 11 1 8 -4 -10 -18 110 -35 232 -33 142 2 165 11 194 79 27 64 28
121 2 141 -12 10 -23 26 -25 37 -2 14 -15 23 -41 29 -27 7 -36 14 -32 26 8 24
-46 41 -150 49 -49 4 -97 11 -106 15 -10 4 -18 2 -22 -7z"/>
<path d="M2904 3878 c-23 -34 -32 -58 -23 -58 22 0 6 -19 -21 -25 -18 -4 -41
-21 -56 -41 l-26 -34 26 -21 c14 -11 24 -25 21 -30 -4 -5 1 -9 9 -9 8 0 18 -5
22 -12 4 -7 3 -8 -4 -4 -23 14 -12 -22 11 -36 38 -25 119 -48 161 -46 40 1 40
1 7 5 -26 3 -31 7 -20 14 11 7 10 9 -5 9 -19 0 -19 1 2 20 12 12 28 20 35 19
33 -4 107 2 107 9 0 7 -74 45 -145 74 l-30 12 45 6 45 6 -57 7 c-57 8 -79 26
-35 28 17 1 18 2 4 6 -17 4 -16 6 5 25 19 17 34 19 96 16 39 -2 72 -2 72 0 0
1 -8 11 -17 21 -31 31 -214 63 -229 39z"/>
<path d="M1967 2702 c14 -88 38 -163 67 -207 43 -65 128 -155 147 -155 10 1
10 3 -3 11 -10 5 -18 22 -18 37 -1 15 -9 45 -20 67 -11 22 -19 46 -20 53 0 6
-4 12 -10 12 -5 0 -10 6 -10 14 0 12 -31 32 -37 24 -7 -9 -74 100 -79 129 -8
40 -23 54 -17 15z"/>
<path d="M1846 2598 c-9 -12 -16 -30 -16 -40 0 -29 -34 -56 -63 -51 -18 4 -33
-3 -55 -25 -17 -17 -28 -33 -24 -37 3 -3 -2 -3 -12 1 -13 5 -17 4 -12 -4 5 -8
2 -10 -8 -6 -9 3 -16 1 -16 -5 0 -6 -8 -10 -17 -8 -24 3 -133 -33 -133 -44 0
-5 -9 -9 -20 -9 -11 0 -23 -7 -26 -15 -4 -8 -10 -13 -14 -10 -17 10 -89 -38
-96 -64 -6 -21 -8 -22 -11 -8 -3 12 -10 16 -20 13 -8 -3 -19 -6 -24 -6 -5 0
-9 -5 -9 -11 0 -5 5 -7 10 -4 6 3 10 1 10 -4 0 -11 -12 -15 -42 -12 -10 1 -18
-4 -18 -11 0 -10 -2 -10 -9 1 -10 16 -31 6 -31 -15 0 -10 5 -12 13 -8 9 6 8 3
-1 -8 -8 -9 -19 -15 -26 -12 -8 3 -22 -3 -32 -13 -17 -17 -17 -17 -11 0 5 12
1 17 -12 17 -10 0 -22 -7 -25 -16 -3 -8 -10 -12 -16 -9 -5 3 -10 2 -10 -4 0
-6 -7 -8 -15 -5 -12 5 -14 0 -11 -22 2 -16 1 -21 -1 -11 -2 9 -10 18 -16 18
-7 1 -19 2 -27 3 -16 1 -40 -17 -40 -32 0 -5 -13 -8 -30 -7 -16 1 -30 -2 -30
-7 0 -6 -6 -8 -12 -5 -20 7 -50 -12 -41 -26 5 -9 3 -9 -8 0 -12 10 -18 10 -28
0 -10 -9 -11 -8 -6 8 6 18 5 18 -5 2 -6 -9 -8 -23 -4 -30 6 -9 5 -9 -8 0 -19
16 -27 8 -21 -18 4 -14 8 -17 13 -9 5 8 9 6 14 -5 5 -14 2 -16 -15 -12 -12 3
-31 2 -41 -4 -21 -12 -26 9 -5 30 10 10 7 10 -15 0 -16 -7 -28 -16 -28 -21 0
-5 5 -6 10 -3 6 3 10 -1 10 -10 0 -11 -5 -15 -16 -11 -9 3 -25 -4 -40 -19 -13
-13 -24 -21 -24 -17 0 4 -5 -1 -11 -10 -14 -25 -29 -22 -30 5 0 16 -4 12 -14
-16 -8 -21 -21 -45 -30 -53 -8 -8 -15 -19 -15 -24 0 -5 -6 -7 -14 -4 -17 7
-29 -48 -13 -58 9 -6 9 -8 0 -8 -7 0 -16 7 -21 17 -9 14 -10 14 -16 -5 -4 -12
-14 -22 -22 -22 -8 0 -14 -7 -14 -15 0 -8 -3 -15 -7 -15 -5 -1 -21 -12 -38
-26 -16 -15 -23 -23 -15 -19 8 3 5 -2 -7 -13 -22 -19 -32 -39 -15 -29 4 3 7
-7 8 -23 1 -36 95 -230 169 -350 308 -496 781 -856 1335 -1015 237 -68 334
-80 640 -80 224 0 294 4 375 19 397 72 720 212 1027 444 57 42 95 78 92 84 -4
7 -2 8 5 4 8 -5 60 40 143 123 111 112 130 134 126 156 -5 24 -2 27 32 29 8 1
15 10 15 21 0 11 6 20 13 20 6 0 13 5 13 10 1 6 10 15 19 22 26 18 80 107 80
131 0 13 5 20 13 17 18 -7 91 125 77 139 -8 8 -14 7 -21 -4 -9 -12 -10 -12 -5
3 3 10 6 28 7 40 1 20 1 20 8 -2 4 -14 11 -26 18 -28 16 -6 10 40 -7 55 -13
10 -13 11 1 6 10 -3 20 -1 24 5 3 7 -3 11 -17 12 -15 1 -18 3 -6 6 21 5 32 33
13 33 -8 0 -13 6 -11 13 15 47 16 67 2 67 -8 0 -17 6 -19 13 -4 9 -8 8 -16 -3
-8 -11 -7 -16 4 -18 18 -4 20 -42 3 -42 -6 0 -8 3 -5 7 4 4 -5 20 -20 37 -16
17 -21 25 -13 19 13 -10 16 -8 17 10 2 17 0 19 -7 7 -5 -8 -10 -11 -10 -6 0 5
-6 4 -13 -2 -7 -6 -22 -9 -32 -7 -11 2 -23 4 -26 4 -3 1 -20 14 -38 30 -32 28
-32 29 -10 33 21 3 22 4 6 20 -10 9 -24 15 -31 12 -15 -6 -46 21 -46 39 0 7 4
6 10 -3 8 -13 10 -12 10 3 0 9 -6 17 -14 17 -16 0 -66 45 -66 59 0 11 -28 19
-69 20 -13 0 -31 7 -39 15 -11 10 -21 12 -38 5 -15 -5 -24 -5 -24 1 0 6 7 10
15 10 20 0 19 16 -1 24 -26 10 -36 7 -30 -9 3 -9 0 -15 -9 -15 -9 0 -15 9 -15
21 0 18 -2 19 -15 9 -13 -10 -15 -9 -15 9 0 11 -5 21 -10 21 -6 0 -9 3 -9 8 3
19 -2 23 -16 12 -10 -9 -15 -9 -15 -1 0 16 -25 14 -39 -3 -9 -11 -9 -15 1 -19
9 -4 8 -6 -3 -6 -8 -1 -27 5 -42 12 -21 9 -25 17 -21 37 l5 25 -16 -25 -16
-25 6 25 c9 33 16 82 9 55 -11 -37 -24 -41 -44 -15 l-19 25 5 -44 c3 -35 1
-42 -11 -37 -13 5 -19 -5 -16 -26 0 -4 -10 -3 -24 2 -30 11 -31 6 -5 -27 26
-33 25 -43 -2 -42 -13 0 -17 3 -10 6 6 2 12 11 12 19 0 9 -3 13 -8 10 -20 -12
-49 40 -30 54 4 3 3 12 -2 20 -7 11 -13 6 -25 -22 -8 -21 -15 -47 -15 -58 0
-24 -13 -26 -34 -5 -9 9 -17 11 -21 5 -7 -12 -16 -12 -32 -2 -9 5 -10 17 -4
37 5 17 10 23 10 15 1 -13 2 -13 11 0 8 13 10 13 10 -2 0 -9 -6 -18 -12 -21
-10 -4 -10 -7 0 -18 9 -9 12 -10 12 -1 0 16 16 15 34 -3 13 -14 15 -13 13 5
-1 11 -7 22 -14 24 -7 3 -10 12 -7 21 4 10 0 15 -10 15 -9 0 -16 4 -16 10 0 5
7 7 15 4 8 -4 15 -1 15 5 0 6 -10 11 -22 11 -21 1 -21 2 -5 11 13 8 22 7 33
-1 10 -9 14 -9 14 -1 0 6 -5 11 -11 11 -8 0 -8 5 1 15 11 13 9 14 -16 0 -22
-11 -30 -12 -36 -2 -5 7 -8 3 -8 -13 -1 -24 -1 -24 -15 -6 -8 11 -15 32 -15
48 0 15 -6 28 -12 29 -7 1 -2 5 12 9 17 5 19 8 8 9 -10 1 -18 6 -18 12 0 6 7
9 15 5 8 -3 15 -1 15 4 0 5 15 8 34 6 19 -1 32 2 29 7 -3 5 -13 7 -22 4 -22
-5 -62 23 -43 30 10 4 10 8 1 19 -6 7 -9 20 -6 28 3 8 0 20 -8 26 -11 9 -12 7
-8 -11 4 -15 3 -20 -6 -15 -7 5 -13 -3 -17 -23 -4 -17 -10 -31 -15 -31 -5 0
-9 -9 -9 -20 0 -14 -7 -20 -21 -20 -11 0 -18 -4 -14 -9 3 -5 0 -13 -6 -17 -8
-4 -7 -9 2 -16 11 -8 11 -9 1 -6 -8 2 -13 7 -12 12 1 5 -4 13 -12 17 -11 7
-10 9 1 9 10 0 8 5 -6 18 -11 9 -18 23 -16 30 3 6 -5 16 -18 20 -15 6 -18 11
-11 16 7 4 12 13 12 19 -1 7 -9 2 -19 -10 -16 -19 -20 -20 -25 -7 -3 8 -2 12
4 9 5 -3 14 3 19 14 8 15 7 20 -5 25 -12 5 -15 2 -10 -10 5 -13 3 -14 -6 -7
-30 22 -56 9 -148 -78 -52 -48 -91 -88 -86 -89 4 0 23 16 41 36 23 25 35 32
40 23 5 -8 4 -10 -4 -5 -7 5 -13 -4 -18 -24 -4 -22 -8 -27 -14 -19 -6 11 -9
10 -15 -4 -3 -9 -10 -14 -15 -11 -5 3 -9 0 -9 -6 0 -7 -6 -5 -15 4 -14 13 -13
20 12 64 26 47 27 50 10 75 -20 30 -57 33 -49 4 2 -10 0 -28 -6 -40 -6 -12
-16 -38 -22 -59 -9 -30 -17 -38 -48 -46 -30 -8 -32 -10 -12 -11 19 -1 22 -3
10 -10 -8 -6 -17 -8 -21 -5 -4 2 -9 -3 -13 -11 -3 -8 -16 -15 -30 -15 -14 0
-27 -4 -31 -9 -3 -5 -31 -19 -63 -31 -31 -11 -66 -25 -77 -29 -34 -16 -85 -30
-85 -25 0 11 24 51 57 94 20 26 9 16 -27 -23 -70 -76 -81 -78 -135 -25 -16 16
-42 32 -58 35 -32 6 -47 23 -20 23 10 0 2 8 -20 20 -21 11 -43 17 -49 14 -6
-4 -8 -3 -5 3 7 11 -51 48 -60 39 -4 -3 -1 -6 5 -6 7 0 12 -7 12 -16 0 -11 -6
-14 -22 -8 -73 22 -84 34 -50 53 10 6 12 11 4 11 -7 0 -11 4 -8 9 3 5 -7 23
-24 41 -25 26 -32 30 -50 20 -24 -13 -25 -29 -5 -56 8 -10 15 -25 15 -33 1
-44 -87 93 -104 161 -3 15 -13 34 -21 42 -9 8 -15 19 -15 23 1 4 -4 9 -10 11
-8 3 -10 -2 -6 -14 3 -11 10 -40 15 -67 7 -40 6 -46 -6 -36 -8 7 -32 42 -53
78 -51 85 -72 112 -93 115 -9 1 -26 13 -38 27 -18 21 -20 32 -15 87 4 34 4 62
2 62 -3 0 -12 -10 -20 -22z"/>
</g>
</svg>
