<?xml version="1.0" standalone="no"?>
<!DOCTYPE svg PUBLIC "-//W3C//DTD SVG 20010904//EN"
 "http://www.w3.org/TR/2001/REC-SVG-20010904/DTD/svg10.dtd">
<svg version="1.0" xmlns="http://www.w3.org/2000/svg"
 width="1486.000000pt" height="1052.000000pt" viewBox="0 0 1486.000000 1052.000000"
 preserveAspectRatio="xMidYMid meet">
<metadata>
Created by potrace 1.16, written by Peter Selinger 2001-2019
</metadata>
<g transform="translate(0.000000,1052.000000) scale(0.100000,-0.100000)"
fill="#000000" stroke="none">
<path d="M8515 9977 c-43 -17 -87 -65 -83 -90 2 -13 13 -24 28 -28 14 -4 52
-15 85 -24 32 -10 109 -21 170 -26 60 -5 133 -16 162 -24 82 -24 125 -19 144
17 8 15 5 24 -13 43 -13 14 -28 25 -35 25 -6 0 -24 11 -40 24 -65 54 -169 83
-323 92 -36 2 -78 -2 -95 -9z"/>
<path d="M102 9567 c-18 -7 -37 -18 -41 -25 -4 -8 -14 -14 -22 -15 -38 -6 -39
-11 -39 -293 l0 -274 25 0 c33 0 33 -28 0 -36 l-25 -6 0 -978 0 -978 153 4
c83 2 283 9 442 14 678 23 1056 23 1485 0 223 -12 484 -23 580 -24 96 -2 285
-9 420 -16 204 -10 252 -15 287 -32 38 -18 49 -18 130 -7 48 6 131 14 183 18
l95 6 0 60 c0 52 4 64 26 86 19 18 32 48 43 97 22 96 21 126 -1 117 -10 -4
-27 -10 -38 -13 -10 -3 -34 -16 -53 -28 -18 -13 -40 -20 -49 -17 -15 6 -14 17
2 84 6 23 3 27 -27 33 l-33 7 25 19 c19 16 34 19 65 14 67 -11 127 -6 144 12
15 14 14 17 -3 27 -41 26 -61 48 -48 54 10 4 10 8 1 19 -6 7 -9 20 -6 28 11
29 -43 29 -84 0 -63 -43 -93 -16 -40 37 26 25 27 30 13 38 -13 8 -14 13 -4 35
6 13 23 33 38 42 34 23 59 8 60 -36 0 -33 28 -64 50 -56 6 2 17 0 24 -4 12 -7
12 -13 0 -35 -20 -38 -3 -50 51 -34 94 27 89 13 83 247 -3 113 -8 210 -11 214
-2 5 -6 97 -8 204 -1 107 -4 197 -7 199 -2 2 -32 6 -66 8 -34 2 -64 6 -68 9
-12 13 14 41 57 62 49 23 57 47 19 56 -33 8 -36 33 -12 75 17 27 18 36 8 45
-8 5 -21 7 -31 4 -15 -6 -17 -2 -13 29 2 21 1 37 -3 37 -12 0 -60 -65 -65 -90
-8 -37 -19 -55 -35 -55 -9 0 -13 8 -11 22 2 17 -4 26 -23 35 -22 10 -30 8 -52
-8 -36 -27 -39 -42 -11 -46 15 -2 24 -11 26 -25 3 -23 -3 -27 -90 -62 -27 -10
-28 -14 -28 -76 0 -36 -7 -82 -15 -102 -14 -34 -14 -38 2 -47 10 -6 36 -13 58
-16 38 -5 40 -7 38 -38 0 -18 1 -31 5 -28 3 3 10 -4 16 -17 8 -14 23 -24 45
-27 48 -7 59 -30 38 -76 -17 -36 -17 -37 3 -58 16 -18 20 -36 20 -84 0 -46 4
-64 15 -68 21 -9 19 -57 -5 -86 -11 -14 -33 -28 -50 -32 -17 -3 -46 -22 -64
-41 -36 -37 -63 -45 -73 -19 -6 17 30 60 59 70 11 3 17 11 15 17 -2 8 -35 13
-92 14 -49 1 -92 6 -96 10 -19 19 4 53 42 63 70 19 88 90 18 75 -23 -5 -28 -3
-31 17 -3 21 -7 23 -53 19 -97 -8 -100 -7 -103 16 -2 15 8 30 34 50 35 26 44
28 129 28 63 0 97 4 108 14 19 15 22 46 7 56 -6 3 -7 17 -4 31 3 13 2 24 -2
24 -18 0 -32 -16 -35 -40 -4 -23 -9 -25 -56 -28 l-53 -3 0 55 c0 41 -4 56 -14
56 -28 0 -38 27 -22 58 14 27 14 31 -2 45 -9 8 -38 18 -63 22 -59 9 -76 34
-60 91 14 51 3 61 -48 41 -69 -28 -94 -1 -61 63 11 22 20 41 20 42 0 2 -31 2
-70 0 -80 -4 -85 3 -49 68 l21 37 -24 24 c-44 44 -72 53 -120 41 -24 -6 -59
-14 -78 -17 -19 -3 -50 -8 -67 -12 -18 -3 -33 -1 -33 4 0 12 33 43 46 43 5 0
15 4 23 9 11 7 9 15 -10 40 -25 35 -46 38 -89 16 -29 -15 -30 -15 -30 5 0 20
-12 29 -44 34 -9 1 -22 10 -29 21 -19 25 -30 4 -17 -31 14 -35 7 -52 -25 -64
-14 -5 -25 -17 -25 -26 0 -19 44 -13 102 15 21 10 40 16 43 13 3 -3 5 -22 5
-43 0 -21 5 -41 10 -44 6 -4 10 -28 9 -54 -2 -49 5 -71 22 -71 6 0 29 -19 53
-42 23 -24 52 -51 65 -61 23 -19 25 -46 6 -89 -5 -14 -2 -18 12 -18 10 0 24
-5 29 -10 7 -7 19 -8 37 -1 39 15 45 -6 8 -27 -48 -26 -36 -48 24 -43 40 3 47
1 38 -10 -6 -8 -14 -28 -17 -45 -11 -48 -48 -78 -88 -70 -32 6 -34 4 -52 -40
-10 -25 -17 -46 -15 -48 2 -2 33 0 68 5 45 6 68 6 77 -2 20 -16 18 -24 -16
-62 -36 -42 -37 -45 -5 -57 31 -12 33 -45 3 -61 -21 -11 -198 -23 -198 -13 0
3 5 14 10 25 9 16 7 19 -8 19 -11 0 -25 6 -31 14 -7 8 -24 17 -39 21 -25 6
-42 21 -42 37 0 5 16 26 36 48 40 44 38 48 -36 52 -44 3 -48 7 -35 39 4 11 -3
20 -24 28 -46 20 -46 38 -1 61 22 11 40 27 40 35 0 20 -12 19 -43 -5 -14 -11
-33 -20 -42 -20 -9 0 -19 -9 -22 -20 -3 -12 -14 -20 -25 -20 -16 0 -19 5 -15
23 20 87 20 87 -6 87 -40 0 -49 21 -27 58 25 41 25 42 -5 42 -27 0 -34 17 -10
26 8 3 23 20 33 38 16 27 17 35 6 50 -10 15 -16 16 -36 6 -13 -7 -36 -24 -51
-39 -33 -30 -125 -55 -144 -39 -18 15 -16 32 7 53 28 25 25 35 -10 35 -75 0
-31 75 48 83 98 10 152 37 102 50 -32 8 -35 34 -6 68 31 37 23 61 -26 78 -26
9 -35 9 -47 -4 -15 -15 -13 -18 12 -36 18 -14 27 -30 27 -49 0 -35 -24 -43
-132 -45 -56 -1 -78 2 -82 12 -3 7 -12 13 -20 13 -9 0 -20 9 -26 20 -6 11 -19
20 -30 20 -10 0 -26 10 -34 22 l-16 22 -22 -21 c-20 -21 -21 -23 -5 -41 27
-30 22 -69 -13 -87 -39 -20 -50 -19 -50 4 0 31 -18 34 -42 6 -12 -14 -28 -25
-35 -25 -21 0 -15 48 7 62 24 15 27 58 5 58 -8 0 -15 9 -15 20 0 11 5 20 10
20 6 0 10 4 10 9 0 6 -12 3 -27 -5 -51 -26 -87 -18 -117 24 -31 46 -33 71 -6
105 26 33 25 37 -10 37 -28 0 -30 2 -30 40 0 27 -5 43 -15 46 -18 7 -54 -32
-55 -59 0 -10 -11 -28 -25 -41 -14 -13 -25 -26 -25 -29 0 -3 18 -8 40 -12 22
-4 40 -11 40 -16 0 -4 14 -24 31 -44 l31 -35 -24 -41 -25 -42 19 -38 c21 -44
18 -42 54 -29 31 12 64 4 64 -15 0 -7 -15 -25 -32 -39 l-33 -26 33 -12 c28
-11 32 -17 27 -36 -8 -33 11 -52 52 -52 19 0 43 -5 55 -11 17 -9 19 -17 13
-47 -3 -21 -13 -47 -21 -59 -8 -12 -14 -34 -14 -49 0 -26 -19 -56 -70 -114
l-22 -25 33 -3 c21 -2 42 4 60 17 36 27 59 27 59 1 0 -12 -16 -30 -40 -46 -44
-29 -47 -45 -9 -54 31 -7 38 -45 10 -53 -10 -2 -27 -19 -36 -36 l-16 -32 28
15 c15 8 36 24 45 35 20 24 48 18 48 -10 0 -10 9 -23 21 -29 20 -11 20 -12 -6
-56 l-26 -44 31 0 c49 0 49 -26 1 -70 -49 -45 -52 -60 -11 -60 37 0 38 -6 5
-32 -14 -11 -25 -25 -25 -32 0 -20 -33 -45 -68 -52 -30 -6 -32 -4 -38 25 l-7
31 -32 -20 c-18 -11 -39 -20 -48 -20 -24 0 -30 35 -13 69 9 17 16 53 16 80 0
53 -15 71 -59 71 -28 0 -26 8 7 45 16 16 34 49 41 72 6 24 23 54 37 69 30 29
25 39 -19 39 -29 0 -32 3 -29 27 4 37 -28 55 -52 29 -11 -12 -43 -24 -80 -30
-80 -14 -88 -14 -110 2 -28 20 -6 82 32 92 14 3 48 26 74 51 26 24 54 44 63
44 29 0 10 25 -22 28 -28 3 -30 6 -31 45 -1 25 -10 52 -22 67 -12 14 -23 32
-26 41 -3 8 -19 20 -35 26 -22 9 -29 18 -29 37 0 19 -5 26 -20 26 -30 0 -36
27 -12 59 11 16 24 45 27 65 l7 36 -36 0 c-20 0 -36 3 -36 6 0 3 11 20 25 38
30 39 33 62 8 51 -22 -9 -134 -26 -146 -22 -20 6 36 56 92 81 63 28 81 56 36
56 -17 0 -25 5 -25 18 0 11 -8 18 -21 19 -34 3 -51 23 -44 55 8 34 -9 37 -58
11 -18 -9 -51 -20 -74 -23 -37 -6 -43 -4 -43 11 0 10 12 26 28 35 94 58 107
74 62 74 -32 0 -35 22 -5 46 31 24 29 46 -5 64 -16 8 -21 8 -26 -3 -3 -8 -23
-22 -44 -32 -22 -10 -42 -26 -45 -36 -8 -24 -98 -99 -119 -99 -28 0 -18 21 39
76 30 30 55 56 55 59 0 2 -17 5 -37 7 -35 3 -38 5 -36 33 1 17 -3 54 -9 83 -9
42 -15 52 -28 49 -10 -2 -25 0 -34 5 -12 7 -22 2 -41 -18 -14 -15 -25 -35 -25
-45 0 -10 -10 -25 -21 -33 -12 -8 -30 -29 -41 -46 -19 -32 -19 -32 3 -51 21
-18 22 -18 51 6 16 14 33 25 38 25 20 0 21 -24 1 -51 -11 -15 -21 -30 -21 -32
0 -3 14 -7 30 -10 18 -4 30 -13 30 -22 0 -18 -45 -38 -70 -30 -33 10 -67 -11
-74 -47 -4 -18 -13 -42 -22 -53 -13 -17 -16 -18 -24 -5 -21 32 2 100 34 100
15 0 42 47 33 56 -3 4 -18 -3 -33 -15 -68 -54 -131 6 -68 64 17 16 24 30 20
41 -11 28 12 78 44 96 39 22 38 32 -7 46 -29 9 -40 9 -53 -2 -8 -8 -25 -17
-37 -20 -13 -4 -23 -13 -23 -20 0 -13 -31 -46 -43 -46 -4 0 -7 9 -7 20 0 14
-7 20 -24 20 -14 0 -38 11 -54 25 -17 14 -35 25 -41 25 -6 0 -20 5 -30 12 -15
9 -30 5 -83 -20 -71 -35 -99 -39 -118 -17 -10 11 -3 22 34 59 41 39 59 76 38
76 -20 0 -80 -52 -91 -78 -14 -32 -58 -59 -73 -44 -6 6 -4 21 6 40 20 39 20
42 -4 42 -13 0 -20 -7 -20 -19 0 -22 -44 -61 -70 -61 -9 0 -30 18 -45 40 -44
64 -51 149 -10 134 10 -4 10 -13 0 -42 -12 -32 -11 -38 2 -43 10 -3 33 13 64
46 52 55 58 69 33 79 -26 10 -116 5 -152 -7z m1118 -552 c17 -9 30 -22 30 -30
0 -27 -49 -60 -98 -65 -43 -5 -48 -8 -58 -40 -11 -34 -54 -67 -73 -56 -5 3
-11 20 -15 37 -5 27 -1 37 35 74 23 24 48 41 55 38 7 -3 30 9 51 26 21 17 39
31 41 31 2 0 16 -7 32 -15z m-223 -247 c-9 -25 11 -57 31 -51 31 8 39 -18 12
-39 -17 -13 -26 -15 -36 -8 -9 8 -23 6 -53 -9 -48 -25 -74 -26 -91 -6 -7 8
-21 15 -31 15 -23 0 -25 27 -3 58 14 20 21 22 60 16 53 -8 94 1 94 21 0 8 5
15 11 15 6 0 9 -6 6 -12z m383 -49 c0 -21 -33 -80 -52 -94 -11 -7 -17 -18 -14
-23 10 -16 44 -2 61 24 9 14 25 24 39 24 31 0 39 -11 18 -26 -16 -11 -16 -13
2 -32 22 -25 15 -54 -21 -82 -32 -25 -88 -27 -102 -3 -6 12 -20 16 -46 15 -29
-2 -42 3 -62 24 -13 14 -23 28 -21 29 2 2 25 13 51 24 34 15 47 26 47 40 0 27
57 91 81 91 10 0 19 -5 19 -11z m1908 -637 c2 -12 16 -29 33 -37 37 -20 39
-56 3 -84 -36 -28 -42 -27 -46 11 -4 42 -17 44 -63 8 -21 -16 -46 -30 -56 -30
-31 0 -7 42 31 55 41 14 48 30 24 56 -18 20 -18 21 1 35 29 22 69 14 73 -14z
m-721 -62 c-8 -64 -43 -100 -96 -100 -59 0 -66 11 -31 55 16 21 30 42 30 47 0
18 45 47 74 48 29 0 29 0 23 -50z m327 -315 c3 -8 15 -15 26 -15 25 0 28 -41
4 -64 -21 -21 -37 -20 -59 4 -17 19 -18 19 -56 0 -45 -24 -72 -25 -89 -5 -28
34 10 70 90 86 58 11 78 10 84 -6z m249 -94 c14 -14 -33 -59 -90 -88 -40 -20
-60 -37 -69 -60 -8 -18 -34 -53 -59 -78 -40 -40 -58 -75 -37 -75 14 0 61 36
82 63 12 15 28 27 36 27 16 0 19 -31 4 -46 -5 -5 -12 -25 -14 -42 -2 -18 -10
-38 -18 -45 -9 -7 -32 -38 -53 -69 -23 -37 -44 -58 -56 -58 -25 0 -24 12 1 35
33 30 22 59 -25 67 -22 3 -59 12 -83 20 -38 11 -47 10 -74 -5 -41 -24 -68 -22
-68 4 0 23 54 79 76 79 8 0 14 6 14 14 0 23 38 63 82 85 46 22 58 20 41 -8 -8
-13 -7 -23 7 -42 24 -31 35 -19 35 39 1 62 10 79 51 94 21 7 37 21 40 34 3 12
22 34 42 48 32 23 44 25 82 20 25 -3 49 -10 53 -13z m-1176 -128 c12 -3 24
-12 28 -20 7 -20 -22 -53 -48 -53 -11 0 -29 -7 -38 -16 -24 -22 -8 -54 26 -54
16 0 25 -6 25 -15 0 -15 -16 -20 -59 -16 -20 2 -23 -1 -17 -23 9 -38 -27 -59
-77 -45 -43 12 -55 26 -34 42 15 12 26 54 30 110 1 17 10 33 22 39 11 6 35 24
54 40 22 19 39 27 50 22 9 -3 26 -9 38 -11z"/>
<path d="M2165 8945 c-16 -8 -48 -14 -71 -15 -30 0 -47 -6 -64 -25 -13 -14
-20 -25 -15 -25 5 0 2 -6 -6 -12 -16 -14 -43 -68 -33 -68 3 0 22 11 42 25 20
14 46 25 59 25 36 0 53 11 53 35 0 30 12 37 46 29 22 -6 25 -11 20 -34 -5 -27
-4 -28 47 -33 38 -3 57 0 74 12 31 22 24 32 -30 51 -25 9 -55 24 -65 33 -21
20 -18 19 -57 2z"/>
<path d="M7345 8927 c-33 -5 -73 -15 -88 -23 -16 -8 -50 -14 -77 -14 -27 0
-52 -5 -55 -10 -9 -15 14 -80 28 -80 7 0 21 -3 32 -6 15 -4 25 2 34 20 17 31
34 22 76 -40 17 -24 37 -44 47 -44 9 0 35 -16 59 -36 38 -31 48 -35 79 -29 82
15 140 13 164 -6 25 -20 66 -26 66 -10 0 11 -39 37 -100 68 -51 25 -150 116
-150 136 0 17 141 -53 240 -119 36 -23 79 -46 95 -49 57 -13 65 -16 65 -31 0
-8 4 -14 8 -14 5 0 15 -12 22 -26 11 -19 20 -24 37 -21 19 3 23 0 23 -19 0
-26 -15 -32 -23 -10 -3 7 -25 18 -49 24 -25 6 -56 21 -70 32 -15 11 -36 20
-49 20 -22 0 -22 -1 6 -30 16 -16 34 -30 41 -30 16 0 74 -67 74 -84 0 -22 -94
-25 -133 -4 -18 9 -40 17 -50 18 -9 0 -25 5 -35 11 -14 9 -35 9 -81 1 -40 -7
-71 -8 -86 -2 -14 5 -40 11 -58 14 -17 2 -54 12 -80 22 l-48 19 -18 -24 c-16
-21 -23 -23 -61 -17 -34 5 -47 3 -62 -11 -19 -17 -21 -17 -39 6 -18 22 -21 23
-32 7 -15 -21 -40 -17 -126 21 -22 10 -47 13 -77 8 -40 -6 -44 -9 -50 -41 -8
-44 -37 -49 -82 -13 -17 13 -39 18 -78 18 -30 -1 -54 -5 -54 -9 0 -17 -41 -17
-64 1 -13 10 -28 19 -34 19 -5 0 -21 9 -36 21 -28 22 -35 49 -12 49 8 0 27 5
43 11 l28 10 -51 19 c-51 17 -65 17 -151 -6 -21 -5 -16 -44 5 -44 22 0 62 -32
62 -49 0 -6 5 -11 10 -11 6 0 10 -4 10 -10 0 -16 -23 -11 -50 10 -14 11 -34
20 -46 20 -12 0 -33 11 -48 25 -21 19 -33 24 -54 18 -99 -24 -162 -80 -162
-143 0 -28 -5 -42 -19 -49 -10 -6 -21 -21 -25 -35 -3 -13 -18 -32 -33 -41 -16
-10 -50 -37 -78 -60 -27 -23 -57 -46 -67 -51 -85 -46 -553 -511 -673 -669 -38
-50 -111 -145 -161 -211 -49 -65 -108 -150 -130 -187 -21 -38 -58 -101 -81
-140 -24 -40 -48 -83 -54 -97 -6 -14 -16 -32 -24 -40 -7 -8 -16 -26 -20 -40
-4 -14 -33 -77 -64 -140 -169 -345 -238 -567 -300 -965 -13 -85 -17 -347 -7
-505 8 -134 31 -313 41 -330 2 -3 11 -49 19 -102 26 -159 108 -453 150 -536 7
-15 19 -58 26 -97 7 -38 19 -84 27 -102 7 -18 13 -46 13 -63 0 -17 13 -71 30
-119 37 -109 29 -160 -18 -113 -9 9 -32 28 -51 41 -18 13 -44 34 -57 46 -41
38 -140 68 -238 73 -83 3 -93 2 -151 -27 -87 -43 -150 -115 -219 -250 -60
-117 -129 -309 -124 -343 2 -16 16 0 57 63 30 46 69 102 86 124 18 22 49 74
69 115 34 68 84 135 93 126 3 -2 -14 -41 -37 -85 l-41 -82 35 6 c19 4 50 2 69
-4 53 -18 227 -198 227 -235 0 -9 9 -25 20 -36 41 -41 19 -55 -24 -15 -15 14
-31 25 -37 25 -5 0 -9 6 -9 14 0 17 -103 85 -194 126 -68 32 -69 32 -107 15
-51 -24 -72 -48 -104 -125 -48 -117 -50 -180 -3 -180 23 0 30 -14 22 -45 -5
-21 -12 -25 -41 -25 -26 0 -36 5 -40 20 -6 23 -23 27 -23 5 0 -8 4 -15 10 -15
5 0 12 -16 16 -35 6 -33 52 -85 75 -85 14 0 11 -40 -5 -56 -11 -11 -37 -14
-98 -12 -46 1 -88 5 -94 9 -5 5 -24 0 -41 -11 -41 -25 -75 -100 -77 -167 -1
-47 3 -56 34 -87 19 -20 43 -36 52 -36 9 0 19 -9 23 -19 3 -10 16 -21 28 -24
95 -22 247 -95 247 -119 0 -12 -38 -10 -45 2 -3 5 -13 10 -22 10 -9 0 -34 8
-57 19 -23 10 -79 33 -126 51 -47 18 -94 36 -105 40 -11 5 -31 11 -45 13 -14
2 -32 7 -41 11 -18 8 -33 -22 -44 -86 -5 -35 -8 -38 -40 -38 -28 0 -37 -6 -50
-30 -20 -39 -19 -60 3 -60 19 0 142 -108 142 -125 0 -6 12 -22 27 -36 78 -70
130 -139 106 -139 -15 0 -73 40 -73 50 0 5 -7 10 -15 10 -8 0 -29 15 -47 33
-18 18 -45 38 -60 45 -16 6 -28 16 -28 22 0 5 -5 10 -12 10 -6 0 -26 12 -45
26 -19 14 -37 23 -41 19 -3 -3 7 -43 22 -89 l29 -83 -17 -64 c-33 -117 -95
-371 -176 -712 -43 -186 -86 -352 -94 -370 -9 -18 -22 -59 -30 -92 -8 -33 -22
-85 -30 -115 -8 -30 -19 -80 -25 -110 -6 -30 -22 -113 -35 -185 -30 -160 -49
-309 -44 -355 l3 -34 55 67 c90 112 133 211 100 232 -21 13 -9 50 27 87 34 35
36 39 21 54 -18 19 -69 12 -89 -12 -16 -20 -53 -19 -45 2 3 9 6 28 6 44 0 17
14 47 35 74 41 54 41 56 14 56 -24 0 -23 29 1 40 68 32 96 39 185 44 108 6
202 -10 217 -38 5 -9 34 -23 64 -32 53 -15 56 -17 52 -45 -3 -19 0 -29 8 -29
7 0 17 -7 22 -15 5 -9 25 -17 50 -18 22 -1 44 -6 48 -10 11 -11 -36 -56 -86
-83 -25 -13 -69 -45 -98 -69 -29 -25 -62 -45 -72 -45 -11 0 -20 -4 -20 -9 0
-6 -15 -7 -34 -4 -25 4 -43 -1 -73 -21 -22 -15 -47 -24 -55 -21 -27 10 -121
-27 -150 -59 -16 -17 -28 -34 -28 -39 0 -5 -21 -33 -47 -64 -45 -52 -65 -73
-118 -124 -20 -19 -52 -19 -1488 -19 -1460 0 -1467 0 -1467 -20 0 -20 7 -20
7430 -20 l7430 0 -1 3003 c-1 2554 -3 2998 -14 2972 -8 -16 -14 -41 -15 -55 0
-14 -4 -31 -9 -39 -13 -20 -55 14 -77 62 -10 22 -33 49 -52 62 -18 13 -40 32
-48 44 -21 30 -58 26 -86 -8 -13 -16 -32 -33 -44 -39 -18 -10 -24 -6 -49 34
-15 24 -33 44 -39 44 -6 0 -19 -18 -28 -40 -11 -28 -23 -40 -37 -40 -11 0 -43
-22 -70 -50 -28 -27 -59 -50 -70 -50 -11 0 -22 -4 -26 -9 -3 -5 -30 -19 -61
-31 -31 -11 -66 -33 -79 -48 -32 -38 -94 -67 -185 -87 -111 -25 -205 -53 -295
-91 -44 -18 -92 -35 -106 -38 -15 -3 -51 -29 -80 -57 -30 -28 -67 -57 -82 -65
-27 -14 -29 -14 -34 6 -3 12 -12 20 -22 18 -21 -4 -181 -246 -181 -274 0 -12
-11 -35 -24 -51 -32 -39 -82 -123 -91 -153 -3 -14 -16 -45 -27 -69 -34 -76
-75 -194 -93 -267 -26 -109 -44 -163 -83 -247 l-35 -77 -66 -20 c-36 -12 -111
-27 -165 -35 -61 -9 -106 -21 -118 -32 -10 -9 -20 -14 -22 -12 -23 26 -54 163
-81 352 -8 60 -18 113 -21 118 -3 6 -10 38 -15 72 -12 90 -54 262 -88 364 -16
48 -32 103 -36 121 -4 18 -25 74 -47 125 -22 50 -51 119 -65 152 -43 103 -81
183 -91 189 -5 3 -24 40 -42 83 -19 43 -41 87 -51 98 -10 11 -27 40 -38 65
-12 25 -36 63 -54 86 -17 23 -50 67 -72 99 -22 32 -57 75 -77 96 -21 21 -38
43 -38 49 0 6 -28 47 -62 91 -35 45 -73 97 -85 117 -22 36 -30 47 -116 147
-24 28 -54 66 -67 85 -13 19 -32 41 -41 47 -10 7 -34 37 -55 65 -38 52 -73 92
-166 188 -27 27 -48 52 -48 55 0 8 -288 291 -338 332 -26 21 -74 64 -108 96
-34 31 -67 57 -73 57 -6 0 -38 24 -70 53 -75 67 -138 118 -171 138 -14 9 -52
42 -85 73 -33 32 -79 72 -103 89 -24 18 -64 49 -88 70 -25 20 -51 37 -59 37
-7 0 -32 16 -55 35 -23 19 -47 35 -52 35 -16 0 -126 68 -188 116 -30 23 -72
49 -94 58 -21 9 -77 41 -125 71 -48 30 -90 55 -93 55 -3 0 -36 18 -72 40 -36
22 -103 57 -148 78 -46 22 -121 57 -168 80 -83 40 -321 132 -342 132 -5 0 -44
14 -85 30 -42 17 -126 42 -187 55 -61 14 -136 32 -166 41 -35 10 -93 16 -160
16 -62 0 -113 5 -125 11 -23 14 -297 16 -390 4z m597 -127 c34 -21 49 -39 58
-67 7 -21 20 -49 29 -63 24 -35 46 -84 50 -108 1 -11 77 -48 116 -57 17 -4 45
-7 64 -7 19 1 47 -6 62 -14 15 -8 40 -14 54 -14 37 0 110 -39 97 -52 -19 -19
-135 -22 -173 -4 -57 27 -151 48 -163 36 -19 -19 -45 -10 -61 20 -16 30 -35
32 -35 4 0 -20 -34 -18 -52 4 -24 28 -27 44 -18 123 9 77 -2 106 -27 73 -22
-30 -43 -9 -43 44 0 34 -6 57 -20 75 -11 14 -20 28 -20 31 0 15 39 3 82 -24z
m-675 -1351 c27 -6 56 -15 65 -20 10 -5 28 -9 41 -9 13 0 27 -3 31 -7 3 -4 14
-8 24 -9 9 -1 53 -7 96 -13 48 -7 84 -7 89 -2 5 5 21 6 36 1 14 -5 47 -11 74
-15 39 -5 47 -10 47 -27 0 -15 -5 -19 -20 -15 -29 7 -25 -17 8 -53 46 -50 52
-59 52 -70 0 -5 9 -19 20 -30 32 -32 144 -26 153 9 3 10 5 6 6 -9 2 -46 13
-73 22 -58 6 8 9 9 9 1 0 -6 18 -14 40 -18 22 -4 46 -13 53 -20 8 -7 22 -14
32 -16 10 -2 23 -17 28 -34 6 -16 16 -36 24 -43 18 -18 0 -42 -32 -42 -22 0
-25 -6 -28 -60 -1 -16 -5 -30 -9 -30 -5 0 -8 -7 -8 -15 0 -8 6 -15 13 -15 8 0
7 -4 -3 -10 -8 -5 -31 -10 -51 -10 -30 0 -41 -7 -69 -41 -29 -37 -31 -43 -16
-51 11 -6 15 -16 11 -29 -4 -10 -2 -19 4 -19 5 0 11 -10 13 -22 2 -19 9 -23
33 -21 17 2 42 4 57 5 30 2 58 -22 58 -49 0 -11 5 -24 12 -31 9 -9 7 -13 -5
-18 -9 -3 -17 -12 -17 -20 0 -10 -9 -12 -32 -8 -25 4 -29 3 -18 -5 8 -6 23
-11 33 -11 9 0 17 -8 17 -17 0 -12 -3 -14 -11 -6 -6 6 -23 8 -43 3 -17 -4 -43
-3 -56 2 -14 5 -44 9 -67 10 -31 0 -47 6 -65 25 -43 46 -148 84 -148 54 0 -5
-9 -13 -20 -16 -11 -3 -20 -11 -20 -16 0 -16 -24 -36 -37 -32 -6 2 -15 -1 -19
-8 -4 -8 -3 -9 4 -5 7 4 12 3 12 -3 0 -5 -12 -11 -27 -13 -20 -2 -29 -9 -31
-25 -2 -13 -9 -23 -17 -23 -7 0 -15 -11 -17 -25 -5 -25 4 -29 128 -51 40 -7
61 -31 75 -86 10 -37 10 -55 0 -88 -11 -39 -14 -41 -29 -27 -16 14 -26 13
-106 -9 -68 -19 -91 -22 -102 -13 -24 20 -37 90 -30 172 8 90 3 93 -66 47 -43
-29 -49 -30 -89 -19 -40 10 -111 25 -166 35 -22 4 -22 5 -6 42 10 20 18 38 19
40 1 2 12 -2 24 -8 18 -9 28 -9 46 1 31 16 30 27 -2 39 -17 7 -32 6 -46 -1
-29 -16 -64 -3 -84 30 l-18 30 -23 -27 c-13 -15 -23 -30 -23 -34 0 -14 -38 -9
-53 7 -8 8 -21 16 -28 17 -17 4 -119 105 -119 118 0 6 -6 10 -13 10 -24 0 -77
31 -77 44 0 25 -123 148 -166 166 -52 23 -99 68 -119 115 -17 43 -22 215 -5
215 6 0 10 -4 10 -10 0 -27 63 22 74 58 4 12 14 22 22 22 8 0 14 9 14 20 0 10
11 30 25 44 14 14 25 30 25 35 0 14 18 23 54 27 44 5 56 11 56 28 0 10 -13 16
-37 19 -21 2 16 2 82 0 66 -2 143 0 172 5 30 5 58 5 67 0 20 -11 56 -1 56 16
0 11 40 33 67 35 7 1 34 -4 60 -10z m968 -1189 c6 0 -1 -9 -15 -19 l-25 -19
29 -8 28 -7 -38 -13 c-22 -8 -66 -13 -99 -13 -48 1 -55 3 -35 10 l25 9 -25 -4
c-14 -3 -51 -12 -84 -21 -76 -21 -89 -16 -81 32 4 21 8 43 10 50 3 8 45 10
152 7 81 -2 153 -4 158 -4z m-189 -155 c3 -14 10 -25 15 -25 5 0 9 -13 9 -28
0 -39 -59 -97 -89 -87 -12 3 -26 15 -31 26 -6 10 -18 19 -28 19 -14 0 -14 2
-3 9 9 6 11 18 7 35 -5 21 -2 28 17 35 12 5 29 16 36 25 21 26 60 20 67 -9z
m-1175 -927 c5 -7 6 -20 3 -28 -4 -8 -9 -25 -11 -37 -8 -36 -36 -54 -72 -47
-17 4 -36 14 -41 24 -16 30 -28 98 -19 107 13 13 130 -3 140 -19z m-190 -839
c10 -13 21 -36 24 -51 4 -15 13 -32 21 -39 8 -6 14 -17 14 -24 0 -7 11 -16 24
-19 22 -5 23 -10 19 -48 -12 -106 0 -179 36 -221 24 -29 58 -137 63 -204 1 -7
4 -11 7 -10 3 1 20 -7 36 -18 41 -26 88 -65 79 -65 -4 0 4 -9 17 -21 16 -14
20 -22 12 -27 -8 -5 -9 -13 -3 -22 6 -8 10 -10 10 -5 0 6 8 -1 16 -15 l15 -25
-4 28 c-3 18 0 27 9 27 8 0 14 -11 14 -25 0 -14 9 -34 20 -45 26 -26 25 -30
-6 -30 -17 0 -28 -6 -31 -20 -3 -11 -9 -17 -14 -14 -5 3 -9 -2 -9 -11 0 -9 -4
-14 -9 -10 -5 3 -11 -5 -13 -17 -2 -16 -9 -22 -22 -20 -10 2 -15 -1 -12 -7 7
-10 -19 -20 -61 -24 -15 -1 -23 -10 -27 -29 -7 -35 -26 -37 -26 -3 0 14 -2 25
-4 25 -16 0 -36 -14 -36 -25 0 -7 -7 -15 -15 -19 -10 -4 -15 1 -15 14 0 14 -7
20 -24 20 -36 0 -49 24 -48 91 l1 60 -33 -20 c-18 -12 -36 -18 -39 -14 -4 3
-7 1 -7 -5 0 -6 -7 -18 -16 -27 -9 -9 -18 -29 -19 -45 -3 -37 -36 -72 -61 -64
-11 3 -15 2 -9 -3 15 -12 12 -77 -4 -96 -19 -24 -53 -21 -113 8 -28 14 -61 25
-73 25 -13 0 -34 16 -54 40 -28 35 -37 40 -72 40 -22 0 -38 4 -34 9 3 5 1 12
-5 16 -5 3 -17 -12 -26 -34 -18 -46 -29 -51 -38 -18 -10 39 -7 495 4 502 6 4
10 -20 10 -63 0 -61 3 -70 19 -75 27 -7 47 19 62 78 12 52 67 192 101 258 22
44 36 62 106 134 28 30 52 62 52 70 0 9 11 30 23 47 13 17 32 48 42 68 9 21
21 36 25 33 5 -3 11 -1 14 4 12 18 68 5 87 -20z m5929 -199 c0 -36 4 -42 41
-66 38 -24 41 -28 36 -60 -3 -18 -1 -36 5 -40 6 -4 7 -38 3 -95 -4 -67 -3 -95
8 -116 8 -15 18 -47 22 -71 4 -24 10 -41 13 -38 8 9 30 -38 22 -49 -11 -15
-19 -180 -10 -196 4 -8 10 -43 14 -78 4 -52 11 -72 38 -105 17 -23 39 -45 47
-50 28 -17 61 -59 61 -77 0 -10 -8 -20 -17 -23 -35 -10 -176 7 -198 25 -23 17
-258 57 -307 51 -19 -2 -33 31 -22 50 4 6 8 156 9 332 2 177 3 331 4 344 1 19
7 22 44 22 48 0 73 12 62 30 -5 8 -22 10 -56 6 -42 -6 -49 -4 -63 16 -11 15
-16 44 -16 85 0 76 11 86 115 104 39 6 81 18 95 25 41 22 50 17 50 -26z
m-5431 -54 c5 -13 16 -26 24 -29 17 -6 30 -65 32 -141 0 -29 6 -51 13 -54 7
-2 12 -10 12 -18 0 -17 31 -19 48 -2 7 7 12 26 12 43 0 16 5 37 10 45 8 13 10
13 10 -2 0 -11 6 -15 20 -11 11 3 20 12 20 19 0 8 -9 14 -20 14 -11 0 -20 5
-20 10 0 6 11 10 25 10 14 0 25 5 25 11 0 14 86 3 107 -14 39 -33 74 -74 79
-94 4 -13 10 -20 15 -17 5 3 10 -5 10 -18 1 -16 3 -18 6 -6 2 10 10 15 18 11
12 -4 12 -7 2 -18 -8 -7 -22 -14 -33 -17 -13 -2 -22 -16 -29 -45 -12 -47 -27
-68 -53 -68 -10 0 -18 -9 -20 -22 -2 -13 1 -23 7 -23 13 0 14 -59 3 -78 -14
-22 -112 -32 -145 -15 -25 12 -28 19 -26 53 2 22 0 42 -4 46 -4 4 -7 15 -7 25
0 22 -82 108 -87 92 -2 -6 -20 -9 -46 -6 -32 4 -47 0 -63 -15 -11 -11 -39 -31
-61 -45 l-41 -26 -5 25 c-2 14 0 44 5 66 14 66 15 173 0 190 -7 9 -33 21 -57
27 -54 14 -95 48 -74 63 33 21 47 26 96 33 29 4 55 11 59 16 3 5 32 9 65 9 53
0 60 -2 68 -24z m6301 -223 c0 -15 -5 -41 -11 -58 -10 -28 -9 -37 15 -77 34
-59 35 -124 1 -196 -22 -47 -24 -64 -23 -170 2 -100 -1 -125 -20 -173 -25 -62
-68 -117 -82 -103 -4 5 -20 53 -35 108 -14 54 -40 128 -57 165 -45 98 -46 125
-7 233 42 118 78 180 142 246 57 58 77 65 77 25z m-5684 -50 c22 -9 45 -18 52
-19 43 -8 43 -10 41 -119 l-2 -105 -44 -45 c-49 -50 -53 -52 -53 -30 0 8 -5
14 -12 13 -7 -2 -15 16 -19 45 -6 37 -17 59 -51 95 -23 26 -50 47 -58 47 -9 0
-16 11 -18 28 -2 15 0 27 5 26 4 -1 16 -1 27 0 16 1 17 3 5 18 -11 13 -11 17
-1 20 6 3 12 11 12 18 0 13 20 20 61 24 9 0 34 -7 55 -16z m-3415 -13 c19 -5
45 -21 57 -35 12 -14 29 -25 37 -25 8 0 15 -4 15 -9 0 -5 6 -16 13 -23 62 -65
117 -180 117 -247 0 -41 -13 -39 -46 7 -16 20 -33 42 -38 47 -21 20 -66 84
-66 94 0 5 -6 14 -14 18 -7 4 -18 18 -25 31 -16 30 -107 101 -139 108 -56 12
-59 14 -38 30 23 16 76 18 127 4z m3299 -285 c0 -9 7 -18 15 -21 8 -4 15 -12
15 -19 0 -7 6 -16 13 -18 7 -4 3 -8 -10 -12 -13 -4 -23 -11 -23 -16 0 -5 -6
-9 -14 -9 -8 0 -13 -11 -13 -27 0 -43 -13 -63 -40 -63 -13 0 -32 -4 -41 -9 -9
-4 -34 -11 -54 -15 -31 -6 -37 -4 -36 11 0 10 -2 38 -5 63 -7 48 16 129 37
131 72 4 130 10 134 14 10 10 22 5 22 -10z m426 -132 c13 -14 27 -43 30 -65 4
-21 11 -38 16 -38 5 0 6 5 3 10 -3 6 0 10 8 10 22 0 26 -19 22 -106 -4 -119
-4 -117 -19 -111 -9 4 -25 -8 -41 -29 -14 -19 -33 -34 -41 -34 -24 0 -74 -33
-74 -48 0 -7 3 -11 8 -9 8 5 10 -16 11 -90 0 -89 1 -98 11 -101 6 -2 10 -11
10 -19 0 -11 6 -14 21 -10 18 5 20 2 14 -16 -4 -12 -9 -33 -12 -47 -3 -14 -17
-38 -30 -53 -13 -16 -21 -32 -18 -37 11 -18 -48 -123 -110 -194 -52 -60 -86
-62 -155 -8 -41 31 -50 45 -60 86 -7 35 -7 51 0 56 6 4 9 23 6 44 -3 24 2 56
14 85 l18 47 -23 22 c-12 12 -27 22 -33 22 -13 0 -21 35 -12 50 6 10 14 8 30
-8 23 -21 40 -21 40 -1 0 6 -6 9 -12 7 -23 -8 -38 20 -37 69 0 33 3 42 8 29 5
-14 10 -16 15 -8 4 7 4 17 1 22 -3 6 -2 10 2 10 5 0 7 15 5 34 -4 36 -24 43
-51 18 -20 -20 -46 -10 -44 16 2 12 -2 22 -7 22 -18 0 -10 30 8 31 10 0 12 3
4 6 -6 2 -10 9 -6 14 3 5 -4 9 -16 9 -23 0 -39 28 -23 39 6 3 16 25 23 48 7
23 17 40 21 37 4 -2 12 3 17 12 5 9 22 17 38 18 16 1 38 7 49 12 28 15 82 25
100 18 8 -4 15 -15 15 -26 0 -18 3 -17 30 9 17 15 30 35 30 43 0 8 16 26 35
39 27 18 34 28 29 45 -4 17 1 24 23 33 49 19 82 15 109 -14z m4521 -405 c45
-10 88 -18 95 -16 16 3 102 -29 143 -54 17 -10 40 -18 53 -18 18 0 23 -5 20
-22 -3 -22 -46 -51 -146 -99 -43 -21 -77 -17 -47 5 15 11 14 14 -9 39 -14 15
-34 27 -44 27 -11 0 -30 10 -44 23 -24 21 -46 38 -109 86 -14 11 -38 23 -52
26 -15 4 -27 13 -27 21 0 17 40 13 167 -18z m623 -438 c21 -16 42 -30 47 -30
19 0 77 -51 91 -80 13 -26 62 -81 124 -137 7 -7 25 -29 41 -50 15 -21 45 -61
67 -90 22 -29 40 -55 40 -59 0 -19 112 -136 151 -158 26 -14 54 -37 63 -51 34
-51 60 -166 57 -243 l-1 -23 -29 22 c-16 12 -32 30 -34 40 -3 10 -17 23 -31
29 -14 5 -26 16 -26 23 0 13 -57 77 -69 77 -4 0 -15 14 -25 31 -10 17 -49 62
-87 99 -42 41 -69 76 -69 89 0 19 -46 91 -85 132 -8 8 -22 33 -31 55 -9 21
-33 59 -53 84 -21 25 -41 53 -44 63 -4 9 -14 17 -22 17 -9 0 -24 19 -36 44
-12 29 -32 52 -57 67 -42 26 -52 37 -52 62 0 26 27 21 70 -13z m-9222 -506
c51 -62 97 -114 101 -114 5 0 51 52 102 115 l94 115 73 0 72 0 0 -290 0 -290
-74 0 -74 0 -5 43 c-3 23 -4 103 -3 177 2 74 1 138 -1 143 -3 4 -42 -40 -88
-97 -47 -57 -88 -107 -93 -110 -5 -3 -49 44 -98 104 l-89 110 -3 -185 -2 -185
-75 0 -75 0 0 290 0 290 73 -1 72 0 93 -115z m1510 -7 l3 -119 35 32 c46 40
73 50 137 50 69 0 110 -25 131 -82 13 -34 16 -73 14 -193 l-3 -150 -62 -3 -63
-3 0 131 c0 159 -11 196 -63 205 -23 5 -45 2 -64 -9 -54 -27 -62 -52 -65 -193
l-3 -128 -62 -3 -63 -3 0 296 0 296 63 -3 62 -3 3 -118z m1672 -172 l0 -295
-60 0 -60 0 0 295 0 295 60 0 60 0 0 -295z m862 276 c73 -23 130 -72 165 -139
30 -57 33 -73 33 -147 0 -71 -4 -90 -28 -136 -31 -60 -93 -113 -150 -129 -20
-5 -121 -10 -224 -10 l-188 0 0 291 0 291 178 -5 c97 -2 194 -9 214 -16z
m1586 -273 l-3 -293 -54 -3 c-37 -2 -57 1 -62 10 -10 15 -12 562 -2 571 3 4
33 7 65 7 l58 0 -2 -292z m-4883 -83 l0 -210 -60 0 -60 0 -3 200 c-1 110 0
205 3 213 3 9 21 12 62 10 l58 -3 0 -210z m479 205 c23 -8 26 -15 26 -55 0
-25 -3 -45 -7 -45 -5 1 -28 5 -53 10 -87 17 -155 -21 -167 -93 -7 -47 11 -92
49 -119 27 -18 39 -20 109 -15 l79 6 0 -38 c0 -53 -17 -64 -115 -69 -73 -4
-90 -1 -138 21 -165 75 -163 319 3 391 40 17 175 21 214 6z m1063 -16 c46 -34
53 -59 53 -189 0 -125 6 -145 42 -145 13 0 18 -8 18 -25 0 -29 -18 -38 -93
-49 -44 -7 -50 -5 -75 22 l-27 29 -33 -22 c-64 -44 -174 -40 -207 8 -8 12 -15
40 -15 63 0 57 29 85 131 123 126 47 129 49 129 69 0 11 -10 32 -22 47 -20 26
-25 27 -80 22 -32 -3 -74 -14 -94 -26 -48 -28 -54 -27 -54 14 0 25 6 37 23 46
51 28 106 39 189 36 70 -2 92 -6 115 -23z m534 3 c57 -31 97 -94 101 -162 l3
-50 -159 -3 -158 -3 7 -27 c14 -58 68 -92 148 -92 30 0 74 7 98 15 49 18 65 9
55 -28 -11 -44 -145 -75 -251 -57 -116 19 -185 98 -185 212 0 61 18 118 48
152 58 65 209 87 293 43z m1906 -1 c75 -35 107 -87 111 -180 3 -60 0 -78 -21
-116 -32 -61 -87 -98 -163 -110 -122 -20 -227 23 -272 110 -33 64 -28 169 10
227 59 90 219 123 335 69z m329 16 c5 -4 29 -54 53 -112 24 -58 46 -109 50
-113 4 -4 32 43 61 105 29 62 58 116 64 120 19 13 106 9 106 -4 0 -7 -64 -149
-142 -315 l-141 -303 -63 0 -63 0 45 98 c76 160 77 132 -15 336 -44 98 -78
183 -75 187 6 11 105 12 120 1z m1072 -25 c50 -33 81 -90 85 -154 l2 -48 -157
-3 c-117 -2 -158 -6 -158 -15 0 -24 40 -76 69 -92 38 -19 126 -19 181 0 57 20
60 20 60 -16 0 -25 -6 -32 -37 -45 -104 -44 -244 -38 -318 14 -101 69 -117
254 -28 334 71 65 222 78 301 25z m-3208 -763 c0 -19 -5 -24 -25 -24 -14 0
-29 -8 -35 -19 -16 -31 -12 -41 15 -41 34 0 37 -47 3 -52 -22 -3 -23 -8 -26
-95 l-3 -93 -34 0 -35 0 -1 53 c-1 28 0 60 1 71 4 36 -10 66 -30 66 -30 0 -26
38 5 50 17 7 25 17 25 34 0 34 30 66 70 75 49 10 70 3 70 -25z m1753 11 c12
-5 17 -18 17 -42 0 -32 -2 -35 -22 -28 -13 4 -48 10 -78 12 -71 5 -114 -19
-131 -75 -9 -32 -8 -44 5 -70 26 -50 56 -65 123 -59 32 2 68 8 81 12 20 7 22
4 22 -28 0 -33 -3 -37 -37 -46 -67 -19 -163 -13 -207 12 -61 34 -80 67 -84
145 -3 57 0 72 20 101 28 43 79 73 133 81 41 6 126 -2 158 -15z m-4617 -4 c44
-27 60 -77 40 -124 -19 -47 -60 -67 -136 -67 l-60 0 0 -70 0 -70 -45 0 -45 0
0 175 0 175 108 0 c88 0 113 -3 138 -19z m1294 -156 l0 -175 -35 0 c-22 0 -38
6 -41 15 -5 13 -8 13 -27 0 -12 -8 -40 -15 -63 -15 -82 0 -132 85 -102 175 23
71 95 100 171 70 15 -6 17 -1 17 42 0 27 3 53 7 56 3 4 21 7 40 7 l33 0 0
-175z m2100 140 l0 -35 -65 0 -64 0 -3 -137 -3 -138 -47 -3 -48 -3 0 140 0
141 -65 0 -65 0 0 35 0 35 180 0 180 0 0 -35z m1900 -140 l0 -175 -35 0 c-22
0 -38 6 -41 15 -5 13 -8 13 -27 0 -50 -35 -139 -7 -163 50 -50 119 54 231 169
181 15 -7 17 -2 17 41 0 27 3 53 7 56 3 4 21 7 40 7 l33 0 0 -175z m-3200 110
c0 -35 0 -35 46 -35 41 0 45 -2 42 -22 -2 -19 -10 -24 -46 -26 l-43 -3 3 -67
3 -67 43 0 c39 0 42 -2 42 -26 0 -32 -15 -39 -78 -39 -73 0 -92 25 -92 122 0
71 -2 78 -20 78 -11 0 -20 3 -20 7 0 10 102 113 112 113 4 0 8 -16 8 -35z
m-1921 -39 c6 -8 11 -18 10 -22 -5 -31 5 -30 32 1 31 35 60 43 88 26 11 -7 11
-15 2 -44 -11 -33 -15 -36 -42 -30 -23 4 -36 0 -54 -17 -21 -20 -25 -33 -25
-79 0 -71 -8 -83 -51 -79 l-34 3 -3 105 c-4 134 0 150 37 150 16 0 34 -6 40
-14z m336 0 c39 -17 61 -47 70 -98 l7 -38 -96 0 c-100 0 -111 -5 -76 -40 27
-27 65 -35 110 -21 49 15 50 14 50 -9 0 -26 -38 -41 -106 -43 -65 -1 -109 17
-134 58 -70 114 48 244 175 191z m295 -1 c6 -3 10 -15 10 -25 0 -17 -5 -19
-46 -13 -33 4 -48 2 -54 -8 -12 -19 -5 -26 49 -54 50 -25 61 -39 61 -80 0 -40
-37 -65 -94 -65 -75 0 -96 8 -96 36 0 28 1 28 34 13 32 -15 76 -4 76 19 0 11
-17 26 -45 40 -24 12 -52 33 -61 48 -16 24 -16 29 -3 53 21 38 56 53 112 47
26 -3 52 -8 57 -11z m735 1 c40 -17 64 -50 72 -100 l6 -36 -97 0 c-53 0 -96
-3 -96 -7 1 -14 25 -40 49 -52 22 -12 76 -10 115 5 12 4 16 0 16 -15 0 -28
-39 -43 -111 -44 -66 0 -112 23 -134 69 -55 117 58 231 180 180z m367 -16 c19
-23 31 -102 26 -175 -3 -50 -3 -50 -40 -53 l-38 -3 0 78 c0 113 -36 155 -88
100 -17 -18 -22 -37 -24 -97 l-3 -75 -37 -3 -38 -3 0 125 0 126 40 0 c34 0 40
-3 40 -22 0 -20 1 -20 18 -5 45 41 113 44 144 7z m674 11 c68 -31 94 -114 54
-178 -29 -47 -63 -66 -123 -66 -94 0 -147 47 -147 131 0 103 111 161 216 113z
m934 -26 c5 -34 7 -37 13 -18 17 49 100 84 113 48 3 -8 2 -27 -4 -42 -8 -24
-13 -28 -43 -25 -52 5 -73 -24 -79 -107 l-5 -66 -37 -3 -38 -3 0 124 c0 68 3
127 7 131 4 4 21 6 38 4 27 -3 31 -7 35 -43z m675 31 c36 -15 62 -54 67 -102
l3 -29 -92 -3 c-51 -1 -93 -7 -93 -11 0 -5 8 -19 19 -32 20 -25 68 -31 129
-15 31 7 33 6 30 -16 -2 -18 -13 -25 -53 -36 -124 -31 -213 30 -203 140 9 93
100 142 193 104z m696 4 c52 -15 81 -50 87 -108 8 -92 -42 -143 -143 -144 -63
-1 -108 23 -130 68 -33 70 -8 144 57 174 49 22 77 24 129 10z m654 -4 c40 -17
64 -50 72 -100 l6 -36 -97 0 c-53 0 -96 -3 -96 -6 0 -18 23 -43 49 -54 28 -11
77 -9 117 7 9 3 14 -2 14 -16 0 -28 -38 -43 -111 -43 -67 -1 -112 22 -134 68
-55 117 58 231 180 180z m205 -31 c5 -34 7 -37 13 -18 11 29 54 63 81 63 36 0
46 -18 31 -53 -12 -28 -17 -31 -47 -29 -51 5 -72 -24 -78 -107 l-5 -66 -37 -3
-38 -3 0 124 c0 68 3 127 7 131 4 4 21 6 38 4 27 -3 31 -7 35 -43z m304 35
c15 -5 26 -17 26 -28 0 -15 -8 -18 -47 -18 -38 1 -48 -3 -51 -17 -3 -12 9 -22
41 -36 76 -33 96 -82 52 -126 -20 -21 -34 -25 -83 -25 -63 0 -99 17 -89 42 5
13 12 14 46 5 34 -9 44 -9 57 5 21 21 12 34 -43 60 -50 23 -69 53 -59 93 11
44 91 68 150 45z m-5086 -75 c2 -38 0 -94 -3 -122 -6 -52 -7 -53 -41 -53 l-34
0 0 126 0 125 38 -3 37 -3 3 -70z m2788 40 c3 -19 3 -42 0 -51 -10 -27 5 -94
25 -104 24 -13 68 7 74 34 3 12 6 50 7 86 l3 65 40 0 40 0 3 -100 c4 -134 1
-145 -44 -145 -27 0 -37 5 -41 20 -5 19 -6 19 -35 -3 -19 -14 -42 -21 -69 -21
-65 2 -73 18 -77 144 l-4 110 36 0 c32 0 36 -3 42 -35z"/>
<path d="M7835 2049 c-3 -8 -4 -98 -3 -199 l3 -185 60 0 c89 1 132 13 170 46
85 75 62 269 -37 320 -50 26 -185 38 -193 18z"/>
<path d="M6168 1753 c-55 -30 -77 -70 -60 -108 16 -34 54 -41 94 -18 31 18 33
22 36 86 3 78 0 79 -70 40z"/>
<path d="M6669 1891 c-19 -20 -29 -40 -29 -60 l0 -31 94 0 c52 0 97 4 100 8
10 16 -15 81 -37 97 -37 26 -94 19 -128 -14z"/>
<path d="M8565 1877 c-31 -26 -44 -82 -34 -140 15 -90 113 -122 172 -57 27 31
29 37 25 103 -3 61 -7 72 -31 93 -37 32 -96 32 -132 1z"/>
<path d="M9959 1891 c-19 -20 -29 -40 -29 -60 l0 -31 100 0 c111 0 112 1 86
65 -27 63 -106 76 -157 26z"/>
<path d="M3618 8906 c-10 -7 -18 -23 -18 -34 0 -11 -10 -28 -22 -36 -20 -14
-24 -14 -43 4 -12 11 -30 20 -41 20 -11 0 -24 4 -29 9 -6 5 -28 11 -51 15 -37
5 -43 3 -74 -29 l-34 -35 36 0 c39 0 56 -21 32 -40 -13 -12 -21 -80 -8 -80 3
0 19 8 36 18 28 16 30 16 39 0 15 -26 23 -23 79 31 29 28 65 53 80 56 16 3 34
13 41 21 10 13 14 12 30 -2 17 -16 19 -16 25 1 5 12 0 23 -14 34 -11 9 -22 25
-24 35 -4 25 -18 29 -40 12z"/>
<path d="M4440 8215 c-23 -17 -48 -25 -76 -25 -23 0 -63 -9 -88 -20 -52 -22
-50 -16 -45 -170 1 -47 4 -119 5 -160 3 -110 11 -140 39 -140 21 0 35 -17 35
-41 0 -5 -16 -16 -36 -24 l-36 -15 4 -246 c4 -292 -4 -274 129 -274 48 0 99
-4 113 -10 24 -9 25 -13 28 -97 l3 -88 83 -5 c47 -3 87 -1 93 5 21 21 8 34
-38 37 -43 3 -48 6 -48 26 0 19 12 30 54 52 30 16 58 33 63 38 25 25 -28 91
-99 123 -24 10 -43 23 -43 30 0 7 -12 10 -30 7 -19 -3 -35 1 -42 10 -10 12 -7
19 15 38 31 27 57 30 75 12 15 -15 27 -1 38 40 9 34 -9 48 -41 34 -36 -17 -65
-15 -72 5 -8 21 39 63 71 63 27 0 94 66 80 79 -5 5 -22 11 -39 13 -41 4 -45
41 -9 93 25 37 25 40 8 52 -24 17 -27 17 -70 -12 -43 -29 -99 -33 -108 -8 -9
22 16 46 84 81 47 24 55 33 58 60 2 17 10 36 18 42 8 7 14 21 14 31 0 16 -8
19 -40 19 -44 0 -100 23 -100 42 0 6 7 20 17 30 15 17 14 18 -31 18 -41 0 -48
3 -57 26 -5 15 -7 34 -4 44 3 10 1 29 -4 42 -8 23 -5 28 34 53 66 41 78 57 66
89 -13 32 -26 32 -71 1z"/>
<path d="M3962 7379 c-35 -37 -71 -163 -75 -259 l-2 -55 48 2 c89 3 91 8 88
174 -3 171 -11 189 -59 138z"/>
<path d="M14592 7375 c-29 -13 -59 -22 -67 -19 -9 4 -16 -2 -20 -18 -20 -92
-25 -121 -25 -183 0 -48 -7 -84 -20 -114 -24 -52 -26 -125 -5 -175 10 -22 15
-65 14 -113 -1 -114 8 -153 36 -153 23 0 67 46 94 99 10 18 18 22 41 17 22 -4
32 0 44 19 16 25 69 55 96 55 9 0 31 5 49 11 27 9 31 16 31 45 0 32 -2 34 -32
34 l-33 0 33 16 32 16 0 213 0 212 -52 7 c-41 4 -56 2 -64 -9 -6 -8 -16 -15
-21 -15 -5 0 -18 -9 -28 -20 -10 -11 -26 -20 -36 -20 -10 0 -21 -4 -24 -10 -3
-5 -10 -10 -16 -10 -21 0 -6 26 46 75 30 28 55 55 55 58 0 16 -79 5 -128 -18z"/>
<path d="M14810 6683 c-25 -13 -65 -27 -90 -31 -66 -11 -64 -32 9 -84 33 -24
63 -53 67 -65 5 -19 50 -41 61 -30 2 2 2 56 1 119 l-3 114 -45 -23z"/>
<path d="M267 5589 c-15 -17 -17 -30 -12 -71 6 -41 4 -51 -11 -63 -32 -23 3
-27 127 -16 63 6 197 15 298 21 186 10 285 19 278 27 -3 2 -74 11 -158 19
-215 21 -212 21 -229 27 -8 3 -24 8 -35 10 -11 3 -51 17 -90 30 -108 39 -146
42 -168 16z"/>
</g>
</svg>
