<?xml version="1.0" standalone="no"?>
<!DOCTYPE svg PUBLIC "-//W3C//DTD SVG 20010904//EN"
 "http://www.w3.org/TR/2001/REC-SVG-20010904/DTD/svg10.dtd">
<svg version="1.0" xmlns="http://www.w3.org/2000/svg"
 width="1188.000000pt" height="1188.000000pt" viewBox="0 0 1188.000000 1188.000000"
 preserveAspectRatio="xMidYMid meet">
<metadata>
Created by potrace 1.16, written by Peter Selinger 2001-2019
</metadata>
<g transform="translate(0.000000,1188.000000) scale(0.100000,-0.100000)"
fill="#000000" stroke="none">
<path d="M6045 11169 c-33 -6 -78 -12 -100 -14 -22 -2 -78 -11 -125 -19 -105
-19 -140 -19 -164 -1 -18 13 -24 12 -60 -9 -28 -16 -58 -24 -94 -25 -59 -1
-80 -10 -137 -58 -21 -18 -45 -31 -52 -29 -6 3 -29 -7 -50 -22 -31 -21 -48
-26 -90 -24 -44 1 -55 -2 -71 -23 -21 -26 -46 -33 -57 -15 -9 15 -22 12 -44
-11 -11 -12 -27 -19 -35 -16 -19 7 -29 -7 -45 -60 -13 -47 -24 -52 -53 -26
-27 25 -76 26 -83 2 -4 -10 -15 -19 -25 -19 -10 0 -22 -5 -25 -10 -4 -6 -10
-8 -15 -5 -5 3 -14 -2 -19 -12 -26 -45 -29 -47 -45 -34 -20 17 -48 6 -44 -16
2 -14 -5 -19 -37 -21 -29 -2 -47 -11 -67 -33 -24 -25 -31 -28 -48 -19 -25 13
-47 0 -61 -37 -6 -16 -17 -23 -34 -23 -14 0 -25 -5 -25 -11 0 -14 -69 -42 -92
-36 -13 4 -22 -2 -28 -18 -9 -24 -71 -52 -90 -40 -16 10 -50 -5 -50 -21 0 -8
-10 -14 -23 -14 -13 0 -32 -6 -42 -14 -18 -13 -18 -17 -5 -40 18 -36 3 -50
-58 -53 -26 -1 -50 -2 -54 -2 -13 -1 -9 -35 7 -58 15 -21 14 -22 -17 -27 -18
-3 -62 -8 -98 -10 -36 -3 -66 -5 -67 -5 -2 -1 -3 -10 -3 -21 0 -11 -4 -20 -8
-20 -5 0 -14 -11 -20 -25 -8 -18 -22 -26 -52 -31 -22 -4 -40 -10 -40 -15 0 -5
-9 -9 -20 -9 -24 0 -38 -29 -20 -40 17 -11 5 -40 -17 -40 -44 -1 -72 -60 -28
-60 8 0 15 -4 15 -9 0 -9 -49 -54 -87 -80 -11 -7 -21 -23 -21 -35 0 -11 -6
-34 -12 -51 -7 -16 -13 -39 -14 -50 -1 -10 -12 -25 -25 -31 -37 -19 -43 -38
-21 -67 17 -22 18 -26 5 -37 -17 -14 -19 -39 -6 -72 36 -90 37 -110 7 -139
-17 -16 -26 -35 -26 -56 0 -32 1 -33 41 -33 l42 0 -7 -57 c-3 -32 -9 -95 -13
-140 -5 -73 -4 -83 11 -83 15 0 23 -26 16 -60 -1 -8 -3 -82 -5 -165 -2 -138
-4 -155 -29 -209 -15 -33 -26 -67 -24 -75 1 -9 -3 -32 -9 -51 -7 -19 -15 -54
-18 -77 -4 -24 -10 -43 -15 -43 -4 0 -4 -19 1 -41 6 -27 6 -45 0 -53 -7 -9 -7
-16 1 -24 9 -9 7 -16 -10 -28 -12 -8 -22 -22 -22 -30 0 -8 -4 -13 -8 -10 -11
7 -52 -92 -52 -125 0 -15 7 -44 16 -65 17 -41 16 -95 -6 -231 -8 -54 -8 -83 0
-114 21 -75 31 -152 40 -304 10 -168 13 -193 36 -297 34 -153 35 -162 24 -235
-10 -65 -9 -76 9 -116 24 -51 66 -90 143 -130 101 -52 186 -65 225 -35 19 15
29 -17 52 -167 32 -206 97 -450 176 -660 58 -152 58 -162 3 -268 -46 -87 -56
-98 -333 -366 -176 -170 -217 -200 -240 -181 -12 10 -15 10 -15 -2 0 -20 -51
-55 -80 -56 -14 0 -61 -12 -105 -28 -73 -25 -96 -28 -264 -32 -131 -3 -185 -1
-190 7 -4 7 -54 14 -122 18 -63 3 -117 10 -120 15 -3 5 -89 10 -190 11 l-184
2 -89 -32 c-49 -18 -93 -30 -98 -27 -5 3 -25 -2 -45 -11 -43 -21 -259 -28
-271 -9 -10 16 -82 45 -82 33 0 -5 -7 -9 -15 -9 -8 0 -15 4 -15 9 0 5 -10 13
-22 17 -13 4 -25 9 -28 13 -8 10 -44 31 -62 37 -10 4 -18 10 -18 14 0 4 -19
12 -42 19 -24 7 -58 17 -77 23 -20 6 -66 7 -117 3 -73 -6 -84 -5 -84 9 0 9 -7
16 -15 16 -8 0 -15 -4 -15 -10 0 -5 -11 -12 -25 -16 -18 -4 -25 -13 -25 -30 0
-20 -5 -24 -28 -24 -15 0 -32 -4 -38 -8 -16 -14 -84 -33 -94 -27 -5 3 -23 -1
-39 -10 -16 -8 -37 -12 -46 -9 -11 4 -25 -2 -39 -17 l-23 -24 19 -70 c296
-1094 950 -2105 1833 -2836 645 -533 1415 -922 2215 -1118 181 -45 388 -86
395 -79 3 3 -12 56 -34 119 -44 129 -47 136 -90 274 -46 145 -56 178 -92 300
-17 61 -47 162 -66 225 -20 63 -44 144 -55 180 -11 36 -27 85 -35 110 -100
304 -142 470 -118 470 2 0 20 -9 40 -20 20 -11 46 -20 59 -20 13 0 36 -6 52
-14 16 -8 52 -20 79 -27 28 -6 75 -19 105 -28 30 -9 79 -16 108 -15 28 0 52
-4 52 -10 0 -5 9 1 19 13 17 19 22 21 40 9 12 -7 21 -18 21 -24 0 -6 6 -17 14
-23 8 -7 21 -26 30 -44 20 -39 39 -70 47 -77 3 -3 12 -18 20 -35 9 -17 22 -29
32 -29 12 1 17 -6 17 -27 0 -16 5 -29 10 -29 6 0 10 -7 10 -16 0 -8 7 -22 15
-30 13 -14 15 -11 15 25 0 22 -7 46 -15 55 -8 8 -15 19 -15 24 0 6 -4 12 -9
14 -11 4 -15 42 -12 138 l3 75 15 -35 c19 -44 63 -90 63 -66 0 23 8 20 41 -15
16 -17 33 -28 37 -25 5 3 12 -12 16 -33 3 -21 12 -44 20 -50 7 -6 16 -29 20
-51 7 -44 26 -64 26 -28 1 47 33 -34 42 -107 21 -165 21 -199 -2 -220 -21 -19
-21 -19 -27 3 -3 12 -9 22 -14 22 -4 0 -17 20 -27 44 -39 87 -100 56 -67 -34
32 -88 54 -173 48 -183 -3 -5 -6 -23 -5 -38 0 -16 -9 -43 -22 -61 -12 -18 -25
-41 -29 -51 -4 -10 -21 -24 -37 -30 -32 -12 -56 -60 -44 -90 3 -10 -2 -19 -14
-26 -16 -8 -21 -25 -27 -83 -4 -40 -10 -89 -15 -108 -5 -19 -11 -71 -14 -115
-3 -44 -9 -112 -12 -151 l-6 -71 53 -6 c107 -13 103 -16 96 59 -17 179 53 565
118 655 13 19 30 45 37 59 7 14 15 27 19 30 3 3 13 20 22 38 43 83 50 94 63
99 8 3 14 11 14 18 0 6 9 22 20 35 11 13 20 29 20 37 0 7 5 13 10 13 6 0 18
17 28 37 18 40 26 52 55 84 9 10 17 23 17 29 0 5 11 17 26 26 14 9 31 29 39
43 7 14 60 74 117 132 158 164 217 231 235 269 6 14 12 19 12 12 1 -11 71 59
71 71 0 2 -10 7 -22 10 -20 6 -20 8 -6 28 19 30 42 38 34 13 -3 -11 -1 -26 4
-34 8 -12 10 -12 15 2 4 9 20 20 36 23 25 6 28 10 23 31 -4 17 0 31 12 45 18
20 18 20 -11 17 -25 -2 -31 1 -33 20 -2 12 1 22 7 22 6 0 11 -5 11 -11 0 -5 4
-8 10 -4 5 3 7 12 3 20 -3 8 0 15 6 15 6 0 11 12 11 26 0 60 236 294 296 294
22 0 23 -3 18 -44 -8 -56 5 -64 53 -32 52 34 121 34 129 0 4 -15 13 -24 25
-24 10 0 22 0 26 0 10 0 7 57 -6 105 -6 22 -11 68 -11 103 0 34 -5 71 -12 81
-9 15 -7 32 11 82 12 35 28 89 36 119 8 30 25 89 39 131 14 42 34 114 46 160
12 46 32 115 46 152 13 38 24 76 24 86 0 10 11 40 25 67 14 27 25 55 25 63 0
8 5 31 11 50 27 91 27 90 13 84 -22 -8 -65 -81 -135 -226 -25 -52 -40 -71 -66
-83 -18 -9 -33 -23 -33 -30 0 -8 -5 -14 -10 -14 -6 0 -8 -11 -4 -25 6 -23 4
-25 -29 -25 -20 0 -39 -4 -42 -10 -3 -5 -16 -10 -28 -10 -29 0 -69 87 -46 101
12 7 11 11 -3 26 -17 16 -18 16 -18 -9 0 -18 -13 -40 -40 -66 -22 -21 -40 -47
-40 -56 0 -9 -9 -27 -20 -39 -18 -18 -22 -20 -30 -7 -14 22 -13 26 21 55 29
24 30 27 14 39 -21 15 -12 36 14 36 26 0 37 58 16 79 -13 14 -15 14 -15 0 0
-20 -42 -59 -63 -59 -24 0 -22 35 3 60 11 11 29 20 40 20 10 0 30 11 44 25 14
14 32 25 41 25 14 0 20 18 15 50 -3 26 -9 25 -41 -8 -26 -26 -33 -29 -44 -18
-19 19 -12 100 9 104 9 2 16 -1 16 -7 0 -17 27 -13 34 4 3 8 15 14 28 12 19
-2 24 3 26 28 3 36 32 105 44 105 4 0 8 12 8 26 0 24 2 25 33 19 17 -4 36 -8
42 -9 5 0 11 10 13 23 2 13 0 21 -5 18 -4 -3 -6 15 -4 39 3 43 21 63 21 24 0
-11 5 -20 11 -20 6 0 9 14 7 31 -4 36 26 65 41 40 7 -11 11 -9 21 8 6 13 9 30
5 38 -3 10 6 31 25 54 16 21 30 44 30 51 0 22 74 158 80 147 4 -5 15 8 25 31
10 22 24 40 31 40 26 0 64 43 70 79 4 20 13 47 20 61 l13 25 2 -30 1 -30 8 30
8 30 1 -37 c0 -20 6 -40 11 -43 16 -10 11 -44 -10 -65 -16 -16 -17 -20 -5 -20
8 0 15 -5 15 -10 0 -6 10 -24 21 -39 19 -26 23 -54 35 -232 22 -321 23 -1065
2 -1279 -9 -96 -20 -274 -23 -395 -6 -234 -22 -518 -31 -547 -7 -22 -24 -24
-24 -3 0 8 -4 15 -9 15 -5 0 -11 8 -14 18 -8 26 -60 148 -101 235 -33 72 -124
187 -148 187 -5 0 -32 -18 -61 -39 -79 -59 -155 -97 -276 -136 -142 -46 -216
-59 -255 -43 -23 9 -31 9 -34 0 -2 -6 -23 -20 -47 -31 -50 -22 -114 -86 -258
-261 -57 -69 -116 -134 -130 -145 -25 -18 -87 -104 -87 -120 0 -4 8 -4 18 0 9
4 23 8 30 9 7 1 13 6 14 12 1 14 45 29 118 43 83 15 122 16 186 6 48 -7 52 -6
59 14 3 11 11 21 17 21 5 0 23 11 39 24 40 34 111 42 185 20 32 -9 68 -23 79
-30 11 -8 32 -14 47 -14 26 0 129 -55 136 -72 2 -4 8 -8 14 -8 12 0 68 -58 68
-71 0 -5 11 -9 25 -9 15 0 25 -6 25 -15 0 -7 6 -18 14 -22 13 -8 29 -129 27
-198 -3 -97 -5 -114 -13 -109 -17 11 -42 -101 -52 -238 -3 -30 -11 -55 -25
-69 -36 -39 -42 -75 -32 -209 4 -69 7 -131 5 -137 -2 -7 -7 -21 -10 -30 -4
-10 -7 -31 -8 -47 -1 -23 -7 -31 -31 -39 -16 -6 -36 -16 -43 -24 -7 -7 -22
-13 -31 -13 -20 0 -48 -27 -38 -36 7 -7 170 18 337 52 1465 297 2752 1170
3573 2424 285 437 507 907 661 1403 72 230 91 314 76 332 -14 17 -60 21 -60 5
0 -5 -18 -10 -40 -10 -30 0 -40 -4 -40 -16 0 -14 -9 -16 -51 -12 -50 5 -109
-8 -109 -24 0 -4 -5 -8 -11 -8 -6 0 -17 -6 -25 -14 -8 -8 -48 -22 -89 -31 -41
-9 -79 -23 -86 -31 -6 -8 -21 -11 -33 -8 -14 3 -28 -1 -35 -10 -8 -9 -20 -16
-27 -16 -8 0 -14 -4 -14 -9 0 -5 -11 -12 -25 -15 -14 -4 -25 -11 -25 -16 0 -6
-7 -10 -15 -10 -8 0 -15 5 -15 12 0 6 -12 1 -26 -13 -24 -22 -32 -24 -117 -20
-51 1 -93 7 -95 12 -5 13 -82 11 -82 -1 0 -7 -6 -7 -19 0 -11 5 -47 10 -80 10
-45 0 -61 4 -61 14 0 14 -29 16 -435 32 -125 5 -153 9 -170 24 -11 10 -40 24
-65 31 -42 12 -130 65 -130 78 0 3 -17 14 -39 24 -26 13 -48 36 -72 75 -19 31
-47 71 -64 88 -16 18 -35 38 -41 46 -7 9 -28 12 -66 10 -51 -3 -56 -6 -61 -30
-3 -15 -16 -43 -29 -62 -13 -19 -36 -71 -52 -115 -15 -44 -37 -88 -47 -98 -10
-10 -19 -23 -19 -29 0 -6 -46 -57 -103 -112 -89 -88 -110 -103 -160 -118 -32
-10 -68 -18 -81 -18 -13 0 -70 -12 -127 -26 -59 -14 -119 -24 -139 -21 -76 10
-244 62 -264 82 -6 6 -54 43 -106 82 -52 38 -133 109 -180 158 -173 177 -262
250 -337 274 -24 8 -43 15 -43 17 0 2 9 18 19 36 11 18 23 50 26 71 4 20 11
40 16 43 5 3 9 14 9 25 0 34 38 120 199 448 49 99 61 141 42 141 -5 0 -14 -13
-20 -30 -5 -16 -15 -30 -21 -30 -6 0 -24 -21 -40 -46 -16 -26 -38 -53 -50 -61
-11 -8 -20 -25 -20 -39 0 -14 -4 -23 -9 -20 -19 12 -42 -6 -35 -26 3 -12 2
-18 -3 -15 -10 6 -43 -27 -43 -43 0 -15 -37 -12 -43 3 -3 8 -7 6 -12 -7 -5
-10 -3 -26 2 -36 9 -13 7 -19 -8 -28 -25 -16 -49 -15 -49 1 0 8 -3 7 -10 -3
-5 -8 -6 -26 -3 -39 5 -22 3 -23 -21 -19 -14 3 -29 1 -32 -3 -3 -5 2 -9 12 -9
13 0 14 -3 4 -15 -9 -11 -10 -19 -1 -28 14 -18 -5 -37 -36 -37 -19 0 -23 -6
-25 -32 0 -18 0 -41 1 -52 1 -14 -4 -17 -19 -13 -23 6 -45 -16 -36 -38 3 -9
-9 -30 -29 -52 -19 -21 -40 -50 -46 -65 -12 -30 -77 -103 -91 -103 -15 0 -28
-29 -22 -48 5 -15 2 -18 -14 -13 -15 5 -21 1 -26 -19 -4 -14 -11 -23 -16 -20
-5 3 -14 -13 -20 -36 -10 -34 -15 -40 -32 -36 -23 6 -48 -13 -48 -38 0 -23
-25 -58 -61 -84 -25 -19 -33 -21 -40 -10 -4 7 -11 10 -15 7 -3 -4 1 -15 11
-24 16 -16 15 -18 -15 -31 -38 -15 -79 -17 -100 -3 -13 9 -13 11 0 20 8 5 21
10 28 10 6 0 12 6 12 13 0 7 24 36 53 64 58 56 117 127 117 141 0 4 12 19 26
33 30 28 58 78 49 87 -3 3 -16 -6 -28 -20 -12 -15 -31 -28 -41 -30 -19 -3 -29
-16 -41 -53 -5 -16 -8 -17 -15 -5 -7 11 -10 8 -15 -13 -4 -15 -10 -27 -15 -27
-4 0 -12 -10 -18 -22 -10 -23 -11 -22 -23 10 l-13 32 -16 -32 c-9 -18 -22 -32
-28 -30 -7 1 -15 -5 -18 -13 -4 -9 -19 -15 -36 -15 -22 0 -29 4 -25 14 7 19
-7 23 -68 21 -27 -1 -55 2 -62 7 -7 6 -15 3 -22 -9 -11 -17 -12 -17 -26 1 -12
16 -17 17 -30 6 -11 -9 -19 -10 -26 -3 -7 7 -22 4 -46 -8 -23 -12 -46 -16 -66
-12 -20 4 -28 3 -24 -4 4 -6 0 -16 -8 -23 -12 -10 -16 -9 -21 6 -16 50 -16 50
-24 29 -5 -11 -9 -14 -9 -7 -1 9 -6 10 -20 2 -31 -16 -101 -13 -101 5 0 11 11
15 40 15 l41 0 -18 24 c-10 13 -20 20 -21 15 -3 -6 -9 -6 -17 1 -9 8 -14 6
-19 -6 -6 -15 -9 -15 -27 5 -16 17 -24 19 -40 11 -11 -6 -29 -8 -40 -5 -18 6
-19 4 -10 -13 12 -22 6 -33 -14 -25 -8 2 -11 11 -9 18 8 21 -55 115 -77 115
-25 0 -24 12 2 29 19 11 21 11 16 -1 -4 -11 1 -14 20 -10 16 3 24 1 20 -5 -6
-10 23 -23 48 -23 18 1 -39 40 -58 40 -10 0 -20 7 -24 15 -3 9 -15 15 -27 13
-11 -2 -21 2 -21 9 0 20 -14 26 -30 13 -11 -9 -15 -10 -15 0 0 6 -9 23 -20 37
-11 14 -20 34 -20 43 0 22 -24 32 -55 24 -17 -4 -26 0 -34 14 -6 11 -7 22 -4
26 3 3 -1 6 -11 6 -9 0 -15 -4 -12 -8 8 -13 -24 -54 -37 -49 -7 2 -10 19 -9
40 3 37 -13 52 -24 23 -3 -8 -14 -16 -24 -19 -21 -5 -23 -63 -1 -76 8 -5 -2
-8 -25 -7 -42 1 -70 20 -75 50 -2 10 -13 24 -24 30 -11 6 -23 16 -27 21 -5 6
-8 5 -8 -2 0 -23 -18 -14 -24 12 -4 14 -10 25 -15 25 -15 0 -91 77 -91 93 0
10 -4 17 -10 17 -5 0 -10 11 -10 25 0 14 -7 28 -15 31 -8 4 -15 15 -15 25 0
21 -20 27 -21 7 0 -7 -7 5 -16 27 -21 51 -22 52 -33 35 -6 -9 -4 -20 5 -30 9
-10 11 -20 5 -30 -8 -12 -10 -11 -10 5 0 12 -5 26 -12 33 -9 9 -7 17 10 35 14
15 20 30 16 40 -9 24 -22 21 -27 -5 -3 -21 -4 -21 -12 -4 -5 11 -4 21 3 25 8
5 9 17 1 45 -20 73 -79 166 -63 99 4 -15 10 -32 14 -38 24 -33 16 -125 -10
-125 -6 0 -8 5 -5 10 9 15 -8 12 -33 -6 -22 -15 -29 -40 -13 -46 4 -1 11 -14
15 -28 6 -21 5 -22 -4 -7 -6 9 -17 17 -25 17 -7 0 -22 18 -32 40 -10 22 -23
40 -29 40 -6 0 -17 22 -24 50 -7 27 -19 50 -26 50 -7 0 -15 13 -19 28 -6 28
-39 57 -54 47 -5 -2 -12 6 -15 20 -4 14 -12 25 -19 25 -12 0 -117 204 -117
228 0 7 -7 24 -16 37 -9 13 -13 28 -10 34 3 5 -7 39 -24 76 -16 37 -30 73 -30
80 0 7 -6 15 -12 18 -8 2 -13 20 -13 43 0 23 -5 38 -11 37 -12 -2 -13 121 -1
133 4 4 7 18 7 32 0 13 8 36 19 50 10 15 22 37 25 50 4 12 11 22 16 22 5 0 7
-7 4 -15 -8 -20 6 -19 21 2 19 25 47 10 39 -22 -5 -19 -3 -25 7 -23 10 2 13
-6 11 -29 -2 -24 1 -33 12 -33 8 0 20 -9 26 -20 8 -15 21 -20 50 -20 22 0 40
-4 40 -8 0 -13 58 -43 64 -33 10 16 68 -19 117 -70 26 -27 54 -49 63 -49 9 0
16 -6 16 -13 0 -6 14 -18 30 -25 17 -8 30 -21 30 -29 0 -9 6 -13 14 -10 8 3
24 -3 36 -13 12 -10 27 -21 33 -23 22 -7 -14 -37 -45 -37 -19 0 -28 -4 -26
-12 6 -18 39 -22 49 -6 6 8 6 -1 2 -21 -6 -34 -6 -34 25 -28 19 4 32 2 32 -3
0 -6 -4 -10 -9 -10 -5 0 -7 -9 -4 -20 4 -15 1 -19 -9 -15 -7 3 -22 -1 -33 -9
-19 -15 -19 -15 8 -16 18 0 27 -5 27 -16 0 -8 4 -12 10 -9 6 4 7 -1 3 -11 -4
-11 -8 -13 -11 -6 -2 7 -17 12 -34 12 -25 0 -29 -3 -23 -17 4 -10 11 -44 15
-76 5 -36 16 -65 28 -75 10 -9 32 -54 48 -99 16 -46 32 -83 36 -83 5 0 8 -14
8 -31 0 -17 4 -28 10 -24 6 3 16 3 23 -2 6 -4 17 -8 22 -8 6 0 11 -12 13 -26
2 -15 12 -35 23 -45 10 -9 19 -25 19 -34 0 -9 11 -26 25 -38 28 -25 33 -17 10
15 -22 31 -4 36 25 6 19 -20 30 -23 54 -19 17 4 53 9 79 13 l49 6 -7 33 c-3
19 -4 34 -2 34 2 0 17 -11 33 -25 48 -43 51 -44 73 -38 16 4 21 1 21 -15 0
-11 8 -22 20 -25 24 -6 26 5 5 23 -23 19 -18 33 9 26 26 -6 40 12 30 39 -4 8
-1 15 5 15 6 0 11 -5 11 -11 0 -6 7 -8 16 -5 12 5 15 2 9 -11 -12 -32 -10 -37
14 -41 21 -3 23 -1 17 21 -4 19 -2 27 12 31 18 6 48 46 34 46 -4 0 -13 -10
-21 -21 -13 -21 -14 -20 -32 21 -10 23 -19 48 -19 56 0 8 -9 23 -20 34 -18 18
-19 22 -6 43 16 24 12 36 -18 53 -30 16 -31 34 -2 34 36 0 32 23 -6 38 -27 10
-30 14 -18 23 12 8 9 9 -10 4 -65 -17 -67 -17 -73 5 -5 18 -11 22 -35 18 -24
-3 -28 -1 -24 14 2 10 -2 20 -9 23 -8 3 -15 24 -17 50 -2 38 1 45 16 45 17 0
34 -22 45 -60 3 -10 8 -7 15 12 10 23 19 27 69 34 51 6 55 8 33 16 -25 10 -24
10 14 24 21 8 42 11 46 9 5 -3 25 2 44 12 35 16 37 16 51 -3 14 -18 16 -18 26
-1 6 10 22 17 39 17 15 0 30 6 32 13 4 9 53 13 184 17 l179 5 -1 38 c-1 30 2
37 15 35 9 -2 15 -11 13 -21 -4 -21 14 -23 21 -3 5 12 13 11 46 -7 39 -22 39
-22 93 -3 105 37 161 76 110 76 -10 0 -23 5 -30 12 -8 8 -14 5 -23 -15 -15
-33 -35 -37 -83 -16 -33 15 -42 15 -65 3 -34 -18 -61 -18 -89 2 -21 15 -22 14
-22 -17 l0 -32 -92 8 c-51 4 -203 9 -338 11 -135 2 -253 3 -263 4 -11 0 -22
12 -28 30 -6 16 -15 30 -21 30 -5 0 -6 -6 -1 -12 4 -7 8 -20 10 -28 1 -10 -3
-9 -13 4 -20 28 -18 45 12 88 25 35 30 38 71 35 28 -2 50 -9 57 -19 11 -15 14
-12 31 19 l19 35 111 -7 c73 -4 115 -12 126 -21 14 -12 20 -12 43 0 14 7 50
14 78 15 28 0 54 5 57 9 3 5 13 12 21 15 9 3 4 6 -12 6 -16 1 -28 5 -28 11 0
5 -10 10 -22 10 -89 0 -96 1 -101 19 -3 11 -21 22 -53 30 -27 7 -59 17 -72 22
-13 5 -36 9 -53 9 -20 0 -28 4 -23 12 4 7 3 8 -5 4 -6 -4 -17 -3 -24 2 -15 12
-70 23 -127 26 -48 2 -100 20 -100 35 0 5 21 12 48 16 26 4 53 12 61 18 8 7
21 12 30 13 9 1 30 2 48 3 17 0 38 8 47 16 19 19 26 19 26 -2 0 -13 4 -12 20
7 17 20 20 20 26 6 8 -20 28 -21 44 -1 10 12 16 13 27 3 9 -7 17 -8 21 -2 4 6
25 11 47 12 22 0 53 4 69 8 21 5 27 4 22 -5 -4 -6 -3 -11 1 -11 5 0 14 14 21
32 6 17 14 29 18 26 5 -6 23 6 64 42 55 49 112 71 166 63 25 -3 44 -2 43 3 -4
25 4 34 29 34 16 0 39 9 52 20 13 11 31 20 42 20 10 0 18 6 18 14 0 8 12 28
26 46 l26 31 -117 -4 c-68 -2 -119 -7 -123 -14 -6 -8 -39 -24 -62 -28 -28 -5
-80 -29 -80 -36 0 -6 -5 -7 -11 -4 -6 4 -8 13 -5 20 8 22 -15 32 -95 39 -42 4
-90 10 -106 15 -33 10 -136 88 -257 196 -6 6 -22 10 -36 10 -19 0 -26 6 -28
26 -3 29 36 98 56 99 6 0 12 5 12 10 0 6 6 10 14 10 23 0 31 22 12 36 -23 16
-19 118 4 120 35 2 40 5 40 20 0 14 -3 14 -16 3 -13 -11 -14 -9 -9 17 14 63
16 66 30 54 7 -6 15 -7 17 -3 6 13 0 235 -7 270 -4 18 -11 31 -15 28 -11 -7
-21 23 -15 48 10 47 14 146 6 152 -5 3 -8 25 -6 50 2 35 -2 48 -15 58 -29 20
-37 67 -14 84 18 13 17 15 -14 44 -17 16 -32 35 -32 41 0 14 -65 78 -80 78 -5
0 -10 4 -10 8 0 5 -12 22 -26 40 -20 24 -30 29 -43 23 -11 -6 -45 0 -105 20
-49 16 -99 29 -112 29 -13 0 -38 6 -56 14 -41 17 -97 36 -121 41 -10 2 -28 7
-40 11 -43 14 -258 20 -301 9 -21 -6 -27 -5 -22 4 4 6 17 12 29 12 18 1 19 2
4 6 -28 7 -57 39 -45 51 6 6 4 11 -6 15 -8 3 -17 0 -20 -8 -5 -14 -46 -9 -46
6 0 5 -12 9 -28 9 -16 0 -32 8 -40 20 -16 27 -35 26 -27 -1 5 -16 3 -20 -6
-17 -8 3 -13 13 -11 23 3 17 2 17 -13 1 -9 -9 -19 -16 -23 -16 -12 0 -38 20
-27 20 6 0 4 4 -4 9 -12 8 -12 12 2 25 8 9 20 16 26 16 15 0 14 17 0 22 -9 3
-8 15 2 43 11 30 11 39 2 42 -8 3 -11 14 -7 27 3 14 -1 27 -10 35 -20 17 -20
45 -1 61 8 7 15 19 15 26 0 8 -7 14 -15 14 -9 0 -15 10 -16 23 -1 21 -1 21 -9
-3 -8 -24 -8 -24 -9 7 -1 17 2 39 5 48 6 14 8 14 25 -1 11 -10 19 -12 19 -6 0
7 9 12 21 12 18 0 20 -4 14 -27 -6 -27 -6 -27 9 -8 20 26 20 61 0 69 -9 3 -31
6 -50 6 -24 0 -34 5 -34 15 0 8 8 15 18 15 17 0 18 5 12 45 -5 32 -4 43 4 35
19 -19 26 -10 26 40 0 28 4 50 8 50 5 0 8 18 8 40 -1 26 3 40 12 40 8 0 9 5 3
18 -30 55 -29 89 2 114 18 15 20 19 7 27 -8 5 -17 8 -21 6 -14 -9 -29 48 -23
86 5 27 12 39 23 39 24 0 41 20 41 47 0 16 9 27 34 37 28 11 33 19 29 35 -3
12 -12 21 -20 21 -8 0 -11 5 -8 11 4 6 22 8 44 4 29 -5 38 -2 48 14 8 13 9 22
3 26 -6 3 -10 -2 -10 -11 0 -15 -4 -14 -25 6 -25 24 -25 24 -5 32 24 9 25 16
3 48 -10 14 -25 46 -34 72 l-16 47 29 10 c24 9 27 13 22 41 -5 22 -2 36 11 50
17 18 16 21 -4 56 -23 39 -22 64 4 64 8 0 15 8 15 18 0 12 13 22 44 31 25 7
47 18 49 24 3 9 10 9 26 0 11 -7 34 -13 51 -13 17 0 42 -7 56 -16 29 -20 77
-14 135 14 22 11 39 15 39 10 0 -5 7 -3 15 6 14 13 20 13 56 0 50 -17 50 -17
44 -1 -6 14 2 15 160 19 66 1 123 7 126 12 4 5 13 5 20 0 8 -5 25 -10 39 -12
13 -2 30 -8 36 -13 21 -17 70 -27 88 -17 11 6 26 4 48 -7 17 -8 34 -11 37 -7
8 13 41 11 41 -2 0 -6 4 -5 9 2 7 11 12 12 29 1 16 -10 24 -10 35 -1 11 10 17
9 27 -3 14 -17 40 -20 40 -5 0 6 -5 10 -12 10 -9 0 -9 3 0 12 8 8 15 8 26 -1
9 -7 21 -9 28 -5 13 9 18 10 52 12 11 1 16 7 13 16 -5 14 8 16 28 5 19 -10 50
-4 47 9 -2 9 3 10 15 4 10 -4 40 -8 66 -7 38 1 50 -2 58 -17 6 -10 15 -16 20
-12 7 4 7 10 0 17 -16 16 -13 27 7 27 10 0 23 5 30 12 8 8 15 8 27 -2 8 -7 18
-11 20 -8 6 6 -18 58 -27 58 -5 0 -8 4 -8 9 0 5 15 9 33 9 17 -1 26 -3 19 -6
-10 -3 -10 -7 -1 -18 6 -8 16 -11 22 -7 15 9 119 4 132 -7 7 -6 16 -5 24 3 9
9 14 9 20 -2 5 -8 14 -10 21 -6 8 5 11 4 7 -2 -11 -17 27 -22 42 -6 10 11 11
20 2 39 -9 20 -8 24 7 24 9 -1 28 -7 42 -15 36 -21 49 -18 21 5 -12 11 -27 18
-31 15 -4 -3 -10 2 -14 10 -8 21 -1 19 70 -20 73 -41 79 -42 64 -14 -13 23 -8
35 9 24 15 -9 14 -52 -1 -58 -8 -4 -4 -8 10 -12 12 -4 22 -11 22 -15 0 -4 8
-10 18 -14 9 -3 23 -9 31 -12 10 -5 11 -3 6 7 -5 8 1 5 13 -5 12 -11 20 -21
18 -23 -6 -6 58 -68 70 -68 17 0 110 -90 231 -224 46 -51 147 -190 168 -231
24 -47 88 -144 98 -148 4 -2 7 -16 7 -30 0 -15 14 -58 30 -97 17 -38 30 -74
30 -81 0 -14 33 -44 48 -44 17 0 71 -60 78 -87 3 -13 10 -23 14 -23 5 0 12 -9
15 -20 10 -30 25 -24 25 10 0 44 27 38 40 -9 5 -21 26 -59 45 -84 19 -25 35
-53 35 -61 0 -9 5 -16 10 -16 6 0 10 13 10 29 l0 29 37 -19 c47 -24 63 -24 63
1 0 11 -4 20 -8 20 -4 0 -12 14 -17 32 -11 34 -35 51 -35 24 0 -9 7 -16 15
-16 8 0 15 -4 15 -10 0 -17 -27 -11 -36 8 -4 9 -6 51 -5 93 2 59 -1 78 -13 88
-20 17 -21 41 -1 41 21 0 19 23 -5 50 -11 13 -20 28 -20 34 0 6 -9 29 -21 50
-11 22 -22 59 -24 84 -2 25 -9 50 -15 56 -5 5 -10 24 -10 41 0 17 -7 40 -15
51 -8 10 -15 27 -15 36 0 24 -32 79 -57 100 -12 10 -27 34 -33 52 -6 19 -17
37 -25 40 -8 3 -15 12 -15 20 0 8 -6 19 -14 23 -17 9 -26 69 -11 66 6 -1 18
-5 28 -8 28 -12 20 16 -15 47 -18 16 -48 36 -65 45 -18 8 -33 19 -33 24 0 5
-7 9 -15 9 -8 0 -15 -5 -15 -11 0 -8 -4 -8 -14 1 -8 6 -12 18 -10 25 3 8 -16
37 -43 67 -59 64 -62 68 -93 113 -14 19 -47 52 -75 73 -27 20 -63 53 -80 72
-44 50 -88 91 -92 86 -3 -2 -13 4 -24 15 -11 11 -33 19 -52 19 -18 0 -39 6
-46 13 -10 10 -15 8 -27 -7 -13 -19 -14 -19 -34 -1 -11 10 -23 16 -26 12 -9
-9 5 -27 22 -27 8 0 14 -4 14 -9 0 -5 8 -12 18 -14 14 -4 14 -5 -3 -6 -23 -1
-95 44 -95 59 0 6 -8 10 -18 10 -20 0 -62 39 -62 58 0 19 28 14 43 -8 9 -13
20 -18 31 -14 12 5 14 10 6 19 -9 10 -6 17 11 26 l23 12 -27 19 c-15 11 -27
26 -27 33 0 18 -46 28 -69 14 -10 -7 -27 -9 -37 -5 -15 6 -16 9 -4 16 25 15
-4 33 -55 35 -41 1 -51 6 -85 43 -22 23 -47 42 -57 42 -10 0 -27 7 -38 16 -25
19 -136 51 -200 59 -27 3 -70 8 -95 12 -25 4 -48 6 -52 5 -13 -3 -9 16 5 22 6
3 2 3 -10 0 -33 -8 -139 14 -176 36 -41 25 -104 31 -182 19z m-640 -3154 c14
-13 25 -30 25 -37 0 -8 12 -13 33 -13 20 0 31 -5 30 -12 -2 -8 8 -13 25 -14
15 0 38 -3 52 -5 37 -7 75 -5 78 4 9 25 21 34 40 28 27 -9 38 -42 21 -63 -11
-13 -10 -18 9 -33 20 -17 21 -23 13 -59 -8 -37 -7 -41 10 -41 21 0 57 35 70
68 11 28 45 29 59 2 8 -15 8 -42 -1 -98 -13 -88 -14 -172 -1 -181 20 -14 30
-69 20 -115 -8 -39 -13 -46 -33 -46 -15 0 -34 -13 -52 -34 -23 -29 -27 -43
-24 -88 1 -29 4 -61 8 -71 4 -16 1 -18 -16 -12 -16 5 -20 3 -15 -10 7 -18 -14
-77 -32 -88 -7 -4 -16 -32 -19 -62 -4 -31 -11 -58 -16 -61 -5 -3 -9 -1 -9 5 0
6 -7 8 -15 5 -27 -11 -49 25 -53 87 -2 32 -8 56 -13 53 -12 -7 -25 31 -23 66
1 19 -2 27 -10 24 -7 -3 -21 4 -31 16 -17 18 -20 19 -36 5 -9 -9 -15 -24 -12
-33 7 -29 -38 -85 -77 -94 -19 -5 -44 -13 -55 -18 -30 -13 -69 -24 -78 -22 -4
1 -22 -5 -39 -14 -24 -13 -28 -18 -17 -26 11 -7 11 -11 1 -15 -6 -2 -9 -9 -6
-14 4 -7 10 -6 18 0 6 5 24 11 40 13 25 3 30 -1 38 -27 5 -16 7 -44 4 -62 -3
-19 0 -34 7 -37 7 -2 4 -5 -5 -5 -11 -1 -18 -9 -18 -20 0 -11 -4 -23 -10 -26
-5 -3 -10 -15 -10 -25 0 -14 -5 -18 -16 -13 -18 7 -63 -36 -57 -54 6 -16 -16
-26 -31 -14 -7 6 -29 8 -49 6 -20 -3 -39 0 -42 5 -12 19 -27 10 -23 -14 3 -16
0 -27 -9 -30 -8 -3 -12 -10 -8 -15 3 -6 -9 -8 -29 -5 -30 3 -34 2 -29 -16 3
-11 12 -20 19 -20 8 0 14 -5 14 -11 0 -6 -6 -9 -12 -6 -52 21 -51 21 -39 -1 8
-15 8 -22 1 -22 -5 0 -10 5 -10 10 0 6 -11 10 -24 10 -14 0 -28 5 -31 11 -4 6
-13 8 -21 5 -8 -3 -14 -1 -14 4 0 17 51 85 86 113 21 18 34 37 34 52 0 13 5
27 10 30 6 3 10 1 10 -5 0 -6 5 -8 10 -5 20 12 -2 25 -41 23 -22 -1 -36 -4
-32 -7 14 -10 11 -41 -3 -41 -8 0 -14 -4 -14 -8 0 -10 -59 -32 -85 -32 -18 0
-18 -1 1 -14 18 -13 18 -15 2 -21 -10 -4 -24 0 -33 9 -13 12 -20 13 -35 4 -14
-9 -22 -9 -35 2 -10 8 -30 13 -46 12 -20 -3 -29 1 -29 11 0 8 -7 20 -15 27
-12 10 -13 16 -4 27 9 11 8 17 -7 28 -10 8 -27 17 -36 20 -14 5 -18 18 -18 56
0 53 -22 119 -39 119 -15 0 -14 27 2 33 7 3 5 6 -5 6 -21 1 -26 21 -32 121 -5
94 -19 132 -43 123 -16 -6 -16 -5 -5 10 15 18 8 92 -11 116 -9 11 -15 8 -32
-13 l-21 -27 -14 43 c-7 24 -20 56 -28 72 -8 17 -10 31 -4 35 11 7 24 81 14
81 -7 0 -26 -31 -38 -62 -3 -10 -10 -18 -15 -18 -12 0 -11 37 1 45 18 11 10
35 -12 35 -19 0 -18 3 13 33 42 41 63 83 47 93 -6 4 -21 -4 -33 -18 -11 -13
-27 -22 -34 -20 -8 3 -11 0 -7 -6 3 -5 -5 -17 -19 -26 -30 -20 -35 -20 -35 0
0 8 -5 12 -10 9 -6 -4 -17 -2 -24 4 -11 9 -8 21 13 66 14 30 31 55 38 55 7 0
16 7 21 16 5 9 27 23 48 30 44 15 158 19 150 5 -4 -5 8 -23 25 -40 26 -27 38
-31 87 -33 31 0 68 0 82 1 20 1 22 -1 10 -9 -11 -7 -5 -9 24 -7 25 1 40 -3 44
-12 3 -9 -1 -11 -16 -7 -11 4 -23 2 -27 -4 -3 -5 2 -11 12 -12 10 0 -4 -4 -32
-7 l-50 -6 55 -13 c170 -39 323 -49 368 -22 13 7 5 10 -33 10 -27 0 -60 3 -72
6 -29 8 -18 34 16 35 l26 1 -25 7 c-14 4 -40 11 -57 15 -21 6 -33 15 -33 25 0
9 -6 23 -12 30 -11 11 -2 12 47 10 79 -3 95 -1 95 11 0 6 -15 10 -34 10 -19 0
-38 5 -42 11 -4 8 0 9 15 4 13 -4 21 -2 21 6 0 8 -12 10 -39 6 -45 -6 -56 0
-40 20 9 10 6 13 -12 14 -22 0 -23 1 -4 9 29 13 35 12 35 -5 0 -9 6 -12 15 -9
8 4 21 2 28 -3 24 -19 297 -4 323 18 6 5 19 27 29 48 25 56 62 65 100 26z
m280 -1821 c12 -26 15 -48 11 -79 -7 -41 -9 -43 -53 -54 -25 -7 -49 -8 -54 -4
-14 15 -19 82 -7 108 12 26 28 34 28 13 1 -8 6 -6 14 4 10 14 15 15 25 5 10
-9 11 -6 6 16 -10 39 10 34 30 -9z m-1355 -2252 c31 -32 60 -92 60 -127 0 -40
29 -95 50 -95 16 0 18 5 13 37 -4 26 -3 34 5 29 7 -4 12 -16 12 -26 0 -10 5
-22 10 -25 6 -3 10 -17 10 -31 0 -17 6 -24 19 -24 15 0 21 -8 23 -32 2 -25 8
-33 23 -33 11 0 19 -6 17 -13 -1 -7 9 -17 23 -22 14 -5 27 -20 31 -35 3 -13
10 -23 14 -20 5 3 22 -18 40 -47 17 -29 45 -73 63 -98 68 -97 127 -213 156
-308 12 -39 28 -72 34 -74 7 -3 35 -6 62 -7 34 -2 56 -9 68 -22 10 -10 24 -19
31 -19 8 0 19 -7 26 -15 7 -8 27 -17 46 -21 19 -3 34 -9 34 -13 0 -8 54 -36
103 -52 20 -7 37 -17 37 -21 0 -5 26 -20 58 -34 31 -14 73 -38 92 -53 20 -16
58 -40 85 -54 60 -32 91 -55 83 -63 -3 -3 -14 -1 -25 5 -22 13 -90 34 -163 52
-30 7 -62 19 -71 26 -8 7 -28 13 -43 13 -16 0 -54 16 -86 35 -32 19 -64 35
-72 35 -8 0 -18 4 -23 9 -10 9 -180 41 -216 41 -38 0 -190 63 -231 95 -27 22
-46 31 -52 25 -18 -18 -23 -11 -61 78 -21 48 -45 105 -55 127 -22 49 -54 148
-75 235 -9 36 -22 85 -30 110 -7 25 -19 64 -26 88 -7 23 -16 42 -21 42 -4 0
-8 9 -8 21 0 11 -6 33 -14 47 -18 37 -46 117 -61 180 -8 29 -19 60 -25 68 -22
25 1 15 30 -14z m2198 -1044 c-3 -22 -19 -30 -80 -43 -19 -3 -25 -10 -21 -23
7 -28 -14 -73 -32 -66 -21 9 -31 -23 -13 -44 9 -9 18 -41 22 -70 l7 -53 -46 6
c-41 7 -45 5 -45 -13 0 -12 5 -24 10 -27 19 -12 10 -52 -20 -80 -16 -16 -30
-39 -30 -52 0 -14 -11 -29 -27 -40 -16 -10 -34 -26 -41 -35 -7 -10 -22 -18
-33 -18 -21 0 -27 -29 -6 -31 7 0 6 -3 -3 -6 -17 -7 -40 -29 -40 -38 0 -12
-44 -65 -54 -65 -6 0 -24 -18 -40 -40 -17 -22 -38 -40 -48 -40 -12 0 -18 -7
-18 -21 0 -17 -5 -20 -22 -16 -43 10 -63 -6 -63 -49 0 -36 -2 -39 -29 -39 -22
-1 -31 -8 -42 -34 -8 -19 -16 -32 -19 -30 -2 3 -9 101 -15 219 -14 310 -19
345 -46 386 -25 36 -32 70 -13 59 5 -4 15 -19 20 -33 l10 -27 30 33 c27 30 47
43 34 22 -3 -5 1 -10 9 -10 9 0 16 -4 16 -9 0 -14 37 -23 60 -16 11 3 20 15
20 26 0 10 5 19 10 19 6 0 10 -7 10 -15 0 -29 59 -18 91 16 18 20 40 32 57 33
19 1 27 7 28 21 1 11 2 25 3 31 1 6 26 16 57 23 41 9 58 18 61 32 3 10 12 19
19 19 8 0 27 14 42 30 22 23 38 30 66 30 25 0 36 4 36 15 0 8 -6 15 -13 15 -7
0 -18 5 -25 12 -18 18 5 38 42 38 17 0 38 5 46 10 8 5 30 10 48 10 29 0 33 -3
30 -22z"/>
<path d="M9421 10217 c-7 -10 -24 -17 -37 -17 -19 0 -24 -5 -24 -24 0 -13 -7
-29 -15 -36 -9 -8 -15 -30 -15 -60 0 -30 6 -52 15 -60 8 -7 15 -19 15 -26 0
-10 13 -14 40 -14 22 0 40 -4 40 -10 0 -5 18 -10 40 -10 36 0 40 -2 40 -25 0
-30 11 -32 33 -7 21 23 21 32 2 32 -11 0 -15 11 -15 39 0 22 -5 41 -12 44 -9
3 -1 17 21 41 26 27 31 36 18 36 -13 0 -17 9 -17 44 0 26 -6 48 -15 56 -12 10
-15 10 -15 -4 0 -23 -77 -23 -82 1 -3 15 -4 15 -17 0z"/>
<path d="M8090 9087 c0 -10 45 -128 62 -160 11 -22 17 -48 15 -59 -3 -11 5
-35 19 -55 13 -20 24 -40 24 -44 0 -5 7 -9 15 -9 19 0 19 20 0 56 -8 16 -15
41 -15 56 0 49 -28 135 -52 161 -12 14 -29 32 -36 41 -11 14 -32 22 -32 13z"/>
<path d="M9360 8887 c0 -13 -9 -17 -40 -17 -39 0 -40 -1 -40 -37 0 -20 -7 -45
-17 -55 -15 -17 -15 -19 0 -36 10 -10 17 -28 17 -40 0 -19 6 -22 40 -22 34 0
40 3 40 22 0 12 7 30 17 40 15 17 15 18 0 18 -24 0 -21 10 15 47 l32 33 -32
32 c-25 25 -32 29 -32 15z"/>
<path d="M8212 8656 c6 -32 -5 -51 -23 -40 -33 20 -41 14 -34 -27 6 -37 2 -44
-26 -41 -3 1 -7 -29 -7 -65 -1 -45 -6 -71 -17 -83 -11 -12 -14 -26 -9 -44 7
-28 19 -34 27 -13 3 6 6 2 6 -10 1 -13 -5 -23 -13 -23 -7 0 -17 -10 -20 -22
-5 -17 -12 -2 -27 62 -11 47 -29 117 -40 155 -10 39 -19 77 -19 86 0 9 -7 23
-16 30 -15 12 -16 11 -10 -16 3 -17 8 -52 11 -80 11 -99 26 -180 36 -189 5 -6
9 -24 9 -40 1 -17 8 -49 17 -71 21 -54 34 -179 37 -363 2 -84 6 -155 9 -158 7
-7 30 37 47 91 7 22 19 46 27 53 7 7 13 24 13 38 0 17 8 27 25 34 34 13 40 34
23 78 -8 22 -11 49 -7 67 4 17 7 24 8 17 2 -21 21 -3 21 20 0 17 5 20 31 16
27 -4 30 -2 24 16 -4 12 -9 31 -12 44 -3 12 -13 22 -23 22 -22 0 -32 36 -17
61 14 23 33 25 41 4 6 -17 32 -20 41 -6 3 5 -3 32 -14 59 -26 66 -39 235 -20
258 12 15 8 22 -36 60 -56 50 -69 54 -63 20z"/>
<path d="M7410 8555 l45 -13 -35 -3 c-19 -1 -54 -1 -78 0 -41 2 -72 -11 -72
-30 0 -5 8 -9 18 -9 14 -1 15 -2 2 -9 -15 -9 -144 -24 -192 -23 -29 1 -38 -12
-15 -22 6 -3 -6 -4 -28 -3 -22 1 -39 -2 -38 -8 1 -6 -42 -10 -110 -10 -102 -1
-117 -3 -169 -29 -31 -15 -71 -45 -89 -67 -17 -21 -38 -39 -45 -39 -18 0 -18
9 3 32 18 21 2 25 -19 5 -7 -8 -18 -12 -25 -10 -11 4 -36 -30 -38 -52 -1 -5
-5 -18 -9 -28 -6 -13 -3 -22 9 -31 13 -9 16 -22 13 -48 -4 -41 6 -54 53 -61
88 -13 105 -23 63 -37 -16 -6 -35 -20 -43 -32 -13 -21 -12 -21 47 -15 l61 5
-25 -26 c-13 -15 -24 -30 -24 -34 0 -11 48 -10 54 1 3 5 26 6 51 3 45 -5 46
-4 40 20 -4 17 0 29 14 42 29 26 63 17 83 -23 25 -50 40 -55 132 -46 45 5 106
8 137 7 68 -2 82 13 103 111 9 39 59 38 109 -4 27 -22 43 -29 58 -24 16 5 19
4 14 -6 -6 -9 3 -11 42 -6 36 4 56 2 71 -9 19 -13 21 -13 20 3 -1 10 2 28 6
41 5 14 3 22 -4 22 -14 0 -33 18 -48 47 -6 11 -41 35 -76 52 -79 38 -158 46
-331 34 -66 -5 -136 -6 -155 -2 -23 4 -27 7 -12 8 13 0 21 5 17 10 -3 5 5 13
17 17 24 7 112 48 138 63 31 19 163 53 237 61 43 5 93 13 110 18 20 7 35 7 38
1 4 -5 17 -9 30 -9 18 0 23 -4 19 -15 -6 -15 4 -19 41 -15 16 1 18 -1 7 -12
-11 -10 -7 -18 20 -41 18 -16 26 -26 16 -24 -9 3 -19 3 -22 -1 -6 -5 65 -31
86 -32 8 0 4 47 -5 57 -4 3 -7 15 -7 25 0 10 -6 18 -12 18 -10 0 -10 2 0 8 14
10 6 42 -11 42 -6 0 -7 3 -4 7 10 9 -31 35 -43 28 -6 -3 -10 1 -10 10 0 8 -8
19 -17 22 -24 9 -53 41 -53 57 0 21 -20 30 -33 17 -15 -15 -27 -14 -27 3 0 13
-64 27 -119 25 -20 -1 -15 -4 19 -14z"/>
<path d="M6960 7170 c0 -5 5 -10 11 -10 5 0 7 -5 3 -12 -4 -6 0 -16 8 -22 8
-6 23 -29 34 -51 20 -43 71 -97 207 -219 48 -43 87 -85 87 -93 0 -8 9 -24 20
-36 11 -12 18 -27 16 -34 -3 -6 -2 -13 2 -15 19 -8 65 -82 54 -86 -7 -2 -12
-8 -12 -13 0 -4 6 -6 14 -3 28 11 27 -16 -1 -28 l-28 -12 35 -4 c59 -6 56 -20
-4 -19 -50 2 -56 4 -56 24 0 18 -5 21 -34 20 -22 -1 -32 -6 -29 -14 3 -7 -3
-16 -13 -20 -25 -9 -43 -33 -44 -58 -1 -19 -1 -19 -15 -2 -18 25 -60 19 -60
-8 0 -13 -7 -19 -18 -19 -10 1 -16 0 -13 -3 3 -3 -8 -16 -23 -29 -21 -17 -53
-27 -132 -40 -146 -23 -294 -30 -284 -13 6 9 2 10 -16 4 -13 -4 -46 -11 -74
-15 -41 -6 -46 -9 -27 -15 26 -9 30 -27 5 -24 -10 1 -26 -1 -36 -6 -10 -4 -20
-5 -24 -2 -3 4 -19 -1 -35 -9 -16 -8 -37 -13 -46 -10 -13 4 -18 0 -19 -14 -1
-11 4 -20 10 -18 7 1 22 -3 35 -10 18 -11 22 -10 22 2 0 14 73 34 130 34 14 0
45 6 69 13 41 11 45 11 62 -9 14 -18 18 -19 23 -7 6 17 51 21 61 5 3 -5 12 -7
20 -4 10 4 19 -4 26 -22 9 -24 7 -36 -12 -71 -25 -46 -25 -48 11 -57 14 -3 19
-3 12 0 -15 7 3 34 23 34 18 0 48 37 40 49 -3 6 -2 11 4 11 5 0 12 -6 14 -12
3 -7 6 -1 6 13 1 26 12 32 76 43 6 1 30 12 55 24 25 12 51 22 58 22 8 0 27 14
43 31 26 28 32 30 58 21 35 -12 56 -1 48 27 -7 28 10 37 32 17 25 -23 48 -20
76 10 18 19 31 25 57 22 29 -3 35 -8 46 -45 15 -47 27 -54 35 -23 3 11 13 20
22 20 32 0 45 26 45 92 0 52 -3 65 -20 76 -12 7 -17 18 -13 28 4 10 -1 17 -16
21 -11 3 -21 11 -21 19 0 7 -9 18 -19 24 -11 6 -17 17 -15 27 3 12 -5 24 -26
35 -17 10 -33 25 -37 35 -4 10 -11 21 -17 25 -7 5 -7 8 2 8 7 0 10 5 7 10 -4
6 -14 9 -23 8 -9 -2 -17 4 -17 12 -1 24 -33 90 -44 90 -6 0 -8 7 -5 15 4 9 0
15 -10 15 -9 0 -16 6 -16 14 0 8 -24 33 -52 56 -29 22 -60 46 -68 53 -74 59
-100 76 -130 82 -19 4 -51 18 -70 31 -38 26 -50 29 -50 14z"/>
<path d="M6244 858 c-4 -6 -2 -14 4 -16 9 -3 7 -13 -7 -35 -16 -26 -19 -52
-20 -139 l-1 -108 64 0 63 0 -9 43 c-5 23 -11 65 -14 92 -3 28 -9 61 -14 75
-5 14 -11 42 -15 63 -4 27 -11 37 -25 37 -10 0 -22 -5 -26 -12z"/>
</g>
</svg>
