<?xml version="1.0" standalone="no"?>
<!DOCTYPE svg PUBLIC "-//W3C//DTD SVG 20010904//EN"
 "http://www.w3.org/TR/2001/REC-SVG-20010904/DTD/svg10.dtd">
<svg version="1.0" xmlns="http://www.w3.org/2000/svg"
 width="1280.000000pt" height="720.000000pt" viewBox="0 0 1280.000000 720.000000"
 preserveAspectRatio="xMidYMid meet">
<metadata>
Created by potrace 1.16, written by Peter Selinger 2001-2019
</metadata>
<g transform="translate(0.000000,720.000000) scale(0.100000,-0.100000)"
fill="#000000" stroke="none">
<path d="M4080 4801 l0 -2399 65 -12 c36 -7 65 -15 65 -19 0 -3 -7 -45 -16
-92 -12 -68 -19 -86 -32 -85 -9 0 -20 -11 -26 -29 -12 -34 -29 -55 -45 -55
-15 0 -14 -13 2 -29 9 -11 9 -13 0 -7 -10 6 -13 -78 -13 -402 0 -225 -3 -693
-7 -1040 l-6 -632 4366 0 4367 0 0 3600 0 3600 -2940 0 -2940 0 0 -22 c1 -23
1 -23 17 -3 15 19 15 19 9 -10 -4 -16 -14 -37 -22 -45 -12 -12 -14 -8 -14 33
l0 47 -1415 0 -1415 0 0 -2399z m2595 2347 c-11 -31 -13 -68 -4 -62 5 3 17 0
26 -8 14 -11 15 -10 9 9 -4 13 -3 31 3 40 9 16 10 15 11 -6 0 -22 2 -23 18 -9
33 29 45 32 33 10 -6 -12 -15 -24 -21 -27 -6 -4 -6 -15 0 -30 6 -15 6 -34 1
-48 -9 -22 -7 -23 16 -19 l26 5 -25 -34 c-14 -19 -29 -45 -33 -59 -7 -25 -7
-25 25 5 27 25 31 26 21 8 -6 -12 -22 -30 -35 -40 l-23 -17 29 -64 c16 -35 27
-67 24 -69 -5 -6 -26 40 -26 57 0 5 -4 12 -10 15 -6 4 -7 -1 -4 -12 6 -16 5
-15 -9 2 -8 10 -13 25 -10 32 6 17 -9 17 -27 1 -7 -7 -6 -2 3 12 10 14 17 43
16 70 l-1 45 -10 -34 c-10 -36 -38 -83 -38 -66 0 6 -5 3 -10 -5 -7 -12 -10 -8
-10 15 0 23 -3 27 -10 15 -8 -12 -10 -11 -10 7 0 12 5 25 10 28 6 3 10 19 10
35 0 16 5 39 11 52 6 15 7 32 1 48 -9 22 -11 23 -17 7 -4 -10 -3 -23 3 -29 7
-7 7 -18 0 -34 -15 -33 -28 -30 -28 5 0 34 23 94 33 84 4 -3 7 4 7 16 0 12 5
31 10 42 12 21 22 26 15 7z m503 -60 c7 -7 12 -8 12 -4 0 5 9 -3 21 -18 11
-14 25 -24 30 -21 5 4 10 -2 10 -12 2 -33 8 -78 14 -108 3 -18 2 -26 -4 -20
-5 6 -11 24 -13 40 -3 26 -6 22 -16 -25 -7 -30 -17 -62 -23 -70 -9 -13 -10
-13 -6 1 3 9 8 38 12 65 7 46 6 48 -9 29 -15 -19 -15 -19 -16 15 0 41 -8 34
-45 -37 -15 -29 -31 -53 -35 -53 -15 0 -1 54 30 112 27 51 31 64 21 85 -6 13
-11 26 -11 28 0 9 16 5 28 -7z m-94 -37 c8 -11 8 -13 -1 -7 -15 9 -17 -21 -3
-44 7 -11 11 -9 20 14 9 24 7 33 -7 50 -18 21 -18 21 2 5 11 -9 25 -14 32 -12
15 5 3 -45 -28 -117 -17 -39 -25 -49 -27 -36 -4 18 -5 18 -18 -5 -14 -24 -14
-24 -8 6 l7 30 -27 -28 c-14 -15 -33 -42 -42 -58 -21 -41 -30 -30 -11 13 20
45 27 68 21 68 -3 0 -10 -13 -15 -30 -6 -16 -15 -30 -20 -30 -4 0 -6 -7 -3
-15 4 -8 1 -15 -5 -15 -6 0 -32 -21 -58 -47 -25 -27 -38 -36 -29 -22 9 14 13
29 9 34 -5 4 -2 5 5 1 7 -4 12 -1 12 8 0 8 4 16 8 18 24 10 62 80 73 136 7 34
17 62 22 62 5 0 6 -7 3 -16 -8 -21 3 -56 15 -49 5 4 9 11 9 16 0 6 -4 7 -10 4
-5 -3 -10 -2 -10 2 0 5 10 13 23 18 15 7 22 18 22 37 -1 14 3 24 7 22 4 -3 8
3 9 13 0 14 2 15 6 3 3 -8 11 -21 17 -29z m-520 -82 c2 -30 6 -76 10 -104 3
-27 4 -44 0 -37 -12 26 -22 11 -14 -23 5 -20 4 -33 -1 -29 -5 3 -9 11 -9 18 0
17 -47 60 -51 47 -2 -6 -10 -2 -17 10 -9 14 -10 19 -2 14 9 -5 10 -1 5 16 -10
32 -13 35 -26 22 -6 -6 -6 -18 0 -36 9 -22 8 -27 -5 -27 -14 0 -14 -3 -4 -15
7 -9 10 -18 7 -21 -5 -6 -137 104 -137 113 0 6 22 -7 41 -24 19 -16 59 -26 59
-14 0 4 -5 12 -11 18 -6 6 -8 17 -3 24 5 9 10 5 16 -12 9 -23 10 -23 20 -5 8
14 8 24 -1 37 -16 27 -14 36 4 13 14 -19 14 -18 15 3 0 18 5 22 24 21 14 -1
22 -6 20 -10 -3 -4 1 -8 8 -8 8 0 20 16 27 36 7 19 15 34 17 31 3 -2 6 -29 8
-58z m542 -259 c13 0 25 4 28 9 7 10 106 -20 106 -32 0 -4 -11 -5 -25 -1 -23
6 -22 3 20 -62 24 -38 51 -77 60 -87 9 -10 13 -22 10 -28 -4 -5 -2 -8 4 -7 6
2 22 -10 36 -27 23 -27 25 -27 14 -5 -6 14 -21 38 -33 55 -11 16 -22 37 -23
47 -2 14 1 14 20 -5 13 -12 22 -24 21 -27 -2 -4 6 -11 17 -18 24 -15 26 3 5
34 -9 12 -11 26 -6 33 6 11 11 8 20 -9 6 -12 14 -19 17 -17 2 3 -3 17 -13 31
-9 15 -15 29 -12 31 2 3 24 -29 48 -71 35 -62 41 -80 32 -94 -7 -12 -7 -31 -1
-60 9 -41 5 -70 -6 -36 -3 9 -7 23 -10 31 -2 8 -9 15 -14 15 -5 0 -1 -31 10
-70 21 -77 26 -143 5 -77 -6 21 -15 35 -18 31 -4 -3 -14 11 -23 32 -21 52 -66
127 -71 121 -6 -6 17 -58 33 -75 7 -8 11 -18 8 -22 -3 -5 -1 -17 4 -27 16 -29
42 -96 38 -100 -2 -2 -12 16 -23 39 -10 24 -27 57 -37 73 l-18 30 7 -50 c3
-27 18 -93 34 -145 16 -52 34 -120 41 -150 22 -99 37 -145 42 -130 2 8 12 49
22 90 21 89 31 110 50 110 8 0 15 9 15 20 0 28 25 25 49 -5 41 -53 66 -257 41
-345 -16 -58 -66 -129 -96 -136 -22 -6 -32 -2 -47 17 l-20 24 6 -55 c33 -314
32 -313 72 -389 36 -68 59 -94 170 -184 28 -23 29 -27 16 -51 -20 -37 -211
-236 -318 -331 -126 -113 -228 -158 -379 -168 -62 -5 -68 -4 -29 3 60 10 136
41 117 48 -9 3 -6 8 10 16 15 8 23 21 23 38 1 14 6 33 13 40 6 8 9 18 5 21 -3
4 -1 7 5 7 7 0 12 5 12 10 0 6 -7 10 -16 10 -14 0 -14 3 -4 15 10 12 10 15 -1
15 -11 0 -11 2 1 10 10 6 11 10 3 10 -7 0 -13 9 -13 19 0 23 -17 31 -55 23
-23 -4 -27 -2 -22 12 4 10 1 16 -8 16 -22 0 -18 11 15 47 17 18 30 37 30 43 0
6 13 13 29 16 20 4 28 11 24 20 -3 9 1 14 12 14 9 0 14 4 11 8 -3 5 4 22 15
38 23 35 66 95 76 109 68 87 70 98 7 53 -26 -18 -65 -45 -86 -61 -43 -30 -58
-28 -58 6 0 13 -9 31 -21 40 -11 10 -18 25 -15 33 3 8 2 13 -3 10 -5 -4 -8
-31 -6 -62 3 -44 1 -55 -10 -50 -8 3 -16 0 -19 -7 -3 -8 -9 -6 -16 6 -11 17
-14 17 -29 3 -26 -24 -78 -8 -67 21 4 9 -7 1 -23 -16 -43 -46 -58 -39 -53 22
1 11 -3 17 -10 14 -7 -2 -12 -10 -10 -16 3 -16 -15 -14 -21 3 -3 8 1 17 9 20
8 3 14 12 14 20 0 23 29 34 104 42 49 5 69 12 76 25 16 28 12 41 -10 34 -15
-5 -20 -2 -21 12 0 10 -3 13 -6 6 -3 -10 -8 -10 -18 1 -11 11 -35 13 -100 9
-53 -4 -85 -2 -85 4 0 14 61 39 150 62 112 29 167 36 186 21 25 -22 39 3 19
34 -21 31 -38 33 -65 6 -16 -16 -31 -19 -102 -16 -46 1 -90 -2 -98 -7 -10 -6
-27 -4 -51 6 -28 11 -35 20 -37 46 -1 17 2 31 7 31 5 0 12 12 15 26 6 22 9 24
22 13 8 -7 13 -18 10 -26 -8 -20 12 -63 29 -63 18 0 18 1 5 34 -5 14 -6 26 -1
26 14 0 -11 93 -36 133 -13 21 -35 43 -49 49 -20 10 -25 17 -20 37 2 15 10 51
16 81 8 35 9 82 5 130 -4 41 -8 100 -9 131 -1 32 -8 65 -17 79 -15 22 -21 23
-104 22 -49 -1 -94 -7 -102 -13 -9 -9 -13 -8 -13 0 0 7 -9 9 -23 6 -12 -3 -34
-2 -47 4 -14 5 -19 10 -12 10 7 1 10 6 7 12 -4 6 3 13 14 16 15 4 20 11 16 24
-7 21 12 62 24 54 5 -3 12 7 16 22 4 17 2 29 -4 31 -6 2 -11 8 -11 13 0 6 3 8
8 6 4 -3 6 44 4 105 -2 79 0 114 10 125 16 20 146 83 170 83 10 0 37 9 60 19
67 30 80 35 118 36 19 1 36 7 38 14 2 6 11 11 21 11 9 0 21 4 27 9 13 13 57
19 69 9 5 -4 19 -8 31 -8z m4211 -172 c11 15 12 15 13 -5 0 -26 3 -27 32 -12
15 8 19 8 14 0 -9 -13 34 -31 74 -31 16 0 32 -4 35 -10 3 -5 16 -10 28 -9 38
0 91 -11 101 -21 15 -15 49 -13 40 3 -4 6 12 -7 35 -30 24 -24 50 -43 57 -43
12 0 12 -4 2 -20 -7 -11 -21 -20 -30 -20 -10 0 -18 -5 -18 -11 0 -5 5 -7 12
-3 7 5 8 3 3 -5 -4 -7 1 -22 12 -34 32 -35 39 -54 11 -29 -25 23 -48 16 -32
-10 5 -7 2 -9 -8 -6 -9 4 -15 0 -15 -8 0 -8 5 -14 10 -14 5 0 7 -15 4 -34 -3
-20 0 -43 9 -57 57 -98 66 -130 74 -252 10 -142 8 -127 18 -127 10 0 46 87 62
150 16 58 52 129 58 112 2 -8 0 -18 -6 -24 -11 -11 4 -58 19 -58 4 0 9 -10 11
-22 3 -15 7 -6 12 25 7 38 5 51 -8 66 -20 22 -21 41 -1 41 27 0 37 -71 20
-152 -8 -40 -15 -98 -15 -128 -1 -39 -8 -71 -28 -110 -25 -51 -30 -55 -59 -54
-32 2 -33 1 -33 -39 0 -38 1 -39 14 -22 13 19 15 18 20 -15 3 -19 10 -97 15
-173 9 -135 10 -139 50 -212 23 -41 41 -81 41 -90 0 -28 -228 -246 -325 -312
-146 -98 -268 -154 -335 -152 -35 1 -35 1 9 11 30 7 40 12 31 18 -9 6 0 12 28
20 26 7 42 17 42 26 0 18 -25 46 -37 42 -8 -3 -13 5 -13 21 0 5 14 14 31 21
28 12 30 16 24 47 -3 20 -2 33 5 33 5 0 10 4 10 10 0 5 -7 7 -15 4 -9 -4 -15
0 -15 10 0 9 6 16 13 17 6 0 1 5 -12 10 -23 9 -23 10 -5 30 10 11 50 45 89 74
81 62 98 77 145 135 19 24 47 57 61 74 39 45 89 134 96 169 l6 30 -20 -20
c-12 -12 -25 -27 -29 -36 -23 -39 -113 -131 -144 -147 -19 -10 -48 -30 -63
-44 -15 -14 -37 -26 -48 -26 -10 0 -19 -4 -19 -9 0 -11 -62 -21 -75 -11 -5 4
-25 7 -43 7 -33 0 -52 15 -52 41 0 7 5 10 12 6 6 -4 8 -3 5 2 -3 6 -1 30 5 55
19 79 3 170 -22 129 -6 -10 -10 -11 -10 -3 0 7 -7 10 -15 7 -11 -5 -13 -2 -9
10 5 13 -1 16 -35 16 l-41 0 16 24 c11 18 31 28 70 36 57 12 166 10 195 -4 22
-10 33 19 17 44 -11 18 -48 24 -48 8 0 -11 -68 -10 -113 3 -28 8 -42 7 -53 -1
-23 -20 -64 -4 -64 24 0 57 24 75 35 26 7 -32 24 -50 26 -28 1 7 2 36 3 63 1
48 2 50 31 50 20 0 31 6 33 18 3 15 -5 17 -65 17 -93 0 -106 10 -99 80 2 30 7
115 9 187 6 151 17 136 -96 134 -49 0 -58 2 -53 15 3 8 2 12 -4 9 -6 -3 -10
-1 -10 4 0 6 -8 11 -18 11 -11 0 -22 12 -30 33 -15 40 -16 127 -2 127 6 0 10
26 10 59 0 56 2 60 33 79 31 19 46 30 105 79 15 13 42 24 62 25 56 2 59 3 78
17 12 8 18 22 15 35 -3 19 -3 19 9 4 11 -15 13 -15 25 0z m-6044 -142 c-3 -5
-1 -6 5 -3 5 4 18 4 28 0 16 -6 16 -7 -2 -20 -14 -10 -14 -13 -3 -13 8 0 21 6
27 12 10 10 15 10 21 0 5 -8 12 -14 17 -14 5 0 15 -3 22 -6 24 -9 25 7 1 18
-46 21 -70 38 -67 46 2 5 8 7 13 6 6 -2 33 -5 62 -7 45 -2 91 -24 78 -37 -5
-4 125 -52 168 -62 15 -4 31 -14 34 -24 3 -9 14 -26 23 -37 20 -23 32 -63 20
-70 -17 -11 10 -255 32 -282 6 -7 5 -14 -2 -18 -5 -3 -10 -33 -10 -66 0 -56
-11 -77 -24 -44 -7 20 -42 19 -50 -1 -4 -12 -1 -14 14 -9 11 4 20 2 20 -4 0
-6 -6 -11 -12 -12 -10 0 -10 -2 0 -6 15 -6 15 -23 -2 -46 -13 -16 -16 -16 -61
4 -27 12 -67 21 -89 21 -52 0 -23 13 48 21 53 7 80 22 44 24 -12 1 -24 6 -27
10 -3 4 -14 14 -23 22 -15 11 -21 11 -35 0 -15 -12 -16 -12 -8 1 6 11 3 10
-12 -2 -11 -10 -27 -18 -36 -18 -9 0 -19 -5 -23 -11 -4 -8 -9 -7 -16 2 -7 11
-8 9 -6 -6 2 -11 13 -24 26 -30 26 -11 28 -21 7 -29 -20 -7 -19 -26 1 -26 14
0 14 -3 4 -15 -15 -18 3 -47 25 -39 7 3 16 1 20 -5 8 -14 58 -14 71 -1 10 10
54 2 54 -11 0 -7 8 -8 69 -9 23 0 23 -1 17 -73 -3 -39 -10 -90 -15 -111 -6
-22 -8 -44 -5 -48 3 -4 1 -8 -4 -8 -5 0 -12 -23 -14 -52 -3 -28 -12 -56 -19
-62 -16 -12 -23 -56 -10 -56 5 0 7 -9 4 -20 -3 -11 -9 -20 -12 -20 -4 0 -8 -8
-8 -17 1 -75 -5 -126 -12 -108 -8 19 -8 19 -15 -2 -4 -13 -4 -27 -1 -33 3 -5
1 -10 -5 -10 -7 0 -10 15 -7 43 4 29 1 44 -6 45 -51 5 -95 17 -116 30 -25 17
-96 24 -253 26 -43 0 -78 2 -78 4 0 4 55 25 63 24 4 -1 7 2 7 7 0 5 9 7 20 4
13 -4 26 3 39 18 17 21 20 22 26 7 10 -25 32 -11 39 25 4 17 17 43 31 57 29
30 25 70 -7 70 -39 0 -43 17 -44 216 0 221 -5 235 -76 255 -24 6 -47 14 -53
19 -5 4 -21 10 -35 13 -24 6 -24 5 -6 -8 18 -14 15 -15 -35 -15 -69 0 -99 8
-99 27 0 9 -5 11 -12 7 -10 -6 -10 -4 0 8 10 13 10 17 -5 23 -16 6 -16 8 3 15
16 6 22 20 27 62 7 55 -1 108 -12 89 -4 -6 -8 4 -8 22 -1 17 -2 37 -3 42 -1 6
-1 28 0 50 2 35 3 37 10 15 4 -14 8 -42 9 -62 1 -47 21 -51 21 -4 0 19 6 37
13 39 7 4 6 6 -4 6 -19 1 -33 28 -19 36 6 4 5 12 -3 19 -9 10 -14 11 -19 2 -6
-8 -8 -7 -8 2 0 7 6 15 13 18 9 3 12 16 9 34 -3 24 0 30 14 31 11 1 33 2 49 2
36 2 77 29 73 48 -2 10 7 14 30 14 19 0 32 5 32 13 0 22 24 52 31 40 4 -7 5
-16 2 -22z m3883 -24 c23 -7 47 -18 53 -26 6 -7 22 -11 35 -9 13 3 35 -2 48
-11 14 -9 27 -14 29 -11 14 13 83 -79 109 -146 27 -70 31 -100 9 -69 -9 12 -9
11 -4 -5 8 -23 31 -167 45 -275 5 -41 11 -88 14 -105 3 -16 8 -47 11 -67 8
-54 20 -47 23 14 4 102 59 98 83 -6 14 -64 -1 -228 -26 -276 -14 -27 -21 -31
-48 -28 l-32 3 -7 -67 c-13 -140 -49 -214 -122 -253 -20 -11 -36 -23 -36 -27
0 -5 -7 -8 -15 -8 -16 0 -56 -20 -65 -32 -3 -4 -15 -9 -25 -11 -11 -1 -26 -6
-33 -11 -7 -4 -32 -4 -55 0 -23 4 -58 9 -77 10 -19 2 -42 4 -50 4 -8 1 -26 24
-39 51 -21 45 -41 64 -41 39 0 -18 -22 -10 -27 10 -3 11 -11 20 -18 20 -14 0
-35 42 -35 70 0 22 -15 27 -26 9 -5 -8 -10 -6 -16 5 -5 9 -13 14 -18 11 -5 -3
-14 12 -20 32 -7 21 -17 44 -23 51 -6 7 -7 41 -4 82 3 42 2 72 -4 76 -6 3 -8
11 -6 17 2 7 -11 41 -30 76 -18 35 -33 72 -33 81 0 10 -7 23 -16 31 -10 8 -14
23 -12 41 3 16 0 28 -6 28 -6 1 5 8 24 16 24 10 50 13 80 9 32 -4 41 -3 30 4
-10 7 -11 11 -3 11 7 0 10 7 7 15 -5 11 1 15 25 15 18 0 40 9 51 20 18 18 24
18 21 -2 0 -5 5 -8 13 -8 19 0 34 -68 24 -105 -4 -16 -10 -52 -13 -80 -3 -27
-12 -68 -20 -90 -12 -34 -20 -66 -24 -107 -1 -5 -6 -8 -11 -8 -6 0 -17 -6 -24
-12 -18 -17 3 -61 47 -101 17 -16 27 -31 22 -35 -6 -4 -10 -22 -10 -39 0 -28
3 -33 23 -33 13 0 20 -4 17 -10 -10 -17 37 -6 56 12 27 25 7 100 -22 82 -4 -2
-12 3 -19 11 -7 8 -17 12 -24 8 -7 -4 -8 -3 -1 4 30 29 188 44 255 24 49 -15
103 -14 97 2 -2 7 -16 11 -35 9 -17 -2 -51 6 -77 17 -25 11 -64 20 -88 21
-117 3 -115 2 -97 30 5 8 10 11 10 5 1 -10 35 47 46 78 10 26 24 20 31 -13 3
-16 10 -30 14 -30 5 0 7 12 3 28 -6 29 -6 73 0 79 2 3 23 -5 45 -15 42 -21 49
-16 30 20 -10 18 -17 20 -60 14 -69 -9 -78 8 -83 160 -4 128 -16 170 -57 202
-24 20 -134 47 -149 37 -14 -9 -110 -15 -110 -7 0 18 69 74 82 66 7 -4 5 2 -4
13 -10 11 -18 29 -18 40 0 11 -3 23 -7 26 -3 4 -5 41 -4 83 2 60 7 84 25 113
33 52 40 56 146 81 52 12 106 25 120 30 33 9 76 7 126 -8z m-2466 -418 c0 -13
5 -24 10 -24 7 0 7 -6 1 -17 -5 -10 -8 -30 -6 -45 2 -16 -1 -28 -6 -28 -5 0
-9 -13 -9 -29 0 -17 -4 -32 -8 -35 -5 -3 -7 -18 -5 -33 3 -20 -4 -38 -22 -60
l-27 -32 -21 20 c-12 11 -37 33 -55 48 -46 39 -49 67 -10 99 17 15 40 32 52
37 30 14 31 35 1 35 -14 0 -25 4 -25 9 0 13 27 21 45 15 24 -10 65 23 65 52 0
14 4 22 10 19 6 -3 10 -17 10 -31z m4413 -158 c8 -20 -9 -176 -22 -208 -19
-49 -62 -29 -99 45 -12 25 -29 50 -37 57 -8 7 -15 26 -15 42 0 27 3 30 25 24
14 -4 25 -3 25 2 0 4 14 16 30 25 17 10 30 15 30 11 0 -5 5 -3 12 4 16 16 45
15 51 -2z m-5923 -25 c24 -9 24 -10 -10 -11 l-35 -2 42 -10 c52 -11 135 -98
94 -98 -5 0 -11 -13 -13 -29 -3 -23 -1 -28 11 -23 12 4 10 -3 -6 -31 -12 -20
-25 -53 -29 -74 -9 -46 -20 -73 -58 -136 -16 -26 -28 -59 -28 -73 0 -13 -6
-24 -12 -24 -16 0 -84 -67 -91 -90 -4 -11 -10 -18 -14 -16 -4 3 -7 -11 -7 -30
1 -25 5 -33 15 -29 8 3 18 0 22 -6 4 -6 20 -14 35 -16 33 -5 25 -5 174 0 128
5 281 -11 288 -31 2 -6 8 -12 13 -12 6 0 7 5 4 10 -3 6 -2 10 2 10 5 0 9 -16
10 -35 1 -19 -3 -33 -7 -30 -4 3 -7 -3 -6 -13 0 -9 -5 -16 -12 -14 -7 1 -15
-11 -18 -28 -4 -16 -10 -27 -15 -24 -10 6 -10 5 -13 -53 -1 -23 2 -40 6 -37 4
3 5 -2 2 -11 -5 -11 -10 -12 -18 -5 -9 6 -16 6 -25 -3 -10 -9 -11 -9 -6 4 4
10 0 16 -10 16 -14 0 -13 -3 1 -25 15 -22 11 -48 -4 -27 -4 6 -17 10 -29 11
-18 0 -20 -2 -11 -13 6 -8 17 -12 24 -9 18 7 25 -7 13 -24 -8 -11 -12 -12 -16
-3 -5 14 -25 0 -36 -27 -4 -8 -4 3 -2 25 3 22 2 33 -1 25 -15 -34 -41 -38 -46
-7 -2 13 -9 21 -18 18 -8 -2 -24 -6 -34 -9 -15 -4 -18 -1 -13 12 5 13 3 16
-11 12 -14 -5 -21 2 -31 30 -13 35 -13 35 -34 17 -19 -17 -20 -17 -14 0 4 11
1 20 -8 23 -17 7 -20 34 -4 34 5 0 7 5 4 10 -3 6 -1 10 6 10 8 0 8 4 -1 15
-14 17 -15 17 58 20 29 1 55 5 58 8 3 3 17 -1 30 -8 31 -16 89 -12 109 8 13
13 12 16 -10 21 -16 4 -22 11 -19 20 4 11 -4 16 -28 20 -84 13 -113 13 -126
-3 -12 -14 -13 -14 -8 2 3 9 1 17 -4 17 -5 0 -11 -8 -13 -17 -4 -14 -5 -13 -6
3 0 12 -9 25 -18 29 -15 5 -16 4 -5 -6 16 -17 16 -34 -1 -20 -14 11 -37 -3
-37 -24 0 -18 -35 -34 -51 -23 -11 8 -11 9 2 5 13 -4 15 -1 11 16 -3 12 -7 16
-10 9 -3 -9 -13 -7 -36 8 -18 11 -36 17 -39 13 -4 -3 -7 -1 -7 5 0 6 8 16 18
22 15 10 14 11 -5 7 -18 -4 -23 -1 -23 15 0 14 -5 18 -16 14 -13 -5 -15 -1
-12 19 3 14 2 28 -3 31 -5 2 -4 16 1 29 10 25 6 164 -6 223 -3 18 -15 37 -26
43 -13 7 -18 19 -16 38 1 16 -3 35 -9 42 -6 8 -14 26 -18 42 -4 15 -11 27 -16
27 -5 0 -9 19 -9 42 0 23 3 38 7 35 3 -4 11 -3 17 2 7 6 36 -3 81 -25 39 -19
79 -33 89 -32 17 3 16 7 -12 35 -37 37 -28 50 23 32 30 -11 37 -11 55 6 11 10
20 24 20 32 0 20 20 5 30 -23 5 -13 16 -24 25 -24 19 0 19 10 -3 36 -23 29
-54 44 -92 44 -18 0 -29 4 -25 10 4 6 -7 10 -27 10 -25 0 -29 3 -18 10 13 8
12 10 -3 10 -10 0 -16 4 -13 9 7 11 83 6 116 -8z m4256 -884 c-6 -160 -5 -191
10 -236 14 -45 15 -61 5 -106 -14 -63 -57 -133 -103 -168 -42 -33 -134 -57
-213 -57 -53 0 -126 20 -240 66 -19 7 -19 6 -5 -12 14 -18 14 -18 -2 -5 -10 7
-16 17 -13 21 3 5 -11 18 -30 30 -19 12 -40 30 -45 41 -10 17 -8 18 16 9 15
-6 29 -8 32 -5 3 3 0 5 -7 5 -9 0 -7 5 3 16 9 8 20 13 25 10 5 -3 8 9 6 27 -4
44 3 54 45 61 31 6 40 2 75 -30 22 -20 50 -46 62 -57 21 -19 26 -19 62 -7 51
17 68 54 40 89 -11 13 -19 29 -19 37 0 7 -8 19 -17 26 -10 7 -19 19 -20 26 -2
6 -4 17 -5 24 -2 7 11 17 27 23 17 5 30 16 31 23 2 29 5 33 16 26 6 -4 8 -3 5
3 -4 6 2 21 13 33 11 13 20 20 20 15 0 -4 6 -3 13 2 6 6 26 13 42 17 34 9 53
27 74 71 19 39 95 164 100 165 2 0 1 -83 -3 -183z m-4086 -456 c0 -5 -6 -12
-12 -14 -8 -4 -7 -6 4 -6 9 -1 18 3 20 7 2 5 14 5 28 1 23 -6 23 -7 3 -8 -12
-1 -24 -5 -27 -10 -4 -5 10 -5 31 0 21 4 39 6 42 3 2 -2 -2 -4 -10 -4 -12 0
-11 -2 1 -10 11 -7 5 -8 -20 -5 -29 5 -31 4 -13 -4 30 -13 19 -41 -16 -42 -25
-1 -25 -2 4 -8 36 -8 20 -22 -25 -23 -17 -1 -30 -5 -30 -9 0 -4 -8 -9 -17 -12
-14 -3 -12 -6 10 -15 35 -15 114 -16 122 -2 3 6 11 10 18 10 28 0 -38 -32 -71
-34 -101 -8 -272 46 -272 85 0 21 20 25 38 7 6 -6 15 -8 19 -4 4 4 1 11 -6 15
-7 5 -10 14 -7 20 4 6 2 11 -3 11 -6 0 -11 5 -11 11 0 7 11 9 29 6 36 -8 73 2
64 17 -3 6 3 3 15 -7 20 -19 21 -18 15 4 -4 13 -2 20 3 16 6 -3 16 -2 24 4 19
11 50 12 50 0z m3497 -373 c47 -59 160 -274 149 -285 -3 -3 8 -30 25 -61 16
-30 29 -67 29 -81 0 -16 8 -31 21 -39 20 -13 20 -12 14 35 -4 31 -3 43 3 33
12 -19 22 -109 12 -115 -9 -6 -50 24 -50 37 0 6 -20 54 -44 107 -24 53 -58
128 -76 166 -65 143 -81 173 -110 213 -28 39 -35 52 -27 52 2 0 26 -28 54 -62z
m20 -126 c64 -134 121 -265 178 -407 16 -38 28 -87 28 -107 0 -21 3 -38 7 -38
4 0 10 -11 13 -26 4 -23 2 -25 -30 -22 -35 3 -35 4 -69 103 -37 106 -40 145
-7 80 12 -22 30 -48 42 -59 20 -18 20 -18 11 12 -4 17 -22 57 -38 89 -16 32
-42 92 -57 133 -45 118 -70 177 -124 293 -28 60 -51 114 -51 120 0 22 32 -35
97 -171z m3561 -533 c47 -15 64 -29 58 -46 -4 -10 -1 -11 14 -3 26 14 29 13
23 -10 -6 -22 7 -26 25 -8 9 9 12 9 12 0 0 -7 -19 -34 -42 -60 -59 -65 -73
-91 -53 -98 17 -7 15 -35 -4 -58 -11 -13 -11 -16 2 -16 9 0 19 5 22 10 10 16
25 12 25 -7 -1 -27 -43 -141 -74 -203 -33 -63 -70 -115 -135 -184 -42 -45 -43
-47 -12 -26 131 90 243 262 306 468 28 90 34 101 45 86 12 -14 12 -23 -2 -62
-22 -61 -16 -65 11 -7 23 49 37 60 27 21 -5 -20 -3 -23 14 -19 23 6 25 -4 6
-30 -9 -12 -16 -14 -21 -8 -3 6 -11 11 -18 11 -6 0 -1 -7 11 -16 12 -8 20 -20
17 -25 -4 -5 2 -9 12 -10 14 0 12 -3 -7 -12 -14 -6 -28 -16 -32 -22 -4 -5 -8
8 -8 30 l0 40 -21 -32 c-12 -18 -24 -31 -27 -29 -4 2 -7 -11 -8 -30 -1 -36 12
-47 18 -16 3 9 5 -2 6 -26 1 -37 -3 -44 -24 -53 -22 -8 -25 -14 -22 -46 2 -22
-2 -38 -10 -41 -8 -2 -10 2 -6 13 4 9 -1 23 -12 34 -18 17 -20 17 -37 -5 -13
-17 -16 -32 -11 -63 8 -52 -1 -78 -21 -61 -8 6 -22 10 -32 7 -14 -4 -13 -5 5
-6 31 -1 50 -44 29 -65 -11 -12 -17 -13 -20 -3 -3 8 -10 6 -21 -8 -16 -20 -16
-20 -31 -1 -12 16 -15 17 -15 4 0 -8 -3 -36 -6 -62 -7 -47 -7 -47 20 -40 29 7
32 -2 11 -30 -10 -14 -15 -15 -15 -6 0 29 -18 -7 -40 -82 -13 -43 -25 -76 -27
-75 -1 2 3 37 11 78 21 111 30 229 17 229 -18 0 -41 -44 -41 -80 -1 -82 -75
-360 -116 -430 -17 -28 -17 -28 32 119 36 108 64 245 64 309 0 34 -1 35 -17
19 -10 -10 -18 -36 -20 -69 -1 -29 -5 -66 -7 -83 -2 -16 -5 -43 -5 -58 -1 -32
-21 -28 -21 4 0 13 -4 18 -12 13 -7 -4 -8 -3 -4 5 11 17 -18 43 -33 28 -8 -8
-15 -6 -26 9 -8 10 -15 25 -15 32 0 6 -4 12 -10 12 -15 0 -12 -8 10 -40 11
-16 21 -40 22 -53 1 -14 6 -23 10 -21 5 3 18 2 29 -1 21 -7 21 -13 5 -75 -3
-8 -5 -21 -5 -27 -1 -7 -10 -13 -21 -13 -17 0 -18 -3 -9 -18 9 -14 9 -26 0
-48 l-11 -29 5 28 c8 39 -3 52 -26 31 -10 -9 -19 -14 -19 -9 0 4 -12 0 -26
-10 -30 -19 -42 -15 -20 8 8 8 12 17 9 21 -4 3 7 3 24 0 29 -6 32 -4 38 26 4
18 10 28 14 22 9 -14 24 -3 38 29 9 20 8 26 -2 26 -7 0 -11 -5 -9 -11 6 -17
-12 -39 -25 -32 -6 4 -9 12 -6 17 3 5 -1 6 -10 3 -9 -4 -13 -13 -10 -24 6 -20
-19 -45 -35 -35 -13 8 -2 47 17 58 7 5 11 12 8 17 -3 6 -19 -4 -35 -20 -16
-17 -37 -30 -45 -30 -15 0 -15 1 -1 16 9 8 22 12 28 8 7 -4 4 2 -7 13 -22 23
-25 23 -30 -4 -1 -10 -7 -17 -13 -16 -12 3 -10 -30 2 -39 6 -4 19 -2 29 4 14
7 23 6 31 -2 8 -9 7 -11 -4 -8 -8 2 -14 -5 -15 -17 0 -14 -8 -21 -25 -23 -14
-2 -22 -1 -18 3 10 10 -25 43 -37 34 -16 -11 -49 -14 -62 -6 -9 6 -13 2 -13
-11 0 -11 -7 -25 -16 -33 -13 -10 -17 -10 -25 2 -14 22 -6 44 19 47 12 2 22 8
22 13 0 6 4 8 9 5 5 -3 14 0 20 8 10 11 7 14 -14 12 -14 0 -25 -5 -25 -10 0
-5 -3 -6 -7 -3 -3 4 -12 2 -19 -4 -10 -8 -11 -5 -7 13 5 23 5 23 -10 3 -8 -11
-13 -23 -11 -27 10 -16 -7 -29 -21 -18 -16 14 -49 -1 -64 -28 -5 -9 -12 -15
-14 -12 -3 3 7 21 23 40 23 28 31 33 41 23 24 -24 33 -13 10 11 -17 18 -22 32
-17 49 5 21 1 26 -33 37 -33 11 -42 10 -79 -9 -43 -22 -87 -27 -96 -12 -3 5
-26 6 -51 4 -49 -6 -99 10 -118 37 -7 10 -28 20 -47 22 -41 4 -57 16 -62 48
-2 16 -11 24 -27 27 -32 5 -53 23 -47 40 5 11 -5 13 -46 11 -57 -3 -83 -26
-94 -84 -5 -25 0 -38 25 -66 42 -48 39 -70 -3 -29 -38 37 -51 35 -72 -13 -13
-30 -14 -30 -20 -8 -5 19 -12 22 -30 18 -17 -5 -22 -3 -18 7 3 8 -10 18 -33
26 -21 8 -41 19 -45 25 -4 6 -10 7 -15 3 -4 -5 -2 -12 5 -16 9 -6 10 -15 3
-33 -15 -39 -28 -41 -42 -9 -8 17 -18 27 -26 24 -7 -3 -13 0 -13 6 0 6 -9 11
-20 11 -11 0 -23 7 -27 16 -3 8 -15 14 -27 13 -35 -2 -47 1 -42 10 3 5 -1 11
-9 15 -8 3 -12 12 -9 21 3 8 1 15 -4 15 -6 0 -12 -8 -15 -17 -3 -14 -6 -11
-12 10 -5 21 -12 26 -26 22 -15 -5 -20 1 -25 34 -5 33 -11 41 -28 42 -19 1
-18 2 4 9 23 7 23 8 -10 10 -19 1 -48 2 -65 1 -84 -2 -99 0 -107 13 -4 7 -19
17 -33 20 -23 6 -25 9 -19 49 4 23 11 50 15 59 5 9 9 32 9 52 0 22 7 40 18 48
10 7 25 26 33 43 16 33 47 45 63 23 6 -8 25 -20 43 -27 17 -7 40 -22 52 -35
21 -22 53 -100 45 -109 -10 -10 30 -27 201 -85 215 -73 249 -81 430 -92 77 -5
167 -16 200 -26 79 -23 98 -22 173 9 35 14 59 20 53 13 -6 -7 -7 -16 -3 -21 4
-4 -4 -4 -18 0 -14 4 -22 4 -18 0 4 -4 -3 -16 -15 -26 -22 -18 -21 -18 50 -19
80 0 204 14 273 32 127 32 305 166 293 220 -3 17 -2 19 5 9 5 -7 15 -11 21 -7
14 9 -9 58 -25 52 -25 -10 -24 24 1 36 20 9 23 14 13 25 -9 11 -9 19 0 34 7
11 10 24 7 29 -4 6 -2 10 4 10 5 0 11 -5 13 -12 3 -8 6 -6 10 4 5 12 -1 17
-26 20 -32 4 -32 3 -32 -37 1 -38 -1 -40 -36 -49 -30 -7 -45 -6 -75 9 -21 10
-45 21 -53 25 -8 4 -44 8 -80 9 -35 1 -68 5 -72 7 -4 2 -25 0 -48 -5 -36 -8
-45 -6 -61 10 -10 10 -22 19 -26 19 -5 0 -8 6 -8 13 -1 6 -6 11 -12 10 -9 -2
-12 36 -4 68 2 13 57 17 106 9 251 -42 253 -42 273 -22 14 14 32 19 61 18 22
-1 41 2 41 7 0 5 -9 7 -21 4 -23 -6 -35 14 -23 41 10 24 6 45 -14 60 -24 18
-37 14 -19 -6 50 -55 -8 -112 -85 -83 -13 5 -26 9 -30 10 -4 1 -25 8 -47 16
-22 7 -42 11 -45 8 -10 -10 -156 -15 -156 -5 0 5 -9 12 -20 15 -15 4 -20 14
-20 39 0 45 15 58 67 58 27 0 43 5 44 13 0 10 2 10 6 0 2 -7 13 -13 23 -13 15
0 20 10 25 48 8 57 24 102 37 102 6 0 7 -8 3 -17 -9 -23 -24 -126 -19 -134 2
-4 14 -7 26 -7 13 0 50 -5 82 -11 33 -6 61 -9 63 -8 2 2 -14 15 -34 28 -61 39
-105 148 -67 163 29 11 66 7 58 -6 -4 -7 1 -5 12 4 16 16 35 17 161 14 79 -3
160 -10 181 -17z m-2128 -118 c0 -10 -7 -24 -15 -31 -8 -7 -15 -23 -15 -36 0
-12 -4 -26 -10 -29 -5 -3 -10 -11 -10 -16 0 -18 30 19 45 56 9 19 18 35 21 35
16 0 -45 -168 -74 -202 -13 -15 -12 -18 11 -23 16 -4 32 -20 41 -40 33 -68 14
-89 -41 -48 -51 37 -75 68 -95 121 -18 48 -15 64 22 97 12 11 40 46 62 78 40
59 58 71 58 38z m-1480 -188 c0 -41 -26 -181 -66 -360 -46 -205 -103 -523
-114 -643 -6 -52 -11 -105 -13 -117 l-4 -23 931 -2 c512 -1 1002 -2 1089 -1
86 0 157 -4 157 -8 0 -8 -358 -15 -502 -9 l-56 2 -6 -54 c-4 -29 -5 -97 -3
-150 1 -59 -1 -94 -7 -91 -5 4 -7 -1 -3 -10 3 -9 2 -27 -3 -39 -8 -21 -15 -10
-11 16 3 15 -10 46 -20 46 -5 0 -9 -9 -9 -21 0 -12 4 -17 11 -13 7 4 9 0 5
-14 -4 -11 -2 -23 3 -26 6 -4 8 -14 5 -24 -4 -9 3 -3 15 13 24 35 29 16 5 -20
-9 -14 -12 -25 -6 -25 6 0 12 6 15 13 2 6 3 -4 2 -23 -1 -19 2 -47 7 -63 9
-23 13 -26 27 -15 13 10 14 10 4 -2 -19 -21 -16 -40 5 -34 11 4 13 3 5 -3 -12
-8 2 -61 38 -143 47 -106 58 -142 49 -166 -9 -24 -28 -28 -135 -27 -9 0 -12
-46 -7 -83 1 -8 59 -14 170 -20 l167 -9 -180 -6 c-99 -4 -628 -7 -1177 -8
l-996 -1 -11 -30 c-7 -22 -7 -29 0 -24 8 4 7 0 0 -14 -19 -35 -40 -50 -61 -45
-29 8 -25 40 8 51 17 7 21 11 10 11 -19 1 -26 31 -8 31 6 0 10 5 10 10 0 7
-272 10 -792 11 -436 1 -872 4 -968 8 l-175 6 133 8 c113 6 135 10 152 27 11
11 17 20 13 20 -5 1 2 9 14 19 19 16 20 20 7 25 -9 3 -20 4 -25 0 -5 -3 -9 0
-9 5 0 6 5 11 10 11 6 0 10 6 10 14 0 9 -9 12 -27 8 -27 -4 -28 -4 -8 12 20
17 20 17 -5 10 -14 -3 -36 -13 -50 -21 l-25 -14 25 7 c14 4 21 3 17 -2 -4 -4
-18 -9 -30 -9 -12 -1 -49 -7 -82 -14 -88 -20 -198 -10 -269 24 -104 49 -165
128 -197 255 -49 192 8 375 144 465 93 61 243 83 351 50 26 -8 53 -12 59 -8 5
3 7 1 4 -4 -4 -6 0 -14 9 -17 8 -3 12 -2 9 4 -3 6 -2 10 4 10 5 0 12 -9 16
-19 3 -11 13 -22 22 -26 14 -5 13 -2 -3 16 l-19 22 25 -14 c14 -8 28 -18 32
-24 4 -5 10 -6 15 -2 4 5 1 12 -7 17 -13 8 -12 12 5 25 14 10 15 13 4 9 -22
-7 -31 19 -19 52 13 33 5 46 -28 44 -15 -1 -94 -1 -177 1 l-150 2 130 8 c72 3
518 7 993 8 816 1 863 2 861 19 -3 22 10 81 24 107 6 11 12 36 13 55 1 19 3
37 4 40 1 3 2 9 1 14 -1 4 9 17 21 28 l23 20 -29 -8 c-21 -5 -27 -4 -22 5 11
17 -4 36 -16 20 -9 -13 -7 -2 9 54 4 16 2 17 -15 8 -25 -13 -35 -14 -28 -2 3
5 -1 12 -10 15 -8 3 -12 10 -9 16 4 6 10 8 15 5 9 -5 -4 38 -28 94 -9 23 -11
36 -4 43 8 8 4 16 -11 28 -18 15 -19 20 -8 34 11 13 17 14 30 4 13 -10 14 -10
4 1 -6 7 -9 20 -6 27 3 8 0 14 -7 14 -6 0 -8 -4 -5 -10 3 -5 2 -10 -3 -10 -5
0 -9 12 -9 26 0 16 4 23 12 20 10 -4 13 11 12 64 -1 38 -6 66 -11 62 -5 -3 -7
5 -4 16 4 13 1 22 -5 23 -8 0 -8 2 1 6 6 2 12 9 12 14 0 6 -5 7 -10 4 -7 -4
-9 2 -4 19 4 17 2 26 -6 26 -7 0 -10 8 -7 20 6 22 -17 118 -31 132 -5 5 -7 18
-5 28 7 25 70 37 233 44 69 4 181 15 250 25 69 11 162 19 208 20 l82 1 0 -27z
m1324 -29 c16 -45 57 -101 85 -116 13 -7 37 -31 53 -52 31 -44 39 -75 8 -36
-16 20 -20 22 -20 8 0 -23 -18 -23 -42 -1 -14 13 -21 14 -30 5 -11 -11 -5 -15
22 -14 3 0 11 -6 18 -14 17 -19 -4 -19 -50 1 -33 13 -37 13 -58 -7 -14 -13
-19 -23 -12 -26 7 -2 19 4 28 12 8 9 19 16 23 16 12 0 36 -23 54 -53 15 -23
16 -31 5 -50 l-13 -22 -3 27 c-3 27 -27 45 -37 28 -4 -6 -1 -10 5 -10 6 0 8
-4 5 -10 -3 -5 -3 -10 2 -10 4 0 13 -11 20 -25 16 -36 0 -31 -31 10 -15 19
-36 40 -48 46 -23 12 -21 7 16 -43 11 -15 17 -30 14 -33 -7 -8 -43 42 -52 73
-5 15 -15 22 -31 22 -13 0 -27 5 -30 10 -3 6 -15 10 -26 10 -10 0 -19 4 -19 9
0 13 43 22 54 11 16 -16 44 -12 55 8 7 14 6 18 -9 19 -13 1 -17 -3 -13 -14 4
-11 2 -14 -5 -9 -7 4 -12 16 -12 27 0 12 4 17 11 14 6 -4 5 3 -3 14 -11 18
-11 23 2 31 8 6 22 9 31 6 9 -2 21 5 27 15 16 25 15 38 -1 19 -14 -17 -48 -20
-59 -5 -9 12 1 82 14 108 6 11 5 17 -2 17 -6 0 -8 5 -5 11 13 20 48 4 59 -27z
m1493 -8 c-30 -25 -37 -45 -25 -68 13 -26 26 -22 69 17 39 35 73 49 49 20 -6
-8 -9 -19 -5 -25 3 -5 -1 -13 -9 -16 -9 -3 -13 -11 -10 -16 4 -6 -1 -6 -13 1
-16 8 -27 5 -53 -14 -52 -39 -71 -73 -63 -119 5 -34 4 -38 -10 -33 -10 4 -17
2 -17 -3 0 -6 20 -10 44 -10 31 0 53 7 73 23 15 12 47 35 71 51 l42 29 151 -7
c159 -7 255 -21 277 -38 21 -17 14 -56 -13 -74 -17 -11 -35 -14 -57 -10 -18 4
-46 8 -63 10 -16 1 -42 6 -57 10 -16 5 -36 5 -45 1 -27 -10 -153 -13 -153 -3
0 5 -11 6 -25 2 -17 -4 -25 -2 -25 6 0 12 -28 39 -42 40 -4 0 -10 -9 -13 -21
-4 -11 -12 -18 -18 -16 -19 7 -85 -31 -103 -57 -12 -19 -13 -32 -6 -59 12 -42
6 -52 -33 -61 -22 -5 -26 -4 -15 4 13 8 13 10 -2 10 -12 0 -18 8 -18 23 0 12
-6 34 -14 49 -12 23 -12 29 2 49 15 22 17 61 6 101 -3 9 8 31 25 50 31 36 39
62 26 92 -7 15 -1 26 25 48 19 15 40 28 47 28 7 0 13 8 14 18 0 12 2 13 6 3 3
-7 -6 -23 -20 -35z m391 -322 c12 -8 22 -23 22 -33 0 -23 -26 -46 -35 -32 -7
12 -55 11 -55 -1 0 -4 12 -8 27 -8 34 0 21 -14 -28 -29 -38 -12 -86 -2 -101
22 -6 9 -8 9 -9 0 -1 -7 -2 -19 -3 -25 -1 -8 -13 -12 -34 -10 -24 2 -32 -1
-32 -12 0 -23 -43 -20 -65 4 -26 28 -10 43 85 75 66 23 186 61 200 64 3 0 16
-6 28 -15z m-1907 -45 c26 -24 36 -38 24 -34 -37 12 -56 14 -50 5 4 -6 24 -13
45 -16 59 -10 67 -25 41 -82 -29 -62 -35 -99 -20 -134 6 -16 8 -43 5 -64 -7
-33 -9 -35 -24 -21 -9 8 -23 12 -30 10 -7 -3 -24 7 -37 21 -13 14 -29 26 -35
26 -5 0 -10 4 -10 9 0 5 -10 13 -22 17 -22 7 -22 7 -3 15 19 7 19 8 1 8 -10 1
-29 13 -43 27 -21 23 -23 32 -18 87 9 96 8 96 73 99 53 3 55 4 32 16 -23 11
-22 12 15 7 37 -5 38 -5 16 7 -14 7 -26 19 -29 26 -8 25 27 11 69 -29z m1887
-417 c2 -14 -2 -22 -11 -22 -23 0 -28 12 -9 27 15 11 13 12 -11 1 -31 -13 -31
-31 1 -36 12 -2 22 -8 22 -13 0 -18 18 -8 24 13 4 18 8 20 18 10 9 -9 8 -15
-6 -25 -13 -10 -15 -18 -8 -37 5 -14 6 -34 1 -45 l-8 -20 -1 20 c-1 11 -4 14
-7 8 -2 -7 -10 -13 -16 -13 -17 0 -17 -48 0 -54 17 -7 8 -26 -14 -26 -21 0
-75 -59 -71 -79 2 -8 14 -22 28 -29 l25 -14 -30 7 c-16 3 -36 13 -42 22 -14
19 -14 18 -15 -49 0 -34 -4 -48 -14 -48 -8 0 -13 3 -13 8 3 20 -3 32 -20 41
-26 14 -91 -5 -91 -26 0 -13 -3 -14 -12 -5 -19 19 -105 15 -117 -5 -10 -17
-10 -17 -11 0 0 10 -4 15 -10 12 -10 -6 -14 37 -5 47 4 3 24 2 46 -3 31 -7 45
-6 62 6 19 13 17 20 -6 16 -13 -2 -2 22 12 27 7 2 15 -5 18 -17 6 -23 7 -24
52 -15 17 4 31 11 31 17 0 5 -12 7 -29 4 -19 -4 -33 -1 -41 8 -10 13 -8 15 16
16 29 1 79 5 101 8 6 0 19 8 28 18 14 14 18 14 26 2 7 -12 9 -11 9 1 0 9 -6
22 -12 29 -11 10 -10 11 3 6 9 -3 22 1 29 9 7 9 16 13 21 10 5 -3 9 0 9 5 0
14 -13 14 -28 -1 -9 -9 -15 -9 -23 -1 -8 8 -5 13 10 18 12 3 21 12 21 20 0 7
2 19 3 27 2 7 2 10 0 6 -3 -5 -8 -8 -12 -8 -13 0 -7 69 6 74 9 4 10 12 3 30
-8 22 -6 26 18 35 36 12 46 9 50 -17z m-1093 -426 c99 -26 171 -80 209 -155
55 -107 42 -141 -52 -141 -68 0 -75 4 -95 53 -33 77 -101 114 -195 104 -66 -7
-115 -42 -149 -108 -21 -39 -23 -55 -20 -144 4 -115 23 -166 81 -210 37 -28
111 -42 169 -31 48 9 101 63 123 124 19 54 31 62 94 62 89 0 101 -21 71 -118
-35 -113 -110 -188 -224 -224 -178 -55 -379 21 -458 174 -50 97 -64 271 -30
371 31 91 96 172 166 211 78 42 217 57 310 32z m1063 -7 c-10 -5 -18 -21 -18
-33 0 -27 -20 -49 -179 -190 -61 -54 -111 -100 -111 -101 0 -1 70 -91 155
-200 85 -108 155 -203 155 -210 0 -32 -31 -45 -104 -45 -86 0 -75 -9 -226 190
-56 74 -105 135 -109 135 -4 0 -22 -12 -39 -27 l-32 -27 0 -120 c0 -146 -3
-151 -94 -151 -39 0 -67 5 -74 13 -6 7 -12 158 -17 373 -8 419 -14 394 89 394
35 0 67 -5 74 -12 8 -8 12 -55 12 -146 l0 -134 43 37 c23 21 91 85 150 144
l109 106 106 6 c59 3 112 6 117 7 6 1 2 -3 -7 -9z m-7055 -31 c13 -18 86 -124
161 -236 l136 -204 0 220 c0 257 -2 252 88 252 31 0 64 -5 72 -10 13 -8 16
-63 20 -362 4 -235 2 -361 -5 -378 -9 -23 -16 -25 -80 -28 -39 -1 -75 1 -81 5
-10 8 -65 87 -242 348 -41 61 -79 115 -85 120 -6 6 -8 -69 -4 -212 6 -265 6
-263 -82 -263 -31 0 -64 6 -73 13 -14 10 -17 61 -23 373 -7 424 -15 394 100
394 72 0 75 -1 98 -32z m803 24 c21 -13 23 -46 26 -400 2 -304 1 -354 -12
-362 -19 -12 -130 -13 -149 -1 -11 7 -15 79 -19 376 -5 349 -4 369 13 382 20
14 122 18 141 5z"/>
<path d="M7136 6198 c-11 -6 -38 -12 -60 -14 -37 -2 -101 -13 -165 -28 -23 -5
-40 -22 -41 -38 0 -3 11 -20 25 -36 14 -17 25 -34 25 -39 0 -19 38 -53 58 -53
39 0 52 11 46 36 -5 19 -2 24 12 24 15 0 16 -2 5 -9 -12 -8 -13 -12 -1 -26 20
-24 72 -16 85 13 7 16 16 21 30 18 11 -3 30 -9 43 -12 13 -4 22 -2 22 4 0 19
-64 61 -105 70 -36 7 -37 8 -21 25 10 9 35 20 57 23 39 7 65 24 35 24 -9 0
-16 7 -16 15 0 18 -8 18 -34 3z"/>
<path d="M11246 6082 c-8 -13 21 -66 58 -105 20 -21 36 -42 36 -47 0 -21 53
-1 56 21 1 5 2 14 3 19 2 19 21 10 21 -9 0 -11 5 -23 10 -26 17 -10 70 5 70
21 0 19 6 18 47 -7 26 -16 37 -19 46 -10 8 8 8 11 0 11 -7 0 -14 8 -17 18 -4
10 -22 26 -41 35 -19 9 -35 21 -35 26 0 14 42 0 64 -21 11 -10 26 -16 33 -14
7 3 13 1 13 -4 0 -6 8 -10 18 -9 10 0 12 3 5 6 -7 2 -13 9 -13 14 0 16 -43 59
-60 59 -9 0 -20 3 -23 7 -8 7 -12 8 -131 17 -55 5 -82 3 -86 -5 -6 -8 -13 -8
-28 0 -24 13 -39 14 -46 3z"/>
<path d="M9139 5901 c-15 -15 -30 -41 -34 -59 -6 -28 -4 -32 19 -38 16 -4 23
-11 19 -20 -7 -19 16 -18 39 3 16 14 18 14 18 1 0 -12 12 -17 44 -19 32 -3 42
-1 39 9 -3 6 0 12 6 12 6 0 11 -4 11 -9 0 -12 62 -23 73 -12 10 10 -84 58
-133 68 -66 13 -39 40 49 49 33 4 61 11 61 16 0 6 -7 8 -15 4 -8 -3 -33 1 -56
9 -65 23 -110 19 -140 -14z"/>
<path d="M6104 1800 c-71 -28 -134 -86 -169 -156 -52 -102 -47 -301 10 -400
37 -64 101 -121 161 -144 75 -28 203 -28 278 0 92 35 167 125 182 219 l7 41
-52 0 c-40 0 -53 -4 -58 -17 -37 -113 -89 -155 -195 -161 -122 -7 -208 49
-239 156 -19 63 -17 217 3 262 40 93 112 139 217 140 103 0 177 -46 196 -123
7 -25 11 -27 61 -27 60 0 64 6 40 64 -21 50 -74 104 -130 134 -44 22 -66 26
-156 29 -87 3 -114 0 -156 -17z"/>
<path d="M7568 1802 l-28 -3 0 -334 c0 -183 3 -340 6 -349 5 -14 40 -16 286
-16 l279 0 -3 38 -3 37 -220 2 -220 2 -9 116 c-5 63 -6 119 -2 122 6 6 152 11
394 13 7 0 12 14 12 35 l0 35 -189 0 c-104 0 -196 3 -205 6 -13 5 -16 25 -16
110 l0 104 215 0 215 0 10 25 c20 54 19 54 -248 57 -136 2 -259 2 -274 0z"/>
<path d="M6760 1450 l0 -350 60 0 61 0 -2 124 -2 124 38 34 c21 18 45 39 53
47 12 13 17 11 33 -10 11 -13 65 -84 122 -158 56 -73 107 -139 112 -146 13
-16 24 -18 98 -16 l58 1 -78 100 c-43 55 -87 113 -98 128 -11 15 -48 62 -83
105 -34 43 -62 82 -62 87 0 5 6 13 14 17 7 4 58 49 112 99 55 50 117 107 139
127 l40 36 -78 1 -78 0 -172 -162 -172 -163 -3 163 -2 162 -55 0 -55 0 0 -350z"/>
<path d="M8310 1793 c-4 -57 2 -668 7 -678 4 -13 44 -15 249 -15 l244 0 0 34
0 34 -182 4 c-101 1 -189 7 -195 11 -10 6 -13 80 -13 313 l0 304 -55 0 c-30 0
-55 -3 -55 -7z"/>
<path d="M8943 1618 c4 -99 7 -257 7 -350 l0 -168 203 0 c228 0 271 8 327 63
18 18 39 46 46 64 18 42 18 117 0 152 -15 28 -74 85 -96 93 -7 2 2 18 23 39
43 43 55 94 38 159 -15 54 -42 86 -96 111 -35 16 -67 19 -249 19 l-209 0 6
-182z m385 91 c66 -23 78 -125 21 -173 -23 -19 -45 -25 -111 -31 -46 -4 -103
-5 -128 -3 l-45 4 -3 107 -3 107 119 0 c66 0 133 -5 150 -11z m35 -305 c42
-20 62 -53 62 -104 0 -48 -19 -82 -55 -103 -23 -14 -55 -17 -169 -17 l-141 0
0 118 c0 65 3 122 7 125 13 14 261 -2 296 -19z"/>
<path d="M9917 1763 c-9 -21 -69 -173 -133 -338 -63 -165 -118 -306 -121 -312
-4 -10 11 -13 55 -13 l60 0 32 93 c18 50 37 97 42 104 9 12 228 18 271 8 18
-5 29 -26 57 -103 l35 -97 64 -3 c49 -2 62 0 58 10 -5 13 -145 357 -233 576
l-46 112 -63 0 -62 0 -16 -37z m133 -233 c28 -73 47 -136 44 -141 -9 -15 -194
-11 -200 4 -4 11 75 241 93 270 8 13 12 6 63 -133z"/>
<path d="M6182 1702 c-39 -12 -89 -60 -110 -104 -23 -50 -29 -153 -12 -235 20
-94 97 -153 200 -153 44 0 106 31 102 50 -2 8 -1 12 3 8 14 -14 61 54 50 72
-3 6 -1 10 4 10 6 0 11 6 11 14 0 22 30 47 50 41 20 -6 56 5 42 14 -15 10 18
101 34 94 8 -3 14 0 14 6 0 6 -18 11 -43 11 -45 0 -114 31 -109 49 4 21 -27
69 -63 96 -26 20 -49 28 -92 31 -32 2 -68 0 -81 -4z"/>
<path d="M10664 1799 c-71 -27 -129 -81 -167 -153 -31 -60 -32 -64 -32 -191 0
-122 2 -134 28 -187 34 -69 97 -134 157 -162 37 -17 64 -21 160 -21 100 0 120
3 157 23 84 44 163 153 163 225 0 26 -2 27 -50 27 -39 0 -52 -4 -57 -17 -22
-68 -49 -108 -91 -134 -40 -25 -56 -29 -116 -29 -149 1 -227 79 -242 246 -18
191 74 314 235 314 102 0 173 -43 196 -120 10 -33 16 -36 69 -32 53 5 56 14
26 78 -29 58 -65 92 -135 125 -53 26 -71 29 -155 28 -69 0 -109 -5 -146 -20z"/>
<path d="M11319 1788 c-1 -7 -1 -16 0 -20 0 -4 1 -155 1 -337 1 -197 5 -331
10 -333 6 -2 33 -1 61 1 l52 3 -6 117 -5 116 55 54 c55 53 56 54 72 33 9 -11
63 -82 121 -157 58 -75 110 -144 117 -152 15 -19 78 -27 120 -16 l32 8 -90
115 c-49 63 -97 124 -106 135 -49 59 -123 158 -123 165 0 5 4 10 9 12 5 2 55
46 112 99 57 53 122 113 144 133 l40 36 -78 0 -78 0 -172 -162 -172 -163 -3
163 -2 162 -55 0 c-37 0 -55 -4 -56 -12z"/>
<path d="M4766 1802 c-16 -3 -18 -10 -12 -49 3 -25 6 -182 6 -349 0 -338 -6
-313 72 -306 l38 4 2 269 3 269 180 -262 c99 -143 185 -266 191 -272 6 -6 35
-10 67 -8 l57 4 0 182 c0 101 -3 258 -7 349 l-6 167 -54 0 -53 0 7 -267 c5
-235 4 -267 -8 -256 -9 7 -94 130 -190 273 l-174 261 -50 -3 c-27 -1 -58 -4
-69 -6z"/>
<path d="M5603 1588 c4 -116 7 -273 7 -350 l0 -138 55 0 55 0 0 198 c0 110 -3
267 -7 350 l-6 152 -55 0 -55 0 6 -212z"/>
<path d="M935 6786 c-71 -18 -149 -42 -171 -54 -113 -58 -181 -244 -121 -333
24 -36 35 -40 212 -80 l100 -22 -50 -12 c-76 -18 -226 -98 -253 -135 -32 -43
-56 -197 -47 -300 11 -127 65 -193 215 -263 104 -48 141 -52 404 -42 l196 7 0
40 0 40 -217 -4 -218 -3 -86 41 c-99 48 -156 95 -190 158 -22 42 -23 49 -13
128 14 113 33 137 154 198 82 41 119 52 255 79 210 41 195 35 195 82 l0 39
-74 0 c-90 0 -460 81 -489 107 -44 41 29 162 123 202 68 29 288 81 344 81 l46
0 0 40 0 40 -92 -1 c-70 0 -125 -8 -223 -33z m405 -1196 l0 -30 -62 0 c-35 0
-107 -3 -160 -7 l-98 -6 0 31 0 31 108 4 c59 1 131 4 160 5 52 2 52 2 52 -28z"/>
<path d="M2060 6720 c0 -22 1 -40 3 -40 1 0 160 -20 352 -45 193 -25 376 -45
408 -45 31 0 57 -4 57 -10 0 -5 -23 -35 -51 -66 -54 -59 -100 -128 -142 -209
-14 -27 -59 -90 -99 -138 -41 -49 -96 -125 -123 -170 -27 -45 -66 -105 -87
-134 -31 -42 -38 -61 -38 -98 l0 -45 38 0 c20 0 307 -7 637 -15 330 -8 673
-15 763 -15 l162 0 0 40 0 40 -122 0 c-68 0 -393 7 -723 15 -330 8 -605 15
-612 15 -8 0 -4 13 10 34 106 164 146 221 200 287 34 42 82 113 106 158 24 44
67 107 96 138 71 80 85 109 85 188 l0 65 -67 0 c-38 0 -225 20 -418 45 -192
25 -369 45 -392 45 l-43 0 0 -40z m395 -20 c327 -41 305 -36 305 -66 0 -23 -3
-24 -32 -19 -28 4 -576 75 -585 75 -2 0 -3 12 -3 26 0 24 2 25 38 20 20 -3
145 -19 277 -36z m535 -925 c162 -3 384 -8 493 -11 l197 -7 0 -29 0 -29 -177
6 c-172 6 -984 25 -1051 25 l-33 0 23 31 23 30 115 -5 c63 -3 248 -8 410 -11z"/>
<path d="M1507 4576 c-75 -52 -94 -74 -111 -126 -19 -57 -20 -180 -3 -229 18
-50 141 -120 214 -120 59 -1 134 28 203 78 24 17 46 31 51 31 4 0 30 -45 59
-100 l51 -100 39 0 40 0 0 41 c0 32 -17 74 -70 178 -38 75 -77 162 -86 193
-18 62 -41 78 -110 78 -33 0 -34 -1 -34 -43 0 -31 9 -57 30 -90 17 -26 30 -50
30 -52 0 -8 -156 -106 -177 -111 -15 -4 -44 6 -85 28 -77 42 -93 76 -71 142 8
22 22 49 31 60 22 24 128 96 141 96 6 0 11 18 11 40 l0 40 -52 -1 c-43 0 -62
-6 -101 -33z"/>
<path d="M2920 4571 c-17 -10 -200 -52 -346 -80 -55 -10 -125 -30 -155 -44
-30 -14 -72 -27 -94 -29 -40 -3 -40 -3 -43 -49 -3 -46 -2 -47 46 -78 28 -17
83 -41 123 -52 41 -10 114 -34 163 -51 l89 -31 -47 -24 c-38 -19 -258 -78
-511 -135 l-60 -14 -3 -42 c-3 -42 -3 -42 30 -42 36 0 213 38 438 95 132 33
274 91 293 119 4 6 6 31 5 55 l-3 43 -90 34 c-49 19 -135 48 -190 64 -55 16
-92 29 -82 29 9 1 17 7 17 15 0 21 63 42 196 66 130 23 263 54 307 72 23 9 27
16 27 49 l0 39 -47 0 c-27 0 -55 -4 -63 -9z"/>
<path d="M2220 3200 c-96 -4 -227 -15 -290 -24 -240 -35 -417 -67 -475 -86
-33 -10 -76 -22 -95 -25 -61 -11 -70 -16 -70 -36 0 -12 -7 -19 -20 -19 -33 0
-30 -32 40 -395 57 -291 68 -386 75 -595 5 -185 51 -643 86 -862 l11 -68 40 0
41 0 -6 73 c-3 39 -23 218 -45 397 -29 232 -42 385 -47 535 -6 210 -28 382
-75 595 -10 47 -24 121 -30 165 -6 44 -13 87 -16 96 -3 12 10 18 63 28 38 6
95 20 128 31 33 11 128 31 210 44 301 50 446 65 710 71 l260 7 37 -78 c21 -44
38 -92 39 -109 5 -83 3 -85 -138 -248 l-138 -157 -185 -113 c-102 -62 -214
-133 -250 -157 -53 -37 -112 -61 -317 -130 l-253 -84 0 -38 0 -38 48 0 c33 0
122 26 297 85 201 68 262 93 310 127 33 23 143 93 245 155 l185 113 137 157
137 156 7 65 c12 119 -1 211 -43 296 l-37 76 -201 -2 c-110 -1 -279 -5 -375
-8z m440 -30 l0 -30 -83 0 c-46 0 -152 -3 -235 -7 l-152 -6 0 31 0 31 143 4
c78 1 184 4 235 5 l92 2 0 -30z"/>
</g>
</svg>
