<?xml version="1.0" standalone="no"?>
<!DOCTYPE svg PUBLIC "-//W3C//DTD SVG 20010904//EN"
 "http://www.w3.org/TR/2001/REC-SVG-20010904/DTD/svg10.dtd">
<svg version="1.0" xmlns="http://www.w3.org/2000/svg"
 width="1024.000000pt" height="1091.000000pt" viewBox="0 0 1024.000000 1091.000000"
 preserveAspectRatio="xMidYMid meet">
<metadata>
Created by potrace 1.16, written by Peter Selinger 2001-2019
</metadata>
<g transform="translate(0.000000,1091.000000) scale(0.100000,-0.100000)"
fill="#000000" stroke="none">
<path d="M0 5455 l0 -5455 5120 0 5120 0 0 5455 0 5455 -5120 0 -5120 0 0
-5455z m7183 5338 c10 -9 -43 -34 -57 -26 -6 3 -3 -3 7 -15 18 -20 18 -20 -2
-15 -17 4 -20 2 -15 -11 5 -12 2 -15 -12 -9 -14 5 -16 3 -11 -12 6 -15 5 -16
-8 -5 -13 11 -19 11 -32 -3 -15 -15 -14 -16 8 -11 23 5 23 5 4 -7 -11 -7 -28
-21 -38 -30 -11 -10 -26 -15 -33 -12 -10 3 -12 0 -8 -10 3 -10 -2 -20 -15 -27
-11 -6 -20 -16 -18 -23 1 -7 -6 -11 -16 -10 -12 1 -22 -9 -29 -29 -9 -25 -14
-29 -37 -23 -14 3 -21 2 -14 -2 8 -6 7 -17 -4 -43 -8 -19 -17 -29 -20 -22 -6
17 -33 15 -33 -2 0 -8 3 -16 8 -19 4 -2 1 -2 -6 0 -8 2 -16 -6 -19 -16 -3 -11
-11 -22 -19 -25 -8 -3 -14 -12 -14 -21 0 -8 -7 -15 -16 -15 -9 0 -12 -5 -8
-12 5 -7 3 -8 -5 -4 -8 5 -14 1 -18 -12 -5 -21 -49 -46 -64 -37 -5 4 -5 -6 1
-22 9 -25 8 -26 -4 -10 -18 24 -29 21 -23 -5 5 -18 0 -26 -18 -35 -20 -9 -25
-8 -25 2 0 8 -4 17 -10 20 -6 3 -7 -1 -4 -10 4 -9 -1 -24 -10 -34 -9 -10 -15
-24 -13 -32 2 -8 2 -11 0 -6 -3 4 -20 7 -39 7 -20 0 -33 -4 -30 -9 3 -5 -1
-14 -9 -21 -19 -16 -79 24 -70 48 4 12 3 13 -10 2 -9 -7 -13 -21 -10 -31 4
-11 2 -19 -4 -19 -5 0 -11 8 -13 17 -3 15 -4 15 -20 0 -11 -11 -19 -13 -23 -6
-5 7 -13 5 -25 -6 -14 -12 -20 -13 -26 -4 -5 9 -9 7 -15 -8 -6 -17 -15 -20
-47 -18 -31 2 -39 -1 -35 -12 4 -10 9 -11 19 -2 26 21 23 4 -3 -19 -14 -13
-23 -16 -20 -8 3 8 -1 17 -9 20 -9 3 -12 10 -9 16 3 5 -1 10 -9 10 -9 0 -16
-7 -16 -15 0 -8 -4 -15 -10 -15 -5 0 -10 6 -10 13 0 19 -75 16 -92 -3 -11 -13
-11 -13 2 -2 18 16 25 15 45 -4 9 -9 19 -13 23 -10 3 4 0 12 -8 17 -13 9 -13
10 0 6 8 -2 15 -10 15 -18 0 -10 -11 -13 -35 -12 -115 5 -140 9 -140 21 0 6 8
12 18 13 9 0 12 3 5 5 -6 3 -25 -2 -42 -10 -38 -20 -42 -20 -34 2 6 15 5 15
-11 3 -12 -10 -20 -11 -24 -4 -4 7 -34 11 -73 9 -50 -1 -65 2 -62 11 7 18 0
16 -44 -8 -21 -11 -30 -14 -20 -6 14 11 15 17 6 23 -7 4 -14 3 -17 -4 -2 -8
-8 -8 -22 0 -16 10 -27 8 -61 -11 -23 -13 -39 -19 -35 -12 12 20 -12 12 -34
-11 -11 -12 -20 -17 -20 -12 0 6 5 15 12 22 9 9 8 12 -4 12 -9 0 -24 -7 -33
-16 -9 -9 -19 -14 -22 -11 -3 4 8 14 26 24 17 10 31 21 31 26 0 11 -14 9 -28
-5 -8 -8 -15 -8 -26 1 -13 11 -18 10 -31 -3 -9 -9 -22 -16 -29 -16 -7 0 -23
-11 -36 -25 -13 -14 -28 -25 -34 -25 -6 0 4 14 22 30 18 17 37 30 43 30 5 0 9
5 9 10 0 15 -26 12 -40 -5 -7 -8 -16 -15 -21 -15 -5 0 -9 7 -9 15 0 8 -5 15
-11 15 -7 0 -9 -9 -6 -21 4 -13 -2 -29 -14 -42 -10 -11 -19 -17 -19 -12 0 5 7
16 15 25 14 16 14 18 -5 23 -11 3 -18 1 -15 -3 3 -5 1 -11 -5 -15 -5 -3 -10
-1 -10 5 0 7 -6 10 -12 7 -7 -2 -12 -11 -10 -19 1 -8 -7 -23 -18 -33 -23 -21
-27 -9 -5 15 14 15 14 18 0 30 -13 11 -19 10 -37 -6 -19 -17 -21 -17 -15 -1 7
20 -13 23 -31 5 -10 -10 -15 -10 -22 2 -7 10 -12 12 -17 4 -10 -14 -53 -29
-75 -25 -10 1 -18 -3 -18 -9 0 -17 -30 -44 -38 -35 -4 4 -1 10 6 12 18 7 15
43 -4 43 -9 0 -12 5 -8 12 4 7 3 8 -5 4 -6 -4 -9 -17 -6 -29 2 -12 2 -16 -1
-9 -3 6 -12 12 -19 12 -7 0 -15 6 -18 13 -2 7 -8 8 -13 3 -5 -5 -4 -11 4 -13
17 -6 15 -23 -3 -23 -8 0 -15 5 -15 12 0 6 -3 8 -7 4 -5 -4 -8 -17 -8 -29 0
-11 -7 -22 -15 -24 -11 -3 -12 -2 -3 4 13 10 -7 33 -39 45 -12 5 -14 2 -10
-15 5 -21 5 -21 -12 -4 -29 28 -44 22 -27 -11 6 -13 1 -23 -20 -40 -16 -13
-29 -19 -29 -14 0 5 7 15 15 22 8 7 12 17 9 22 -9 13 -55 0 -71 -20 -11 -16
-12 -16 -13 -1 0 9 -7 19 -14 22 -10 4 -13 1 -10 -7 3 -7 -3 -19 -12 -27 -13
-11 -18 -11 -21 -1 -6 17 -30 15 -37 -4 -4 -9 -4 -19 -1 -22 3 -3 5 0 5 6 0 7
7 12 15 12 8 0 15 -3 15 -6 0 -11 -63 -65 -69 -59 -3 3 1 10 9 15 8 5 15 23
15 39 0 23 -3 27 -13 19 -7 -6 -12 -18 -10 -27 2 -8 -7 -26 -19 -40 -13 -13
-23 -30 -23 -38 0 -8 -4 -11 -10 -8 -5 3 -10 -1 -10 -9 0 -9 -4 -16 -10 -16
-5 0 -10 5 -10 11 0 6 -7 18 -16 27 -15 15 -18 14 -30 -3 -8 -10 -11 -21 -8
-24 3 -3 9 1 13 8 6 9 11 10 15 2 4 -6 1 -11 -6 -11 -10 0 -10 -2 1 -9 12 -8
11 -12 -4 -27 -17 -17 -17 -17 -11 4 4 13 3 22 -3 22 -5 0 -17 7 -26 16 -15
15 -17 15 -32 -6 -12 -17 -17 -19 -25 -9 -5 9 -6 1 -2 -22 4 -23 2 -39 -6 -44
-16 -10 -26 3 -12 17 17 17 15 28 -4 21 -9 -3 -20 0 -24 7 -6 9 -11 7 -20 -10
-11 -21 -10 -22 9 -17 13 3 19 1 15 -5 -4 -6 -22 -8 -40 -5 -19 3 -36 1 -39
-4 -4 -5 3 -9 14 -9 12 0 21 -4 21 -10 0 -5 -5 -10 -11 -10 -6 0 -8 -9 -4 -21
6 -19 4 -20 -25 -14 l-31 7 5 -39 c4 -30 4 -33 -3 -13 l-9 25 -7 -22 c-9 -28
-25 -31 -18 -3 6 21 1 23 -34 14 -13 -4 -23 -13 -23 -20 0 -8 -5 -14 -11 -14
-6 0 -8 -9 -4 -20 4 -11 2 -20 -4 -20 -6 0 -11 9 -11 20 0 13 -7 20 -20 20
-11 0 -20 -7 -20 -16 0 -8 5 -12 10 -9 6 3 10 2 10 -3 0 -6 -7 -13 -16 -16 -8
-3 -12 -2 -9 4 4 6 -10 10 -34 10 -23 0 -41 -4 -41 -10 0 -5 9 -10 21 -10 30
0 18 -24 -14 -28 -22 -3 -27 1 -27 17 0 12 -4 21 -10 21 -13 0 -13 -16 -1 -39
6 -11 6 -22 0 -32 -8 -11 -12 -11 -16 -1 -2 7 -13 17 -23 22 -15 8 -17 6 -14
-8 3 -10 -4 -22 -16 -30 -12 -7 -20 -8 -20 -2 0 5 -10 10 -22 10 -19 0 -20 -2
-8 -11 11 -8 12 -12 2 -16 -6 -2 -10 -8 -7 -13 3 -4 -4 -6 -15 -3 -13 3 -22
-1 -26 -11 -4 -11 -13 -15 -25 -11 -13 4 -19 1 -19 -9 0 -10 -9 -16 -24 -16
-14 0 -28 -4 -31 -10 -3 -5 -22 -10 -41 -10 -19 0 -34 -5 -34 -10 0 -21 30
-21 87 -2 76 26 236 56 268 50 14 -3 28 -1 31 3 3 5 21 9 41 9 57 0 30 -15
-34 -19 -7 -1 -13 -13 -13 -28 1 -27 1 -27 16 -8 l15 20 12 -20 c11 -19 12
-19 17 6 5 24 7 25 40 15 l35 -10 -35 -6 -35 -6 38 -7 c24 -5 43 -4 51 3 14
11 46 4 46 -11 0 -5 -9 -9 -20 -9 -11 0 -20 -4 -20 -10 0 -5 -7 -10 -16 -10
-8 0 -12 -5 -8 -11 4 -8 9 -8 17 0 6 6 18 11 26 11 28 0 -4 -20 -37 -24 -38
-4 -56 -16 -25 -16 12 0 23 -6 26 -14 3 -8 23 -17 44 -19 l38 -4 -42 -1 c-24
-1 -43 3 -43 8 0 6 -7 10 -15 10 -18 0 -20 -16 -2 -23 6 -3 4 -6 -7 -6 -10 -1
-24 -8 -30 -17 -8 -10 -32 -17 -70 -19 -40 -2 -65 -10 -80 -23 -11 -11 -37
-20 -56 -21 -56 -3 -74 -7 -95 -18 -11 -6 -41 -14 -67 -18 -29 -4 -45 -11 -41
-18 3 -5 1 -7 -4 -4 -11 7 -55 -5 -110 -29 -17 -8 -34 -14 -38 -14 -17 0 -315
-144 -372 -181 -23 -14 -39 -30 -35 -34 4 -5 2 -6 -3 -2 -6 3 -40 -14 -75 -39
-36 -24 -71 -44 -78 -44 -7 0 -18 -11 -24 -25 -6 -14 -15 -25 -20 -25 -6 0
-34 -24 -63 -54 -30 -30 -57 -51 -61 -47 -4 3 -4 1 0 -6 4 -7 -10 -27 -34 -49
-22 -20 -37 -40 -35 -44 7 -11 -31 -51 -39 -43 -4 4 -4 -1 -1 -12 6 -18 5 -18
-5 -2 -12 19 -4 41 11 31 6 -3 9 0 8 7 -5 21 21 60 33 53 7 -4 8 -3 4 4 -7 12
51 132 64 132 4 0 7 6 7 13 0 16 33 67 43 67 4 0 10 10 14 22 5 22 6 23 21 3
16 -19 16 -19 5 3 -9 19 -8 27 6 43 9 10 21 16 27 12 6 -3 7 -1 3 6 -9 14 93
123 180 192 61 48 82 60 68 37 -4 -7 -3 -8 5 -4 6 4 9 11 6 16 -7 11 22 33 35
25 6 -4 9 -1 8 6 -2 6 3 14 11 17 9 3 11 0 6 -9 -5 -8 -4 -11 1 -6 5 5 9 14 9
20 0 7 7 12 15 12 8 0 29 23 47 50 20 30 41 50 53 51 30 2 32 3 25 14 -5 8
-11 7 -21 -1 -8 -7 -14 -7 -14 -1 0 15 26 33 35 24 5 -4 5 -1 1 6 -10 16 32
64 47 55 6 -3 7 -1 3 6 -10 15 13 43 28 34 6 -3 8 -3 4 2 -11 11 12 36 25 28
6 -4 7 -1 3 6 -11 17 26 44 37 28 5 -7 6 -3 2 9 -4 17 12 37 86 105 51 46 98
83 106 83 7 -1 11 2 8 6 -7 12 101 95 126 96 11 1 26 7 32 14 10 10 7 10 -13
0 -25 -13 -25 -13 -6 8 10 12 22 19 26 17 4 -3 14 2 21 11 18 22 68 46 80 39
5 -4 8 -1 7 7 -5 25 303 164 338 152 13 -4 15 -3 6 3 -8 6 33 24 130 55 176
56 269 79 334 81 27 1 51 5 54 8 8 10 348 39 459 39 56 0 216 -8 354 -17 276
-19 511 -22 742 -10 247 14 244 13 295 60 25 23 39 35 32 28 -6 -8 -12 -19
-12 -25 0 -5 6 -1 14 9 8 11 12 24 9 28 -5 9 37 43 48 40 4 -1 15 8 25 20 l19
22 -22 -19 c-13 -11 -23 -15 -23 -9 0 13 35 45 42 37 3 -3 5 3 5 13 -1 10 4
17 11 15 8 -1 11 2 7 8 -14 22 125 177 146 164 7 -4 9 -3 5 4 -8 13 82 76 198
138 86 46 89 48 99 37z m-2638 -1638 c228 -28 428 -89 581 -177 79 -45 210
-133 240 -162 38 -36 69 -57 154 -100 52 -27 109 -58 125 -69 227 -156 375
-314 474 -507 94 -186 149 -374 166 -570 3 -41 8 -88 10 -105 4 -24 3 -26 -4
-10 -5 11 -10 34 -11 50 -3 51 -39 -71 -38 -130 1 -41 2 -44 7 -19 5 26 29 49
124 123 107 84 117 95 117 125 0 26 17 54 83 137 130 165 223 336 270 499 20
70 25 78 30 54 3 -16 -3 -65 -13 -109 -21 -94 -18 -85 -83 -248 -37 -93 -55
-126 -65 -122 -11 4 -13 -1 -9 -21 3 -18 0 -27 -12 -32 -23 -8 -40 -34 -33
-51 4 -11 1 -13 -13 -7 -11 4 -16 4 -13 0 4 -3 -3 -15 -15 -25 -36 -30 -10
-22 61 20 95 55 110 58 118 25 7 -29 -2 -191 -17 -299 -13 -96 -35 -192 -71
-308 -16 -54 -34 -127 -39 -164 -13 -91 -18 -111 -46 -166 -51 -102 -149 -176
-218 -163 -19 4 -41 14 -50 22 -19 19 -19 73 0 98 19 26 19 80 0 96 -22 18
-18 47 7 53 28 8 34 2 19 -17 -15 -18 6 -28 31 -14 28 14 78 109 78 148 0 57
-23 81 -76 79 -29 -2 -48 -9 -54 -18 -5 -9 -12 -15 -17 -13 -4 2 -13 -16 -20
-40 -6 -24 -12 -38 -12 -33 -1 6 -13 51 -26 100 -29 101 -27 63 5 -100 31
-162 31 -326 1 -435 -47 -168 -135 -314 -276 -456 -71 -72 -105 -98 -162 -125
-40 -19 -73 -37 -73 -42 0 -4 14 -1 30 8 17 9 30 13 30 11 0 -9 -91 -120 -144
-174 -117 -123 -346 -295 -554 -416 -110 -63 -149 -82 -164 -78 -5 1 -8 -3 -8
-9 0 -6 -9 -9 -20 -6 -11 3 -18 1 -14 -4 3 -5 -3 -9 -13 -9 -10 0 -31 -9 -48
-20 -16 -11 -36 -20 -43 -20 -8 0 -26 -8 -40 -18 -113 -78 -355 -113 -562 -82
-138 21 -364 81 -480 127 -193 76 -300 142 -400 249 -54 57 -195 245 -219 292
-18 33 -31 27 -31 -15 0 -45 -27 -130 -59 -191 -27 -53 -100 -134 -112 -126
-5 3 -8 0 -7 -8 2 -7 -5 -12 -15 -12 -10 1 -16 0 -13 -4 18 -17 -182 -121
-281 -147 -67 -17 -148 -23 -158 -13 -4 4 2 31 13 60 21 57 32 117 57 296 18
125 41 209 86 309 55 121 105 279 91 287 -4 2 -50 1 -102 -3 -52 -4 -100 -4
-107 1 -8 7 2 48 38 156 l49 146 -52 76 -51 75 -131 1 c-235 3 -500 83 -693
211 -65 43 -123 102 -123 125 0 10 48 89 107 176 186 273 257 381 398 607 167
266 272 422 370 550 41 53 75 100 77 103 4 9 155 143 223 198 75 61 228 165
330 224 281 162 577 257 935 299 126 14 445 12 575 -4z m2637 -692 c35 -21 62
-60 673 -963 180 -267 351 -519 380 -560 392 -569 479 -726 556 -1015 24 -87
31 -137 34 -235 2 -69 1 -107 -3 -85 l-7 40 -8 -41 c-7 -43 -20 -54 -63 -54
-13 0 -24 -4 -24 -9 0 -5 -11 -12 -24 -15 -13 -3 -31 -9 -39 -12 -10 -3 -17 1
-20 13 -4 14 -5 14 -6 -4 -1 -25 -17 -31 -23 -11 -3 7 -8 -7 -13 -32 l-8 -45
-9 35 c-5 19 -15 67 -22 105 -19 97 -58 226 -95 315 -92 222 -168 343 -792
1268 -112 167 -224 334 -249 372 -25 38 -158 238 -296 445 l-252 375 122 64
c66 35 129 64 139 65 11 1 32 -7 49 -16z m77 -1184 c34 -28 76 -72 93 -98 17
-25 52 -74 77 -108 24 -33 46 -69 47 -80 1 -10 8 -51 15 -91 11 -69 11 -74 -9
-92 -12 -11 -24 -20 -27 -20 -9 0 -5 28 10 75 20 57 11 72 -21 40 -14 -14 -36
-25 -50 -25 -13 0 -47 -11 -75 -25 -51 -27 -76 -30 -141 -22 -36 4 -52 -6 -25
-16 7 -3 5 -6 -5 -6 -10 -1 -24 13 -34 34 -20 42 -33 52 -45 34 -5 -8 -6 2 -2
26 3 22 10 46 16 52 5 7 7 22 4 33 -6 24 -3 25 17 5 14 -14 16 -13 22 9 4 17
1 31 -10 41 -19 20 -19 22 -4 31 7 5 8 3 3 -6 -5 -8 -3 -11 4 -9 7 3 11 7 9
10 -2 3 2 12 8 20 16 20 26 51 14 44 -18 -11 -11 8 13 33 l22 25 -25 -13 -24
-13 17 26 c15 24 15 26 1 20 -15 -5 -15 -3 1 20 9 14 14 31 11 36 -4 5 -2 12
4 16 6 4 8 10 5 15 -3 4 5 6 17 3 22 -4 22 -3 -2 11 -18 11 -20 15 -8 16 9 0
44 -23 77 -51z m-327 -1012 c24 -37 105 -159 181 -271 121 -178 138 -206 128
-224 -6 -12 -7 -23 -2 -26 5 -3 11 4 14 16 4 12 8 20 11 17 8 -7 -16 -79 -26
-79 -4 0 -8 -4 -8 -10 0 -5 7 -10 15 -10 15 0 20 -16 17 -52 -1 -10 2 -17 6
-16 13 4 52 -13 52 -23 0 -14 -11 -11 -33 9 -19 16 -20 16 -14 0 9 -25 4 -22
-21 12 -17 23 -19 28 -6 23 12 -4 15 -2 12 8 -3 8 -12 14 -20 14 -17 0 -110
129 -101 139 4 3 1 6 -4 6 -13 0 -96 128 -96 147 0 7 -4 10 -7 8 -12 -8 -133
183 -124 196 4 7 3 10 -3 6 -14 -9 -108 127 -99 142 12 18 23 12 36 -18 6 -16
19 -37 29 -47 27 -30 81 -112 81 -123 0 -6 5 -11 10 -11 6 0 13 -8 17 -17 3
-10 20 -36 37 -58 17 -21 25 -36 19 -32 -7 5 -13 4 -13 -2 0 -6 6 -11 14 -11
17 0 29 -27 19 -43 -3 -7 -3 -9 2 -5 12 11 35 -11 35 -34 0 -10 5 -16 10 -13
6 3 10 -1 10 -9 0 -9 5 -16 10 -16 6 0 10 -7 10 -15 0 -8 3 -15 8 -15 12 0 31
-50 25 -66 -6 -17 13 -19 21 -1 3 6 4 3 1 -8 -3 -13 4 -26 19 -37 23 -16 24
-16 31 0 3 9 2 18 -4 20 -13 4 -241 355 -241 371 0 7 -4 9 -10 6 -6 -3 -7 1
-4 9 8 20 14 20 31 -1 12 -16 13 -15 1 6 -30 55 -38 65 -38 53 0 -7 -6 -10
-12 -7 -7 4 -4 -1 6 -9 14 -11 17 -19 10 -26 -7 -7 -18 4 -34 32 -13 24 -26
45 -30 48 -10 8 -40 54 -40 62 0 4 7 5 15 2 8 -3 13 -9 12 -13 -1 -4 13 -24
31 -45 17 -20 32 -33 32 -29 0 4 -11 21 -25 37 -14 16 -25 33 -25 39 0 5 -10
23 -22 39 -12 17 -16 29 -10 27 6 -2 31 -35 54 -72z m-439 -516 l52 -53 -37 4
c-28 3 -38 0 -42 -12 -2 -8 -4 -3 -5 13 -1 25 -14 36 -24 20 -3 -5 2 -30 9
-58 8 -27 17 -63 20 -80 8 -50 25 -84 44 -90 9 -3 22 -17 29 -32 15 -32 3 -47
-37 -48 -24 0 -32 -10 -71 -84 -36 -71 -41 -88 -32 -104 11 -16 10 -17 -9 -7
-11 6 -20 16 -20 22 0 6 25 58 57 116 l56 107 -16 65 c-56 226 -69 282 -63
287 3 4 6 -1 6 -10 0 -18 32 -54 70 -80 46 -32 45 -17 -3 31 -26 27 -46 56
-46 67 1 20 1 20 6 0 3 -11 28 -44 56 -74z m259 -7 c7 -9 31 -37 54 -62 l41
-45 21 21 c26 26 32 27 58 7 24 -18 38 -19 28 -2 -4 6 7 -1 25 -18 19 -18 29
-35 26 -44 -3 -9 -3 -12 1 -8 8 8 34 -11 34 -25 0 -5 -5 -6 -12 -2 -7 4 -8 3
-4 -5 4 -6 12 -8 18 -5 6 4 8 2 4 -4 -6 -11 23 -84 37 -90 14 -7 7 -24 -9 -18
-9 3 -12 2 -9 -5 4 -5 16 -7 27 -3 12 3 18 2 15 -3 -3 -5 14 -22 38 -38 63
-39 72 -52 43 -60 -13 -4 -38 -18 -56 -32 -38 -29 -51 -23 -82 36 -10 20 -28
44 -39 53 -12 10 -21 28 -21 40 l-1 23 -18 -22 c-11 -13 -25 -23 -33 -23 -7 1
-31 26 -53 56 -22 31 -41 50 -43 44 -3 -7 -1 -15 4 -19 5 -3 22 -21 38 -39 23
-25 26 -32 13 -32 -9 0 -17 7 -17 16 0 18 -34 11 -62 -14 -23 -20 -15 -31 18
-24 22 4 26 2 21 -11 -4 -11 13 -46 48 -98 30 -45 55 -83 55 -84 0 -1 -27 -8
-60 -14 -33 -7 -62 -16 -65 -21 -4 -7 -13 -6 -25 0 -38 20 -39 6 -6 -62 16
-33 19 -48 11 -48 -7 0 -21 24 -30 54 -14 45 -22 55 -49 64 l-31 10 38 1 c20
1 37 6 37 11 0 6 -6 10 -13 10 -7 0 -24 29 -36 65 -14 40 -33 73 -50 85 l-26
21 25 -7 c14 -3 27 -7 30 -7 3 -1 21 9 40 21 22 14 29 22 18 22 -10 0 -33 14
-51 30 -19 17 -39 30 -45 30 -12 0 -102 107 -102 121 0 16 30 9 47 -11 10 -11
25 -20 35 -20 9 0 20 -5 23 -10 4 -6 11 -8 16 -5 5 3 6 0 4 -7 -6 -14 38 -81
47 -73 3 3 10 -1 17 -8 14 -18 58 -10 66 10 3 9 0 22 -6 30 -7 7 -9 16 -5 20
3 3 6 0 6 -8 1 -9 4 -7 12 5 9 16 7 23 -11 38 -17 13 -28 15 -41 8 -19 -10
-30 -4 -30 16 0 8 7 11 18 8 11 -4 9 1 -8 15 -14 12 -40 36 -59 54 -22 21 -32
26 -28 14 4 -11 3 -16 -3 -12 -6 3 -10 13 -10 21 0 8 -4 14 -10 14 -5 0 -10 4
-10 8 0 5 14 7 31 6 29 -2 30 -1 13 17 -16 18 -16 19 4 19 12 0 22 5 22 10 0
16 28 12 42 -6z m389 -205 c58 -58 106 -128 98 -141 -1 -2 33 -56 75 -120 l76
-118 -27 -57 c-26 -59 -37 -84 -47 -115 -3 -11 -14 -17 -28 -15 -17 1 -24 -4
-26 -20 -2 -12 -12 -25 -23 -28 -13 -4 -18 -12 -15 -21 3 -9 1 -12 -4 -9 -6 3
-10 0 -10 -7 0 -10 -2 -10 -8 -1 -6 10 -14 9 -36 -2 -15 -8 -32 -13 -36 -10
-5 3 -12 0 -15 -6 -4 -6 -18 -8 -34 -4 l-26 6 25 -18 c14 -10 27 -18 30 -18 3
0 11 -4 18 -8 6 -5 17 -5 24 -1 7 4 8 3 4 -4 -11 -18 -28 -15 -73 15 -35 23
-39 28 -27 40 8 8 14 22 14 30 0 13 -5 12 -24 -6 -17 -16 -30 -20 -49 -16
l-26 7 22 31 c12 18 47 63 78 102 31 38 83 122 117 186 54 101 60 118 47 129
-9 7 -14 18 -13 24 1 6 -5 25 -15 41 -9 17 -16 25 -17 20 0 -6 7 -21 16 -33 8
-12 11 -22 6 -22 -5 0 -24 21 -42 48 -19 26 -58 77 -87 113 -29 36 -53 69 -53
73 0 3 9 6 20 6 11 0 51 -31 91 -71z m292 -83 c9 -5 23 -6 31 -3 7 3 35 -10
62 -30 112 -80 223 -128 414 -179 81 -21 87 -33 7 -15 -28 7 -36 6 -29 -2 5
-7 9 -19 9 -28 0 -12 -9 -15 -36 -12 -66 6 -76 8 -81 14 -3 3 -41 20 -85 38
-44 17 -111 50 -149 73 -54 32 -70 37 -77 27 -6 -11 -15 -7 -38 15 -17 16 -28
34 -24 39 3 6 1 7 -4 4 -6 -4 -16 0 -23 8 -7 8 -9 15 -4 15 4 0 -2 9 -14 20
-12 12 -22 22 -22 23 0 6 46 0 63 -7z m5 -125 c53 -33 97 -63 97 -68 0 -4 26
-51 56 -103 31 -52 69 -118 86 -147 l29 -52 -19 -101 c-23 -117 -26 -110 71
-160 35 -18 66 -39 69 -47 3 -8 16 3 34 32 16 25 33 43 38 40 5 -3 33 -43 62
-89 72 -114 74 -115 156 -69 l67 37 41 -47 41 -47 20 21 21 20 15 -23 c31 -48
30 -61 -9 -87 l-36 -23 -41 47 c-41 46 -41 47 -59 27 -17 -19 -15 -21 95 -81
l113 -61 31 37 31 36 45 -64 c24 -35 52 -75 61 -88 20 -30 83 -66 170 -96 l68
-24 29 32 c16 18 32 40 36 50 12 36 -28 118 -98 205 -97 119 -98 121 -56 87
20 -17 103 -85 186 -152 125 -103 151 -129 160 -160 6 -21 31 -103 56 -183 25
-80 46 -153 46 -164 0 -17 -6 -18 -69 -12 -39 4 -99 16 -135 26 -37 10 -66 16
-66 14 0 -3 -12 2 -27 10 -16 9 -82 36 -148 62 -66 25 -124 50 -129 55 -6 5
-18 9 -28 9 -9 0 -57 24 -105 53 -48 29 -236 138 -418 241 -181 104 -372 213
-423 242 -51 30 -97 54 -102 54 -5 0 -12 5 -15 10 -7 11 82 101 95 97 4 -1 9
3 10 8 1 6 7 17 13 25 7 8 -3 4 -20 -9 -19 -12 -38 -19 -45 -15 -7 4 -10 3 -5
-1 9 -10 -61 -85 -80 -85 -12 0 -110 46 -122 56 -3 3 11 21 30 41 l34 37 -47
-37 -47 -38 -50 28 c-28 16 -51 30 -51 33 0 3 13 19 28 36 15 17 46 52 70 79
l43 49 65 -32 c35 -18 67 -32 69 -32 6 0 -3 59 -11 72 -3 5 0 25 6 44 9 25 15
32 20 23 5 -7 8 11 6 42 -2 56 -3 58 -94 191 -35 50 -79 148 -66 148 2 0 48
-27 102 -59z m318 -308 c81 -98 95 -110 155 -142 l62 -32 -42 50 c-39 47 -46
76 -17 69 7 -2 42 -35 79 -74 58 -62 65 -73 52 -84 -27 -23 -195 76 -254 150
-24 30 -36 38 -41 29 -10 -15 -70 41 -70 65 0 31 38 15 76 -31z m189 23 c11
-3 51 -40 89 -81 53 -58 72 -73 85 -66 19 10 44 3 35 -10 -3 -5 -1 -9 4 -9 5
0 32 -27 60 -61 50 -59 66 -103 40 -111 -6 -2 4 -14 23 -26 19 -12 47 -31 63
-42 21 -13 34 -16 42 -9 9 7 20 5 38 -6 24 -16 36 -45 19 -45 -15 1 -43 27
-36 33 3 4 2 7 -4 7 -24 0 -20 -31 8 -66 16 -20 29 -41 29 -46 0 -5 11 -13 25
-18 27 -10 30 -17 16 -39 -13 -20 -43 0 -85 58 -33 44 -70 67 -101 63 -9 -2
-41 93 -48 139 -1 9 -19 35 -40 59 -30 32 -44 41 -62 37 -20 -3 -43 17 -141
126 -64 71 -108 127 -98 124 10 -3 28 -8 39 -11z m-2502 -66 c-4 -16 -2 -19
11 -14 10 4 16 1 16 -7 0 -7 3 -10 6 -7 3 4 1 16 -6 27 -15 29 0 26 26 -5 21
-24 23 -24 28 -6 6 17 10 18 31 8 14 -6 25 -14 25 -18 0 -5 5 -8 10 -8 6 0 10
9 10 19 0 10 7 21 14 24 10 4 13 1 9 -9 -3 -8 1 -14 11 -14 9 0 16 5 16 12 0
9 3 9 12 0 10 -10 10 -15 -2 -22 -8 -5 -11 -12 -7 -16 4 -4 14 1 22 12 14 19
14 19 15 -1 l1 -20 15 20 c16 20 16 20 9 -3 -5 -16 -1 -28 13 -40 10 -9 25
-30 33 -47 8 -16 25 -32 39 -36 18 -5 20 -7 6 -8 -12 -1 -16 -6 -12 -16 3 -9
0 -15 -9 -15 -8 0 -19 -8 -24 -17 -6 -11 -11 -13 -11 -5 0 7 -5 10 -10 7 -8
-5 -7 -11 1 -21 9 -11 8 -14 -4 -14 -8 0 -20 -7 -27 -15 -7 -8 -21 -15 -31
-15 -11 0 -19 -7 -19 -15 0 -8 -9 -15 -21 -15 -11 0 -18 -4 -15 -8 4 -6 -91
-46 -114 -47 -3 -1 -15 -6 -28 -13 -12 -7 -28 -10 -34 -6 -7 4 -8 3 -4 -4 4
-7 -9 -16 -39 -23 -25 -6 -45 -15 -45 -20 0 -5 -6 -6 -14 -3 -18 7 -87 -28
-119 -60 -14 -14 -28 -22 -31 -19 -3 4 -6 -1 -6 -9 0 -15 -26 -33 -43 -29 -5
1 -5 -4 -1 -10 4 -7 0 -17 -8 -23 -21 -16 -30 -56 -11 -56 8 0 12 -4 8 -9 -3
-5 -1 -12 5 -16 6 -3 13 1 16 9 8 21 30 20 38 0 10 -25 7 -46 -5 -39 -6 4 -21
-3 -34 -15 -13 -12 -28 -19 -34 -15 -6 3 -11 -1 -11 -9 0 -9 -7 -16 -15 -16
-8 0 -15 -8 -15 -17 0 -15 -2 -14 -15 3 -13 17 -14 17 -15 2 0 -10 -5 -18 -11
-18 -5 0 -8 -4 -5 -9 4 -5 -4 -7 -16 -3 -14 3 -19 2 -14 -6 5 -8 -1 -12 -17
-12 -14 0 -27 -7 -31 -15 -3 -8 -12 -12 -21 -9 -8 3 -15 1 -15 -5 0 -18 -18
-13 -23 7 -4 14 -5 13 -6 -3 -1 -16 -9 -21 -33 -23 -35 -3 -50 -12 -30 -19 6
-3 12 -9 12 -15 0 -6 -7 -5 -16 3 -11 9 -17 10 -22 2 -4 -6 -20 -15 -35 -18
-15 -4 -31 -14 -36 -22 -4 -8 -11 -14 -14 -14 -34 5 -49 0 -43 -15 5 -13 2
-15 -14 -11 -13 3 -20 0 -20 -10 0 -8 -5 -11 -10 -8 -6 4 -8 10 -5 15 3 4 -4
6 -16 3 -15 -4 -17 -8 -8 -14 20 -12 10 -17 -63 -32 -44 -9 -65 -10 -64 -3 2
6 1 8 -1 4 -3 -5 -12 -8 -21 -8 -15 0 -15 -2 -2 -10 12 -8 9 -10 -12 -10 -15
0 -30 -5 -33 -10 -4 -6 -15 -8 -25 -5 -11 3 -20 0 -24 -10 -3 -8 -12 -15 -21
-15 -8 0 -15 -5 -15 -11 0 -8 -5 -8 -15 1 -12 10 -16 9 -22 -6 -7 -20 -22 -34
-36 -34 -5 0 -5 6 -2 13 4 6 -1 3 -9 -7 -9 -11 -16 -29 -15 -40 1 -18 2 -17 8
4 l7 25 6 -27 c3 -15 1 -25 -3 -22 -5 3 -9 0 -9 -6 0 -7 -6 -5 -15 4 -8 8 -15
19 -15 25 0 6 -4 11 -10 11 -15 0 -12 -12 10 -40 39 -50 11 -90 -30 -42 -14
16 -20 20 -17 10 4 -10 2 -18 -4 -18 -6 0 -9 -8 -7 -17 2 -10 12 -18 22 -18
11 0 21 -6 23 -12 3 -7 0 -13 -6 -13 -6 0 -11 4 -11 10 0 5 -6 7 -14 4 -7 -3
-20 2 -29 10 -9 9 -21 16 -28 16 -6 0 0 -12 15 -26 14 -15 26 -30 26 -35 0
-13 -28 1 -34 17 -6 15 -51 19 -60 6 -7 -12 -36 -8 -65 7 -19 10 -22 10 -16 0
6 -9 3 -10 -8 -6 -10 4 -24 10 -32 13 -8 3 -15 1 -15 -6 0 -6 5 -8 10 -5 6 3
10 2 10 -3 0 -15 32 -24 40 -12 5 7 11 6 20 -5 19 -23 -2 -40 -50 -40 -36 0
-39 1 -34 22 5 19 3 23 -15 20 -29 -4 -37 -15 -17 -23 9 -3 13 -10 10 -15 -3
-5 -10 -7 -15 -3 -6 3 -72 6 -147 5 l-137 -1 -39 102 c-22 57 -52 126 -67 153
-33 59 -83 118 -92 108 -4 -3 -7 -1 -7 5 0 7 -6 12 -14 12 -8 0 -16 7 -20 15
-3 8 -12 15 -19 15 -8 0 -20 7 -27 15 -7 9 -19 14 -26 11 -7 -3 -16 -1 -19 4
-5 9 43 15 93 13 7 -1 11 1 8 4 -8 9 216 114 231 109 8 -4 11 -1 7 5 -4 8 4 9
27 5 19 -3 28 -3 22 0 -27 12 -11 22 17 11 17 -6 30 -15 30 -19 0 -4 7 -8 15
-8 9 0 12 6 8 16 -5 13 -2 15 15 9 15 -4 22 -2 22 6 0 7 3 10 6 6 4 -3 22 9
40 28 19 19 38 35 44 35 5 0 10 5 10 12 0 15 40 58 54 58 6 0 4 -5 -4 -11 -13
-9 -13 -10 0 -6 8 2 15 9 15 15 0 17 37 41 63 42 13 0 22 -6 22 -15 0 -22 65
-31 93 -12 13 8 47 15 80 15 32 0 62 3 65 7 4 3 -15 25 -42 48 -42 37 -46 44
-33 55 12 11 22 10 49 -1 23 -10 40 -12 52 -5 9 5 25 6 36 3 11 -4 20 -2 20 4
0 6 -5 11 -10 11 -6 0 -6 7 2 19 9 15 19 18 47 14 20 -3 47 -12 60 -21 23 -14
23 -16 7 -27 -13 -10 -14 -14 -4 -18 10 -4 10 -8 -2 -17 -12 -9 -13 -12 -1
-17 11 -4 11 -7 0 -13 -10 -7 -10 -13 -1 -32 l12 -23 -3 25 c-2 22 2 25 30 24
22 -1 30 2 25 10 -4 6 -7 20 -7 30 0 11 -7 21 -15 23 -13 4 -13 3 0 -6 8 -5
11 -13 8 -17 -4 -3 -14 0 -22 9 -14 13 -14 16 2 22 11 4 23 -1 34 -14 9 -12
23 -21 32 -21 9 0 16 -4 16 -10 0 -5 19 -10 43 -10 38 0 43 3 45 25 1 14 -4
25 -11 26 -6 0 -3 4 8 9 19 8 19 9 -2 9 -14 1 -23 7 -23 16 0 8 -5 15 -11 15
-6 0 -17 7 -25 15 -9 8 -28 15 -44 15 -16 0 -31 6 -33 13 -3 7 -6 5 -6 -5 -1
-21 -3 -22 -61 -4 -25 7 -44 17 -42 22 2 5 -2 10 -9 13 -7 2 -9 -1 -4 -9 6 -9
4 -11 -5 -5 -10 6 -7 12 9 24 27 21 75 27 65 8 -5 -9 -4 -9 7 1 19 17 85 15
115 -5 19 -12 24 -22 19 -40 -4 -17 -1 -23 10 -23 9 0 13 5 10 10 -3 6 5 10
18 10 14 0 59 12 102 26 42 14 85 24 96 21 15 -4 17 -2 9 13 -11 20 2 36 19
25 6 -3 14 2 19 12 9 15 12 15 27 3 16 -14 17 -13 11 8 -7 20 7 32 17 15 2 -5
2 -3 1 4 -2 6 4 17 12 24 21 17 10 23 -18 9 -22 -11 -22 -10 -4 4 11 9 28 14
37 11 10 -3 21 -1 24 6 6 8 10 8 16 -2 6 -10 13 -8 29 10 11 14 23 21 26 18 4
-3 -1 -13 -10 -22 -20 -21 -20 -26 0 -18 8 3 18 18 21 34 5 25 53 72 53 51 0
-4 16 -8 37 -8 20 0 31 2 25 4 -7 2 -12 8 -12 14 0 5 9 6 20 3 18 -6 20 -3 15
22 -6 27 -6 27 9 9 9 -11 16 -15 16 -9 0 14 56 37 74 30 9 -4 12 0 9 13 -4 15
-1 18 16 13 22 -6 30 12 9 20 -8 4 -7 6 4 6 9 1 24 4 34 8 13 5 16 3 11 -10
-3 -9 -2 -19 3 -22 6 -4 10 1 10 9 0 19 17 21 22 4 3 -7 15 2 28 20 28 38 30
39 23 12z m2337 -105 c13 -14 21 -28 18 -31 -4 -3 -11 4 -18 15 -11 21 -30 29
-30 12 0 -5 9 -19 19 -32 l19 -24 24 23 c13 12 30 22 38 22 17 0 149 -67 174
-89 10 -9 31 -35 47 -58 l30 -42 -37 -16 c-20 -8 -40 -15 -44 -15 -4 0 -20 18
-36 41 l-28 41 24 18 c14 10 23 21 20 23 -3 3 -35 21 -72 42 l-67 36 -29 -21
c-25 -18 -33 -20 -52 -10 -22 12 -52 68 -44 82 9 13 20 9 44 -17z m850 -385
c0 -6 5 -10 10 -10 6 0 10 7 10 15 0 30 20 14 66 -55 25 -38 53 -75 60 -81 18
-15 18 -18 -7 -74 l-21 -48 -32 49 c-26 41 -31 45 -34 26 -7 -50 -32 -13 -57
85 -8 34 -24 83 -35 108 -11 26 -17 51 -14 56 6 10 54 -54 54 -71z m-6501
-511 c22 -21 28 -49 10 -49 -6 0 -8 -7 -5 -16 3 -8 2 -13 -2 -10 -4 2 -6 -35
-5 -82 2 -139 1 -131 23 -125 33 9 22 -28 -27 -89 -11 -15 -23 -33 -26 -40 -4
-10 -8 -10 -17 2 -10 13 -11 13 -6 -2 3 -10 1 -20 -4 -23 -5 -3 -12 5 -15 17
-3 13 -19 32 -35 43 -17 11 -30 29 -30 40 0 17 -2 17 -10 5 -27 -41 7 225 35
281 39 77 69 89 114 48z m816 -39 c87 -25 199 -26 319 -3 l89 17 34 -39 c46
-53 132 -239 118 -253 -3 -3 -5 1 -5 8 0 9 -5 7 -14 -6 -11 -15 -27 -19 -75
-20 -33 0 -58 3 -55 7 14 23 -89 51 -246 69 -47 5 -112 12 -145 16 -33 4 -74
8 -92 8 -17 1 -35 5 -40 10 -5 5 -3 6 5 2 46 -26 -38 85 -117 157 l-53 47 103
0 c74 0 124 -6 174 -20z m3353 -355 c40 -17 104 -57 139 -88 12 -11 27 -16 34
-12 7 5 10 4 6 -2 -4 -6 5 -21 19 -34 17 -15 23 -18 19 -7 -10 25 12 31 34 9
14 -14 22 -16 31 -7 10 8 11 8 7 0 -4 -7 0 -14 8 -18 9 -3 15 1 15 11 0 24 57
-52 90 -121 15 -34 31 -83 34 -111 3 -28 2 -39 -2 -26 -7 23 -8 22 -27 -16
-12 -24 -25 -39 -32 -36 -10 4 -13 -13 -13 -69 0 -83 -26 -191 -40 -167 -6 8
-5 16 2 20 6 4 8 15 4 24 -4 12 -13 15 -30 11 -32 -8 -60 3 -47 18 16 20 6
148 -18 208 -47 121 -161 222 -250 222 -50 0 -100 -23 -121 -57 -18 -29 -25
-139 -11 -165 18 -34 28 -26 35 26 8 59 62 146 94 150 16 3 20 -1 16 -12 -7
-18 7 -33 54 -59 32 -18 33 -18 52 5 l20 23 34 -38 c19 -22 39 -52 45 -68 9
-27 8 -31 -15 -39 -24 -9 -25 -14 -21 -60 13 -130 -61 -193 -168 -141 -21 10
-44 29 -52 42 -11 19 -13 19 -9 4 5 -16 1 -14 -19 8 -26 29 -49 29 -38 -1 11
-30 -33 15 -68 69 -17 27 -33 49 -35 49 -5 0 0 -24 6 -30 3 -3 13 -21 23 -40
l18 -35 -24 25 c-13 14 -23 27 -21 29 2 2 -3 9 -12 15 -8 6 -16 18 -18 26 -1
8 -10 39 -19 68 -23 74 -30 160 -19 211 9 38 8 47 -10 72 -19 25 -19 31 -8 59
l13 32 21 -27 21 -27 20 22 c28 31 84 63 100 56 8 -3 17 -1 20 4 9 15 71 12
113 -5z m-3978 -335 c-9 -17 -9 -21 2 -18 7 1 33 -17 57 -40 41 -40 45 -47 46
-97 1 -30 -2 -60 -7 -67 -7 -9 -8 -8 -4 5 3 10 2 16 -3 13 -5 -3 -11 -15 -14
-27 -3 -11 -3 -18 0 -15 9 9 54 -64 47 -76 -4 -6 -3 -8 3 -5 5 4 23 -7 38 -23
l28 -29 -22 -53 c-13 -29 -31 -60 -41 -69 -21 -18 -34 -42 -287 -509 -427
-789 -481 -878 -649 -1069 -159 -180 -318 -320 -559 -493 -214 -152 -539 -358
-568 -358 -44 0 -175 198 -211 319 -38 129 -11 321 69 486 48 99 213 350 540
820 23 33 122 174 219 313 97 140 182 266 190 280 7 15 27 70 42 122 39 130
101 223 164 246 201 75 195 71 233 127 21 30 37 59 37 65 0 7 8 20 18 31 9 10
28 33 42 51 41 54 82 97 71 75 -8 -17 -6 -21 10 -22 10 -1 19 2 19 7 0 13 99
23 114 11 7 -6 15 -9 17 -7 5 5 113 16 219 23 126 7 128 7 136 16 14 13 16
-10 4 -33z m6120 -175 c0 -8 9 -30 19 -48 12 -22 16 -39 10 -48 -14 -23 -11
-29 19 -30 16 -1 20 -3 10 -6 -10 -2 -18 -9 -18 -14 0 -5 8 -9 18 -10 9 0 12
-3 6 -5 -16 -7 -5 -44 13 -44 9 0 13 -6 9 -15 -4 -12 3 -15 37 -15 31 0 38 -3
27 -10 -11 -7 -7 -10 17 -10 17 0 33 -4 35 -10 2 -5 27 -12 56 -15 30 -2 59
-8 64 -11 7 -5 8 -2 3 6 -6 10 -4 12 9 7 9 -4 31 0 48 9 16 8 32 13 35 11 7
-8 -99 -55 -148 -66 -70 -17 -164 -13 -263 10 -68 16 -86 24 -71 30 11 4 16 8
10 9 -5 1 1 6 15 10 23 7 23 8 4 9 -33 2 -38 17 -49 174 -6 77 -6 79 17 77 39
-4 48 -1 48 16 0 8 5 12 10 9 6 -3 10 -13 10 -20z m-2817 -147 c-35 -11 -63
-23 -63 -28 0 -4 24 -18 53 -31 52 -23 52 -23 22 -29 -16 -3 -55 0 -86 6 -85
20 -180 36 -218 37 -43 2 -50 21 -16 43 22 14 41 16 128 10 125 -9 161 -8 189
4 13 5 30 9 38 8 8 0 -13 -9 -47 -20z m2502 -192 c88 -24 161 -55 181 -77 16
-18 16 -28 6 -108 -7 -48 -12 -104 -12 -124 0 -32 3 -35 35 -41 55 -11 105
-35 105 -51 0 -8 5 -15 10 -15 19 0 10 -17 -16 -30 -14 -8 -53 -14 -87 -15
-60 0 -62 -1 -60 -25 1 -14 -3 -37 -9 -53 -7 -19 -7 -31 1 -41 6 -7 14 -69 18
-137 6 -134 -10 -252 -47 -335 -32 -73 -132 -166 -160 -149 -5 3 -11 1 -15 -5
-9 -14 -48 -13 -63 2 -9 9 -12 9 -12 -1 0 -9 -13 -12 -44 -10 -24 2 -42 0 -39
-5 7 -11 -73 2 -112 19 -94 39 -265 181 -265 221 0 7 -20 36 -44 63 -24 27
-47 60 -51 73 -4 13 -13 30 -21 38 -22 25 -150 282 -168 336 -22 67 -27 94
-17 94 5 0 12 11 15 25 4 14 11 23 16 20 5 -3 16 7 24 22 8 15 29 44 47 63 17
19 29 29 25 23 -10 -18 5 -16 38 6 17 11 33 18 37 15 4 -2 10 5 14 16 3 11 14
20 23 20 9 0 41 23 70 50 28 28 52 46 52 41 0 -6 11 1 25 14 13 14 31 25 40
25 8 0 15 6 15 13 0 8 4 7 10 -3 7 -12 10 -12 10 -1 0 7 6 11 14 8 8 -3 17 -3
20 1 4 3 19 8 34 10 15 2 37 10 49 17 12 8 23 11 25 6 2 -5 19 -4 38 3 42 13
160 5 245 -18z m-2380 -388 c44 -31 125 -79 180 -108 55 -28 89 -48 75 -44
-23 6 -23 6 -6 -11 9 -10 15 -24 12 -31 -3 -9 1 -11 12 -7 12 5 10 -1 -7 -20
-14 -15 -28 -27 -33 -27 -5 0 -27 -18 -50 -40 -30 -31 -46 -39 -62 -35 -14 4
-17 3 -8 -3 11 -7 11 -10 -2 -15 -9 -4 -23 -4 -31 -1 -8 4 -15 2 -15 -4 0 -25
34 -19 80 13 28 19 50 31 50 25 0 -5 -12 -16 -27 -24 -16 -8 -57 -39 -93 -70
-45 -39 -66 -51 -68 -41 -2 8 -8 15 -14 15 -6 0 -8 -10 -4 -22 4 -16 -3 -33
-23 -58 -15 -19 -33 -45 -40 -58 -11 -22 -14 -22 -25 -7 -11 16 -13 15 -27 -2
-13 -16 -13 -17 4 -4 10 8 17 9 17 3 0 -6 -4 -13 -10 -17 -5 -3 -7 -12 -3 -21
3 -9 0 -14 -8 -12 -7 2 -13 -3 -14 -11 0 -7 -11 -21 -25 -29 l-25 -16 20 23
20 24 -22 -12 c-25 -13 -44 -11 -55 4 -4 6 -8 -1 -8 -14 0 -16 4 -21 14 -18
24 9 26 -20 6 -65 -28 -63 -55 -91 -80 -83 -11 4 -17 11 -14 17 4 7 2 8 -5 4
-15 -10 -141 59 -261 142 -108 74 -250 210 -250 238 0 11 9 33 21 49 11 17 41
71 66 120 93 184 215 332 382 465 l63 51 107 -103 c59 -57 143 -129 186 -160z
m-849 -403 c-3 -8 -1 -15 4 -15 6 0 10 -6 10 -13 0 -7 15 -31 33 -53 19 -21
32 -45 30 -51 -3 -7 1 -13 9 -13 10 0 9 -3 -2 -10 -10 -6 -11 -10 -2 -10 6 0
12 -7 12 -15 0 -16 32 -37 52 -33 8 2 12 -5 10 -20 -3 -17 2 -25 19 -29 l23
-6 -22 -8 c-13 -5 -22 -17 -22 -28 0 -13 -5 -18 -14 -15 -8 3 -22 -9 -36 -30
-24 -39 -56 -50 -47 -16 3 11 2 20 -2 20 -3 0 -12 -9 -19 -20 -10 -17 -10 -20
3 -20 8 0 15 -4 15 -10 0 -5 -4 -10 -10 -10 -5 0 -12 -11 -16 -25 -3 -14 -12
-25 -20 -25 -8 0 -14 -4 -14 -10 0 -5 -8 -7 -17 -3 -15 5 -16 3 -5 -8 18 -19
15 -40 -4 -32 -14 5 -15 3 -4 -16 16 -31 13 -33 -59 -40 -11 -1 -11 -4 -1 -16
11 -13 8 -15 -18 -15 -17 0 -34 -5 -37 -10 -4 -6 -11 -8 -16 -5 -5 4 -9 0 -9
-8 0 -8 -9 -26 -21 -41 -11 -15 -18 -33 -15 -41 3 -8 1 -15 -4 -15 -6 0 -10 5
-10 10 0 6 -7 10 -15 10 -8 0 -15 5 -15 12 0 6 -3 8 -6 5 -4 -4 -1 -13 6 -22
11 -13 10 -15 -6 -9 -18 5 -18 5 0 -10 11 -9 16 -16 11 -16 -5 0 -19 9 -31 21
-13 12 -39 21 -65 24 -24 1 -38 1 -31 -2 6 -3 12 -11 12 -19 0 -8 5 -14 12
-14 6 0 9 -3 6 -6 -3 -3 -23 4 -44 16 -29 15 -52 20 -89 17 -27 -3 -39 -2 -26
0 13 3 33 13 44 24 11 10 24 19 28 19 4 0 12 13 17 30 6 16 30 48 54 72 98 98
177 222 263 413 54 121 75 155 98 155 5 0 7 -7 3 -15z m694 -347 c0 21 29 13
46 -14 10 -14 20 -21 23 -16 3 5 17 12 31 16 17 5 21 4 11 -2 -11 -8 -11 -14
0 -33 12 -23 11 -23 -6 -9 -14 11 -17 11 -11 1 10 -16 -9 -31 -41 -31 -13 0
-23 -4 -23 -9 0 -5 -3 -16 -6 -25 -4 -11 0 -16 12 -17 13 0 14 -2 5 -6 -7 -3
-33 4 -57 16 -24 12 -53 23 -64 24 -11 1 -20 3 -20 5 0 2 17 30 38 63 33 51
38 56 50 42 7 -10 12 -12 12 -5z m-1356 -401 c63 -29 159 -91 216 -140 141
-121 435 -416 381 -382 -7 4 -18 1 -26 -5 -12 -10 -15 -9 -15 4 0 9 5 16 12
16 9 0 8 3 -1 13 -11 10 -14 9 -18 -1 -4 -10 -8 -10 -19 -1 -12 10 -12 14 -2
20 10 7 10 11 0 21 -9 9 -12 9 -12 -5 0 -21 -8 -21 -32 0 -31 28 -19 4 14 -29
93 -91 158 -185 158 -228 0 -63 -201 30 -419 193 -157 118 -376 349 -430 454
-11 21 3 74 26 96 15 16 107 1 167 -26z m2636 -612 c41 -21 64 -68 57 -117 -9
-69 -44 -85 -149 -69 -12 2 -9 50 3 74 16 29 28 37 61 37 27 0 27 -1 21 -50
-3 -29 -2 -50 4 -50 37 0 46 91 12 134 -37 47 -107 27 -135 -40 -24 -57 -18
-111 15 -145 33 -33 58 -36 103 -13 21 11 33 13 41 5 7 -7 0 -15 -26 -26 -133
-55 -217 64 -146 206 17 33 66 68 97 69 7 0 26 -7 42 -15z m240 -3 c13 -11 20
-24 16 -30 -5 -9 -11 -8 -23 3 -22 22 -55 15 -70 -15 -7 -14 -13 -53 -13 -87
0 -92 24 -132 71 -118 15 5 19 16 19 51 0 24 -4 45 -10 45 -5 1 -15 2 -22 3
-6 0 -13 7 -16 14 -3 10 6 13 34 10 l39 -3 0 -65 c0 -61 -1 -65 -27 -74 -39
-14 -80 3 -97 39 -18 37 -19 150 -2 192 20 49 65 65 101 35z m2223 -1 c5 -5 6
-15 2 -21 -5 -8 -10 -9 -18 -1 -32 32 -87 -6 -87 -61 0 -26 2 -27 24 -17 57
26 96 -11 96 -92 0 -53 -28 -81 -78 -77 -31 2 -40 9 -54 38 -35 69 -17 211 29
239 19 12 71 7 86 -8z m187 -8 c-1 -10 -7 -47 -15 -83 -8 -36 -14 -68 -15 -72
0 -5 16 -8 35 -8 l35 0 0 70 c0 56 3 70 15 70 12 0 15 -14 15 -70 0 -40 4 -70
10 -70 6 0 10 -7 10 -15 0 -8 -4 -15 -10 -15 -5 0 -10 -13 -10 -30 0 -20 -5
-30 -15 -30 -10 0 -15 10 -15 30 0 29 -1 30 -50 30 -59 0 -57 -5 -33 122 11
57 21 88 30 88 7 0 13 -8 13 -17z m-2166 -140 c31 -107 32 -116 18 -121 -6 -2
-13 11 -17 27 -6 29 -10 31 -51 31 -35 0 -44 -3 -44 -17 0 -25 -16 -47 -28
-39 -6 3 1 41 19 98 39 124 36 118 56 118 14 0 24 -21 47 -97z m1740 81 c22
-21 20 -60 -4 -84 -19 -19 -19 -19 6 -63 21 -38 22 -46 9 -51 -11 -4 -22 9
-40 44 -18 35 -31 50 -45 50 -17 0 -20 -7 -20 -45 0 -33 -4 -45 -15 -45 -12 0
-15 18 -15 105 l0 105 54 0 c36 0 60 -5 70 -16z"/>
<path d="M4826 7146 c-76 -78 -191 -187 -255 -243 -191 -168 -585 -473 -611
-473 -5 0 -10 -4 -10 -10 0 -5 4 -10 9 -10 9 0 134 78 156 98 6 5 16 7 23 4 7
-2 11 2 10 8 -2 7 13 21 32 32 19 11 41 29 48 39 7 11 18 17 23 14 5 -4 9 -1
9 4 0 6 6 11 13 11 6 0 33 20 59 43 64 58 126 108 135 108 4 1 32 27 62 58
l53 56 -92 -180 c-153 -298 -193 -367 -241 -417 -45 -48 -42 -60 9 -34 31 16
127 113 204 206 136 164 201 240 205 240 5 0 -3 -15 -28 -51 -53 -76 -107
-206 -159 -379 -17 -58 -33 -111 -35 -118 -3 -7 0 -10 5 -7 5 3 41 68 80 143
67 134 160 284 217 350 l28 34 1 -84 c1 -265 195 -478 383 -422 188 55 261
347 145 575 -13 27 -24 51 -24 53 0 8 150 -62 204 -95 27 -16 51 -28 53 -25 6
6 -112 103 -176 144 -30 19 -89 51 -130 71 -72 34 -81 36 -181 36 -83 0 -112
-4 -138 -18 -64 -35 -43 -9 25 31 90 53 172 78 321 100 l123 18 -29 21 c-82
60 -226 115 -351 134 l-80 11 25 26 c13 15 24 30 24 34 0 11 12 22 -144 -136z"/>
<path d="M5436 6377 c-110 -225 -308 -347 -561 -346 -73 0 -202 17 -265 34
-18 5 -21 4 -10 -3 30 -20 144 -43 238 -48 285 -17 527 139 632 405 11 29 19
55 18 56 -2 2 -25 -43 -52 -98z"/>
<path d="M3652 6440 c-121 -32 -123 -27 55 -133 158 -94 244 -133 265 -121 6
4 -6 16 -28 27 -21 11 -65 40 -97 65 -52 39 -62 43 -83 34 -22 -11 -23 -10
-18 17 5 24 0 33 -35 63 -23 19 -41 37 -41 39 0 2 12 5 28 5 47 3 72 8 72 16
0 13 -39 8 -118 -12z"/>
<path d="M3466 6384 c-21 -7 -90 -28 -155 -46 -64 -17 -118 -33 -120 -34 -9
-7 45 -157 80 -223 53 -98 89 -142 147 -180 80 -51 148 -36 192 42 30 52 38
181 16 251 l-15 49 32 -29 c18 -16 67 -62 110 -104 42 -41 77 -72 77 -68 0 12
-145 195 -218 276 -41 45 -82 82 -91 81 -9 0 -33 -7 -55 -15z"/>
<path d="M2865 6231 c-16 -6 -17 -9 -5 -17 8 -5 16 -20 17 -34 1 -14 3 -36 6
-50 22 -128 28 -168 25 -176 -3 -9 22 -75 43 -116 5 -10 9 -34 9 -53 0 -19 4
-35 9 -35 7 0 23 -89 22 -132 0 -21 15 -24 23 -5 3 6 3 -4 0 -23 l-6 -35 20
23 c24 27 62 162 62 220 0 29 -11 61 -37 109 -21 37 -64 126 -95 197 -31 72
-60 131 -65 133 -4 1 -17 -2 -28 -6z"/>
<path d="M4958 5783 c-1 -5 -43 -21 -92 -37 -104 -33 -264 -112 -391 -191 -89
-57 -200 -144 -192 -151 2 -3 33 13 68 35 95 57 354 183 430 209 37 12 108 31
160 43 51 11 95 21 96 23 5 4 -59 76 -67 76 -5 0 -10 -3 -12 -7z"/>
<path d="M6780 5356 c-6 -8 -18 -12 -26 -9 -23 9 -17 -37 13 -95 18 -34 32
-51 41 -47 8 3 31 8 53 11 21 4 39 9 39 13 0 13 -83 116 -91 114 -5 -2 -6 4
-3 12 8 19 -10 19 -26 1z"/>
<path d="M7211 5183 c-46 -140 -50 -163 -33 -163 9 0 26 -3 38 -6 18 -5 24 2
42 48 25 63 43 137 33 142 -3 2 -20 7 -37 10 -28 6 -31 4 -43 -31z"/>
<path d="M6099 3533 c-56 -59 -69 -89 -69 -156 0 -68 14 -113 42 -142 l23 -23
-3 69 c-4 79 15 156 57 227 49 83 20 98 -50 25z"/>
</g>
</svg>
