<?xml version="1.0" standalone="no"?>
<!DOCTYPE svg PUBLIC "-//W3C//DTD SVG 20010904//EN"
 "http://www.w3.org/TR/2001/REC-SVG-20010904/DTD/svg10.dtd">
<svg version="1.0" xmlns="http://www.w3.org/2000/svg"
 width="1200.000000pt" height="1200.000000pt" viewBox="0 0 1200.000000 1200.000000"
 preserveAspectRatio="xMidYMid meet">
<metadata>
Created by potrace 1.16, written by Peter Selinger 2001-2019
</metadata>
<g transform="translate(0.000000,1200.000000) scale(0.100000,-0.100000)"
fill="#000000" stroke="none">
<path d="M3073 10638 c-11 -13 -38 -54 -61 -93 -22 -38 -49 -80 -61 -93 -12
-12 -21 -29 -21 -36 0 -22 -12 -26 -41 -10 -34 17 -34 17 -83 -96 -24 -56 -37
-75 -51 -75 -31 0 -65 -70 -54 -109 5 -17 9 -32 9 -32 0 -4 -157 -93 -185
-106 -57 -25 -98 -88 -89 -137 4 -17 9 -31 13 -31 3 0 38 28 76 62 39 34 56
46 39 27 -17 -19 -46 -54 -64 -79 -19 -25 -54 -67 -77 -94 -41 -46 -43 -50
-27 -67 10 -11 23 -19 30 -19 7 0 67 64 133 143 66 78 141 168 168 199 26 31
52 57 57 57 5 1 36 31 69 67 34 37 63 62 65 56 2 -6 -15 -38 -37 -71 -23 -33
-41 -63 -41 -67 0 -4 -7 -12 -16 -19 -16 -11 -15 -14 6 -42 12 -17 29 -30 38
-29 32 5 57 -40 36 -61 -32 -33 49 -163 136 -218 40 -25 107 -49 132 -47 22 1
-4 -39 -154 -239 -65 -86 -118 -160 -118 -165 0 -5 12 6 26 24 14 17 32 32 40
32 9 0 12 5 8 12 -5 8 -2 9 11 4 16 -6 137 -26 160 -26 6 0 4 4 -4 9 -11 7
-10 13 4 35 18 27 53 34 73 14 6 -6 24 -12 39 -14 22 -1 18 3 -22 21 -98 46
-1 18 120 -34 97 -42 94 -40 50 -35 -35 4 -37 3 -17 -7 13 -7 22 -21 22 -36 0
-12 6 -23 13 -23 9 0 8 -3 -2 -9 -10 -6 -6 -13 18 -27 17 -10 31 -21 31 -25 0
-4 10 -10 23 -14 16 -5 18 -8 6 -11 -8 -3 -58 12 -110 31 -52 20 -101 38 -109
40 -8 2 -42 10 -75 19 l-60 15 -27 -26 c-21 -20 -34 -24 -62 -21 -20 2 -36 0
-36 -4 0 -24 94 -138 113 -138 5 0 28 -12 51 -28 22 -15 61 -36 86 -46 25 -11
59 -32 75 -46 17 -15 93 -71 170 -125 134 -94 143 -99 204 -104 l65 -6 48 -85
c78 -136 57 -127 312 -138 l219 -9 43 24 c24 14 48 22 54 18 6 -3 13 1 16 9 3
9 10 16 14 16 4 0 33 -43 65 -95 31 -52 73 -109 93 -126 34 -30 87 -99 76 -99
-3 0 1 -7 10 -15 8 -8 21 -12 29 -9 8 3 18 1 22 -5 3 -6 16 -11 28 -11 31 -1
83 -49 102 -93 8 -20 17 -37 20 -37 13 0 88 77 96 98 5 14 14 20 21 16 6 -4 8
-3 5 3 -4 6 0 16 8 23 8 7 15 9 15 5 0 -4 7 -2 15 5 8 7 13 16 10 20 -3 4 3
14 12 21 12 10 14 10 9 2 -16 -28 12 -10 67 42 31 30 63 55 70 55 8 0 18 -20
24 -47 l11 -48 -2 68 -3 68 170 141 c216 179 371 304 393 316 15 8 15 11 0 40
-9 17 -16 41 -16 53 0 21 2 20 25 -11 14 -19 25 -42 25 -52 0 -12 7 -18 21
-18 19 0 47 -20 137 -100 18 -16 25 -18 36 -8 12 11 7 27 -30 99 -24 47 -44
91 -44 98 0 7 -4 9 -10 6 -6 -3 -10 4 -10 17 0 14 -6 33 -14 43 -8 11 -12 24
-9 31 2 6 -19 42 -47 79 -28 37 -46 65 -41 63 19 -6 246 -198 258 -217 7 -11
10 -27 7 -36 -5 -11 6 -28 30 -49 40 -37 50 -64 16 -46 -30 16 -25 1 25 -76
40 -62 56 -104 39 -104 -4 0 -26 16 -50 35 -44 36 -54 41 -54 26 0 -4 18 -20
39 -35 22 -15 94 -86 161 -158 67 -71 119 -121 116 -111 -4 13 3 28 23 47 l28
27 38 -50 c20 -28 39 -51 41 -51 2 0 22 18 45 41 37 37 44 40 82 36 35 -4 48
0 82 26 22 17 47 35 55 41 8 6 4 -6 -9 -26 -19 -33 -20 -38 -6 -38 9 0 25 5
36 11 20 10 20 9 5 -20 -21 -39 -21 -58 -2 -42 11 9 20 10 35 2 14 -8 34 -8
68 -1 51 12 72 25 82 51 5 13 11 14 30 7 l24 -8 -21 -23 c-30 -32 -29 -65 3
-73 14 -3 25 -11 25 -18 0 -6 23 -29 50 -51 28 -22 53 -48 56 -57 3 -10 10
-18 16 -18 6 0 5 -7 -3 -17 -11 -13 -11 -17 -1 -20 6 -3 10 -9 7 -13 -10 -16
13 -20 25 -5 10 12 10 18 1 29 -10 12 -8 13 8 9 12 -3 21 -14 21 -25 0 -13 6
-18 18 -17 23 4 54 -7 130 -43 59 -28 67 -36 63 -65 -2 -14 30 -6 41 11 4 6
10 7 14 4 3 -4 -43 -57 -102 -119 -85 -86 -124 -119 -177 -145 l-68 -35 -37
22 c-35 20 -34 18 15 -30 44 -43 56 -51 78 -45 21 5 32 -1 60 -32 25 -27 32
-41 24 -50 -7 -8 -7 -14 1 -19 18 -11 11 -22 -44 -63 -51 -39 -55 -40 -70 -23
-9 10 -16 27 -16 39 0 15 -6 22 -20 22 -11 0 -20 5 -20 12 0 9 -3 9 -11 1 -9
-9 -23 -3 -55 24 -24 19 -44 42 -44 49 0 8 -7 14 -16 14 -8 0 -25 5 -36 11
-19 10 -20 13 -6 23 13 9 2 22 -66 78 -54 45 -84 64 -92 57 -7 -6 -35 10 -84
51 -78 63 -98 69 -62 20 12 -16 22 -34 22 -41 0 -6 12 -23 28 -37 15 -15 49
-60 77 -100 34 -51 78 -97 143 -150 52 -42 133 -110 181 -150 47 -41 95 -78
105 -84 16 -9 18 -8 11 8 -26 64 -21 65 48 11 l38 -30 -16 39 c-30 70 -28 70
19 2 25 -37 46 -70 46 -74 0 -9 91 -154 96 -154 3 0 -19 44 -47 98 l-52 97 36
-34 c21 -19 37 -33 37 -30 0 12 -61 160 -83 202 -14 26 -24 54 -21 61 5 14 47
36 67 36 15 0 133 -120 130 -132 -2 -4 3 -8 10 -8 7 0 21 -16 31 -35 11 -19
28 -41 40 -49 44 -29 176 -153 213 -201 59 -76 142 -210 176 -284 50 -110 114
-275 121 -314 9 -46 41 -68 62 -40 7 10 14 22 14 26 0 4 10 2 23 -4 12 -6 4 5
-18 24 -22 20 -43 36 -47 37 -4 0 -12 9 -18 21 -11 19 -10 20 9 9 16 -8 26 -7
46 6 23 15 27 15 62 -5 l38 -21 -30 25 c-16 14 -35 25 -42 25 -6 0 -15 5 -18
10 -4 6 -3 9 2 8 5 -2 24 10 42 25 37 31 36 12 14 187 -4 36 -11 49 -37 65
-29 19 -31 25 -34 84 -4 84 2 100 28 76 11 -10 22 -16 25 -13 11 11 -37 99
-63 116 -15 9 -34 24 -42 33 -30 32 -227 187 -305 240 -44 30 -139 90 -210
133 -95 58 -140 92 -168 128 -31 40 -42 47 -61 42 -34 -8 -41 12 -8 25 15 7
54 36 86 66 32 30 63 52 67 49 4 -2 47 36 95 86 82 85 89 90 129 90 38 0 47 5
89 50 38 41 46 56 46 87 0 44 -45 145 -96 216 l-35 48 20 66 c21 70 20 80 -9
91 -14 6 -16 12 -9 31 7 17 13 21 22 14 6 -6 134 -49 282 -97 149 -48 353
-114 454 -147 248 -81 328 -99 435 -99 133 0 184 20 268 102 37 37 68 72 68
78 0 6 9 30 19 53 44 97 100 234 106 259 7 27 29 43 47 32 5 -3 15 1 21 9 7 9
25 17 42 19 l29 3 -28 19 c-28 18 -30 18 -43 0 -9 -12 -16 -15 -23 -8 -8 8 -4
27 11 65 27 70 44 131 69 254 25 120 20 184 -19 271 -51 109 -115 144 -503
273 -153 51 -278 96 -278 100 0 19 17 17 93 -8 45 -16 107 -34 137 -41 30 -7
95 -26 144 -42 49 -15 91 -26 94 -23 6 6 23 -1 -230 83 -114 38 -214 74 -222
81 -9 7 -31 14 -50 16 -20 2 -145 40 -278 84 -134 44 -256 83 -273 86 -40 8
71 -41 160 -70 55 -18 280 -95 354 -121 10 -3 11 -8 4 -15 -13 -13 -8 -14
-683 208 -278 91 -509 170 -514 174 -5 5 -4 14 3 23 12 14 16 14 42 1 15 -8
36 -15 47 -15 10 0 22 -4 27 -8 15 -13 153 -54 165 -50 7 2 -48 23 -122 47
-73 24 -140 50 -149 57 -8 8 -21 14 -27 14 -7 0 -12 5 -12 11 0 9 -4 9 -13 0
-11 -8 -43 -1 -133 30 -334 115 -538 170 -521 142 4 -6 32 -13 64 -16 32 -3
151 -37 263 -76 113 -38 227 -75 255 -84 51 -15 60 -23 47 -44 -6 -10 -64 6
-233 62 -279 94 -368 113 -444 96 -73 -17 -163 -78 -208 -143 -21 -29 -37 -45
-37 -37 0 23 92 141 140 179 22 18 60 38 83 46 25 7 33 13 20 13 -56 2 -163
-69 -216 -143 -12 -17 -54 -125 -93 -241 l-71 -210 -34 3 -34 2 28 -23 29 -23
-25 -79 c-14 -44 -38 -120 -54 -170 -24 -78 -28 -105 -27 -200 1 -119 10 -149
63 -222 24 -33 51 -52 123 -87 51 -25 123 -55 161 -68 37 -13 67 -27 67 -32 0
-5 -34 -42 -76 -83 -42 -41 -74 -68 -71 -60 5 13 0 14 -26 5 -18 -5 -37 -10
-43 -11 -6 -1 -83 61 -170 139 -87 77 -172 151 -188 165 -16 13 -39 35 -52 49
-13 14 -24 20 -24 14 0 -7 7 -17 15 -24 24 -20 17 -30 -20 -30 -44 0 -46 -22
-7 -64 l27 -29 -30 20 c-16 12 -39 30 -49 42 -11 12 -24 21 -30 21 -6 -1 18
-28 54 -62 36 -33 53 -53 38 -44 -34 20 -34 18 -2 -45 30 -60 36 -62 -132 63
-72 54 -138 98 -147 98 -17 0 -57 58 -57 83 0 9 -13 23 -28 31 -15 8 -50 33
-77 55 -72 59 -86 56 -208 -41 -132 -106 -167 -131 -167 -118 0 5 4 10 9 10 5
0 13 11 18 25 4 13 50 67 101 119 50 52 92 100 92 108 0 7 9 28 20 46 26 42
25 54 -1 22 -11 -14 -18 -19 -14 -12 4 7 -1 24 -10 38 -15 24 -15 27 0 44 16
17 14 19 -37 29 -29 6 -73 16 -98 21 -87 19 -312 60 -329 60 -9 0 -27 -9 -41
-19 -24 -19 -25 -19 -72 0 -26 10 -95 48 -152 83 -176 109 -171 107 -252 90
-92 -20 -122 -19 -148 5 -12 12 -27 21 -34 21 -15 0 -199 221 -354 428 l-131
173 -26 -25 c-21 -20 -30 -23 -39 -14 -20 20 -15 -42 6 -65 16 -19 16 -20 -3
-9 -11 6 -60 45 -110 87 -49 42 -91 71 -93 65 -4 -12 56 -90 69 -90 6 0 17
-17 26 -37 8 -21 35 -69 60 -107 25 -38 46 -77 48 -87 4 -22 27 -57 159 -248
103 -150 135 -213 79 -153 -44 46 -468 654 -465 667 1 6 -16 28 -38 48 l-40
36 -55 -82 -55 -81 22 -23 c12 -13 26 -23 32 -22 7 0 7 2 0 5 -17 7 7 55 25
49 8 -3 11 0 9 7 -3 7 5 24 18 37 l22 24 39 -40 c47 -48 129 -162 143 -197 5
-14 12 -67 14 -117 3 -50 9 -96 14 -103 5 -6 8 -30 8 -53 l-1 -42 98 -47 c76
-37 108 -59 139 -95 22 -26 46 -45 53 -43 7 3 16 0 20 -5 3 -6 11 -9 16 -6 5
4 21 -3 35 -14 14 -11 42 -23 63 -27 41 -6 101 -34 101 -47 0 -4 4 -6 9 -3 5
3 14 0 20 -8 6 -7 33 -21 59 -31 26 -10 51 -22 57 -26 5 -5 17 -9 26 -9 10 0
21 -5 24 -11 16 -25 -89 7 -233 72 -23 10 -48 19 -56 19 -7 0 -34 11 -60 25
-26 14 -86 41 -134 61 -48 20 -91 39 -97 43 -5 4 -38 18 -73 31 -34 12 -67 31
-73 41 -7 14 -6 19 2 19 7 0 10 3 7 6 -3 3 -51 6 -107 7 -90 2 -101 0 -101
-15 0 -25 -15 -22 -77 12 -64 36 -70 37 -113 5 -19 -14 -38 -25 -42 -25 -15 0
-8 35 16 76 l23 41 -27 30 c-36 40 -75 47 -114 19 -36 -25 -65 -53 -62 -58 10
-11 15 -58 7 -58 -17 0 -90 106 -124 178 -41 87 -47 178 -17 237 17 34 20 36
16 13 -4 -34 0 -35 30 -3 13 14 26 25 30 25 4 0 37 28 73 63 61 58 81 80 155
180 l29 37 -24 -4 c-13 -2 -30 1 -37 7 -9 7 -16 6 -25 -3 -10 -10 -9 -12 6 -7
9 4 17 2 17 -4 0 -7 -10 -9 -24 -5 -16 4 -26 1 -30 -9 -3 -8 -21 -23 -41 -32
-20 -9 -34 -22 -31 -29 3 -7 -1 -14 -7 -17 -7 -3 -24 -29 -39 -58 -27 -55 -73
-107 -84 -96 -4 4 -2 12 3 19 14 19 135 248 130 248 -2 0 -13 -10 -24 -22z
m4380 -691 c69 -32 128 -76 159 -120 16 -24 11 -20 -23 13 -51 52 -121 90
-166 90 -40 0 -69 -35 -78 -93 -11 -63 -32 -97 -72 -113 -63 -27 -126 10 -154
89 -7 21 -19 43 -26 49 -36 30 -123 -44 -174 -147 -29 -60 -33 -76 -32 -149 0
-59 6 -97 22 -139 31 -79 117 -171 196 -209 33 -15 54 -28 47 -28 -7 0 -35 11
-63 25 -241 123 -291 434 -102 636 90 97 175 131 313 126 78 -2 106 -8 153
-30z m-3533 -258 c0 -4 -6 -10 -12 -13 -7 -3 -4 -5 7 -5 48 3 76 -2 71 -10 -4
-5 14 -17 39 -27 33 -12 44 -21 40 -32 -3 -8 0 -21 6 -28 8 -10 8 -18 0 -27
-6 -8 -9 -23 -6 -35 4 -23 -18 -47 -35 -37 -20 13 -9 -23 13 -39 22 -17 22
-17 -8 -9 -16 4 -49 7 -72 8 -31 0 -49 7 -70 26 -15 15 -53 35 -83 45 -80 25
-90 29 -143 53 -26 11 -57 21 -68 21 -13 0 -18 4 -13 12 5 7 2 9 -8 5 -9 -3
-24 0 -33 7 -14 10 -15 16 -6 34 14 26 12 26 58 7 49 -20 73 -19 100 7 13 12
23 16 23 10 0 -8 7 -9 26 -1 15 5 29 8 31 5 3 -3 19 4 35 14 29 18 108 24 108
9z m4872 -180 c121 -26 227 -108 281 -218 29 -61 32 -74 32 -166 0 -91 -3
-106 -31 -166 -106 -223 -355 -315 -569 -210 -79 39 -141 101 -179 181 -29 60
-31 73 -31 170 0 100 2 109 34 175 43 88 113 158 195 196 99 46 176 57 268 38z"/>
<path d="M8750 9465 c-9 -11 -10 -28 -3 -65 6 -28 8 -62 5 -75 -7 -37 -57 -75
-99 -75 -30 0 -45 9 -89 54 -89 91 -133 85 -204 -25 -107 -166 -40 -415 139
-512 108 -59 218 -57 358 8 271 125 325 442 106 634 -69 62 -184 91 -213 56z"/>
<path d="M3202 10388 c-20 -20 -13 -30 10 -14 12 9 34 16 48 16 l25 -1 -33
-27 c-24 -20 -32 -35 -32 -58 0 -70 110 -239 199 -306 99 -75 178 15 121 140
-28 62 -124 185 -168 215 -21 15 -48 27 -59 27 -12 0 -25 5 -28 10 -9 14 -68
13 -83 -2z"/>
<path d="M1285 9855 c-128 -7 -231 -17 -246 -24 -14 -7 -57 -56 -95 -109 -38
-53 -84 -112 -101 -133 -18 -20 -33 -40 -33 -44 0 -7 -76 -112 -144 -200 -25
-32 -31 -49 -30 -85 1 -55 56 -175 111 -241 80 -96 327 -359 338 -359 6 0 76
86 155 190 l145 190 81 40 81 40 184 -69 c325 -122 554 -183 744 -197 127 -9
139 -3 90 42 -29 26 -36 37 -27 46 18 18 14 27 -10 20 -18 -4 -20 -2 -14 14
17 40 27 100 23 130 -4 26 2 40 39 85 40 49 42 54 23 57 -11 2 -35 -4 -54 -12
-39 -19 -69 -22 -45 -5 12 9 12 10 -3 5 -10 -3 -21 -6 -23 -6 -3 0 -3 -4 0 -9
9 -14 -124 -44 -193 -43 -119 3 -232 27 -289 62 -58 36 -113 39 -118 7 -1 -11
-5 -21 -8 -24 -10 -10 -117 89 -152 141 -33 49 -48 91 -19 52 22 -29 30 -12
27 65 -2 86 13 120 68 151 22 13 40 28 40 33 0 6 -42 54 -93 108 l-92 97 -70
-1 c-39 -1 -169 -7 -290 -14z"/>
<path d="M1974 9605 c-9 -23 14 -72 43 -90 13 -9 42 -32 63 -51 50 -45 118
-70 138 -50 44 43 -133 206 -225 206 -7 0 -16 -7 -19 -15z"/>
<path d="M2580 9173 c-20 -25 -20 -28 -5 -31 15 -3 17 -12 11 -57 -3 -29 -9
-61 -13 -71 -6 -16 -1 -17 55 -11 52 6 61 4 64 -11 3 -13 9 -10 25 16 11 18
44 50 72 72 52 38 80 67 81 83 0 4 -18 -6 -40 -24 -59 -48 -122 -38 -196 33
l-31 29 -23 -28z"/>
<path d="M3195 8204 c-198 -119 -380 -228 -405 -241 -25 -14 -52 -31 -60 -38
-8 -7 -28 -20 -45 -29 -16 -10 -21 -14 -10 -11 11 4 25 8 32 9 7 1 16 6 20 10
4 4 22 14 38 21 22 9 596 349 784 464 7 4 12 13 10 20 -2 6 -158 -81 -364
-205z"/>
<path d="M3601 8215 l-44 -55 -22 20 -21 20 -85 -52 c-46 -28 -154 -94 -239
-146 -85 -53 -195 -120 -245 -151 -128 -78 -187 -123 -226 -173 -19 -23 -60
-71 -91 -106 -65 -71 -256 -314 -264 -335 -5 -15 117 -137 138 -137 19 0 33
12 47 38 7 12 16 20 20 18 4 -3 23 8 42 24 19 16 43 29 54 30 11 0 148 86 305
190 156 105 287 190 291 190 8 0 377 444 385 463 3 10 -10 33 -36 61 l-42 46
28 36 c41 51 57 74 53 74 -2 0 -24 -25 -48 -55z"/>
<path d="M4353 7945 c-33 -33 -34 -37 -32 -97 3 -70 12 -90 99 -213 32 -44 65
-95 74 -113 l18 -34 -34 7 c-18 4 -89 22 -157 41 -162 45 -198 50 -244 30 -49
-20 -69 -65 -61 -133 7 -55 18 -75 88 -158 50 -61 106 -143 106 -156 0 -12
-90 17 -215 68 -122 49 -174 55 -214 25 -27 -20 -39 -69 -25 -100 4 -10 6 -26
5 -37 -1 -12 23 -50 62 -95 55 -65 104 -132 131 -178 7 -12 -155 43 -211 71
-16 9 -56 25 -90 36 -68 23 -109 17 -150 -20 -20 -20 -23 -31 -21 -88 l2 -65
71 -85 c83 -101 119 -150 112 -157 -2 -3 -56 14 -118 37 -255 92 -241 89 -284
79 -51 -11 -85 -50 -85 -96 0 -20 5 -34 12 -34 9 0 9 -3 0 -12 -21 -21 -13
-41 73 -171 47 -71 85 -132 85 -137 0 -13 -114 18 -241 65 -156 59 -198 62
-248 19 -29 -24 -31 -30 -29 -90 2 -69 2 -69 89 -180 59 -76 102 -144 90 -144
-6 0 -63 16 -128 36 -164 50 -253 74 -285 74 -32 0 -78 -50 -78 -86 0 -33 17
-64 35 -64 10 0 12 -9 8 -34 -5 -32 0 -40 91 -136 53 -56 95 -105 92 -107 -2
-3 -65 6 -138 20 -201 38 -203 38 -250 28 -75 -17 -114 -80 -89 -143 5 -13 12
-36 16 -52 4 -18 45 -69 115 -140 l108 -111 -159 3 c-149 3 -162 2 -194 -18
-69 -42 -80 -84 -44 -164 23 -53 74 -97 204 -177 47 -29 82 -55 78 -59 -4 -4
-46 -12 -93 -18 -158 -20 -185 -29 -240 -81 -43 -41 -50 -52 -50 -85 0 -48 35
-120 77 -160 17 -17 70 -52 118 -77 l86 -46 -97 -23 c-54 -12 -118 -31 -143
-43 -25 -11 -59 -19 -74 -18 -20 1 -35 -6 -48 -23 -22 -28 -159 -116 -186
-120 -37 -6 -22 -32 39 -70 48 -30 65 -36 79 -28 13 8 33 -1 100 -45 l83 -56
-53 -20 c-65 -25 -146 -103 -162 -157 -9 -30 -8 -42 4 -66 23 -44 74 -94 94
-94 21 0 175 92 181 108 2 6 -13 14 -32 18 -20 3 -38 10 -41 14 -7 11 182 73
201 66 9 -4 14 -16 12 -33 -3 -24 3 -31 44 -52 l47 -24 68 22 c80 24 87 25 77
9 -6 -10 -4 -10 7 0 20 19 25 15 26 -23 1 -19 -3 -33 -7 -30 -5 3 -14 -3 -19
-14 -8 -14 -6 -51 9 -136 11 -64 20 -121 20 -126 0 -5 11 -4 24 1 21 7 26 6
31 -10 3 -11 19 -29 35 -40 19 -13 31 -33 34 -53 23 -147 38 -232 41 -235 2
-2 22 6 45 18 62 32 59 18 -5 -21 l-55 -33 5 -66 4 -65 -10 54 c-5 30 -12 57
-14 60 -13 12 -13 -12 -3 -107 6 -56 9 -105 5 -108 -3 -3 -79 -1 -169 5 -212
14 -338 14 -338 0 0 -7 -28 -10 -87 -8 l-88 4 -5 -34 c-4 -30 -14 -38 -85 -78
-114 -64 -215 -125 -215 -129 0 -2 32 12 70 31 39 19 70 33 70 31 0 -2 -48
-31 -107 -64 -60 -33 -125 -72 -146 -86 -22 -15 -37 -21 -37 -13 -1 13 -45
-88 -55 -126 l-6 -22 13 22 c11 19 13 14 13 -48 0 -38 -2 -69 -4 -69 -2 0 -16
11 -33 25 l-29 25 -87 -61 c-48 -33 -214 -149 -370 -257 -254 -177 -283 -200
-291 -232 -5 -19 -15 -109 -22 -200 -12 -162 -12 -166 10 -207 12 -24 19 -43
16 -43 -9 0 -45 79 -45 100 0 17 -6 20 -42 20 -24 0 -59 -3 -80 -6 -39 -7 -41
-11 -54 -111 -6 -47 -16 -53 -87 -53 -65 0 -66 -1 -76 -83 -6 -50 -7 -52 -38
-55 l-33 -3 0 -65 c0 -60 -2 -65 -26 -74 -25 -10 -25 -12 -23 -91 1 -57 -2
-83 -11 -89 -27 -17 17 -223 72 -337 36 -77 134 -183 167 -183 12 0 54 -11 94
-25 101 -36 185 -53 312 -65 72 -6 1304 -10 3522 -10 l3412 0 133 30 c202 44
360 70 503 80 72 5 153 12 180 15 28 3 133 10 235 15 206 11 475 33 590 49 41
6 125 18 185 27 61 9 135 19 166 24 31 4 69 16 85 25 16 10 65 42 109 70 44
28 139 82 210 120 285 150 365 226 365 348 0 66 -12 97 -89 224 -32 54 -79
139 -104 189 -26 51 -65 111 -90 136 -118 122 -421 201 -677 178 -52 -4 -151
-16 -220 -26 -132 -18 -198 -16 -1145 27 -199 9 -476 33 -660 58 -38 6 -133
17 -210 26 -77 8 -171 20 -210 25 -92 12 -246 25 -265 21 -8 -2 -13 0 -10 2 3
3 296 132 650 286 355 153 670 293 700 310 30 17 61 31 68 31 18 0 15 -21 -5
-36 -16 -12 -12 -13 33 -14 61 0 82 14 86 58 3 34 5 35 153 99 140 60 157 71
270 165 166 140 152 124 132 146 -18 20 -23 47 -7 37 13 -8 13 -2 -5 60 -9 28
-31 78 -50 110 -19 31 -35 59 -35 62 0 3 -15 30 -34 62 -18 32 -39 75 -46 97
-7 21 -25 53 -41 69 -16 17 -36 52 -45 79 -10 29 -19 43 -24 36 -5 -8 -11 0
-19 21 -22 64 -8 88 31 52 17 -15 18 -15 18 0 0 10 6 17 13 17 8 0 21 -28 33
-67 20 -69 38 -89 47 -53 4 14 -5 38 -24 68 -34 53 -35 59 -12 84 20 23 12 23
-81 2 -107 -24 -119 -30 -105 -53 7 -11 19 -16 31 -13 11 2 18 -1 18 -9 0 -8
12 -36 25 -64 14 -27 25 -55 25 -62 0 -19 70 -145 96 -173 19 -21 54 -97 54
-119 0 -3 -20 24 -45 61 -25 37 -45 69 -45 71 0 3 -20 34 -45 71 -24 37 -52
82 -61 102 -9 19 -32 51 -50 70 -19 19 -34 38 -34 43 0 18 -28 30 -93 39 l-67
9 0 -34 c0 -23 19 -65 65 -141 l64 -107 -39 -3 c-32 -3 -37 -6 -28 -16 10 -10
20 -11 41 -4 15 6 30 8 33 5 3 -3 -8 -8 -24 -12 -39 -8 -47 -30 -22 -57 24
-26 25 -34 6 -41 -19 -8 -48 26 -40 47 4 11 1 16 -10 16 -9 0 -22 12 -29 28
-6 15 -16 30 -22 34 -6 5 -3 8 8 8 9 0 17 4 17 10 0 5 -7 6 -17 3 -12 -5 -14
-3 -8 7 6 10 4 12 -8 7 -9 -3 -18 1 -21 9 -4 11 3 19 24 27 34 13 36 19 15 37
-11 9 -22 9 -44 2 -20 -7 -32 -7 -39 0 -8 8 -42 -18 -112 -83 -100 -92 -122
-105 -188 -108 l-33 -1 28 35 c15 19 40 37 55 40 16 4 28 13 28 20 0 8 10 25
23 39 19 21 30 24 58 20 74 -12 115 32 64 68 -22 17 -26 17 -67 0 -24 -11 -72
-22 -108 -25 -81 -8 -170 -36 -207 -65 -28 -23 -49 -29 -38 -12 3 5 2 10 -2
10 -5 0 -47 -39 -93 -86 -62 -63 -78 -84 -60 -79 14 4 29 14 33 21 9 15 97 20
97 5 0 -4 24 -7 53 -5 28 2 -8 -6 -82 -17 -109 -16 -136 -17 -143 -7 -10 17
-10 31 1 24 10 -7 34 19 37 41 4 23 25 43 61 58 18 8 33 19 33 25 0 18 -52 60
-74 60 -12 0 -27 5 -33 11 -9 9 -29 15 -55 18 -16 2 -7 21 9 21 14 0 12 5 -10
25 -20 20 -25 30 -18 43 5 9 5 26 1 38 l-8 20 -143 -21 c-79 -12 -205 -30
-279 -39 -74 -10 -162 -21 -195 -26 -92 -14 -434 -57 -590 -75 -77 -9 -273
-33 -435 -55 -162 -21 -323 -42 -357 -45 -53 -6 -63 -10 -63 -26 0 -30 4 -34
25 -32 73 9 604 77 715 93 216 30 350 47 770 100 217 27 414 52 437 55 35 5
42 4 37 -8 -3 -9 -15 -18 -27 -21 -12 -2 -249 -35 -527 -71 -561 -73 -1022
-134 -1267 -166 l-163 -22 0 -39 c0 -34 -13 -56 -102 -173 -85 -111 -109 -136
-138 -144 -43 -12 -499 -75 -504 -70 -7 8 -65 206 -77 261 -8 39 -9 61 -2 70
6 7 13 28 17 47 5 29 4 32 -12 26 -14 -5 -279 -84 -344 -102 -10 -3 -18 -1
-18 3 0 12 84 56 101 53 18 -4 58 10 88 30 13 9 51 25 85 36 l61 20 3 70 c2
49 -2 83 -15 115 -9 25 -18 47 -19 50 -14 48 -31 70 -54 70 -31 0 -218 -42
-289 -65 -20 -6 -23 -4 -18 9 5 12 1 16 -14 16 -23 0 -79 -30 -79 -42 0 -4 -4
-8 -8 -8 -5 0 -14 30 -22 68 -7 37 -18 78 -25 92 -14 28 -28 101 -27 143 0 15
-4 27 -10 27 -6 0 -78 -20 -160 -45 -162 -49 -173 -54 -476 -217 -113 -60
-206 -107 -208 -105 -3 2 106 64 240 138 135 73 244 135 242 137 -2 2 -114
-55 -247 -126 -134 -72 -247 -128 -251 -126 -4 3 -31 50 -60 105 -29 56 -58
103 -64 106 -9 3 -319 -157 -392 -204 -13 -8 -26 -13 -28 -10 -2 2 84 53 192
112 179 100 273 157 204 124 -14 -6 -112 -59 -218 -117 -106 -57 -194 -103
-197 -101 -4 5 -38 276 -50 400 -6 63 -5 66 19 77 21 10 26 18 26 51 0 22 6
44 15 51 9 7 14 17 12 23 -1 5 -86 44 -187 87 l-184 78 39 10 c22 6 66 17 97
25 74 19 117 45 145 87 56 81 13 143 -159 230 -205 105 -200 93 -46 119 181
29 203 36 253 82 54 50 63 84 37 141 -22 50 -68 94 -170 159 l-73 47 109 3
c99 4 113 7 150 32 23 15 51 45 62 66 18 37 19 42 4 91 -13 43 -32 70 -107
148 -71 73 -86 94 -67 89 77 -17 186 -29 237 -25 45 3 69 11 101 34 89 63 89
148 -2 286 l-16 25 52 -14 c116 -31 231 5 269 83 28 58 21 114 -24 206 l-33
67 25 -6 c15 -3 37 -10 50 -15 53 -19 166 -21 219 -4 61 21 108 71 114 122 5
47 -17 128 -52 191 -17 29 -30 54 -30 56 0 2 33 -8 73 -22 53 -18 93 -25 153
-25 73 -1 85 2 121 27 23 16 47 42 53 58 18 42 8 125 -22 190 l-25 55 51 -13
c145 -38 266 14 281 121 6 42 -25 169 -45 181 -22 14 -8 23 22 14 98 -28 221
3 259 65 40 65 16 190 -58 297 l-31 45 87 -23 c147 -38 236 -28 291 32 22 24
25 35 25 103 -1 87 -16 127 -88 235 l-44 65 46 -14 c97 -28 166 -44 194 -44
l30 0 -7 65 c-11 105 -14 109 -103 134 -268 76 -288 78 -340 26z m-461 -4749
c-87 -33 -104 -50 -98 -100 5 -47 14 -90 26 -126 5 -14 11 -37 14 -52 12 -56
101 -73 221 -43 33 9 74 18 90 21 17 3 38 10 47 15 21 11 38 12 38 0 0 -11
-35 -24 -125 -49 -228 -63 -249 -71 -381 -140 -10 -5 -89 -44 -174 -86 -85
-42 -251 -126 -368 -187 -118 -61 -217 -108 -220 -104 -12 12 48 51 171 111
43 21 82 45 87 54 5 9 33 26 62 37 30 11 72 33 93 48 22 14 52 29 68 32 15 3
27 9 27 12 0 4 16 7 35 8 19 1 42 8 51 17 9 9 38 28 65 42 27 13 49 28 49 33
0 5 17 12 37 16 21 4 50 16 65 27 25 17 28 26 28 71 0 47 -18 166 -36 240 -10
41 -26 43 -97 12 -34 -14 -57 -22 -52 -17 24 23 182 96 243 112 94 25 108 23
34 -4z m696 -273 c-2 -9 -14 -20 -28 -24 -14 -4 -70 -21 -125 -38 -55 -17
-181 -53 -279 -81 -117 -32 -209 -65 -265 -94 -47 -24 -105 -46 -129 -50 -24
-4 -70 -20 -102 -36 -58 -29 -94 -39 -75 -21 24 23 316 167 370 182 33 9 114
33 180 53 66 20 185 55 265 77 79 22 147 42 149 45 2 2 13 4 23 4 13 0 18 -6
16 -17z m-1011 -394 c-10 -6 -25 -8 -33 -5 -17 7 -47 -18 -36 -29 4 -4 -6 -5
-23 -1 -21 5 -26 4 -15 -3 8 -6 12 -12 10 -14 -10 -8 -320 -167 -344 -177 -52
-19 -24 6 49 45 73 39 85 50 65 57 -5 2 48 33 118 70 105 55 135 66 177 67 40
0 46 -2 32 -10z m-1887 -318 c5 -11 10 -41 10 -66 0 -25 -5 -55 -10 -66 -6
-10 -8 -19 -5 -19 2 0 43 19 89 42 l84 41 33 -28 c19 -15 34 -32 33 -36 -1 -5
-2 -20 -2 -34 -2 -18 -13 -30 -42 -45 -22 -11 -40 -17 -40 -13 0 3 -10 -3 -22
-15 -13 -11 -41 -31 -64 -44 -85 -48 -113 -84 -120 -153 -1 -11 3 -26 8 -32
13 -16 48 -17 48 -2 0 6 7 9 15 5 18 -7 95 25 113 47 25 30 99 66 143 71 28 2
96 30 188 75 79 40 148 70 154 68 6 -2 -38 -30 -98 -62 -130 -68 -218 -119
-190 -110 54 19 75 23 80 15 5 -8 -125 -82 -257 -146 -55 -27 -58 -29 -103
-126 -29 -62 -44 -106 -40 -116 5 -12 22 16 60 95 l53 113 99 49 c54 27 151
76 216 109 103 52 200 83 215 68 5 -6 -125 -67 -193 -91 -105 -36 -115 -40
-115 -47 0 -5 5 -8 11 -8 5 0 7 -4 4 -10 -3 -5 -15 -10 -26 -10 -10 0 -19 -3
-19 -8 0 -4 -10 -12 -22 -17 -13 -6 -39 -47 -69 -113 l-48 -103 37 -16 c30
-14 33 -17 17 -21 -11 -2 -24 -8 -29 -12 -10 -10 78 -25 99 -16 16 6 251 -89
261 -106 5 -7 -6 -8 -32 -3 -22 4 -70 8 -109 9 -38 2 -83 8 -99 14 -45 19 -41
7 4 -13 78 -35 -13 -44 -96 -9 -18 8 -45 14 -59 14 -14 0 -25 6 -25 13 0 16
-56 41 -75 33 -8 -3 -15 -1 -15 4 0 6 -13 10 -29 10 -16 0 -31 4 -33 9 -1 4
-32 11 -67 14 -45 4 -60 2 -50 -5 10 -7 7 -8 -13 -4 -18 4 -28 2 -28 -5 0 -6
-7 -9 -15 -6 -8 4 -17 2 -21 -4 -3 -5 -14 -7 -25 -4 -11 4 -19 2 -19 -5 0 -7
-7 -10 -15 -7 -8 4 -17 2 -21 -4 -3 -6 -12 -8 -20 -5 -7 3 -16 1 -20 -5 -3 -5
-14 -7 -25 -4 -11 4 -19 2 -19 -5 0 -7 -8 -9 -20 -5 -12 4 -20 2 -20 -5 0 -7
-8 -9 -20 -5 -12 4 -20 2 -20 -5 0 -7 -8 -10 -18 -8 -27 7 -58 -36 -53 -75 2
-19 -26 -53 -36 -43 -3 3 -12 1 -19 -5 -7 -6 -29 -11 -48 -12 -20 -1 -36 -6
-36 -11 0 -4 -11 -6 -25 -4 -14 3 -25 1 -25 -5 0 -5 -9 -7 -20 -4 -11 3 -20 1
-20 -5 0 -6 -11 -8 -25 -6 -14 3 -25 1 -25 -3 0 -5 -10 -9 -22 -8 -22 0 -22 1
-3 9 20 9 20 9 -1 15 -30 9 -56 81 -52 141 l3 48 130 93 c72 52 131 100 133
108 2 8 9 12 15 9 7 -2 61 27 121 66 59 39 121 77 137 86 l30 15 -16 -25 c-19
-28 -15 -31 47 -40 26 -4 50 -11 53 -17 4 -5 11 -7 16 -3 5 3 9 2 8 -3 -1 -4
1 -15 4 -23 3 -8 13 -51 22 -95 14 -71 35 -122 35 -86 0 7 6 27 14 44 7 18 19
52 27 77 7 25 17 51 22 57 10 13 3 79 -14 146 -8 30 -18 41 -47 55 -20 9 -38
17 -40 18 -1 1 12 38 30 83 28 73 36 85 70 102 37 19 38 22 32 55 -5 27 -2 38
12 48 16 12 17 18 6 52 -6 20 -9 41 -6 46 9 14 23 9 34 -11z m4530 -687 c-51
-17 -106 -26 -480 -84 -146 -22 -314 -49 -375 -60 -60 -11 -128 -22 -150 -25
-81 -9 -120 -18 -140 -30 -11 -7 -45 -16 -75 -19 -30 -4 -109 -18 -175 -31
-66 -14 -165 -30 -219 -36 -69 -9 -93 -15 -80 -21 14 -6 10 -7 -13 -5 -18 2
-33 0 -33 -4 0 -4 -21 -11 -47 -14 -27 -3 -66 -10 -88 -15 -22 -5 -80 -14
-130 -20 -49 -6 -121 -18 -160 -25 -77 -16 -360 -61 -710 -115 -71 -11 -189
-29 -261 -40 -139 -21 -374 -28 -374 -10 0 6 -16 10 -35 10 -43 0 -82 17 -88
40 -6 23 -94 64 -139 64 -20 1 -32 3 -27 7 6 4 3 9 -8 13 -17 7 -17 8 0 17 9
6 27 11 40 13 37 4 77 18 77 26 0 7 -80 45 -230 108 -43 18 -43 19 -18 25 19
5 48 -3 104 -29 44 -20 124 -56 179 -79 103 -44 165 -75 153 -75 -3 0 -14 -3
-24 -7 -11 -4 -15 -3 -11 4 4 6 -1 14 -10 18 -10 3 -19 1 -21 -4 -2 -6 -9 -9
-15 -5 -7 3 -4 -1 6 -9 17 -14 16 -15 -10 -22 -20 -5 -23 -9 -13 -15 7 -4 24
-4 38 1 16 6 35 5 57 -2 24 -9 40 -9 64 -1 26 9 40 8 68 -3 25 -11 72 -15 157
-15 107 0 127 3 170 24 33 16 57 21 74 17 25 -7 62 -2 472 59 113 17 264 40
335 50 72 11 175 26 230 35 149 23 945 142 1135 170 417 61 758 115 785 124
17 5 37 9 45 9 8 0 -5 -7 -30 -14z"/>
<path d="M2027 7799 c-81 -102 -85 -109 -61 -109 37 0 310 -216 325 -257 3
-11 30 16 87 88 72 91 79 105 63 111 -10 3 -22 11 -26 17 -3 6 -73 67 -154
135 l-148 124 -86 -109z"/>
<path d="M9493 7833 c-18 -16 -167 -191 -203 -236 -16 -21 -16 23 6 -727 9
-313 19 -529 25 -537 6 -6 20 -13 32 -15 19 -3 23 -11 29 -68 9 -91 -1 746
-12 1020 -5 124 -10 258 -10 297 l0 73 85 95 c47 53 83 101 80 106 -8 12 -10
12 -32 -8z"/>
<path d="M9613 7803 c-66 -82 -64 -79 -43 -80 11 -1 77 -11 146 -23 70 -11
130 -17 134 -13 55 68 81 105 78 108 -2 3 -49 13 -104 24 -189 36 -167 38
-211 -16z"/>
<path d="M5700 7516 c30 -32 82 -79 115 -104 33 -25 62 -49 65 -52 3 -4 41
-33 85 -66 78 -59 728 -556 1258 -963 148 -113 301 -228 342 -256 40 -27 106
-77 146 -109 105 -85 99 -80 99 -64 0 8 -60 61 -132 116 -73 56 -198 152 -278
214 -80 61 -422 322 -760 580 -617 470 -838 639 -940 719 l-55 42 55 -57z"/>
<path d="M9455 7195 c6 -421 24 -1088 31 -1094 2 -2 7 -1 10 2 9 9 -26 1395
-37 1437 -5 21 -7 -117 -4 -345z"/>
<path d="M10813 7468 c-133 -170 -173 -227 -173 -246 0 -37 21 -35 63 6 23 22
71 62 106 90 l64 51 -2 78 c-1 43 -4 79 -6 81 -1 2 -25 -25 -52 -60z"/>
<path d="M9622 7428 c-37 -37 16 -128 76 -128 29 0 62 26 62 49 0 7 -11 22
-25 33 -14 11 -25 25 -25 33 0 25 -66 35 -88 13z"/>
<path d="M6606 7266 c-42 -51 -76 -101 -76 -109 0 -19 162 -147 195 -153 13
-2 27 0 30 6 8 13 29 -2 227 -157 144 -113 179 -136 177 -115 0 11 -386 306
-405 311 -12 2 -15 -2 -11 -12 11 -28 -36 -5 -111 56 -74 60 -93 83 -76 96 25
18 142 171 130 171 -2 0 -38 -42 -80 -94z"/>
<path d="M5020 7199 c-13 -8 -10 -13 14 -32 16 -12 38 -30 50 -40 l21 -18 -24
7 c-16 4 -21 3 -17 -5 4 -6 3 -11 -2 -11 -16 0 -49 -64 -57 -109 -9 -52 5 -53
42 -5 57 74 76 95 80 90 3 -3 -28 -54 -69 -113 -142 -205 -177 -268 -184 -327
l-7 -54 41 -27 c46 -30 58 -28 67 16 6 24 131 207 167 244 16 15 -11 -34 -49
-92 -33 -50 -56 -133 -37 -133 5 0 21 14 36 32 26 32 26 32 21 6 -7 -37 30
-58 58 -32 22 20 25 7 4 -20 -20 -26 -19 -53 2 -65 10 -5 15 -13 11 -16 -4 -4
-27 7 -52 24 -24 17 -48 31 -53 31 -5 0 -16 -12 -26 -27 -42 -68 -40 -67 -91
-32 -25 18 -46 36 -46 41 0 4 -8 8 -19 8 -17 0 -121 -128 -121 -150 0 -10 11
-13 91 -31 41 -8 56 -16 55 -28 0 -9 6 -16 15 -16 9 0 23 -5 30 -11 27 -22 59
-26 65 -10 9 23 39 20 139 -14 79 -27 155 -63 225 -109 13 -9 21 -11 17 -4 -4
6 -75 59 -157 118 l-150 107 20 28 c20 28 66 45 76 29 8 -14 44 -10 44 4 0 7
-6 19 -12 26 -9 8 0 7 24 -3 45 -19 79 -20 97 -3 8 7 7 0 -3 -21 -19 -38 -16
-46 26 -68 27 -14 31 -14 49 2 18 16 19 16 19 -4 0 -14 11 -27 33 -38 17 -9
42 -25 54 -37 12 -11 31 -25 41 -31 11 -6 50 -34 88 -63 38 -29 75 -52 83 -53
8 0 26 10 39 23 l24 22 -13 -29 c-12 -25 -11 -30 2 -39 15 -9 15 -13 0 -38 -9
-16 -27 -34 -40 -41 -30 -16 -99 -102 -107 -132 -3 -12 -1 -33 5 -46 7 -19 10
-20 10 -7 1 14 8 18 32 15 29 -3 36 3 75 57 27 38 41 67 38 80 -2 11 -1 14 2
8 9 -20 40 -15 57 10 8 12 28 36 44 52 16 17 43 50 61 75 18 25 60 80 93 124
32 43 59 82 59 86 0 5 -26 28 -57 52 -161 121 -313 242 -313 250 0 4 -8 8 -17
8 -10 0 -60 31 -110 68 -146 106 -375 267 -386 271 -40 15 -162 109 -184 142
-14 21 -26 39 -27 39 0 0 -8 -5 -16 -11z m194 -165 c9 -3 16 -10 16 -16 0 -5
-56 -89 -124 -188 -69 -98 -130 -188 -136 -199 -9 -18 -13 -19 -30 -8 -35 21
-23 53 58 155 42 53 103 134 135 180 32 45 60 82 62 82 2 0 10 -3 19 -6z"/>
<path d="M10640 7116 l0 -45 -117 -95 c-65 -52 -146 -123 -180 -158 -133 -136
-235 -334 -258 -503 -4 -27 -13 -68 -20 -90 -17 -55 -38 -203 -34 -243 l4 -34
50 68 c28 37 53 72 57 78 12 19 46 -22 40 -49 -7 -39 5 -29 33 25 14 27 50 77
80 111 31 35 53 68 51 76 -7 17 33 33 85 33 40 0 54 15 22 23 -10 3 2 3 26 1
49 -4 129 -44 163 -82 l23 -25 -27 18 c-26 16 -28 16 -28 0 0 -9 14 -37 32
-63 23 -33 33 -61 36 -99 4 -48 1 -57 -35 -110 -63 -93 -87 -173 -51 -173 6 0
8 -7 4 -15 -3 -8 1 -21 9 -29 13 -12 12 -16 -1 -27 -17 -14 -64 -102 -64 -119
0 -14 77 36 105 68 l22 26 66 -52 c37 -30 75 -52 88 -52 18 0 73 51 213 196
104 107 196 210 205 227 27 52 73 117 83 117 5 0 16 16 24 36 9 20 34 61 57
91 39 52 41 59 41 122 0 74 -28 147 -82 215 -17 21 -105 97 -194 170 -290 234
-497 396 -513 402 -12 5 -15 -3 -15 -40z"/>
<path d="M7550 7089 c0 -4 9 -26 20 -50 39 -87 22 -194 -49 -297 -45 -67 -160
-192 -176 -192 -6 0 -55 34 -109 75 -97 74 -116 85 -116 65 0 -10 196 -170
208 -170 38 0 196 181 241 275 36 74 46 138 31 194 -10 37 -50 117 -50 100z"/>
<path d="M8179 6468 c-5 -45 -7 -58 -13 -83 -4 -16 -50 -91 -102 -168 -86
-127 -126 -190 -111 -177 5 4 81 109 122 168 15 21 18 21 45 7 16 -8 30 -15
32 -15 2 0 3 23 3 50 0 28 -4 50 -8 50 -13 0 46 68 60 69 6 1 13 7 16 14 2 6
8 9 12 4 5 -4 -6 -25 -23 -46 -18 -22 -32 -44 -32 -48 0 -5 57 -52 128 -105
70 -52 224 -170 342 -262 182 -142 216 -172 221 -199 8 -40 18 -157 11 -138
-3 8 -10 1 -18 -19 -16 -36 -5 -60 25 -60 31 0 43 22 23 44 -32 36 72 -41 117
-87 30 -32 42 -51 38 -64 -3 -10 -13 -37 -21 -60 -16 -43 -16 -43 16 -88 24
-33 39 -45 57 -45 30 0 46 -9 53 -29 5 -16 66 53 92 104 28 54 13 173 -29 229
-13 16 -21 17 -92 8 -81 -11 -147 -6 -137 9 3 5 22 9 42 9 52 0 82 10 82 26 0
34 46 42 385 73 187 17 374 34 415 37 123 9 127 10 145 57 24 65 44 151 37
158 -9 9 -174 -10 -187 -21 -5 -4 -31 -11 -57 -15 -52 -8 -56 -12 -31 -30 19
-14 -17 -20 -364 -60 -285 -32 -275 -32 -262 2 6 15 14 30 20 33 5 4 -16 25
-47 48 l-57 41 -81 -5 -81 -6 -115 94 c-236 191 -650 508 -664 508 -3 0 -7 -6
-7 -12z"/>
<path d="M10350 6089 c-31 -13 -40 -26 -40 -65 0 -41 27 -74 84 -103 47 -23
85 -23 113 1 17 14 16 78 -1 100 -10 13 -122 80 -130 77 0 0 -12 -5 -26 -10z"/>
<path d="M7883 5907 c-3 -5 -11 -6 -19 -3 -8 3 -14 -1 -14 -10 0 -19 -85 -101
-117 -114 -13 -5 -23 -13 -23 -18 0 -9 70 -100 264 -345 85 -106 114 -137 133
-137 23 0 34 20 11 20 -11 1 -106 122 -131 166 -6 11 50 5 102 -12 l24 -7 -7
199 c-4 111 -12 205 -18 212 -6 6 -21 12 -33 12 -35 0 -54 10 -48 25 3 9 -4
16 -19 20 -31 7 -99 2 -105 -8z"/>
<path d="M4705 5778 c-10 -35 -20 -66 -22 -70 -4 -7 -114 20 -127 32 -11 11
-36 1 -36 -14 0 -6 -7 -24 -15 -39 -8 -16 -19 -47 -25 -68 -6 -22 -14 -47 -17
-55 -6 -16 32 -19 99 -8 30 5 39 13 52 43 l15 36 -5 -32 c-5 -30 -4 -31 22
-24 25 6 32 19 69 130 22 67 43 119 47 116 3 -4 -11 -59 -33 -123 -43 -127
-41 -137 20 -126 45 7 193 6 229 -2 15 -4 69 -24 121 -46 51 -22 95 -37 98
-35 14 14 -250 136 -370 171 -38 11 -57 22 -57 32 0 16 42 61 75 80 18 11 15
14 -35 38 -79 37 -84 36 -105 -36z"/>
<path d="M8174 5588 c10 -298 15 -332 45 -367 25 -29 34 -32 184 -56 172 -27
197 -29 197 -16 0 4 -51 16 -112 25 -238 36 -231 34 -256 71 -40 62 -26 227
17 201 5 -4 28 -4 50 0 31 5 41 11 46 31 4 16 0 31 -10 42 -8 10 -15 23 -15
29 0 7 -5 12 -11 12 -6 0 -9 6 -6 13 2 6 -13 23 -34 36 -24 16 -44 39 -54 63
-19 48 -20 82 -2 72 8 -5 8 -2 -2 9 -7 9 -20 17 -29 17 -13 0 -14 -22 -8 -182z"/>
<path d="M10086 5653 c-14 -14 -4 -22 37 -31 l42 -10 -57 -1 c-32 -1 -58 -3
-58 -6 0 -15 58 -54 80 -55 l25 -1 -26 -14 c-58 -31 -41 -112 35 -164 25 -17
58 -34 73 -37 66 -13 115 38 93 99 -10 29 -9 29 8 14 33 -30 44 -21 27 21 -18
43 -54 74 -138 120 -33 17 -65 36 -71 40 -21 16 -64 31 -70 25z"/>
<path d="M9577 5559 c-171 -10 -207 -17 -207 -38 0 -10 10 -31 22 -46 12 -16
23 -42 24 -59 1 -17 15 -71 32 -121 l31 -90 83 4 c108 4 160 13 166 29 2 6 -3
12 -11 12 -12 0 -14 6 -8 28 5 15 7 36 5 47 -2 10 1 24 6 30 4 5 9 13 9 18 1
4 1 8 2 10 1 1 2 19 3 40 2 31 0 37 -17 37 -13 0 -17 5 -13 16 3 9 6 22 6 29
0 8 8 11 23 8 19 -3 18 -2 -6 12 -15 9 -25 20 -22 25 9 15 -6 16 -128 9z"/>
<path d="M5480 5465 c-30 -37 -53 -191 -32 -220 4 -5 21 -11 37 -13 l31 -3 18
92 c20 99 20 101 -28 124 -8 3 -7 7 2 11 6 3 10 10 6 15 -8 13 -20 11 -34 -6z"/>
<path d="M8663 5350 c-83 -50 -53 -190 61 -277 76 -58 156 -76 219 -49 58 24
89 85 68 137 -8 21 -10 18 -10 -22 -1 -36 -7 -52 -27 -73 -15 -14 -33 -26 -40
-26 -7 0 1 13 17 29 49 49 39 118 -28 192 -46 51 -103 78 -161 79 -54 0 -78
-12 -102 -53 -17 -27 -20 -29 -20 -11 0 31 36 72 73 83 29 8 29 9 7 10 -14 1
-39 -8 -57 -19z"/>
<path d="M7854 5106 c-3 -8 -2 -122 4 -253 5 -131 7 -242 4 -246 -2 -5 -12 -1
-22 8 -15 13 -20 39 -25 131 -5 74 -4 118 3 127 6 6 13 28 17 48 6 30 3 39
-12 48 -16 9 -16 12 -3 21 20 13 1 45 -26 45 -10 0 -22 4 -26 9 -18 26 -84 33
-198 20 -63 -7 -117 -13 -120 -14 -3 0 9 -7 25 -15 17 -7 24 -14 16 -14 -8 -1
-11 -8 -8 -21 6 -23 -3 -26 -21 -8 -7 7 -29 13 -49 15 -51 3 -68 23 -20 23 50
0 47 13 -7 28 -35 9 -75 8 -198 -4 -84 -9 -157 -20 -162 -24 -11 -11 -11 -18
4 -288 7 -123 10 -226 7 -229 -3 -3 -41 7 -83 21 -43 14 -79 25 -80 23 -1 -1
6 -34 17 -72 35 -125 39 -154 20 -186 -15 -26 -14 -34 9 -126 l26 -98 52 -27
c29 -15 57 -28 62 -30 6 -2 23 -49 39 -105 30 -108 29 -113 -20 -113 -17 0
-19 -5 -13 -37 4 -21 8 -39 9 -40 1 -2 71 6 156 17 209 27 267 23 94 -6 -144
-24 -249 -33 -260 -22 -4 4 -11 26 -16 50 -5 24 -14 52 -19 63 -6 11 -21 49
-33 85 l-22 65 -92 0 c-50 0 -89 3 -86 8 2 4 16 7 31 7 56 0 58 9 35 112 -18
78 -19 94 -7 101 8 4 14 20 14 34 0 14 11 41 26 60 16 21 20 33 12 33 -18 0
-543 -58 -595 -66 -37 -5 -42 -4 -41 12 1 11 -11 114 -27 231 -20 146 -34 218
-45 234 l-17 22 -199 -22 c-110 -11 -205 -21 -212 -21 -6 0 -12 -4 -12 -10 0
-5 16 -8 36 -7 l36 2 74 -214 c41 -118 74 -226 74 -241 0 -26 -1 -26 -117 -38
-65 -7 -172 -19 -238 -27 -132 -16 -234 -19 -180 -5 24 6 18 8 -31 9 -57 1
-62 3 -66 26 -4 16 0 25 11 28 9 3 -1 5 -21 6 -20 0 -39 -3 -43 -8 -3 -6 -23
-9 -45 -9 -36 0 -40 3 -45 32 -5 32 -35 530 -32 532 1 1 27 4 58 8 51 5 57 4
62 -14 4 -14 14 -20 32 -20 22 0 26 4 22 20 -5 20 9 26 56 22 10 -1 25 2 34 6
11 7 2 13 -33 27 -46 17 -53 17 -212 0 l-165 -18 7 -216 c4 -119 9 -240 13
-270 4 -35 2 -52 -4 -48 -6 4 -14 86 -18 189 -5 118 -11 186 -18 190 -9 5 -9
10 -1 18 7 7 9 21 6 32 -4 17 -10 19 -43 14 -29 -5 -39 -3 -39 7 0 8 -18 19
-40 26 -32 9 -69 9 -187 -4 -82 -9 -150 -18 -152 -20 -2 -2 -20 3 -41 11 -34
14 -55 14 -199 -1 -182 -18 -207 -24 -222 -59 -16 -34 3 -268 22 -275 7 -2 31
-20 52 -40 28 -27 41 -49 48 -81 11 -62 11 -130 -1 -130 -5 0 -10 -7 -10 -15
0 -8 -3 -15 -7 -15 -5 0 -70 31 -145 69 -113 56 -138 65 -138 50 0 -9 36 -87
80 -171 63 -122 85 -175 103 -254 l23 -99 59 -32 60 -32 25 -103 c25 -103 25
-103 55 -102 17 1 176 20 355 43 179 22 353 43 388 47 34 4 65 10 68 15 4 7
-10 94 -31 185 -3 16 5 28 31 46 34 25 36 25 82 10 74 -23 76 -25 93 -93 35
-136 35 -127 -8 -134 -65 -11 -77 -16 -63 -25 7 -5 20 -6 29 -3 13 5 14 3 4
-8 -15 -16 -17 -33 -3 -24 6 3 10 2 10 -4 0 -5 -6 -12 -12 -14 -7 -3 35 -6 95
-6 95 -1 107 1 107 16 0 27 -62 277 -71 287 -5 5 -24 9 -44 8 -64 -2 -34 24
37 33 16 1 29 -3 32 -11 8 -21 26 -17 26 6 0 11 3 20 8 20 4 1 31 3 60 6 42 5
52 3 52 -10 0 -9 8 -14 20 -13 11 1 20 7 20 14 0 7 3 13 8 14 4 0 17 2 30 5
15 3 22 -1 22 -12 0 -14 9 -16 68 -10 119 11 186 24 198 40 17 24 72 32 80 12
3 -9 16 -16 29 -16 15 0 26 -9 33 -27 12 -32 53 -158 72 -220 11 -35 17 -42
34 -38 12 2 64 9 116 15 52 6 96 13 99 15 4 5 -25 235 -35 272 -7 24 -20 20
161 46 93 14 116 14 104 2 -3 -2 -36 -12 -75 -20 -38 -9 -82 -19 -99 -23 -49
-12 -56 -41 -40 -157 21 -144 21 -142 -22 -150 -22 -4 -32 -10 -24 -14 6 -4 9
-16 5 -27 -5 -16 -4 -16 5 -4 6 8 11 12 11 7 0 -4 11 0 25 9 24 16 27 16 46
-2 l20 -18 -23 -12 c-12 -7 -27 -10 -31 -7 -5 3 -13 0 -17 -7 -7 -11 -13 -10
-33 3 -19 12 -27 13 -30 4 -4 -9 -8 -8 -16 3 -8 11 -7 18 4 26 29 21 7 34 -24
15 -11 -7 -12 -13 -4 -23 5 -7 11 -32 11 -55 2 -52 17 -93 36 -93 7 0 19 -7
26 -15 11 -13 17 -12 49 7 20 11 30 15 24 8 -7 -8 -13 -21 -13 -30 0 -8 -9
-33 -21 -54 l-20 -38 108 6 c94 5 110 8 125 26 14 18 35 23 115 31 120 13 244
16 249 8 2 -4 21 2 41 13 30 15 50 18 98 14 66 -6 221 8 239 22 6 5 18 10 26
10 8 1 36 4 62 8 l46 6 -14 47 c-17 57 -8 69 60 73 49 3 49 3 58 -32 5 -19 16
-58 24 -87 l15 -52 45 44 c44 44 45 46 51 126 8 101 26 126 103 146 64 16 61
14 54 39 -3 11 -22 27 -43 36 -35 15 -51 16 -177 3 -77 -8 -155 -14 -174 -14
-55 2 65 23 246 45 150 17 161 17 282 0 233 -32 327 -42 344 -38 12 3 29 -16
60 -64 33 -52 44 -62 46 -46 2 11 -5 36 -15 54 -10 18 -18 44 -18 58 0 14 -5
24 -11 23 -14 -3 -40 70 -26 75 29 9 -87 222 -121 222 -8 0 -6 -4 3 -11 12 -8
10 -9 -10 -5 -14 3 -34 6 -45 7 -13 1 -9 4 10 8 24 5 14 9 -54 19 -47 7 -88
17 -92 23 -4 6 -9 30 -12 53 -3 22 -24 109 -46 193 -23 84 -41 156 -41 160 0
5 26 9 58 9 31 0 92 5 136 11 l78 9 24 -38 c13 -20 37 -75 52 -120 16 -46 33
-81 38 -78 5 3 8 10 8 17 -1 11 49 57 329 299 44 39 64 50 83 46 17 -3 37 6
71 34 26 22 53 44 61 49 11 9 11 17 -4 48 -16 33 -26 40 -85 59 l-67 21 -158
-102 c-88 -57 -169 -109 -180 -117 l-22 -15 -7 191 c-7 183 -8 190 -27 184
-14 -4 -21 0 -25 15 -3 12 -12 21 -19 21 -8 0 -14 5 -14 11 0 8 -5 8 -15 -1
-12 -10 -18 -10 -30 0 -12 10 -16 9 -21 -4 -8 -22 -44 -21 -45 2 0 15 -1 14
-8 -3 -6 -15 -19 -20 -57 -22 -27 -2 -50 -8 -52 -13 -2 -6 -12 -10 -23 -10
-17 0 -19 -11 -21 -187 l-3 -188 -8 170 c-4 94 -13 188 -20 209 -11 37 -16 40
-77 58 -79 22 -89 22 -96 4z m-519 -105 c-3 -11 -1 -22 5 -26 22 -13 8 -25
-29 -25 -25 0 -41 5 -45 15 -3 8 -11 15 -18 15 -9 0 -9 -3 0 -12 16 -16 15
-28 -2 -28 -8 0 -21 -14 -30 -31 -13 -26 -14 -63 -9 -245 4 -145 3 -214 -4
-214 -7 0 -9 17 -5 45 3 30 0 50 -9 61 -12 15 -17 93 -20 289 0 11 3 48 6 83
5 51 3 62 -10 62 -8 0 -15 6 -15 13 0 8 28 13 96 15 91 2 95 1 89 -17z m137
-239 c3 -141 2 -152 -17 -166 -20 -16 -20 -16 3 -22 12 -3 22 -14 22 -22 0
-13 -7 -10 -27 11 -21 21 -25 29 -15 39 16 16 15 53 -3 68 -7 6 -17 32 -21 57
-5 37 -3 49 10 58 20 15 21 25 1 25 -24 0 -19 67 8 99 14 19 24 24 29 17 4 -7
8 -80 10 -164z m-2892 -50 c0 -10 4 -22 9 -27 5 -6 14 -104 20 -220 6 -115 13
-231 16 -257 2 -27 1 -48 -3 -48 -4 0 -81 -9 -172 -20 -91 -11 -175 -20 -187
-20 -27 0 -29 11 -47 300 -13 195 -12 218 2 243 13 22 23 27 53 27 21 0 44 -7
53 -15 19 -19 32 -20 16 0 -19 23 16 32 40 10 15 -13 23 -15 33 -7 7 6 29 13
49 15 20 2 44 11 53 21 23 22 65 21 65 -2z m3431 -534 c35 -43 51 -76 73 -147
16 -51 26 -95 22 -98 -3 -3 -49 -11 -103 -17 l-98 -12 -28 101 -27 100 46 41
c45 41 46 42 35 80 -20 73 -21 74 80 -48z m-2041 -115 c37 -99 37 -109 0 -117
-75 -15 -77 -13 -85 64 -4 38 -8 73 -9 76 0 4 7 8 18 10 10 1 23 7 29 13 19
19 25 13 47 -46z m-987 -346 c20 -39 59 -72 92 -78 32 -7 31 -36 -2 -43 -46
-10 -582 -76 -654 -81 -37 -2 -79 -7 -93 -11 -24 -6 -26 -4 -26 26 0 31 1 32
31 26 41 -8 58 7 65 56 4 21 11 41 15 44 5 3 9 13 9 24 0 22 7 24 210 49 91
11 179 22 195 24 17 3 54 4 84 3 52 -1 55 -2 74 -39z"/>
<path d="M4395 4618 c-49 -5 -93 -12 -98 -17 -4 -4 -3 -81 3 -172 5 -90 10
-183 10 -206 l0 -43 38 0 c21 0 43 -5 49 -11 7 -7 15 -6 25 5 9 8 38 16 69 18
46 3 54 6 54 23 0 11 4 26 8 32 6 9 3 11 -7 7 -14 -5 -16 5 -16 62 0 38 -3
100 -7 138 -5 55 -4 67 6 61 10 -5 12 -2 8 11 -3 11 -11 38 -17 62 -6 23 -16
41 -23 41 -7 -1 -52 -6 -102 -11z"/>
<path d="M4555 5067 c3 -7 -20 -43 -52 -81 l-57 -69 65 6 c81 7 94 12 108 43
6 13 27 34 46 45 19 12 35 25 35 30 0 16 -66 39 -109 39 -28 0 -39 -4 -36 -13z"/>
<path d="M5321 4719 c-41 -5 -78 -12 -81 -16 -7 -8 6 -322 15 -378 l5 -30 77
3 c43 2 94 7 113 11 31 6 35 10 33 37 -2 16 -3 44 -3 63 0 18 -5 41 -10 51 -9
17 -19 138 -20 233 0 42 5 41 -129 26z"/>
<path d="M5939 3856 c-5 -6 -55 -14 -87 -15 -20 -1 -21 -4 -12 -21 6 -11 15
-18 21 -15 5 4 9 1 9 -4 0 -6 9 -11 21 -11 13 0 19 -5 16 -13 -3 -7 3 -18 13
-25 15 -9 17 -8 13 9 -3 10 0 19 6 19 6 0 11 -4 11 -10 0 -5 6 -10 14 -10 8 0
17 -7 20 -16 4 -10 13 -13 26 -9 14 4 20 2 20 -8 0 -8 7 -20 15 -27 12 -10 16
-9 21 4 3 9 11 13 17 9 7 -4 8 0 2 13 -4 10 -10 33 -13 51 -2 18 -10 38 -18
44 -8 6 -14 18 -14 25 0 10 -14 14 -48 14 -27 0 -51 -2 -53 -4z"/>
<path d="M5940 3486 c0 -7 -7 -27 -16 -44 -11 -23 -23 -32 -39 -32 -13 0 -26
-4 -29 -9 -3 -5 -24 -7 -46 -5 -21 2 -42 -1 -45 -6 -3 -6 -21 -10 -40 -10 -19
0 -37 -5 -40 -10 -4 -6 -10 -8 -15 -5 -5 3 -18 1 -28 -4 -11 -6 -36 -11 -56
-13 -21 -1 -41 -9 -46 -17 -7 -13 -12 -13 -37 -2 -15 7 -40 17 -55 21 l-27 8
6 -96 c3 -53 9 -101 14 -106 5 -6 35 -5 76 3 94 17 99 19 85 33 -15 15 -15 28
-2 28 6 0 10 -7 10 -15 0 -19 34 -19 50 0 9 11 35 13 128 11 85 -3 126 0 151
10 19 8 69 14 120 14 49 1 103 7 126 15 22 8 47 15 56 15 9 0 22 7 29 15 7 8
21 15 32 15 16 0 17 3 7 23 -24 44 -64 87 -82 87 -10 0 -28 5 -40 12 -12 6
-37 11 -54 9 -18 -1 -33 2 -33 7 0 12 -49 34 -61 26 -6 -3 -19 2 -29 11 -24
22 -70 28 -70 11z"/>
<path d="M4910 3371 c0 -4 -40 -14 -89 -20 -70 -10 -93 -17 -111 -36 -12 -12
-23 -29 -24 -36 -9 -43 -20 -75 -30 -82 -6 -4 7 -7 29 -5 22 1 46 -1 52 -5 6
-4 16 -36 23 -72 7 -36 16 -65 21 -65 13 0 11 22 -16 150 -13 63 -23 116 -22
116 3 2 94 12 212 24 55 5 105 10 110 11 15 2 -106 28 -132 29 -13 0 -23 -4
-23 -9z"/>
<path d="M7683 3328 c-12 -6 -24 -18 -26 -27 -3 -10 -5 -7 -6 7 -1 32 -35 25
-39 -8 -2 -14 -7 -29 -12 -34 -12 -12 -1 -36 17 -36 23 0 73 -33 73 -47 0 -20
9 -16 38 19 69 80 73 139 9 137 -18 0 -42 -5 -54 -11z"/>
<path d="M1615 3305 c2 -17 9 -57 15 -89 5 -33 9 -76 9 -95 -1 -27 -3 -29 -6
-11 -2 14 -7 32 -10 40 -4 8 -7 17 -8 20 -1 3 -7 17 -13 32 -6 15 -9 34 -6 42
9 22 -14 56 -32 49 -9 -3 -20 0 -25 8 -7 11 -9 11 -9 -3 0 -10 -7 -18 -16 -18
-24 0 -43 -25 -38 -48 3 -11 1 -29 -5 -40 -9 -16 -6 -21 17 -31 25 -12 25 -14
9 -25 -23 -18 -22 -25 4 -19 16 4 20 2 17 -8 -3 -8 -12 -15 -21 -17 -12 -3
-19 6 -24 28 -8 41 -49 63 -68 37 -7 -9 -17 -17 -24 -17 -14 0 -14 -6 -1 -31
8 -15 7 -19 -3 -19 -21 0 -41 26 -27 35 18 11 0 25 -31 23 -18 -1 -31 -9 -35
-20 -3 -11 -13 -17 -27 -14 -18 2 -23 11 -27 45 l-5 42 -22 -21 c-19 -17 -23
-32 -23 -83 -1 -34 -5 -107 -10 -162 -7 -83 -6 -101 6 -108 8 -4 14 -15 14
-24 0 -9 6 -13 14 -10 8 3 20 -1 26 -8 17 -21 59 -15 66 9 7 22 34 53 34 39 0
-5 -6 -15 -12 -22 -11 -11 -9 -13 9 -8 13 3 26 1 29 -5 10 -15 24 12 24 47 0
30 3 31 116 70 76 27 120 47 127 60 12 20 13 25 16 79 2 43 12 25 20 -36 3
-29 9 -48 12 -43 8 14 -40 338 -52 350 -6 6 -8 -1 -4 -20z"/>
<path d="M4799 3005 c-3 -2 -16 -7 -30 -9 -13 -2 -26 -5 -28 -5 -2 -1 3 -9 11
-18 20 -25 24 -93 5 -93 -8 0 -20 6 -26 14 -10 11 -17 9 -41 -12 -33 -29 -40
-71 -15 -96 8 -8 15 -21 15 -28 1 -17 35 -58 48 -58 6 0 20 14 32 30 12 17 26
28 31 25 13 -9 34 7 35 27 1 10 -2 15 -7 12 -17 -10 -9 8 16 38 26 30 36 63
13 40 -7 -7 -21 -12 -31 -12 -17 0 -19 5 -12 38 4 20 7 50 6 66 0 29 -13 51
-22 41z"/>
<path d="M5215 2879 c-22 -5 -74 -11 -115 -12 -92 -5 -177 -31 -185 -58 -4
-10 -16 -24 -27 -30 -16 -9 -19 -17 -14 -41 12 -60 27 -64 127 -32 49 16 89
32 89 36 0 3 -10 4 -22 2 -21 -4 -22 -4 -3 5 29 14 57 23 80 28 10 2 22 7 25
11 3 4 16 13 30 20 35 17 64 35 72 46 7 10 -1 37 -11 35 -3 -1 -24 -5 -46 -10z"/>
</g>
</svg>
