<?xml version="1.0" standalone="no"?>
<!DOCTYPE svg PUBLIC "-//W3C//DTD SVG 20010904//EN"
 "http://www.w3.org/TR/2001/REC-SVG-20010904/DTD/svg10.dtd">
<svg version="1.0" xmlns="http://www.w3.org/2000/svg"
 width="425.000000pt" height="425.000000pt" viewBox="0 0 425.000000 425.000000"
 preserveAspectRatio="xMidYMid meet">
<metadata>
Created by potrace 1.16, written by Peter Selinger 2001-2019
</metadata>
<g transform="translate(0.000000,425.000000) scale(0.100000,-0.100000)"
fill="#000000" stroke="none">
<path d="M1904 4132 c4 -7 -9 -15 -31 -21 -48 -14 -66 -14 -58 -1 10 16 -2 12
-65 -19 -32 -16 -69 -32 -82 -36 -40 -13 -253 -120 -273 -138 -55 -49 -81 -69
-112 -88 -18 -11 -33 -25 -33 -29 0 -5 -18 -26 -40 -46 -22 -21 -38 -39 -35
-42 2 -3 -7 -14 -22 -25 -39 -31 -153 -215 -153 -247 0 -10 19 -8 37 3 9 6 11
3 6 -10 -6 -16 -5 -16 10 -4 23 18 24 11 8 -59 -9 -40 -9 -41 9 -23 9 10 16
21 14 24 -2 4 6 15 19 25 l22 19 -18 -22 c-10 -11 -14 -24 -9 -27 12 -7 36 39
28 53 -4 6 0 11 8 11 15 0 21 16 18 52 -1 9 5 22 13 28 12 10 15 10 15 1 0 -8
6 -6 17 4 14 14 14 18 2 26 -11 7 -10 9 6 9 15 0 17 2 6 9 -10 6 -10 10 -1 16
9 6 9 9 0 15 -8 5 -7 9 5 13 9 4 13 3 10 -3 -9 -14 8 -12 25 3 12 10 12 9 2
-4 -6 -9 -10 -18 -7 -21 3 -3 -1 -11 -10 -18 -21 -18 -19 -36 3 -19 10 8 7 3
-7 -11 -31 -30 -38 -95 -9 -79 22 12 25 11 25 -6 0 -8 -4 -12 -8 -9 -4 2 -10
0 -13 -5 -4 -5 5 -8 18 -7 18 2 23 -1 18 -12 -4 -11 -1 -13 8 -7 29 18 2 -21
-30 -43 -19 -12 -35 -32 -37 -43 -3 -18 0 -17 23 8 l26 28 -16 -27 c-10 -17
-12 -29 -6 -33 6 -3 13 1 16 9 8 20 30 21 37 2 3 -8 -1 -13 -11 -12 -12 1 -18
-9 -22 -34 -3 -19 -13 -48 -24 -63 -10 -15 -16 -30 -12 -34 3 -3 1 -12 -5 -19
-6 -7 -13 -35 -15 -61 -5 -45 -4 -46 14 -30 19 17 19 17 14 -8 -3 -20 -1 -24
11 -19 9 3 19 14 22 25 4 11 11 17 16 14 5 -4 9 1 9 9 0 21 42 106 52 106 11
0 11 0 -18 -59 -14 -29 -23 -58 -22 -63 6 -16 69 87 72 116 1 14 6 29 9 33 10
9 57 10 57 1 0 -15 -22 -19 -38 -6 -15 11 -15 11 -6 -2 12 -16 3 -53 -15 -65
-6 -3 -8 -12 -5 -18 4 -7 4 -9 0 -5 -9 8 -72 -71 -85 -105 -9 -25 4 -71 18
-63 5 3 12 -1 15 -10 5 -13 9 -14 21 -4 8 7 15 9 15 5 0 -4 8 -1 18 6 14 11
15 11 5 -1 -31 -34 -8 -25 53 20 37 28 71 50 76 50 5 0 6 6 2 13 -4 6 -4 9 1
5 4 -4 15 -2 24 4 13 10 14 10 4 -2 -17 -18 -17 -38 -1 -22 17 17 48 15 48 -3
0 -8 5 -15 11 -15 8 0 8 -5 -1 -15 -10 -12 -9 -15 4 -15 12 0 15 -6 11 -23 -6
-21 -3 -22 35 -19 32 3 39 1 35 -10 -5 -11 1 -14 25 -10 16 2 33 8 36 13 3 5
17 9 32 9 15 0 34 4 42 10 9 6 17 5 21 -2 4 -7 14 -6 30 3 13 7 56 13 94 13
73 1 123 -21 125 -54 1 -8 9 0 17 17 21 41 45 49 83 26 25 -14 34 -15 50 -5
17 10 20 9 26 -13 4 -14 4 -29 0 -32 -3 -4 -6 5 -7 18 0 13 -3 18 -6 11 -2 -6
-9 -10 -14 -6 -5 3 -9 -1 -9 -9 0 -29 -40 -65 -80 -72 -37 -6 -46 -17 -41 -47
2 -16 -45 -7 -55 10 -11 17 -63 35 -174 60 -80 19 -399 -26 -508 -71 -50 -20
-53 -23 -48 -50 3 -15 22 -43 41 -61 19 -18 35 -38 35 -45 0 -6 11 -11 24 -11
20 0 25 6 30 45 14 89 94 142 176 115 38 -13 50 -12 249 6 60 5 94 -10 113
-51 9 -19 17 -24 40 -21 16 1 36 13 44 24 17 25 56 29 73 8 6 -7 18 -60 26
-117 9 -57 23 -138 31 -179 27 -133 27 -137 3 -203 -12 -34 -27 -65 -31 -68
-5 -3 9 -11 32 -18 50 -15 87 -48 96 -83 5 -22 2 -29 -12 -34 -11 -3 -54 -19
-97 -35 -43 -16 -82 -27 -87 -24 -6 4 -10 2 -10 -4 0 -5 -26 -15 -57 -22 l-58
-13 75 -7 c41 -4 90 -10 108 -13 17 -2 32 0 32 4 0 11 60 2 73 -10 5 -4 4 -16
-1 -27 -15 -28 -3 -39 51 -47 43 -7 48 -10 45 -31 -2 -13 7 -36 18 -52 39 -52
48 -120 21 -152 -22 -25 -32 -45 -19 -37 7 4 12 2 12 -3 0 -6 -4 -11 -10 -11
-5 0 -6 -7 -3 -17 5 -12 3 -14 -7 -8 -8 5 -11 4 -6 -3 4 -6 12 -9 20 -6 9 3
12 -6 12 -31 -1 -23 -5 -34 -13 -31 -9 4 -10 -2 -2 -21 7 -18 6 -30 -1 -37 -7
-7 -11 -7 -10 -1 5 22 -1 35 -15 35 -8 0 -15 5 -15 12 0 6 -3 8 -6 5 -4 -4 -2
-12 3 -19 18 -23 21 -55 7 -55 -8 0 -14 8 -14 17 0 9 -7 17 -16 17 -11 0 -14
-7 -9 -26 5 -21 4 -24 -6 -14 -10 10 -18 9 -36 -9 -13 -12 -23 -17 -23 -11 0
11 -29 11 -47 0 -6 -4 -14 -1 -16 5 -4 9 -6 9 -6 1 -1 -6 -10 -9 -22 -6 -17 5
-20 2 -17 -13 2 -12 12 -19 28 -20 14 0 44 -10 67 -22 23 -12 48 -22 55 -22 8
0 29 -14 47 -31 18 -16 36 -28 39 -25 3 3 10 2 16 -3 32 -25 157 -34 219 -17
24 7 33 4 58 -20 16 -15 29 -34 29 -41 0 -8 7 -16 15 -19 8 -4 35 -26 60 -50
l44 -44 16 29 c8 17 33 71 55 122 53 122 90 185 100 169 5 -7 12 8 20 40 7 29
16 48 21 43 12 -12 29 -163 36 -325 4 -104 9 -138 19 -138 23 0 28 -23 7 -40
-11 -9 -23 -25 -27 -37 -9 -28 28 -37 65 -16 34 20 54 8 64 -38 4 -16 29 -55
56 -87 28 -31 64 -80 81 -110 30 -53 41 -57 51 -17 4 16 5 15 6 -5 1 -23 5
-25 38 -24 60 3 70 30 64 179 -2 33 -6 79 -10 102 -9 44 -7 100 5 171 6 40 8
43 35 38 31 -5 36 3 17 22 -32 32 23 22 127 -24 28 -12 71 -29 96 -38 25 -9
71 -31 101 -50 l55 -33 51 86 c146 246 246 541 282 831 5 46 10 161 10 255 0
94 -5 209 -10 255 -47 375 -191 732 -417 1032 l-66 87 -41 -23 c-312 -178
-580 -316 -612 -316 -12 0 -26 -4 -29 -10 -3 -5 -14 -10 -23 -9 -11 0 -13 2
-4 6 10 4 10 9 -4 24 -9 10 -16 31 -16 46 1 35 -18 135 -28 148 -15 21 -21 67
-9 81 6 8 8 14 4 14 -3 0 3 12 14 26 38 49 21 120 -46 189 -21 21 -31 35 -23
30 9 -5 8 0 -4 13 -11 12 -23 22 -28 22 -15 0 -98 73 -98 87 0 7 -12 25 -28
41 -15 15 -37 40 -49 55 -28 37 -178 119 -222 123 -88 8 -112 13 -124 22 -7 6
-53 23 -102 38 -74 22 -116 27 -239 32 -105 3 -147 1 -142 -6z m681 -1708 c1
-5 6 -19 13 -31 7 -13 10 -23 7 -23 -4 0 1 -7 9 -16 9 -8 16 -26 16 -39 0 -13
4 -26 10 -30 5 -3 7 -12 3 -20 -3 -8 -1 -15 4 -15 5 0 9 -39 8 -87 0 -53 6
-101 14 -120 18 -44 11 -148 -12 -171 -24 -23 -45 -8 -67 50 -17 46 -17 48 1
69 23 27 24 38 2 68 -11 16 -12 21 -3 16 8 -5 0 9 -17 31 -26 34 -63 136 -67
184 0 9 -15 34 -32 55 -17 22 -33 50 -37 63 -5 23 -5 23 60 26 17 0 34 4 38 8
9 8 50 -6 50 -18z"/>
<path d="M300 3226 c-149 -248 -253 -551 -290 -846 -13 -109 -13 -401 0 -510
35 -283 152 -628 279 -825 l32 -50 -8 100 c-9 118 -9 360 1 645 11 298 16 345
45 449 11 40 25 79 31 86 15 18 112 -32 151 -78 17 -20 45 -41 62 -46 18 -6
49 -31 70 -56 21 -25 45 -45 53 -45 8 0 14 -7 14 -15 0 -8 7 -15 15 -15 14 0
20 -12 16 -33 -1 -5 14 -27 33 -49 20 -23 33 -45 29 -51 -9 -15 90 -100 122
-103 41 -3 161 -106 149 -126 -3 -4 -1 -8 5 -8 9 0 22 -29 27 -60 7 -52 17
-97 25 -111 4 -9 6 -19 2 -22 -7 -8 17 -67 28 -67 8 0 91 134 127 206 12 23
37 61 56 86 30 40 33 51 27 80 -4 18 -14 44 -21 58 -7 13 -14 31 -15 40 -2 22
-27 70 -37 70 -4 0 -8 18 -8 40 0 22 -4 40 -10 40 -5 0 -9 12 -9 28 0 57 -2
60 -40 56 -64 -7 -91 20 -161 158 -34 67 -72 137 -84 153 -18 26 -21 44 -21
133 l0 104 33 29 c18 16 39 29 47 29 19 0 19 24 1 39 -22 18 -29 55 -35 167
l-1 31 -107 0 c-195 1 -296 52 -423 212 -38 48 -65 77 -122 129 l-36 34 -52
-86z"/>
<path d="M1635 2726 c-61 -12 -124 -40 -137 -60 -11 -16 -2 -19 24 -6 19 10
21 10 11 -1 -21 -22 -15 -26 40 -27 39 -1 48 2 34 9 -9 6 -15 14 -12 20 10 16
32 10 38 -11 4 -16 14 -20 43 -20 20 0 34 -3 31 -7 -9 -8 48 -33 75 -33 10 0
30 11 44 25 14 14 31 25 39 25 16 0 20 12 8 24 -4 4 -8 15 -8 24 0 11 -17 23
-50 34 -58 20 -97 21 -180 4z"/>
<path d="M1402 1493 c3 -125 4 -130 47 -228 196 -453 238 -540 271 -570 24
-22 116 -79 195 -121 72 -38 218 -140 275 -190 52 -48 60 -51 60 -30 0 8 -23
33 -51 56 -27 24 -48 48 -46 55 3 7 -17 19 -51 31 -140 47 -213 109 -277 237
-20 40 -48 90 -61 112 -13 22 -27 47 -31 55 -3 8 -38 65 -78 125 -147 225
-207 358 -227 505 -7 50 -16 90 -21 90 -5 0 -7 -57 -5 -127z"/>
<path d="M2932 816 c-8 -17 -33 -33 -89 -54 -100 -39 -191 -88 -215 -116 -25
-29 -81 -137 -74 -144 3 -3 65 25 138 62 l133 67 150 15 c83 9 156 18 164 20
9 3 0 19 -30 50 -51 52 -141 124 -156 124 -5 0 -15 -11 -21 -24z"/>
</g>
</svg>
