<?xml version="1.0" standalone="no"?>
<!DOCTYPE svg PUBLIC "-//W3C//DTD SVG 20010904//EN"
 "http://www.w3.org/TR/2001/REC-SVG-20010904/DTD/svg10.dtd">
<svg version="1.0" xmlns="http://www.w3.org/2000/svg"
 width="1202.000000pt" height="1052.000000pt" viewBox="0 0 1202.000000 1052.000000"
 preserveAspectRatio="xMidYMid meet">
<metadata>
Created by potrace 1.16, written by Peter Selinger 2001-2019
</metadata>
<g transform="translate(0.000000,1052.000000) scale(0.100000,-0.100000)"
fill="#000000" stroke="none">
<path d="M4634 9450 c-10 -10 -80 -27 -144 -36 -19 -3 -51 -13 -70 -23 -21
-11 -70 -21 -120 -25 -47 -4 -114 -11 -150 -16 -36 -5 -96 -13 -133 -18 -51
-7 -75 -16 -95 -35 -34 -32 -274 -167 -296 -167 -10 0 -15 -3 -12 -8 2 -4 -20
-23 -50 -42 -30 -18 -56 -41 -59 -50 -3 -9 -16 -22 -28 -29 -13 -7 -31 -25
-40 -41 -22 -36 -200 -200 -238 -219 -54 -26 -113 -111 -198 -286 -58 -120
-71 -151 -71 -173 0 -27 -38 -72 -55 -66 -22 9 -43 -36 -55 -123 -12 -79 -11
-82 10 -105 31 -33 41 -64 43 -134 1 -42 7 -66 20 -78 9 -10 17 -23 17 -30 0
-26 -21 -72 -39 -85 -15 -11 -17 -20 -9 -60 5 -25 16 -58 24 -74 13 -23 14
-51 4 -202 l-11 -175 35 -75 c38 -83 95 -156 144 -187 20 -12 50 -51 80 -101
83 -143 82 -125 10 -241 -53 -87 -62 -108 -62 -148 1 -79 41 -118 124 -118 28
0 42 -5 49 -19 21 -38 91 -37 91 3 0 23 -35 86 -47 86 -5 0 -19 16 -32 35 -19
29 -22 42 -17 80 4 24 11 47 17 50 5 4 9 21 9 40 0 19 4 36 9 39 5 3 7 15 4
25 -3 10 0 29 7 41 9 17 8 60 -5 193 -8 95 -20 197 -25 227 -7 38 -7 72 0 105
6 28 16 72 21 100 6 27 15 53 21 56 16 10 88 -1 143 -21 60 -23 171 -43 186
-35 21 14 60 -6 70 -35 10 -29 28 -38 124 -66 28 -9 30 -13 33 -62 2 -33 -3
-64 -14 -87 -15 -33 -15 -38 1 -83 9 -26 25 -54 34 -62 9 -9 27 -37 41 -64 32
-61 153 -180 230 -227 93 -57 187 -83 294 -82 50 1 112 6 138 12 49 11 165 64
233 106 22 13 51 30 65 37 13 7 36 24 50 37 85 79 185 141 229 141 40 0 55
-74 26 -130 -11 -22 -28 -32 -71 -45 -67 -19 -123 -67 -156 -134 -12 -25 -24
-49 -26 -52 -6 -14 48 -15 78 -2 18 7 39 13 48 13 26 0 100 42 155 87 29 24
57 48 64 53 7 6 21 10 32 10 25 0 34 15 39 65 2 22 10 44 18 48 8 5 11 13 8
19 -4 7 -2 8 5 4 6 -4 8 -13 4 -19 -11 -19 49 22 79 54 17 17 27 37 25 51 -2
20 3 23 37 26 23 2 36 -1 32 -7 -3 -5 1 -16 9 -24 8 -9 15 -20 15 -26 0 -6 4
-11 8 -11 5 0 17 -18 27 -39 10 -22 28 -50 41 -62 12 -11 20 -27 17 -35 -3 -8
4 -17 19 -23 13 -5 30 -22 38 -37 8 -16 31 -46 51 -66 29 -30 44 -38 73 -38
49 0 107 -25 113 -50 3 -11 9 -20 13 -20 11 0 -1 -40 -20 -66 -8 -12 -25 -24
-38 -28 -24 -8 -82 10 -82 24 0 4 -16 11 -35 14 -59 11 -105 -24 -144 -112 -6
-12 -18 -25 -26 -28 -8 -4 -15 -13 -15 -20 0 -8 -7 -17 -15 -20 -8 -4 -15 -12
-15 -19 0 -21 -59 -39 -127 -38 -56 1 -71 5 -108 32 -24 17 -47 31 -52 31 -4
0 -28 18 -52 40 -24 22 -47 40 -52 40 -5 0 -9 4 -9 10 0 5 30 7 75 3 47 -3 75
-2 75 5 0 18 -67 42 -117 42 -51 0 -75 -13 -66 -36 3 -8 0 -14 -7 -14 -6 0
-24 -9 -38 -21 -36 -28 -80 -18 -151 32 -61 44 -66 45 -75 23 -9 -22 21 -74
68 -116 38 -35 40 -41 43 -100 1 -35 3 -81 5 -103 2 -58 -5 -105 -17 -105 -5
0 2 -10 18 -21 15 -11 27 -27 27 -35 0 -20 57 -46 98 -43 21 1 77 1 126 0 88
-1 89 -1 71 -21 -10 -11 -21 -17 -26 -14 -5 2 -26 -4 -48 -15 -99 -51 -333
-110 -437 -111 -17 0 -37 -7 -44 -15 -7 -8 -18 -15 -26 -15 -27 0 -54 -43 -54
-87 l0 -42 46 19 c56 25 81 25 125 3 29 -15 63 -18 239 -18 237 0 770 21 880
34 41 5 92 14 113 19 24 6 50 7 70 1 37 -11 93 4 119 32 14 14 17 29 13 71 -3
30 0 65 6 81 10 23 9 31 -1 37 -9 6 -18 3 -26 -8 -9 -12 -26 -16 -66 -15 -54
1 -283 39 -300 49 -24 15 0 24 67 24 53 0 75 4 75 13 0 8 4 7 10 -3 9 -13 14
-8 11 12 -1 12 60 58 70 52 5 -3 14 -2 19 1 13 8 -6 45 -31 63 -10 7 -19 27
-21 45 -2 17 -7 31 -13 31 -5 -1 -15 10 -22 25 -6 14 -12 19 -13 11 0 -8 -8 1
-16 20 -10 24 -13 49 -9 78 5 32 3 42 -7 40 -16 -4 -32 143 -20 192 11 47 -7
142 -41 212 -29 59 -32 75 -18 97 10 16 49 5 171 -51 36 -17 83 -37 105 -46
22 -8 45 -19 50 -23 6 -4 61 -3 123 1 91 7 123 14 168 36 31 15 61 32 67 38 7
7 28 23 47 36 58 41 70 54 70 75 0 11 14 35 30 53 17 18 30 41 30 49 0 23 18
78 45 138 13 28 25 58 29 68 3 9 12 17 20 17 9 0 20 16 27 39 10 33 9 48 -5
90 -29 88 -20 121 33 121 9 0 25 6 35 13 17 13 17 14 1 30 -9 9 -27 17 -40 17
-12 0 -33 9 -46 20 l-24 19 43 1 42 0 2 53 c2 77 -2 136 -13 195 -9 44 -20 63
-71 118 -36 38 -69 64 -81 64 -18 0 -19 -4 -14 -59 4 -33 15 -82 26 -110 11
-29 15 -53 10 -57 -5 -3 -28 8 -51 25 -23 17 -47 31 -54 31 -6 0 -31 9 -56 20
-24 10 -104 36 -178 56 -74 20 -142 42 -151 50 -8 8 -26 14 -40 14 -62 1 -97
111 -51 161 12 12 22 28 22 33 0 6 3 22 7 34 5 21 3 23 -18 20 -18 -2 -26 3
-33 24 -8 22 -5 32 18 58 15 18 25 35 22 37 -6 6 -89 -25 -131 -48 -35 -19
-116 -32 -152 -23 -22 6 -24 10 -18 41 6 31 4 35 -29 48 -20 9 -36 19 -36 24
0 11 25 21 56 21 30 0 104 29 104 41 0 5 6 9 14 9 7 0 31 20 52 44 96 108 126
157 88 142 -39 -15 -149 -36 -189 -36 -25 0 -78 -7 -119 -16 -77 -17 -126 -13
-126 10 0 9 32 18 103 29 147 23 278 40 310 41 15 1 27 4 27 9 0 4 0 13 0 20
0 7 -9 23 -20 35 -24 25 -26 58 -5 66 8 3 15 10 15 16 0 13 -47 13 -55 -1 -11
-16 -67 -7 -92 15 -17 15 -20 22 -12 33 6 7 16 13 22 13 5 0 33 11 61 25 28
14 79 29 113 33 49 7 68 15 88 36 14 15 39 32 55 38 17 5 30 15 30 22 0 29
-620 -15 -743 -54 -34 -10 -79 -22 -100 -25 -21 -3 -46 -14 -56 -24 -10 -10
-45 -26 -77 -35 -33 -8 -99 -27 -149 -42 -119 -34 -259 -39 -281 -10 -20 28
-18 35 14 42 65 14 92 26 92 41 0 16 -50 15 -184 -3 -36 -5 -50 -3 -57 7 -14
23 -10 37 12 44 19 6 79 59 79 70 0 3 -7 5 -15 5 -17 0 -162 -47 -187 -61 -10
-5 -23 -9 -29 -9 -6 0 -33 -11 -61 -25 -57 -29 -86 -31 -114 -10 -10 8 -36 19
-57 25 -31 9 -38 15 -35 33 2 16 11 23 31 25 34 4 34 15 1 41 l-26 21 26 31
c30 35 33 53 9 45 -10 -3 -31 -8 -48 -12 -16 -4 -34 -10 -40 -14 -21 -15 -174
-60 -203 -60 -17 0 -34 -5 -37 -10 -5 -8 -11 -7 -21 1 -20 17 -75 5 -120 -25
-45 -30 -224 -145 -272 -175 -18 -11 -54 -27 -80 -35 l-48 -14 0 49 c1 39 4
49 18 49 35 0 219 103 245 137 14 18 31 33 38 33 6 0 48 22 92 49 95 57 316
167 356 177 15 3 27 10 27 15 0 12 -20 11 -58 -2 -17 -6 -68 -19 -114 -29 -46
-11 -119 -29 -164 -41 -45 -12 -89 -19 -98 -16 -16 6 -23 47 -8 47 5 0 19 9
31 19 12 10 38 22 59 26 20 4 61 18 90 32 28 13 97 40 153 59 55 18 109 38
119 44 11 6 39 15 62 20 137 28 245 68 196 71 -7 0 -22 2 -34 4 -11 3 -25 0
-30 -5z m1004 -1708 c22 -7 22 -7 -14 -60 -44 -66 -86 -87 -160 -78 -28 3 -87
1 -130 -4 l-78 -10 -23 27 c-32 39 -55 82 -48 92 3 5 -1 11 -7 14 -7 2 21 4
62 4 41 1 107 5 145 11 81 11 219 13 253 4z m-145 -235 c3 -7 -1 -38 -9 -67
-8 -30 -14 -67 -14 -82 0 -44 -29 -106 -53 -114 -12 -4 -30 -16 -39 -27 -15
-16 -19 -17 -31 -5 -44 43 -46 240 -4 285 18 19 33 23 83 23 42 0 63 -4 67
-13z"/>
<path d="M5543 9402 c-9 -5 -7 -13 5 -30 14 -18 41 -26 160 -47 178 -31 192
-31 192 -4 0 23 -4 23 135 3 61 -9 32 11 -44 31 -35 9 -96 18 -135 21 -39 2
-93 9 -121 14 -80 14 -179 21 -192 12z"/>
<path d="M4850 9360 c-30 -4 -86 -17 -125 -28 -38 -12 -116 -36 -172 -53 -57
-16 -103 -35 -103 -41 0 -12 130 -1 170 14 14 5 59 16 100 24 41 8 118 28 171
44 53 17 103 30 112 30 9 0 19 5 22 10 7 11 -88 12 -175 0z"/>
<path d="M9650 7193 c-328 -5 -813 -24 -828 -32 -13 -7 -15 -30 -13 -137 3
-177 4 -178 124 -170 82 6 132 -2 116 -18 -2 -3 -115 -8 -249 -12 -135 -3
-255 -10 -267 -15 -14 -5 -23 -19 -27 -46 -4 -21 -2 -227 3 -457 8 -323 13
-421 23 -428 7 -4 29 -8 48 -9 19 0 73 -4 120 -8 51 -4 158 -2 265 6 99 7 315
22 480 33 327 21 651 49 671 57 18 7 16 230 -2 295 -14 52 -21 342 -9 428 4
34 2 79 -5 115 -7 33 -15 77 -17 98 -3 20 -10 37 -17 38 -12 1 -221 -2 -298
-4 -33 -2 -52 4 -68 18 -21 19 -22 19 -35 2 -8 -11 -23 -17 -37 -15 -20 3 -23
9 -26 52 -2 34 2 53 13 66 15 16 15 18 0 24 -24 9 -78 7 -94 -3 -11 -7 -8 -13
14 -27 35 -23 61 -80 45 -99 -15 -18 -100 -26 -289 -28 l-154 -2 -14 49 c-19
64 -7 96 37 96 19 0 30 -5 30 -14 0 -23 153 -29 212 -8 26 9 48 20 48 24 0 4
-21 10 -47 13 -27 3 -54 7 -62 8 -8 1 -19 10 -25 20 -24 40 4 43 386 51 200 4
367 11 372 16 23 23 -10 30 -137 28 -73 -1 -202 -4 -287 -5z m20 -761 c27 -22
18 -49 -19 -60 -34 -9 -188 -9 -223 1 -21 5 -28 14 -28 32 0 36 25 44 141 45
87 0 111 -3 129 -18z m-540 -12 c20 -20 18 -45 -4 -53 -7 -3 -90 -9 -184 -13
-185 -7 -202 -4 -202 42 0 13 8 28 18 33 9 6 89 11 185 11 153 0 169 -2 187
-20z"/>
<path d="M8125 6813 c-16 -1 -268 -7 -560 -13 -399 -8 -533 -13 -542 -23 -8
-8 -12 -46 -12 -117 1 -58 0 -126 0 -152 0 -26 4 -59 9 -73 9 -24 12 -25 98
-25 119 0 118 1 117 -163 -1 -101 -4 -130 -15 -137 -8 -6 -47 -10 -87 -10 -83
0 -98 -12 -57 -46 l29 -23 -33 -1 c-19 0 -35 -6 -38 -15 -9 -23 23 -136 43
-150 20 -15 21 -13 -32 -30 -13 -4 -13 -9 0 -44 12 -35 12 -46 0 -73 -7 -18
-15 -58 -17 -88 -4 -49 -2 -57 23 -82 25 -26 33 -28 107 -28 100 0 112 -4 112
-41 0 -26 3 -29 35 -29 30 0 35 3 35 24 0 26 16 36 59 36 15 0 30 3 33 6 3 3
39 7 79 9 40 3 76 8 81 13 4 4 9 45 9 89 0 47 6 89 13 98 7 10 32 19 59 22 55
6 59 20 22 65 -36 43 -33 73 11 96 16 8 88 9 270 1 137 -5 257 -12 267 -15 9
-3 26 -2 37 1 19 6 20 15 20 203 0 108 -4 202 -8 208 -4 7 -24 19 -45 28 -35
14 -38 19 -35 48 2 28 9 35 38 44 l35 12 0 174 c0 135 -3 179 -14 192 -14 16
-29 17 -146 9z m-526 -412 c16 -16 19 -31 16 -97 -3 -92 -13 -104 -90 -104
-62 0 -75 11 -75 65 0 22 -4 57 -9 78 -8 32 -6 42 10 58 27 27 121 27 148 0z
m431 -1 c17 -9 20 -21 20 -69 0 -55 -2 -61 -35 -90 -52 -45 -85 -60 -156 -66
-93 -8 -101 1 -104 114 -3 96 2 107 45 113 67 9 211 8 230 -2z"/>
<path d="M6907 5793 c-4 -3 -7 -17 -7 -30 0 -14 -11 -39 -24 -56 -23 -31 -33
-61 -41 -129 -11 -84 -74 -205 -132 -251 -13 -10 -23 -29 -23 -41 0 -13 -9
-34 -21 -47 -11 -13 -28 -39 -37 -59 -9 -19 -42 -71 -74 -114 -32 -44 -58 -83
-58 -87 0 -15 -30 -17 -91 -3 -86 18 -86 18 -104 -16 -9 -16 -23 -30 -33 -30
-9 0 -41 -9 -71 -20 -53 -21 -91 -19 -91 4 0 6 -11 12 -25 11 -28 0 -29 -2
-20 -28 11 -26 -12 -71 -43 -85 -27 -12 -28 -13 -24 -90 l3 -78 -38 -27 c-34
-23 -45 -26 -110 -22 -40 2 -77 6 -81 9 -5 3 -9 -9 -9 -26 0 -30 -23 -58 -47
-58 -25 1 -57 37 -59 68 -1 17 -5 32 -9 32 -5 0 -8 9 -8 20 0 35 -15 22 -29
-24 -17 -58 -45 -85 -71 -68 -11 7 -29 12 -41 12 -11 0 -27 7 -36 16 -11 11
-24 13 -47 8 -17 -5 -48 -8 -68 -8 -33 -1 -35 -2 -22 -18 14 -15 13 -17 -5
-23 -29 -9 -39 0 -66 61 -37 84 -59 97 -120 74 -20 -8 -27 -7 -31 5 -5 13 -19
18 -83 30 -12 2 -28 9 -35 14 -7 6 -26 7 -51 1 -71 -17 -153 -12 -174 9 -35
35 -57 42 -88 30 -82 -34 -93 -41 -93 -59 0 -15 -10 -20 -47 -26 -27 -3 -58
-15 -69 -26 -21 -19 -23 -19 -55 -3 -19 10 -42 24 -51 32 -11 10 -30 14 -55
11 -34 -4 -42 0 -83 41 -51 52 -70 88 -70 132 0 17 -6 32 -15 35 -22 9 -90
-11 -87 -24 3 -18 -4 -15 -34 13 -14 13 -30 23 -34 20 -4 -3 -10 3 -12 13 -3
11 -35 33 -74 52 -38 18 -88 50 -111 71 -24 22 -47 39 -52 39 -15 0 -22 -48
-10 -77 6 -15 15 -37 19 -48 4 -11 12 -31 18 -45 6 -14 14 -35 17 -48 4 -12
26 -57 50 -100 24 -42 51 -104 60 -137 21 -72 65 -124 104 -122 23 2 26 -1 23
-29 -2 -21 5 -38 22 -57 14 -15 23 -34 20 -41 -4 -9 12 -26 43 -46 26 -18 60
-50 76 -71 15 -22 39 -44 53 -49 14 -6 51 -28 81 -50 36 -26 74 -43 111 -50
75 -15 134 -53 130 -83 -2 -16 -9 -21 -26 -20 -25 3 -30 -18 -8 -36 21 -17
246 -92 257 -85 6 3 16 1 23 -5 15 -12 46 -5 46 11 0 5 20 8 44 7 25 -2 50 2
58 8 20 17 75 26 83 14 3 -6 12 -11 19 -11 7 0 44 -20 82 -45 59 -39 75 -45
122 -45 34 0 59 5 68 15 18 17 55 19 104 5 44 -13 190 15 190 36 0 21 50 17
89 -7 29 -18 40 -19 70 -11 20 6 70 13 111 17 41 4 80 12 87 17 7 5 22 9 35 8
46 -4 58 1 101 43 53 52 99 63 190 46 44 -9 62 -9 65 -1 2 6 9 9 17 6 7 -3 21
3 31 14 11 11 28 21 38 23 12 3 23 16 28 34 4 17 27 52 52 77 24 26 47 55 50
65 4 11 19 32 35 47 25 24 28 32 21 62 -4 19 -4 36 0 39 11 7 34 144 26 152
-3 4 0 16 7 27 8 12 17 41 20 66 3 25 12 83 20 130 8 47 18 117 21 155 4 39 8
77 10 85 1 8 6 38 10 65 4 28 13 66 21 85 7 19 18 53 24 75 15 58 47 104 79
116 l27 11 -22 15 c-19 13 -21 21 -17 66 5 51 13 75 39 127 19 37 28 89 26
146 -1 35 3 55 14 64 8 7 15 18 15 25 0 16 -25 37 -33 28z"/>
<path d="M5535 5281 c-16 -4 -45 -15 -63 -25 l-33 -17 6 -62 c3 -34 6 -81 8
-104 2 -36 5 -42 20 -37 9 3 33 -5 53 -17 20 -12 49 -22 65 -21 16 0 29 -4 29
-9 0 -5 6 -9 14 -9 7 0 25 -10 40 -21 19 -15 35 -20 56 -16 25 5 31 1 51 -31
15 -24 24 -54 25 -87 0 -27 6 -51 13 -53 6 -2 11 -11 11 -20 0 -10 3 -13 10
-6 13 13 19 94 9 122 -7 19 -5 22 16 22 34 0 38 13 14 41 -48 55 -53 67 -39
108 11 35 10 42 -6 65 -11 14 -26 28 -34 31 -9 3 -24 25 -34 49 -26 64 -88
106 -153 105 -26 -1 -61 -4 -78 -8z"/>
<path d="M3225 5014 c-232 -26 -315 -41 -315 -56 0 -15 138 -4 483 38 75 9
140 20 142 25 8 11 -181 7 -310 -7z"/>
<path d="M2025 4884 c-119 -13 -342 -42 -545 -70 -278 -38 -349 -76 -103 -55
76 6 165 16 198 22 56 9 321 43 582 74 61 7 116 16 122 20 46 28 -54 31 -254
9z"/>
<path d="M7665 4850 c-3 -5 18 -16 47 -24 354 -98 541 -146 568 -146 15 0 20
5 18 18 -2 13 -33 25 -128 49 -222 58 -460 113 -487 113 -6 0 -14 -4 -18 -10z"/>
<path d="M11976 4745 c-4 -10 -19 -15 -49 -15 -52 0 -74 -17 -49 -37 9 -8 11
-12 5 -8 -8 4 -13 0 -13 -10 0 -12 -5 -15 -17 -11 -17 6 -17 5 0 -8 24 -19 22
-25 -13 -37 -16 -6 -30 -14 -30 -17 0 -4 -20 -8 -45 -10 -35 -2 -45 1 -45 13
0 8 -6 15 -13 15 -8 0 -24 9 -37 20 -32 28 -68 25 -124 -10 -37 -24 -46 -35
-41 -48 4 -9 8 -26 9 -37 1 -16 -5 -20 -29 -19 -178 8 -232 4 -247 -19 -3 -6
-20 -10 -37 -10 -17 0 -31 -4 -31 -9 0 -4 -8 -8 -17 -8 -13 0 -14 -3 -6 -11
12 -12 76 -32 175 -54 32 -7 65 -18 73 -25 8 -7 21 -10 28 -7 16 6 111 -9 148
-24 23 -9 78 -18 284 -47 58 -9 75 -17 75 -39 0 -14 -11 -15 -86 -9 -47 4
-113 16 -147 26 -34 10 -89 21 -123 23 -38 3 -79 14 -112 30 -43 22 -57 24
-76 15 -18 -8 -41 -7 -88 2 -34 7 -94 14 -133 16 -38 2 -94 6 -123 7 -29 2
-48 1 -41 -3 15 -10 2 -50 -17 -50 -10 0 -12 -5 -8 -12 6 -10 5 -10 -7 -2 -11
9 -17 9 -26 -1 -6 -7 -9 -16 -6 -19 4 -3 -6 -6 -20 -6 -15 0 -27 3 -27 8 0 4
-37 6 -82 4 -47 -2 -99 2 -120 9 -44 14 -63 4 -73 -41 -8 -34 -26 -40 -96 -29
-30 5 -61 7 -69 4 -34 -10 -211 -8 -223 4 -19 19 -42 13 -70 -19 -34 -38 -78
-41 -100 -7 -12 18 -34 28 -94 41 -43 9 -107 28 -143 40 -36 13 -96 31 -135
41 -142 37 -205 54 -425 118 -440 127 -630 177 -675 177 -21 0 -26 -4 -23 -21
2 -18 22 -27 113 -54 61 -18 177 -53 258 -79 81 -25 243 -70 360 -101 117 -31
277 -73 357 -95 119 -33 161 -40 235 -40 106 0 149 -16 213 -79 59 -57 56 -68
-28 -131 -25 -19 -74 -59 -110 -91 -36 -31 -74 -61 -85 -67 -38 -19 -426 -56
-720 -67 -230 -9 -325 -16 -325 -25 0 -18 140 -105 219 -137 46 -18 89 -37 95
-42 6 -5 78 -44 161 -86 82 -43 170 -91 195 -108 50 -35 253 -153 333 -194
187 -95 820 -323 1272 -458 273 -81 318 -98 555 -208 36 -16 131 -58 213 -93
l147 -62 0 1179 c0 1150 0 1179 -19 1179 -10 0 -21 -7 -25 -15z"/>
<path d="M560 4699 c-25 -5 -83 -9 -130 -9 -65 0 -94 -4 -124 -20 -58 -29
-141 -45 -228 -42 -76 2 -78 1 -78 -22 0 -22 2 -23 52 -14 126 21 176 28 228
28 30 1 89 8 130 16 41 9 95 17 119 19 51 4 126 14 159 22 18 4 20 8 11 19
-13 15 -68 17 -139 3z"/>
<path d="M7250 4670 c-19 -10 -56 -22 -82 -25 -43 -6 -50 -11 -47 -31 0 -4 -5
-11 -13 -16 -16 -10 8 -32 60 -55 44 -19 187 -18 272 1 36 8 91 18 123 21 88
11 87 38 -2 39 -25 0 -38 2 -28 4 9 2 17 10 17 17 0 19 -87 32 -112 16 -38
-23 -118 0 -118 35 0 19 -28 17 -70 -6z"/>
<path d="M3559 4498 c-24 -17 -66 -50 -94 -73 -61 -50 -107 -79 -205 -130 -76
-39 -130 -75 -114 -75 5 0 1 -7 -9 -15 -11 -7 -25 -11 -33 -8 -9 3 -14 -1 -14
-12 0 -9 -18 -37 -40 -62 -22 -25 -40 -50 -40 -54 0 -5 -5 -9 -10 -9 -10 0
-73 -60 -163 -155 -20 -22 -50 -52 -65 -67 -39 -39 -85 -97 -99 -127 -19 -39
-34 -60 -75 -102 -21 -20 -38 -42 -38 -48 0 -6 -6 -11 -14 -11 -11 0 -13 -9
-9 -34 4 -29 2 -34 -18 -39 -13 -4 -33 -7 -45 -7 -11 0 -29 -6 -39 -14 -19
-14 -19 -15 4 -33 24 -20 22 -43 -4 -43 -7 0 -27 -12 -43 -27 -49 -47 -87 -73
-90 -63 -4 11 -62 14 -62 4 0 -3 9 -17 20 -32 l21 -26 -42 -42 c-30 -30 -52
-44 -81 -48 -24 -4 -52 -18 -68 -34 -49 -48 -84 -77 -111 -91 -15 -7 -57 -42
-95 -77 -37 -35 -74 -64 -82 -64 -10 0 -12 -7 -8 -24 5 -19 1 -26 -14 -31 -22
-7 -90 -65 -76 -65 5 0 -3 -10 -18 -21 -15 -12 -38 -39 -51 -59 -15 -24 -38
-43 -60 -51 -29 -11 -35 -17 -31 -34 3 -13 -1 -25 -13 -32 -10 -6 -30 -35 -44
-65 -36 -72 -91 -130 -120 -126 -14 2 -21 9 -19 20 5 29 -13 54 -120 166 -11
12 -33 22 -48 22 -14 0 -55 -10 -91 -22 -51 -19 -75 -34 -117 -80 -30 -31 -51
-62 -47 -68 8 -13 -58 -42 -79 -34 -9 3 -16 2 -16 -4 0 -18 -41 -22 -47 -4
-17 49 -77 80 -89 47 -5 -11 -16 -13 -43 -9 -39 6 -71 -12 -71 -40 0 -17 -72
-56 -104 -56 -21 0 -26 -5 -26 -25 0 -14 -6 -25 -12 -25 -7 0 -31 -5 -53 -11
l-39 -11 27 -24 c33 -28 19 -40 -29 -22 -33 12 -37 11 -51 -7 -8 -11 -17 -32
-20 -47 -6 -32 -23 -38 -23 -9 0 16 -6 19 -35 16 -21 -2 -45 -13 -59 -27 -12
-12 -53 -51 -89 -84 l-67 -62 0 -986 0 -986 6010 0 c4000 0 6010 3 6010 10 0
6 -84 10 -233 10 l-232 0 -29 83 c-16 45 -40 105 -52 132 -47 104 -114 284
-135 365 -12 47 -33 110 -46 140 -14 30 -32 78 -40 105 -8 28 -23 66 -33 85
-9 19 -23 53 -29 75 -7 22 -28 78 -46 125 -18 47 -58 162 -88 255 -52 159
-105 304 -165 454 -14 35 -37 74 -51 85 -46 38 -71 65 -71 76 0 17 22 11 47
-12 l23 -21 0 23 c0 51 -46 112 -173 233 -70 67 -140 128 -154 135 -23 13 -24
12 -18 -8 4 -12 18 -38 31 -57 13 -20 24 -41 24 -48 0 -7 15 -32 32 -56 37
-50 45 -62 73 -108 48 -80 117 -182 146 -212 40 -43 49 -61 49 -103 0 -50 -19
-39 -76 45 -26 38 -60 79 -76 90 -16 12 -48 58 -74 107 -71 139 -93 175 -124
207 -15 17 -35 46 -43 65 -8 20 -34 53 -58 75 -78 71 -116 115 -140 160 -19
35 -32 47 -63 57 -28 9 -49 26 -71 58 -18 25 -39 45 -48 45 -8 0 -19 4 -23 8
-9 8 -54 10 -54 1 0 -3 15 -20 33 -37 17 -18 61 -64 97 -103 57 -61 65 -75 59
-97 -4 -15 -1 -36 7 -52 8 -15 14 -32 14 -38 0 -6 12 -40 27 -76 14 -36 26
-77 25 -91 -1 -13 14 -57 34 -97 20 -41 38 -92 41 -116 l5 -42 -27 49 c-15 26
-33 65 -40 85 -28 78 -99 217 -136 265 -47 61 -136 154 -174 180 -15 10 -35
39 -46 64 -11 25 -38 63 -60 86 -70 72 -66 110 12 100 27 -4 49 -3 49 2 0 5
-39 29 -88 54 -48 24 -102 57 -120 72 -18 15 -37 28 -43 28 -6 0 -22 9 -36 20
-14 11 -37 20 -50 20 -29 0 -59 15 -91 44 -19 17 -37 21 -107 23 -49 1 -95 7
-112 16 -15 8 -46 18 -68 22 -21 3 -51 15 -66 26 -35 25 -59 24 -59 -1 0 -22
-4 -24 -28 -11 -9 4 -30 11 -46 15 -23 6 -27 4 -23 -8 7 -18 -13 -22 -30 -5
-7 7 -8 21 -2 42 12 43 11 57 -3 57 -18 0 -101 41 -123 61 -17 15 -45 20 -147
25 -122 7 -126 6 -132 -14 -4 -12 -16 -24 -27 -27 -25 -8 -24 -17 5 -45 19
-17 24 -29 20 -49 -4 -19 0 -32 15 -45 12 -11 21 -25 21 -32 0 -8 14 -21 31
-29 20 -11 29 -21 25 -31 -3 -9 -6 -20 -6 -25 0 -5 -11 -9 -25 -9 -25 0 -65
31 -65 50 0 6 -11 23 -25 38 -14 15 -25 35 -25 44 0 15 -9 18 -48 18 -56 0
-97 23 -72 40 8 6 38 9 68 6 53 -5 53 -4 39 17 -7 11 -20 24 -28 28 -54 26
-73 32 -116 34 -26 2 -48 4 -48 5 0 3 -120 28 -123 25 -16 -14 90 -105 123
-105 25 0 53 -34 36 -45 -5 -3 -12 -1 -16 5 -3 5 -25 10 -48 10 -33 0 -46 5
-63 28 -20 24 -25 25 -43 15 -26 -16 -48 -16 -57 -2 -5 8 1 10 18 6 14 -4 28
-4 31 0 11 11 -64 71 -82 66 -10 -2 -23 3 -31 11 -9 12 -16 13 -26 5 -17 -14
-34 -3 -34 22 0 10 -4 19 -10 19 -5 0 -10 -4 -10 -10 0 -5 -4 -10 -10 -10 -5
0 -10 6 -10 14 0 16 -21 26 -53 26 -16 0 -18 -3 -9 -12 7 -7 12 -23 12 -37 0
-13 6 -32 14 -40 18 -21 2 -71 -16 -53 -15 15 -80 16 -95 1 -6 -6 -9 -18 -6
-26 7 -18 75 -53 103 -53 12 0 33 -6 48 -14 15 -7 51 -19 80 -26 28 -6 55 -16
58 -21 11 -18 31 -9 30 14 -1 21 3 22 63 22 42 0 66 -5 69 -13 2 -6 16 -12 31
-12 21 0 45 -16 90 -59 33 -33 61 -67 61 -75 0 -9 15 -23 33 -33 l32 -18 -30
-3 c-55 -5 -58 -9 -35 -39 20 -26 20 -28 4 -40 -26 -19 -37 -16 -87 22 -25 19
-52 35 -59 35 -8 0 -31 9 -53 20 -24 12 -59 20 -91 20 -42 0 -59 5 -83 26
l-31 26 0 -25 c0 -14 11 -39 25 -55 14 -17 25 -37 25 -46 0 -9 9 -25 20 -36
20 -20 20 -20 -18 -55 -61 -57 -80 -45 -74 48 1 15 -3 27 -9 27 -6 0 -25 11
-43 25 -18 14 -38 25 -44 25 -5 0 -17 21 -26 46 -9 26 -24 53 -33 60 -24 18
-68 18 -96 0 -44 -28 -142 -19 -152 15 -7 21 -31 26 -37 8 -5 -14 -78 -3 -78
11 0 6 -9 10 -20 10 -13 0 -20 7 -20 20 0 24 0 24 -36 5 -28 -15 -30 -14 -55
15 -26 31 -59 40 -59 16 0 -7 11 -21 25 -30 24 -16 35 -56 16 -56 -14 0 -145
51 -158 61 -6 6 -33 12 -60 15 -44 4 -82 12 -157 35 -15 5 -39 6 -52 3 -19 -5
-26 -1 -32 17 -12 31 -3 61 20 66 10 3 18 14 18 26 0 11 8 29 17 39 17 20 25
40 24 71 0 9 13 27 29 39 23 16 28 27 24 47 -5 23 -1 28 28 39 25 9 34 18 36
38 3 36 10 44 37 44 35 0 39 16 10 37 -24 17 -24 19 -10 40 9 12 22 20 30 17
14 -6 39 29 29 39 -3 3 4 10 15 17 21 11 29 40 11 40 -5 0 -10 5 -10 10 0 6
16 10 36 10 33 0 36 2 30 24 -5 22 -3 25 26 28 25 2 32 7 30 21 -2 12 6 21 25
28 15 5 39 25 53 44 18 25 33 35 53 35 15 0 27 4 27 9 0 5 12 11 28 13 20 2
28 9 30 27 5 29 -16 71 -35 71 -19 0 -43 -25 -43 -43 0 -43 -91 -64 -123 -29
-26 28 -21 35 23 29 22 -3 40 -2 40 2 0 26 -104 67 -140 56 -33 -11 -59 4 -68
38 -5 18 -16 33 -25 35 -14 3 -16 -2 -11 -27 5 -24 3 -31 -9 -31 -10 0 -18
-14 -22 -39 -4 -22 -13 -45 -21 -52 -8 -6 -14 -18 -14 -26 0 -21 -39 -93 -50
-93 -6 0 -10 -7 -10 -16 0 -11 -5 -14 -16 -10 -9 3 -18 6 -20 6 -16 0 20 93
51 130 7 8 16 40 19 70 4 30 12 60 17 66 19 23 11 235 -8 241 -7 3 -13 -2 -13
-11 0 -9 -4 -16 -10 -16 -5 0 -10 18 -10 39 0 69 -38 85 -124 52 -26 -10 -28
-14 -22 -46 10 -49 -12 -156 -35 -178 -10 -10 -19 -22 -19 -27 0 -6 -16 -10
-35 -10 -19 0 -35 -4 -35 -9 0 -14 -262 -271 -275 -271 -2 0 -21 -16 -42 -35
-21 -19 -42 -35 -46 -35 -4 0 -18 -9 -30 -21 -32 -31 -153 -108 -195 -126 -20
-8 -71 -32 -112 -52 -229 -115 -642 -192 -945 -177 -375 19 -345 15 -505 56
-19 5 -69 20 -110 34 -41 14 -109 34 -150 46 -41 12 -140 54 -220 93 -117 58
-158 84 -214 137 -79 75 -126 144 -162 238 -14 37 -32 83 -40 102 -33 83 -47
161 -51 293 -6 157 -8 160 -84 105z m-1554 -2418 l0 -55 -112 -3 -113 -3 -2
-232 -3 -232 -75 0 -75 0 -3 233 -2 232 -110 0 -110 0 0 60 0 60 303 -2 302
-3 0 -55z m3503 45 c73 -31 112 -86 112 -160 0 -57 -20 -97 -62 -126 -18 -12
-35 -24 -37 -25 -2 -2 11 -15 28 -30 32 -26 121 -189 121 -219 0 -13 -13 -15
-77 -13 -87 3 -74 -8 -135 121 -41 87 -75 117 -133 117 l-44 0 -3 -117 -3
-118 -75 0 -75 0 -3 280 c-1 154 0 285 3 292 7 20 334 18 383 -2z m1022 -275
l0 -290 -23 -6 c-13 -3 -41 -4 -63 -2 -34 3 -39 6 -42 30 l-3 27 -47 -30
c-105 -66 -234 -20 -277 100 -36 104 -1 221 84 278 46 31 150 32 199 3 18 -11
35 -20 37 -20 3 0 5 45 5 100 l0 100 65 0 65 0 0 -290z m588 -2 l-3 -293 -60
0 c-59 0 -60 1 -65 30 -4 20 -8 26 -13 17 -5 -7 -27 -22 -49 -33 -89 -46 -206
-7 -250 82 -56 112 -10 274 89 315 49 21 137 18 183 -6 l40 -20 0 100 0 100
65 0 65 0 -2 -292z m280 0 l-3 -293 -60 0 -60 0 -3 293 -2 292 65 0 65 0 -2
-292z m-5024 118 c65 -27 76 -54 76 -190 0 -128 7 -151 45 -158 28 -5 25 -40
-5 -55 -14 -8 -50 -12 -84 -11 -57 3 -65 8 -82 46 -1 2 -19 -8 -39 -23 -31
-20 -50 -25 -101 -25 -53 0 -67 4 -93 26 -26 21 -31 33 -31 68 0 67 49 103
203 151 52 16 57 20 57 46 0 70 -92 92 -186 44 -27 -14 -52 -25 -56 -25 -5 0
-8 16 -8 35 0 38 13 48 85 71 54 17 178 17 219 0z m374 -28 c4 -45 9 -46 41
-12 42 44 78 57 147 52 117 -7 137 -49 132 -273 l-3 -150 -60 0 -60 0 -5 148
c-5 141 -6 150 -29 168 -36 30 -75 24 -121 -17 l-39 -36 -3 -131 -3 -132 -60
0 -60 0 -3 200 c-1 110 0 205 3 213 3 9 21 12 62 10 l58 -3 3 -37z m590 0 c4
-45 10 -47 43 -12 34 37 79 54 143 54 61 0 105 -27 124 -77 13 -34 24 -324 13
-342 -5 -8 -28 -11 -67 -9 l-59 3 -5 148 c-5 141 -6 150 -29 168 -36 29 -76
24 -119 -15 l-37 -34 -5 -134 -5 -133 -60 0 -60 0 -3 200 c-1 110 0 205 3 213
3 9 21 12 62 10 l58 -3 3 -37z m790 21 c60 -30 95 -84 100 -160 l4 -59 -156 0
c-146 0 -156 -1 -156 -19 0 -25 35 -68 70 -86 37 -19 113 -19 176 0 27 8 50
15 52 15 1 0 2 -16 2 -35 0 -33 -2 -35 -52 -50 -74 -22 -212 -20 -264 4 -127
58 -162 240 -65 343 20 22 54 45 76 53 62 22 160 19 213 -6z m362 -64 l5 -80
15 44 c8 25 31 62 51 83 31 33 42 38 81 38 24 0 52 -6 62 -13 16 -12 16 -16
-5 -70 -22 -57 -23 -58 -53 -51 -50 12 -76 8 -103 -17 -41 -38 -53 -80 -53
-179 l0 -90 -65 0 -65 0 0 203 c0 112 3 207 7 211 4 4 32 6 63 4 l55 -3 5 -80z
m1435 -130 l0 -210 -60 0 -60 0 -3 213 -2 213 62 -3 63 -3 0 -210z m1953 194
c60 -30 95 -84 100 -160 l4 -59 -156 0 c-146 0 -156 -1 -156 -19 0 -25 35 -68
70 -86 37 -19 113 -19 176 0 27 8 50 15 52 15 1 0 2 -16 2 -35 0 -33 -2 -35
-52 -50 -68 -20 -207 -20 -256 0 -96 41 -145 143 -121 255 14 64 65 124 124
145 62 22 160 19 213 -6z m-640 -237 c2 -140 -3 -174 -23 -142 -3 6 -17 10
-30 10 -31 0 -35 15 -35 130 0 108 9 146 37 153 47 13 48 11 51 -151z m229 26
c59 -64 95 -237 57 -268 -8 -8 -22 -29 -30 -48 -13 -32 -12 -37 15 -91 17 -31
36 -73 45 -93 19 -47 45 -61 100 -53 89 14 124 -46 140 -232 l6 -71 -63 -7
c-90 -9 -97 -13 -97 -43 0 -15 -6 -34 -13 -43 -13 -17 -82 -41 -91 -32 -2 3
-3 -7 -2 -21 2 -14 0 -26 -5 -26 -4 0 -2 -13 4 -29 8 -23 8 -36 -3 -55 -10
-20 -11 -28 0 -41 18 -22 -14 -31 -48 -14 -15 7 -32 13 -39 14 -18 1 -26 13
-19 30 5 13 8 13 26 -5 20 -20 50 -27 50 -12 0 4 -18 17 -40 30 -22 13 -38 27
-35 32 4 6 1 10 -5 10 -6 0 -9 3 -7 8 5 8 -19 33 -30 31 -10 -2 -43 62 -43 83
0 10 -11 47 -24 82 -25 67 -25 71 4 152 6 15 -1 35 -26 74 -19 30 -34 61 -34
70 0 8 -7 35 -16 59 -12 36 -13 56 -3 120 6 42 13 95 16 119 5 35 9 42 22 36
9 -4 40 -9 68 -12 80 -7 83 -2 83 144 0 68 4 124 8 124 5 0 18 -10 29 -22z
m-2390 -112 c6 -5 -21 -76 -29 -76 -4 0 -8 -5 -8 -11 0 -6 6 -9 13 -6 10 4 13
-2 10 -18 -6 -29 29 -55 74 -55 23 0 33 -5 33 -15 0 -14 -29 -16 -235 -14
-213 2 -235 4 -235 19 0 13 15 20 55 28 31 7 63 18 71 27 20 19 44 19 44 0 0
-8 7 -15 15 -15 8 0 15 7 15 15 0 8 3 15 8 15 4 0 7 10 8 23 0 12 2 29 5 37 6
21 -42 25 -108 10 -46 -10 -53 -15 -53 -36 0 -31 -16 -31 -24 1 -4 14 -11 25
-17 25 -6 0 -3 8 7 17 13 14 43 18 145 23 70 3 131 8 135 12 5 6 62 0 71 -6z
m1376 -216 c14 -11 43 -44 63 -73 21 -28 46 -58 56 -65 29 -21 65 -92 83 -162
9 -36 20 -81 25 -100 5 -19 12 -81 16 -137 7 -99 6 -104 -18 -141 -31 -46 -68
-125 -68 -144 0 -8 -5 -19 -12 -26 -7 -7 -11 -36 -10 -72 2 -50 -1 -62 -15
-67 -15 -6 -44 -29 -84 -69 -5 -5 -43 -50 -84 -101 -73 -89 -150 -157 -166
-148 -4 3 -10 -3 -13 -12 -4 -10 -24 -30 -45 -46 l-40 -27 -967 2 -968 3 -18
55 c-20 63 -16 185 9 254 7 22 16 72 20 112 6 70 5 73 -31 127 -47 70 -95 97
-175 97 -43 0 -60 4 -64 15 -4 8 -2 17 3 20 6 4 10 22 10 41 0 21 4 33 10 29
6 -3 10 1 10 10 0 12 7 15 25 13 14 -2 25 -7 24 -12 -1 -11 21 -26 39 -26 6 0
12 7 12 15 0 8 -6 15 -12 15 -9 0 -9 3 -3 8 6 4 17 26 25 50 15 47 30 64 30
33 0 -26 53 -69 95 -77 19 -3 56 -4 83 0 26 3 40 3 32 0 -8 -3 -22 -8 -30 -11
-11 -4 -8 -8 10 -12 18 -5 26 -15 28 -34 2 -15 9 -27 15 -26 7 1 19 1 27 0 12
-1 12 -4 -2 -12 -22 -12 -24 -67 -4 -75 21 -8 29 -56 27 -154 -7 -236 6 -327
50 -351 22 -11 331 -5 579 11 80 6 309 15 510 21 309 9 404 13 529 21 16 1
225 211 244 245 7 11 23 40 36 64 13 23 29 49 36 56 35 34 57 312 34 428 -5
28 -13 63 -16 79 -3 17 -21 56 -39 87 -19 32 -34 61 -34 66 0 4 -34 45 -75 90
-41 45 -75 84 -75 87 0 3 26 5 58 5 31 -1 47 -4 35 -6 -21 -4 -21 -4 5 -44 20
-30 32 -39 54 -39 26 0 28 3 22 23 -3 12 -11 27 -16 34 -6 7 -5 14 3 18 8 6 8
10 -2 16 -10 6 -7 10 11 17 14 5 32 12 40 15 26 10 37 7 63 -13z m-2243 -41
c0 -7 11 -9 30 -5 l30 6 0 -67 c0 -47 5 -72 16 -84 9 -10 14 -25 11 -34 -8
-19 -36 -20 -43 0 -7 16 -54 21 -54 5 0 -5 -6 -7 -13 -4 -8 3 -17 -7 -24 -23
-9 -26 -11 -27 -18 -8 -5 11 -12 22 -15 25 -15 11 -50 91 -50 115 0 31 7 31
29 3 l18 -21 7 28 c12 47 76 101 76 64z m-2432 -149 c-19 -59 -23 -63 -111
-133 -16 -12 -36 -30 -45 -39 -9 -10 -22 -18 -28 -18 -15 0 -13 62 2 81 6 8
14 23 18 34 8 24 81 78 116 85 14 3 29 15 35 28 5 12 15 22 21 22 7 0 4 -21
-8 -60z m1680 -28 c9 -7 12 -49 10 -178 l-3 -169 -45 0 -45 0 -3 165 c-1 90 0
170 2 177 6 14 64 17 84 5z m762 -61 c0 -28 3 -30 43 -33 37 -3 42 -6 42 -28
0 -22 -5 -25 -42 -28 l-43 -3 0 -58 c0 -70 14 -86 65 -78 32 5 35 4 35 -19 0
-48 -112 -63 -155 -19 -22 21 -25 33 -25 98 0 69 -2 75 -22 81 -21 5 -19 9 32
61 30 30 58 55 62 55 4 0 8 -13 8 -29z m1070 -1 c0 -29 2 -30 46 -30 44 0 45
-1 42 -27 -3 -25 -7 -28 -45 -31 l-43 -3 0 -58 c0 -70 14 -86 65 -78 32 5 35
4 35 -19 0 -17 -8 -27 -26 -34 -41 -16 -100 -12 -125 9 -21 17 -24 30 -27 99
-4 72 -6 81 -25 86 -20 5 -17 10 33 61 30 30 58 55 62 55 4 0 8 -13 8 -30z
m-1497 -61 c14 -17 17 -41 17 -125 l0 -104 -34 0 c-42 0 -46 10 -46 104 0 43
-5 77 -12 84 -19 19 -47 14 -73 -13 -22 -21 -25 -33 -25 -100 l0 -76 -37 3
-38 3 -3 123 -3 122 41 0 c33 0 40 -3 40 -20 0 -11 5 -20 10 -20 6 0 10 4 10
9 0 5 15 16 33 25 41 21 96 14 120 -15z m236 20 c19 -7 31 -18 31 -29 0 -15
-8 -18 -52 -16 -68 1 -77 -22 -19 -49 83 -37 103 -84 56 -130 -42 -43 -175
-31 -175 16 0 18 4 20 28 13 38 -10 72 -8 86 6 12 12 6 18 -63 63 -44 28 -55
48 -47 80 12 48 85 70 155 46z m412 -34 c3 -22 7 -35 8 -28 0 6 13 25 27 42
18 22 35 31 55 31 35 0 45 -18 32 -57 -8 -24 -14 -27 -44 -25 -52 5 -73 -24
-79 -107 l-5 -66 -35 0 -35 0 -3 128 -3 128 38 -3 c36 -3 38 -5 44 -43z m677
39 c16 -5 22 -14 22 -35 0 -28 -1 -28 -43 -23 -55 8 -90 -18 -90 -66 0 -47 33
-72 92 -68 38 3 46 0 49 -16 6 -29 -25 -46 -80 -46 -60 0 -103 21 -128 63 -55
89 11 196 120 196 19 1 45 -2 58 -5z m517 -8 c63 -27 94 -114 62 -176 -46 -91
-219 -94 -261 -5 -59 124 65 237 199 181z m205 -21 c0 -19 5 -35 10 -35 6 0
10 5 10 10 0 23 50 60 79 60 39 0 45 -12 27 -54 -11 -26 -19 -34 -30 -30 -26
10 -64 -5 -78 -29 -7 -12 -15 -49 -18 -82 l-5 -60 -35 0 -35 0 -3 114 c-1 63
0 121 2 128 3 7 21 13 41 13 33 0 35 -2 35 -35z m-1160 -54 c0 -99 5 -111 41
-111 50 0 69 33 69 117 l0 73 40 0 41 0 -3 -122 -3 -123 -37 -3 c-33 -3 -38 0
-38 17 0 26 -5 26 -37 1 -39 -31 -106 -27 -132 6 -18 23 -21 41 -21 125 l0 99
40 0 40 0 0 -79z m2963 -469 c55 -73 70 -116 62 -180 -7 -54 -51 -143 -84
-170 -20 -16 -86 -35 -131 -37 -19 -1 -77 -5 -129 -10 -90 -7 -93 -7 -87 12 4
13 -2 27 -18 43 -26 24 -51 106 -45 149 4 24 10 27 147 67 6 2 12 18 12 36 0
53 22 74 82 82 65 9 120 27 131 43 13 21 21 16 60 -35z m-558 -197 c21 -21 25
-33 25 -88 0 -66 -17 -124 -43 -145 -8 -7 -43 -14 -78 -16 -35 -2 -71 -6 -79
-9 -84 -28 -176 -40 -305 -42 -49 -1 -112 -5 -140 -10 -46 -8 -49 -7 -36 8 7
10 25 23 39 30 20 9 28 24 38 65 6 30 21 66 33 80 12 15 26 37 31 50 14 32 47
41 156 41 52 0 101 4 107 10 19 15 140 44 210 50 10 0 29 -10 42 -24z"/>
<path d="M5282 1963 l3 -88 64 3 c74 2 106 19 114 58 13 71 -35 114 -131 114
l-53 0 3 -87z"/>
<path d="M6251 1884 c-69 -48 -65 -201 5 -233 38 -17 89 -13 118 10 25 19 26
25 26 110 l0 89 -32 20 c-40 24 -86 26 -117 4z"/>
<path d="M6853 1890 c-72 -29 -82 -178 -16 -230 32 -25 85 -26 124 -3 29 17
29 18 29 113 l0 96 -35 17 c-39 19 -68 21 -102 7z m105 -135 c4 -68 -9 -85
-64 -85 -40 0 -64 30 -64 80 0 46 9 57 45 63 75 11 80 8 83 -58z"/>
<path d="M2248 1743 c-57 -31 -77 -73 -53 -109 21 -32 49 -38 90 -18 l35 16 0
69 c0 79 -3 81 -72 42z"/>
<path d="M3957 1899 c-19 -11 -47 -67 -47 -94 0 -12 17 -15 100 -15 l100 0 0
35 c0 52 -36 85 -92 85 -24 0 -51 -5 -61 -11z"/>
<path d="M7695 1884 c-14 -15 -25 -32 -25 -38 0 -6 -3 -21 -6 -33 -6 -23 -5
-23 93 -23 55 0 102 2 105 6 11 11 -12 80 -33 97 -13 10 -38 17 -66 17 -35 0
-49 -6 -68 -26z"/>
<path d="M8505 4240 c6 -24 33 -175 39 -216 1 -11 6 -26 10 -33 7 -10 1 -12
-25 -7 l-34 6 33 -17 c17 -9 32 -20 32 -24 0 -8 152 -99 165 -99 4 0 4 55 0
123 -5 67 -8 161 -6 209 l2 86 -111 -1 -111 -2 6 -25z"/>
<path d="M2245 3740 c-8 -13 -65 -40 -85 -40 -9 0 -27 -11 -40 -25 -13 -14
-31 -25 -39 -25 -41 0 -159 -76 -161 -102 0 -14 28 -9 44 7 8 8 25 15 37 15
12 0 46 16 75 35 29 19 60 35 69 35 9 0 30 14 46 31 17 19 35 29 44 25 22 -8
45 4 45 24 0 20 -26 35 -35 20z"/>
<path d="M7520 3552 c0 -4 9 -15 20 -25 23 -20 26 -37 6 -37 -22 0 -46 -29
-46 -56 0 -26 -36 -49 -55 -34 -5 5 -31 6 -58 3 -38 -5 -45 -8 -36 -19 6 -8
19 -14 28 -14 9 0 44 -7 76 -15 40 -11 61 -12 63 -5 5 15 38 12 52 -5 21 -25
32 -17 28 23 -3 37 -3 37 37 40 48 4 91 32 82 56 -4 9 -18 16 -33 16 -15 0
-37 11 -52 28 -38 39 -112 68 -112 44z"/>
<path d="M11160 1245 c0 -29 59 -237 73 -253 7 -10 24 -12 58 -7 61 8 122 -20
137 -64 10 -29 56 -61 87 -61 10 0 29 -13 44 -29 37 -40 106 -75 161 -81 35
-4 45 -10 50 -27 6 -26 97 -87 188 -126 l62 -27 -2 191 -3 191 -85 37 c-47 20
-96 43 -109 50 -17 9 -26 10 -34 2 -6 -6 -8 -11 -3 -11 4 0 1 -7 -8 -15 -30
-30 -102 29 -74 62 10 13 9 18 -7 29 -16 12 -26 15 -50 14 -13 -1 -62 30 -79
49 -26 28 -48 26 -75 -6 l-24 -26 -18 24 c-10 13 -19 35 -19 49 0 15 -9 31
-21 38 -26 17 -34 10 -19 -17 24 -47 -28 -57 -72 -14 -27 26 -29 27 -56 11
-19 -12 -32 -14 -45 -7 -9 6 -17 7 -17 3 0 -3 -9 4 -20 17 -18 23 -19 23 -20
4z"/>
</g>
</svg>
