<?xml version="1.0" standalone="no"?>
<!DOCTYPE svg PUBLIC "-//W3C//DTD SVG 20010904//EN"
 "http://www.w3.org/TR/2001/REC-SVG-20010904/DTD/svg10.dtd">
<svg version="1.0" xmlns="http://www.w3.org/2000/svg"
 width="1160.000000pt" height="1052.000000pt" viewBox="0 0 1160.000000 1052.000000"
 preserveAspectRatio="xMidYMid meet">
<metadata>
Created by potrace 1.16, written by Peter Selinger 2001-2019
</metadata>
<g transform="translate(0.000000,1052.000000) scale(0.100000,-0.100000)"
fill="#000000" stroke="none">
<path d="M5930 8775 c0 -8 -11 -24 -24 -37 -29 -29 -37 -61 -24 -99 13 -37 26
-36 118 9 68 34 75 40 78 70 2 18 -1 32 -7 32 -6 0 -11 -4 -11 -10 0 -22 -21
-8 -26 18 -5 25 -10 27 -55 29 -37 2 -49 -1 -49 -12z"/>
<path d="M5205 8618 c-16 -6 -37 -16 -45 -23 -8 -7 -26 -16 -40 -20 -54 -16
-99 -46 -161 -106 -58 -56 -61 -62 -34 -55 16 4 32 11 35 15 10 13 60 41 74
41 20 0 83 43 107 74 13 17 37 29 75 37 34 8 59 19 65 31 8 15 6 18 -18 17
-15 0 -41 -5 -58 -11z"/>
<path d="M5142 8493 c3 -25 0 -28 -25 -28 -15 0 -32 -7 -37 -15 -16 -24 -11
-70 9 -99 25 -34 14 -59 -18 -42 -11 7 -21 15 -21 20 0 4 -20 8 -45 9 -51 0
-53 -3 -25 -33 11 -11 23 -36 26 -54 6 -27 4 -33 -15 -38 -25 -6 -27 -18 -6
-27 19 -7 20 -46 1 -46 -8 0 -16 7 -20 15 -3 8 -12 15 -21 15 -13 0 -14 -4 -5
-21 14 -25 6 -49 -15 -49 -10 0 -15 -7 -14 -17 2 -10 -3 -28 -10 -41 -8 -16
-9 -27 -2 -36 8 -9 9 -129 2 -185 -1 -3 -6 0 -12 6 -6 6 -10 43 -10 82 0 53
-5 82 -20 111 -11 22 -18 44 -15 49 4 5 1 13 -5 16 -14 9 -59 -34 -59 -56 0
-12 -5 -16 -15 -13 -8 3 -19 3 -25 -1 -14 -9 2 -36 46 -81 21 -20 33 -41 30
-50 -8 -21 -22 -17 -49 16 -25 29 -26 29 -56 14 -33 -16 -55 -57 -67 -120 -4
-21 -16 -41 -30 -50 -18 -13 -22 -22 -17 -45 4 -22 2 -29 -10 -29 -25 0 -29
-17 -12 -51 20 -38 13 -47 -25 -32 -26 10 -32 9 -41 -9 -15 -28 -6 -43 42 -73
28 -18 38 -30 31 -37 -7 -7 -17 -6 -30 1 -30 16 -42 14 -51 -10 -8 -24 -9 -23
-50 30 l-18 25 -18 -28 c-10 -15 -20 -49 -23 -76 -4 -42 -1 -50 17 -60 25 -13
19 -30 -8 -23 -26 7 -35 -13 -32 -65 1 -24 -3 -49 -9 -57 -8 -10 -8 -19 -1
-34 9 -16 16 -19 34 -12 28 11 90 44 97 52 9 10 40 19 40 11 -1 -4 -26 -27
-56 -52 -38 -31 -54 -50 -50 -62 2 -10 0 -21 -5 -24 -5 -3 -9 -14 -9 -25 0
-11 -16 -36 -35 -56 -19 -20 -53 -74 -75 -121 l-40 -84 7 -99 c3 -55 10 -102
15 -105 4 -3 8 2 8 10 0 8 8 20 19 25 16 9 17 7 13 -17 -3 -15 -11 -37 -19
-49 -16 -25 -14 -95 3 -100 16 -5 66 71 84 127 8 25 22 59 31 75 10 17 25 68
34 115 9 47 22 101 30 120 7 19 16 51 20 71 3 21 14 48 25 61 10 14 22 38 26
54 4 16 13 36 20 44 7 9 22 36 33 61 11 25 29 54 41 64 11 10 20 25 20 32 0
31 147 175 257 252 61 44 122 82 135 86 12 4 32 14 43 21 11 8 27 14 37 14 17
0 103 43 123 61 5 5 22 9 37 9 28 0 67 17 80 34 8 12 20 14 128 22 80 7 170
34 170 51 0 5 14 14 31 20 30 11 30 12 12 32 -10 12 -25 30 -35 40 -26 30 -31
58 -13 69 14 7 12 12 -14 33 -20 15 -31 33 -31 50 0 15 -12 37 -30 54 -67 64
-16 74 75 14 76 -50 122 -71 146 -67 15 2 10 12 -31 55 -27 28 -58 57 -69 62
-26 14 -138 14 -146 0 -11 -17 -40 -5 -40 16 0 16 -11 23 -49 32 -55 14 -61
18 -61 41 0 12 -13 20 -42 26 -42 9 -53 19 -33 31 19 12 -1 25 -38 26 -34 0
-35 1 -14 11 32 16 21 33 -20 33 -46 0 -56 10 -26 26 47 25 50 49 6 49 -18 1
-44 7 -58 15 -41 24 -61 19 -58 -12z m43 -489 c28 -25 46 -44 40 -43 -30 5
-36 -2 -29 -36 5 -29 2 -39 -16 -55 -27 -23 -32 -24 -48 -8 -7 7 -12 8 -12 4
0 -5 -9 3 -20 17 -24 30 -25 46 -4 54 12 4 13 8 3 13 -9 6 -9 18 2 54 7 25 18
46 24 46 5 0 33 -21 60 -46z"/>
<path d="M6307 8362 c-5 -7 -14 -12 -20 -11 -7 1 -19 -1 -27 -4 -8 -4 -44 -8
-80 -9 l-65 -3 0 -45 0 -45 54 -17 c62 -20 97 -46 82 -61 -7 -7 -19 -6 -36 1
-33 15 -48 7 -39 -20 4 -14 2 -18 -5 -14 -6 4 -17 3 -25 -1 -21 -13 -1 -52 33
-64 29 -10 46 -33 36 -49 -7 -11 43 -50 63 -50 13 0 13 3 -1 18 -22 24 -21 32
2 32 21 0 81 -46 81 -62 0 -6 -6 -6 -15 2 -8 6 -19 10 -25 8 -7 -2 5 -19 26
-38 20 -19 50 -47 65 -61 18 -17 31 -23 37 -17 6 6 19 7 30 4 17 -6 20 -13 15
-41 -3 -22 -2 -35 5 -35 6 0 12 -12 14 -27 2 -22 9 -28 28 -30 14 0 30 -1 36
-2 16 -1 25 -39 10 -45 -6 -2 2 -5 17 -5 20 -1 47 -18 90 -56 66 -60 66 -60
197 -55 71 2 94 7 140 31 30 15 66 37 80 48 23 18 24 22 13 52 -8 20 -9 37 -4
42 16 16 0 37 -30 37 -15 0 -45 -11 -65 -25 -20 -14 -41 -25 -47 -25 -6 0 0
11 13 25 13 14 29 25 36 25 7 0 15 9 19 19 3 11 19 22 36 26 31 7 49 30 49 64
0 12 6 21 13 21 16 0 47 31 47 47 0 6 -28 10 -69 9 -88 0 -101 10 -101 80 0
43 -6 62 -31 98 -17 26 -32 46 -34 46 -1 0 -16 -7 -31 -15 -56 -29 -65 -15
-42 70 7 24 9 47 6 50 -8 8 -58 -35 -58 -50 0 -7 -9 -20 -20 -30 -14 -12 -18
-25 -14 -41 5 -18 2 -24 -10 -24 -8 0 -25 -10 -36 -22 l-21 -23 6 30 c4 17 11
42 17 57 11 29 5 58 -11 58 -6 0 -22 -11 -37 -25 -28 -26 -58 -32 -69 -15 -3
6 -19 10 -35 10 -17 0 -30 7 -35 18 -6 15 -10 13 -30 -13 -21 -25 -25 -27 -31
-12 -3 10 -4 39 0 65 5 44 5 45 -7 19 -13 -27 -14 -27 -30 -9 -9 10 -17 28
-17 40 0 27 -5 27 -30 2 -14 -14 -18 -28 -14 -45 5 -19 2 -25 -10 -25 -19 0
-21 -34 -5 -111 6 -30 12 -63 13 -75 3 -26 44 -112 59 -122 7 -4 21 -18 32
-32 11 -14 13 -19 5 -12 -8 6 -24 12 -35 12 -27 0 -105 118 -105 159 0 16 -9
40 -21 55 -16 21 -18 30 -9 41 8 10 9 29 1 72 -6 32 -12 76 -14 98 -1 25 -5
35 -10 27z"/>
<path d="M7075 7562 c-11 -2 -24 -8 -30 -12 -5 -4 -26 -11 -45 -15 -19 -4 -54
-20 -78 -35 l-43 -29 29 -15 c36 -19 139 -129 196 -211 24 -33 67 -110 97
-172 44 -91 58 -112 76 -113 26 0 42 -15 67 -63 11 -19 29 -38 40 -41 32 -9
96 -7 96 2 0 16 -38 44 -77 57 -21 7 -38 20 -38 27 0 18 -23 42 -50 52 -19 7
-19 8 -2 20 9 7 17 23 17 34 0 16 7 22 33 24 l32 4 -30 13 c-29 12 -29 13 -11
27 11 8 26 14 33 14 7 0 13 4 13 9 0 10 -34 21 -67 21 -27 0 -31 25 -5 35 14
5 15 7 2 14 -8 5 -32 11 -53 15 -21 4 -35 11 -32 16 3 5 13 7 23 4 11 -4 9 -1
-4 8 -12 7 -38 28 -59 47 -33 28 -37 36 -27 52 7 11 8 20 2 24 -5 3 -9 16 -8
28 1 12 -9 37 -22 55 -18 24 -31 32 -55 32 -44 0 -48 8 -18 34 29 25 28 44 -2
38z"/>
<path d="M7384 6738 c4 -35 12 -85 18 -111 7 -35 7 -52 -1 -60 -8 -8 -14 -8
-23 1 -23 23 -28 11 -28 -77 0 -81 -2 -90 -20 -96 -40 -13 -23 -42 35 -60 91
-29 98 -42 18 -37 -37 2 -76 8 -85 13 -10 5 -84 12 -165 16 -82 3 -156 10
-165 15 -49 25 -576 46 -657 26 -25 -6 -50 -14 -56 -19 -5 -4 -27 -10 -47 -14
-21 -4 -38 -10 -38 -14 0 -3 -19 -12 -42 -19 -24 -7 -54 -26 -68 -43 -23 -27
-34 -31 -100 -38 l-75 -7 89 -6 c49 -4 93 -11 98 -16 5 -5 12 -28 15 -51 4
-32 14 -49 41 -71 35 -29 35 -30 25 -75 -6 -29 -7 -62 -1 -92 64 -334 132
-437 335 -509 66 -23 94 -27 184 -27 110 0 173 15 114 28 -71 15 -89 21 -93
34 -4 11 7 12 54 7 71 -9 124 -24 124 -37 0 -21 83 -8 143 22 97 49 133 82
167 157 17 37 40 84 51 105 23 43 46 187 43 260 l-2 48 32 -3 c29 -3 31 -5 29
-38 -2 -19 4 -64 11 -100 52 -237 58 -284 52 -442 -3 -84 -10 -173 -15 -198
-6 -25 -15 -90 -22 -145 -6 -55 -15 -105 -20 -110 -4 -6 -4 -17 1 -25 7 -12
13 -11 33 8 27 26 37 28 37 8 0 -8 11 -28 25 -44 30 -36 31 -48 6 -62 -16 -8
-18 -13 -8 -34 12 -25 43 -41 52 -26 6 10 -22 149 -37 177 -6 12 -20 23 -32
25 -28 4 -33 48 -11 105 12 31 15 57 10 89 -6 42 -5 44 19 44 30 0 31 3 14 30
-11 17 -10 26 5 51 12 22 14 35 7 44 -5 6 -7 14 -4 17 11 12 25 137 29 258 5
166 12 236 26 262 15 28 5 97 -25 167 -38 87 -42 201 -7 201 12 0 48 -71 56
-110 4 -19 13 -46 20 -60 l13 -25 12 30 c9 23 9 44 1 86 -6 30 -11 67 -11 82
0 14 -9 42 -20 62 -15 27 -17 41 -10 60 7 19 6 34 -5 55 -8 16 -15 40 -15 53
0 14 -7 44 -16 68 -19 54 -12 158 12 176 9 7 14 22 12 40 -3 28 -4 28 -77 31
l-73 3 6 -63z m-404 -485 c83 -22 108 -33 158 -71 60 -45 97 -152 53 -152 -10
0 -24 7 -31 15 -7 8 -23 15 -35 15 -23 0 -49 22 -39 33 3 3 17 1 30 -5 27 -13
29 -12 38 19 5 17 1 26 -19 39 -24 16 -26 16 -38 0 -13 -18 -60 -28 -89 -20
-31 9 -20 33 19 40 l37 7 -44 13 c-25 8 -55 14 -67 14 -12 0 -30 8 -40 19 -10
10 -28 24 -40 30 -13 6 -23 17 -23 22 0 13 24 9 130 -18z"/>
<path d="M5095 6370 c-2 -4 -64 -10 -137 -13 -73 -4 -153 -11 -178 -17 -48
-12 -153 -32 -291 -55 -141 -24 -133 -17 -135 -126 -1 -60 -10 -123 -24 -174
-28 -105 -30 -256 -3 -273 23 -15 41 -71 47 -147 4 -44 14 -122 23 -173 17
-99 13 -126 -24 -212 -28 -63 -31 -97 -17 -178 10 -56 11 -89 4 -113 -6 -19
-13 -104 -17 -190 -6 -146 -5 -159 15 -200 12 -24 26 -65 31 -91 6 -25 22 -68
36 -94 14 -26 25 -55 25 -64 0 -9 9 -25 20 -35 11 -10 20 -31 20 -46 0 -15 5
-31 10 -34 6 -3 10 -24 10 -47 0 -22 8 -51 18 -66 11 -16 20 -48 21 -77 1 -33
7 -54 19 -63 14 -11 15 -16 3 -33 -16 -27 -3 -41 41 -43 l33 -2 2 -73 c2 -85
7 -103 26 -95 9 3 20 -9 32 -35 10 -22 26 -48 36 -57 11 -10 19 -27 19 -39 0
-13 7 -25 15 -29 8 -3 15 -15 15 -27 0 -11 9 -32 20 -46 11 -14 20 -34 20 -43
0 -31 43 -134 62 -148 10 -7 18 -20 18 -27 0 -11 8 -13 29 -9 18 4 48 -1 75
-11 36 -14 48 -25 60 -55 19 -49 66 -97 76 -79 9 13 40 5 40 -11 0 -5 -7 -10
-15 -10 -8 0 -15 -7 -15 -15 0 -9 9 -15 24 -15 16 0 27 -7 31 -20 7 -22 21
-26 27 -8 5 14 38 4 38 -12 0 -5 -6 -10 -14 -10 -8 0 -18 -5 -22 -12 -5 -8 2
-9 26 -5 26 6 40 2 66 -18 18 -14 39 -25 48 -25 8 0 18 -4 21 -10 23 -37 256
-88 287 -62 8 6 69 9 148 8 74 -1 153 2 175 7 58 12 160 16 176 6 8 -5 26 0
46 12 18 11 44 19 57 17 14 -2 26 2 27 7 3 16 32 34 55 35 12 0 27 7 35 16 9
11 22 14 46 9 18 -3 33 -2 33 3 0 5 14 15 31 23 27 11 36 10 60 -4 17 -9 29
-12 29 -5 0 7 5 6 15 -2 10 -8 15 -9 15 -2 0 6 15 14 34 17 28 6 37 14 52 48
21 48 42 68 65 63 9 -2 21 5 28 15 6 11 20 19 32 19 13 0 25 11 35 35 16 40
20 41 45 19 22 -20 49 -12 56 16 3 11 16 23 29 26 16 4 26 16 30 33 11 52 22
70 42 64 14 -3 21 3 28 29 8 27 7 38 -9 60 -20 27 -16 51 7 42 9 -4 16 6 19
28 16 89 21 105 48 130 25 23 29 34 29 80 0 65 13 115 39 142 10 12 24 46 30
76 7 30 19 62 28 72 9 10 20 40 24 68 5 31 20 67 39 94 28 38 30 47 20 66 -10
18 -9 24 1 31 8 5 20 7 27 4 6 -2 12 0 12 5 0 6 -6 20 -12 31 -11 17 -10 23
10 39 33 27 40 137 12 197 -11 24 -24 43 -28 43 -13 0 -73 121 -65 133 3 5 11
2 17 -10 6 -10 31 -38 56 -60 44 -40 47 -41 58 -23 18 29 15 37 -13 44 -14 4
-23 11 -19 17 3 6 12 8 19 5 14 -5 39 49 30 64 -10 16 -70 18 -80 3 -16 -22
-85 -7 -85 18 0 11 7 19 16 19 11 0 14 6 9 20 -5 16 -2 20 14 20 12 0 21 -4
21 -10 0 -5 5 -10 10 -10 18 0 10 26 -15 48 -16 14 -25 32 -25 50 0 31 -31 67
-52 60 -7 -3 -17 -24 -23 -49 -6 -25 -17 -45 -26 -45 -7 -1 -17 -2 -22 -3 -4
0 -1 -12 8 -24 10 -16 13 -34 9 -56 -7 -32 -8 -33 -58 -31 -71 3 -76 2 -76
-16 0 -9 -13 -33 -29 -53 -16 -21 -33 -50 -37 -65 -3 -15 -20 -36 -36 -46 -16
-10 -36 -27 -44 -39 l-15 -21 -34 26 c-20 15 -47 52 -64 88 -22 47 -43 73 -83
104 -30 23 -60 42 -65 42 -6 0 -16 7 -24 16 -7 9 -27 23 -45 32 -114 59 -151
86 -176 126 -32 50 -34 67 -13 126 9 27 13 57 9 79 -6 36 -57 136 -75 146 -5
4 -7 10 -4 14 2 5 -4 16 -15 26 -10 9 -16 23 -13 31 6 15 33 19 33 5 0 -11
102 -27 140 -23 26 4 44 22 32 33 -4 4 -39 16 -78 28 -123 36 -235 127 -286
231 -39 79 -71 212 -77 318 -6 106 -6 107 -36 121 -16 8 -36 23 -43 33 -7 10
-16 18 -20 18 -4 0 -7 -40 -7 -89 0 -69 -4 -93 -17 -107 -9 -11 -19 -35 -22
-54 -3 -19 -14 -42 -26 -52 -21 -17 -27 -38 -11 -38 5 0 9 -17 9 -37 -2 -85 0
-93 27 -93 14 0 25 -4 25 -10 0 -5 -6 -10 -14 -10 -9 0 -12 -8 -9 -24 6 -30
-13 -44 -22 -16 -5 15 -15 20 -43 20 -26 0 -33 -3 -22 -9 8 -6 18 -7 22 -5 4
3 8 1 8 -5 0 -5 -9 -12 -19 -16 -34 -10 -41 -28 -29 -68 8 -27 17 -37 32 -37
68 0 83 -16 90 -94 6 -65 11 -76 31 -76 8 0 18 -12 21 -27 4 -16 16 -38 26
-50 11 -12 17 -26 14 -31 -6 -11 50 -73 62 -70 4 1 30 -1 59 -5 31 -5 70 -3
98 4 61 16 79 1 72 -59 -5 -48 -27 -71 -68 -72 -18 0 -28 6 -32 18 -7 31 -43
32 -95 5 -81 -43 -112 -82 -136 -173 l-12 -45 -90 0 c-107 0 -146 18 -173 81
-19 42 -68 86 -108 99 -32 9 -29 -9 5 -34 l27 -20 -26 -1 c-23 0 -123 27 -176
47 -12 5 -12 1 3 -22 17 -27 17 -28 -1 -41 -10 -8 -15 -14 -11 -14 5 0 3 -7
-4 -15 -7 -9 -30 -15 -54 -15 -26 -1 -56 -10 -81 -25 -22 -14 -52 -25 -66 -25
-27 0 -73 -30 -97 -62 -7 -9 -45 -34 -84 -55 -45 -23 -77 -48 -87 -66 -9 -16
-28 -43 -44 -60 -15 -18 -30 -42 -33 -55 -4 -13 -20 -29 -40 -37 -19 -8 -34
-19 -34 -24 0 -6 -11 -11 -24 -11 -24 0 -36 16 -36 50 0 10 -12 25 -26 35 -15
9 -23 22 -20 30 6 18 -12 31 -25 18 -17 -17 -55 -3 -67 25 -7 15 -25 52 -42
82 -16 30 -29 67 -30 81 0 15 -7 30 -15 33 -9 3 -23 23 -32 43 -8 21 -23 49
-33 63 -9 14 -22 65 -29 115 -7 50 -19 134 -27 188 -8 53 -17 159 -20 235 -3
75 -10 154 -15 175 -6 21 -7 70 -3 109 12 124 92 320 108 266 3 -7 7 -58 11
-113 4 -73 11 -111 27 -140 11 -22 31 -72 43 -111 18 -59 30 -78 74 -120 101
-94 195 -122 423 -126 81 -2 144 -6 140 -9 -4 -4 -32 -14 -62 -22 -61 -18
-272 -21 -304 -5 -12 7 -22 6 -29 -1 -8 -8 -7 -11 4 -11 9 0 29 -6 45 -14 40
-20 408 -26 442 -8 12 7 22 10 22 6 0 -4 10 2 23 13 12 11 47 34 77 51 30 17
77 52 104 77 35 32 57 46 75 45 46 -3 53 -1 47 16 -4 9 -2 22 3 28 5 6 11 27
13 46 3 32 7 36 45 45 45 11 86 38 46 30 l-21 -4 20 35 c23 40 18 97 -10 113
-14 8 -17 26 -19 93 -2 46 -4 106 -5 133 -1 28 1 58 6 68 15 32 -12 18 -33
-18 -15 -25 -27 -35 -46 -35 -17 0 -25 -5 -25 -17 0 -15 -2 -14 -15 3 -21 28
-18 49 9 62 18 8 28 24 36 54 16 65 23 73 64 72 20 -1 36 3 36 7 0 5 -5 9 -11
9 -6 0 -32 17 -58 39 -58 48 -102 71 -216 109 -86 30 -96 31 -248 30 -87 -1
-160 -4 -162 -8z m565 -567 c-20 -163 -65 -277 -135 -346 -52 -52 -160 -113
-170 -96 -4 6 -5 11 -4 13 2 1 27 17 56 35 69 43 115 96 158 180 49 98 65 146
71 221 3 36 8 76 10 90 5 22 7 23 15 8 6 -11 6 -49 -1 -105z m93 -1532 c18
-18 -20 -48 -70 -56 -26 -4 -56 -13 -67 -21 -12 -7 -54 -24 -94 -37 l-73 -24
-11 21 c-6 12 -18 26 -26 32 -12 8 -13 19 -6 50 8 32 15 40 39 46 46 10 296 1
308 -11z"/>
<path d="M77 5188 c-8 -28 -1 -38 27 -38 56 0 103 -80 56 -95 -21 -7 -26 -20
-10 -30 5 -3 10 -18 10 -33 1 -15 2 -56 3 -92 2 -66 28 -125 51 -117 16 5 19
85 5 164 -6 37 -12 93 -13 123 -2 69 -15 92 -66 119 -51 26 -56 26 -63 -1z"/>
<path d="M11497 5193 c-14 -13 -7 -213 7 -248 9 -22 11 -37 5 -41 -5 -3 -261
-8 -567 -10 -306 -2 -593 -7 -638 -10 -118 -8 -114 7 -114 -398 0 -286 2 -325
16 -330 9 -3 58 -6 110 -6 96 0 228 -9 504 -35 257 -24 372 -28 581 -20 l199
7 0 179 0 179 -119 0 c-95 0 -123 3 -135 16 -23 23 -20 41 11 61 22 14 49 18
135 18 l108 0 0 323 0 322 -48 0 c-27 0 -52 -3 -55 -7z m-359 -653 c40 -18 42
-21 42 -64 0 -53 -11 -66 -89 -106 -32 -15 -63 -35 -70 -44 -16 -20 -51 -21
-76 -2 -15 11 -19 30 -22 112 -3 84 -1 101 14 112 27 19 151 15 201 -8z m-709
-9 c17 -17 18 -30 14 -127 -3 -60 -10 -114 -14 -120 -17 -22 -97 -38 -125 -26
-32 15 -41 42 -53 159 -13 125 -8 133 91 133 53 0 72 -4 87 -19z m343 2 c28
-25 26 -143 -3 -169 -19 -17 -23 -17 -47 -3 -24 13 -28 23 -35 88 -9 81 -1
101 41 101 14 0 34 -7 44 -17z"/>
<path d="M0 4690 c0 -104 3 -190 6 -190 3 0 31 7 61 16 39 11 57 22 63 39 5
13 14 26 20 30 13 8 -26 55 -46 55 -7 0 -25 10 -40 23 -26 23 -26 24 -10 55
18 35 21 113 6 143 -6 11 -21 19 -35 19 l-25 0 0 -190z"/>
<path d="M9468 4875 c-2 -3 -229 -5 -504 -5 -583 0 -856 -8 -851 -24 2 -7 70
-13 198 -16 107 -3 202 -9 211 -14 9 -4 19 -15 23 -24 10 -25 15 -201 19 -630
2 -210 6 -386 10 -389 8 -9 982 -5 1044 4 31 4 42 9 38 19 -8 20 4 44 20 44 8
0 22 -9 31 -20 23 -27 42 -25 53 5 12 31 45 36 103 13 16 -6 27 -18 27 -30 0
-17 7 -19 73 -16 l72 3 1 210 c2 203 1 211 -21 245 -20 31 -24 50 -27 160 l-3
124 29 14 29 14 -7 146 c-4 80 -12 152 -18 159 -8 10 -71 13 -278 13 -146 0
-269 -2 -272 -5z m388 -350 c25 -25 25 -26 18 -148 -3 -67 -10 -126 -14 -130
-12 -14 -314 -19 -359 -7 -25 6 -50 23 -68 46 -15 19 -44 54 -64 77 -20 23
-40 52 -43 64 -5 14 -18 25 -34 28 -84 18 -87 20 -87 50 l0 30 210 5 c452 12
413 13 441 -15z"/>
<path d="M372 4787 c-7 -8 -15 -47 -18 -88 -7 -85 -3 -93 60 -102 l39 -6 -8
52 c-5 29 -8 73 -7 100 0 33 -3 47 -13 47 -7 0 -20 2 -28 5 -7 3 -19 0 -25 -8z"/>
<path d="M10260 3255 c19 -9 112 -36 205 -61 253 -66 300 -79 420 -122 152
-55 501 -142 561 -141 47 1 45 2 -71 40 -309 101 -971 277 -1105 294 l-45 6
35 -16z"/>
<path d="M9707 3183 c-4 -3 -35 -12 -70 -18 -34 -6 -62 -15 -61 -21 1 -5 -6
-15 -15 -21 -14 -11 -14 -14 -1 -23 30 -20 290 -5 345 20 11 5 29 10 39 12 11
2 18 7 15 13 -5 11 -23 14 -102 15 -32 1 -74 8 -92 16 -38 16 -49 17 -58 7z"/>
<path d="M3720 3169 c-122 -8 -287 -24 -363 -36 -27 -4 -35 -8 -25 -15 21 -14
403 2 493 21 80 16 105 35 50 37 -16 1 -86 -2 -155 -7z"/>
<path d="M10150 3013 c0 -12 4 -24 9 -27 8 -5 21 -92 22 -141 0 -32 -19 -58
-70 -94 -84 -61 -189 -252 -151 -276 5 -3 43 3 82 14 40 10 107 22 148 26 78
7 98 14 142 51 23 18 40 22 100 23 81 1 130 -9 136 -27 2 -8 -11 -12 -42 -12
-25 0 -46 -4 -46 -9 0 -11 91 -46 250 -97 63 -20 187 -64 275 -99 166 -65 224
-84 435 -142 69 -19 133 -37 143 -40 16 -5 17 13 17 291 0 218 -3 296 -12 296
-13 0 -93 -23 -183 -52 -109 -35 -249 -48 -645 -58 -459 -11 -428 -19 -446
106 -8 54 -9 109 -2 173 6 67 6 97 -2 105 -6 6 -45 11 -86 11 -69 0 -74 -1
-74 -22z"/>
<path d="M4305 2743 c-3 -10 -1 -19 4 -21 27 -9 8 -24 -25 -20 -29 3 -38 1
-42 -14 -2 -10 -12 -18 -21 -18 -9 0 -25 -7 -35 -15 -11 -8 -28 -15 -38 -15
-10 0 -21 -7 -24 -15 -4 -8 -12 -15 -20 -15 -14 0 -37 -68 -33 -98 1 -9 -2
-26 -6 -36 -5 -11 -4 -31 2 -47 9 -22 8 -31 -3 -40 -9 -8 -11 -16 -4 -29 5 -9
13 -42 18 -73 9 -57 2 -64 -35 -34 -18 14 -16 28 3 20 12 -5 15 0 12 23 -2 25
-8 29 -35 32 -36 4 -39 12 -33 111 2 42 1 44 -25 39 -23 -5 -26 -3 -23 20 2
18 11 28 28 33 22 5 23 7 7 14 -13 5 -26 0 -45 -18 -48 -46 -157 -137 -163
-137 -8 0 -69 -56 -69 -63 0 -3 -21 -27 -47 -54 -27 -27 -64 -69 -83 -92 -60
-73 -62 -75 -72 -57 -10 17 -3 34 45 105 15 22 31 41 35 41 9 0 46 59 40 65
-6 6 -104 -40 -139 -65 -19 -14 -56 -36 -84 -50 -27 -14 -56 -31 -63 -37 -7
-7 -18 -13 -23 -13 -5 0 -15 -11 -21 -25 -16 -35 -28 -31 -26 10 1 28 9 42 42
69 23 18 56 37 73 40 18 4 48 18 67 31 19 13 52 31 73 40 21 9 46 21 55 26 10
5 25 9 33 9 20 0 51 18 104 60 115 92 245 180 267 180 8 0 17 7 20 15 4 8 14
15 24 15 11 0 22 5 25 10 4 6 22 17 41 25 35 15 38 35 5 35 -9 0 -66 -33 -125
-72 -59 -40 -123 -82 -142 -94 -18 -11 -44 -30 -56 -41 -30 -28 -165 -97 -231
-119 -82 -27 -282 -138 -334 -186 -16 -15 -41 -22 -91 -26 l-68 -4 -30 -62
c-19 -40 -36 -62 -49 -64 -11 -2 -30 -13 -42 -24 -38 -36 -64 -21 -97 57 -44
100 -38 95 -120 95 l-73 0 -58 -137 c-32 -76 -64 -144 -71 -152 -9 -11 -16 -2
-33 45 -12 33 -38 101 -58 152 l-35 92 -110 0 c-109 0 -109 0 -102 -22 4 -13
38 -97 77 -188 38 -91 70 -178 71 -195 0 -16 6 -34 13 -40 7 -5 30 -54 51
-108 43 -110 71 -137 141 -137 41 0 48 8 86 110 31 81 88 205 101 219 14 15
27 -10 64 -123 21 -63 19 -76 -10 -76 -35 0 -52 -11 -39 -26 13 -16 49 -19 49
-4 0 13 37 13 45 0 3 -6 4 -19 0 -29 -5 -16 -15 -19 -58 -19 -59 1 -104 -16
-113 -44 -3 -11 -17 -24 -30 -30 -31 -15 -31 -28 2 -28 37 0 30 -41 -9 -51
-31 -8 -107 -77 -107 -96 0 -20 -43 -58 -65 -58 -14 0 -19 -6 -17 -18 4 -23
-36 -56 -69 -57 -14 0 -38 11 -53 25 l-27 25 -29 -20 c-15 -11 -44 -20 -63
-20 -20 0 -39 -4 -42 -10 -3 -5 -21 -10 -40 -10 -25 0 -40 8 -58 30 -31 36
-83 43 -74 10 6 -25 -9 -35 -48 -31 -40 3 -73 -32 -89 -95 -17 -67 -42 -71
-51 -10 -4 25 -11 46 -15 46 -9 0 -40 56 -40 71 0 5 -8 18 -18 29 -9 11 -26
45 -37 76 -11 31 -29 63 -40 70 -19 13 -26 6 -105 -103 -153 -211 -195 -276
-283 -438 -136 -248 -297 -589 -341 -723 l-18 -52 -439 0 c-286 0 -439 -3
-439 -10 0 -7 1940 -10 5800 -10 3860 0 5800 3 5800 10 0 7 -155 10 -444 10
l-443 0 -18 67 c-30 113 -124 380 -182 518 -51 121 -216 453 -231 465 -7 5
-15 18 -85 139 -41 72 -42 73 -45 40 -2 -22 2 -35 12 -41 22 -12 20 -45 -3
-58 -11 -5 -34 -10 -51 -10 -17 0 -41 -5 -53 -11 -16 -9 -22 -9 -25 0 -2 7
-15 17 -29 22 -16 6 -23 14 -19 24 3 8 1 15 -4 15 -6 0 -18 8 -28 17 -31 30
-90 56 -129 57 -33 1 -38 4 -36 24 2 16 -2 22 -17 22 -10 0 -23 7 -28 16 -6
10 -25 18 -48 19 -45 3 -74 13 -74 26 0 5 -9 9 -19 9 -11 0 -26 6 -34 14 -12
12 -59 22 -124 25 -7 1 -13 12 -13 26 0 22 -4 25 -39 25 -28 0 -49 8 -69 25
-17 14 -45 31 -63 37 l-32 11 21 18 22 17 -33 13 c-17 7 -35 14 -39 16 -3 2
-9 -10 -13 -27 -6 -26 -11 -31 -28 -26 -12 3 -32 6 -43 6 -18 0 -22 6 -20 33
l1 32 -48 -2 c-45 -2 -48 -1 -45 20 3 20 -1 22 -52 23 -30 0 -73 9 -95 19 -22
9 -59 18 -82 18 -48 0 -56 13 -18 27 40 15 31 33 -12 27 -26 -4 -44 -1 -57 8
-11 8 -29 15 -41 15 -11 0 -30 7 -41 15 -24 16 -34 11 -34 -16 0 -14 10 -19
48 -21 40 -3 47 -6 50 -25 4 -27 22 -31 22 -6 0 12 3 14 11 6 8 -8 8 -17 0
-32 -12 -22 -31 -29 -31 -11 0 6 -8 10 -19 10 -10 0 -36 7 -57 16 -35 15 -39
15 -50 -1 -17 -22 -37 -9 -29 18 4 15 3 18 -3 9 -11 -16 -37 -17 -77 -4 -16 5
-39 6 -50 2 -11 -4 -26 -5 -32 -3 -7 3 -13 -2 -13 -11 0 -12 -9 -16 -34 -16
-19 0 -38 4 -41 10 -3 5 1 10 10 10 9 0 31 11 48 24 18 14 45 30 61 35 21 9
27 16 23 31 -4 16 1 21 21 26 15 3 33 7 39 9 10 3 10 0 1 -15 -14 -22 4 -50
33 -50 24 0 34 19 15 26 -23 9 -20 34 4 34 11 0 20 -4 20 -10 0 -5 21 -7 48
-5 26 2 53 4 60 4 6 1 12 8 12 16 0 9 7 15 16 13 10 -2 19 3 22 11 3 11 -2 12
-24 8 -16 -3 -23 -4 -16 -1 6 3 12 14 12 25 0 11 7 19 16 19 9 0 18 9 21 20 4
13 14 20 32 21 23 1 22 2 -8 9 -43 10 -61 4 -61 -22 0 -24 -28 -48 -47 -41
-20 8 -16 23 12 45 30 23 32 38 6 38 -11 0 -22 -9 -26 -19 -3 -10 -18 -22 -33
-26 l-27 -7 24 -17 c29 -22 18 -31 -37 -28 -33 1 -42 5 -42 19 0 13 8 18 25
18 18 0 25 5 25 20 0 11 7 23 15 25 51 16 49 14 30 35 -10 11 -14 20 -9 20 14
0 -19 20 -34 20 -7 0 -12 -6 -11 -12 4 -34 -1 -39 -26 -22 -30 20 -32 34 -5
41 25 7 26 22 3 25 -10 0 -24 2 -31 2 -15 1 -66 86 -51 86 5 0 9 6 9 13 0 8
-25 18 -67 25 -118 22 -144 17 -100 -19 37 -29 34 -39 -14 -39 -37 0 -41 2
-36 22 8 28 -9 58 -33 58 -26 0 -34 -17 -13 -29 17 -9 16 -12 -8 -35 l-27 -25
-5 28 c-6 29 -34 41 -94 41 -20 0 -23 4 -18 20 5 16 2 20 -14 20 -14 0 -23 -9
-27 -26 -6 -25 -9 -26 -58 -19 -46 6 -65 17 -66 38 0 4 11 7 24 7 18 0 25 7
29 28 3 15 4 28 4 29 -1 1 -21 -4 -45 -10 -33 -9 -47 -9 -62 1 -20 12 -50 7
-50 -9 0 -5 11 -9 25 -9 14 0 29 -8 35 -20 6 -11 7 -20 3 -20 -4 0 2 -7 13
-15 16 -13 17 -16 4 -25 -8 -6 -26 -9 -40 -8 -20 2 -26 9 -28 34 -2 21 -10 34
-22 37 -24 6 -36 66 -20 97 9 17 9 29 0 51 -7 16 -16 29 -19 29 -7 0 -40 -69
-54 -111 -3 -9 -19 -23 -36 -30 -24 -11 -29 -18 -25 -36 4 -13 2 -23 -5 -23
-13 0 -61 -51 -61 -66 0 -6 -9 -23 -21 -38 -11 -14 -17 -26 -13 -26 5 0 -2 -7
-14 -16 -13 -9 -25 -14 -28 -11 -2 2 11 32 31 67 19 34 38 73 41 85 3 13 14
31 25 41 10 9 19 23 19 31 0 8 9 31 20 53 11 22 20 50 20 62 0 13 7 31 15 41
15 21 10 45 -12 64 -8 6 -12 17 -8 23 5 8 11 8 21 -1 19 -15 25 -9 17 19 -5
19 -12 22 -54 22 -36 0 -51 4 -56 16 -7 20 15 36 45 31 12 -2 22 -1 22 4 0 12
-42 39 -61 39 -9 0 -22 7 -29 15 -7 8 -23 15 -36 15 -24 0 -24 0 -8 -31 8 -17
11 -28 4 -24 -16 10 -60 -22 -60 -45 0 -11 -4 -28 -9 -38 -5 -9 -21 -43 -35
-75 -14 -32 -33 -60 -41 -63 -8 -4 -15 -14 -15 -24 0 -23 -18 -36 -43 -31 -21
3 -57 -25 -57 -46 0 -7 -16 -30 -35 -50 -19 -20 -35 -43 -35 -50 0 -8 -7 -16
-15 -19 -8 -4 -15 -11 -15 -18 0 -10 -30 -39 -145 -140 -22 -20 -45 -36 -51
-36 -7 0 -14 -7 -17 -14 -3 -8 -21 -23 -39 -32 -18 -9 -36 -21 -39 -27 -4 -5
-35 4 -75 24 -63 31 -76 34 -164 34 -84 0 -101 -3 -146 -27 -29 -15 -66 -44
-82 -64 l-30 -37 9 44 c11 50 3 61 -62 81 -48 14 -101 3 -139 -28 l-30 -26 0
26 0 27 -97 -3 -98 -3 -5 -160 c-3 -88 -9 -166 -13 -173 -12 -18 -27 -5 -27
24 0 28 1 28 -47 10 -72 -27 -91 -28 -103 -6 -6 11 -10 46 -8 78 l3 57 63 5
c83 7 90 18 76 124 l-7 46 -67 0 -67 0 -7 31 c-3 17 -6 47 -6 66 0 65 -24 54
-151 -73 -92 -91 -119 -125 -119 -145 0 -21 6 -28 33 -35 l32 -10 0 -99 0
-100 -31 -3 c-35 -3 -46 12 -64 95 -18 80 -55 123 -146 171 -44 22 -88 47 -99
56 -20 14 -19 15 8 25 34 13 62 7 144 -29 l62 -28 6 30 c4 16 4 60 0 98 l-7
68 -51 22 c-55 24 -188 38 -249 26 -57 -10 -123 -61 -147 -111 -12 -25 -21
-56 -21 -69 0 -23 -2 -24 -32 -15 -21 5 -56 34 -95 76 -35 38 -63 71 -63 74 0
3 -12 19 -26 35 -39 44 -78 103 -108 164 -16 30 -32 62 -37 70 -5 8 -13 24
-18 35 -5 12 -16 27 -25 34 -9 7 -16 19 -16 26 0 7 -7 19 -16 26 -9 7 -20 23
-25 36 -7 18 -14 22 -36 18 -48 -9 -58 6 -56 82 2 71 -3 103 -17 103 -4 0 -11
-8 -15 -17z m979 -621 c46 -21 46 -21 46 -71 0 -28 -2 -51 -5 -51 -3 0 -24 9
-47 21 -57 29 -140 36 -173 15 -27 -18 -33 -52 -12 -79 6 -9 41 -31 76 -48
142 -68 181 -110 181 -196 0 -59 -24 -102 -75 -133 -67 -41 -252 -38 -322 6
-18 11 -23 24 -23 58 0 23 2 45 5 48 3 3 31 -5 63 -18 76 -31 154 -32 182 -2
42 46 20 79 -87 131 -123 59 -163 104 -163 184 0 67 51 129 128 154 45 14 175
3 226 -19z m-2900 -49 c14 -38 42 -113 63 -169 21 -56 43 -102 48 -103 6 -1
43 75 84 169 l74 170 56 0 57 0 73 -175 c41 -96 77 -175 80 -175 3 0 37 79 75
175 l69 175 73 0 c51 0 74 -4 74 -12 0 -6 -55 -139 -121 -295 l-121 -284 -47
3 -46 3 -80 182 c-44 101 -82 183 -85 183 -3 0 -44 -83 -90 -185 l-83 -186
-46 3 -45 3 -54 125 c-50 119 -178 421 -189 448 -4 9 15 12 75 12 l80 0 26
-67z m1076 -53 c0 -73 4 -120 10 -120 6 0 10 5 10 10 0 6 21 24 47 40 39 25
57 30 109 30 52 0 67 -4 92 -25 48 -40 53 -65 50 -240 l-3 -160 -39 -3 c-22
-2 -50 -1 -63 2 -23 6 -23 8 -23 147 0 135 -1 141 -25 164 -36 37 -76 33 -125
-11 l-39 -36 -3 -131 -3 -132 -60 0 -60 0 -3 293 -2 292 65 0 65 0 0 -120z
m983 -42 l72 -3 3 -37 3 -37 -73 -3 -73 -3 -3 -99 c-4 -136 6 -151 94 -143
l64 5 0 -43 c0 -40 -2 -42 -39 -53 -61 -19 -151 -15 -188 8 -50 30 -57 53 -63
195 -4 102 -8 129 -19 127 -7 -1 -22 0 -33 4 -18 5 -7 19 78 105 l99 100 3
-60 3 -60 72 -3z m1217 62 l0 -59 73 -3 72 -3 0 -40 0 -40 -70 -1 -70 -1 -3
-105 c-2 -92 0 -106 17 -122 21 -19 58 -23 109 -12 l32 8 0 -45 c0 -44 0 -45
-44 -56 -70 -17 -146 -14 -183 9 -53 32 -63 64 -63 200 0 88 -3 120 -12 121
-7 1 -21 2 -30 3 -10 1 -19 4 -20 8 -3 7 173 195 185 197 4 1 7 -26 7 -59z
m-1602 -272 l2 -208 -23 -5 c-13 -4 -41 -5 -63 -3 l-39 3 -3 213 -2 213 62 -3
63 -3 3 -207z m2012 132 l5 -75 18 47 c25 65 76 108 128 108 22 0 49 -5 59
-10 19 -10 19 -12 -3 -71 -20 -56 -23 -60 -47 -53 -14 4 -37 7 -52 6 -74 -3
-101 -50 -108 -187 l-5 -100 -62 -3 -63 -3 0 204 c0 112 3 207 7 211 4 4 32 6
63 4 l55 -3 5 -75z m611 69 c93 -31 139 -100 139 -206 0 -83 -25 -133 -88
-178 -42 -29 -48 -30 -152 -30 -104 0 -110 1 -152 30 -25 18 -52 49 -65 75
-39 76 -27 195 25 254 9 10 40 29 67 42 56 27 166 33 226 13z m987 -16 c4 -29
5 -28 50 2 63 43 166 33 225 -23 48 -45 61 -80 61 -162 0 -106 -42 -181 -117
-209 -41 -16 -137 -13 -171 4 -15 8 -32 15 -37 15 -5 0 -9 -52 -9 -115 l0
-115 -65 0 -65 0 0 308 c0 170 3 312 7 316 4 4 32 6 63 4 48 -3 55 -6 58 -25z
m-598 -100 c0 -131 11 -188 40 -203 35 -19 78 -11 112 19 l33 29 5 134 5 133
63 3 62 3 0 -211 0 -211 -62 3 -63 3 -5 38 -5 39 -25 -27 c-39 -42 -73 -55
-145 -55 -59 0 -70 3 -95 28 -37 38 -50 104 -50 262 l0 130 65 0 65 0 0 -117z
m-3784 -39 c-4 -13 -19 -38 -34 -56 -16 -18 -39 -54 -51 -80 -13 -27 -27 -48
-32 -48 -5 0 -20 -21 -34 -47 -44 -81 -72 -125 -86 -134 -8 -4 -14 -16 -14
-25 0 -10 -6 -19 -12 -21 -15 -5 -17 23 -3 32 6 4 8 10 5 15 -3 4 2 14 11 21
9 7 27 38 41 69 13 30 37 67 54 82 17 16 29 37 29 52 0 14 4 27 9 31 6 3 34
45 63 93 43 71 54 83 56 63 2 -12 1 -34 -2 -47z m3014 -48 c0 -63 1 -62 -102
-71 -66 -6 -67 -6 -74 20 -10 40 30 78 76 72 19 -2 43 -7 52 -11 13 -6 21 -1
29 18 7 14 14 26 16 26 1 0 3 -24 3 -54z m-2422 -564 c9 -7 12 -49 10 -178
l-3 -169 -45 0 -45 0 -3 165 c-1 90 0 170 2 177 6 14 64 17 84 5z m762 -61 c0
-28 3 -30 43 -33 37 -3 42 -6 42 -28 0 -22 -5 -25 -42 -28 l-43 -3 0 -58 c0
-70 14 -86 65 -78 32 5 35 4 35 -19 0 -48 -112 -63 -155 -19 -22 21 -25 33
-25 98 0 69 -2 75 -22 81 -21 5 -19 9 32 61 30 30 58 55 62 55 4 0 8 -13 8
-29z m1070 -1 c0 -29 2 -30 46 -30 44 0 45 -1 42 -27 -3 -25 -7 -28 -45 -31
l-43 -3 0 -58 c0 -70 14 -86 65 -78 32 5 35 4 35 -19 0 -17 -8 -27 -26 -34
-41 -16 -100 -12 -125 9 -21 17 -24 30 -27 100 -3 61 -8 81 -18 81 -8 0 -14 5
-14 12 0 14 89 108 102 108 4 0 8 -13 8 -30z m-1521 -45 c38 -19 41 -30 41
-146 l0 -99 -34 0 c-42 0 -46 10 -46 104 0 43 -5 77 -12 84 -19 19 -47 14 -73
-13 -22 -21 -25 -33 -25 -100 l0 -76 -37 3 -38 3 -3 123 -3 122 41 0 c33 0 40
-3 40 -20 0 -11 5 -20 10 -20 6 0 10 4 10 9 0 11 60 40 83 41 10 0 31 -7 46
-15z m260 4 c19 -7 31 -18 31 -29 0 -15 -8 -18 -52 -16 -68 1 -77 -22 -19 -49
83 -37 103 -84 56 -130 -42 -43 -175 -31 -175 16 0 22 8 22 71 3 8 -2 24 3 35
11 19 15 19 15 -1 31 -11 8 -35 25 -54 37 -44 28 -55 48 -47 80 12 48 85 70
155 46z m412 -34 c3 -22 7 -35 8 -28 0 6 13 25 27 42 18 22 35 31 55 31 35 0
45 -18 32 -57 -8 -24 -14 -27 -44 -25 -52 5 -73 -24 -79 -107 l-5 -66 -35 0
-35 0 -3 128 -3 128 38 -3 c36 -3 38 -5 44 -43z m677 39 c16 -5 22 -14 22 -35
0 -28 -1 -28 -43 -23 -55 8 -90 -18 -90 -66 0 -47 33 -72 92 -68 38 3 46 0 49
-16 6 -29 -25 -46 -82 -46 -119 0 -184 111 -121 206 28 44 107 65 173 48z
m517 -8 c80 -34 99 -146 37 -209 -26 -26 -40 -31 -90 -35 -75 -5 -124 16 -146
63 -59 124 65 237 199 181z m205 -21 c0 -19 5 -35 10 -35 6 0 10 5 10 10 0 23
50 60 79 60 39 0 45 -12 27 -54 -11 -26 -19 -34 -30 -30 -26 10 -64 -5 -78
-29 -7 -12 -15 -49 -18 -82 l-5 -60 -35 0 -35 0 -3 114 c-1 63 0 121 2 128 3
7 21 13 41 13 33 0 35 -2 35 -35z m-1160 -54 c0 -99 5 -111 41 -111 50 0 69
33 69 117 l0 73 40 0 41 0 -3 -122 -3 -123 -37 -3 c-33 -3 -38 0 -38 17 0 26
-5 26 -37 1 -26 -20 -96 -27 -119 -12 -25 16 -34 56 -34 146 l0 96 40 0 40 0
0 -79z m3646 -602 c3 -5 14 -9 26 -9 11 0 22 -8 25 -20 6 -24 49 -54 88 -60
22 -4 31 -11 33 -27 2 -13 -2 -23 -9 -23 -6 0 0 -9 14 -20 14 -11 35 -20 46
-20 14 0 20 -6 19 -17 -3 -39 3 -50 37 -66 19 -9 35 -23 35 -30 0 -7 16 -30
35 -50 40 -42 44 -57 14 -57 -23 0 -124 97 -134 131 -8 24 -50 65 -77 74 -9 3
-21 19 -27 35 -5 17 -17 30 -25 30 -9 0 -16 6 -16 13 0 17 -67 77 -86 77 -18
0 -56 38 -49 49 6 10 43 3 51 -10z m-1145 -303 c70 -19 143 -57 147 -77 3 -14
-83 -16 -908 -15 -500 1 -910 4 -910 7 0 19 79 29 290 39 129 6 289 13 355 16
66 3 184 9 262 14 78 6 206 10 285 11 79 1 170 5 203 9 102 12 218 11 276 -4z
m-1901 -73 c44 -15 -55 -22 -352 -22 -318 -1 -350 2 -333 30 7 11 653 3 685
-8z"/>
<path d="M6509 1861 c-26 -27 -29 -36 -29 -95 0 -58 3 -70 28 -96 22 -26 35
-31 71 -32 38 0 49 4 73 31 25 28 28 39 28 97 0 59 -3 68 -29 95 -23 23 -38
29 -71 29 -33 0 -48 -6 -71 -29z"/>
<path d="M7698 1874 c-28 -14 -28 -16 -28 -113 l0 -99 45 -18 c84 -31 143 9
153 104 5 59 -17 114 -54 131 -34 15 -83 13 -116 -5z"/>
<path d="M8911 2579 c30 -22 74 -51 99 -64 25 -12 54 -32 64 -44 20 -22 101
-63 148 -74 15 -4 46 -24 70 -45 67 -58 139 -100 188 -111 l45 -10 -32 29
c-18 17 -33 36 -33 43 0 16 -31 47 -47 47 -16 0 -201 98 -245 130 -22 16 -63
38 -92 49 -28 11 -82 36 -121 55 -93 48 -111 45 -44 -5z"/>
<path d="M9553 2292 c-21 -3 -22 -5 -7 -27 12 -19 13 -27 3 -43 -16 -25 2 -52
35 -52 11 0 73 -23 136 -51 63 -28 155 -68 204 -90 49 -21 117 -57 151 -79 34
-22 69 -40 79 -40 9 0 31 -7 49 -16 55 -28 177 -106 177 -113 0 -4 28 -24 63
-45 34 -21 85 -53 112 -72 28 -20 95 -58 150 -85 55 -27 120 -61 144 -74 26
-15 60 -25 83 -25 28 0 45 -7 61 -23 35 -38 420 -226 494 -241 l31 -7 -15 58
c-11 42 -12 62 -4 75 9 14 7 20 -8 27 -39 21 -110 41 -125 35 -11 -4 -19 2
-25 19 -6 15 -28 33 -58 48 -26 12 -59 30 -72 38 -30 19 -110 41 -171 46 -25
2 -76 11 -115 19 -56 12 -75 21 -96 46 -24 28 -29 30 -47 19 -16 -10 -29 -8
-76 11 -31 12 -68 36 -82 53 -14 17 -40 37 -57 46 -21 10 -33 25 -35 41 -5 33
-30 60 -55 60 -11 0 -17 -3 -14 -6 3 -4 2 -15 -4 -25 -13 -25 -63 -25 -87 1
-10 10 -34 26 -55 35 -22 9 -48 31 -63 55 -22 33 -32 40 -55 38 -36 -3 -69 27
-69 62 0 22 -7 30 -32 40 -18 6 -48 18 -66 26 -40 17 -69 18 -76 2 -3 -9 -12
-5 -28 13 -27 31 -55 43 -61 26 -6 -18 -82 -12 -119 10 -22 13 -35 29 -38 48
-4 23 -14 33 -46 45 -48 18 -74 37 -74 56 0 17 -10 21 -37 16z"/>
</g>
</svg>
