<?xml version="1.0" standalone="no"?>
<!DOCTYPE svg PUBLIC "-//W3C//DTD SVG 20010904//EN"
 "http://www.w3.org/TR/2001/REC-SVG-20010904/DTD/svg10.dtd">
<svg version="1.0" xmlns="http://www.w3.org/2000/svg"
 width="794.000000pt" height="794.000000pt" viewBox="0 0 794.000000 794.000000"
 preserveAspectRatio="xMidYMid meet">
<metadata>
Created by potrace 1.16, written by Peter Selinger 2001-2019
</metadata>
<g transform="translate(0.000000,794.000000) scale(0.100000,-0.100000)"
fill="#000000" stroke="none">
<path d="M3680 7934 c-726 -61 -1359 -282 -1942 -676 -578 -391 -1054 -943
-1352 -1570 -187 -391 -295 -763 -363 -1238 -25 -180 -25 -779 0 -960 53 -374
131 -678 252 -985 295 -746 829 -1406 1490 -1840 438 -289 893 -481 1370 -580
65 -13 120 -23 121 -22 2 2 -12 138 -31 302 -43 385 -46 440 -23 439 16 -2 16
1 2 28 -36 70 -65 187 -74 298 -5 63 -16 151 -24 195 -28 146 -18 172 30 81
16 -30 30 -54 31 -52 3 2 -31 95 -52 141 -55 120 -96 250 -110 345 -4 25 -16
82 -26 127 -29 124 -37 248 -30 478 5 150 11 217 21 235 l14 25 8 -32 c5 -18
13 -33 17 -33 5 0 17 -24 26 -52 9 -29 23 -66 30 -83 7 -16 18 -46 24 -66 14
-43 50 -78 155 -153 101 -72 199 -125 413 -225 218 -101 210 -98 224 -67 7 14
21 26 33 28 13 2 20 10 20 21 -1 11 12 27 32 40 18 12 35 31 38 42 5 19 47 45
73 45 7 0 13 4 13 9 0 5 8 12 18 14 16 4 16 5 -1 6 -26 2 -10 21 18 21 35 0
55 10 55 29 0 16 41 41 68 41 7 0 28 15 45 33 42 42 116 106 123 106 9 -1 74
46 74 53 0 13 44 49 55 44 19 -7 44 19 65 70 15 34 24 44 29 35 7 -11 11 -9
20 8 7 12 16 19 20 16 9 -5 26 23 23 38 -1 4 9 5 22 3 19 -3 26 1 30 20 8 29
38 62 53 57 6 -2 14 5 18 16 3 11 22 43 41 70 19 28 34 58 34 66 0 9 5 13 10
10 6 -3 13 2 17 12 8 20 68 83 80 83 11 0 93 85 93 95 0 5 7 16 15 25 8 9 28
42 44 73 16 31 31 54 34 51 3 -3 13 18 21 46 9 29 21 59 28 67 12 15 15 23 25
76 5 27 26 36 38 17 4 -6 13 -47 21 -91 11 -64 21 -89 47 -122 19 -23 50 -71
69 -107 19 -36 49 -87 66 -115 17 -27 46 -90 64 -140 28 -79 32 -106 36 -217
5 -148 -10 -262 -68 -513 -22 -93 -55 -267 -75 -385 -43 -261 -55 -315 -100
-459 -26 -85 -35 -130 -35 -184 0 -99 -14 -215 -56 -462 -62 -363 -81 -490
-74 -493 4 -1 71 22 151 52 804 302 1469 829 1934 1536 206 313 325 555 445
905 90 264 143 492 187 805 25 185 26 770 0 960 -119 871 -459 1598 -1046
2237 -485 529 -1192 950 -1881 1122 -229 58 -304 72 -546 107 -104 14 -652 28
-764 18z m-336 -326 c-4 -7 -14 -21 -22 -30 -13 -15 -13 -18 -1 -18 8 0 23 6
34 13 11 7 34 18 50 25 26 11 23 6 -20 -32 -55 -49 -53 -51 50 -35 84 13 421
19 403 7 -8 -4 4 -8 29 -8 52 0 131 -30 189 -72 39 -28 48 -30 96 -25 29 3 44
2 33 -2 -14 -6 -4 -10 35 -14 30 -4 70 -7 88 -7 21 0 31 -4 27 -10 -4 -7 7
-11 32 -10 60 1 105 -11 110 -29 4 -18 72 -41 117 -41 33 0 57 -10 50 -21 -3
-5 5 -9 18 -9 15 0 19 -3 10 -8 -8 -6 5 -20 43 -45 30 -20 79 -52 108 -71 60
-40 126 -108 147 -151 8 -16 26 -43 41 -60 49 -55 119 -166 119 -189 0 -13 17
-49 38 -82 64 -99 112 -193 112 -219 0 -13 20 -68 45 -123 25 -55 45 -113 45
-130 0 -17 8 -50 18 -74 30 -68 32 -87 46 -478 l4 -84 51 -12 c102 -23 129
-75 142 -276 8 -120 7 -163 -10 -292 -11 -83 -23 -187 -26 -231 -4 -44 -13
-107 -21 -140 -8 -33 -18 -92 -23 -131 -10 -84 -26 -117 -80 -169 -45 -44 -49
-61 -27 -143 7 -29 9 -52 4 -52 -4 0 -5 -19 -2 -41 9 -55 -15 -50 -33 7 -23
69 -25 74 -36 74 -7 0 -7 4 1 12 7 7 12 27 12 45 0 18 4 33 8 33 10 0 7 114
-3 130 -4 6 -2 17 5 25 7 9 8 15 0 20 -5 3 -10 13 -10 22 0 9 -10 25 -23 37
-13 11 -29 40 -37 63 -13 43 -50 89 -50 63 0 -9 -6 -8 -20 5 -11 10 -23 15
-27 11 -12 -11 -6 -75 10 -109 8 -18 24 -53 36 -79 11 -26 25 -50 31 -53 17
-10 12 -45 -5 -39 -17 7 -21 -11 -5 -21 6 -3 10 -11 10 -17 0 -6 -9 -3 -20 7
-11 10 -20 15 -20 12 0 -4 -13 7 -29 23 -32 34 -37 36 -45 14 -4 -10 -2 -13 6
-8 7 5 9 -1 6 -19 -3 -15 -1 -24 3 -21 5 3 10 2 10 -3 8 -55 7 -58 -16 -59
-16 -1 -26 5 -30 17 -6 18 -8 18 -37 3 -17 -9 -27 -19 -22 -23 11 -8 13 -51 2
-51 -4 0 -11 12 -14 26 -5 20 -9 23 -16 12 -6 -9 -7 -6 -3 9 4 16 0 25 -16 33
-20 11 -21 10 -14 -22 6 -27 5 -31 -6 -20 -7 6 -19 12 -27 12 -12 0 -11 -4 2
-25 21 -32 22 -52 1 -35 -8 7 -13 15 -11 19 3 4 -4 12 -15 19 -17 11 -19 9
-19 -12 0 -13 -5 -26 -11 -28 -7 -2 -13 -19 -16 -38 -2 -19 -5 -44 -7 -55 -2
-11 -4 -25 -5 -32 0 -7 -7 -10 -15 -7 -11 4 -13 0 -9 -15 6 -25 -15 -54 -34
-47 -8 4 -13 -3 -13 -18 0 -28 -24 -88 -34 -86 -4 1 -21 -12 -37 -29 -16 -17
-26 -31 -23 -31 4 0 2 -6 -4 -12 -18 -23 4 -56 42 -64 58 -10 41 -23 -25 -19
-51 3 -59 2 -49 -10 23 -28 -8 -23 -35 5 -16 17 -35 30 -42 30 -7 0 -13 5 -13
10 0 6 -5 10 -11 10 -5 0 -7 -5 -4 -10 3 -6 1 -10 -5 -10 -6 0 -13 7 -16 15
-4 8 -13 15 -21 15 -13 0 -13 -2 -2 -17 12 -15 12 -16 -6 -10 -19 7 -19 6 -2
-7 21 -16 22 -30 1 -22 -9 3 -12 2 -9 -5 4 -6 13 -8 21 -5 8 3 14 -1 14 -10 0
-8 -4 -12 -10 -9 -5 3 -12 -6 -16 -20 -3 -14 -10 -25 -15 -25 -5 0 3 -16 16
-36 14 -20 25 -42 25 -48 0 -6 -9 3 -19 20 -23 37 -44 54 -34 27 3 -10 10 -23
14 -28 4 -6 4 -17 0 -24 -6 -9 -11 -10 -15 -2 -10 16 -29 14 -23 -3 4 -11 -3
-14 -34 -12 -43 3 -47 -1 -21 -20 16 -13 16 -13 -2 -14 -15 0 -16 -3 -7 -14 9
-11 9 -15 -1 -19 -10 -3 -9 -11 5 -35 20 -35 22 -46 6 -36 -9 5 -10 -1 -5 -20
4 -18 3 -25 -4 -21 -5 3 -14 -4 -19 -17 -8 -20 -9 -18 -8 14 2 45 -16 55 -23
13 l-6 -30 -5 32 c-3 19 -1 30 4 26 5 -3 8 0 5 8 -3 8 -13 16 -23 17 -12 3
-15 0 -9 -10 5 -8 -1 -7 -18 4 -25 17 -26 17 -21 -5 3 -12 11 -26 17 -32 6 -5
11 -30 12 -55 1 -25 -1 -39 -3 -32 -3 6 -10 9 -15 6 -8 -5 -9 3 -5 22 4 23 1
33 -15 43 -11 7 -21 11 -22 9 -2 -2 -9 -18 -16 -36 l-13 -34 -13 24 c-9 15
-14 18 -15 8 -3 -26 3 -45 14 -52 9 -6 9 -8 0 -8 -6 0 -15 6 -19 12 -6 9 -10
5 -14 -11 -9 -41 -25 -34 -24 10 1 37 -1 40 -13 23 -12 -16 -13 -14 -14 22 -1
27 -3 32 -6 14 -3 -14 -9 -28 -14 -31 -6 -3 -12 -19 -15 -35 -8 -41 -11 -40
-19 5 -4 23 -11 41 -17 41 -6 0 -7 7 -4 16 3 8 2 12 -4 9 -6 -3 -10 -16 -10
-28 0 -12 -5 -29 -11 -37 -9 -12 -10 -11 -5 5 5 14 0 11 -18 -10 l-25 -30 14
52 c14 55 3 84 -15 41 -9 -20 -10 -18 -7 14 2 21 -2 39 -8 41 -7 3 -6 8 1 18
9 11 9 17 -1 26 -11 10 -14 8 -17 -10 -3 -12 -4 14 -4 58 0 68 3 83 20 99 17
15 18 18 4 13 -12 -4 -18 -1 -18 8 0 21 -20 19 -22 -2 -1 -10 -2 -25 -4 -33
-1 -8 -2 -21 -3 -29 -1 -10 -4 -11 -15 -2 -8 7 -12 21 -9 32 4 15 2 18 -11 13
-12 -4 -15 -2 -11 9 4 8 -2 23 -12 32 -10 10 -18 21 -18 24 0 3 -8 6 -17 5 -9
0 -17 2 -16 5 0 3 0 14 -1 24 -1 16 -3 17 -16 3 -16 -16 -39 -66 -36 -79 0 -4
-11 -21 -26 -37 -22 -24 -33 -28 -53 -23 l-25 7 29 6 c22 4 35 16 53 49 12 24
20 48 16 54 -3 6 -1 7 5 3 7 -4 12 -3 12 2 0 6 -7 12 -15 16 -10 3 -15 -1 -15
-14 0 -10 -17 -32 -37 -47 -21 -15 -40 -30 -43 -33 -10 -10 -42 -11 -35 -1 10
17 -4 13 -37 -11 -30 -21 -30 -21 -9 -33 12 -6 41 -10 63 -8 23 2 39 1 36 -3
-4 -3 -10 -6 -15 -6 -4 0 -14 -5 -22 -11 -11 -9 -13 -9 -8 0 6 9 -2 10 -29 6
-27 -4 -35 -3 -30 5 10 16 -23 15 -54 -1 -14 -8 -24 -19 -22 -26 1 -7 -2 -10
-7 -7 -13 8 -27 -15 -29 -48 -3 -37 -4 -39 -33 -26 -22 10 -23 10 -2 6 19 -3
22 0 21 20 -1 13 -7 24 -13 24 -5 0 -3 5 5 10 12 8 11 10 -7 10 -13 0 -23 -4
-23 -9 0 -5 -8 -11 -17 -14 -10 -2 -27 -8 -37 -13 -15 -6 -17 -4 -11 7 7 11 6
12 -6 3 -8 -6 -30 -14 -49 -17 l-35 -6 35 16 c31 13 80 53 65 53 -3 0 -20 -6
-38 -14 -27 -11 -35 -11 -45 0 -17 18 -16 21 16 38 l27 15 -30 0 c-16 0 -50 4
-75 9 -41 8 -43 9 -19 16 14 4 26 14 26 22 0 24 -33 15 -77 -21 -24 -20 -45
-33 -48 -31 -7 8 19 37 53 58 17 10 24 18 18 18 -20 0 -15 25 8 46 23 21 120
25 154 7 12 -7 28 -7 49 -1 17 6 44 9 60 9 16 -1 36 5 45 12 9 8 33 17 54 21
20 4 37 11 37 16 0 5 16 12 35 16 31 5 35 9 29 28 -6 20 -6 20 8 2 10 -13 17
-15 22 -8 4 7 2 12 -4 12 -20 0 21 33 44 35 14 1 21 8 20 23 0 12 3 19 7 16 4
-2 9 2 12 8 3 10 8 9 22 -2 11 -9 16 -10 11 -2 -4 7 -1 12 8 12 9 0 16 -6 16
-12 1 -9 5 -8 13 3 9 11 31 15 88 15 l76 -1 -9 28 c-6 15 -16 27 -23 27 -7 0
-20 16 -29 35 -10 20 -21 33 -26 30 -5 -3 -12 0 -16 6 -4 8 -3 9 4 5 7 -4 12
-3 12 3 0 5 -4 12 -9 15 -5 3 -7 14 -4 24 2 11 -3 36 -12 58 -14 34 -14 40 -1
49 8 6 11 16 7 23 -10 16 -49 24 -56 11 -11 -16 -35 -10 -35 10 0 31 -26 44
-77 38 -54 -6 -90 9 -135 54 -28 28 -113 72 -157 82 -13 3 -34 2 -47 -3 -15
-6 -34 -6 -50 1 -15 5 -28 8 -30 6 -11 -11 -20 -102 -14 -136 5 -30 3 -44 -8
-55 -12 -11 -13 -18 -4 -29 14 -16 6 -28 -14 -20 -8 3 -14 1 -14 -5 0 -6 5
-12 12 -14 16 -6 1 -58 -17 -58 -8 0 -15 -3 -15 -8 0 -4 -29 -38 -65 -75 -36
-37 -65 -75 -65 -84 0 -13 3 -13 15 -3 9 7 13 15 11 17 -3 3 11 18 30 35 19
16 32 33 29 37 -2 4 9 7 25 6 16 -1 27 2 25 6 -10 15 14 59 29 53 8 -3 19 3
26 15 11 22 40 29 40 10 0 -6 7 -9 15 -5 9 3 15 0 15 -9 0 -8 4 -15 10 -15 5
0 -2 -16 -15 -37 -23 -32 -24 -38 -10 -52 13 -15 12 -21 -6 -50 -11 -18 -29
-35 -40 -38 -10 -3 -19 -10 -19 -15 0 -5 4 -7 9 -4 5 4 4 -8 -2 -25 l-12 -31
-6 33 c-4 20 -7 25 -8 14 -2 -19 -3 -19 -10 -1 -7 18 -8 18 -14 3 -3 -9 -13
-17 -21 -17 -7 0 -17 -8 -20 -17 -6 -15 -8 -15 -16 -3 -6 10 -4 21 7 32 18 20
18 20 -14 23 -18 2 -21 -1 -13 -14 6 -11 2 -26 -11 -48 -13 -21 -18 -41 -14
-55 5 -18 4 -20 -5 -8 -9 13 -12 13 -24 -2 -18 -24 -23 -23 -20 5 1 12 3 25 3
30 1 4 8 7 16 7 8 0 15 8 15 18 0 9 3 28 7 42 6 24 6 24 -14 8 -27 -24 -38
-22 -39 7 -1 14 1 25 5 25 4 0 8 6 8 14 0 13 -3 13 -21 0 -27 -19 -37 -18 -29
3 5 12 3 14 -8 8 -8 -4 -1 6 14 22 21 22 25 32 15 36 -10 4 -11 7 0 18 10 11
12 10 12 -5 0 -11 4 -15 13 -9 6 4 4 -5 -6 -21 -10 -15 -16 -30 -14 -33 9 -9
57 84 52 100 -4 8 -2 18 4 22 6 3 9 0 6 -7 -9 -22 34 -19 45 3 6 11 16 16 22
13 7 -4 8 -3 4 5 -4 6 -12 8 -18 5 -6 -4 -6 1 1 14 7 13 17 19 26 16 16 -7 45
12 45 29 0 5 -10 2 -22 -9 -12 -10 -18 -14 -14 -7 4 7 -2 21 -14 33 -20 20
-21 20 -44 3 -13 -10 -22 -21 -19 -25 2 -5 -5 -8 -16 -8 -11 0 -24 -6 -28 -13
-12 -18 -75 -63 -101 -71 -24 -8 -46 -41 -38 -55 5 -8 -30 -101 -39 -101 -2 0
-1 10 2 23 2 13 -7 4 -24 -23 l-28 -45 -3 33 c-3 28 -6 31 -18 21 -14 -11 -15
-8 -9 24 8 40 -7 50 -35 24 -12 -10 -12 -9 -1 5 18 25 22 118 5 118 -8 0 -14
7 -14 15 0 7 -8 19 -17 24 -11 6 -13 11 -5 11 7 0 10 5 7 10 -4 6 -15 8 -26 5
-13 -5 -17 -2 -14 7 7 19 -40 62 -59 55 -10 -4 -13 -1 -9 9 3 7 0 14 -7 14 -6
0 -8 5 -5 10 3 6 -1 13 -9 16 -9 3 -16 14 -16 24 0 16 -21 33 -45 35 -5 0 -16
4 -23 9 -20 12 -23 3 -12 -35 14 -48 13 -63 -7 -75 -17 -10 -18 -5 -18 65 -1
90 -12 234 -24 311 -5 30 -7 64 -5 74 2 11 0 24 -5 30 -15 19 -23 74 -12 81 6
3 11 17 11 31 0 13 6 24 13 25 9 0 9 2 -1 6 -7 3 -20 -3 -27 -13 -13 -17 -16
-17 -25 -4 -8 12 -2 17 30 24 36 8 56 26 30 26 -5 0 -10 6 -10 14 0 8 -6 16
-12 19 -10 3 -10 7 -1 17 6 7 9 19 6 26 -3 8 1 14 8 14 11 0 11 3 -1 10 -13 8
-13 10 1 10 20 0 42 -24 31 -34 -4 -4 14 -5 39 -2 32 4 52 1 65 -9 10 -8 27
-15 36 -15 9 0 21 -6 25 -14 4 -7 46 -20 92 -29 72 -13 88 -13 117 -1 51 21
42 -3 -8 -26 -58 -25 -47 -24 42 4 60 20 71 26 53 31 -13 4 -20 12 -17 17 4 6
-1 8 -13 4 -27 -9 -74 10 -68 27 3 7 15 14 27 14 11 1 26 7 32 13 8 9 1 11
-26 8 -21 -1 -37 0 -38 5 -1 33 2 37 30 37 28 0 30 2 24 28 -6 27 -5 27 16 -5
27 -40 57 -42 154 -13 60 19 66 23 71 53 4 18 2 45 -4 60 -15 38 -15 38 17 31
43 -11 104 -53 96 -67 -5 -9 -3 -9 7 1 23 21 30 13 12 -15 -17 -26 -17 -26 7
-20 14 3 36 9 49 13 21 6 22 5 12 -15 -7 -12 -9 -26 -6 -31 3 -5 1 -11 -5 -15
-5 -3 -10 -15 -10 -26 0 -16 3 -17 18 -8 33 21 52 68 52 129 0 67 16 87 33 41
6 -17 15 -31 19 -31 22 0 -7 137 -35 170 -9 11 -17 22 -17 24 0 3 -16 22 -36
44 -24 28 -50 44 -82 52 -26 7 -53 17 -59 23 -7 5 -13 7 -13 4 0 -3 -25 1 -55
9 -31 8 -60 12 -65 9 -5 -3 -26 1 -46 10 -43 18 -47 18 -39 5 4 -7 -6 -9 -27
-7 -18 3 -55 -4 -83 -14 -27 -11 -38 -17 -23 -14 14 3 33 8 42 11 11 4 16 2
14 -7 -4 -17 -31 -27 -80 -28 -21 -1 -38 -6 -38 -11 0 -6 12 -8 28 -5 l27 6
-25 -15 c-14 -8 -32 -15 -41 -16 -19 0 -73 -76 -64 -90 4 -6 -6 -10 -22 -10
-15 0 -35 -5 -43 -10 -24 -15 90 0 127 17 17 8 46 13 65 11 l33 -3 -47 -33
c-27 -18 -48 -29 -48 -25 0 4 -7 -3 -16 -15 -8 -12 -28 -29 -44 -37 -32 -17
-53 -20 -30 -5 13 8 12 10 -4 10 -20 0 -20 0 0 15 18 15 18 16 -6 13 -17 -2
-25 2 -25 12 0 8 -6 15 -12 14 -7 -1 -22 -2 -33 -2 -13 -1 -17 -7 -14 -17 4
-10 0 -15 -11 -15 -9 0 -13 5 -10 10 11 18 -14 10 -27 -9 -17 -24 -49 -34 -78
-23 l-23 9 23 20 c17 17 20 25 12 39 -7 13 -7 25 0 38 7 13 7 21 -2 26 -7 4
-8 10 -4 13 15 9 8 229 -8 238 -7 5 -10 9 -7 9 4 0 1 16 -6 36 -15 43 -9 81
14 87 9 3 4 5 -11 6 -30 1 -38 18 -13 28 14 5 14 8 2 22 -15 18 -16 30 -4 48
4 6 1 15 -6 20 -8 4 -19 18 -26 30 -22 43 -51 19 -51 -43 0 -26 -7 -51 -21
-68 -24 -31 -17 -34 13 -6 12 10 25 17 31 13 5 -3 2 -10 -7 -15 -9 -5 -16 -20
-16 -34 0 -17 4 -23 13 -18 6 4 9 4 5 -1 -14 -16 -66 -15 -72 0 -3 8 0 15 7
15 7 0 4 5 -5 11 -10 5 -18 17 -18 25 0 8 4 12 10 9 6 -3 7 1 4 9 -3 9 -10 13
-15 10 -5 -3 -9 5 -9 18 1 41 -5 73 -14 79 -4 4 -3 16 4 28 15 30 23 211 9
211 -6 0 -1 8 12 19 13 10 24 30 24 43 1 13 5 30 9 37 4 7 10 27 13 44 3 18
10 41 16 52 6 11 12 22 12 25 0 3 6 15 13 28 9 15 9 22 2 22 -6 0 2 11 17 25
17 15 23 24 14 25 -11 0 -8 6 7 20 12 12 31 37 41 58 18 33 40 57 139 144 17
14 33 24 36 20 3 -3 6 0 6 7 0 7 7 11 14 8 10 -4 13 -1 9 9 -3 8 1 14 11 14
24 0 29 2 49 21 10 9 31 19 46 22 16 3 35 13 44 21 8 9 37 23 64 31 49 16 60
21 126 50 21 9 44 14 52 11 7 -2 37 2 67 10 63 17 105 25 173 29 97 7 150 13
169 20 10 5 31 8 47 9 22 1 29 6 29 21 1 18 1 19 11 3 5 -10 19 -18 29 -18 11
0 20 -3 20 -7 0 -5 44 -8 99 -9 86 -1 102 -4 122 -23 12 -11 29 -21 37 -21 42
0 209 -99 334 -199 32 -25 79 -62 105 -81 60 -43 228 -130 252 -130 10 0 52
-9 95 -20 42 -10 83 -17 92 -13 9 3 19 2 23 -3 12 -18 90 -74 102 -74 6 0 9 8
6 20 -4 15 0 20 15 20 16 0 19 5 15 21 -5 17 -2 20 14 16 23 -6 24 -1 3 20
-13 13 -13 17 -2 24 10 7 10 9 0 9 -9 0 -10 5 -3 19 6 10 8 21 5 23 -2 3 17 4
43 2 26 -2 49 -8 51 -12 1 -5 14 -7 28 -4 19 3 22 7 13 18 -8 10 -8 14 0 14 6
0 11 4 11 9 0 5 -9 7 -20 4 -16 -4 -19 -2 -14 11 4 12 0 16 -15 16 -12 0 -21
4 -21 9 0 5 -17 17 -37 26 -21 10 -50 26 -65 36 -15 11 -33 16 -43 13 -14 -6
-12 -9 11 -19 28 -11 28 -12 8 -19 -27 -8 -39 -45 -17 -53 20 -8 -62 -46 -85
-40 -12 3 -11 5 5 6 30 1 40 21 11 21 -21 1 -21 2 -5 11 26 15 11 29 -23 22
-19 -3 -30 -1 -30 6 0 6 7 12 15 12 8 1 20 3 25 4 6 1 16 3 23 4 8 1 7 4 -3
11 -8 6 -58 9 -110 8 -106 -2 -140 9 -240 76 -56 39 -93 74 -167 160 -39 45
-103 94 -103 79 0 -3 12 -21 26 -40 14 -19 24 -36 22 -39 -3 -2 -24 21 -47 52
-34 46 -38 54 -20 49 15 -5 19 -4 14 5 -4 7 -17 9 -32 5 -20 -5 -24 -3 -20 9
4 9 -2 17 -14 21 -11 4 -19 9 -16 11 2 2 23 -3 47 -11 24 -8 45 -13 47 -11 7
7 -61 59 -102 77 -22 10 -53 19 -70 19 -26 1 -27 2 -12 11 10 6 37 8 60 5 40
-5 40 -5 10 5 -18 5 -33 14 -33 20 0 7 7 8 18 4 43 -17 44 -15 5 9 -24 15 -65
30 -93 33 -28 3 -53 10 -57 16 -4 6 12 8 43 4 46 -6 44 -5 -26 18 -44 15 -98
25 -130 25 -30 0 -68 0 -85 1 l-30 1 25 15 c24 14 24 14 -15 9 -37 -5 -38 -4
-21 9 11 9 40 15 65 14 35 0 41 -2 26 -9 -11 -5 -15 -9 -10 -10 100 -9 178 -9
164 -1 -9 6 -42 12 -73 13 -32 1 -60 6 -62 10 -3 5 -68 6 -145 3 -142 -4 -174
-1 -162 18 4 6 0 8 -8 5 -48 -18 -61 -20 -56 -7 2 8 10 13 16 12 6 -2 11 2 11
8 0 8 -16 10 -52 6 -34 -4 -48 -3 -38 3 28 18 1 22 -49 7 -54 -16 -63 -13 -33
9 23 18 1 18 -44 -1 -21 -8 -32 -10 -28 -3 5 7 -1 9 -20 4 -19 -5 -26 -3 -21
4 4 6 -9 4 -30 -4 -20 -9 -41 -13 -47 -10 -5 3 -19 -3 -31 -14 -12 -11 -39
-27 -60 -36 -27 -11 -42 -26 -52 -51 -18 -42 -30 -46 -20 -8 6 26 6 27 -13 10
-10 -9 -22 -14 -27 -10 -4 5 -6 3 -2 -2 3 -6 -8 -20 -24 -30 -16 -11 -29 -29
-30 -40 l0 -20 -9 20 c-5 11 -9 16 -9 12 -1 -4 -10 -3 -22 4 -17 9 -25 7 -45
-12 -38 -35 -41 -13 -5 32 18 22 30 43 27 46 -3 3 -36 -2 -73 -12 -49 -13 -78
-29 -109 -57 -27 -25 -42 -33 -40 -23 1 9 7 20 12 23 5 4 16 16 24 26 14 18
14 19 -9 5 -13 -8 -37 -34 -53 -59 -16 -25 -27 -36 -23 -25 4 11 8 28 9 37 1
9 22 33 47 53 24 21 46 39 49 42 20 20 -141 -72 -165 -94 -16 -15 -37 -26 -47
-25 -12 2 -18 -3 -18 -14 0 -10 -3 -14 -7 -11 -10 10 -32 -13 -27 -27 3 -7 -2
-19 -11 -26 -8 -7 -15 -9 -15 -4 0 5 -9 -2 -20 -16 -32 -40 -23 -7 10 38 28
40 44 74 18 39 -7 -9 -25 -18 -40 -21 -24 -4 -27 -2 -18 13 13 26 115 111 185
156 33 22 73 50 89 64 16 15 25 19 21 12 -5 -8 6 -5 23 8 18 12 32 25 32 29 0
13 69 54 79 47 12 -7 71 24 71 37 0 4 3 7 8 6 4 -1 16 3 27 8 11 6 34 14 50
17 l30 6 -28 -13 c-15 -6 -25 -15 -21 -19 8 -7 62 2 88 16 11 5 39 11 63 13
61 4 89 14 72 25 -11 7 -10 9 5 9 11 0 50 18 87 40 37 22 79 40 92 40 14 0 30
7 37 15 15 18 24 20 14 3z m-125 -2351 c29 -14 39 -23 28 -25 -25 -5 -21 -29
6 -36 21 -6 21 -7 4 -17 -13 -8 -31 -8 -60 -1 -23 6 -54 8 -69 5 -19 -4 -28
-1 -28 7 0 10 -4 10 -17 -1 -30 -24 -84 -51 -90 -45 -3 3 -11 -1 -17 -10 -13
-17 -64 -26 -72 -12 -3 5 -13 7 -23 4 -9 -4 7 15 35 41 86 80 105 91 179 108
55 13 61 12 124 -18z m490 -1214 c-11 -18 -19 -39 -16 -46 2 -6 8 0 12 16 4
15 13 27 20 27 8 0 16 8 19 18 3 9 4 2 2 -15 -3 -39 6 -41 34 -11 12 13 20 17
20 9 0 -11 3 -11 15 -1 12 10 15 10 15 -3 0 -9 5 -19 11 -23 8 -4 9 0 4 15 -9
29 21 40 40 15 13 -17 16 -17 26 -4 9 13 10 12 5 -3 -3 -10 1 -31 9 -47 13
-25 13 -29 -3 -36 -24 -10 -143 -14 -137 -3 10 15 -46 4 -56 -11 -9 -13 -9
-13 -7 0 3 17 -2 20 -31 20 -11 0 -23 -9 -26 -20 -3 -11 -10 -20 -15 -20 -5 0
-6 8 -3 17 5 12 2 15 -10 10 -20 -7 -21 -3 -6 25 8 14 8 23 0 31 -7 7 -12 -3
-17 -33 -5 -27 -18 -55 -36 -74 -24 -25 -27 -27 -14 -6 8 14 22 51 30 82 8 32
19 66 25 75 9 16 10 15 11 -8 0 -14 3 -29 7 -32 9 -10 34 14 26 26 -3 5 -2 7
4 4 5 -4 16 4 22 17 7 12 19 23 27 23 10 0 9 -8 -7 -34z"/>
<path d="M5239 5759 c-6 -12 -9 -32 -6 -45 8 -44 -39 -19 -57 30 -5 14 -9 16
-21 6 -19 -15 -9 -38 32 -78 19 -17 32 -36 28 -41 -3 -6 1 -13 8 -18 7 -4 18
-23 23 -42 5 -19 16 -37 24 -41 49 -23 54 -28 55 -56 0 -50 27 -39 63 26 l33
60 -26 34 c-14 18 -25 37 -25 42 0 5 -10 14 -22 19 -31 14 -47 43 -29 54 19
12 4 51 -19 51 -10 0 -22 5 -25 10 -10 16 -23 12 -36 -11z"/>
<path d="M4142 5643 c-12 -2 -20 -9 -16 -14 3 -5 10 -6 16 -3 7 4 8 2 4 -4 -4
-7 -14 -12 -22 -12 -8 0 -20 -13 -25 -30 -6 -16 -15 -30 -20 -30 -5 0 -9 -7
-9 -15 0 -8 -5 -15 -11 -15 -6 0 -17 -6 -24 -14 -12 -12 -12 -15 1 -20 12 -5
9 -17 -20 -69 -34 -61 -45 -120 -21 -110 7 2 18 -3 25 -11 8 -11 21 -14 38 -9
l26 6 -22 -30 c-11 -16 -28 -36 -37 -43 -22 -18 -19 -33 5 -20 11 6 25 8 30 5
5 -3 12 0 15 6 4 6 18 8 31 5 18 -5 22 -3 18 8 -8 21 13 54 46 71 38 20 40 19
40 -10 0 -13 5 -36 12 -50 9 -21 18 -25 54 -25 64 0 147 20 162 38 6 9 12 28
12 44 0 15 5 28 10 28 6 0 10 -5 10 -11 0 -5 5 -7 12 -3 6 4 17 0 23 -10 8
-10 21 -15 36 -12 13 3 27 5 31 5 14 2 -5 41 -21 41 -9 0 -29 7 -44 15 -58 30
-224 44 -282 24 -6 -2 -10 0 -10 6 0 13 -58 23 -66 11 -9 -12 -39 0 -38 16 0
10 2 10 6 1 2 -7 8 -13 12 -13 11 0 10 34 -1 41 -17 11 42 40 92 46 49 6 63
16 38 27 -7 3 22 5 64 3 44 -1 71 1 63 6 -19 10 -19 36 0 43 32 13 -1 55 -37
47 -19 -4 -20 -3 -8 6 18 13 7 13 -45 1 -31 -7 -43 -6 -56 6 -13 11 -23 12
-45 4 -25 -9 -27 -8 -12 3 10 8 15 17 11 20 -7 7 -13 7 -51 0z"/>
<path d="M4050 4453 c-30 -11 -99 -74 -134 -122 -20 -27 -36 -51 -36 -54 0 -3
16 0 35 6 19 6 35 14 35 19 0 4 12 8 27 8 14 0 41 12 60 26 27 21 37 23 48 14
21 -17 89 19 93 49 5 33 -83 70 -128 54z"/>
<path d="M4407 4394 c-10 -11 25 -63 48 -70 21 -7 75 -53 75 -64 0 -4 -12 -6
-27 -3 -25 3 -26 2 -7 -6 40 -18 37 -33 -3 -17 l-38 16 30 -25 c17 -14 26 -25
21 -25 -5 0 -3 -7 4 -15 17 -20 1 -19 -22 2 -16 14 -18 14 -18 1 0 -9 6 -21
14 -28 8 -6 13 -17 11 -23 -3 -7 4 -23 15 -37 21 -27 27 -12 9 22 -8 15 -8 19
1 13 8 -5 10 3 6 29 -5 29 -3 36 10 36 11 0 14 5 10 17 -6 16 -6 16 12 0 10
-9 23 -17 29 -17 6 0 14 -7 17 -16 6 -15 4 -15 -10 -3 -19 16 28 -85 54 -113
10 -13 12 -21 4 -30 -7 -9 -6 -19 4 -33 8 -11 19 -35 24 -55 5 -19 19 -51 31
-70 20 -32 23 -33 30 -15 11 29 11 75 -1 75 -10 0 -14 -21 -10 -50 1 -8 -1
-12 -6 -8 -4 4 -9 29 -11 55 -3 35 -1 44 6 33 9 -13 11 -13 11 -1 0 11 4 9 15
-5 9 -12 14 -14 15 -6 0 20 -31 82 -41 82 -5 0 -9 5 -9 11 0 5 5 7 10 4 6 -3
10 0 10 9 0 8 5 16 11 18 10 3 -7 23 -51 58 -14 11 -19 19 -12 20 6 0 12 -4
12 -9 0 -5 11 -11 25 -13 19 -4 25 -1 25 13 0 10 -4 20 -9 23 -4 3 -11 28 -15
56 -8 57 -27 80 -96 113 -25 11 -52 26 -60 33 -17 14 -142 28 -153 18z"/>
<path d="M4546 4089 c1 -22 0 -47 -3 -55 -8 -22 -23 -17 -23 8 0 12 -3 18 -7
14 -4 -3 -13 4 -21 16 -7 13 -11 15 -8 6 6 -19 -9 -25 -19 -8 -9 15 -25 2 -19
-14 3 -8 0 -17 -7 -22 -8 -5 -10 -3 -4 7 7 11 6 12 -6 3 -8 -6 -27 -11 -44
-10 -33 2 -63 -22 -59 -47 3 -22 -15 -22 -31 0 -12 15 -12 14 -8 -11 5 -26 4
-27 -15 -17 -16 8 -21 7 -26 -5 -10 -26 -7 -41 9 -41 8 0 15 4 15 9 0 4 10 6
23 4 12 -2 32 3 44 11 15 10 50 15 104 15 81 0 82 0 113 -34 18 -19 30 -41 28
-48 -3 -9 1 -11 13 -6 13 4 16 2 11 -9 -3 -10 1 -15 13 -15 10 0 22 7 25 16 9
23 8 27 -9 20 -18 -7 -18 2 0 34 13 23 14 23 15 4 0 -11 11 -31 25 -44 27 -25
33 -17 10 14 -8 10 -12 22 -10 26 3 4 -6 32 -18 61 -13 30 -21 63 -19 73 3 14
0 17 -13 12 -14 -5 -16 -2 -12 13 3 11 -2 28 -10 38 -13 17 -13 16 -4 -4 7
-13 7 -24 2 -28 -5 -3 -12 3 -14 12 -3 11 -5 8 -6 -9 -2 -44 -21 -33 -21 12 0
22 -4 40 -9 40 -4 0 -7 -18 -5 -41z"/>
<path d="M4340 1734 c1 -19 27 -43 64 -58 20 -8 35 -20 31 -25 -3 -6 -88 -9
-213 -9 -226 2 -223 3 -297 -63 -103 -91 -128 -117 -150 -156 -31 -56 -33 -87
-5 -78 15 5 21 0 26 -22 14 -66 22 -79 56 -95 20 -10 49 -20 64 -22 16 -3 31
-11 33 -17 2 -7 21 -28 41 -48 20 -20 58 -64 83 -98 l46 -62 -19 -73 c-10 -40
-30 -111 -44 -158 -34 -111 -56 -246 -42 -260 7 -7 6 -10 -1 -10 -15 0 -47
-85 -40 -104 3 -8 0 -17 -7 -19 -7 -3 -16 -20 -20 -39 -9 -45 -43 -234 -49
-279 l-5 -35 64 -2 c42 -1 64 2 64 9 0 8 4 8 14 0 10 -9 55 -11 158 -6 175 6
199 11 192 33 -5 15 -4 15 9 -1 14 -16 22 -17 106 -6 50 6 91 16 91 21 0 5 9
6 20 3 19 -6 20 -3 15 37 -28 202 -50 338 -76 458 -55 259 -70 348 -66 383 3
21 2 51 -3 67 -10 36 28 177 61 224 75 107 168 217 194 230 17 8 54 16 83 17
28 2 52 6 52 10 0 5 -12 16 -26 26 -14 10 -42 34 -62 54 -40 38 -149 94 -275
139 -84 31 -167 48 -167 34z"/>
<path d="M4870 1448 c-11 -12 -20 -27 -20 -34 0 -33 160 -120 240 -130 l55 -7
-20 23 c-25 28 -167 135 -205 155 -27 14 -31 14 -50 -7z"/>
</g>
</svg>
